v 0.21 -1.85 -0.01
v 0.21 -2.55 -0.01
v -0.49 -1.85 -0.01
newmtl 1
Ka 0.8274509803921568 0.6666666666666666 0.12941176470588237
Kd 0.8274509803921568 0.6666666666666666 0.12941176470588237
Ks 0.8274509803921568 0.6666666666666666 0.12941176470588237
d 0.0
endmtl
v -0.49 -2.55 -0.01
v -0.49 -2.55 0.0
v -0.207317 -2.55 0.0
v 0.21 -2.55 0.0
v 0.21 -1.85 0.0
v -0.207317 -1.85 0.0
v -0.49 -1.85 0.0
v 0.21 -2.95 -0.01
v 0.21 -3.65 -0.01
v -0.49 -2.95 -0.01
v -0.49 -3.65 -0.01
v -0.49 -3.65 0.0
v -0.207317 -3.65 0.0
v 0.21 -3.65 0.0
v 0.21 -2.95 0.0
v -0.207317 -2.95 0.0
v -0.49 -2.95 0.0
v 0.21 -4.05 -0.01
v 0.21 -4.75 -0.01
v -0.49 -4.05 -0.01
v -0.49 -4.75 -0.01
v -0.49 -4.75 0.0
v -0.207317 -4.75 0.0
v 0.21 -4.75 0.0
v 0.21 -4.05 0.0
v -0.207317 -4.05 0.0
v -0.49 -4.05 0.0
v 1.31 -1.85 -0.01
v 1.31 -2.55 -0.01
v 0.61 -1.85 -0.01
v 0.61 -2.55 -0.01
v 1.31 -2.55 0.0
v 0.615976 -2.55 0.0
v 0.61 -2.55 0.0
v 1.31 -1.85 0.0
v 0.615976 -1.85 0.0
v 0.61 -1.85 0.0
v 1.31 -2.95 -0.01
v 1.31 -3.65 -0.01
v 0.61 -2.95 -0.01
v 0.61 -3.65 -0.01
v 1.31 -3.65 0.0
v 0.615976 -3.65 0.0
v 0.61 -3.65 0.0
v 1.31 -2.95 0.0
v 0.615976 -2.95 0.0
v 0.61 -2.95 0.0
v 1.31 -4.05 -0.01
v 1.31 -4.75 -0.01
v 0.61 -4.05 -0.01
v 0.61 -4.75 -0.01
v 1.31 -4.75 0.0
v 0.615976 -4.75 0.0
v 0.61 -4.75 0.0
v 1.31 -4.05 0.0
v 0.615976 -4.05 0.0
v 0.61 -4.05 0.0
v 2.41 -1.85 -0.01
v 2.41 -2.55 -0.01
v 1.71 -1.85 -0.01
v 1.71 -2.55 -0.01
v 1.71 -2.55 0.0
v 2.186707 -2.55 0.0
v 2.41 -2.55 0.0
v 2.41 -1.85 0.0
v 2.186707 -1.85 0.0
v 1.71 -1.85 0.0
v -8.16 -8.650001 0.0
v -9.0 -8.650001 0.0
v -9.0 -8.152699 0.0
newmtl 2
Ka 0.2980392156862745 0.2980392156862745 0.2980392156862745
Kd 0.20784313725490197 0.20784313725490197 0.20784313725490197
Ks 0.01568627450980392 0.01568627450980392 0.01568627450980392
d 0.0
endmtl
v 8.16 -8.05 0.0
v 9.0 -8.05 0.0
v 9.0 -8.152699 0.0
v 0.426829 -7.146601 0.0
v 0.318415 -7.146601 0.0
v 0.318415 -5.942203 0.0
v 0.728546 -8.138539 0.0
v 0.829593 -8.152699 0.0
v 0.615976 -8.152699 0.0
v 8.16 -2.65 0.0
v 8.16 -2.75 0.0
v 2.186707 -2.75 0.0
v 0.318415 -2.75 0.0
v -0.207317 -2.75 0.0
v -0.799878 -2.75 0.0
v -0.799878 10.0 0.0
v -0.207317 10.0 0.0
v 0.318415 10.0 0.0
v 0.318415 -3.85 0.0
v -0.207317 -3.85 0.0
v -0.799878 -3.85 0.0
v -0.207317 -5.942203 0.0
v -0.799878 -5.942203 0.0
v 1.408537 -2.75 0.0
v 0.615976 -2.75 0.0
v 0.615976 10.0 0.0
v 1.408537 10.0 0.0
v 1.408537 -3.85 0.0
v 0.615976 -3.85 0.0
v 1.408537 -5.942203 0.0
v 0.615976 -5.942203 0.0
v 9.0 10.0 0.0
v 9.0 3.35 0.0
v 2.186707 10.0 0.0
v 8.16 3.35 0.0
v 8.16 0.95 0.0
v 9.0 0.95 0.0
v 9.0 0.35 0.0
v 8.16 0.35 0.0
v 8.16 -0.55 0.0
v 8.16 2.45 0.0
v 8.16 -2.05 0.0
v 9.0 -2.05 0.0
v 9.0 -2.65 0.0
v 8.16 1.85 0.0
v 9.0 1.85 0.0
v 9.0 2.45 0.0
v 8.16 -1.15 0.0
v 9.0 -1.15 0.0
v 9.0 -0.55 0.0
v 8.16 -3.55 0.0
v 9.0 -3.55 0.0
v 9.0 -3.85 0.0
v 2.186707 -3.85 0.0
v 2.41 -3.65 0.0
v 2.41 -2.95 0.0
v 2.186707 -2.95 0.0
v 1.71 -2.95 0.0
v 1.71 -3.65 0.0
v 2.186707 -3.65 0.0
v 2.186707 -5.942203 0.0
v 2.186707 -4.75 0.0
v 2.41 -4.75 0.0
v 9.0 -5.05 0.0
v 9.0 -5.65 0.0
v 8.16 -5.05 0.0
v 8.16 -5.65 0.0
v 2.41 -4.05 0.0
v 8.16 -4.15 0.0
v 8.16 -5.942203 0.0
v 9.0 -4.15 0.0
v 2.186707 -4.05 0.0
v 1.71 -4.05 0.0
v 1.71 -4.75 0.0
v 0.737568 -7.142666 0.0
v 0.621951 -7.17404 0.0
v 0.734591 -7.259953 0.0
v 0.856136 -7.244162 0.0
v 0.621951 -7.308186 0.0
v 0.954604 -7.25522 0.0
v 1.029453 -7.282232 0.0
v 1.020339 -8.146018 0.0
v 1.117263 -8.112656 0.0
v 1.408537 -8.152699 0.0
v 1.197702 -8.06129 0.0
v 1.272815 -7.982212 0.0
v 1.351468 -7.523295 0.0
v 1.313078 -7.409987 0.0
v 1.254465 -7.316493 0.0
v 1.164183 -7.229666 0.0
v 1.098667 -7.328536 0.0
v 1.159055 -7.395203 0.0
v 1.200282 -7.472413 0.0
v 1.326087 -7.887127 0.0
v 1.356184 -7.781278 0.0
v 1.365854 -7.665465 0.0
v 1.069199 -7.174992 0.0
v 0.957719 -7.142605 0.0
v 0.857279 -7.134406 0.0
v 1.226937 -7.579466 0.0
v 1.231707 -7.657271 0.0
v 1.221582 -7.765527 0.0
v 1.194414 -7.851541 0.0
v 1.153055 -7.920882 0.0
v 1.106129 -7.970387 0.0
v 1.044757 -8.011753 0.0
v 0.971893 -8.038578 0.0
v 0.87862 -8.04904 0.0
v 0.745879 -8.034307 0.0
v 0.639874 -7.994942 0.0
v 0.621951 -7.985015 0.0
v 0.621951 -8.094771 0.0
v 0.869761 -8.158327 0.0
v 0.615976 -10.0 0.0
v 0.897104 -8.158795 0.0
v 0.955911 -8.152699 0.0
v 1.408537 -10.0 0.0
v -0.109756 -8.036844 0.0
v -0.109756 -8.146601 0.0
v -0.207317 -8.152699 0.0
v -0.085366 -7.256357 0.0
v 0.318415 -8.152699 0.0
v -0.085366 -7.146601 0.0
v 0.292683 -7.695381 0.0
v 0.292683 -8.036844 0.0
v -0.060976 -7.695381 0.0
v -0.060976 -7.585625 0.0
v 0.292683 -7.585625 0.0
v 0.292683 -7.256357 0.0
v 0.318415 -8.146601 0.0
v 0.426829 -8.146601 0.0
v -1.329268 -8.146601 0.0
v -1.182927 -8.146601 0.0
v -0.799878 -8.152699 0.0
v -1.939024 -8.146601 0.0
v -1.837843 -7.866113 0.0
v -1.424733 -7.866113 0.0
v -9.0 -8.05 0.0
v -8.16 -8.05 0.0
v -2.085366 -8.146601 0.0
v -9.0 -7.15 0.0
v -9.0 -6.55 0.0
v -8.16 -7.15 0.0
v -8.16 -6.55 0.0
v -1.560976 -7.146601 0.0
v -1.695122 -7.146601 0.0
v -0.958442 -7.276989 0.0
v -1.029157 -7.355402 0.0
v -1.07563 -7.441403 0.0
v -0.731553 -7.162044 0.0
v -0.799878 -7.186036 0.0
v -0.848555 -7.203129 0.0
v -0.957396 -7.276071 0.0
v -1.059821 -7.872523 0.0
v -1.002474 -7.961967 0.0
v -0.920165 -8.040776 0.0
v -0.815751 -8.101455 0.0
v -0.799878 -8.106186 0.0
v -1.102489 -7.539929 0.0
v -1.109756 -7.634025 0.0
v -1.095724 -7.767854 0.0
v -0.700523 -8.1358 0.0
v -0.576791 -8.146601 0.0
v -0.304878 -8.146601 0.0
v -0.304878 -7.146601 0.0
v -0.587081 -7.146601 0.0
v 9.0 -6.55 0.0
v 9.0 -7.15 0.0
v 8.16 -6.55 0.0
v 8.16 -7.15 0.0
v 2.186707 -8.152699 0.0
v -8.16 -2.65 0.0
v -9.0 -2.65 0.0
v -9.0 -2.05 0.0
v -8.16 -2.05 0.0
v -8.16 -1.15 0.0
v -8.16 0.35 0.0
v -9.0 0.35 0.0
v -9.0 0.95 0.0
v -8.16 0.95 0.0
v -8.16 1.85 0.0
v -8.16 -0.55 0.0
v -9.0 -0.55 0.0
v -9.0 -1.15 0.0
v -9.0 3.35 0.0
v -9.0 10.0 0.0
v -8.16 3.35 0.0
v -8.16 2.45 0.0
v -9.0 2.45 0.0
v -9.0 1.85 0.0
v -9.0 -3.85 0.0
v -9.0 -3.55 0.0
v -8.16 -3.55 0.0
v -8.16 -5.65 0.0
v -9.0 -5.65 0.0
v -9.0 -5.05 0.0
v -8.16 -5.05 0.0
v -8.16 -4.15 0.0
v -8.16 -5.942203 0.0
v -8.16 -2.75 0.0
v -9.0 -4.15 0.0
v -0.799878 -10.0 0.0
v -9.0 -10.0 0.0
v -8.16 -9.549999 0.0
v -9.0 -9.549999 0.0
v 8.16 -8.650001 0.0
v 9.0 -8.650001 0.0
v 9.0 -9.549999 0.0
v 9.0 -10.0 0.0
v 8.16 -9.549999 0.0
v 2.186707 -10.0 0.0
v 1.45122 -8.036844 0.0
v 1.45122 -8.146601 0.0
v 1.963415 -8.146601 0.0
v 1.963415 -7.146601 0.0
v 1.829268 -8.036844 0.0
v 1.829268 -7.146601 0.0
v 0.318415 -10.0 0.0
v -0.207317 -10.0 0.0
v 7.85 2.88 0.8
v 7.85 -9.09 0.8
v 8.56 -8.650001 0.8
v 8.56 -9.549999 0.8
v -8.56 2.45 0.8
v -9.0 2.45 0.8
v -9.0 1.85 0.8
v 8.56 -6.55 0.8
v 8.56 -5.65 0.8
v 8.56 -7.15 0.8
v 9.0 -7.15 0.8
v 9.0 -6.55 0.8
v 9.0 3.35 0.8
v 9.0 10.0 0.8
v 8.56 3.35 0.8
v -9.0 10.0 0.8
v -8.56 3.35 0.8
v -9.0 3.35 0.8
v -7.85 2.88 0.8
v -8.56 1.85 0.8
v -8.56 0.95 0.8
v 8.56 -8.05 0.8
v 9.0 -8.05 0.8
v 9.0 -8.650001 0.8
v 8.56 -3.55 0.8
v 8.56 -2.65 0.8
v 8.56 -4.15 0.8
v 9.0 -4.15 0.8
v 9.0 -3.55 0.8
v 8.56 -0.55 0.8
v 8.56 0.35 0.8
v -9.0 0.95 0.8
v -9.0 0.35 0.8
v -8.56 0.35 0.8
v -8.56 -0.55 0.8
v -9.0 -0.55 0.8
v -9.0 -1.15 0.8
v -8.56 -1.15 0.8
v -8.56 -2.05 0.8
v -9.0 -2.05 0.8
v -9.0 -2.65 0.8
v -8.56 -2.65 0.8
v -8.56 -3.55 0.8
v -8.56 -6.55 0.8
v -9.0 -6.55 0.8
v -9.0 -7.15 0.8
v 8.56 -5.05 0.8
v 9.0 -5.05 0.8
v 9.0 -5.65 0.8
v -7.843185 2.931764 0.8
v -9.0 -3.55 0.8
v -9.0 -4.15 0.8
v -8.56 -4.15 0.8
v -8.56 -5.05 0.8
v 8.56 -1.15 0.8
v 9.0 -1.15 0.8
v 9.0 -0.55 0.8
v 7.701764 3.073185 0.8
v 7.75 3.053205 0.8
v -9.0 -5.05 0.8
v -9.0 -5.65 0.8
v -8.56 -5.65 0.8
v -8.56 -7.15 0.8
v 8.56 -2.05 0.8
v 9.0 -2.05 0.8
v 9.0 -2.65 0.8
v -7.823205 2.98 0.8
v -7.791421 3.021421 0.8
v -7.75 3.053205 0.8
v -9.0 -8.05 0.8
v -9.0 -8.650001 0.8
v -8.56 -8.05 0.8
v -8.56 -8.650001 0.8
v 9.0 -10.0 0.8
v 9.0 -9.549999 0.8
v -9.0 -9.549999 0.8
v -9.0 -10.0 0.8
v -8.56 -9.549999 0.8
v 7.823205 2.98 0.8
v 7.843185 2.931764 0.8
v 8.56 1.85 0.8
v 8.56 0.95 0.8
v 9.0 0.95 0.8
v 9.0 0.35 0.8
v 7.791421 3.021421 0.8
v 8.56 2.45 0.8
v 9.0 2.45 0.8
v 9.0 1.85 0.8
v 7.75 -9.263206 0.8
v 7.701764 -9.283185 0.8
v -7.75 -9.263206 0.8
v -7.791421 -9.231421 0.8
v -7.823205 -9.19 0.8
v -7.843185 -9.141764 0.8
v -7.85 -9.09 0.8
v -7.701764 3.073185 0.8
v -7.65 3.08 0.8
v 7.65 3.08 0.8
v 7.843185 -9.141764 0.8
v 7.823205 -9.19 0.8
v 7.791421 -9.231421 0.8
v 7.65 -9.29 0.8
v -7.65 -9.29 0.8
v -7.701764 -9.283185 0.8
v -8.16 3.35 -0.01
v -9.01 3.35 -0.01
v -9.01 3.35 0.81
v -8.56 3.35 0.81
v -8.56 2.45 0.81
v -9.01 2.45 0.81
v -9.01 2.45 -0.01
v -8.16 2.45 -0.01
v -9.0 3.175 0.81
v -9.01 3.175 0.81
v -9.0 3.175 -0.01
v -9.01 3.175 -0.01
v -9.01 2.625 0.81
v -9.01 2.625 -0.01
v -9.0 2.625 0.81
v -9.0 2.625 -0.01
v -8.805546 2.705546 -0.01
v -8.761843 2.7625 -0.01
v -8.928825 2.634371 -0.01
v -8.8625 2.661843 -0.01
v -8.761843 3.0375 -0.01
v -8.805546 3.094454 -0.01
v -8.8625 3.138157 -0.01
v -8.928825 3.16563 -0.01
v -8.73437 2.828825 -0.01
v -8.724999 2.9 -0.01
v -8.73437 2.971175 -0.01
v -8.805546 3.094454 0.81
v -8.761843 3.0375 0.81
v -8.761843 2.7625 0.81
v -8.805546 2.705546 0.81
v -8.8625 2.661843 0.81
v -8.928825 2.634371 0.81
v -8.928825 3.16563 0.81
v -8.8625 3.138157 0.81
v -8.73437 2.971175 0.81
v -8.724999 2.9 0.81
v -8.73437 2.828825 0.81
v -8.16 1.85 -0.01
v -9.01 1.85 -0.01
v -9.01 1.85 0.81
v -8.56 1.85 0.81
v -8.56 0.95 0.81
v -9.01 0.95 0.81
v -9.01 0.95 -0.01
v -8.16 0.95 -0.01
v -9.0 1.675 0.81
v -9.01 1.675 0.81
v -9.0 1.675 -0.01
v -9.01 1.675 -0.01
v -9.01 1.125 0.81
v -9.01 1.125 -0.01
v -9.0 1.125 0.81
v -9.0 1.125 -0.01
v -8.73437 1.471175 -0.01
v -8.761843 1.5375 -0.01
v -8.928825 1.13437 -0.01
v -8.8625 1.161843 -0.01
v -8.805546 1.205546 -0.01
v -8.761843 1.2625 -0.01
v -8.73437 1.328825 -0.01
v -8.724999 1.4 -0.01
v -8.805546 1.594454 -0.01
v -8.8625 1.638157 -0.01
v -8.928825 1.66563 -0.01
v -8.805546 1.594454 0.81
v -8.761843 1.5375 0.81
v -8.761843 1.2625 0.81
v -8.805546 1.205546 0.81
v -8.8625 1.161843 0.81
v -8.928825 1.13437 0.81
v -8.928825 1.66563 0.81
v -8.8625 1.638157 0.81
v -8.73437 1.471175 0.81
v -8.724999 1.4 0.81
v -8.73437 1.328825 0.81
v -8.16 0.35 -0.01
v -9.01 0.35 -0.01
v -9.01 0.35 0.81
v -8.56 0.35 0.81
v -8.56 -0.55 0.81
v -9.01 -0.55 0.81
v -9.01 -0.55 -0.01
v -8.16 -0.55 -0.01
v -9.0 0.175 0.81
v -9.01 0.175 0.81
v -9.0 0.175 -0.01
v -9.01 0.175 -0.01
v -9.01 -0.375 0.81
v -9.01 -0.375 -0.01
v -9.0 -0.375 0.81
v -9.0 -0.375 -0.01
v -8.805546 -0.294454 -0.01
v -8.761843 -0.2375 -0.01
v -8.928825 -0.36563 -0.01
v -8.8625 -0.338157 -0.01
v -8.73437 -0.171175 -0.01
v -8.724999 -0.1 -0.01
v -8.73437 -0.028825 -0.01
v -8.761843 0.0375 -0.01
v -8.805546 0.094454 -0.01
v -8.8625 0.138157 -0.01
v -8.928825 0.16563 -0.01
v -8.805546 0.094454 0.81
v -8.761843 0.0375 0.81
v -8.761843 -0.2375 0.81
v -8.805546 -0.294454 0.81
v -8.8625 -0.338157 0.81
v -8.928825 -0.36563 0.81
v -8.928825 0.16563 0.81
v -8.8625 0.138157 0.81
v -8.73437 -0.028825 0.81
v -8.724999 -0.1 0.81
v -8.73437 -0.171175 0.81
v -8.16 -1.15 -0.01
v -9.01 -1.15 -0.01
v -9.01 -1.15 0.81
v -8.56 -1.15 0.81
v -8.56 -2.05 0.81
v -9.01 -2.05 0.81
v -9.01 -2.05 -0.01
v -8.16 -2.05 -0.01
v -9.0 -1.325 0.81
v -9.01 -1.325 0.81
v -9.0 -1.325 -0.01
v -9.01 -1.325 -0.01
v -9.01 -1.875 0.81
v -9.01 -1.875 -0.01
v -9.0 -1.875 0.81
v -9.0 -1.875 -0.01
v -8.73437 -1.528825 -0.01
v -8.761843 -1.4625 -0.01
v -8.928825 -1.86563 -0.01
v -8.8625 -1.838157 -0.01
v -8.805546 -1.794454 -0.01
v -8.761843 -1.7375 -0.01
v -8.73437 -1.671175 -0.01
v -8.724999 -1.6 -0.01
v -8.805546 -1.405546 -0.01
v -8.8625 -1.361843 -0.01
v -8.928825 -1.33437 -0.01
v -8.805546 -1.405546 0.81
v -8.761843 -1.4625 0.81
v -8.761843 -1.7375 0.81
v -8.805546 -1.794454 0.81
v -8.8625 -1.838157 0.81
v -8.928825 -1.86563 0.81
v -8.928825 -1.33437 0.81
v -8.8625 -1.361843 0.81
v -8.73437 -1.528825 0.81
v -8.724999 -1.6 0.81
v -8.73437 -1.671175 0.81
v -8.16 -2.65 -0.01
v -9.01 -2.65 -0.01
v -9.01 -2.65 0.81
v -8.56 -2.65 0.81
v -8.56 -3.55 0.81
v -9.01 -3.55 0.81
v -9.01 -3.55 -0.01
v -8.16 -3.55 -0.01
v -9.0 -2.825 0.81
v -9.01 -2.825 0.81
v -9.0 -2.825 -0.01
v -9.01 -2.825 -0.01
v -9.01 -3.375 0.81
v -9.01 -3.375 -0.01
v -9.0 -3.375 0.81
v -9.0 -3.375 -0.01
v -8.805546 -3.294454 -0.01
v -8.761843 -3.2375 -0.01
v -8.928825 -3.36563 -0.01
v -8.8625 -3.338157 -0.01
v -8.761843 -2.9625 -0.01
v -8.805546 -2.905545 -0.01
v -8.8625 -2.861843 -0.01
v -8.928825 -2.83437 -0.01
v -8.73437 -3.171175 -0.01
v -8.724999 -3.1 -0.01
v -8.73437 -3.028825 -0.01
v -8.805546 -2.905545 0.81
v -8.761843 -2.9625 0.81
v -8.761843 -3.2375 0.81
v -8.805546 -3.294454 0.81
v -8.8625 -3.338157 0.81
v -8.928825 -3.36563 0.81
v -8.928825 -2.83437 0.81
v -8.8625 -2.861843 0.81
v -8.73437 -3.028825 0.81
v -8.724999 -3.1 0.81
v -8.73437 -3.171175 0.81
v -8.16 -4.15 -0.01
v -9.01 -4.15 -0.01
v -9.01 -4.15 0.81
v -8.56 -4.15 0.81
v -8.56 -5.05 0.81
v -9.01 -5.05 0.81
v -9.01 -5.05 -0.01
v -8.16 -5.05 -0.01
v -9.0 -4.325 0.81
v -9.01 -4.325 0.81
v -9.0 -4.325 -0.01
v -9.01 -4.325 -0.01
v -9.01 -4.875 0.81
v -9.01 -4.875 -0.01
v -9.0 -4.875 0.81
v -9.0 -4.875 -0.01
v -8.805546 -4.794454 -0.01
v -8.761843 -4.7375 -0.01
v -8.928825 -4.86563 -0.01
v -8.8625 -4.838157 -0.01
v -8.761843 -4.4625 -0.01
v -8.805546 -4.405546 -0.01
v -8.8625 -4.361843 -0.01
v -8.928825 -4.334371 -0.01
v -8.73437 -4.671175 -0.01
v -8.724999 -4.6 -0.01
v -8.73437 -4.528825 -0.01
v -8.805546 -4.405546 0.81
v -8.761843 -4.4625 0.81
v -8.928825 -4.334371 0.81
v -8.8625 -4.361843 0.81
v -8.761843 -4.7375 0.81
v -8.805546 -4.794454 0.81
v -8.8625 -4.838157 0.81
v -8.928825 -4.86563 0.81
v -8.73437 -4.528825 0.81
v -8.724999 -4.6 0.81
v -8.73437 -4.671175 0.81
v -8.16 -5.65 -0.01
v -9.01 -5.65 -0.01
v -9.01 -5.65 0.81
v -8.56 -5.65 0.81
v -8.56 -6.55 0.81
v -9.01 -6.55 0.81
v -9.01 -6.55 -0.01
v -8.16 -6.55 -0.01
v -9.0 -5.825 0.81
v -9.01 -5.825 0.81
v -9.0 -5.825 -0.01
v -9.01 -5.825 -0.01
v -9.01 -6.375 0.81
v -9.01 -6.375 -0.01
v -9.0 -6.375 0.81
v -9.0 -6.375 -0.01
v -8.805546 -6.294455 -0.01
v -8.761843 -6.2375 -0.01
v -8.928825 -6.365629 -0.01
v -8.8625 -6.338157 -0.01
v -8.761843 -5.9625 -0.01
v -8.805546 -5.905546 -0.01
v -8.8625 -5.861843 -0.01
v -8.928825 -5.834371 -0.01
v -8.73437 -6.171175 -0.01
v -8.724999 -6.1 -0.01
v -8.73437 -6.028825 -0.01
v -8.805546 -5.905546 0.81
v -8.761843 -5.9625 0.81
v -8.928825 -5.834371 0.81
v -8.8625 -5.861843 0.81
v -8.761843 -6.2375 0.81
v -8.805546 -6.294455 0.81
v -8.8625 -6.338157 0.81
v -8.928825 -6.365629 0.81
v -8.73437 -6.028825 0.81
v -8.724999 -6.1 0.81
v -8.73437 -6.171175 0.81
v -8.16 -7.15 -0.01
v -9.01 -7.15 -0.01
v -9.01 -7.15 0.81
v -8.56 -7.15 0.81
v -8.56 -8.05 0.81
v -9.01 -8.05 0.81
v -9.01 -8.05 -0.01
v -8.16 -8.05 -0.01
v -9.0 -7.325 0.81
v -9.01 -7.325 0.81
v -9.0 -7.325 -0.01
v -9.01 -7.325 -0.01
v -9.01 -7.875 0.81
v -9.01 -7.875 -0.01
v -9.0 -7.875 0.81
v -9.0 -7.875 -0.01
v -8.805546 -7.794454 -0.01
v -8.761843 -7.7375 -0.01
v -8.928825 -7.865629 -0.01
v -8.8625 -7.838157 -0.01
v -8.761843 -7.4625 -0.01
v -8.805546 -7.405546 -0.01
v -8.8625 -7.361843 -0.01
v -8.928825 -7.33437 -0.01
v -8.73437 -7.671175 -0.01
v -8.724999 -7.6 -0.01
v -8.73437 -7.528825 -0.01
v -8.805546 -7.405546 0.81
v -8.761843 -7.4625 0.81
v -8.761843 -7.7375 0.81
v -8.805546 -7.794454 0.81
v -8.8625 -7.838157 0.81
v -8.928825 -7.865629 0.81
v -8.928825 -7.33437 0.81
v -8.8625 -7.361843 0.81
v -8.73437 -7.528825 0.81
v -8.724999 -7.6 0.81
v -8.73437 -7.671175 0.81
v -8.16 -8.650001 -0.01
v -9.01 -8.650001 -0.01
v -9.01 -8.650001 0.81
v -8.56 -8.650001 0.81
v -8.56 -9.549999 0.81
v -9.01 -9.549999 0.81
v -9.01 -9.549999 -0.01
v -8.16 -9.549999 -0.01
v -9.0 -8.825001 0.81
v -9.01 -8.825001 0.81
v -9.0 -8.825001 -0.01
v -9.01 -8.825001 -0.01
v -9.01 -9.375 0.81
v -9.01 -9.375 -0.01
v -9.0 -9.375 0.81
v -9.0 -9.375 -0.01
v -8.928825 -9.365629 -0.01
v -8.8625 -9.338158 -0.01
v -8.805546 -9.294454 -0.01
v -8.73437 -9.028825 -0.01
v -8.761843 -8.9625 -0.01
v -8.805546 -8.905546 -0.01
v -8.8625 -8.861842 -0.01
v -8.928825 -8.834371 -0.01
v -8.761843 -9.2375 -0.01
v -8.73437 -9.171175 -0.01
v -8.724999 -9.1 -0.01
v -8.805546 -8.905546 0.81
v -8.761843 -8.9625 0.81
v -8.761843 -9.2375 0.81
v -8.805546 -9.294454 0.81
v -8.8625 -9.338158 0.81
v -8.928825 -9.365629 0.81
v -8.928825 -8.834371 0.81
v -8.8625 -8.861842 0.81
v -8.73437 -9.028825 0.81
v -8.724999 -9.1 0.81
v -8.73437 -9.171175 0.81
v 8.16 2.45 -0.01
v 9.01 2.45 -0.01
v 9.01 2.45 0.81
v 8.56 2.45 0.81
v 8.56 3.35 0.81
v 9.01 3.35 0.81
v 9.01 3.35 -0.01
v 8.16 3.35 -0.01
v 9.0 2.625 0.81
v 9.01 2.625 0.81
v 9.0 2.625 -0.01
v 9.01 2.625 -0.01
v 9.01 3.175 0.81
v 9.01 3.175 -0.01
v 9.0 3.175 0.81
v 9.0 3.175 -0.01
v 8.805546 3.094454 -0.01
v 8.761843 3.0375 -0.01
v 8.928825 3.16563 -0.01
v 8.8625 3.138157 -0.01
v 8.761843 2.7625 -0.01
v 8.805546 2.705546 -0.01
v 8.8625 2.661843 -0.01
v 8.928825 2.634371 -0.01
v 8.73437 2.971175 -0.01
v 8.724999 2.9 -0.01
v 8.73437 2.828825 -0.01
v 8.805546 2.705546 0.81
v 8.761843 2.7625 0.81
v 8.761843 3.0375 0.81
v 8.805546 3.094454 0.81
v 8.8625 3.138157 0.81
v 8.928825 3.16563 0.81
v 8.928825 2.634371 0.81
v 8.8625 2.661843 0.81
v 8.73437 2.828825 0.81
v 8.724999 2.9 0.81
v 8.73437 2.971175 0.81
v 8.56 0.95 0.81
v 8.56 1.85 0.81
v 9.01 1.85 0.81
v 9.01 1.85 -0.01
v 8.16 1.85 -0.01
v 8.16 0.95 -0.01
v 9.01 0.95 -0.01
v 9.01 0.95 0.81
v 9.0 1.125 0.81
v 9.01 1.125 0.81
v 9.0 1.125 -0.01
v 9.01 1.125 -0.01
v 9.01 1.675 0.81
v 9.01 1.675 -0.01
v 9.0 1.675 0.81
v 9.0 1.675 -0.01
v 8.73437 1.328825 -0.01
v 8.761843 1.2625 -0.01
v 8.928825 1.66563 -0.01
v 8.8625 1.638157 -0.01
v 8.805546 1.594454 -0.01
v 8.761843 1.5375 -0.01
v 8.73437 1.471175 -0.01
v 8.724999 1.4 -0.01
v 8.805546 1.205546 -0.01
v 8.8625 1.161843 -0.01
v 8.928825 1.13437 -0.01
v 8.805546 1.205546 0.81
v 8.761843 1.2625 0.81
v 8.761843 1.5375 0.81
v 8.805546 1.594454 0.81
v 8.8625 1.638157 0.81
v 8.928825 1.66563 0.81
v 8.928825 1.13437 0.81
v 8.8625 1.161843 0.81
v 8.73437 1.328825 0.81
v 8.724999 1.4 0.81
v 8.73437 1.471175 0.81
v 8.56 -0.55 0.81
v 8.56 0.35 0.81
v 9.01 0.35 0.81
v 9.01 0.35 -0.01
v 8.16 0.35 -0.01
v 8.16 -0.55 -0.01
v 9.01 -0.55 -0.01
v 9.01 -0.55 0.81
v 9.0 -0.375 0.81
v 9.01 -0.375 0.81
v 9.0 -0.375 -0.01
v 9.01 -0.375 -0.01
v 9.01 0.175 0.81
v 9.01 0.175 -0.01
v 9.0 0.175 0.81
v 9.0 0.175 -0.01
v 8.805546 0.094454 -0.01
v 8.761843 0.0375 -0.01
v 8.928825 0.16563 -0.01
v 8.8625 0.138157 -0.01
v 8.73437 -0.028825 -0.01
v 8.724999 -0.1 -0.01
v 8.73437 -0.171175 -0.01
v 8.761843 -0.2375 -0.01
v 8.805546 -0.294454 -0.01
v 8.8625 -0.338157 -0.01
v 8.928825 -0.36563 -0.01
v 8.805546 -0.294454 0.81
v 8.761843 -0.2375 0.81
v 8.761843 0.0375 0.81
v 8.805546 0.094454 0.81
v 8.8625 0.138157 0.81
v 8.928825 0.16563 0.81
v 8.928825 -0.36563 0.81
v 8.8625 -0.338157 0.81
v 8.73437 -0.171175 0.81
v 8.724999 -0.1 0.81
v 8.73437 -0.028825 0.81
v 8.56 -2.05 0.81
v 8.56 -1.15 0.81
v 9.01 -1.15 0.81
v 9.01 -1.15 -0.01
v 8.16 -1.15 -0.01
v 8.16 -2.05 -0.01
v 9.01 -2.05 -0.01
v 9.01 -2.05 0.81
v 9.0 -1.875 0.81
v 9.01 -1.875 0.81
v 9.0 -1.875 -0.01
v 9.01 -1.875 -0.01
v 9.01 -1.325 0.81
v 9.01 -1.325 -0.01
v 9.0 -1.325 0.81
v 9.0 -1.325 -0.01
v 8.73437 -1.671175 -0.01
v 8.761843 -1.7375 -0.01
v 8.928825 -1.33437 -0.01
v 8.8625 -1.361843 -0.01
v 8.805546 -1.405546 -0.01
v 8.761843 -1.4625 -0.01
v 8.73437 -1.528825 -0.01
v 8.724999 -1.6 -0.01
v 8.805546 -1.794454 -0.01
v 8.8625 -1.838157 -0.01
v 8.928825 -1.86563 -0.01
v 8.805546 -1.794454 0.81
v 8.761843 -1.7375 0.81
v 8.761843 -1.4625 0.81
v 8.805546 -1.405546 0.81
v 8.8625 -1.361843 0.81
v 8.928825 -1.33437 0.81
v 8.928825 -1.86563 0.81
v 8.8625 -1.838157 0.81
v 8.73437 -1.671175 0.81
v 8.724999 -1.6 0.81
v 8.73437 -1.528825 0.81
v 8.56 -3.55 0.81
v 8.56 -2.65 0.81
v 9.01 -2.65 0.81
v 9.01 -2.65 -0.01
v 8.16 -2.65 -0.01
v 8.16 -3.55 -0.01
v 9.01 -3.55 -0.01
v 9.01 -3.55 0.81
v 9.0 -3.375 0.81
v 9.01 -3.375 0.81
v 9.0 -3.375 -0.01
v 9.01 -3.375 -0.01
v 9.01 -2.825 0.81
v 9.01 -2.825 -0.01
v 9.0 -2.825 0.81
v 9.0 -2.825 -0.01
v 8.805546 -2.905545 -0.01
v 8.761843 -2.9625 -0.01
v 8.928825 -2.83437 -0.01
v 8.8625 -2.861843 -0.01
v 8.761843 -3.2375 -0.01
v 8.805546 -3.294454 -0.01
v 8.8625 -3.338157 -0.01
v 8.928825 -3.36563 -0.01
v 8.73437 -3.028825 -0.01
v 8.724999 -3.1 -0.01
v 8.73437 -3.171175 -0.01
v 8.805546 -3.294454 0.81
v 8.761843 -3.2375 0.81
v 8.761843 -2.9625 0.81
v 8.805546 -2.905545 0.81
v 8.8625 -2.861843 0.81
v 8.928825 -2.83437 0.81
v 8.928825 -3.36563 0.81
v 8.8625 -3.338157 0.81
v 8.73437 -3.171175 0.81
v 8.724999 -3.1 0.81
v 8.73437 -3.028825 0.81
v 8.56 -5.05 0.81
v 8.56 -4.15 0.81
v 9.01 -4.15 0.81
v 9.01 -4.15 -0.01
v 8.16 -4.15 -0.01
v 8.16 -5.05 -0.01
v 9.01 -5.05 -0.01
v 9.01 -5.05 0.81
v 9.0 -4.875 0.81
v 9.01 -4.875 0.81
v 9.0 -4.875 -0.01
v 9.01 -4.875 -0.01
v 9.01 -4.325 0.81
v 9.01 -4.325 -0.01
v 9.0 -4.325 0.81
v 9.0 -4.325 -0.01
v 8.805546 -4.405546 -0.01
v 8.761843 -4.4625 -0.01
v 8.928825 -4.334371 -0.01
v 8.8625 -4.361843 -0.01
v 8.761843 -4.7375 -0.01
v 8.805546 -4.794454 -0.01
v 8.8625 -4.838157 -0.01
v 8.928825 -4.86563 -0.01
v 8.73437 -4.528825 -0.01
v 8.724999 -4.6 -0.01
v 8.73437 -4.671175 -0.01
v 8.805546 -4.794454 0.81
v 8.761843 -4.7375 0.81
v 8.761843 -4.4625 0.81
v 8.805546 -4.405546 0.81
v 8.8625 -4.361843 0.81
v 8.928825 -4.334371 0.81
v 8.928825 -4.86563 0.81
v 8.8625 -4.838157 0.81
v 8.73437 -4.671175 0.81
v 8.724999 -4.6 0.81
v 8.73437 -4.528825 0.81
v 8.56 -6.55 0.81
v 8.56 -5.65 0.81
v 9.01 -5.65 0.81
v 9.01 -5.65 -0.01
v 8.16 -5.65 -0.01
v 8.16 -6.55 -0.01
v 9.01 -6.55 -0.01
v 9.01 -6.55 0.81
v 9.0 -6.375 0.81
v 9.01 -6.375 0.81
v 9.0 -6.375 -0.01
v 9.01 -6.375 -0.01
v 9.01 -5.825 0.81
v 9.01 -5.825 -0.01
v 9.0 -5.825 0.81
v 9.0 -5.825 -0.01
v 8.805546 -5.905546 -0.01
v 8.761843 -5.9625 -0.01
v 8.928825 -5.834371 -0.01
v 8.8625 -5.861843 -0.01
v 8.761843 -6.2375 -0.01
v 8.805546 -6.294455 -0.01
v 8.8625 -6.338157 -0.01
v 8.928825 -6.365629 -0.01
v 8.73437 -6.028825 -0.01
v 8.724999 -6.1 -0.01
v 8.73437 -6.171175 -0.01
v 8.805546 -6.294455 0.81
v 8.761843 -6.2375 0.81
v 8.761843 -5.9625 0.81
v 8.805546 -5.905546 0.81
v 8.8625 -5.861843 0.81
v 8.928825 -5.834371 0.81
v 8.928825 -6.365629 0.81
v 8.8625 -6.338157 0.81
v 8.73437 -6.171175 0.81
v 8.724999 -6.1 0.81
v 8.73437 -6.028825 0.81
v 8.56 -8.05 0.81
v 8.56 -7.15 0.81
v 9.01 -7.15 0.81
v 9.01 -7.15 -0.01
v 8.16 -7.15 -0.01
v 8.16 -8.05 -0.01
v 9.01 -8.05 -0.01
v 9.01 -8.05 0.81
v 9.0 -7.875 0.81
v 9.01 -7.875 0.81
v 9.0 -7.875 -0.01
v 9.01 -7.875 -0.01
v 9.01 -7.325 0.81
v 9.01 -7.325 -0.01
v 9.0 -7.325 0.81
v 9.0 -7.325 -0.01
v 8.73437 -7.671175 -0.01
v 8.761843 -7.7375 -0.01
v 8.928825 -7.33437 -0.01
v 8.8625 -7.361843 -0.01
v 8.805546 -7.405546 -0.01
v 8.805546 -7.794454 -0.01
v 8.8625 -7.838157 -0.01
v 8.928825 -7.865629 -0.01
v 8.761843 -7.4625 -0.01
v 8.73437 -7.528825 -0.01
v 8.724999 -7.6 -0.01
v 8.805546 -7.794454 0.81
v 8.761843 -7.7375 0.81
v 8.761843 -7.4625 0.81
v 8.805546 -7.405546 0.81
v 8.8625 -7.361843 0.81
v 8.928825 -7.33437 0.81
v 8.928825 -7.865629 0.81
v 8.8625 -7.838157 0.81
v 8.73437 -7.671175 0.81
v 8.724999 -7.6 0.81
v 8.73437 -7.528825 0.81
v 8.56 -9.549999 0.81
v 8.56 -8.650001 0.81
v 9.01 -8.650001 0.81
v 9.01 -8.650001 -0.01
v 8.16 -8.650001 -0.01
v 8.16 -9.549999 -0.01
v 9.01 -9.549999 -0.01
v 9.01 -9.549999 0.81
v 9.0 -9.375 0.81
v 9.01 -9.375 0.81
v 9.0 -9.375 -0.01
v 9.01 -9.375 -0.01
v 9.01 -8.825001 0.81
v 9.01 -8.825001 -0.01
v 9.0 -8.825001 0.81
v 9.0 -8.825001 -0.01
v 8.928825 -8.834371 -0.01
v 8.8625 -8.861842 -0.01
v 8.805546 -8.905546 -0.01
v 8.73437 -9.171175 -0.01
v 8.761843 -9.2375 -0.01
v 8.761843 -8.9625 -0.01
v 8.73437 -9.028825 -0.01
v 8.724999 -9.1 -0.01
v 8.805546 -9.294454 -0.01
v 8.8625 -9.338158 -0.01
v 8.928825 -9.365629 -0.01
v 8.805546 -9.294454 0.81
v 8.761843 -9.2375 0.81
v 8.761843 -8.9625 0.81
v 8.805546 -8.905546 0.81
v 8.8625 -8.861842 0.81
v 8.928825 -8.834371 0.81
v 8.928825 -9.365629 0.81
v 8.8625 -9.338158 0.81
v 8.73437 -9.171175 0.81
v 8.724999 -9.1 0.81
v 8.73437 -9.028825 0.81
v 7.85 2.88 3.0
v 7.85 -9.09 3.0
newmtl 3
Ka 0.6666666666666666 0.6666666666666666 0.6666666666666666
Kd 0.6666666666666666 0.6666666666666666 0.6666666666666666
Ks 0.4666666666666667 0.4666666666666667 0.4666666666666667
d 0.0
endmtl
v -7.65 3.08 3.0
v 7.65 3.08 3.0
v -7.85 2.88 3.0
v -7.85 -9.09 3.0
v 7.65 -9.29 3.0
v -7.65 -9.29 3.0
v -6.473779 -8.24242 3.2
v -6.465261 -8.307124 3.2
v 7.65 -9.09 3.2
v -6.473779 -8.37183 3.2
v -6.498754 -8.432125 3.2
v -6.931767 -8.432125 3.2
v -6.956742 -8.37183 3.2
v -7.65 -9.09 3.2
v -6.715261 -8.557125 3.2
v -6.779965 -8.548606 3.2
v -6.84026 -8.523631 3.2
v -6.892037 -8.483902 3.2
v -6.538484 -8.483902 3.2
v -6.59026 -8.523631 3.2
v -6.650556 -8.548606 3.2
v -6.931767 -8.182125 3.2
v -7.65 2.88 3.2
v -6.956742 -8.24242 3.2
v -6.965261 -8.307124 3.2
v 7.65 2.88 3.2
v -6.538484 -8.130348 3.2
v -6.498754 -8.182125 3.2
v -6.892037 -8.130348 3.2
v -6.84026 -8.090618 3.2
v -6.779965 -8.065643 3.2
v -6.715261 -8.057125 3.2
v -6.650556 -8.065643 3.2
v -6.59026 -8.090618 3.2
v -7.701764 3.073185 3.0
v -7.75 3.053205 3.0
v -7.791421 3.021421 3.0
v -7.823205 2.98 3.0
v -7.843185 2.931764 3.0
v -7.65 3.073185 3.051764
v 7.65 3.073185 3.051764
v -7.65 3.053205 3.1
v 7.65 3.053205 3.1
v -7.65 3.021421 3.141421
v 7.65 3.021421 3.141421
v -7.65 2.98 3.173205
v 7.65 2.98 3.173205
v -7.65 2.931764 3.193185
v 7.65 2.931764 3.193185
v 7.843185 2.931764 3.0
v 7.823205 2.98 3.0
v 7.791421 3.021421 3.0
v 7.75 3.053205 3.0
v 7.701764 3.073185 3.0
v -7.843185 2.88 3.051764
v -7.836603 2.93 3.051764
v -7.736602 2.93 3.173205
v -7.694829 2.905882 3.193185
v -7.686603 2.916603 3.193185
v -7.663398 2.93 3.193185
v -7.7 2.893397 3.193185
v -7.746593 2.905882 3.173205
v -7.786602 2.916603 3.141421
v -7.701764 2.88 3.193185
v -7.720711 2.950711 3.173205
v -7.675882 2.924829 3.193185
v -7.7 2.966603 3.173205
v -7.675882 2.976593 3.173205
v -7.75 2.88 3.173205
v -7.791421 2.88 3.141421
v -7.823205 2.88 3.1
v -7.772475 2.950711 3.141421
v -7.75 2.98 3.141421
v -7.720711 3.002475 3.141421
v -7.686603 3.016603 3.141421
v -7.817303 2.924829 3.1
v -7.8 2.966603 3.1
v -7.772475 3.002475 3.1
v -7.736602 3.03 3.1
v -7.694829 3.047303 3.1
v -7.817303 2.976593 3.051764
v -7.786602 3.016603 3.051764
v -7.746593 3.047303 3.051764
v -7.7 3.066603 3.051764
v 7.7 3.066603 3.051764
v 7.7 2.966603 3.173205
v 7.675882 2.924829 3.193185
v 7.686603 2.916603 3.193185
v 7.701764 2.88 3.193185
v 7.7 2.893397 3.193185
v 7.663398 2.93 3.193185
v 7.675882 2.976593 3.173205
v 7.686603 3.016603 3.141421
v 7.720711 2.950711 3.173205
v 7.694829 2.905882 3.193185
v 7.736602 2.93 3.173205
v 7.746593 2.905882 3.173205
v 7.75 2.88 3.173205
v 7.720711 3.002475 3.141421
v 7.75 2.98 3.141421
v 7.772475 2.950711 3.141421
v 7.786602 2.916603 3.141421
v 7.791421 2.88 3.141421
v 7.694829 3.047303 3.1
v 7.736602 3.03 3.1
v 7.772475 3.002475 3.1
v 7.8 2.966603 3.1
v 7.817303 2.924829 3.1
v 7.823205 2.88 3.1
v 7.746593 3.047303 3.051764
v 7.786602 3.016603 3.051764
v 7.817303 2.976593 3.051764
v 7.836603 2.93 3.051764
v 7.843185 2.88 3.051764
v -7.843185 -9.141764 3.0
v -7.823205 -9.19 3.0
v -7.791421 -9.231421 3.0
v -7.75 -9.263206 3.0
v -7.701764 -9.283185 3.0
v -7.843185 -9.09 3.051764
v -7.823205 -9.09 3.1
v -7.791421 -9.09 3.141421
v -7.75 -9.09 3.173205
v -7.701764 -9.09 3.193185
v 7.843185 -9.09 3.051764
v 7.823205 -9.09 3.1
v 7.791421 -9.09 3.141421
v 7.75 -9.09 3.173205
v 7.701764 -9.09 3.193185
v 7.701764 -9.283185 3.0
v 7.75 -9.263206 3.0
v 7.791421 -9.231421 3.0
v 7.823205 -9.19 3.0
v 7.843185 -9.141764 3.0
v -7.65 -9.283185 3.051764
v -7.7 -9.276603 3.051764
v -7.7 -9.176602 3.173205
v -7.675882 -9.134829 3.193185
v -7.686603 -9.126603 3.193185
v -7.7 -9.103397 3.193185
v -7.663398 -9.139999 3.193185
v -7.675882 -9.186593 3.173205
v -7.686603 -9.226603 3.141421
v -7.65 -9.141764 3.193185
v -7.720711 -9.16071 3.173205
v -7.694829 -9.115882 3.193185
v -7.736602 -9.139999 3.173205
v -7.746593 -9.115882 3.173205
v -7.65 -9.19 3.173205
v -7.65 -9.231421 3.141421
v -7.65 -9.263206 3.1
v -7.720711 -9.212474 3.141421
v -7.75 -9.19 3.141421
v -7.772475 -9.16071 3.141421
v -7.786602 -9.126603 3.141421
v -7.694829 -9.257303 3.1
v -7.736602 -9.24 3.1
v -7.772475 -9.212474 3.1
v -7.8 -9.176602 3.1
v -7.817303 -9.134829 3.1
v -7.746593 -9.257303 3.051764
v -7.786602 -9.226603 3.051764
v -7.817303 -9.186593 3.051764
v -7.836603 -9.139999 3.051764
v 7.836603 -9.139999 3.051764
v 7.736602 -9.139999 3.173205
v 7.694829 -9.115882 3.193185
v 7.686603 -9.126603 3.193185
v 7.65 -9.141764 3.193185
v 7.663398 -9.139999 3.193185
v 7.7 -9.103397 3.193185
v 7.746593 -9.115882 3.173205
v 7.786602 -9.126603 3.141421
v 7.720711 -9.16071 3.173205
v 7.675882 -9.134829 3.193185
v 7.7 -9.176602 3.173205
v 7.675882 -9.186593 3.173205
v 7.65 -9.19 3.173205
v 7.772475 -9.16071 3.141421
v 7.75 -9.19 3.141421
v 7.720711 -9.212474 3.141421
v 7.686603 -9.226603 3.141421
v 7.65 -9.231421 3.141421
v 7.817303 -9.134829 3.1
v 7.8 -9.176602 3.1
v 7.772475 -9.212474 3.1
v 7.736602 -9.24 3.1
v 7.694829 -9.257303 3.1
v 7.65 -9.263206 3.1
v 7.817303 -9.186593 3.051764
v 7.786602 -9.226603 3.051764
v 7.746593 -9.257303 3.051764
v 7.7 -9.276603 3.051764
v 7.65 -9.283185 3.051764
v -6.465261 -8.307124 3.18
v -6.473779 -8.24242 3.18
newmtl 4
Ka 0.4980392156862745 0.4980392156862745 0.4980392156862745
Kd 0.34901960784313724 0.34901960784313724 0.34901960784313724
Ks 0.023529411764705882 0.023529411764705882 0.023529411764705882
d 0.0
endmtl
v -6.498754 -8.182125 3.18
v -6.538484 -8.130348 3.18
v -6.59026 -8.090618 3.18
v -6.650556 -8.065643 3.18
v -6.715261 -8.057125 3.18
v -6.779965 -8.065643 3.18
v -6.84026 -8.090618 3.18
v -6.892037 -8.130348 3.18
v -6.931767 -8.182125 3.18
v -6.956742 -8.24242 3.18
v -6.965261 -8.307124 3.18
v -6.956742 -8.37183 3.18
v -6.931767 -8.432125 3.18
v -6.892037 -8.483902 3.18
v -6.84026 -8.523631 3.18
v -6.779965 -8.548606 3.18
v -6.715261 -8.557125 3.18
v -6.650556 -8.548606 3.18
v -6.59026 -8.523631 3.18
v -6.538484 -8.483902 3.18
v -6.498754 -8.432125 3.18
v -6.473779 -8.37183 3.18
v -6.715261 -8.307124 3.18
v -1.695122 -7.146601 0.02
v -2.085366 -8.146601 0.02
newmtl 5
Ka 1.0 1.0 1.0
Kd 1.0 1.0 1.0
Ks 0.8784313725490196 0.8784313725490196 0.8784313725490196
d 0.0
endmtl
v -1.939024 -8.146601 0.02
v -1.837843 -7.866113 0.02
v -1.424733 -7.866113 0.02
v -1.329268 -8.146601 0.02
v -1.182927 -8.146601 0.02
v -1.560976 -7.146601 0.02
v -1.45846 -7.756357 0.02
v -1.792874 -7.756357 0.02
v -1.60766 -7.338674 0.02
v -1.617284 -7.303992 0.02
v -1.623666 -7.268552 0.02
v -1.626906 -7.268552 0.02
v -1.633431 -7.303885 0.02
v -1.64234 -7.338674 0.02
v -1.45846 -7.756357 0.0
v -1.792874 -7.756357 0.0
v -1.60766 -7.338674 0.0
v -1.617284 -7.303992 0.0
v -1.623666 -7.268552 0.0
v -1.626906 -7.268552 0.0
v -1.633431 -7.303885 0.0
v -1.64234 -7.338674 0.0
v -0.576791 -8.146601 0.02
v -0.304878 -8.146601 0.02
v -0.304878 -7.146601 0.02
v -0.587081 -7.146601 0.02
v -1.109756 -7.634025 0.02
v -1.102489 -7.539929 0.02
v -1.07563 -7.441403 0.02
v -1.029157 -7.355402 0.02
v -0.958442 -7.276989 0.02
v -0.957396 -7.276071 0.02
v -0.848555 -7.203129 0.02
v -0.731553 -7.162044 0.02
v -0.700523 -8.1358 0.02
v -0.815751 -8.101455 0.02
v -0.920165 -8.040776 0.02
v -1.002474 -7.961967 0.02
v -1.059821 -7.872523 0.02
v -1.095724 -7.767854 0.02
v -0.90903 -7.396587 0.02
v -0.860457 -7.345013 0.02
v -0.787412 -7.297824 0.02
v -0.704868 -7.268939 0.02
v -0.586509 -7.256357 0.02
v -0.439024 -7.256357 0.02
v -0.439024 -8.036844 0.02
v -0.580983 -8.036844 0.02
v -0.686484 -8.027025 0.02
v -0.770635 -8.000758 0.02
v -0.838834 -7.960261 0.02
v -0.894921 -7.904862 0.02
v -0.937099 -7.835915 0.02
v -0.966428 -7.741916 0.02
v -0.97561 -7.636883 0.02
v -0.967114 -7.537358 0.02
v -0.94377 -7.458264 0.02
v -0.586509 -7.256357 0.0
v -0.439024 -7.256357 0.0
v -0.704868 -7.268939 0.0
v -0.787412 -7.297824 0.0
v -0.860457 -7.345013 0.0
v -0.90903 -7.396587 0.0
v -0.94377 -7.458264 0.0
v -0.967114 -7.537358 0.0
v -0.97561 -7.636883 0.0
v -0.966428 -7.741916 0.0
v -0.937099 -7.835915 0.0
v -0.894921 -7.904862 0.0
v -0.838834 -7.960261 0.0
v -0.770635 -8.000758 0.0
v -0.686484 -8.027025 0.0
v -0.580983 -8.036844 0.0
v -0.439024 -8.036844 0.0
v -0.109756 -8.036844 0.02
v -0.109756 -8.146601 0.02
v 0.426829 -8.146601 0.02
v 0.426829 -7.146601 0.02
v -0.085366 -7.146601 0.02
v -0.085366 -7.256357 0.02
v 0.292683 -7.256357 0.02
v 0.292683 -7.585625 0.02
v -0.060976 -7.585625 0.02
v -0.060976 -7.695381 0.02
v 0.292683 -7.695381 0.02
v 0.292683 -8.036844 0.02
v 0.621951 -7.985015 0.02
v 0.621951 -8.094771 0.02
v 0.728546 -8.138539 0.02
v 0.897104 -8.158795 0.02
v 0.869761 -8.158327 0.02
v 1.365854 -7.665465 0.02
v 1.356184 -7.781278 0.02
v 1.326087 -7.887127 0.02
v 1.272815 -7.982212 0.02
v 1.197702 -8.06129 0.02
v 1.117263 -8.112656 0.02
v 1.020339 -8.146018 0.02
v 0.857279 -7.134406 0.02
v 0.957719 -7.142605 0.02
v 1.069199 -7.174992 0.02
v 1.164183 -7.229666 0.02
v 1.254465 -7.316493 0.02
v 1.313078 -7.409987 0.02
v 1.351468 -7.523295 0.02
v 0.621951 -7.17404 0.02
v 0.737568 -7.142666 0.02
v 0.621951 -7.308186 0.02
v 0.856136 -7.244162 0.02
v 0.734591 -7.259953 0.02
v 1.231707 -7.657271 0.02
v 1.226937 -7.579466 0.02
v 1.200282 -7.472413 0.02
v 1.159055 -7.395203 0.02
v 1.098667 -7.328536 0.02
v 1.029453 -7.282232 0.02
v 0.954604 -7.25522 0.02
v 0.87862 -8.04904 0.02
v 0.971893 -8.038578 0.02
v 1.044757 -8.011753 0.02
v 1.106129 -7.970387 0.02
v 1.153055 -7.920882 0.02
v 1.194414 -7.851541 0.02
v 1.221582 -7.765527 0.02
v 0.639874 -7.994942 0.02
v 0.745879 -8.034307 0.02
v 1.45122 -8.036844 0.02
v 1.45122 -8.146601 0.02
v 1.963415 -8.146601 0.02
v 1.963415 -7.146601 0.02
v 1.829268 -7.146601 0.02
v 1.829268 -8.036844 0.02
v 1.71 -4.05 -0.01
v 1.71 -4.75 -0.01
v 2.41 -4.05 -0.01
v 2.41 -4.75 -0.01
v 1.71 -2.95 -0.01
v 1.71 -3.65 -0.01
v 2.41 -2.95 -0.01
v 2.41 -3.65 -0.01
usemtl 1
f 1// 2// 3//
f 3// 2// 4//
f 5// 4// 6//
f 6// 4// 2//
f 6// 2// 7//
f 2// 1// 7//
f 7// 1// 8//
f 8// 1// 9//
f 9// 1// 3//
f 9// 3// 10//
f 3// 4// 10//
f 10// 4// 5//
f 11// 12// 13//
f 13// 12// 14//
f 15// 14// 16//
f 16// 14// 12//
f 16// 12// 17//
f 12// 11// 17//
f 17// 11// 18//
f 18// 11// 19//
f 19// 11// 13//
f 19// 13// 20//
f 13// 14// 20//
f 20// 14// 15//
f 21// 22// 23//
f 23// 22// 24//
f 25// 24// 26//
f 26// 24// 22//
f 26// 22// 27//
f 22// 21// 27//
f 27// 21// 28//
f 28// 21// 29//
f 29// 21// 23//
f 29// 23// 30//
f 23// 24// 30//
f 30// 24// 25//
f 31// 32// 33//
f 33// 32// 34//
f 32// 35// 34//
f 34// 35// 36//
f 34// 36// 37//
f 32// 31// 35//
f 35// 31// 38//
f 38// 31// 39//
f 39// 31// 33//
f 39// 33// 40//
f 33// 34// 40//
f 40// 34// 37//
f 41// 42// 43//
f 43// 42// 44//
f 42// 45// 44//
f 44// 45// 46//
f 44// 46// 47//
f 42// 41// 45//
f 45// 41// 48//
f 48// 41// 49//
f 49// 41// 43//
f 49// 43// 50//
f 43// 44// 50//
f 50// 44// 47//
f 51// 52// 53//
f 53// 52// 54//
f 52// 55// 54//
f 54// 55// 56//
f 54// 56// 57//
f 52// 51// 55//
f 55// 51// 58//
f 58// 51// 59//
f 59// 51// 53//
f 59// 53// 60//
f 53// 54// 60//
f 60// 54// 57//
f 61// 62// 63//
f 63// 62// 64//
f 65// 64// 66//
f 66// 64// 62//
f 66// 62// 67//
f 62// 61// 67//
f 67// 61// 68//
f 68// 61// 69//
f 69// 61// 63//
f 69// 63// 70//
f 63// 64// 70//
f 70// 64// 65//
usemtl 2
f 71// 72// 73//
f 74// 75// 76//
f 77// 78// 79//
f 80// 81// 82//
f 83// 84// 85//
f 86// 7// 8//
f 7// 86// 6//
f 6// 86// 87//
f 6// 87// 5//
f 5// 87// 88//
f 5// 88// 10//
f 10// 88// 89//
f 10// 89// 9//
f 9// 89// 90//
f 9// 90// 8//
f 8// 90// 91//
f 8// 91// 86//
f 18// 86// 17//
f 17// 86// 92//
f 17// 92// 16//
f 16// 92// 93//
f 16// 93// 15//
f 15// 93// 94//
f 15// 94// 20//
f 20// 94// 88//
f 20// 88// 19//
f 19// 88// 87//
f 19// 87// 18//
f 18// 87// 86//
f 94// 30// 25//
f 30// 94// 29//
f 29// 94// 93//
f 29// 93// 28//
f 28// 93// 92//
f 28// 92// 27//
f 27// 92// 79//
f 27// 79// 26//
f 26// 79// 95//
f 26// 95// 25//
f 25// 95// 96//
f 25// 96// 94//
f 97// 35// 38//
f 35// 97// 36//
f 36// 97// 98//
f 36// 98// 37//
f 37// 98// 86//
f 37// 86// 40//
f 40// 86// 91//
f 40// 91// 39//
f 39// 91// 99//
f 39// 99// 38//
f 38// 99// 100//
f 38// 100// 97//
f 47// 92// 50//
f 50// 92// 86//
f 50// 86// 49//
f 49// 86// 98//
f 49// 98// 48//
f 48// 98// 97//
f 48// 97// 45//
f 45// 97// 101//
f 45// 101// 46//
f 59// 92// 102//
f 102// 92// 47//
f 102// 47// 46//
f 55// 103// 56//
f 56// 103// 104//
f 56// 104// 57//
f 46// 101// 102//
f 102// 101// 58//
f 102// 58// 59//
f 105// 106// 107//
f 107// 106// 108//
f 85// 66// 67//
f 109// 110// 111//
f 112// 113// 85//
f 66// 85// 65//
f 65// 85// 97//
f 65// 97// 70//
f 70// 97// 100//
f 70// 100// 69//
f 69// 100// 107//
f 69// 107// 68//
f 68// 107// 108//
f 68// 108// 67//
f 67// 108// 114//
f 67// 114// 85//
f 115// 116// 117//
f 111// 112// 109//
f 109// 112// 85//
f 109// 85// 118//
f 118// 85// 114//
f 118// 114// 119//
f 119// 114// 120//
f 117// 83// 115//
f 115// 83// 85//
f 115// 85// 121//
f 121// 85// 113//
f 121// 113// 122//
f 122// 113// 123//
f 124// 125// 126//
f 126// 127// 124//
f 124// 127// 128//
f 124// 128// 84//
f 84// 128// 129//
f 84// 129// 85//
f 85// 129// 130//
f 85// 130// 97//
f 97// 130// 131//
f 97// 131// 101//
f 101// 131// 132//
f 101// 132// 127//
f 127// 132// 133//
f 127// 133// 128//
f 134// 135// 136//
f 137// 138// 139//
f 139// 138// 140//
f 141// 142// 136//
f 136// 142// 139//
f 136// 139// 134//
f 134// 139// 140//
f 134// 140// 143//
f 144// 142// 126//
f 126// 142// 141//
f 126// 141// 127//
f 127// 141// 145//
f 127// 145// 101//
f 101// 145// 146//
f 101// 146// 147//
f 135// 134// 147//
f 147// 134// 103//
f 147// 103// 101//
f 101// 103// 55//
f 101// 55// 58//
f 148// 149// 104//
f 150// 151// 152//
f 152// 151// 153//
f 152// 153// 154//
f 155// 156// 157//
f 157// 156// 158//
f 157// 158// 159//
f 160// 161// 103//
f 103// 161// 162//
f 103// 162// 163//
f 154// 164// 152//
f 152// 164// 165//
f 152// 165// 166//
f 159// 167// 157//
f 157// 167// 168//
f 157// 168// 169//
f 163// 170// 103//
f 103// 170// 171//
f 103// 171// 104//
f 104// 171// 172//
f 104// 172// 148//
f 166// 173// 152//
f 152// 173// 174//
f 152// 174// 175//
f 175// 176// 152//
f 152// 176// 177//
f 152// 177// 178//
f 178// 179// 152//
f 152// 179// 180//
f 152// 180// 181//
f 181// 182// 152//
f 152// 182// 183//
f 152// 183// 184//
f 149// 152// 104//
f 104// 152// 184//
f 104// 184// 82//
f 82// 184// 185//
f 82// 185// 80//
f 81// 186// 187//
f 186// 188// 187//
f 187// 188// 189//
f 187// 189// 190//
f 191// 192// 193//
f 194// 191// 95//
f 193// 192// 195//
f 79// 78// 95//
f 95// 78// 196//
f 95// 196// 194//
f 197// 198// 199//
f 199// 198// 191//
f 199// 191// 200//
f 200// 191// 194//
f 200// 194// 201//
f 201// 194// 202//
f 192// 203// 195//
f 195// 203// 204//
f 195// 204// 82//
f 82// 204// 77//
f 82// 77// 104//
f 104// 77// 79//
f 104// 79// 57//
f 57// 79// 92//
f 57// 92// 60//
f 60// 92// 59//
f 205// 206// 207//
f 208// 209// 210//
f 73// 211// 212//
f 210// 205// 208//
f 208// 205// 207//
f 208// 207// 213//
f 214// 215// 216//
f 216// 215// 217//
f 96// 218// 219//
f 220// 221// 218//
f 218// 221// 222//
f 223// 224// 96//
f 96// 224// 225//
f 96// 225// 218//
f 218// 225// 226//
f 218// 226// 220//
f 227// 228// 206//
f 206// 228// 229//
f 206// 229// 207//
f 207// 229// 230//
f 207// 230// 231//
f 222// 232// 218//
f 218// 232// 233//
f 218// 233// 206//
f 206// 233// 234//
f 206// 234// 227//
f 231// 235// 207//
f 207// 235// 236//
f 207// 236// 193//
f 193// 236// 237//
f 193// 237// 238//
f 191// 193// 95//
f 95// 193// 238//
f 95// 238// 96//
f 96// 238// 239//
f 96// 239// 223//
f 240// 241// 242//
f 242// 241// 243//
f 242// 243// 244//
f 245// 246// 247//
f 248// 249// 89//
f 250// 251// 252//
f 253// 254// 89//
f 252// 253// 250//
f 250// 253// 89//
f 250// 89// 255//
f 255// 89// 249//
f 255// 249// 256//
f 256// 249// 257//
f 258// 259// 260//
f 260// 259// 89//
f 260// 89// 261//
f 261// 89// 254//
f 261// 254// 262//
f 262// 254// 263//
f 264// 265// 266//
f 267// 268// 269//
f 270// 271// 94//
f 269// 270// 267//
f 267// 270// 94//
f 267// 94// 272//
f 272// 94// 96//
f 272// 96// 217//
f 247// 248// 245//
f 245// 248// 89//
f 245// 89// 273//
f 273// 89// 88//
f 273// 88// 266//
f 266// 88// 94//
f 266// 94// 264//
f 264// 94// 271//
f 264// 271// 274//
f 275// 276// 277//
f 277// 276// 278//
f 217// 96// 216//
f 216// 96// 219//
f 216// 219// 212//
f 212// 219// 213//
f 212// 213// 73//
f 73// 213// 207//
f 73// 207// 71//
f 243// 74// 244//
f 244// 74// 76//
f 244// 76// 279//
f 279// 76// 280//
f 281// 282// 283//
f 283// 282// 284//
f 283// 284// 279//
f 285// 157// 103//
f 103// 157// 169//
f 103// 169// 160//
f 285// 286// 157//
f 157// 286// 287//
f 157// 287// 244//
f 244// 287// 288//
f 289// 285// 290//
f 290// 285// 103//
f 290// 103// 288//
f 288// 103// 134//
f 288// 134// 244//
f 244// 134// 143//
f 244// 143// 242//
f 81// 187// 82//
f 82// 187// 291//
f 82// 291// 195//
f 195// 291// 292//
f 195// 292// 193//
f 193// 292// 275//
f 193// 275// 207//
f 207// 275// 277//
f 207// 277// 71//
f 279// 284// 244//
f 244// 284// 190//
f 244// 190// 157//
f 157// 190// 189//
f 157// 189// 155//
f 293// 294// 295//
f 295// 294// 296//
f 297// 298// 299//
f 300// 301// 293//
f 302// 303// 304//
f 305// 306// 307//
f 307// 306// 308//
f 307// 308// 309//
f 309// 308// 310//
f 311// 312// 313//
f 304// 300// 302//
f 302// 300// 293//
f 302// 293// 314//
f 314// 293// 295//
f 314// 295// 315//
f 315// 295// 316//
f 317// 318// 293//
f 319// 320// 321//
f 322// 323// 293//
f 324// 325// 313//
f 313// 325// 326//
f 313// 326// 311//
f 311// 326// 327//
f 328// 329// 327//
f 327// 329// 330//
f 327// 330// 311//
f 311// 330// 331//
f 332// 333// 331//
f 331// 333// 334//
f 331// 334// 311//
f 311// 334// 335//
f 336// 337// 338//
f 321// 317// 319//
f 319// 317// 293//
f 319// 293// 339//
f 339// 293// 301//
f 339// 301// 340//
f 340// 301// 341//
f 299// 312// 297//
f 297// 312// 311//
f 297// 311// 309//
f 309// 311// 342//
f 343// 344// 335//
f 335// 344// 345//
f 335// 345// 311//
f 311// 345// 346//
f 347// 348// 349//
f 350// 351// 307//
f 352// 353// 346//
f 346// 353// 354//
f 346// 354// 311//
f 311// 354// 336//
f 311// 336// 355//
f 355// 336// 338//
f 349// 322// 347//
f 347// 322// 293//
f 347// 293// 356//
f 356// 293// 318//
f 356// 318// 357//
f 357// 318// 358//
f 342// 359// 309//
f 309// 359// 360//
f 309// 360// 361//
f 362// 363// 364//
f 364// 363// 365//
f 366// 367// 296//
f 368// 369// 370//
f 370// 369// 366//
f 371// 372// 373//
f 373// 372// 293//
f 373// 293// 374//
f 374// 293// 323//
f 374// 323// 375//
f 375// 323// 376//
f 351// 377// 307//
f 307// 377// 371//
f 307// 371// 378//
f 378// 371// 373//
f 378// 373// 379//
f 379// 373// 380//
f 366// 381// 382//
f 383// 384// 370//
f 370// 384// 385//
f 385// 386// 370//
f 370// 386// 387//
f 370// 387// 365//
f 365// 387// 311//
f 365// 311// 364//
f 364// 311// 355//
f 361// 388// 309//
f 309// 388// 389//
f 309// 389// 307//
f 307// 389// 390//
f 307// 390// 350//
f 294// 391// 296//
f 296// 391// 392//
f 296// 392// 366//
f 366// 392// 393//
f 366// 393// 381//
f 382// 394// 366//
f 366// 394// 395//
f 366// 395// 370//
f 370// 395// 396//
f 370// 396// 383//
f 75// 315// 280//
f 280// 315// 316//
f 366// 282// 367//
f 367// 282// 281//
f 240// 304// 241//
f 241// 304// 303//
f 137// 340// 138//
f 138// 340// 341//
f 125// 321// 144//
f 144// 321// 320//
f 116// 357// 117//
f 117// 357// 358//
f 123// 349// 122//
f 122// 349// 348//
f 110// 375// 111//
f 111// 375// 376//
f 120// 379// 119//
f 119// 379// 380//
f 105// 306// 106//
f 106// 306// 305//
f 299// 298// 263//
f 263// 298// 262//
f 325// 324// 251//
f 251// 324// 252//
f 329// 328// 257//
f 257// 328// 256//
f 333// 332// 246//
f 246// 332// 247//
f 344// 343// 274//
f 274// 343// 265//
f 353// 352// 268//
f 268// 352// 269//
f 338// 337// 214//
f 214// 337// 215//
f 363// 362// 72//
f 72// 362// 211//
f 310// 308// 258//
f 258// 308// 259//
f 308// 306// 259//
f 259// 306// 105//
f 278// 276// 368//
f 368// 276// 369//
f 366// 369// 282//
f 282// 369// 276//
usemtl 1
f 260// 397// 258//
f 258// 397// 398//
f 258// 398// 310//
f 310// 398// 399//
f 310// 399// 309//
f 309// 399// 400//
f 400// 401// 309//
f 309// 401// 297//
f 297// 401// 298//
f 298// 401// 402//
f 298// 402// 262//
f 262// 402// 403//
f 262// 403// 261//
f 261// 403// 404//
f 405// 406// 407//
f 407// 406// 408//
f 399// 398// 406//
f 406// 398// 408//
f 409// 410// 402//
f 402// 410// 403//
f 411// 412// 409//
f 409// 412// 410//
f 407// 408// 398//
f 413// 414// 404//
f 410// 412// 403//
f 403// 412// 415//
f 403// 415// 404//
f 404// 415// 416//
f 404// 416// 413//
f 417// 418// 397//
f 397// 418// 419//
f 397// 419// 398//
f 398// 419// 420//
f 398// 420// 407//
f 414// 421// 404//
f 404// 421// 422//
f 404// 422// 397//
f 397// 422// 423//
f 397// 423// 417//
f 411// 409// 402//
f 400// 424// 425//
f 426// 427// 401//
f 401// 427// 428//
f 401// 428// 402//
f 402// 428// 429//
f 402// 429// 411//
f 406// 405// 399//
f 399// 405// 430//
f 399// 430// 400//
f 400// 430// 431//
f 400// 431// 424//
f 425// 432// 400//
f 400// 432// 433//
f 400// 433// 401//
f 401// 433// 434//
f 401// 434// 426//
f 412// 411// 415//
f 415// 411// 429//
f 415// 429// 416//
f 416// 429// 428//
f 416// 428// 413//
f 413// 428// 427//
f 413// 427// 414//
f 414// 427// 426//
f 414// 426// 421//
f 421// 426// 434//
f 421// 434// 422//
f 422// 434// 433//
f 422// 433// 423//
f 423// 433// 432//
f 423// 432// 417//
f 417// 432// 425//
f 417// 425// 418//
f 418// 425// 424//
f 418// 424// 419//
f 419// 424// 431//
f 419// 431// 420//
f 420// 431// 430//
f 420// 430// 407//
f 407// 430// 405//
f 261// 404// 260//
f 260// 404// 397//
f 254// 435// 263//
f 263// 435// 436//
f 263// 436// 299//
f 299// 436// 437//
f 299// 437// 312//
f 312// 437// 438//
f 438// 439// 312//
f 312// 439// 313//
f 313// 439// 324//
f 324// 439// 440//
f 324// 440// 252//
f 252// 440// 441//
f 252// 441// 253//
f 253// 441// 442//
f 443// 444// 445//
f 445// 444// 446//
f 437// 436// 444//
f 444// 436// 446//
f 447// 448// 440//
f 440// 448// 441//
f 449// 450// 447//
f 447// 450// 448//
f 445// 446// 436//
f 451// 452// 435//
f 448// 450// 441//
f 441// 450// 453//
f 441// 453// 442//
f 442// 453// 454//
f 442// 454// 455//
f 455// 456// 442//
f 442// 456// 457//
f 442// 457// 435//
f 435// 457// 458//
f 435// 458// 451//
f 452// 459// 435//
f 435// 459// 460//
f 435// 460// 436//
f 436// 460// 461//
f 436// 461// 445//
f 449// 447// 440//
f 462// 463// 438//
f 464// 465// 439//
f 439// 465// 466//
f 439// 466// 440//
f 440// 466// 467//
f 440// 467// 449//
f 444// 443// 437//
f 437// 443// 468//
f 437// 468// 438//
f 438// 468// 469//
f 438// 469// 462//
f 463// 470// 438//
f 438// 470// 471//
f 438// 471// 439//
f 439// 471// 472//
f 439// 472// 464//
f 450// 449// 453//
f 453// 449// 467//
f 453// 467// 454//
f 454// 467// 466//
f 454// 466// 455//
f 455// 466// 465//
f 455// 465// 456//
f 456// 465// 464//
f 456// 464// 457//
f 457// 464// 472//
f 457// 472// 458//
f 458// 472// 471//
f 458// 471// 451//
f 451// 471// 470//
f 451// 470// 452//
f 452// 470// 463//
f 452// 463// 459//
f 459// 463// 462//
f 459// 462// 460//
f 460// 462// 469//
f 460// 469// 461//
f 461// 469// 468//
f 461// 468// 445//
f 445// 468// 443//
f 250// 473// 251//
f 251// 473// 474//
f 251// 474// 325//
f 325// 474// 475//
f 325// 475// 326//
f 326// 475// 476//
f 476// 477// 326//
f 326// 477// 327//
f 327// 477// 328//
f 328// 477// 478//
f 328// 478// 256//
f 256// 478// 479//
f 256// 479// 255//
f 255// 479// 480//
f 481// 482// 483//
f 483// 482// 484//
f 475// 474// 482//
f 482// 474// 484//
f 485// 486// 478//
f 478// 486// 479//
f 487// 488// 485//
f 485// 488// 486//
f 483// 484// 474//
f 489// 490// 480//
f 486// 488// 479//
f 479// 488// 491//
f 479// 491// 480//
f 480// 491// 492//
f 480// 492// 489//
f 490// 493// 480//
f 480// 493// 494//
f 480// 494// 473//
f 473// 494// 495//
f 473// 495// 496//
f 496// 497// 473//
f 473// 497// 498//
f 473// 498// 474//
f 474// 498// 499//
f 474// 499// 483//
f 487// 485// 478//
f 500// 501// 476//
f 502// 503// 477//
f 477// 503// 504//
f 477// 504// 478//
f 478// 504// 505//
f 478// 505// 487//
f 482// 481// 475//
f 475// 481// 506//
f 475// 506// 476//
f 476// 506// 507//
f 476// 507// 500//
f 501// 508// 476//
f 476// 508// 509//
f 476// 509// 477//
f 477// 509// 510//
f 477// 510// 502//
f 488// 487// 491//
f 491// 487// 505//
f 491// 505// 492//
f 492// 505// 504//
f 492// 504// 489//
f 489// 504// 503//
f 489// 503// 490//
f 490// 503// 502//
f 490// 502// 493//
f 493// 502// 510//
f 493// 510// 494//
f 494// 510// 509//
f 494// 509// 495//
f 495// 509// 508//
f 495// 508// 496//
f 496// 508// 501//
f 496// 501// 497//
f 497// 501// 500//
f 497// 500// 498//
f 498// 500// 507//
f 498// 507// 499//
f 499// 507// 506//
f 499// 506// 483//
f 483// 506// 481//
f 249// 511// 257//
f 257// 511// 512//
f 257// 512// 329//
f 329// 512// 513//
f 329// 513// 330//
f 330// 513// 514//
f 514// 515// 330//
f 330// 515// 331//
f 331// 515// 332//
f 332// 515// 516//
f 332// 516// 247//
f 247// 516// 517//
f 247// 517// 248//
f 248// 517// 518//
f 519// 520// 521//
f 521// 520// 522//
f 513// 512// 520//
f 520// 512// 522//
f 523// 524// 516//
f 516// 524// 517//
f 525// 526// 523//
f 523// 526// 524//
f 521// 522// 512//
f 527// 528// 511//
f 524// 526// 517//
f 517// 526// 529//
f 517// 529// 518//
f 518// 529// 530//
f 518// 530// 531//
f 531// 532// 518//
f 518// 532// 533//
f 518// 533// 511//
f 511// 533// 534//
f 511// 534// 527//
f 528// 535// 511//
f 511// 535// 536//
f 511// 536// 512//
f 512// 536// 537//
f 512// 537// 521//
f 525// 523// 516//
f 538// 539// 514//
f 540// 541// 515//
f 515// 541// 542//
f 515// 542// 516//
f 516// 542// 543//
f 516// 543// 525//
f 520// 519// 513//
f 513// 519// 544//
f 513// 544// 514//
f 514// 544// 545//
f 514// 545// 538//
f 539// 546// 514//
f 514// 546// 547//
f 514// 547// 515//
f 515// 547// 548//
f 515// 548// 540//
f 526// 525// 529//
f 529// 525// 543//
f 529// 543// 530//
f 530// 543// 542//
f 530// 542// 531//
f 531// 542// 541//
f 531// 541// 532//
f 532// 541// 540//
f 532// 540// 533//
f 533// 540// 548//
f 533// 548// 534//
f 534// 548// 547//
f 534// 547// 527//
f 527// 547// 546//
f 527// 546// 528//
f 528// 546// 539//
f 528// 539// 535//
f 535// 539// 538//
f 535// 538// 536//
f 536// 538// 545//
f 536// 545// 537//
f 537// 545// 544//
f 537// 544// 521//
f 521// 544// 519//
f 245// 549// 246//
f 246// 549// 550//
f 246// 550// 333//
f 333// 550// 551//
f 333// 551// 334//
f 334// 551// 552//
f 552// 553// 334//
f 334// 553// 335//
f 335// 553// 343//
f 343// 553// 554//
f 343// 554// 265//
f 265// 554// 555//
f 265// 555// 266//
f 266// 555// 556//
f 557// 558// 559//
f 559// 558// 560//
f 551// 550// 558//
f 558// 550// 560//
f 561// 562// 554//
f 554// 562// 555//
f 563// 564// 561//
f 561// 564// 562//
f 559// 560// 550//
f 565// 566// 556//
f 562// 564// 555//
f 555// 564// 567//
f 555// 567// 556//
f 556// 567// 568//
f 556// 568// 565//
f 569// 570// 549//
f 549// 570// 571//
f 549// 571// 550//
f 550// 571// 572//
f 550// 572// 559//
f 566// 573// 556//
f 556// 573// 574//
f 556// 574// 549//
f 549// 574// 575//
f 549// 575// 569//
f 563// 561// 554//
f 552// 576// 577//
f 578// 579// 553//
f 553// 579// 580//
f 553// 580// 554//
f 554// 580// 581//
f 554// 581// 563//
f 558// 557// 551//
f 551// 557// 582//
f 551// 582// 552//
f 552// 582// 583//
f 552// 583// 576//
f 577// 584// 552//
f 552// 584// 585//
f 552// 585// 553//
f 553// 585// 586//
f 553// 586// 578//
f 564// 563// 567//
f 567// 563// 581//
f 567// 581// 568//
f 568// 581// 580//
f 568// 580// 565//
f 565// 580// 579//
f 565// 579// 566//
f 566// 579// 578//
f 566// 578// 573//
f 573// 578// 586//
f 573// 586// 574//
f 574// 586// 585//
f 574// 585// 575//
f 575// 585// 584//
f 575// 584// 569//
f 569// 584// 577//
f 569// 577// 570//
f 570// 577// 576//
f 570// 576// 571//
f 571// 576// 583//
f 571// 583// 572//
f 572// 583// 582//
f 572// 582// 559//
f 559// 582// 557//
f 271// 587// 274//
f 274// 587// 588//
f 274// 588// 344//
f 344// 588// 589//
f 344// 589// 345//
f 345// 589// 590//
f 590// 591// 345//
f 345// 591// 346//
f 346// 591// 352//
f 352// 591// 592//
f 352// 592// 269//
f 269// 592// 593//
f 269// 593// 270//
f 270// 593// 594//
f 595// 596// 597//
f 597// 596// 598//
f 589// 588// 596//
f 596// 588// 598//
f 599// 600// 592//
f 592// 600// 593//
f 601// 602// 599//
f 599// 602// 600//
f 597// 598// 588//
f 603// 604// 594//
f 600// 602// 593//
f 593// 602// 605//
f 593// 605// 594//
f 594// 605// 606//
f 594// 606// 603//
f 607// 608// 587//
f 587// 608// 609//
f 587// 609// 588//
f 588// 609// 610//
f 588// 610// 597//
f 604// 611// 594//
f 594// 611// 612//
f 594// 612// 587//
f 587// 612// 613//
f 587// 613// 607//
f 601// 599// 592//
f 614// 615// 590//
f 596// 595// 589//
f 589// 595// 616//
f 589// 616// 590//
f 590// 616// 617//
f 590// 617// 614//
f 618// 619// 591//
f 591// 619// 620//
f 591// 620// 592//
f 592// 620// 621//
f 592// 621// 601//
f 615// 622// 590//
f 590// 622// 623//
f 590// 623// 591//
f 591// 623// 624//
f 591// 624// 618//
f 602// 601// 605//
f 605// 601// 621//
f 605// 621// 606//
f 606// 621// 620//
f 606// 620// 603//
f 603// 620// 619//
f 603// 619// 604//
f 604// 619// 618//
f 604// 618// 611//
f 611// 618// 624//
f 611// 624// 612//
f 612// 624// 623//
f 612// 623// 613//
f 613// 623// 622//
f 613// 622// 607//
f 607// 622// 615//
f 607// 615// 608//
f 608// 615// 614//
f 608// 614// 609//
f 609// 614// 617//
f 609// 617// 610//
f 610// 617// 616//
f 610// 616// 597//
f 597// 616// 595//
f 267// 625// 268//
f 268// 625// 626//
f 268// 626// 353//
f 353// 626// 627//
f 353// 627// 354//
f 354// 627// 628//
f 628// 629// 354//
f 354// 629// 336//
f 336// 629// 337//
f 337// 629// 630//
f 337// 630// 215//
f 215// 630// 631//
f 215// 631// 217//
f 217// 631// 632//
f 633// 634// 635//
f 635// 634// 636//
f 627// 626// 634//
f 634// 626// 636//
f 637// 638// 630//
f 630// 638// 631//
f 639// 640// 637//
f 637// 640// 638//
f 635// 636// 626//
f 641// 642// 632//
f 638// 640// 631//
f 631// 640// 643//
f 631// 643// 632//
f 632// 643// 644//
f 632// 644// 641//
f 645// 646// 625//
f 625// 646// 647//
f 625// 647// 626//
f 626// 647// 648//
f 626// 648// 635//
f 642// 649// 632//
f 632// 649// 650//
f 632// 650// 625//
f 625// 650// 651//
f 625// 651// 645//
f 639// 637// 630//
f 652// 653// 628//
f 634// 633// 627//
f 627// 633// 654//
f 627// 654// 628//
f 628// 654// 655//
f 628// 655// 652//
f 656// 657// 629//
f 629// 657// 658//
f 629// 658// 630//
f 630// 658// 659//
f 630// 659// 639//
f 653// 660// 628//
f 628// 660// 661//
f 628// 661// 629//
f 629// 661// 662//
f 629// 662// 656//
f 640// 639// 643//
f 643// 639// 659//
f 643// 659// 644//
f 644// 659// 658//
f 644// 658// 641//
f 641// 658// 657//
f 641// 657// 642//
f 642// 657// 656//
f 642// 656// 649//
f 649// 656// 662//
f 649// 662// 650//
f 650// 662// 661//
f 650// 661// 651//
f 651// 661// 660//
f 651// 660// 645//
f 645// 660// 653//
f 645// 653// 646//
f 646// 653// 652//
f 646// 652// 647//
f 647// 652// 655//
f 647// 655// 648//
f 648// 655// 654//
f 648// 654// 635//
f 635// 654// 633//
f 216// 663// 214//
f 214// 663// 664//
f 214// 664// 338//
f 338// 664// 665//
f 338// 665// 355//
f 355// 665// 666//
f 666// 667// 355//
f 355// 667// 364//
f 364// 667// 362//
f 362// 667// 668//
f 362// 668// 211//
f 211// 668// 669//
f 211// 669// 212//
f 212// 669// 670//
f 671// 672// 673//
f 673// 672// 674//
f 665// 664// 672//
f 672// 664// 674//
f 675// 676// 668//
f 668// 676// 669//
f 677// 678// 675//
f 675// 678// 676//
f 673// 674// 664//
f 679// 680// 670//
f 676// 678// 669//
f 669// 678// 681//
f 669// 681// 670//
f 670// 681// 682//
f 670// 682// 679//
f 683// 684// 663//
f 663// 684// 685//
f 663// 685// 664//
f 664// 685// 686//
f 664// 686// 673//
f 680// 687// 670//
f 670// 687// 688//
f 670// 688// 663//
f 663// 688// 689//
f 663// 689// 683//
f 677// 675// 668//
f 690// 691// 666//
f 692// 693// 667//
f 667// 693// 694//
f 667// 694// 668//
f 668// 694// 695//
f 668// 695// 677//
f 672// 671// 665//
f 665// 671// 696//
f 665// 696// 666//
f 666// 696// 697//
f 666// 697// 690//
f 691// 698// 666//
f 666// 698// 699//
f 666// 699// 667//
f 667// 699// 700//
f 667// 700// 692//
f 678// 677// 681//
f 681// 677// 695//
f 681// 695// 682//
f 682// 695// 694//
f 682// 694// 679//
f 679// 694// 693//
f 679// 693// 680//
f 680// 693// 692//
f 680// 692// 687//
f 687// 692// 700//
f 687// 700// 688//
f 688// 700// 699//
f 688// 699// 689//
f 689// 699// 698//
f 689// 698// 683//
f 683// 698// 691//
f 683// 691// 684//
f 684// 691// 690//
f 684// 690// 685//
f 685// 690// 697//
f 685// 697// 686//
f 686// 697// 696//
f 686// 696// 673//
f 673// 696// 671//
f 71// 701// 72//
f 72// 701// 702//
f 72// 702// 363//
f 363// 702// 703//
f 363// 703// 365//
f 365// 703// 704//
f 704// 705// 365//
f 365// 705// 370//
f 370// 705// 368//
f 368// 705// 706//
f 368// 706// 278//
f 278// 706// 707//
f 278// 707// 277//
f 277// 707// 708//
f 709// 710// 711//
f 711// 710// 712//
f 703// 702// 710//
f 710// 702// 712//
f 713// 714// 706//
f 706// 714// 707//
f 715// 716// 713//
f 713// 716// 714//
f 711// 712// 702//
f 714// 716// 707//
f 707// 716// 717//
f 707// 717// 708//
f 708// 717// 718//
f 708// 718// 719//
f 720// 721// 701//
f 721// 722// 701//
f 701// 722// 723//
f 701// 723// 702//
f 702// 723// 724//
f 702// 724// 711//
f 719// 725// 708//
f 708// 725// 726//
f 708// 726// 701//
f 701// 726// 727//
f 701// 727// 720//
f 715// 713// 706//
f 728// 729// 704//
f 730// 731// 705//
f 705// 731// 732//
f 705// 732// 706//
f 706// 732// 733//
f 706// 733// 715//
f 710// 709// 703//
f 703// 709// 734//
f 703// 734// 704//
f 704// 734// 735//
f 704// 735// 728//
f 729// 736// 704//
f 704// 736// 737//
f 704// 737// 705//
f 705// 737// 738//
f 705// 738// 730//
f 716// 715// 717//
f 717// 715// 733//
f 717// 733// 718//
f 718// 733// 732//
f 718// 732// 719//
f 719// 732// 731//
f 719// 731// 725//
f 725// 731// 730//
f 725// 730// 726//
f 726// 730// 738//
f 726// 738// 727//
f 727// 738// 737//
f 727// 737// 720//
f 720// 737// 736//
f 720// 736// 721//
f 721// 736// 729//
f 721// 729// 722//
f 722// 729// 728//
f 722// 728// 723//
f 723// 728// 735//
f 723// 735// 724//
f 724// 735// 734//
f 724// 734// 711//
f 711// 734// 709//
f 253// 442// 254//
f 254// 442// 435//
f 255// 480// 250//
f 250// 480// 473//
f 248// 518// 249//
f 249// 518// 511//
f 266// 556// 245//
f 245// 556// 549//
f 270// 594// 271//
f 271// 594// 587//
f 217// 632// 267//
f 267// 632// 625//
f 212// 670// 216//
f 216// 670// 663//
f 277// 708// 71//
f 71// 708// 701//
f 114// 739// 120//
f 120// 739// 740//
f 120// 740// 379//
f 379// 740// 741//
f 379// 741// 378//
f 378// 741// 742//
f 378// 742// 307//
f 307// 742// 743//
f 307// 743// 305//
f 305// 743// 744//
f 305// 744// 106//
f 106// 744// 745//
f 106// 745// 108//
f 108// 745// 746//
f 747// 748// 749//
f 749// 748// 750//
f 741// 740// 748//
f 748// 740// 750//
f 751// 752// 744//
f 744// 752// 745//
f 753// 754// 751//
f 751// 754// 752//
f 749// 750// 740//
f 755// 756// 746//
f 752// 754// 745//
f 745// 754// 757//
f 745// 757// 746//
f 746// 757// 758//
f 746// 758// 755//
f 759// 760// 739//
f 739// 760// 761//
f 739// 761// 740//
f 740// 761// 762//
f 740// 762// 749//
f 756// 763// 746//
f 746// 763// 764//
f 746// 764// 739//
f 739// 764// 765//
f 739// 765// 759//
f 753// 751// 744//
f 742// 766// 767//
f 768// 769// 743//
f 743// 769// 770//
f 743// 770// 744//
f 744// 770// 771//
f 744// 771// 753//
f 748// 747// 741//
f 741// 747// 772//
f 741// 772// 742//
f 742// 772// 773//
f 742// 773// 766//
f 767// 774// 742//
f 742// 774// 775//
f 742// 775// 743//
f 743// 775// 776//
f 743// 776// 768//
f 754// 753// 757//
f 757// 753// 771//
f 757// 771// 758//
f 758// 771// 770//
f 758// 770// 755//
f 755// 770// 769//
f 755// 769// 756//
f 756// 769// 768//
f 756// 768// 763//
f 763// 768// 776//
f 763// 776// 764//
f 764// 776// 775//
f 764// 775// 765//
f 765// 775// 774//
f 765// 774// 759//
f 759// 774// 767//
f 759// 767// 760//
f 760// 767// 766//
f 760// 766// 761//
f 761// 766// 773//
f 761// 773// 762//
f 762// 773// 772//
f 762// 772// 749//
f 749// 772// 747//
f 374// 777// 373//
f 373// 777// 778//
f 373// 778// 380//
f 380// 778// 779//
f 380// 779// 119//
f 119// 779// 780//
f 119// 780// 118//
f 118// 780// 781//
f 109// 782// 110//
f 110// 782// 783//
f 110// 783// 375//
f 375// 783// 784//
f 375// 784// 374//
f 374// 784// 777//
f 785// 786// 787//
f 787// 786// 788//
f 784// 783// 786//
f 786// 783// 788//
f 789// 790// 779//
f 779// 790// 780//
f 791// 792// 789//
f 789// 792// 790//
f 787// 788// 783//
f 793// 794// 782//
f 790// 792// 780//
f 780// 792// 795//
f 780// 795// 781//
f 781// 795// 796//
f 781// 796// 797//
f 797// 798// 781//
f 781// 798// 799//
f 781// 799// 782//
f 782// 799// 800//
f 782// 800// 793//
f 794// 801// 782//
f 782// 801// 802//
f 782// 802// 783//
f 783// 802// 803//
f 783// 803// 787//
f 791// 789// 779//
f 804// 805// 777//
f 806// 807// 778//
f 778// 807// 808//
f 778// 808// 779//
f 779// 808// 809//
f 779// 809// 791//
f 786// 785// 784//
f 784// 785// 810//
f 784// 810// 777//
f 777// 810// 811//
f 777// 811// 804//
f 805// 812// 777//
f 777// 812// 813//
f 777// 813// 778//
f 778// 813// 814//
f 778// 814// 806//
f 792// 791// 795//
f 795// 791// 809//
f 795// 809// 796//
f 796// 809// 808//
f 796// 808// 797//
f 797// 808// 807//
f 797// 807// 798//
f 798// 807// 806//
f 798// 806// 799//
f 799// 806// 814//
f 799// 814// 800//
f 800// 814// 813//
f 800// 813// 793//
f 793// 813// 812//
f 793// 812// 794//
f 794// 812// 805//
f 794// 805// 801//
f 801// 805// 804//
f 801// 804// 802//
f 802// 804// 811//
f 802// 811// 803//
f 803// 811// 810//
f 803// 810// 787//
f 787// 810// 785//
f 322// 815// 323//
f 323// 815// 816//
f 323// 816// 376//
f 376// 816// 817//
f 376// 817// 111//
f 111// 817// 818//
f 111// 818// 112//
f 112// 818// 819//
f 113// 820// 123//
f 123// 820// 821//
f 123// 821// 349//
f 349// 821// 822//
f 349// 822// 322//
f 322// 822// 815//
f 823// 824// 825//
f 825// 824// 826//
f 822// 821// 824//
f 824// 821// 826//
f 827// 828// 817//
f 817// 828// 818//
f 829// 830// 827//
f 827// 830// 828//
f 825// 826// 821//
f 831// 832// 819//
f 828// 830// 818//
f 818// 830// 833//
f 818// 833// 819//
f 819// 833// 834//
f 819// 834// 831//
f 832// 835// 819//
f 819// 835// 836//
f 819// 836// 820//
f 820// 836// 837//
f 820// 837// 838//
f 838// 839// 820//
f 820// 839// 840//
f 820// 840// 821//
f 821// 840// 841//
f 821// 841// 825//
f 829// 827// 817//
f 842// 843// 815//
f 844// 845// 816//
f 816// 845// 846//
f 816// 846// 817//
f 817// 846// 847//
f 817// 847// 829//
f 824// 823// 822//
f 822// 823// 848//
f 822// 848// 815//
f 815// 848// 849//
f 815// 849// 842//
f 843// 850// 815//
f 815// 850// 851//
f 815// 851// 816//
f 816// 851// 852//
f 816// 852// 844//
f 830// 829// 833//
f 833// 829// 847//
f 833// 847// 834//
f 834// 847// 846//
f 834// 846// 831//
f 831// 846// 845//
f 831// 845// 832//
f 832// 845// 844//
f 832// 844// 835//
f 835// 844// 852//
f 835// 852// 836//
f 836// 852// 851//
f 836// 851// 837//
f 837// 851// 850//
f 837// 850// 838//
f 838// 850// 843//
f 838// 843// 839//
f 839// 843// 842//
f 839// 842// 840//
f 840// 842// 849//
f 840// 849// 841//
f 841// 849// 848//
f 841// 848// 825//
f 825// 848// 823//
f 356// 853// 347//
f 347// 853// 854//
f 347// 854// 348//
f 348// 854// 855//
f 348// 855// 122//
f 122// 855// 856//
f 122// 856// 121//
f 121// 856// 857//
f 115// 858// 116//
f 116// 858// 859//
f 116// 859// 357//
f 357// 859// 860//
f 357// 860// 356//
f 356// 860// 853//
f 861// 862// 863//
f 863// 862// 864//
f 860// 859// 862//
f 862// 859// 864//
f 865// 866// 855//
f 855// 866// 856//
f 867// 868// 865//
f 865// 868// 866//
f 863// 864// 859//
f 869// 870// 858//
f 866// 868// 856//
f 856// 868// 871//
f 856// 871// 857//
f 857// 871// 872//
f 857// 872// 873//
f 873// 874// 857//
f 857// 874// 875//
f 857// 875// 858//
f 858// 875// 876//
f 858// 876// 869//
f 870// 877// 858//
f 858// 877// 878//
f 858// 878// 859//
f 859// 878// 879//
f 859// 879// 863//
f 867// 865// 855//
f 880// 881// 853//
f 882// 883// 854//
f 854// 883// 884//
f 854// 884// 855//
f 855// 884// 885//
f 855// 885// 867//
f 862// 861// 860//
f 860// 861// 886//
f 860// 886// 853//
f 853// 886// 887//
f 853// 887// 880//
f 881// 888// 853//
f 853// 888// 889//
f 853// 889// 854//
f 854// 889// 890//
f 854// 890// 882//
f 868// 867// 871//
f 871// 867// 885//
f 871// 885// 872//
f 872// 885// 884//
f 872// 884// 873//
f 873// 884// 883//
f 873// 883// 874//
f 874// 883// 882//
f 874// 882// 875//
f 875// 882// 890//
f 875// 890// 876//
f 876// 890// 889//
f 876// 889// 869//
f 869// 889// 888//
f 869// 888// 870//
f 870// 888// 881//
f 870// 881// 877//
f 877// 881// 880//
f 877// 880// 878//
f 878// 880// 887//
f 878// 887// 879//
f 879// 887// 886//
f 879// 886// 863//
f 863// 886// 861//
f 317// 891// 318//
f 318// 891// 892//
f 318// 892// 358//
f 358// 892// 893//
f 358// 893// 117//
f 117// 893// 894//
f 117// 894// 83//
f 83// 894// 895//
f 124// 896// 125//
f 125// 896// 897//
f 125// 897// 321//
f 321// 897// 898//
f 321// 898// 317//
f 317// 898// 891//
f 899// 900// 901//
f 901// 900// 902//
f 898// 897// 900//
f 900// 897// 902//
f 903// 904// 893//
f 893// 904// 894//
f 905// 906// 903//
f 903// 906// 904//
f 901// 902// 897//
f 907// 908// 895//
f 904// 906// 894//
f 894// 906// 909//
f 894// 909// 895//
f 895// 909// 910//
f 895// 910// 907//
f 911// 912// 896//
f 896// 912// 913//
f 896// 913// 897//
f 897// 913// 914//
f 897// 914// 901//
f 908// 915// 895//
f 895// 915// 916//
f 895// 916// 896//
f 896// 916// 917//
f 896// 917// 911//
f 905// 903// 893//
f 891// 918// 919//
f 920// 921// 892//
f 892// 921// 922//
f 892// 922// 893//
f 893// 922// 923//
f 893// 923// 905//
f 900// 899// 898//
f 898// 899// 924//
f 898// 924// 891//
f 891// 924// 925//
f 891// 925// 918//
f 919// 926// 891//
f 891// 926// 927//
f 891// 927// 892//
f 892// 927// 928//
f 892// 928// 920//
f 906// 905// 909//
f 909// 905// 923//
f 909// 923// 910//
f 910// 923// 922//
f 910// 922// 907//
f 907// 922// 921//
f 907// 921// 908//
f 908// 921// 920//
f 908// 920// 915//
f 915// 920// 928//
f 915// 928// 916//
f 916// 928// 927//
f 916// 927// 917//
f 917// 927// 926//
f 917// 926// 911//
f 911// 926// 919//
f 911// 919// 912//
f 912// 919// 918//
f 912// 918// 913//
f 913// 918// 925//
f 913// 925// 914//
f 914// 925// 924//
f 914// 924// 901//
f 901// 924// 899//
f 339// 929// 319//
f 319// 929// 930//
f 319// 930// 320//
f 320// 930// 931//
f 320// 931// 144//
f 144// 931// 932//
f 144// 932// 142//
f 142// 932// 933//
f 139// 934// 137//
f 137// 934// 935//
f 137// 935// 340//
f 340// 935// 936//
f 340// 936// 339//
f 339// 936// 929//
f 937// 938// 939//
f 939// 938// 940//
f 936// 935// 938//
f 938// 935// 940//
f 941// 942// 931//
f 931// 942// 932//
f 943// 944// 941//
f 941// 944// 942//
f 939// 940// 935//
f 945// 946// 933//
f 942// 944// 932//
f 932// 944// 947//
f 932// 947// 933//
f 933// 947// 948//
f 933// 948// 945//
f 949// 950// 934//
f 934// 950// 951//
f 934// 951// 935//
f 935// 951// 952//
f 935// 952// 939//
f 946// 953// 933//
f 933// 953// 954//
f 933// 954// 934//
f 934// 954// 955//
f 934// 955// 949//
f 943// 941// 931//
f 956// 957// 929//
f 958// 959// 930//
f 930// 959// 960//
f 930// 960// 931//
f 931// 960// 961//
f 931// 961// 943//
f 938// 937// 936//
f 936// 937// 962//
f 936// 962// 929//
f 929// 962// 963//
f 929// 963// 956//
f 957// 964// 929//
f 929// 964// 965//
f 929// 965// 930//
f 930// 965// 966//
f 930// 966// 958//
f 944// 943// 947//
f 947// 943// 961//
f 947// 961// 948//
f 948// 961// 960//
f 948// 960// 945//
f 945// 960// 959//
f 945// 959// 946//
f 946// 959// 958//
f 946// 958// 953//
f 953// 958// 966//
f 953// 966// 954//
f 954// 966// 965//
f 954// 965// 955//
f 955// 965// 964//
f 955// 964// 949//
f 949// 964// 957//
f 949// 957// 950//
f 950// 957// 956//
f 950// 956// 951//
f 951// 956// 963//
f 951// 963// 952//
f 952// 963// 962//
f 952// 962// 939//
f 939// 962// 937//
f 300// 967// 301//
f 301// 967// 968//
f 301// 968// 341//
f 341// 968// 969//
f 341// 969// 138//
f 138// 969// 970//
f 138// 970// 140//
f 140// 970// 971//
f 242// 972// 240//
f 240// 972// 973//
f 240// 973// 304//
f 304// 973// 974//
f 304// 974// 300//
f 300// 974// 967//
f 975// 976// 977//
f 977// 976// 978//
f 974// 973// 976//
f 976// 973// 978//
f 979// 980// 969//
f 969// 980// 970//
f 981// 982// 979//
f 979// 982// 980//
f 977// 978// 973//
f 983// 984// 971//
f 980// 982// 970//
f 970// 982// 985//
f 970// 985// 971//
f 971// 985// 986//
f 971// 986// 983//
f 987// 988// 972//
f 972// 988// 989//
f 972// 989// 973//
f 973// 989// 990//
f 973// 990// 977//
f 984// 991// 971//
f 971// 991// 992//
f 971// 992// 972//
f 972// 992// 993//
f 972// 993// 987//
f 981// 979// 969//
f 994// 995// 967//
f 996// 997// 968//
f 968// 997// 998//
f 968// 998// 969//
f 969// 998// 999//
f 969// 999// 981//
f 976// 975// 974//
f 974// 975// 1000//
f 974// 1000// 967//
f 967// 1000// 1001//
f 967// 1001// 994//
f 995// 1002// 967//
f 967// 1002// 1003//
f 967// 1003// 968//
f 968// 1003// 1004//
f 968// 1004// 996//
f 982// 981// 985//
f 985// 981// 999//
f 985// 999// 986//
f 986// 999// 998//
f 986// 998// 983//
f 983// 998// 997//
f 983// 997// 984//
f 984// 997// 996//
f 984// 996// 991//
f 991// 996// 1004//
f 991// 1004// 992//
f 992// 1004// 1003//
f 992// 1003// 993//
f 993// 1003// 1002//
f 993// 1002// 987//
f 987// 1002// 995//
f 987// 995// 988//
f 988// 995// 994//
f 988// 994// 989//
f 989// 994// 1001//
f 989// 1001// 990//
f 990// 1001// 1000//
f 990// 1000// 977//
f 977// 1000// 975//
f 314// 1005// 302//
f 302// 1005// 1006//
f 302// 1006// 303//
f 303// 1006// 1007//
f 303// 1007// 241//
f 241// 1007// 1008//
f 241// 1008// 243//
f 243// 1008// 1009//
f 74// 1010// 75//
f 75// 1010// 1011//
f 75// 1011// 315//
f 315// 1011// 1012//
f 315// 1012// 314//
f 314// 1012// 1005//
f 1013// 1014// 1015//
f 1015// 1014// 1016//
f 1012// 1011// 1014//
f 1014// 1011// 1016//
f 1017// 1018// 1007//
f 1007// 1018// 1008//
f 1019// 1020// 1017//
f 1017// 1020// 1018//
f 1015// 1016// 1011//
f 1021// 1022// 1010//
f 1018// 1020// 1008//
f 1008// 1020// 1023//
f 1008// 1023// 1009//
f 1009// 1023// 1024//
f 1009// 1024// 1025//
f 1022// 1026// 1010//
f 1010// 1026// 1027//
f 1010// 1027// 1011//
f 1011// 1027// 1028//
f 1011// 1028// 1015//
f 1025// 1029// 1009//
f 1009// 1029// 1030//
f 1009// 1030// 1010//
f 1010// 1030// 1031//
f 1010// 1031// 1021//
f 1019// 1017// 1007//
f 1032// 1033// 1005//
f 1034// 1035// 1006//
f 1006// 1035// 1036//
f 1006// 1036// 1007//
f 1007// 1036// 1037//
f 1007// 1037// 1019//
f 1014// 1013// 1012//
f 1012// 1013// 1038//
f 1012// 1038// 1005//
f 1005// 1038// 1039//
f 1005// 1039// 1032//
f 1033// 1040// 1005//
f 1005// 1040// 1041//
f 1005// 1041// 1006//
f 1006// 1041// 1042//
f 1006// 1042// 1034//
f 1020// 1019// 1023//
f 1023// 1019// 1037//
f 1023// 1037// 1024//
f 1024// 1037// 1036//
f 1024// 1036// 1025//
f 1025// 1036// 1035//
f 1025// 1035// 1029//
f 1029// 1035// 1034//
f 1029// 1034// 1030//
f 1030// 1034// 1042//
f 1030// 1042// 1031//
f 1031// 1042// 1041//
f 1031// 1041// 1021//
f 1021// 1041// 1040//
f 1021// 1040// 1022//
f 1022// 1040// 1033//
f 1022// 1033// 1026//
f 1026// 1033// 1032//
f 1026// 1032// 1027//
f 1027// 1032// 1039//
f 1027// 1039// 1028//
f 1028// 1039// 1038//
f 1028// 1038// 1015//
f 1015// 1038// 1013//
f 296// 1043// 295//
f 295// 1043// 1044//
f 295// 1044// 316//
f 316// 1044// 1045//
f 316// 1045// 280//
f 280// 1045// 1046//
f 280// 1046// 279//
f 279// 1046// 1047//
f 283// 1048// 281//
f 281// 1048// 1049//
f 281// 1049// 367//
f 367// 1049// 1050//
f 367// 1050// 296//
f 296// 1050// 1043//
f 1051// 1052// 1053//
f 1053// 1052// 1054//
f 1050// 1049// 1052//
f 1052// 1049// 1054//
f 1055// 1056// 1045//
f 1045// 1056// 1046//
f 1057// 1058// 1055//
f 1055// 1058// 1056//
f 1053// 1054// 1049//
f 1056// 1058// 1046//
f 1046// 1058// 1059//
f 1046// 1059// 1047//
f 1047// 1059// 1060//
f 1047// 1060// 1061//
f 1062// 1063// 1048//
f 1061// 1064// 1047//
f 1047// 1064// 1065//
f 1047// 1065// 1048//
f 1048// 1065// 1066//
f 1048// 1066// 1062//
f 1063// 1067// 1048//
f 1048// 1067// 1068//
f 1048// 1068// 1049//
f 1049// 1068// 1069//
f 1049// 1069// 1053//
f 1057// 1055// 1045//
f 1070// 1071// 1043//
f 1072// 1073// 1044//
f 1044// 1073// 1074//
f 1044// 1074// 1045//
f 1045// 1074// 1075//
f 1045// 1075// 1057//
f 1052// 1051// 1050//
f 1050// 1051// 1076//
f 1050// 1076// 1043//
f 1043// 1076// 1077//
f 1043// 1077// 1070//
f 1071// 1078// 1043//
f 1043// 1078// 1079//
f 1043// 1079// 1044//
f 1044// 1079// 1080//
f 1044// 1080// 1072//
f 1058// 1057// 1059//
f 1059// 1057// 1075//
f 1059// 1075// 1060//
f 1060// 1075// 1074//
f 1060// 1074// 1061//
f 1061// 1074// 1073//
f 1061// 1073// 1064//
f 1064// 1073// 1072//
f 1064// 1072// 1065//
f 1065// 1072// 1080//
f 1065// 1080// 1066//
f 1066// 1080// 1079//
f 1066// 1079// 1062//
f 1062// 1079// 1078//
f 1062// 1078// 1063//
f 1063// 1078// 1071//
f 1063// 1071// 1067//
f 1067// 1071// 1070//
f 1067// 1070// 1068//
f 1068// 1070// 1077//
f 1068// 1077// 1069//
f 1069// 1077// 1076//
f 1069// 1076// 1053//
f 1053// 1076// 1051//
f 746// 739// 108//
f 108// 739// 114//
f 781// 782// 118//
f 118// 782// 109//
f 819// 820// 112//
f 112// 820// 113//
f 857// 858// 121//
f 121// 858// 115//
f 895// 896// 83//
f 83// 896// 124//
f 933// 934// 142//
f 142// 934// 139//
f 971// 972// 140//
f 140// 972// 242//
f 1009// 1010// 243//
f 243// 1010// 74//
f 1047// 1048// 279//
f 279// 1048// 283//
usemtl 3
f 1081// 1082// 293//
f 293// 1082// 294//
f 1083// 1084// 389//
f 389// 1084// 390//
f 311// 387// 1085//
f 1085// 387// 1086//
f 1087// 1088// 394//
f 394// 1088// 395//
f 1089// 1090// 1091//
f 1091// 1090// 1092//
f 1091// 1092// 1093//
f 1094// 1095// 1096//
f 1097// 1098// 1096//
f 1098// 1099// 1096//
f 1096// 1099// 1100//
f 1096// 1100// 1094//
f 1093// 1101// 1091//
f 1091// 1101// 1102//
f 1091// 1102// 1096//
f 1096// 1102// 1103//
f 1096// 1103// 1097//
f 1104// 1105// 1106//
f 1106// 1105// 1096//
f 1106// 1096// 1107//
f 1107// 1096// 1095//
f 1108// 1109// 1091//
f 1091// 1109// 1110//
f 1091// 1110// 1089//
f 1104// 1111// 1105//
f 1105// 1111// 1112//
f 1105// 1112// 1113//
f 1113// 1114// 1105//
f 1105// 1114// 1115//
f 1105// 1115// 1108//
f 1108// 1115// 1116//
f 1108// 1116// 1109//
f 1083// 389// 388//
f 1083// 388// 1117//
f 1117// 388// 361//
f 1117// 361// 1118//
f 1118// 361// 360//
f 1118// 360// 1119//
f 1119// 360// 359//
f 1119// 359// 1120//
f 1120// 359// 342//
f 1120// 342// 1121//
f 1121// 342// 311//
f 1121// 311// 1085//
f 1084// 1083// 1122//
f 1084// 1122// 1123//
f 1123// 1122// 1124//
f 1123// 1124// 1125//
f 1125// 1124// 1126//
f 1125// 1126// 1127//
f 1127// 1126// 1128//
f 1127// 1128// 1129//
f 1129// 1128// 1130//
f 1129// 1130// 1131//
f 1131// 1130// 1105//
f 1131// 1105// 1108//
f 1081// 293// 372//
f 1081// 372// 1132//
f 1132// 372// 371//
f 1132// 371// 1133//
f 1133// 371// 377//
f 1133// 377// 1134//
f 1134// 377// 351//
f 1134// 351// 1135//
f 1135// 351// 350//
f 1135// 350// 1136//
f 1136// 350// 390//
f 1136// 390// 1084//
f 1085// 1137// 1138//
f 1139// 1140// 1141//
f 1105// 1130// 1142//
f 1141// 1140// 1105//
f 1143// 1105// 1140//
f 1143// 1140// 1144//
f 1144// 1140// 1139//
f 1144// 1139// 1145//
f 1146// 1105// 1143//
f 1147// 1148// 1149//
f 1149// 1148// 1142//
f 1149// 1142// 1150//
f 1150// 1142// 1130//
f 1150// 1130// 1128//
f 1146// 1143// 1151//
f 1151// 1143// 1144//
f 1151// 1144// 1152//
f 1152// 1144// 1145//
f 1152// 1145// 1153//
f 1154// 1147// 1155//
f 1155// 1147// 1149//
f 1155// 1149// 1156//
f 1156// 1149// 1150//
f 1156// 1150// 1157//
f 1157// 1150// 1128//
f 1157// 1128// 1126//
f 1158// 1154// 1159//
f 1159// 1154// 1155//
f 1159// 1155// 1160//
f 1160// 1155// 1156//
f 1160// 1156// 1161//
f 1161// 1156// 1157//
f 1161// 1157// 1162//
f 1162// 1157// 1126//
f 1162// 1126// 1124//
f 1137// 1158// 1138//
f 1138// 1158// 1159//
f 1138// 1159// 1163//
f 1163// 1159// 1160//
f 1163// 1160// 1164//
f 1164// 1160// 1161//
f 1164// 1161// 1165//
f 1165// 1161// 1162//
f 1165// 1162// 1166//
f 1166// 1162// 1124//
f 1166// 1124// 1122//
f 1085// 1138// 1121//
f 1121// 1138// 1163//
f 1121// 1163// 1120//
f 1120// 1163// 1164//
f 1120// 1164// 1119//
f 1119// 1164// 1165//
f 1119// 1165// 1118//
f 1118// 1165// 1166//
f 1118// 1166// 1117//
f 1117// 1166// 1122//
f 1117// 1122// 1083//
f 1148// 1105// 1142//
f 1137// 1153// 1158//
f 1158// 1153// 1145//
f 1158// 1145// 1154//
f 1154// 1145// 1139//
f 1154// 1139// 1147//
f 1147// 1139// 1141//
f 1147// 1141// 1148//
f 1148// 1141// 1105//
f 1084// 1123// 1167//
f 1168// 1169// 1170//
f 1108// 1171// 1172//
f 1170// 1169// 1108//
f 1173// 1108// 1169//
f 1173// 1169// 1174//
f 1174// 1169// 1168//
f 1174// 1168// 1175//
f 1131// 1108// 1173//
f 1176// 1177// 1178//
f 1178// 1177// 1172//
f 1178// 1172// 1179//
f 1179// 1172// 1171//
f 1179// 1171// 1180//
f 1131// 1173// 1129//
f 1129// 1173// 1174//
f 1129// 1174// 1127//
f 1127// 1174// 1175//
f 1127// 1175// 1125//
f 1181// 1176// 1182//
f 1182// 1176// 1178//
f 1182// 1178// 1183//
f 1183// 1178// 1179//
f 1183// 1179// 1184//
f 1184// 1179// 1180//
f 1184// 1180// 1185//
f 1186// 1181// 1187//
f 1187// 1181// 1182//
f 1187// 1182// 1188//
f 1188// 1182// 1183//
f 1188// 1183// 1189//
f 1189// 1183// 1184//
f 1189// 1184// 1190//
f 1190// 1184// 1185//
f 1190// 1185// 1191//
f 1123// 1186// 1167//
f 1167// 1186// 1187//
f 1167// 1187// 1192//
f 1192// 1187// 1188//
f 1192// 1188// 1193//
f 1193// 1188// 1189//
f 1193// 1189// 1194//
f 1194// 1189// 1190//
f 1194// 1190// 1195//
f 1195// 1190// 1191//
f 1195// 1191// 1196//
f 1084// 1167// 1136//
f 1136// 1167// 1192//
f 1136// 1192// 1135//
f 1135// 1192// 1193//
f 1135// 1193// 1134//
f 1134// 1193// 1194//
f 1134// 1194// 1133//
f 1133// 1194// 1195//
f 1133// 1195// 1132//
f 1132// 1195// 1196//
f 1132// 1196// 1081//
f 1177// 1108// 1172//
f 1123// 1125// 1186//
f 1186// 1125// 1175//
f 1186// 1175// 1181//
f 1181// 1175// 1168//
f 1181// 1168// 1176//
f 1176// 1168// 1170//
f 1176// 1170// 1177//
f 1177// 1170// 1108//
f 1086// 387// 386//
f 1086// 386// 1197//
f 1197// 386// 385//
f 1197// 385// 1198//
f 1198// 385// 384//
f 1198// 384// 1199//
f 1199// 384// 383//
f 1199// 383// 1200//
f 1200// 383// 396//
f 1200// 396// 1201//
f 1201// 396// 395//
f 1201// 395// 1088//
f 1085// 1086// 1202//
f 1085// 1202// 1137//
f 1137// 1202// 1203//
f 1137// 1203// 1153//
f 1153// 1203// 1204//
f 1153// 1204// 1152//
f 1152// 1204// 1205//
f 1152// 1205// 1151//
f 1151// 1205// 1206//
f 1151// 1206// 1146//
f 1146// 1206// 1096//
f 1146// 1096// 1105//
f 1082// 1081// 1196//
f 1082// 1196// 1207//
f 1207// 1196// 1191//
f 1207// 1191// 1208//
f 1208// 1191// 1185//
f 1208// 1185// 1209//
f 1209// 1185// 1180//
f 1209// 1180// 1210//
f 1210// 1180// 1171//
f 1210// 1171// 1211//
f 1211// 1171// 1108//
f 1211// 1108// 1091//
f 1087// 394// 382//
f 1087// 382// 1212//
f 1212// 382// 381//
f 1212// 381// 1213//
f 1213// 381// 393//
f 1213// 393// 1214//
f 1214// 393// 392//
f 1214// 392// 1215//
f 1215// 392// 391//
f 1215// 391// 1216//
f 1216// 391// 294//
f 1216// 294// 1082//
f 1088// 1217// 1218//
f 1219// 1220// 1221//
f 1096// 1206// 1222//
f 1221// 1220// 1096//
f 1223// 1096// 1220//
f 1223// 1220// 1224//
f 1224// 1220// 1219//
f 1224// 1219// 1225//
f 1226// 1096// 1223//
f 1227// 1228// 1229//
f 1229// 1228// 1222//
f 1229// 1222// 1230//
f 1230// 1222// 1206//
f 1230// 1206// 1205//
f 1226// 1223// 1231//
f 1231// 1223// 1224//
f 1231// 1224// 1232//
f 1232// 1224// 1225//
f 1232// 1225// 1233//
f 1234// 1227// 1235//
f 1235// 1227// 1229//
f 1235// 1229// 1236//
f 1236// 1229// 1230//
f 1236// 1230// 1237//
f 1237// 1230// 1205//
f 1237// 1205// 1204//
f 1238// 1234// 1239//
f 1239// 1234// 1235//
f 1239// 1235// 1240//
f 1240// 1235// 1236//
f 1240// 1236// 1241//
f 1241// 1236// 1237//
f 1241// 1237// 1242//
f 1242// 1237// 1204//
f 1242// 1204// 1203//
f 1217// 1238// 1218//
f 1218// 1238// 1239//
f 1218// 1239// 1243//
f 1243// 1239// 1240//
f 1243// 1240// 1244//
f 1244// 1240// 1241//
f 1244// 1241// 1245//
f 1245// 1241// 1242//
f 1245// 1242// 1246//
f 1246// 1242// 1203//
f 1246// 1203// 1202//
f 1088// 1218// 1201//
f 1201// 1218// 1243//
f 1201// 1243// 1200//
f 1200// 1243// 1244//
f 1200// 1244// 1199//
f 1199// 1244// 1245//
f 1199// 1245// 1198//
f 1198// 1245// 1246//
f 1198// 1246// 1197//
f 1197// 1246// 1202//
f 1197// 1202// 1086//
f 1228// 1096// 1222//
f 1217// 1233// 1238//
f 1238// 1233// 1225//
f 1238// 1225// 1234//
f 1234// 1225// 1219//
f 1234// 1219// 1227//
f 1227// 1219// 1221//
f 1227// 1221// 1228//
f 1228// 1221// 1096//
f 1082// 1207// 1247//
f 1248// 1249// 1250//
f 1091// 1251// 1252//
f 1250// 1249// 1091//
f 1253// 1091// 1249//
f 1253// 1249// 1254//
f 1254// 1249// 1248//
f 1254// 1248// 1255//
f 1211// 1091// 1253//
f 1256// 1257// 1258//
f 1258// 1257// 1252//
f 1258// 1252// 1259//
f 1259// 1252// 1251//
f 1259// 1251// 1260//
f 1211// 1253// 1210//
f 1210// 1253// 1254//
f 1210// 1254// 1209//
f 1209// 1254// 1255//
f 1209// 1255// 1208//
f 1261// 1256// 1262//
f 1262// 1256// 1258//
f 1262// 1258// 1263//
f 1263// 1258// 1259//
f 1263// 1259// 1264//
f 1264// 1259// 1260//
f 1264// 1260// 1265//
f 1266// 1261// 1267//
f 1267// 1261// 1262//
f 1267// 1262// 1268//
f 1268// 1262// 1263//
f 1268// 1263// 1269//
f 1269// 1263// 1264//
f 1269// 1264// 1270//
f 1270// 1264// 1265//
f 1270// 1265// 1271//
f 1207// 1266// 1247//
f 1247// 1266// 1267//
f 1247// 1267// 1272//
f 1272// 1267// 1268//
f 1272// 1268// 1273//
f 1273// 1268// 1269//
f 1273// 1269// 1274//
f 1274// 1269// 1270//
f 1274// 1270// 1275//
f 1275// 1270// 1271//
f 1275// 1271// 1276//
f 1082// 1247// 1216//
f 1216// 1247// 1272//
f 1216// 1272// 1215//
f 1215// 1272// 1273//
f 1215// 1273// 1214//
f 1214// 1273// 1274//
f 1214// 1274// 1213//
f 1213// 1274// 1275//
f 1213// 1275// 1212//
f 1212// 1275// 1276//
f 1212// 1276// 1087//
f 1257// 1091// 1252//
f 1207// 1208// 1266//
f 1266// 1208// 1255//
f 1266// 1255// 1261//
f 1261// 1255// 1248//
f 1261// 1248// 1256//
f 1256// 1248// 1250//
f 1256// 1250// 1257//
f 1257// 1250// 1091//
f 1088// 1087// 1276//
f 1088// 1276// 1217//
f 1217// 1276// 1271//
f 1217// 1271// 1233//
f 1233// 1271// 1265//
f 1233// 1265// 1232//
f 1232// 1265// 1260//
f 1232// 1260// 1231//
f 1231// 1260// 1251//
f 1231// 1251// 1226//
f 1226// 1251// 1091//
f 1226// 1091// 1096//
usemtl 4
f 1277// 1090// 1278//
f 1278// 1090// 1089//
f 1278// 1089// 1279//
f 1279// 1089// 1110//
f 1279// 1110// 1280//
f 1280// 1110// 1109//
f 1280// 1109// 1281//
f 1281// 1109// 1116//
f 1281// 1116// 1282//
f 1282// 1116// 1115//
f 1282// 1115// 1283//
f 1283// 1115// 1114//
f 1283// 1114// 1284//
f 1284// 1114// 1113//
f 1284// 1113// 1285//
f 1285// 1113// 1112//
f 1285// 1112// 1286//
f 1286// 1112// 1111//
f 1286// 1111// 1287//
f 1287// 1111// 1104//
f 1287// 1104// 1288//
f 1288// 1104// 1106//
f 1288// 1106// 1289//
f 1289// 1106// 1107//
f 1289// 1107// 1290//
f 1290// 1107// 1095//
f 1290// 1095// 1291//
f 1291// 1095// 1094//
f 1291// 1094// 1292//
f 1292// 1094// 1100//
f 1292// 1100// 1293//
f 1293// 1100// 1099//
f 1293// 1099// 1294//
f 1294// 1099// 1098//
f 1294// 1098// 1295//
f 1295// 1098// 1097//
f 1295// 1097// 1296//
f 1296// 1097// 1103//
f 1296// 1103// 1297//
f 1297// 1103// 1102//
f 1297// 1102// 1298//
f 1298// 1102// 1101//
f 1298// 1101// 1299//
f 1299// 1101// 1093//
f 1299// 1093// 1300//
f 1300// 1093// 1092//
f 1300// 1092// 1277//
f 1277// 1092// 1090//
f 1299// 1300// 1301//
f 1301// 1300// 1277//
f 1301// 1277// 1278//
f 1296// 1297// 1301//
f 1301// 1297// 1298//
f 1301// 1298// 1299//
f 1293// 1294// 1301//
f 1301// 1294// 1295//
f 1301// 1295// 1296//
f 1290// 1291// 1301//
f 1301// 1291// 1292//
f 1301// 1292// 1293//
f 1287// 1288// 1301//
f 1301// 1288// 1289//
f 1301// 1289// 1290//
f 1284// 1285// 1301//
f 1301// 1285// 1286//
f 1301// 1286// 1287//
f 1281// 1282// 1301//
f 1301// 1282// 1283//
f 1301// 1283// 1284//
f 1278// 1279// 1301//
f 1301// 1279// 1280//
f 1301// 1280// 1281//
usemtl 5
f 1302// 1303// 219//
f 219// 1303// 213//
f 1303// 1304// 213//
f 213// 1304// 208//
f 1304// 1305// 208//
f 208// 1305// 209//
f 1305// 1306// 209//
f 209// 1306// 210//
f 1306// 1307// 210//
f 210// 1307// 205//
f 1307// 1308// 205//
f 205// 1308// 206//
f 1308// 1309// 206//
f 206// 1309// 218//
f 1309// 1302// 218//
f 218// 1302// 219//
f 1310// 1306// 1311//
f 1311// 1306// 1305//
f 1312// 1309// 1310//
f 1310// 1309// 1308//
f 1310// 1308// 1306//
f 1306// 1308// 1307//
f 1312// 1313// 1309//
f 1309// 1313// 1314//
f 1309// 1314// 1302//
f 1302// 1314// 1315//
f 1302// 1315// 1316//
f 1316// 1317// 1302//
f 1302// 1317// 1311//
f 1302// 1311// 1303//
f 1303// 1311// 1305//
f 1303// 1305// 1304//
f 1310// 1311// 1318//
f 1318// 1311// 1319//
f 1312// 1310// 1320//
f 1320// 1310// 1318//
f 1312// 1320// 1321//
f 1312// 1321// 1313//
f 1313// 1321// 1322//
f 1313// 1322// 1314//
f 1315// 1314// 1323//
f 1323// 1314// 1322//
f 1315// 1323// 1324//
f 1315// 1324// 1316//
f 1316// 1324// 1325//
f 1316// 1325// 1317//
f 1311// 1317// 1319//
f 1319// 1317// 1325//
f 1326// 1327// 236//
f 236// 1327// 237//
f 1327// 1328// 237//
f 237// 1328// 238//
f 1328// 1329// 238//
f 238// 1329// 239//
f 1330// 233// 232//
f 1330// 232// 1331//
f 1331// 232// 222//
f 1331// 222// 1332//
f 1332// 222// 221//
f 1332// 221// 1333//
f 1333// 221// 220//
f 1333// 220// 1334//
f 1334// 220// 226//
f 1334// 226// 1335//
f 1335// 226// 225//
f 1335// 225// 1336//
f 1336// 225// 223//
f 1336// 223// 1337//
f 1337// 223// 239//
f 1337// 239// 1329//
f 1326// 236// 235//
f 1326// 235// 1338//
f 1338// 235// 230//
f 1338// 230// 1339//
f 1339// 230// 229//
f 1339// 229// 1340//
f 1340// 229// 228//
f 1340// 228// 1341//
f 1341// 228// 227//
f 1341// 227// 1342//
f 1342// 227// 234//
f 1342// 234// 1343//
f 1343// 234// 233//
f 1343// 233// 1330//
f 1332// 1333// 1344//
f 1344// 1333// 1334//
f 1344// 1334// 1345//
f 1345// 1334// 1335//
f 1345// 1335// 1346//
f 1346// 1335// 1336//
f 1346// 1336// 1347//
f 1347// 1336// 1337//
f 1347// 1337// 1348//
f 1348// 1337// 1329//
f 1348// 1329// 1349//
f 1349// 1329// 1328//
f 1349// 1328// 1350//
f 1350// 1328// 1327//
f 1350// 1327// 1351//
f 1351// 1327// 1326//
f 1351// 1326// 1352//
f 1352// 1326// 1338//
f 1352// 1338// 1353//
f 1353// 1338// 1339//
f 1353// 1339// 1354//
f 1354// 1339// 1340//
f 1354// 1340// 1355//
f 1355// 1340// 1341//
f 1355// 1341// 1356//
f 1356// 1341// 1342//
f 1356// 1342// 1357//
f 1357// 1342// 1343//
f 1357// 1343// 1358//
f 1358// 1343// 1330//
f 1358// 1330// 1359//
f 1359// 1330// 1331//
f 1359// 1331// 1360//
f 1360// 1331// 1332//
f 1360// 1332// 1344//
f 1348// 1349// 1361//
f 1361// 1349// 1362//
f 1348// 1361// 1363//
f 1348// 1363// 1347//
f 1347// 1363// 1364//
f 1347// 1364// 1346//
f 1346// 1364// 1365//
f 1346// 1365// 1345//
f 1345// 1365// 1366//
f 1345// 1366// 1344//
f 1344// 1366// 1367//
f 1344// 1367// 1360//
f 1360// 1367// 1368//
f 1360// 1368// 1359//
f 1359// 1368// 1369//
f 1359// 1369// 1358//
f 1358// 1369// 1370//
f 1358// 1370// 1357//
f 1357// 1370// 1371//
f 1357// 1371// 1356//
f 1356// 1371// 1372//
f 1356// 1372// 1355//
f 1355// 1372// 1373//
f 1355// 1373// 1354//
f 1354// 1373// 1374//
f 1354// 1374// 1353//
f 1353// 1374// 1375//
f 1353// 1375// 1352//
f 1352// 1375// 1376//
f 1352// 1376// 1351//
f 1350// 1351// 1377//
f 1377// 1351// 1376//
f 1349// 1350// 1362//
f 1362// 1350// 1377//
f 1378// 1379// 191//
f 191// 1379// 192//
f 1379// 1380// 192//
f 192// 1380// 204//
f 1380// 1381// 204//
f 204// 1381// 77//
f 1381// 1382// 77//
f 77// 1382// 196//
f 1382// 1383// 196//
f 196// 1383// 194//
f 1383// 1384// 194//
f 194// 1384// 202//
f 1384// 1385// 202//
f 202// 1385// 201//
f 1385// 1386// 201//
f 201// 1386// 200//
f 1386// 1387// 200//
f 200// 1387// 199//
f 1387// 1388// 199//
f 199// 1388// 197//
f 1388// 1389// 197//
f 197// 1389// 198//
f 1389// 1378// 198//
f 198// 1378// 191//
f 1380// 1379// 1378//
f 1378// 1389// 1380//
f 1380// 1389// 1388//
f 1380// 1388// 1381//
f 1383// 1382// 1384//
f 1384// 1382// 1381//
f 1384// 1381// 1385//
f 1385// 1381// 1388//
f 1385// 1388// 1386//
f 1386// 1388// 1387//
f 1390// 1391// 184//
f 184// 1391// 185//
f 185// 1391// 1392//
f 1393// 188// 186//
f 1393// 186// 1394//
f 1394// 186// 81//
f 1394// 81// 1392//
f 1392// 81// 80//
f 1392// 80// 185//
f 1395// 169// 168//
f 1395// 168// 1396//
f 1396// 168// 167//
f 1396// 167// 1397//
f 1397// 167// 159//
f 1397// 159// 1398//
f 1398// 159// 158//
f 1398// 158// 1399//
f 1399// 158// 156//
f 1399// 156// 1400//
f 1400// 156// 155//
f 1400// 155// 1401//
f 1401// 155// 1393//
f 1393// 155// 189//
f 1393// 189// 188//
f 1402// 172// 171//
f 1402// 171// 1403//
f 1403// 171// 170//
f 1403// 170// 1404//
f 1404// 170// 163//
f 1404// 163// 1405//
f 1405// 163// 162//
f 1405// 162// 1406//
f 1406// 162// 161//
f 1406// 161// 1407//
f 1407// 161// 160//
f 1407// 160// 1408//
f 1408// 160// 169//
f 1408// 169// 1395//
f 1409// 149// 148//
f 1409// 148// 1410//
f 1410// 148// 172//
f 1410// 172// 1402//
f 1409// 1411// 149//
f 149// 1411// 152//
f 1412// 151// 150//
f 1412// 150// 1413//
f 1413// 150// 152//
f 1413// 152// 1411//
f 1414// 174// 173//
f 1414// 173// 1415//
f 1415// 173// 166//
f 1415// 166// 1416//
f 1416// 166// 165//
f 1416// 165// 1417//
f 1417// 165// 164//
f 1417// 164// 1418//
f 1418// 164// 154//
f 1418// 154// 1419//
f 1419// 154// 153//
f 1419// 153// 1420//
f 1420// 153// 151//
f 1420// 151// 1412//
f 1421// 181// 180//
f 1421// 180// 1422//
f 1422// 180// 179//
f 1422// 179// 1423//
f 1423// 179// 178//
f 1423// 178// 1424//
f 1424// 178// 177//
f 1424// 177// 1425//
f 1425// 177// 176//
f 1425// 176// 1426//
f 1426// 176// 175//
f 1426// 175// 1427//
f 1427// 175// 174//
f 1427// 174// 1414//
f 1390// 184// 183//
f 1390// 183// 1428//
f 1428// 183// 182//
f 1428// 182// 1429//
f 1429// 182// 181//
f 1429// 181// 1421//
f 1422// 1393// 1421//
f 1421// 1393// 1394//
f 1421// 1394// 1429//
f 1429// 1394// 1392//
f 1429// 1392// 1428//
f 1428// 1392// 1391//
f 1428// 1391// 1390//
f 1411// 1409// 1413//
f 1413// 1409// 1410//
f 1413// 1410// 1412//
f 1412// 1410// 1402//
f 1412// 1402// 1420//
f 1420// 1402// 1403//
f 1420// 1403// 1419//
f 1419// 1403// 1404//
f 1419// 1404// 1418//
f 1418// 1404// 1405//
f 1418// 1405// 1417//
f 1417// 1405// 1406//
f 1417// 1406// 1416//
f 1416// 1406// 1407//
f 1416// 1407// 1415//
f 1415// 1407// 1408//
f 1415// 1408// 1414//
f 1414// 1408// 1395//
f 1414// 1395// 1427//
f 1427// 1395// 1396//
f 1427// 1396// 1426//
f 1426// 1396// 1397//
f 1426// 1397// 1425//
f 1425// 1397// 1398//
f 1425// 1398// 1424//
f 1424// 1398// 1399//
f 1424// 1399// 1423//
f 1423// 1399// 1400//
f 1423// 1400// 1422//
f 1422// 1400// 1401//
f 1422// 1401// 1393//
f 1430// 1431// 285//
f 285// 1431// 286//
f 1431// 1432// 286//
f 286// 1432// 287//
f 1432// 1433// 287//
f 287// 1433// 288//
f 1433// 1434// 288//
f 288// 1434// 290//
f 1434// 1435// 290//
f 290// 1435// 289//
f 1435// 1430// 289//
f 289// 1430// 285//
f 1434// 1433// 1435//
f 1435// 1433// 1432//
f 1435// 1432// 1430//
f 1430// 1432// 1431//
usemtl 2
f 1318// 1319// 1320//
f 1320// 1319// 1325//
f 1320// 1325// 1321//
f 1321// 1325// 1324//
f 1321// 1324// 1322//
f 1322// 1324// 1323//
f 1362// 1377// 1361//
f 1361// 1377// 1376//
f 1361// 1376// 1375//
f 1369// 1368// 1361//
f 1361// 1368// 1367//
f 1361// 1367// 1363//
f 1375// 1374// 1361//
f 1361// 1374// 1373//
f 1361// 1373// 1372//
f 1372// 1371// 1361//
f 1361// 1371// 1370//
f 1361// 1370// 1369//
f 1366// 1365// 1367//
f 1367// 1365// 1364//
f 1367// 1364// 1363//
usemtl 1
f 1436// 1437// 146//
f 146// 1437// 147//
f 141// 1438// 145//
f 145// 1438// 1436//
f 145// 1436// 146//
f 1439// 1438// 136//
f 136// 1438// 141//
f 147// 1437// 135//
f 135// 1437// 1439//
f 135// 1439// 136//
f 1438// 1439// 1436//
f 1436// 1439// 1437//
f 1440// 1441// 131//
f 131// 1441// 132//
f 129// 1442// 130//
f 130// 1442// 1440//
f 130// 1440// 131//
f 1443// 1442// 128//
f 128// 1442// 129//
f 132// 1441// 133//
f 133// 1441// 1443//
f 133// 1443// 128//
f 1442// 1443// 1440//
f 1440// 1443// 1441//
