solid OpenSCAD_Model
  facet normal -0.9039893026927517 -0.42755507319767905 0
    outer loop
      vertex -9.135819301009178 -6.274025146663189 0
      vertex -9.072881899774075 -6.407095108926296 0
      vertex -9.135819301009178 -6.274025146663189 0.40000000000000036
    endloop
  endfacet
  facet normal -0.8577285897347089 -0.5141027780042697 0
    outer loop
      vertex -8.997204415500164 -6.533355352282524 0
      vertex -9.072881899774075 -6.407095108926296 0.40000000000000036
      vertex -9.072881899774075 -6.407095108926296 0
    endloop
  endfacet
  facet normal -0.6715589764431047 -0.7409511057814068 0
    outer loop
      vertex -8.810660168528557 -6.760660168528557 0
      vertex -8.701589927077293 -6.859515678882599 0
      vertex -8.810660168528557 -6.760660168528557 0.40000000000000036
    endloop
  endfacet
  facet normal -0.8032075326742518 -0.5956993028830408 0
    outer loop
      vertex -8.997204415500164 -6.533355352282524 0
      vertex -8.909515678882599 -6.651589927077294 0
      vertex -8.997204415500164 -6.533355352282524 0.40000000000000036
    endloop
  endfacet
  facet normal -0.7409511057814068 -0.6715589764431047 0
    outer loop
      vertex -8.810660168528557 -6.760660168528557 0
      vertex -8.909515678882599 -6.651589927077294 0.40000000000000036
      vertex -8.909515678882599 -6.651589927077294 0
    endloop
  endfacet
  facet normal -0.9039893026927517 -0.42755507319767905 0
    outer loop
      vertex -9.072881899774075 -6.407095108926296 0
      vertex -9.072881899774075 -6.407095108926296 0.40000000000000036
      vertex -9.135819301009178 -6.274025146663189 0.40000000000000036
    endloop
  endfacet
  facet normal -0.8577285897347089 -0.5141027780042697 0
    outer loop
      vertex -8.997204415500164 -6.533355352282524 0
      vertex -8.997204415500164 -6.533355352282524 0.40000000000000036
      vertex -9.072881899774075 -6.407095108926296 0.40000000000000036
    endloop
  endfacet
  facet normal -0.6715589764431047 -0.7409511057814068 0
    outer loop
      vertex -8.701589927077293 -6.859515678882599 0
      vertex -8.701589927077293 -6.859515678882599 0.40000000000000036
      vertex -8.810660168528557 -6.760660168528557 0.40000000000000036
    endloop
  endfacet
  facet normal -0.8032075326742518 -0.5956993028830408 0
    outer loop
      vertex -8.909515678882599 -6.651589927077294 0
      vertex -8.909515678882599 -6.651589927077294 0.40000000000000036
      vertex -8.997204415500164 -6.533355352282524 0.40000000000000036
    endloop
  endfacet
  facet normal -0.7409511057814068 -0.6715589764431047 0
    outer loop
      vertex -8.810660168528557 -6.760660168528557 0
      vertex -8.810660168528557 -6.760660168528557 0.40000000000000036
      vertex -8.909515678882599 -6.651589927077294 0.40000000000000036
    endloop
  endfacet
  facet normal -0.9415440599260391 -0.33688986808449944 0
    outer loop
      vertex -9.135819301009178 -6.274025146663189 0
      vertex -9.185410507023335 -6.1354270175099375 0.40000000000000036
      vertex -9.185410507023335 -6.1354270175099375 0
    endloop
  endfacet
  facet normal -0.9700312581757379 -0.24298016001722236 0
    outer loop
      vertex -9.185410507023335 -6.1354270175099375 0
      vertex -9.22117792069912 -5.9926354855299 0.40000000000000036
      vertex -9.22117792069912 -5.9926354855299 0
    endloop
  endfacet
  facet normal -0.9891765133971449 -0.14673045131624157 0
    outer loop
      vertex -9.22117792069912 -5.9926354855299 0
      vertex -9.242777086794376 -5.847025711834431 0.40000000000000036
      vertex -9.242777086794376 -5.847025711834431 0
    endloop
  endfacet
  facet normal -0.9987954551570746 -0.04906769566193293 0
    outer loop
      vertex -9.242777086794376 -5.847025711834431 0
      vertex -9.25 -5.7 0.40000000000000036
      vertex -9.25 -5.7 0
    endloop
  endfacet
  facet normal -0.9700312581757379 -0.24298016001722236 0
    outer loop
      vertex -9.185410507023335 -6.1354270175099375 0
      vertex -9.185410507023335 -6.1354270175099375 0.40000000000000036
      vertex -9.22117792069912 -5.9926354855299 0.40000000000000036
    endloop
  endfacet
  facet normal -0.9891765133971449 -0.14673045131624157 0
    outer loop
      vertex -9.22117792069912 -5.9926354855299 0
      vertex -9.22117792069912 -5.9926354855299 0.40000000000000036
      vertex -9.242777086794376 -5.847025711834431 0.40000000000000036
    endloop
  endfacet
  facet normal -0.9987954551570746 -0.04906769566193293 0
    outer loop
      vertex -9.242777086794376 -5.847025711834431 0
      vertex -9.242777086794376 -5.847025711834431 0.40000000000000036
      vertex -9.25 -5.7 0.40000000000000036
    endloop
  endfacet
  facet normal -0.9415440599260391 -0.33688986808449944 0
    outer loop
      vertex -9.135819301009178 -6.274025146663189 0
      vertex -9.135819301009178 -6.274025146663189 0.40000000000000036
      vertex -9.185410507023335 -6.1354270175099375 0.40000000000000036
    endloop
  endfacet
  facet normal -0.5956993028830408 -0.8032075326742518 0
    outer loop
      vertex -8.701589927077293 -6.859515678882599 0
      vertex -8.583355352282524 -6.947204415500164 0
      vertex -8.701589927077293 -6.859515678882599 0.40000000000000036
    endloop
  endfacet
  facet normal -0.5141027780042697 -0.8577285897347089 0
    outer loop
      vertex -8.583355352282524 -6.947204415500164 0
      vertex -8.457095108926296 -7.022881899774075 0
      vertex -8.583355352282524 -6.947204415500164 0.40000000000000036
    endloop
  endfacet
  facet normal -0.42755507319767905 -0.9039893026927517 0
    outer loop
      vertex -8.457095108926296 -7.022881899774075 0
      vertex -8.324025146663189 -7.085819301009178 0
      vertex -8.457095108926296 -7.022881899774075 0.40000000000000036
    endloop
  endfacet
  facet normal -0.33688986808449944 -0.9415440599260391 0
    outer loop
      vertex -8.324025146663189 -7.085819301009178 0
      vertex -8.185427017509937 -7.135410507023335 0
      vertex -8.324025146663189 -7.085819301009178 0.40000000000000036
    endloop
  endfacet
  facet normal -0.24298016001722236 -0.9700312581757379 0
    outer loop
      vertex -8.185427017509937 -7.135410507023335 0
      vertex -8.0426354855299 -7.17117792069912 0
      vertex -8.185427017509937 -7.135410507023335 0.40000000000000036
    endloop
  endfacet
  facet normal -0.5956993028830408 -0.8032075326742518 0
    outer loop
      vertex -8.583355352282524 -6.947204415500164 0
      vertex -8.583355352282524 -6.947204415500164 0.40000000000000036
      vertex -8.701589927077293 -6.859515678882599 0.40000000000000036
    endloop
  endfacet
  facet normal -0.5141027780042697 -0.8577285897347089 0
    outer loop
      vertex -8.457095108926296 -7.022881899774075 0
      vertex -8.457095108926296 -7.022881899774075 0.40000000000000036
      vertex -8.583355352282524 -6.947204415500164 0.40000000000000036
    endloop
  endfacet
  facet normal -0.42755507319767905 -0.9039893026927517 0
    outer loop
      vertex -8.324025146663189 -7.085819301009178 0
      vertex -8.324025146663189 -7.085819301009178 0.40000000000000036
      vertex -8.457095108926296 -7.022881899774075 0.40000000000000036
    endloop
  endfacet
  facet normal -0.33688986808449944 -0.9415440599260391 0
    outer loop
      vertex -8.185427017509937 -7.135410507023335 0
      vertex -8.185427017509937 -7.135410507023335 0.40000000000000036
      vertex -8.324025146663189 -7.085819301009178 0.40000000000000036
    endloop
  endfacet
  facet normal -0.14673045131624157 -0.9891765133971449 0
    outer loop
      vertex -8.0426354855299 -7.17117792069912 0
      vertex -7.897025711834431 -7.1927770867943766 0
      vertex -8.0426354855299 -7.17117792069912 0.40000000000000036
    endloop
  endfacet
  facet normal -0.04906769566193293 -0.9987954551570746 0
    outer loop
      vertex -7.897025711834431 -7.1927770867943766 0
      vertex -7.75 -7.2 0
      vertex -7.897025711834431 -7.1927770867943766 0.40000000000000036
    endloop
  endfacet
  facet normal -0.24298016001722236 -0.9700312581757379 0
    outer loop
      vertex -8.0426354855299 -7.17117792069912 0
      vertex -8.0426354855299 -7.17117792069912 0.40000000000000036
      vertex -8.185427017509937 -7.135410507023335 0.40000000000000036
    endloop
  endfacet
  facet normal -0.14673045131624157 -0.9891765133971449 0
    outer loop
      vertex -7.897025711834431 -7.1927770867943766 0
      vertex -7.897025711834431 -7.1927770867943766 0.40000000000000036
      vertex -8.0426354855299 -7.17117792069912 0.40000000000000036
    endloop
  endfacet
  facet normal -0.04906769566193293 -0.9987954551570746 0
    outer loop
      vertex -7.75 -7.2 0
      vertex -7.75 -7.2 0.40000000000000036
      vertex -7.897025711834431 -7.1927770867943766 0.40000000000000036
    endloop
  endfacet
  facet normal -1 0 0
    outer loop
      vertex -9.25 -5.7 0
      vertex -9.25 -5.7 0.40000000000000036
      vertex -9.25 6.8 0.40000000000000036
    endloop
  endfacet
  facet normal 0 0 -1
    outer loop
      vertex -9.22117792069912 -5.9926354855299 0
      vertex -9.242777086794376 -5.847025711834431 0
      vertex -1.2 4.8 0
    endloop
  endfacet
  facet normal 0 0 -1
    outer loop
      vertex -9.242777086794376 -5.847025711834431 0
      vertex -9.25 -5.7 0
      vertex -1.2 4.8 0
    endloop
  endfacet
  facet normal 0 0 1
    outer loop
      vertex -9.22117792069912 -5.9926354855299 0.40000000000000036
      vertex -1.2 7.2 0.40000000000000036
      vertex -9.242777086794376 -5.847025711834431 0.40000000000000036
    endloop
  endfacet
  facet normal 0 0 1
    outer loop
      vertex -9.242777086794376 -5.847025711834431 0.40000000000000036
      vertex -1.2 7.2 0.40000000000000036
      vertex -9.25 -5.7 0.40000000000000036
    endloop
  endfacet
  facet normal 0 0 1
    outer loop
      vertex -9.25 -5.7 0.40000000000000036
      vertex -8.3 6.8 0.40000000000000036
      vertex -9.25 6.8 0.40000000000000036
    endloop
  endfacet
  facet normal -1 0 0
    outer loop
      vertex -9.25 -5.7 0
      vertex -9.25 6.8 0.40000000000000036
      vertex -9.25 8.8 0.40000000000000036
    endloop
  endfacet
  facet normal 0 0 1
    outer loop
      vertex -9.25 -5.7 0.40000000000000036
      vertex -1.2 7.2 0.40000000000000036
      vertex -8.3 6.8 0.40000000000000036
    endloop
  endfacet
  facet normal 0 0 -1
    outer loop
      vertex -9.25 -5.7 0
      vertex -9.25 21.3 0
      vertex -1.2 4.8 0
    endloop
  endfacet
  facet normal 0 0 1
    outer loop
      vertex -1.2 7.2 0.40000000000000036
      vertex -8.3 8.8 0.40000000000000036
      vertex -8.3 6.8 0.40000000000000036
    endloop
  endfacet
  facet normal 0 0 -1
    outer loop
      vertex -8.997204415500164 -6.533355352282524 0
      vertex 9.135819301009178 -6.274025146663189 0
      vertex -8.909515678882599 -6.651589927077294 0
    endloop
  endfacet
  facet normal 0 0 -1
    outer loop
      vertex -8.997204415500164 -6.533355352282524 0
      vertex -9.072881899774075 -6.407095108926296 0
      vertex 9.185410507023335 -6.1354270175099375 0
    endloop
  endfacet
  facet normal 0 0 1
    outer loop
      vertex -8.997204415500164 -6.533355352282524 0.40000000000000036
      vertex -8.909515678882599 -6.651589927077294 0.40000000000000036
      vertex 9.135819301009178 -6.274025146663189 0.40000000000000036
    endloop
  endfacet
  facet normal 0 0 1
    outer loop
      vertex -8.997204415500164 -6.533355352282524 0.40000000000000036
      vertex 9.185410507023335 -6.1354270175099375 0.40000000000000036
      vertex -9.072881899774075 -6.407095108926296 0.40000000000000036
    endloop
  endfacet
  facet normal 0 0 -1
    outer loop
      vertex -9.185410507023335 -6.1354270175099375 0
      vertex -9.22117792069912 -5.9926354855299 0
      vertex 9.25 -5.7 0
    endloop
  endfacet
  facet normal 0 0 -1
    outer loop
      vertex -9.135819301009178 -6.274025146663189 0
      vertex 9.22117792069912 -5.9926354855299 0
      vertex -9.072881899774075 -6.407095108926296 0
    endloop
  endfacet
  facet normal 0 0 -1
    outer loop
      vertex -9.135819301009178 -6.274025146663189 0
      vertex -9.185410507023335 -6.1354270175099375 0
      vertex 9.242777086794376 -5.847025711834431 0
    endloop
  endfacet
  facet normal 0 0 1
    outer loop
      vertex -9.185410507023335 -6.1354270175099375 0.40000000000000036
      vertex 9.25 -5.7 0.40000000000000036
      vertex -9.22117792069912 -5.9926354855299 0.40000000000000036
    endloop
  endfacet
  facet normal 0 0 1
    outer loop
      vertex -9.135819301009178 -6.274025146663189 0.40000000000000036
      vertex -9.072881899774075 -6.407095108926296 0.40000000000000036
      vertex 9.22117792069912 -5.9926354855299 0.40000000000000036
    endloop
  endfacet
  facet normal 0 0 1
    outer loop
      vertex -9.135819301009178 -6.274025146663189 0.40000000000000036
      vertex 9.242777086794376 -5.847025711834431 0.40000000000000036
      vertex -9.185410507023335 -6.1354270175099375 0.40000000000000036
    endloop
  endfacet
  facet normal 0 0 -1
    outer loop
      vertex -8.701589927077293 -6.859515678882599 0
      vertex 8.909515678882599 -6.651589927077294 0
      vertex -8.583355352282524 -6.947204415500164 0
    endloop
  endfacet
  facet normal 0 0 -1
    outer loop
      vertex -8.457095108926296 -7.022881899774075 0
      vertex 8.701589927077293 -6.859515678882599 0
      vertex -8.324025146663189 -7.085819301009178 0
    endloop
  endfacet
  facet normal 0 0 -1
    outer loop
      vertex -8.324025146663189 -7.085819301009178 0
      vertex 8.583355352282524 -6.947204415500164 0
      vertex -8.185427017509937 -7.135410507023335 0
    endloop
  endfacet
  facet normal 0 0 -1
    outer loop
      vertex -8.583355352282524 -6.947204415500164 0
      vertex 8.810660168528557 -6.760660168528557 0
      vertex -8.457095108926296 -7.022881899774075 0
    endloop
  endfacet
  facet normal 0 0 -1
    outer loop
      vertex -8.810660168528557 -6.760660168528557 0
      vertex 8.997204415500164 -6.533355352282524 0
      vertex -8.701589927077293 -6.859515678882599 0
    endloop
  endfacet
  facet normal 0 0 -1
    outer loop
      vertex -8.810660168528557 -6.760660168528557 0
      vertex -8.909515678882599 -6.651589927077294 0
      vertex 9.072881899774075 -6.407095108926296 0
    endloop
  endfacet
  facet normal 0 0 -1
    outer loop
      vertex -8.185427017509937 -7.135410507023335 0
      vertex 8.457095108926296 -7.022881899774075 0
      vertex -8.0426354855299 -7.17117792069912 0
    endloop
  endfacet
  facet normal 0 0 -1
    outer loop
      vertex -8.0426354855299 -7.17117792069912 0
      vertex 8.324025146663189 -7.085819301009178 0
      vertex -7.897025711834431 -7.1927770867943766 0
    endloop
  endfacet
  facet normal 0 0 -1
    outer loop
      vertex -7.897025711834431 -7.1927770867943766 0
      vertex 8.185427017509937 -7.135410507023335 0
      vertex -7.75 -7.2 0
    endloop
  endfacet
  facet normal 0 -1 0
    outer loop
      vertex -7.75 -7.2 0
      vertex 7.75 -7.2 0
      vertex -7.75 -7.2 0.40000000000000036
    endloop
  endfacet
  facet normal 0 0 1
    outer loop
      vertex -8.701589927077293 -6.859515678882599 0.40000000000000036
      vertex -8.583355352282524 -6.947204415500164 0.40000000000000036
      vertex 8.909515678882599 -6.651589927077294 0.40000000000000036
    endloop
  endfacet
  facet normal 0 0 1
    outer loop
      vertex -8.457095108926296 -7.022881899774075 0.40000000000000036
      vertex -8.324025146663189 -7.085819301009178 0.40000000000000036
      vertex 8.701589927077293 -6.859515678882599 0.40000000000000036
    endloop
  endfacet
  facet normal 0 0 1
    outer loop
      vertex -8.324025146663189 -7.085819301009178 0.40000000000000036
      vertex -8.185427017509937 -7.135410507023335 0.40000000000000036
      vertex 8.583355352282524 -6.947204415500164 0.40000000000000036
    endloop
  endfacet
  facet normal 0 0 1
    outer loop
      vertex -8.583355352282524 -6.947204415500164 0.40000000000000036
      vertex -8.457095108926296 -7.022881899774075 0.40000000000000036
      vertex 8.810660168528557 -6.760660168528557 0.40000000000000036
    endloop
  endfacet
  facet normal 0 0 1
    outer loop
      vertex -8.810660168528557 -6.760660168528557 0.40000000000000036
      vertex -8.701589927077293 -6.859515678882599 0.40000000000000036
      vertex 8.997204415500164 -6.533355352282524 0.40000000000000036
    endloop
  endfacet
  facet normal 0 0 1
    outer loop
      vertex -8.810660168528557 -6.760660168528557 0.40000000000000036
      vertex 9.072881899774075 -6.407095108926296 0.40000000000000036
      vertex -8.909515678882599 -6.651589927077294 0.40000000000000036
    endloop
  endfacet
  facet normal 0 0 1
    outer loop
      vertex -8.185427017509937 -7.135410507023335 0.40000000000000036
      vertex -8.0426354855299 -7.17117792069912 0.40000000000000036
      vertex 8.457095108926296 -7.022881899774075 0.40000000000000036
    endloop
  endfacet
  facet normal 0 0 1
    outer loop
      vertex -8.0426354855299 -7.17117792069912 0.40000000000000036
      vertex -7.897025711834431 -7.1927770867943766 0.40000000000000036
      vertex 8.324025146663189 -7.085819301009178 0.40000000000000036
    endloop
  endfacet
  facet normal 0 0 1
    outer loop
      vertex -7.897025711834431 -7.1927770867943766 0.40000000000000036
      vertex -7.75 -7.2 0.40000000000000036
      vertex 8.185427017509937 -7.135410507023335 0.40000000000000036
    endloop
  endfacet
  facet normal 0 0 -1
    outer loop
      vertex -9.22117792069912 -5.9926354855299 0
      vertex -1.2 4.8 0
      vertex 9.25 -5.7 0
    endloop
  endfacet
  facet normal 0 0 1
    outer loop
      vertex -9.22117792069912 -5.9926354855299 0.40000000000000036
      vertex 9.25 -5.7 0.40000000000000036
      vertex -1.2 4.8 0.40000000000000036
    endloop
  endfacet
  facet normal 0 0 1
    outer loop
      vertex -9.22117792069912 -5.9926354855299 0.40000000000000036
      vertex -1.2 4.8 0.40000000000000036
      vertex -1.2 7.2 0.40000000000000036
    endloop
  endfacet
  facet normal -1 0 0
    outer loop
      vertex -9.25 -5.7 0
      vertex -9.25 8.8 0.40000000000000036
      vertex -9.25 21.3 0.40000000000000036
    endloop
  endfacet
  facet normal -1 0 0
    outer loop
      vertex -9.25 -5.7 0
      vertex -9.25 21.3 0.40000000000000036
      vertex -9.25 21.3 0
    endloop
  endfacet
  facet normal 0 0 1
    outer loop
      vertex -9.25 21.3 0.40000000000000036
      vertex -9.25 8.8 0.40000000000000036
      vertex -8.3 8.8 0.40000000000000036
    endloop
  endfacet
  facet normal 0 0 1
    outer loop
      vertex -1.2 7.2 0.40000000000000036
      vertex -9.25 21.3 0.40000000000000036
      vertex -8.3 8.8 0.40000000000000036
    endloop
  endfacet
  facet normal -0.9987954551570746 0.04906769566193293 0
    outer loop
      vertex -9.25 21.3 0
      vertex -9.242777086794376 21.44702571183443 0.40000000000000036
      vertex -9.242777086794376 21.44702571183443 0
    endloop
  endfacet
  facet normal -0.9891765133971449 0.14673045131624157 0
    outer loop
      vertex -9.242777086794376 21.44702571183443 0
      vertex -9.22117792069912 21.5926354855299 0.40000000000000036
      vertex -9.22117792069912 21.5926354855299 0
    endloop
  endfacet
  facet normal -0.9700312581757379 0.24298016001722236 0
    outer loop
      vertex -9.22117792069912 21.5926354855299 0
      vertex -9.185410507023335 21.735427017509938 0.40000000000000036
      vertex -9.185410507023335 21.735427017509938 0
    endloop
  endfacet
  facet normal -0.9415440599260391 0.33688986808449944 0
    outer loop
      vertex -9.185410507023335 21.735427017509938 0
      vertex -9.135819301009178 21.87402514666319 0.40000000000000036
      vertex -9.135819301009178 21.87402514666319 0
    endloop
  endfacet
  facet normal -0.9987954551570746 0.04906769566193293 0
    outer loop
      vertex -9.25 21.3 0
      vertex -9.25 21.3 0.40000000000000036
      vertex -9.242777086794376 21.44702571183443 0.40000000000000036
    endloop
  endfacet
  facet normal -0.9891765133971449 0.14673045131624157 0
    outer loop
      vertex -9.242777086794376 21.44702571183443 0
      vertex -9.242777086794376 21.44702571183443 0.40000000000000036
      vertex -9.22117792069912 21.5926354855299 0.40000000000000036
    endloop
  endfacet
  facet normal -0.9700312581757379 0.24298016001722236 0
    outer loop
      vertex -9.22117792069912 21.5926354855299 0
      vertex -9.22117792069912 21.5926354855299 0.40000000000000036
      vertex -9.185410507023335 21.735427017509938 0.40000000000000036
    endloop
  endfacet
  facet normal -0.9415440599260391 0.33688986808449944 0
    outer loop
      vertex -9.185410507023335 21.735427017509938 0
      vertex -9.185410507023335 21.735427017509938 0.40000000000000036
      vertex -9.135819301009178 21.87402514666319 0.40000000000000036
    endloop
  endfacet
  facet normal -0.9039893026927517 0.42755507319767905 0
    outer loop
      vertex -9.135819301009178 21.87402514666319 0
      vertex -9.072881899774075 22.007095108926297 0.40000000000000036
      vertex -9.072881899774075 22.007095108926297 0
    endloop
  endfacet
  facet normal -0.8577285897347089 0.5141027780042697 0
    outer loop
      vertex -9.072881899774075 22.007095108926297 0
      vertex -8.997204415500164 22.133355352282525 0.40000000000000036
      vertex -8.997204415500164 22.133355352282525 0
    endloop
  endfacet
  facet normal -0.8032075326742518 0.5956993028830408 0
    outer loop
      vertex -8.997204415500164 22.133355352282525 0
      vertex -8.909515678882599 22.251589927077294 0.40000000000000036
      vertex -8.909515678882599 22.251589927077294 0
    endloop
  endfacet
  facet normal -0.7409511057814068 0.6715589764431047 0
    outer loop
      vertex -8.909515678882599 22.251589927077294 0
      vertex -8.810660168528557 22.360660168528558 0.40000000000000036
      vertex -8.810660168528557 22.360660168528558 0
    endloop
  endfacet
  facet normal -0.6715589764431047 0.7409511057814068 0
    outer loop
      vertex -8.810660168528557 22.360660168528558 0
      vertex -8.701589927077293 22.4595156788826 0.40000000000000036
      vertex -8.701589927077293 22.4595156788826 0
    endloop
  endfacet
  facet normal -0.9039893026927517 0.42755507319767905 0
    outer loop
      vertex -9.135819301009178 21.87402514666319 0
      vertex -9.135819301009178 21.87402514666319 0.40000000000000036
      vertex -9.072881899774075 22.007095108926297 0.40000000000000036
    endloop
  endfacet
  facet normal -0.8577285897347089 0.5141027780042697 0
    outer loop
      vertex -9.072881899774075 22.007095108926297 0
      vertex -9.072881899774075 22.007095108926297 0.40000000000000036
      vertex -8.997204415500164 22.133355352282525 0.40000000000000036
    endloop
  endfacet
  facet normal -0.8032075326742518 0.5956993028830408 0
    outer loop
      vertex -8.997204415500164 22.133355352282525 0
      vertex -8.997204415500164 22.133355352282525 0.40000000000000036
      vertex -8.909515678882599 22.251589927077294 0.40000000000000036
    endloop
  endfacet
  facet normal -0.7409511057814068 0.6715589764431047 0
    outer loop
      vertex -8.909515678882599 22.251589927077294 0
      vertex -8.909515678882599 22.251589927077294 0.40000000000000036
      vertex -8.810660168528557 22.360660168528558 0.40000000000000036
    endloop
  endfacet
  facet normal -0.6715589764431047 0.7409511057814068 0
    outer loop
      vertex -8.810660168528557 22.360660168528558 0
      vertex -8.810660168528557 22.360660168528558 0.40000000000000036
      vertex -8.701589927077293 22.4595156788826 0.40000000000000036
    endloop
  endfacet
  facet normal -0.5956993028830408 0.8032075326742518 0
    outer loop
      vertex -8.701589927077293 22.4595156788826 0
      vertex -8.583355352282524 22.547204415500165 0.40000000000000036
      vertex -8.583355352282524 22.547204415500165 0
    endloop
  endfacet
  facet normal -0.5141027780042697 0.8577285897347089 0
    outer loop
      vertex -8.583355352282524 22.547204415500165 0
      vertex -8.457095108926296 22.622881899774075 0.40000000000000036
      vertex -8.457095108926296 22.622881899774075 0
    endloop
  endfacet
  facet normal -0.42755507319767905 0.9039893026927517 0
    outer loop
      vertex -8.457095108926296 22.622881899774075 0
      vertex -8.324025146663189 22.68581930100918 0.40000000000000036
      vertex -8.324025146663189 22.68581930100918 0
    endloop
  endfacet
  facet normal -0.33688986808449944 0.9415440599260391 0
    outer loop
      vertex -8.324025146663189 22.68581930100918 0
      vertex -8.185427017509937 22.735410507023335 0.40000000000000036
      vertex -8.185427017509937 22.735410507023335 0
    endloop
  endfacet
  facet normal -0.5956993028830408 0.8032075326742518 0
    outer loop
      vertex -8.701589927077293 22.4595156788826 0
      vertex -8.701589927077293 22.4595156788826 0.40000000000000036
      vertex -8.583355352282524 22.547204415500165 0.40000000000000036
    endloop
  endfacet
  facet normal -0.5141027780042697 0.8577285897347089 0
    outer loop
      vertex -8.583355352282524 22.547204415500165 0
      vertex -8.583355352282524 22.547204415500165 0.40000000000000036
      vertex -8.457095108926296 22.622881899774075 0.40000000000000036
    endloop
  endfacet
  facet normal -0.42755507319767905 0.9039893026927517 0
    outer loop
      vertex -8.457095108926296 22.622881899774075 0
      vertex -8.457095108926296 22.622881899774075 0.40000000000000036
      vertex -8.324025146663189 22.68581930100918 0.40000000000000036
    endloop
  endfacet
  facet normal -0.33688986808449944 0.9415440599260391 0
    outer loop
      vertex -8.324025146663189 22.68581930100918 0
      vertex -8.324025146663189 22.68581930100918 0.40000000000000036
      vertex -8.185427017509937 22.735410507023335 0.40000000000000036
    endloop
  endfacet
  facet normal -0.24298016001722236 0.9700312581757379 0
    outer loop
      vertex -8.185427017509937 22.735410507023335 0
      vertex -8.185427017509937 22.735410507023335 0.40000000000000036
      vertex -8.0426354855299 22.77117792069912 0.40000000000000036
    endloop
  endfacet
  facet normal 0 0 -1
    outer loop
      vertex -8.0426354855299 22.77117792069912 0
      vertex -7.897025711834431 22.792777086794377 0
      vertex -7.75 22.8 0
    endloop
  endfacet
  facet normal -0.24298016001722236 0.9700312581757379 0
    outer loop
      vertex -8.185427017509937 22.735410507023335 0
      vertex -8.0426354855299 22.77117792069912 0.40000000000000036
      vertex -8.0426354855299 22.77117792069912 0
    endloop
  endfacet
  facet normal -0.14673045131624157 0.9891765133971449 0
    outer loop
      vertex -8.0426354855299 22.77117792069912 0
      vertex -7.897025711834431 22.792777086794377 0.40000000000000036
      vertex -7.897025711834431 22.792777086794377 0
    endloop
  endfacet
  facet normal -0.04906769566193293 0.9987954551570746 0
    outer loop
      vertex -7.897025711834431 22.792777086794377 0
      vertex -7.75 22.8 0.40000000000000036
      vertex -7.75 22.8 0
    endloop
  endfacet
  facet normal -0.14673045131624157 0.9891765133971449 0
    outer loop
      vertex -8.0426354855299 22.77117792069912 0
      vertex -8.0426354855299 22.77117792069912 0.40000000000000036
      vertex -7.897025711834431 22.792777086794377 0.40000000000000036
    endloop
  endfacet
  facet normal -0.04906769566193293 0.9987954551570746 0
    outer loop
      vertex -7.897025711834431 22.792777086794377 0
      vertex -7.897025711834431 22.792777086794377 0.40000000000000036
      vertex -7.75 22.8 0.40000000000000036
    endloop
  endfacet
  facet normal 0 0 1
    outer loop
      vertex -8.0426354855299 22.77117792069912 0.40000000000000036
      vertex -7.75 22.8 0.40000000000000036
      vertex -7.897025711834431 22.792777086794377 0.40000000000000036
    endloop
  endfacet
  facet normal 0 0 -1
    outer loop
      vertex -1.2 4.8 0
      vertex -9.25 21.3 0
      vertex -1.2 7.2 0
    endloop
  endfacet
  facet normal 0 0 -1
    outer loop
      vertex -1.2 7.2 0
      vertex -9.25 21.3 0
      vertex 2.5 16 0
    endloop
  endfacet
  facet normal 0 0 1
    outer loop
      vertex -1.2 7.2 0.40000000000000036
      vertex 2.5 16 0.40000000000000036
      vertex -9.25 21.3 0.40000000000000036
    endloop
  endfacet
  facet normal 0 0 -1
    outer loop
      vertex -9.25 21.3 0
      vertex -9.242777086794376 21.44702571183443 0
      vertex 9.185410507023335 21.735427017509938 0
    endloop
  endfacet
  facet normal 0 0 -1
    outer loop
      vertex -9.242777086794376 21.44702571183443 0
      vertex -9.22117792069912 21.5926354855299 0
      vertex 9.135819301009178 21.87402514666319 0
    endloop
  endfacet
  facet normal 0 0 -1
    outer loop
      vertex -9.22117792069912 21.5926354855299 0
      vertex -9.185410507023335 21.735427017509938 0
      vertex 9.072881899774075 22.007095108926297 0
    endloop
  endfacet
  facet normal 0 0 1
    outer loop
      vertex -9.25 21.3 0.40000000000000036
      vertex 9.185410507023335 21.735427017509938 0.40000000000000036
      vertex -9.242777086794376 21.44702571183443 0.40000000000000036
    endloop
  endfacet
  facet normal 0 0 1
    outer loop
      vertex -9.242777086794376 21.44702571183443 0.40000000000000036
      vertex 9.135819301009178 21.87402514666319 0.40000000000000036
      vertex -9.22117792069912 21.5926354855299 0.40000000000000036
    endloop
  endfacet
  facet normal 0 0 1
    outer loop
      vertex -9.22117792069912 21.5926354855299 0.40000000000000036
      vertex 9.072881899774075 22.007095108926297 0.40000000000000036
      vertex -9.185410507023335 21.735427017509938 0.40000000000000036
    endloop
  endfacet
  facet normal 0 0 -1
    outer loop
      vertex -9.185410507023335 21.735427017509938 0
      vertex -9.135819301009178 21.87402514666319 0
      vertex 8.997204415500164 22.133355352282525 0
    endloop
  endfacet
  facet normal 0 0 -1
    outer loop
      vertex -9.135819301009178 21.87402514666319 0
      vertex -9.072881899774075 22.007095108926297 0
      vertex 8.909515678882599 22.251589927077294 0
    endloop
  endfacet
  facet normal 0 0 -1
    outer loop
      vertex -9.072881899774075 22.007095108926297 0
      vertex -8.997204415500164 22.133355352282525 0
      vertex 8.810660168528557 22.360660168528558 0
    endloop
  endfacet
  facet normal 0 0 -1
    outer loop
      vertex -8.997204415500164 22.133355352282525 0
      vertex -8.909515678882599 22.251589927077294 0
      vertex 8.701589927077293 22.4595156788826 0
    endloop
  endfacet
  facet normal 0 0 -1
    outer loop
      vertex -8.909515678882599 22.251589927077294 0
      vertex -8.810660168528557 22.360660168528558 0
      vertex 8.583355352282524 22.547204415500165 0
    endloop
  endfacet
  facet normal 0 0 -1
    outer loop
      vertex -8.810660168528557 22.360660168528558 0
      vertex -8.701589927077293 22.4595156788826 0
      vertex 8.457095108926296 22.622881899774075 0
    endloop
  endfacet
  facet normal 0 0 -1
    outer loop
      vertex -8.701589927077293 22.4595156788826 0
      vertex -8.583355352282524 22.547204415500165 0
      vertex 8.324025146663189 22.68581930100918 0
    endloop
  endfacet
  facet normal 0 0 -1
    outer loop
      vertex -8.583355352282524 22.547204415500165 0
      vertex -8.457095108926296 22.622881899774075 0
      vertex 8.185427017509937 22.735410507023335 0
    endloop
  endfacet
  facet normal 0 0 -1
    outer loop
      vertex -8.457095108926296 22.622881899774075 0
      vertex -8.324025146663189 22.68581930100918 0
      vertex 8.0426354855299 22.77117792069912 0
    endloop
  endfacet
  facet normal 0 0 1
    outer loop
      vertex -9.185410507023335 21.735427017509938 0.40000000000000036
      vertex 8.997204415500164 22.133355352282525 0.40000000000000036
      vertex -9.135819301009178 21.87402514666319 0.40000000000000036
    endloop
  endfacet
  facet normal 0 0 1
    outer loop
      vertex -9.135819301009178 21.87402514666319 0.40000000000000036
      vertex 8.909515678882599 22.251589927077294 0.40000000000000036
      vertex -9.072881899774075 22.007095108926297 0.40000000000000036
    endloop
  endfacet
  facet normal 0 0 1
    outer loop
      vertex -9.072881899774075 22.007095108926297 0.40000000000000036
      vertex 8.810660168528557 22.360660168528558 0.40000000000000036
      vertex -8.997204415500164 22.133355352282525 0.40000000000000036
    endloop
  endfacet
  facet normal 0 0 1
    outer loop
      vertex -8.997204415500164 22.133355352282525 0.40000000000000036
      vertex 8.701589927077293 22.4595156788826 0.40000000000000036
      vertex -8.909515678882599 22.251589927077294 0.40000000000000036
    endloop
  endfacet
  facet normal 0 0 1
    outer loop
      vertex -8.909515678882599 22.251589927077294 0.40000000000000036
      vertex 8.583355352282524 22.547204415500165 0.40000000000000036
      vertex -8.810660168528557 22.360660168528558 0.40000000000000036
    endloop
  endfacet
  facet normal 0 0 1
    outer loop
      vertex -8.810660168528557 22.360660168528558 0.40000000000000036
      vertex 8.457095108926296 22.622881899774075 0.40000000000000036
      vertex -8.701589927077293 22.4595156788826 0.40000000000000036
    endloop
  endfacet
  facet normal 0 0 1
    outer loop
      vertex -8.701589927077293 22.4595156788826 0.40000000000000036
      vertex 8.324025146663189 22.68581930100918 0.40000000000000036
      vertex -8.583355352282524 22.547204415500165 0.40000000000000036
    endloop
  endfacet
  facet normal 0 0 1
    outer loop
      vertex -8.583355352282524 22.547204415500165 0.40000000000000036
      vertex 8.185427017509937 22.735410507023335 0.40000000000000036
      vertex -8.457095108926296 22.622881899774075 0.40000000000000036
    endloop
  endfacet
  facet normal 0 0 1
    outer loop
      vertex -8.457095108926296 22.622881899774075 0.40000000000000036
      vertex 8.0426354855299 22.77117792069912 0.40000000000000036
      vertex -8.324025146663189 22.68581930100918 0.40000000000000036
    endloop
  endfacet
  facet normal 0 0 -1
    outer loop
      vertex -8.324025146663189 22.68581930100918 0
      vertex -8.185427017509937 22.735410507023335 0
      vertex 7.897025711834431 22.792777086794377 0
    endloop
  endfacet
  facet normal 0 0 -1
    outer loop
      vertex -8.185427017509937 22.735410507023335 0
      vertex -8.0426354855299 22.77117792069912 0
      vertex 7.75 22.8 0
    endloop
  endfacet
  facet normal 0 0 -1
    outer loop
      vertex -8.0426354855299 22.77117792069912 0
      vertex -7.75 22.8 0
      vertex 7.75 22.8 0
    endloop
  endfacet
  facet normal 0 0 1
    outer loop
      vertex -8.324025146663189 22.68581930100918 0.40000000000000036
      vertex 7.897025711834431 22.792777086794377 0.40000000000000036
      vertex -8.185427017509937 22.735410507023335 0.40000000000000036
    endloop
  endfacet
  facet normal 0 0 1
    outer loop
      vertex -8.185427017509937 22.735410507023335 0.40000000000000036
      vertex 7.75 22.8 0.40000000000000036
      vertex -8.0426354855299 22.77117792069912 0.40000000000000036
    endloop
  endfacet
  facet normal 0 0 1
    outer loop
      vertex -8.0426354855299 22.77117792069912 0.40000000000000036
      vertex 7.75 22.8 0.40000000000000036
      vertex -7.75 22.8 0.40000000000000036
    endloop
  endfacet
  facet normal 0 1 0
    outer loop
      vertex -7.75 22.8 0
      vertex -7.75 22.8 0.40000000000000036
      vertex 7.75 22.8 0.40000000000000036
    endloop
  endfacet
  facet normal 0 0 -1
    outer loop
      vertex -9.25 21.3 0
      vertex 2.5 19 0
      vertex 2.5 16 0
    endloop
  endfacet
  facet normal 0 0 1
    outer loop
      vertex -9.25 21.3 0.40000000000000036
      vertex 2.5 16 0.40000000000000036
      vertex 2.5 19 0.40000000000000036
    endloop
  endfacet
  facet normal 0 0 -1
    outer loop
      vertex -7.75 -7.2 0
      vertex 8.0426354855299 -7.17117792069912 0
      vertex 7.75 -7.2 0
    endloop
  endfacet
  facet normal 0 0 -1
    outer loop
      vertex -7.75 -7.2 0
      vertex 8.185427017509937 -7.135410507023335 0
      vertex 8.0426354855299 -7.17117792069912 0
    endloop
  endfacet
  facet normal 0 0 -1
    outer loop
      vertex -7.897025711834431 -7.1927770867943766 0
      vertex 8.324025146663189 -7.085819301009178 0
      vertex 8.185427017509937 -7.135410507023335 0
    endloop
  endfacet
  facet normal 0 -1 0
    outer loop
      vertex -7.75 -7.2 0.40000000000000036
      vertex 7.75 -7.2 0
      vertex 7.75 -7.2 0.40000000000000036
    endloop
  endfacet
  facet normal 0 0 1
    outer loop
      vertex -7.75 -7.2 0.40000000000000036
      vertex 7.75 -7.2 0.40000000000000036
      vertex 8.0426354855299 -7.17117792069912 0.40000000000000036
    endloop
  endfacet
  facet normal 0 0 1
    outer loop
      vertex -7.75 -7.2 0.40000000000000036
      vertex 8.0426354855299 -7.17117792069912 0.40000000000000036
      vertex 8.185427017509937 -7.135410507023335 0.40000000000000036
    endloop
  endfacet
  facet normal 0 0 1
    outer loop
      vertex -7.897025711834431 -7.1927770867943766 0.40000000000000036
      vertex 8.185427017509937 -7.135410507023335 0.40000000000000036
      vertex 8.324025146663189 -7.085819301009178 0.40000000000000036
    endloop
  endfacet
  facet normal 0 0 -1
    outer loop
      vertex -8.0426354855299 -7.17117792069912 0
      vertex 8.457095108926296 -7.022881899774075 0
      vertex 8.324025146663189 -7.085819301009178 0
    endloop
  endfacet
  facet normal 0 0 -1
    outer loop
      vertex -8.185427017509937 -7.135410507023335 0
      vertex 8.583355352282524 -6.947204415500164 0
      vertex 8.457095108926296 -7.022881899774075 0
    endloop
  endfacet
  facet normal 0 0 -1
    outer loop
      vertex -8.324025146663189 -7.085819301009178 0
      vertex 8.701589927077293 -6.859515678882599 0
      vertex 8.583355352282524 -6.947204415500164 0
    endloop
  endfacet
  facet normal 0 0 -1
    outer loop
      vertex -8.457095108926296 -7.022881899774075 0
      vertex 8.810660168528557 -6.760660168528557 0
      vertex 8.701589927077293 -6.859515678882599 0
    endloop
  endfacet
  facet normal 0 0 -1
    outer loop
      vertex -8.583355352282524 -6.947204415500164 0
      vertex 8.909515678882599 -6.651589927077294 0
      vertex 8.810660168528557 -6.760660168528557 0
    endloop
  endfacet
  facet normal 0 0 -1
    outer loop
      vertex -8.701589927077293 -6.859515678882599 0
      vertex 8.997204415500164 -6.533355352282524 0
      vertex 8.909515678882599 -6.651589927077294 0
    endloop
  endfacet
  facet normal 0 0 -1
    outer loop
      vertex -8.810660168528557 -6.760660168528557 0
      vertex 9.072881899774075 -6.407095108926296 0
      vertex 8.997204415500164 -6.533355352282524 0
    endloop
  endfacet
  facet normal 0 0 -1
    outer loop
      vertex -8.909515678882599 -6.651589927077294 0
      vertex 9.135819301009178 -6.274025146663189 0
      vertex 9.072881899774075 -6.407095108926296 0
    endloop
  endfacet
  facet normal 0 0 -1
    outer loop
      vertex -8.997204415500164 -6.533355352282524 0
      vertex 9.185410507023335 -6.1354270175099375 0
      vertex 9.135819301009178 -6.274025146663189 0
    endloop
  endfacet
  facet normal 0 0 1
    outer loop
      vertex -8.0426354855299 -7.17117792069912 0.40000000000000036
      vertex 8.324025146663189 -7.085819301009178 0.40000000000000036
      vertex 8.457095108926296 -7.022881899774075 0.40000000000000036
    endloop
  endfacet
  facet normal 0 0 1
    outer loop
      vertex -8.185427017509937 -7.135410507023335 0.40000000000000036
      vertex 8.457095108926296 -7.022881899774075 0.40000000000000036
      vertex 8.583355352282524 -6.947204415500164 0.40000000000000036
    endloop
  endfacet
  facet normal 0 0 1
    outer loop
      vertex -8.324025146663189 -7.085819301009178 0.40000000000000036
      vertex 8.583355352282524 -6.947204415500164 0.40000000000000036
      vertex 8.701589927077293 -6.859515678882599 0.40000000000000036
    endloop
  endfacet
  facet normal 0 0 1
    outer loop
      vertex -8.457095108926296 -7.022881899774075 0.40000000000000036
      vertex 8.701589927077293 -6.859515678882599 0.40000000000000036
      vertex 8.810660168528557 -6.760660168528557 0.40000000000000036
    endloop
  endfacet
  facet normal 0 0 1
    outer loop
      vertex -8.583355352282524 -6.947204415500164 0.40000000000000036
      vertex 8.810660168528557 -6.760660168528557 0.40000000000000036
      vertex 8.909515678882599 -6.651589927077294 0.40000000000000036
    endloop
  endfacet
  facet normal 0 0 1
    outer loop
      vertex -8.701589927077293 -6.859515678882599 0.40000000000000036
      vertex 8.909515678882599 -6.651589927077294 0.40000000000000036
      vertex 8.997204415500164 -6.533355352282524 0.40000000000000036
    endloop
  endfacet
  facet normal 0 0 1
    outer loop
      vertex -8.810660168528557 -6.760660168528557 0.40000000000000036
      vertex 8.997204415500164 -6.533355352282524 0.40000000000000036
      vertex 9.072881899774075 -6.407095108926296 0.40000000000000036
    endloop
  endfacet
  facet normal 0 0 1
    outer loop
      vertex -8.909515678882599 -6.651589927077294 0.40000000000000036
      vertex 9.072881899774075 -6.407095108926296 0.40000000000000036
      vertex 9.135819301009178 -6.274025146663189 0.40000000000000036
    endloop
  endfacet
  facet normal 0 0 1
    outer loop
      vertex -8.997204415500164 -6.533355352282524 0.40000000000000036
      vertex 9.135819301009178 -6.274025146663189 0.40000000000000036
      vertex 9.185410507023335 -6.1354270175099375 0.40000000000000036
    endloop
  endfacet
  facet normal 0 0 -1
    outer loop
      vertex -9.072881899774075 -6.407095108926296 0
      vertex 9.22117792069912 -5.9926354855299 0
      vertex 9.185410507023335 -6.1354270175099375 0
    endloop
  endfacet
  facet normal 0 0 -1
    outer loop
      vertex -9.135819301009178 -6.274025146663189 0
      vertex 9.242777086794376 -5.847025711834431 0
      vertex 9.22117792069912 -5.9926354855299 0
    endloop
  endfacet
  facet normal 0 0 -1
    outer loop
      vertex -9.185410507023335 -6.1354270175099375 0
      vertex 9.25 -5.7 0
      vertex 9.242777086794376 -5.847025711834431 0
    endloop
  endfacet
  facet normal 0 0 1
    outer loop
      vertex -9.072881899774075 -6.407095108926296 0.40000000000000036
      vertex 9.185410507023335 -6.1354270175099375 0.40000000000000036
      vertex 9.22117792069912 -5.9926354855299 0.40000000000000036
    endloop
  endfacet
  facet normal 0 0 1
    outer loop
      vertex -9.135819301009178 -6.274025146663189 0.40000000000000036
      vertex 9.22117792069912 -5.9926354855299 0.40000000000000036
      vertex 9.242777086794376 -5.847025711834431 0.40000000000000036
    endloop
  endfacet
  facet normal 0 0 1
    outer loop
      vertex -9.185410507023335 -6.1354270175099375 0.40000000000000036
      vertex 9.242777086794376 -5.847025711834431 0.40000000000000036
      vertex 9.25 -5.7 0.40000000000000036
    endloop
  endfacet
  facet normal 0 0 -1
    outer loop
      vertex -1.2 4.8 0
      vertex 1.2 4.8 0
      vertex 9.25 -5.7 0
    endloop
  endfacet
  facet normal 0 0 1
    outer loop
      vertex -1.2 4.8 0.40000000000000036
      vertex 9.25 -5.7 0.40000000000000036
      vertex 1.2 4.8 0.40000000000000036
    endloop
  endfacet
  facet normal 0 0 -1
    outer loop
      vertex 1.2 4.8 0
      vertex 1.2 7.2 0
      vertex 9.25 -5.7 0
    endloop
  endfacet
  facet normal 0 0 1
    outer loop
      vertex 1.2 4.8 0.40000000000000036
      vertex 9.25 -5.7 0.40000000000000036
      vertex 1.2 7.2 0.40000000000000036
    endloop
  endfacet
  facet normal 0.04906769566193293 -0.9987954551570746 0
    outer loop
      vertex 7.75 -7.2 0
      vertex 7.897025711834431 -7.1927770867943766 0
      vertex 7.75 -7.2 0.40000000000000036
    endloop
  endfacet
  facet normal 0 0 -1
    outer loop
      vertex 7.75 -7.2 0
      vertex 8.0426354855299 -7.17117792069912 0
      vertex 7.897025711834431 -7.1927770867943766 0
    endloop
  endfacet
  facet normal 0.14673045131624157 -0.9891765133971449 0
    outer loop
      vertex 7.897025711834431 -7.1927770867943766 0
      vertex 8.0426354855299 -7.17117792069912 0
      vertex 7.897025711834431 -7.1927770867943766 0.40000000000000036
    endloop
  endfacet
  facet normal 0.24298016001722236 -0.9700312581757379 0
    outer loop
      vertex 8.0426354855299 -7.17117792069912 0
      vertex 8.185427017509937 -7.135410507023335 0
      vertex 8.0426354855299 -7.17117792069912 0.40000000000000036
    endloop
  endfacet
  facet normal 0.04906769566193293 -0.9987954551570746 0
    outer loop
      vertex 7.897025711834431 -7.1927770867943766 0
      vertex 7.897025711834431 -7.1927770867943766 0.40000000000000036
      vertex 7.75 -7.2 0.40000000000000036
    endloop
  endfacet
  facet normal 0.14673045131624157 -0.9891765133971449 0
    outer loop
      vertex 8.0426354855299 -7.17117792069912 0
      vertex 8.0426354855299 -7.17117792069912 0.40000000000000036
      vertex 7.897025711834431 -7.1927770867943766 0.40000000000000036
    endloop
  endfacet
  facet normal 0 0 1
    outer loop
      vertex 7.75 -7.2 0.40000000000000036
      vertex 7.897025711834431 -7.1927770867943766 0.40000000000000036
      vertex 8.0426354855299 -7.17117792069912 0.40000000000000036
    endloop
  endfacet
  facet normal 0.33688986808449944 -0.9415440599260391 0
    outer loop
      vertex 8.185427017509937 -7.135410507023335 0
      vertex 8.324025146663189 -7.085819301009178 0
      vertex 8.185427017509937 -7.135410507023335 0.40000000000000036
    endloop
  endfacet
  facet normal 0.42755507319767905 -0.9039893026927517 0
    outer loop
      vertex 8.324025146663189 -7.085819301009178 0
      vertex 8.457095108926296 -7.022881899774075 0
      vertex 8.324025146663189 -7.085819301009178 0.40000000000000036
    endloop
  endfacet
  facet normal 0.5141027780042697 -0.8577285897347089 0
    outer loop
      vertex 8.457095108926296 -7.022881899774075 0
      vertex 8.583355352282524 -6.947204415500164 0
      vertex 8.457095108926296 -7.022881899774075 0.40000000000000036
    endloop
  endfacet
  facet normal 0.5956993028830408 -0.8032075326742518 0
    outer loop
      vertex 8.583355352282524 -6.947204415500164 0
      vertex 8.701589927077293 -6.859515678882599 0
      vertex 8.583355352282524 -6.947204415500164 0.40000000000000036
    endloop
  endfacet
  facet normal 0.24298016001722236 -0.9700312581757379 0
    outer loop
      vertex 8.185427017509937 -7.135410507023335 0
      vertex 8.185427017509937 -7.135410507023335 0.40000000000000036
      vertex 8.0426354855299 -7.17117792069912 0.40000000000000036
    endloop
  endfacet
  facet normal 0.33688986808449944 -0.9415440599260391 0
    outer loop
      vertex 8.324025146663189 -7.085819301009178 0
      vertex 8.324025146663189 -7.085819301009178 0.40000000000000036
      vertex 8.185427017509937 -7.135410507023335 0.40000000000000036
    endloop
  endfacet
  facet normal 0.42755507319767905 -0.9039893026927517 0
    outer loop
      vertex 8.457095108926296 -7.022881899774075 0
      vertex 8.457095108926296 -7.022881899774075 0.40000000000000036
      vertex 8.324025146663189 -7.085819301009178 0.40000000000000036
    endloop
  endfacet
  facet normal 0.5141027780042697 -0.8577285897347089 0
    outer loop
      vertex 8.583355352282524 -6.947204415500164 0
      vertex 8.583355352282524 -6.947204415500164 0.40000000000000036
      vertex 8.457095108926296 -7.022881899774075 0.40000000000000036
    endloop
  endfacet
  facet normal 0.5956993028830408 -0.8032075326742518 0
    outer loop
      vertex 8.701589927077293 -6.859515678882599 0
      vertex 8.701589927077293 -6.859515678882599 0.40000000000000036
      vertex 8.583355352282524 -6.947204415500164 0.40000000000000036
    endloop
  endfacet
  facet normal 0.6715589764431047 -0.7409511057814068 0
    outer loop
      vertex 8.701589927077293 -6.859515678882599 0
      vertex 8.810660168528557 -6.760660168528557 0
      vertex 8.701589927077293 -6.859515678882599 0.40000000000000036
    endloop
  endfacet
  facet normal 0.7409511057814068 -0.6715589764431047 0
    outer loop
      vertex 8.810660168528557 -6.760660168528557 0
      vertex 8.909515678882599 -6.651589927077294 0
      vertex 8.810660168528557 -6.760660168528557 0.40000000000000036
    endloop
  endfacet
  facet normal 0.8032075326742518 -0.5956993028830408 0
    outer loop
      vertex 8.909515678882599 -6.651589927077294 0
      vertex 8.997204415500164 -6.533355352282524 0
      vertex 8.909515678882599 -6.651589927077294 0.40000000000000036
    endloop
  endfacet
  facet normal 0.8577285897347089 -0.5141027780042697 0
    outer loop
      vertex 8.997204415500164 -6.533355352282524 0
      vertex 9.072881899774075 -6.407095108926296 0
      vertex 8.997204415500164 -6.533355352282524 0.40000000000000036
    endloop
  endfacet
  facet normal 0.9039893026927517 -0.42755507319767905 0
    outer loop
      vertex 9.072881899774075 -6.407095108926296 0
      vertex 9.135819301009178 -6.274025146663189 0
      vertex 9.072881899774075 -6.407095108926296 0.40000000000000036
    endloop
  endfacet
  facet normal 0.6715589764431047 -0.7409511057814068 0
    outer loop
      vertex 8.810660168528557 -6.760660168528557 0
      vertex 8.810660168528557 -6.760660168528557 0.40000000000000036
      vertex 8.701589927077293 -6.859515678882599 0.40000000000000036
    endloop
  endfacet
  facet normal 0.7409511057814068 -0.6715589764431047 0
    outer loop
      vertex 8.909515678882599 -6.651589927077294 0
      vertex 8.909515678882599 -6.651589927077294 0.40000000000000036
      vertex 8.810660168528557 -6.760660168528557 0.40000000000000036
    endloop
  endfacet
  facet normal 0.8032075326742518 -0.5956993028830408 0
    outer loop
      vertex 8.997204415500164 -6.533355352282524 0
      vertex 8.997204415500164 -6.533355352282524 0.40000000000000036
      vertex 8.909515678882599 -6.651589927077294 0.40000000000000036
    endloop
  endfacet
  facet normal 0.8577285897347089 -0.5141027780042697 0
    outer loop
      vertex 9.072881899774075 -6.407095108926296 0
      vertex 9.072881899774075 -6.407095108926296 0.40000000000000036
      vertex 8.997204415500164 -6.533355352282524 0.40000000000000036
    endloop
  endfacet
  facet normal 0.9039893026927517 -0.42755507319767905 0
    outer loop
      vertex 9.135819301009178 -6.274025146663189 0
      vertex 9.135819301009178 -6.274025146663189 0.40000000000000036
      vertex 9.072881899774075 -6.407095108926296 0.40000000000000036
    endloop
  endfacet
  facet normal 0.9415440599260391 -0.33688986808449944 0
    outer loop
      vertex 9.135819301009178 -6.274025146663189 0
      vertex 9.185410507023335 -6.1354270175099375 0
      vertex 9.135819301009178 -6.274025146663189 0.40000000000000036
    endloop
  endfacet
  facet normal 0.9700312581757379 -0.24298016001722236 0
    outer loop
      vertex 9.185410507023335 -6.1354270175099375 0
      vertex 9.22117792069912 -5.9926354855299 0
      vertex 9.185410507023335 -6.1354270175099375 0.40000000000000036
    endloop
  endfacet
  facet normal 0.9891765133971449 -0.14673045131624157 0
    outer loop
      vertex 9.22117792069912 -5.9926354855299 0
      vertex 9.242777086794376 -5.847025711834431 0
      vertex 9.22117792069912 -5.9926354855299 0.40000000000000036
    endloop
  endfacet
  facet normal 0.9987954551570746 -0.04906769566193293 0
    outer loop
      vertex 9.242777086794376 -5.847025711834431 0
      vertex 9.25 -5.7 0
      vertex 9.242777086794376 -5.847025711834431 0.40000000000000036
    endloop
  endfacet
  facet normal 0.9415440599260391 -0.33688986808449944 0
    outer loop
      vertex 9.185410507023335 -6.1354270175099375 0
      vertex 9.185410507023335 -6.1354270175099375 0.40000000000000036
      vertex 9.135819301009178 -6.274025146663189 0.40000000000000036
    endloop
  endfacet
  facet normal 0.9700312581757379 -0.24298016001722236 0
    outer loop
      vertex 9.22117792069912 -5.9926354855299 0
      vertex 9.22117792069912 -5.9926354855299 0.40000000000000036
      vertex 9.185410507023335 -6.1354270175099375 0.40000000000000036
    endloop
  endfacet
  facet normal 0.9891765133971449 -0.14673045131624157 0
    outer loop
      vertex 9.242777086794376 -5.847025711834431 0
      vertex 9.242777086794376 -5.847025711834431 0.40000000000000036
      vertex 9.22117792069912 -5.9926354855299 0.40000000000000036
    endloop
  endfacet
  facet normal 0.9987954551570746 -0.04906769566193293 0
    outer loop
      vertex 9.25 -5.7 0
      vertex 9.25 -5.7 0.40000000000000036
      vertex 9.242777086794376 -5.847025711834431 0.40000000000000036
    endloop
  endfacet
  facet normal 0 0 -1
    outer loop
      vertex 1.2 7.2 0
      vertex 7.5 16 0
      vertex 9.25 -5.7 0
    endloop
  endfacet
  facet normal 0 0 1
    outer loop
      vertex 1.2 7.2 0.40000000000000036
      vertex 9.25 -5.7 0.40000000000000036
      vertex 7.5 16 0.40000000000000036
    endloop
  endfacet
  facet normal 0 0 1
    outer loop
      vertex 9.25 -5.7 0.40000000000000036
      vertex 9.25 6.8 0.40000000000000036
      vertex 8.3 6.8 0.40000000000000036
    endloop
  endfacet
  facet normal 1 0 0
    outer loop
      vertex 9.25 -5.7 0
      vertex 9.25 21.3 0
      vertex 9.25 -5.7 0.40000000000000036
    endloop
  endfacet
  facet normal 0 0 1
    outer loop
      vertex 9.25 -5.7 0.40000000000000036
      vertex 8.3 6.8 0.40000000000000036
      vertex 7.5 16 0.40000000000000036
    endloop
  endfacet
  facet normal 1 0 0
    outer loop
      vertex 9.25 -5.7 0.40000000000000036
      vertex 9.25 21.3 0
      vertex 9.25 6.8 0.40000000000000036
    endloop
  endfacet
  facet normal 0 0 1
    outer loop
      vertex -1.2 7.2 0.40000000000000036
      vertex 1.2 7.2 0.40000000000000036
      vertex 2.5 16 0.40000000000000036
    endloop
  endfacet
  facet normal 0 0 -1
    outer loop
      vertex -1.2 7.2 0
      vertex 7.5 16 0
      vertex 1.2 7.2 0
    endloop
  endfacet
  facet normal 0 0 -1
    outer loop
      vertex -1.2 7.2 0
      vertex 2.5 16 0
      vertex 7.5 16 0
    endloop
  endfacet
  facet normal 0 0 1
    outer loop
      vertex 1.2 7.2 0.40000000000000036
      vertex 7.5 16 0.40000000000000036
      vertex 2.5 16 0.40000000000000036
    endloop
  endfacet
  facet normal 0 0 1
    outer loop
      vertex -9.25 21.3 0.40000000000000036
      vertex 2.5 19 0.40000000000000036
      vertex 7.5 19 0.40000000000000036
    endloop
  endfacet
  facet normal 0 0 -1
    outer loop
      vertex -9.25 21.3 0
      vertex 9.22117792069912 21.5926354855299 0
      vertex 2.5 19 0
    endloop
  endfacet
  facet normal 0 0 1
    outer loop
      vertex -9.25 21.3 0.40000000000000036
      vertex 7.5 19 0.40000000000000036
      vertex 9.22117792069912 21.5926354855299 0.40000000000000036
    endloop
  endfacet
  facet normal 0 0 -1
    outer loop
      vertex -8.185427017509937 22.735410507023335 0
      vertex 7.75 22.8 0
      vertex 7.897025711834431 22.792777086794377 0
    endloop
  endfacet
  facet normal 0 0 -1
    outer loop
      vertex -8.324025146663189 22.68581930100918 0
      vertex 7.897025711834431 22.792777086794377 0
      vertex 8.0426354855299 22.77117792069912 0
    endloop
  endfacet
  facet normal 0 0 -1
    outer loop
      vertex -8.457095108926296 22.622881899774075 0
      vertex 8.0426354855299 22.77117792069912 0
      vertex 8.185427017509937 22.735410507023335 0
    endloop
  endfacet
  facet normal 0 1 0
    outer loop
      vertex -7.75 22.8 0
      vertex 7.75 22.8 0.40000000000000036
      vertex 7.75 22.8 0
    endloop
  endfacet
  facet normal 0 0 -1
    outer loop
      vertex -9.072881899774075 22.007095108926297 0
      vertex 8.810660168528557 22.360660168528558 0
      vertex 8.909515678882599 22.251589927077294 0
    endloop
  endfacet
  facet normal 0 0 -1
    outer loop
      vertex -8.997204415500164 22.133355352282525 0
      vertex 8.701589927077293 22.4595156788826 0
      vertex 8.810660168528557 22.360660168528558 0
    endloop
  endfacet
  facet normal 0 0 -1
    outer loop
      vertex -8.810660168528557 22.360660168528558 0
      vertex 8.457095108926296 22.622881899774075 0
      vertex 8.583355352282524 22.547204415500165 0
    endloop
  endfacet
  facet normal 0 0 -1
    outer loop
      vertex -8.583355352282524 22.547204415500165 0
      vertex 8.185427017509937 22.735410507023335 0
      vertex 8.324025146663189 22.68581930100918 0
    endloop
  endfacet
  facet normal 0 0 -1
    outer loop
      vertex -8.701589927077293 22.4595156788826 0
      vertex 8.324025146663189 22.68581930100918 0
      vertex 8.457095108926296 22.622881899774075 0
    endloop
  endfacet
  facet normal 0 0 -1
    outer loop
      vertex -8.909515678882599 22.251589927077294 0
      vertex 8.583355352282524 22.547204415500165 0
      vertex 8.701589927077293 22.4595156788826 0
    endloop
  endfacet
  facet normal 0 0 1
    outer loop
      vertex -8.185427017509937 22.735410507023335 0.40000000000000036
      vertex 7.897025711834431 22.792777086794377 0.40000000000000036
      vertex 7.75 22.8 0.40000000000000036
    endloop
  endfacet
  facet normal 0 0 1
    outer loop
      vertex -8.324025146663189 22.68581930100918 0.40000000000000036
      vertex 8.0426354855299 22.77117792069912 0.40000000000000036
      vertex 7.897025711834431 22.792777086794377 0.40000000000000036
    endloop
  endfacet
  facet normal 0 0 1
    outer loop
      vertex -8.457095108926296 22.622881899774075 0.40000000000000036
      vertex 8.185427017509937 22.735410507023335 0.40000000000000036
      vertex 8.0426354855299 22.77117792069912 0.40000000000000036
    endloop
  endfacet
  facet normal 0 0 1
    outer loop
      vertex -9.072881899774075 22.007095108926297 0.40000000000000036
      vertex 8.909515678882599 22.251589927077294 0.40000000000000036
      vertex 8.810660168528557 22.360660168528558 0.40000000000000036
    endloop
  endfacet
  facet normal 0 0 1
    outer loop
      vertex -8.997204415500164 22.133355352282525 0.40000000000000036
      vertex 8.810660168528557 22.360660168528558 0.40000000000000036
      vertex 8.701589927077293 22.4595156788826 0.40000000000000036
    endloop
  endfacet
  facet normal 0 0 1
    outer loop
      vertex -8.810660168528557 22.360660168528558 0.40000000000000036
      vertex 8.583355352282524 22.547204415500165 0.40000000000000036
      vertex 8.457095108926296 22.622881899774075 0.40000000000000036
    endloop
  endfacet
  facet normal 0 0 1
    outer loop
      vertex -8.583355352282524 22.547204415500165 0.40000000000000036
      vertex 8.324025146663189 22.68581930100918 0.40000000000000036
      vertex 8.185427017509937 22.735410507023335 0.40000000000000036
    endloop
  endfacet
  facet normal 0 0 1
    outer loop
      vertex -8.701589927077293 22.4595156788826 0.40000000000000036
      vertex 8.457095108926296 22.622881899774075 0.40000000000000036
      vertex 8.324025146663189 22.68581930100918 0.40000000000000036
    endloop
  endfacet
  facet normal 0 0 1
    outer loop
      vertex -8.909515678882599 22.251589927077294 0.40000000000000036
      vertex 8.701589927077293 22.4595156788826 0.40000000000000036
      vertex 8.583355352282524 22.547204415500165 0.40000000000000036
    endloop
  endfacet
  facet normal 0 0 -1
    outer loop
      vertex -9.242777086794376 21.44702571183443 0
      vertex 9.135819301009178 21.87402514666319 0
      vertex 9.185410507023335 21.735427017509938 0
    endloop
  endfacet
  facet normal 0 0 -1
    outer loop
      vertex -9.22117792069912 21.5926354855299 0
      vertex 9.072881899774075 22.007095108926297 0
      vertex 9.135819301009178 21.87402514666319 0
    endloop
  endfacet
  facet normal 0 0 -1
    outer loop
      vertex -9.25 21.3 0
      vertex 9.185410507023335 21.735427017509938 0
      vertex 9.22117792069912 21.5926354855299 0
    endloop
  endfacet
  facet normal 0 0 1
    outer loop
      vertex -9.242777086794376 21.44702571183443 0.40000000000000036
      vertex 9.185410507023335 21.735427017509938 0.40000000000000036
      vertex 9.135819301009178 21.87402514666319 0.40000000000000036
    endloop
  endfacet
  facet normal 0 0 1
    outer loop
      vertex -9.22117792069912 21.5926354855299 0.40000000000000036
      vertex 9.135819301009178 21.87402514666319 0.40000000000000036
      vertex 9.072881899774075 22.007095108926297 0.40000000000000036
    endloop
  endfacet
  facet normal 0 0 1
    outer loop
      vertex -9.25 21.3 0.40000000000000036
      vertex 9.22117792069912 21.5926354855299 0.40000000000000036
      vertex 9.185410507023335 21.735427017509938 0.40000000000000036
    endloop
  endfacet
  facet normal 0 0 -1
    outer loop
      vertex -9.185410507023335 21.735427017509938 0
      vertex 8.997204415500164 22.133355352282525 0
      vertex 9.072881899774075 22.007095108926297 0
    endloop
  endfacet
  facet normal 0 0 -1
    outer loop
      vertex -9.135819301009178 21.87402514666319 0
      vertex 8.909515678882599 22.251589927077294 0
      vertex 8.997204415500164 22.133355352282525 0
    endloop
  endfacet
  facet normal 0 0 1
    outer loop
      vertex -9.185410507023335 21.735427017509938 0.40000000000000036
      vertex 9.072881899774075 22.007095108926297 0.40000000000000036
      vertex 8.997204415500164 22.133355352282525 0.40000000000000036
    endloop
  endfacet
  facet normal 0 0 1
    outer loop
      vertex -9.135819301009178 21.87402514666319 0.40000000000000036
      vertex 8.997204415500164 22.133355352282525 0.40000000000000036
      vertex 8.909515678882599 22.251589927077294 0.40000000000000036
    endloop
  endfacet
  facet normal 0 0 -1
    outer loop
      vertex 9.25 -5.7 0
      vertex 7.5 16 0
      vertex 7.5 19 0
    endloop
  endfacet
  facet normal 0 0 1
    outer loop
      vertex 7.5 16 0.40000000000000036
      vertex 8.3 6.8 0.40000000000000036
      vertex 8.3 8.8 0.40000000000000036
    endloop
  endfacet
  facet normal 0 0 -1
    outer loop
      vertex 9.25 -5.7 0
      vertex 7.5 19 0
      vertex 9.25 21.3 0
    endloop
  endfacet
  facet normal 0 0 1
    outer loop
      vertex 7.5 16 0.40000000000000036
      vertex 8.3 8.8 0.40000000000000036
      vertex 9.25 8.8 0.40000000000000036
    endloop
  endfacet
  facet normal 1 0 0
    outer loop
      vertex 9.25 21.3 0
      vertex 9.25 8.8 0.40000000000000036
      vertex 9.25 6.8 0.40000000000000036
    endloop
  endfacet
  facet normal 0 0 -1
    outer loop
      vertex 2.5 19 0
      vertex 9.242777086794376 21.44702571183443 0
      vertex 7.5 19 0
    endloop
  endfacet
  facet normal 0 0 1
    outer loop
      vertex 7.5 16 0.40000000000000036
      vertex 9.242777086794376 21.44702571183443 0.40000000000000036
      vertex 7.5 19 0.40000000000000036
    endloop
  endfacet
  facet normal 0 0 1
    outer loop
      vertex 7.5 16 0.40000000000000036
      vertex 9.25 8.8 0.40000000000000036
      vertex 9.25 21.3 0.40000000000000036
    endloop
  endfacet
  facet normal 1 0 0
    outer loop
      vertex 9.25 21.3 0
      vertex 9.25 21.3 0.40000000000000036
      vertex 9.25 8.8 0.40000000000000036
    endloop
  endfacet
  facet normal 0 0 -1
    outer loop
      vertex 2.5 19 0
      vertex 9.22117792069912 21.5926354855299 0
      vertex 9.242777086794376 21.44702571183443 0
    endloop
  endfacet
  facet normal 0.04906769566193293 0.9987954551570746 0
    outer loop
      vertex 7.75 22.8 0
      vertex 7.897025711834431 22.792777086794377 0.40000000000000036
      vertex 7.897025711834431 22.792777086794377 0
    endloop
  endfacet
  facet normal 0.14673045131624157 0.9891765133971449 0
    outer loop
      vertex 7.897025711834431 22.792777086794377 0
      vertex 8.0426354855299 22.77117792069912 0.40000000000000036
      vertex 8.0426354855299 22.77117792069912 0
    endloop
  endfacet
  facet normal 0.04906769566193293 0.9987954551570746 0
    outer loop
      vertex 7.75 22.8 0
      vertex 7.75 22.8 0.40000000000000036
      vertex 7.897025711834431 22.792777086794377 0.40000000000000036
    endloop
  endfacet
  facet normal 0.14673045131624157 0.9891765133971449 0
    outer loop
      vertex 7.897025711834431 22.792777086794377 0
      vertex 7.897025711834431 22.792777086794377 0.40000000000000036
      vertex 8.0426354855299 22.77117792069912 0.40000000000000036
    endloop
  endfacet
  facet normal 0.24298016001722236 0.9700312581757379 0
    outer loop
      vertex 8.0426354855299 22.77117792069912 0
      vertex 8.0426354855299 22.77117792069912 0.40000000000000036
      vertex 8.185427017509937 22.735410507023335 0.40000000000000036
    endloop
  endfacet
  facet normal 0 0 1
    outer loop
      vertex 7.5 16 0.40000000000000036
      vertex 9.25 21.3 0.40000000000000036
      vertex 9.242777086794376 21.44702571183443 0.40000000000000036
    endloop
  endfacet
  facet normal 0 0 -1
    outer loop
      vertex 7.5 19 0
      vertex 9.242777086794376 21.44702571183443 0
      vertex 9.25 21.3 0
    endloop
  endfacet
  facet normal 0 0 1
    outer loop
      vertex 7.5 19 0.40000000000000036
      vertex 9.242777086794376 21.44702571183443 0.40000000000000036
      vertex 9.22117792069912 21.5926354855299 0.40000000000000036
    endloop
  endfacet
  facet normal 0.24298016001722236 0.9700312581757379 0
    outer loop
      vertex 8.0426354855299 22.77117792069912 0
      vertex 8.185427017509937 22.735410507023335 0.40000000000000036
      vertex 8.185427017509937 22.735410507023335 0
    endloop
  endfacet
  facet normal 0.33688986808449944 0.9415440599260391 0
    outer loop
      vertex 8.185427017509937 22.735410507023335 0
      vertex 8.324025146663189 22.68581930100918 0.40000000000000036
      vertex 8.324025146663189 22.68581930100918 0
    endloop
  endfacet
  facet normal 0.42755507319767905 0.9039893026927517 0
    outer loop
      vertex 8.324025146663189 22.68581930100918 0
      vertex 8.457095108926296 22.622881899774075 0.40000000000000036
      vertex 8.457095108926296 22.622881899774075 0
    endloop
  endfacet
  facet normal 0.5141027780042697 0.8577285897347089 0
    outer loop
      vertex 8.457095108926296 22.622881899774075 0
      vertex 8.583355352282524 22.547204415500165 0.40000000000000036
      vertex 8.583355352282524 22.547204415500165 0
    endloop
  endfacet
  facet normal 0.5956993028830408 0.8032075326742518 0
    outer loop
      vertex 8.583355352282524 22.547204415500165 0
      vertex 8.701589927077293 22.4595156788826 0.40000000000000036
      vertex 8.701589927077293 22.4595156788826 0
    endloop
  endfacet
  facet normal 0.33688986808449944 0.9415440599260391 0
    outer loop
      vertex 8.185427017509937 22.735410507023335 0
      vertex 8.185427017509937 22.735410507023335 0.40000000000000036
      vertex 8.324025146663189 22.68581930100918 0.40000000000000036
    endloop
  endfacet
  facet normal 0.42755507319767905 0.9039893026927517 0
    outer loop
      vertex 8.324025146663189 22.68581930100918 0
      vertex 8.324025146663189 22.68581930100918 0.40000000000000036
      vertex 8.457095108926296 22.622881899774075 0.40000000000000036
    endloop
  endfacet
  facet normal 0.5141027780042697 0.8577285897347089 0
    outer loop
      vertex 8.457095108926296 22.622881899774075 0
      vertex 8.457095108926296 22.622881899774075 0.40000000000000036
      vertex 8.583355352282524 22.547204415500165 0.40000000000000036
    endloop
  endfacet
  facet normal 0.5956993028830408 0.8032075326742518 0
    outer loop
      vertex 8.583355352282524 22.547204415500165 0
      vertex 8.583355352282524 22.547204415500165 0.40000000000000036
      vertex 8.701589927077293 22.4595156788826 0.40000000000000036
    endloop
  endfacet
  facet normal 0.9987954551570746 0.04906769566193293 0
    outer loop
      vertex 9.25 21.3 0
      vertex 9.242777086794376 21.44702571183443 0
      vertex 9.25 21.3 0.40000000000000036
    endloop
  endfacet
  facet normal 0.9891765133971449 0.14673045131624157 0
    outer loop
      vertex 9.242777086794376 21.44702571183443 0
      vertex 9.22117792069912 21.5926354855299 0
      vertex 9.242777086794376 21.44702571183443 0.40000000000000036
    endloop
  endfacet
  facet normal 0.9700312581757379 0.24298016001722236 0
    outer loop
      vertex 9.22117792069912 21.5926354855299 0
      vertex 9.185410507023335 21.735427017509938 0
      vertex 9.22117792069912 21.5926354855299 0.40000000000000036
    endloop
  endfacet
  facet normal 0.9415440599260391 0.33688986808449944 0
    outer loop
      vertex 9.185410507023335 21.735427017509938 0
      vertex 9.135819301009178 21.87402514666319 0
      vertex 9.185410507023335 21.735427017509938 0.40000000000000036
    endloop
  endfacet
  facet normal 0.9415440599260391 0.33688986808449944 0
    outer loop
      vertex 9.135819301009178 21.87402514666319 0
      vertex 9.135819301009178 21.87402514666319 0.40000000000000036
      vertex 9.185410507023335 21.735427017509938 0.40000000000000036
    endloop
  endfacet
  facet normal 0.9987954551570746 0.04906769566193293 0
    outer loop
      vertex 9.242777086794376 21.44702571183443 0
      vertex 9.242777086794376 21.44702571183443 0.40000000000000036
      vertex 9.25 21.3 0.40000000000000036
    endloop
  endfacet
  facet normal 0.9891765133971449 0.14673045131624157 0
    outer loop
      vertex 9.22117792069912 21.5926354855299 0
      vertex 9.22117792069912 21.5926354855299 0.40000000000000036
      vertex 9.242777086794376 21.44702571183443 0.40000000000000036
    endloop
  endfacet
  facet normal 0.9700312581757379 0.24298016001722236 0
    outer loop
      vertex 9.185410507023335 21.735427017509938 0
      vertex 9.185410507023335 21.735427017509938 0.40000000000000036
      vertex 9.22117792069912 21.5926354855299 0.40000000000000036
    endloop
  endfacet
  facet normal 0.7409511057814068 0.6715589764431047 0
    outer loop
      vertex 8.909515678882599 22.251589927077294 0
      vertex 8.810660168528557 22.360660168528558 0
      vertex 8.909515678882599 22.251589927077294 0.40000000000000036
    endloop
  endfacet
  facet normal 0.8032075326742518 0.5956993028830408 0
    outer loop
      vertex 8.909515678882599 22.251589927077294 0
      vertex 8.997204415500164 22.133355352282525 0.40000000000000036
      vertex 8.997204415500164 22.133355352282525 0
    endloop
  endfacet
  facet normal 0.6715589764431047 0.7409511057814068 0
    outer loop
      vertex 8.701589927077293 22.4595156788826 0
      vertex 8.810660168528557 22.360660168528558 0.40000000000000036
      vertex 8.810660168528557 22.360660168528558 0
    endloop
  endfacet
  facet normal 0.8577285897347089 0.5141027780042697 0
    outer loop
      vertex 9.072881899774075 22.007095108926297 0
      vertex 8.997204415500164 22.133355352282525 0
      vertex 9.072881899774075 22.007095108926297 0.40000000000000036
    endloop
  endfacet
  facet normal 0.9039893026927517 0.42755507319767905 0
    outer loop
      vertex 9.072881899774075 22.007095108926297 0
      vertex 9.135819301009178 21.87402514666319 0.40000000000000036
      vertex 9.135819301009178 21.87402514666319 0
    endloop
  endfacet
  facet normal 0.7409511057814068 0.6715589764431047 0
    outer loop
      vertex 8.810660168528557 22.360660168528558 0
      vertex 8.810660168528557 22.360660168528558 0.40000000000000036
      vertex 8.909515678882599 22.251589927077294 0.40000000000000036
    endloop
  endfacet
  facet normal 0.8032075326742518 0.5956993028830408 0
    outer loop
      vertex 8.909515678882599 22.251589927077294 0
      vertex 8.909515678882599 22.251589927077294 0.40000000000000036
      vertex 8.997204415500164 22.133355352282525 0.40000000000000036
    endloop
  endfacet
  facet normal 0.6715589764431047 0.7409511057814068 0
    outer loop
      vertex 8.701589927077293 22.4595156788826 0
      vertex 8.701589927077293 22.4595156788826 0.40000000000000036
      vertex 8.810660168528557 22.360660168528558 0.40000000000000036
    endloop
  endfacet
  facet normal 0.8577285897347089 0.5141027780042697 0
    outer loop
      vertex 8.997204415500164 22.133355352282525 0
      vertex 8.997204415500164 22.133355352282525 0.40000000000000036
      vertex 9.072881899774075 22.007095108926297 0.40000000000000036
    endloop
  endfacet
  facet normal 0.9039893026927517 0.42755507319767905 0
    outer loop
      vertex 9.072881899774075 22.007095108926297 0
      vertex 9.072881899774075 22.007095108926297 0.40000000000000036
      vertex 9.135819301009178 21.87402514666319 0.40000000000000036
    endloop
  endfacet
  facet normal 1 0 0
    outer loop
      vertex -1.2 4.8 0
      vertex -1.2 7.2 0.40000000000000036
      vertex -1.2 4.8 0.40000000000000036
    endloop
  endfacet
  facet normal 1 0 0
    outer loop
      vertex -1.2 4.8 0
      vertex -1.2 7.2 0
      vertex -1.2 7.2 0.40000000000000036
    endloop
  endfacet
  facet normal 0 1 0
    outer loop
      vertex -1.2 4.8 0
      vertex -1.2 4.8 0.40000000000000036
      vertex 1.2 4.8 0
    endloop
  endfacet
  facet normal 0 -1 0
    outer loop
      vertex -1.2 7.2 0
      vertex 1.2 7.2 0.40000000000000036
      vertex -1.2 7.2 0.40000000000000036
    endloop
  endfacet
  facet normal 0 1 0
    outer loop
      vertex -1.2 4.8 0.40000000000000036
      vertex 1.2 4.8 0.40000000000000036
      vertex 1.2 4.8 0
    endloop
  endfacet
  facet normal 0 -1 0
    outer loop
      vertex -1.2 7.2 0
      vertex 1.2 7.2 0
      vertex 1.2 7.2 0.40000000000000036
    endloop
  endfacet
  facet normal -1 0 0
    outer loop
      vertex 1.2 4.8 0
      vertex 1.2 4.8 0.40000000000000036
      vertex 1.2 7.2 0
    endloop
  endfacet
  facet normal -1 0 0
    outer loop
      vertex 1.2 7.2 0
      vertex 1.2 4.8 0.40000000000000036
      vertex 1.2 7.2 0.40000000000000036
    endloop
  endfacet
  facet normal 1 0 0
    outer loop
      vertex 2.5 16 0
      vertex 2.5 19 0.40000000000000036
      vertex 2.5 16 0.40000000000000036
    endloop
  endfacet
  facet normal 1 0 0
    outer loop
      vertex 2.5 16 0
      vertex 2.5 19 0
      vertex 2.5 19 0.40000000000000036
    endloop
  endfacet
  facet normal 0 1 0
    outer loop
      vertex 2.5 16 0
      vertex 2.5 16 0.40000000000000036
      vertex 7.5 16 0
    endloop
  endfacet
  facet normal 0 -1 0
    outer loop
      vertex 2.5 19 0
      vertex 7.5 19 0.40000000000000036
      vertex 2.5 19 0.40000000000000036
    endloop
  endfacet
  facet normal 0 1 0
    outer loop
      vertex 7.5 16 0
      vertex 2.5 16 0.40000000000000036
      vertex 7.5 16 0.40000000000000036
    endloop
  endfacet
  facet normal 0 -1 0
    outer loop
      vertex 2.5 19 0
      vertex 7.5 19 0
      vertex 7.5 19 0.40000000000000036
    endloop
  endfacet
  facet normal -1 0 0
    outer loop
      vertex 7.5 16 0
      vertex 7.5 16 0.40000000000000036
      vertex 7.5 19 0
    endloop
  endfacet
  facet normal -1 0 0
    outer loop
      vertex 7.5 19 0
      vertex 7.5 16 0.40000000000000036
      vertex 7.5 19 0.40000000000000036
    endloop
  endfacet
  facet normal 0 0 -1
    outer loop
      vertex -9.3 6.8 0.40000000000000036
      vertex -9.25 8.8 0.40000000000000036
      vertex -9.25 6.8 0.40000000000000036
    endloop
  endfacet
  facet normal 0 -1 0
    outer loop
      vertex -9.3 6.8 0.40000000000000036
      vertex -9.25 6.8 0.40000000000000036
      vertex -8.3 6.8 7.700000000000001
    endloop
  endfacet
  facet normal 0 -1 0
    outer loop
      vertex -8.3 6.8 7.700000000000001
      vertex -9.25 6.8 0.40000000000000036
      vertex -8.3 6.8 0.40000000000000036
    endloop
  endfacet
  facet normal 1 0 0
    outer loop
      vertex -8.3 6.8 7.700000000000001
      vertex -8.3 6.8 0.40000000000000036
      vertex -8.3 8.8 0.40000000000000036
    endloop
  endfacet
  facet normal 0 -1 0
    outer loop
      vertex -9.3 6.8 0.40000000000000036
      vertex -8.3 6.8 7.700000000000001
      vertex -9.3 6.8 7.700000000000001
    endloop
  endfacet
  facet normal -1 0 0
    outer loop
      vertex -9.3 6.8 0.40000000000000036
      vertex -9.3 6.8 7.700000000000001
      vertex -9.3 8.8 7.700000000000001
    endloop
  endfacet
  facet normal 0 0 1
    outer loop
      vertex -9.3 6.8 7.700000000000001
      vertex -8.3 6.8 7.700000000000001
      vertex -9.3 8.8 7.700000000000001
    endloop
  endfacet
  facet normal 0 0 -1
    outer loop
      vertex -9.3 6.8 0.40000000000000036
      vertex -9.3 8.8 0.40000000000000036
      vertex -9.25 8.8 0.40000000000000036
    endloop
  endfacet
  facet normal -1 0 0
    outer loop
      vertex -9.3 6.8 0.40000000000000036
      vertex -9.3 8.8 7.700000000000001
      vertex -9.3 8.8 0.40000000000000036
    endloop
  endfacet
  facet normal 0 1 0
    outer loop
      vertex -9.3 8.8 0.40000000000000036
      vertex -9.3 8.8 7.700000000000001
      vertex -9.25 8.8 0.40000000000000036
    endloop
  endfacet
  facet normal 0 1 0
    outer loop
      vertex -9.3 8.8 7.700000000000001
      vertex -8.3 8.8 0.40000000000000036
      vertex -9.25 8.8 0.40000000000000036
    endloop
  endfacet
  facet normal 1 0 0
    outer loop
      vertex -8.3 6.8 7.700000000000001
      vertex -8.3 8.8 0.40000000000000036
      vertex -8.3 8.8 7.700000000000001
    endloop
  endfacet
  facet normal 0 1 0
    outer loop
      vertex -9.3 8.8 7.700000000000001
      vertex -8.3 8.8 7.700000000000001
      vertex -8.3 8.8 0.40000000000000036
    endloop
  endfacet
  facet normal 0 0 1
    outer loop
      vertex -8.3 6.8 7.700000000000001
      vertex -8.3 8.8 7.700000000000001
      vertex -9.3 8.8 7.700000000000001
    endloop
  endfacet
  facet normal 0 0 -1
    outer loop
      vertex 9.3 6.8 0.40000000000000036
      vertex 9.25 6.8 0.40000000000000036
      vertex 9.3 8.8 0.40000000000000036
    endloop
  endfacet
  facet normal 0 -1 0
    outer loop
      vertex 9.3 6.8 7.700000000000001
      vertex 8.3 6.8 0.40000000000000036
      vertex 9.25 6.8 0.40000000000000036
    endloop
  endfacet
  facet normal 0 -1 0
    outer loop
      vertex 9.3 6.8 0.40000000000000036
      vertex 9.3 6.8 7.700000000000001
      vertex 9.25 6.8 0.40000000000000036
    endloop
  endfacet
  facet normal 1 0 0
    outer loop
      vertex 9.3 6.8 0.40000000000000036
      vertex 9.3 8.8 0.40000000000000036
      vertex 9.3 6.8 7.700000000000001
    endloop
  endfacet
  facet normal 0 -1 0
    outer loop
      vertex 8.3 6.8 7.700000000000001
      vertex 8.3 6.8 0.40000000000000036
      vertex 9.3 6.8 7.700000000000001
    endloop
  endfacet
  facet normal -1 0 0
    outer loop
      vertex 8.3 6.8 7.700000000000001
      vertex 8.3 8.8 7.700000000000001
      vertex 8.3 6.8 0.40000000000000036
    endloop
  endfacet
  facet normal 0 0 1
    outer loop
      vertex 8.3 6.8 7.700000000000001
      vertex 9.3 6.8 7.700000000000001
      vertex 8.3 8.8 7.700000000000001
    endloop
  endfacet
  facet normal 0 0 -1
    outer loop
      vertex 9.3 8.8 0.40000000000000036
      vertex 9.25 6.8 0.40000000000000036
      vertex 9.25 8.8 0.40000000000000036
    endloop
  endfacet
  facet normal -1 0 0
    outer loop
      vertex 8.3 8.8 7.700000000000001
      vertex 8.3 8.8 0.40000000000000036
      vertex 8.3 6.8 0.40000000000000036
    endloop
  endfacet
  facet normal 0 1 0
    outer loop
      vertex 8.3 8.8 7.700000000000001
      vertex 9.25 8.8 0.40000000000000036
      vertex 8.3 8.8 0.40000000000000036
    endloop
  endfacet
  facet normal 0 1 0
    outer loop
      vertex 9.3 8.8 0.40000000000000036
      vertex 9.25 8.8 0.40000000000000036
      vertex 8.3 8.8 7.700000000000001
    endloop
  endfacet
  facet normal 1 0 0
    outer loop
      vertex 9.3 6.8 7.700000000000001
      vertex 9.3 8.8 0.40000000000000036
      vertex 9.3 8.8 7.700000000000001
    endloop
  endfacet
  facet normal 0 1 0
    outer loop
      vertex 9.3 8.8 0.40000000000000036
      vertex 8.3 8.8 7.700000000000001
      vertex 9.3 8.8 7.700000000000001
    endloop
  endfacet
  facet normal 0 0 1
    outer loop
      vertex 9.3 6.8 7.700000000000001
      vertex 9.3 8.8 7.700000000000001
      vertex 8.3 8.8 7.700000000000001
    endloop
  endfacet
endsolid OpenSCAD_Model
