solid OpenSCAD_Model
  facet normal 0.9987954562051724 0.04906767432741806 6.39745618263981e-19
    outer loop
      vertex 3.3 0 0.5
      vertex 3.2841095980182495 0.32345656308755 0
      vertex 3.2841095980182495 0.32345656308755 0.5
    endloop
  endfacet
  facet normal 0.9987954562051724 0.04906767432741806 6.39745618263981e-19
    outer loop
      vertex 3.2841095980182495 0.32345656308755 0
      vertex 3.3 0 0.5
      vertex 3.3 0 0
    endloop
  endfacet
  facet normal 0.989176509964781 0.14673047445536197 -4.656948298687208e-18
    outer loop
      vertex 3.2841095980182495 0.32345656308755 0.5
      vertex 3.2365914253306602 0.6437980626532231 0
      vertex 3.2365914253306602 0.6437980626532231 0.5
    endloop
  endfacet
  facet normal 0.989176509964781 0.14673047445536197 -4.656948298687208e-18
    outer loop
      vertex 3.2365914253306602 0.6437980626532231 0
      vertex 3.2841095980182495 0.32345656308755 0.5
      vertex 3.2841095980182495 0.32345656308755 0
    endloop
  endfacet
  facet normal 0.970031253194544 0.24298017990326418 4.007759525192055e-18
    outer loop
      vertex 3.2365914253306602 0.6437980626532231 0.5
      vertex 3.157903107916289 0.9579394349397257 0
      vertex 3.157903107916289 0.9579394349397257 0.5
    endloop
  endfacet
  facet normal 0.970031253194544 0.24298017990326418 4.007759525192055e-18
    outer loop
      vertex 3.157903107916289 0.9579394349397257 0
      vertex 3.2365914253306602 0.6437980626532231 0.5
      vertex 3.2365914253306602 0.6437980626532231 0
    endloop
  endfacet
  facet normal 0.9415440651830208 0.3368898533922196 -1.7733067617183534e-17
    outer loop
      vertex 3.157903107916289 0.9579394349397257 0.5
      vertex 3.048802457287246 1.2628553268047962 0
      vertex 3.048802457287246 1.2628553268047962 0.5
    endloop
  endfacet
  facet normal 0.9415440651830208 0.3368898533922196 -1.7733067617183534e-17
    outer loop
      vertex 3.048802457287246 1.2628553268047962 0
      vertex 3.157903107916289 0.9579394349397257 0.5
      vertex 3.157903107916289 0.9579394349397257 0
    endloop
  endfacet
  facet normal 0.9039892931234436 0.4275550934302815 -1.527792873750962e-17
    outer loop
      vertex 3.048802457287246 1.2628553268047962 0.5
      vertex 2.9103401723495717 1.5556092315257921 0
      vertex 2.9103401723495717 1.5556092315257921 0.5
    endloop
  endfacet
  facet normal 0.9039892931234436 0.4275550934302815 -1.527792873750962e-17
    outer loop
      vertex 2.9103401723495717 1.5556092315257921 0
      vertex 3.048802457287246 1.2628553268047962 0.5
      vertex 3.048802457287246 1.2628553268047962 0
    endloop
  endfacet
  facet normal 0.8577286100002718 0.5141027441932222 -6.7076200928581444e-18
    outer loop
      vertex 2.9103401723495717 1.5556092315257921 0.5
      vertex 2.743849720598399 1.8333817689646872 0
      vertex 2.743849720598399 1.8333817689646872 0.5
    endloop
  endfacet
  facet normal 0.8577286100002718 0.5141027441932222 -6.7076200928581444e-18
    outer loop
      vertex 2.743849720598399 1.8333817689646872 0
      vertex 2.9103401723495717 1.5556092315257921 0.5
      vertex 2.9103401723495717 1.5556092315257921 0
    endloop
  endfacet
  facet normal 0.8032075314806453 0.5956993044924328 -1.5004192079382951e-18
    outer loop
      vertex 2.743849720598399 1.8333817689646872 0.5
      vertex 2.550934496097032 2.09349783774003 0
      vertex 2.550934496097032 2.09349783774003 0.5
    endloop
  endfacet
  facet normal 0.8032075314806453 0.5956993044924328 -1.5004192079382951e-18
    outer loop
      vertex 2.550934496097032 2.09349783774003 0
      vertex 2.743849720598399 1.8333817689646872 0.5
      vertex 2.743849720598399 1.8333817689646872 0
    endloop
  endfacet
  facet normal 0.7409511253549586 0.6715589548470189 -1.5680132406644543e-17
    outer loop
      vertex 2.550934496097032 2.09349783774003 0.5
      vertex 2.3334523779156067 2.3334523779156067 0
      vertex 2.3334523779156067 2.3334523779156067 0.5
    endloop
  endfacet
  facet normal 0.7409511253549586 0.6715589548470189 -1.5680132406644543e-17
    outer loop
      vertex 2.3334523779156067 2.3334523779156067 0
      vertex 2.550934496097032 2.09349783774003 0.5
      vertex 2.550934496097032 2.09349783774003 0
    endloop
  endfacet
  facet normal 0.6715589548470189 0.7409511253549586 0
    outer loop
      vertex 2.3334523779156067 2.3334523779156067 0
      vertex 2.09349783774003 2.550934496097032 0.5
      vertex 2.3334523779156067 2.3334523779156067 0.5
    endloop
  endfacet
  facet normal 0.6715589548470189 0.7409511253549586 0
    outer loop
      vertex 2.09349783774003 2.550934496097032 0.5
      vertex 2.3334523779156067 2.3334523779156067 0
      vertex 2.09349783774003 2.550934496097032 0
    endloop
  endfacet
  facet normal 0.5956993044924328 0.8032075314806453 0
    outer loop
      vertex 2.09349783774003 2.550934496097032 0
      vertex 1.8333817689646872 2.743849720598399 0.5
      vertex 2.09349783774003 2.550934496097032 0.5
    endloop
  endfacet
  facet normal 0.5956993044924328 0.8032075314806453 0
    outer loop
      vertex 1.8333817689646872 2.743849720598399 0.5
      vertex 2.09349783774003 2.550934496097032 0
      vertex 1.8333817689646872 2.743849720598399 0
    endloop
  endfacet
  facet normal 0.5141027441932222 0.8577286100002718 0
    outer loop
      vertex 1.8333817689646872 2.743849720598399 0
      vertex 1.5556092315257921 2.9103401723495717 0.5
      vertex 1.8333817689646872 2.743849720598399 0.5
    endloop
  endfacet
  facet normal 0.5141027441932222 0.8577286100002718 0
    outer loop
      vertex 1.5556092315257921 2.9103401723495717 0.5
      vertex 1.8333817689646872 2.743849720598399 0
      vertex 1.5556092315257921 2.9103401723495717 0
    endloop
  endfacet
  facet normal 0.4275550934302815 0.9039892931234436 0
    outer loop
      vertex 1.5556092315257921 2.9103401723495717 0
      vertex 1.2628553268047962 3.048802457287246 0.5
      vertex 1.5556092315257921 2.9103401723495717 0.5
    endloop
  endfacet
  facet normal 0.4275550934302815 0.9039892931234436 0
    outer loop
      vertex 1.2628553268047962 3.048802457287246 0.5
      vertex 1.5556092315257921 2.9103401723495717 0
      vertex 1.2628553268047962 3.048802457287246 0
    endloop
  endfacet
  facet normal 0.3368898533922196 0.9415440651830208 0
    outer loop
      vertex 1.2628553268047962 3.048802457287246 0
      vertex 0.9579394349397257 3.157903107916289 0.5
      vertex 1.2628553268047962 3.048802457287246 0.5
    endloop
  endfacet
  facet normal 0.3368898533922196 0.9415440651830208 0
    outer loop
      vertex 0.9579394349397257 3.157903107916289 0.5
      vertex 1.2628553268047962 3.048802457287246 0
      vertex 0.9579394349397257 3.157903107916289 0
    endloop
  endfacet
  facet normal 0.24298017990326418 0.970031253194544 0
    outer loop
      vertex 0.9579394349397257 3.157903107916289 0
      vertex 0.6437980626532231 3.2365914253306602 0.5
      vertex 0.9579394349397257 3.157903107916289 0.5
    endloop
  endfacet
  facet normal 0.24298017990326418 0.970031253194544 0
    outer loop
      vertex 0.6437980626532231 3.2365914253306602 0.5
      vertex 0.9579394349397257 3.157903107916289 0
      vertex 0.6437980626532231 3.2365914253306602 0
    endloop
  endfacet
  facet normal 0.14673047445536197 0.989176509964781 0
    outer loop
      vertex 0.6437980626532231 3.2365914253306602 0
      vertex 0.32345656308755 3.2841095980182495 0.5
      vertex 0.6437980626532231 3.2365914253306602 0.5
    endloop
  endfacet
  facet normal 0.14673047445536197 0.989176509964781 0
    outer loop
      vertex 0.32345656308755 3.2841095980182495 0.5
      vertex 0.6437980626532231 3.2365914253306602 0
      vertex 0.32345656308755 3.2841095980182495 0
    endloop
  endfacet
  facet normal 0.04906767432741806 0.9987954562051724 0
    outer loop
      vertex 0.32345656308755 3.2841095980182495 0
      vertex 0 3.3 0.5
      vertex 0.32345656308755 3.2841095980182495 0.5
    endloop
  endfacet
  facet normal 0.04906767432741806 0.9987954562051724 0
    outer loop
      vertex 0 3.3 0.5
      vertex 0.32345656308755 3.2841095980182495 0
      vertex 0 3.3 0
    endloop
  endfacet
  facet normal -0.04906767432741806 0.9987954562051724 0
    outer loop
      vertex 0 3.3 0
      vertex -0.32345656308755 3.2841095980182495 0.5
      vertex 0 3.3 0.5
    endloop
  endfacet
  facet normal -0.04906767432741806 0.9987954562051724 0
    outer loop
      vertex -0.32345656308755 3.2841095980182495 0.5
      vertex 0 3.3 0
      vertex -0.32345656308755 3.2841095980182495 0
    endloop
  endfacet
  facet normal -0.14673047445536197 0.989176509964781 0
    outer loop
      vertex -0.32345656308755 3.2841095980182495 0
      vertex -0.6437980626532231 3.2365914253306602 0.5
      vertex -0.32345656308755 3.2841095980182495 0.5
    endloop
  endfacet
  facet normal -0.14673047445536197 0.989176509964781 0
    outer loop
      vertex -0.6437980626532231 3.2365914253306602 0.5
      vertex -0.32345656308755 3.2841095980182495 0
      vertex -0.6437980626532231 3.2365914253306602 0
    endloop
  endfacet
  facet normal -0.24298017990326418 0.970031253194544 0
    outer loop
      vertex -0.6437980626532231 3.2365914253306602 0
      vertex -0.9579394349397257 3.157903107916289 0.5
      vertex -0.6437980626532231 3.2365914253306602 0.5
    endloop
  endfacet
  facet normal -0.24298017990326418 0.970031253194544 0
    outer loop
      vertex -0.9579394349397257 3.157903107916289 0.5
      vertex -0.6437980626532231 3.2365914253306602 0
      vertex -0.9579394349397257 3.157903107916289 0
    endloop
  endfacet
  facet normal -0.3368898533922196 0.9415440651830208 0
    outer loop
      vertex -0.9579394349397257 3.157903107916289 0
      vertex -1.2628553268047962 3.048802457287246 0.5
      vertex -0.9579394349397257 3.157903107916289 0.5
    endloop
  endfacet
  facet normal -0.3368898533922196 0.9415440651830208 0
    outer loop
      vertex -1.2628553268047962 3.048802457287246 0.5
      vertex -0.9579394349397257 3.157903107916289 0
      vertex -1.2628553268047962 3.048802457287246 0
    endloop
  endfacet
  facet normal -0.4275550934302815 0.9039892931234436 0
    outer loop
      vertex -1.2628553268047962 3.048802457287246 0
      vertex -1.5556092315257921 2.9103401723495717 0.5
      vertex -1.2628553268047962 3.048802457287246 0.5
    endloop
  endfacet
  facet normal -0.4275550934302815 0.9039892931234436 0
    outer loop
      vertex -1.5556092315257921 2.9103401723495717 0.5
      vertex -1.2628553268047962 3.048802457287246 0
      vertex -1.5556092315257921 2.9103401723495717 0
    endloop
  endfacet
  facet normal -0.5141027441932222 0.8577286100002718 0
    outer loop
      vertex -1.5556092315257921 2.9103401723495717 0
      vertex -1.8333817689646872 2.743849720598399 0.5
      vertex -1.5556092315257921 2.9103401723495717 0.5
    endloop
  endfacet
  facet normal -0.5141027441932222 0.8577286100002718 0
    outer loop
      vertex -1.8333817689646872 2.743849720598399 0.5
      vertex -1.5556092315257921 2.9103401723495717 0
      vertex -1.8333817689646872 2.743849720598399 0
    endloop
  endfacet
  facet normal -0.5956993044924328 0.8032075314806453 0
    outer loop
      vertex -1.8333817689646872 2.743849720598399 0
      vertex -2.09349783774003 2.550934496097032 0.5
      vertex -1.8333817689646872 2.743849720598399 0.5
    endloop
  endfacet
  facet normal -0.5956993044924328 0.8032075314806453 0
    outer loop
      vertex -2.09349783774003 2.550934496097032 0.5
      vertex -1.8333817689646872 2.743849720598399 0
      vertex -2.09349783774003 2.550934496097032 0
    endloop
  endfacet
  facet normal -0.6715589548470189 0.7409511253549586 0
    outer loop
      vertex -2.09349783774003 2.550934496097032 0
      vertex -2.3334523779156067 2.3334523779156067 0.5
      vertex -2.09349783774003 2.550934496097032 0.5
    endloop
  endfacet
  facet normal -0.6715589548470189 0.7409511253549586 0
    outer loop
      vertex -2.3334523779156067 2.3334523779156067 0.5
      vertex -2.09349783774003 2.550934496097032 0
      vertex -2.3334523779156067 2.3334523779156067 0
    endloop
  endfacet
  facet normal -0.7409511253549586 0.6715589548470189 1.5680132406644543e-17
    outer loop
      vertex -2.550934496097032 2.09349783774003 0
      vertex -2.3334523779156067 2.3334523779156067 0.5
      vertex -2.3334523779156067 2.3334523779156067 0
    endloop
  endfacet
  facet normal -0.7409511253549586 0.6715589548470189 1.5680132406644543e-17
    outer loop
      vertex -2.3334523779156067 2.3334523779156067 0.5
      vertex -2.550934496097032 2.09349783774003 0
      vertex -2.550934496097032 2.09349783774003 0.5
    endloop
  endfacet
  facet normal -0.8032075314806453 0.5956993044924328 1.5004192079382951e-18
    outer loop
      vertex -2.743849720598399 1.8333817689646872 0
      vertex -2.550934496097032 2.09349783774003 0.5
      vertex -2.550934496097032 2.09349783774003 0
    endloop
  endfacet
  facet normal -0.8032075314806453 0.5956993044924328 1.5004192079382951e-18
    outer loop
      vertex -2.550934496097032 2.09349783774003 0.5
      vertex -2.743849720598399 1.8333817689646872 0
      vertex -2.743849720598399 1.8333817689646872 0.5
    endloop
  endfacet
  facet normal -0.8577286100002718 0.5141027441932222 6.7076200928581444e-18
    outer loop
      vertex -2.9103401723495717 1.5556092315257921 0
      vertex -2.743849720598399 1.8333817689646872 0.5
      vertex -2.743849720598399 1.8333817689646872 0
    endloop
  endfacet
  facet normal -0.8577286100002718 0.5141027441932222 6.7076200928581444e-18
    outer loop
      vertex -2.743849720598399 1.8333817689646872 0.5
      vertex -2.9103401723495717 1.5556092315257921 0
      vertex -2.9103401723495717 1.5556092315257921 0.5
    endloop
  endfacet
  facet normal -0.9039892931234436 0.4275550934302815 1.527792873750962e-17
    outer loop
      vertex -3.048802457287246 1.2628553268047962 0
      vertex -2.9103401723495717 1.5556092315257921 0.5
      vertex -2.9103401723495717 1.5556092315257921 0
    endloop
  endfacet
  facet normal -0.9039892931234436 0.4275550934302815 1.527792873750962e-17
    outer loop
      vertex -2.9103401723495717 1.5556092315257921 0.5
      vertex -3.048802457287246 1.2628553268047962 0
      vertex -3.048802457287246 1.2628553268047962 0.5
    endloop
  endfacet
  facet normal -0.9415440651830208 0.3368898533922196 1.7733067617183534e-17
    outer loop
      vertex -3.157903107916289 0.9579394349397257 0
      vertex -3.048802457287246 1.2628553268047962 0.5
      vertex -3.048802457287246 1.2628553268047962 0
    endloop
  endfacet
  facet normal -0.9415440651830208 0.3368898533922196 1.7733067617183534e-17
    outer loop
      vertex -3.048802457287246 1.2628553268047962 0.5
      vertex -3.157903107916289 0.9579394349397257 0
      vertex -3.157903107916289 0.9579394349397257 0.5
    endloop
  endfacet
  facet normal -0.970031253194544 0.24298017990326418 -4.007759525192055e-18
    outer loop
      vertex -3.2365914253306602 0.6437980626532231 0
      vertex -3.157903107916289 0.9579394349397257 0.5
      vertex -3.157903107916289 0.9579394349397257 0
    endloop
  endfacet
  facet normal -0.970031253194544 0.24298017990326418 -4.007759525192055e-18
    outer loop
      vertex -3.157903107916289 0.9579394349397257 0.5
      vertex -3.2365914253306602 0.6437980626532231 0
      vertex -3.2365914253306602 0.6437980626532231 0.5
    endloop
  endfacet
  facet normal -0.989176509964781 0.14673047445536197 4.656948298687208e-18
    outer loop
      vertex -3.2841095980182495 0.32345656308755 0
      vertex -3.2365914253306602 0.6437980626532231 0.5
      vertex -3.2365914253306602 0.6437980626532231 0
    endloop
  endfacet
  facet normal -0.989176509964781 0.14673047445536197 4.656948298687208e-18
    outer loop
      vertex -3.2365914253306602 0.6437980626532231 0.5
      vertex -3.2841095980182495 0.32345656308755 0
      vertex -3.2841095980182495 0.32345656308755 0.5
    endloop
  endfacet
  facet normal -0.9987954562051724 0.04906767432741806 -6.39745618263981e-19
    outer loop
      vertex -3.3 0 0
      vertex -3.2841095980182495 0.32345656308755 0.5
      vertex -3.2841095980182495 0.32345656308755 0
    endloop
  endfacet
  facet normal -0.9987954562051724 0.04906767432741806 -6.39745618263981e-19
    outer loop
      vertex -3.2841095980182495 0.32345656308755 0.5
      vertex -3.3 0 0
      vertex -3.3 0 0.5
    endloop
  endfacet
  facet normal -0.9987954562051724 -0.04906767432741806 6.39745618263981e-19
    outer loop
      vertex -3.2841095980182495 -0.32345656308755 0
      vertex -3.3 0 0.5
      vertex -3.3 0 0
    endloop
  endfacet
  facet normal -0.9987954562051724 -0.04906767432741806 6.39745618263981e-19
    outer loop
      vertex -3.3 0 0.5
      vertex -3.2841095980182495 -0.32345656308755 0
      vertex -3.2841095980182495 -0.32345656308755 0.5
    endloop
  endfacet
  facet normal -0.989176509964781 -0.14673047445536197 -4.656948298687208e-18
    outer loop
      vertex -3.2365914253306602 -0.6437980626532231 0
      vertex -3.2841095980182495 -0.32345656308755 0.5
      vertex -3.2841095980182495 -0.32345656308755 0
    endloop
  endfacet
  facet normal -0.989176509964781 -0.14673047445536197 -4.656948298687208e-18
    outer loop
      vertex -3.2841095980182495 -0.32345656308755 0.5
      vertex -3.2365914253306602 -0.6437980626532231 0
      vertex -3.2365914253306602 -0.6437980626532231 0.5
    endloop
  endfacet
  facet normal -0.970031253194544 -0.24298017990326418 4.007759525192055e-18
    outer loop
      vertex -3.157903107916289 -0.9579394349397257 0
      vertex -3.2365914253306602 -0.6437980626532231 0.5
      vertex -3.2365914253306602 -0.6437980626532231 0
    endloop
  endfacet
  facet normal -0.970031253194544 -0.24298017990326418 4.007759525192055e-18
    outer loop
      vertex -3.2365914253306602 -0.6437980626532231 0.5
      vertex -3.157903107916289 -0.9579394349397257 0
      vertex -3.157903107916289 -0.9579394349397257 0.5
    endloop
  endfacet
  facet normal -0.9415440651830208 -0.3368898533922196 -1.7733067617183534e-17
    outer loop
      vertex -3.048802457287246 -1.2628553268047962 0
      vertex -3.157903107916289 -0.9579394349397257 0.5
      vertex -3.157903107916289 -0.9579394349397257 0
    endloop
  endfacet
  facet normal -0.9415440651830208 -0.3368898533922196 -1.7733067617183534e-17
    outer loop
      vertex -3.157903107916289 -0.9579394349397257 0.5
      vertex -3.048802457287246 -1.2628553268047962 0
      vertex -3.048802457287246 -1.2628553268047962 0.5
    endloop
  endfacet
  facet normal -0.9039892931234436 -0.4275550934302815 -1.527792873750962e-17
    outer loop
      vertex -2.9103401723495717 -1.5556092315257921 0
      vertex -3.048802457287246 -1.2628553268047962 0.5
      vertex -3.048802457287246 -1.2628553268047962 0
    endloop
  endfacet
  facet normal -0.9039892931234436 -0.4275550934302815 -1.527792873750962e-17
    outer loop
      vertex -3.048802457287246 -1.2628553268047962 0.5
      vertex -2.9103401723495717 -1.5556092315257921 0
      vertex -2.9103401723495717 -1.5556092315257921 0.5
    endloop
  endfacet
  facet normal -0.8577286100002718 -0.5141027441932222 -6.7076200928581444e-18
    outer loop
      vertex -2.743849720598399 -1.8333817689646872 0
      vertex -2.9103401723495717 -1.5556092315257921 0.5
      vertex -2.9103401723495717 -1.5556092315257921 0
    endloop
  endfacet
  facet normal -0.8577286100002718 -0.5141027441932222 -6.7076200928581444e-18
    outer loop
      vertex -2.9103401723495717 -1.5556092315257921 0.5
      vertex -2.743849720598399 -1.8333817689646872 0
      vertex -2.743849720598399 -1.8333817689646872 0.5
    endloop
  endfacet
  facet normal -0.8032075314806453 -0.5956993044924328 -1.5004192079382951e-18
    outer loop
      vertex -2.550934496097032 -2.09349783774003 0
      vertex -2.743849720598399 -1.8333817689646872 0.5
      vertex -2.743849720598399 -1.8333817689646872 0
    endloop
  endfacet
  facet normal -0.8032075314806453 -0.5956993044924328 -1.5004192079382951e-18
    outer loop
      vertex -2.743849720598399 -1.8333817689646872 0.5
      vertex -2.550934496097032 -2.09349783774003 0
      vertex -2.550934496097032 -2.09349783774003 0.5
    endloop
  endfacet
  facet normal -0.7409511253549586 -0.6715589548470189 -1.5680132406644543e-17
    outer loop
      vertex -2.3334523779156067 -2.3334523779156067 0
      vertex -2.550934496097032 -2.09349783774003 0.5
      vertex -2.550934496097032 -2.09349783774003 0
    endloop
  endfacet
  facet normal -0.7409511253549586 -0.6715589548470189 -1.5680132406644543e-17
    outer loop
      vertex -2.550934496097032 -2.09349783774003 0.5
      vertex -2.3334523779156067 -2.3334523779156067 0
      vertex -2.3334523779156067 -2.3334523779156067 0.5
    endloop
  endfacet
  facet normal -0.6715589548470189 -0.7409511253549586 0
    outer loop
      vertex -2.3334523779156067 -2.3334523779156067 0
      vertex -2.09349783774003 -2.550934496097032 0.5
      vertex -2.3334523779156067 -2.3334523779156067 0.5
    endloop
  endfacet
  facet normal -0.6715589548470189 -0.7409511253549586 0
    outer loop
      vertex -2.09349783774003 -2.550934496097032 0.5
      vertex -2.3334523779156067 -2.3334523779156067 0
      vertex -2.09349783774003 -2.550934496097032 0
    endloop
  endfacet
  facet normal -0.5956993044924328 -0.8032075314806453 0
    outer loop
      vertex -2.09349783774003 -2.550934496097032 0
      vertex -1.8333817689646872 -2.743849720598399 0.5
      vertex -2.09349783774003 -2.550934496097032 0.5
    endloop
  endfacet
  facet normal -0.5956993044924328 -0.8032075314806453 0
    outer loop
      vertex -1.8333817689646872 -2.743849720598399 0.5
      vertex -2.09349783774003 -2.550934496097032 0
      vertex -1.8333817689646872 -2.743849720598399 0
    endloop
  endfacet
  facet normal -0.5141027441932222 -0.8577286100002718 0
    outer loop
      vertex -1.8333817689646872 -2.743849720598399 0
      vertex -1.5556092315257921 -2.9103401723495717 0.5
      vertex -1.8333817689646872 -2.743849720598399 0.5
    endloop
  endfacet
  facet normal -0.5141027441932222 -0.8577286100002718 0
    outer loop
      vertex -1.5556092315257921 -2.9103401723495717 0.5
      vertex -1.8333817689646872 -2.743849720598399 0
      vertex -1.5556092315257921 -2.9103401723495717 0
    endloop
  endfacet
  facet normal -0.4275550934302815 -0.9039892931234436 0
    outer loop
      vertex -1.5556092315257921 -2.9103401723495717 0
      vertex -1.2628553268047962 -3.048802457287246 0.5
      vertex -1.5556092315257921 -2.9103401723495717 0.5
    endloop
  endfacet
  facet normal -0.4275550934302815 -0.9039892931234436 0
    outer loop
      vertex -1.2628553268047962 -3.048802457287246 0.5
      vertex -1.5556092315257921 -2.9103401723495717 0
      vertex -1.2628553268047962 -3.048802457287246 0
    endloop
  endfacet
  facet normal -0.3368898533922196 -0.9415440651830208 0
    outer loop
      vertex -1.2628553268047962 -3.048802457287246 0
      vertex -0.9579394349397257 -3.157903107916289 0.5
      vertex -1.2628553268047962 -3.048802457287246 0.5
    endloop
  endfacet
  facet normal -0.3368898533922196 -0.9415440651830208 0
    outer loop
      vertex -0.9579394349397257 -3.157903107916289 0.5
      vertex -1.2628553268047962 -3.048802457287246 0
      vertex -0.9579394349397257 -3.157903107916289 0
    endloop
  endfacet
  facet normal -0.24298017990326418 -0.970031253194544 0
    outer loop
      vertex -0.9579394349397257 -3.157903107916289 0
      vertex -0.6437980626532231 -3.2365914253306602 0.5
      vertex -0.9579394349397257 -3.157903107916289 0.5
    endloop
  endfacet
  facet normal -0.24298017990326418 -0.970031253194544 0
    outer loop
      vertex -0.6437980626532231 -3.2365914253306602 0.5
      vertex -0.9579394349397257 -3.157903107916289 0
      vertex -0.6437980626532231 -3.2365914253306602 0
    endloop
  endfacet
  facet normal -0.14673047445536197 -0.989176509964781 0
    outer loop
      vertex -0.6437980626532231 -3.2365914253306602 0
      vertex -0.32345656308755 -3.2841095980182495 0.5
      vertex -0.6437980626532231 -3.2365914253306602 0.5
    endloop
  endfacet
  facet normal -0.14673047445536197 -0.989176509964781 0
    outer loop
      vertex -0.32345656308755 -3.2841095980182495 0.5
      vertex -0.6437980626532231 -3.2365914253306602 0
      vertex -0.32345656308755 -3.2841095980182495 0
    endloop
  endfacet
  facet normal -0.04906767432741806 -0.9987954562051724 0
    outer loop
      vertex -0.32345656308755 -3.2841095980182495 0
      vertex 0 -3.3 0.5
      vertex -0.32345656308755 -3.2841095980182495 0.5
    endloop
  endfacet
  facet normal -0.04906767432741806 -0.9987954562051724 0
    outer loop
      vertex 0 -3.3 0.5
      vertex -0.32345656308755 -3.2841095980182495 0
      vertex 0 -3.3 0
    endloop
  endfacet
  facet normal 0.04906767432741806 -0.9987954562051724 0
    outer loop
      vertex 0 -3.3 0
      vertex 0.32345656308755 -3.2841095980182495 0.5
      vertex 0 -3.3 0.5
    endloop
  endfacet
  facet normal 0.04906767432741806 -0.9987954562051724 0
    outer loop
      vertex 0.32345656308755 -3.2841095980182495 0.5
      vertex 0 -3.3 0
      vertex 0.32345656308755 -3.2841095980182495 0
    endloop
  endfacet
  facet normal 0.14673047445536197 -0.989176509964781 0
    outer loop
      vertex 0.32345656308755 -3.2841095980182495 0
      vertex 0.6437980626532231 -3.2365914253306602 0.5
      vertex 0.32345656308755 -3.2841095980182495 0.5
    endloop
  endfacet
  facet normal 0.14673047445536197 -0.989176509964781 0
    outer loop
      vertex 0.6437980626532231 -3.2365914253306602 0.5
      vertex 0.32345656308755 -3.2841095980182495 0
      vertex 0.6437980626532231 -3.2365914253306602 0
    endloop
  endfacet
  facet normal 0.24298017990326418 -0.970031253194544 0
    outer loop
      vertex 0.6437980626532231 -3.2365914253306602 0
      vertex 0.9579394349397257 -3.157903107916289 0.5
      vertex 0.6437980626532231 -3.2365914253306602 0.5
    endloop
  endfacet
  facet normal 0.24298017990326418 -0.970031253194544 0
    outer loop
      vertex 0.9579394349397257 -3.157903107916289 0.5
      vertex 0.6437980626532231 -3.2365914253306602 0
      vertex 0.9579394349397257 -3.157903107916289 0
    endloop
  endfacet
  facet normal 0.3368898533922196 -0.9415440651830208 0
    outer loop
      vertex 0.9579394349397257 -3.157903107916289 0
      vertex 1.2628553268047962 -3.048802457287246 0.5
      vertex 0.9579394349397257 -3.157903107916289 0.5
    endloop
  endfacet
  facet normal 0.3368898533922196 -0.9415440651830208 0
    outer loop
      vertex 1.2628553268047962 -3.048802457287246 0.5
      vertex 0.9579394349397257 -3.157903107916289 0
      vertex 1.2628553268047962 -3.048802457287246 0
    endloop
  endfacet
  facet normal 0.4275550934302815 -0.9039892931234436 0
    outer loop
      vertex 1.2628553268047962 -3.048802457287246 0
      vertex 1.5556092315257921 -2.9103401723495717 0.5
      vertex 1.2628553268047962 -3.048802457287246 0.5
    endloop
  endfacet
  facet normal 0.4275550934302815 -0.9039892931234436 0
    outer loop
      vertex 1.5556092315257921 -2.9103401723495717 0.5
      vertex 1.2628553268047962 -3.048802457287246 0
      vertex 1.5556092315257921 -2.9103401723495717 0
    endloop
  endfacet
  facet normal 0.5141027441932222 -0.8577286100002718 0
    outer loop
      vertex 1.5556092315257921 -2.9103401723495717 0
      vertex 1.8333817689646872 -2.743849720598399 0.5
      vertex 1.5556092315257921 -2.9103401723495717 0.5
    endloop
  endfacet
  facet normal 0.5141027441932222 -0.8577286100002718 0
    outer loop
      vertex 1.8333817689646872 -2.743849720598399 0.5
      vertex 1.5556092315257921 -2.9103401723495717 0
      vertex 1.8333817689646872 -2.743849720598399 0
    endloop
  endfacet
  facet normal 0.5956993044924328 -0.8032075314806453 0
    outer loop
      vertex 1.8333817689646872 -2.743849720598399 0
      vertex 2.09349783774003 -2.550934496097032 0.5
      vertex 1.8333817689646872 -2.743849720598399 0.5
    endloop
  endfacet
  facet normal 0.5956993044924328 -0.8032075314806453 0
    outer loop
      vertex 2.09349783774003 -2.550934496097032 0.5
      vertex 1.8333817689646872 -2.743849720598399 0
      vertex 2.09349783774003 -2.550934496097032 0
    endloop
  endfacet
  facet normal 0.6715589548470189 -0.7409511253549586 0
    outer loop
      vertex 2.09349783774003 -2.550934496097032 0
      vertex 2.3334523779156067 -2.3334523779156067 0.5
      vertex 2.09349783774003 -2.550934496097032 0.5
    endloop
  endfacet
  facet normal 0.6715589548470189 -0.7409511253549586 0
    outer loop
      vertex 2.3334523779156067 -2.3334523779156067 0.5
      vertex 2.09349783774003 -2.550934496097032 0
      vertex 2.3334523779156067 -2.3334523779156067 0
    endloop
  endfacet
  facet normal 0.7409511253549586 -0.6715589548470189 1.5680132406644543e-17
    outer loop
      vertex 2.3334523779156067 -2.3334523779156067 0.5
      vertex 2.550934496097032 -2.09349783774003 0
      vertex 2.550934496097032 -2.09349783774003 0.5
    endloop
  endfacet
  facet normal 0.7409511253549586 -0.6715589548470189 1.5680132406644543e-17
    outer loop
      vertex 2.550934496097032 -2.09349783774003 0
      vertex 2.3334523779156067 -2.3334523779156067 0.5
      vertex 2.3334523779156067 -2.3334523779156067 0
    endloop
  endfacet
  facet normal 0.8032075314806453 -0.5956993044924328 1.5004192079382951e-18
    outer loop
      vertex 2.550934496097032 -2.09349783774003 0.5
      vertex 2.743849720598399 -1.8333817689646872 0
      vertex 2.743849720598399 -1.8333817689646872 0.5
    endloop
  endfacet
  facet normal 0.8032075314806453 -0.5956993044924328 1.5004192079382951e-18
    outer loop
      vertex 2.743849720598399 -1.8333817689646872 0
      vertex 2.550934496097032 -2.09349783774003 0.5
      vertex 2.550934496097032 -2.09349783774003 0
    endloop
  endfacet
  facet normal 0.8577286100002718 -0.5141027441932222 6.7076200928581444e-18
    outer loop
      vertex 2.743849720598399 -1.8333817689646872 0.5
      vertex 2.9103401723495717 -1.5556092315257921 0
      vertex 2.9103401723495717 -1.5556092315257921 0.5
    endloop
  endfacet
  facet normal 0.8577286100002718 -0.5141027441932222 6.7076200928581444e-18
    outer loop
      vertex 2.9103401723495717 -1.5556092315257921 0
      vertex 2.743849720598399 -1.8333817689646872 0.5
      vertex 2.743849720598399 -1.8333817689646872 0
    endloop
  endfacet
  facet normal 0.9039892931234436 -0.4275550934302815 1.527792873750962e-17
    outer loop
      vertex 2.9103401723495717 -1.5556092315257921 0.5
      vertex 3.048802457287246 -1.2628553268047962 0
      vertex 3.048802457287246 -1.2628553268047962 0.5
    endloop
  endfacet
  facet normal 0.9039892931234436 -0.4275550934302815 1.527792873750962e-17
    outer loop
      vertex 3.048802457287246 -1.2628553268047962 0
      vertex 2.9103401723495717 -1.5556092315257921 0.5
      vertex 2.9103401723495717 -1.5556092315257921 0
    endloop
  endfacet
  facet normal 0.9415440651830208 -0.3368898533922196 1.7733067617183534e-17
    outer loop
      vertex 3.048802457287246 -1.2628553268047962 0.5
      vertex 3.157903107916289 -0.9579394349397257 0
      vertex 3.157903107916289 -0.9579394349397257 0.5
    endloop
  endfacet
  facet normal 0.9415440651830208 -0.3368898533922196 1.7733067617183534e-17
    outer loop
      vertex 3.157903107916289 -0.9579394349397257 0
      vertex 3.048802457287246 -1.2628553268047962 0.5
      vertex 3.048802457287246 -1.2628553268047962 0
    endloop
  endfacet
  facet normal 0.970031253194544 -0.24298017990326418 -4.007759525192055e-18
    outer loop
      vertex 3.157903107916289 -0.9579394349397257 0.5
      vertex 3.2365914253306602 -0.6437980626532231 0
      vertex 3.2365914253306602 -0.6437980626532231 0.5
    endloop
  endfacet
  facet normal 0.970031253194544 -0.24298017990326418 -4.007759525192055e-18
    outer loop
      vertex 3.2365914253306602 -0.6437980626532231 0
      vertex 3.157903107916289 -0.9579394349397257 0.5
      vertex 3.157903107916289 -0.9579394349397257 0
    endloop
  endfacet
  facet normal 0.989176509964781 -0.14673047445536197 4.656948298687208e-18
    outer loop
      vertex 3.2365914253306602 -0.6437980626532231 0.5
      vertex 3.2841095980182495 -0.32345656308755 0
      vertex 3.2841095980182495 -0.32345656308755 0.5
    endloop
  endfacet
  facet normal 0.989176509964781 -0.14673047445536197 4.656948298687208e-18
    outer loop
      vertex 3.2841095980182495 -0.32345656308755 0
      vertex 3.2365914253306602 -0.6437980626532231 0.5
      vertex 3.2365914253306602 -0.6437980626532231 0
    endloop
  endfacet
  facet normal 0.9987954562051724 -0.04906767432741806 -6.39745618263981e-19
    outer loop
      vertex 3.2841095980182495 -0.32345656308755 0.5
      vertex 3.3 0 0
      vertex 3.3 0 0.5
    endloop
  endfacet
  facet normal 0.9987954562051724 -0.04906767432741806 -6.39745618263981e-19
    outer loop
      vertex 3.3 0 0
      vertex 3.2841095980182495 -0.32345656308755 0.5
      vertex 3.2841095980182495 -0.32345656308755 0
    endloop
  endfacet
  facet normal 0 0 -1
    outer loop
      vertex 3.2841095980182495 -0.32345656308755 0
      vertex 3.2841095980182495 0.32345656308755 0
      vertex 3.3 0 0
    endloop
  endfacet
  facet normal 0 0 -1
    outer loop
      vertex 3.2365914253306602 -0.6437980626532231 0
      vertex 3.2841095980182495 0.32345656308755 0
      vertex 3.2841095980182495 -0.32345656308755 0
    endloop
  endfacet
  facet normal 0 0 -1
    outer loop
      vertex 3.2365914253306602 -0.6437980626532231 0
      vertex 3.2365914253306602 0.6437980626532231 0
      vertex 3.2841095980182495 0.32345656308755 0
    endloop
  endfacet
  facet normal 0 0 -1
    outer loop
      vertex 3.157903107916289 -0.9579394349397257 0
      vertex 3.2365914253306602 0.6437980626532231 0
      vertex 3.2365914253306602 -0.6437980626532231 0
    endloop
  endfacet
  facet normal 0 0 -1
    outer loop
      vertex 3.157903107916289 -0.9579394349397257 0
      vertex 3.157903107916289 0.9579394349397257 0
      vertex 3.2365914253306602 0.6437980626532231 0
    endloop
  endfacet
  facet normal 0 0 -1
    outer loop
      vertex 3.048802457287246 -1.2628553268047962 0
      vertex 3.157903107916289 0.9579394349397257 0
      vertex 3.157903107916289 -0.9579394349397257 0
    endloop
  endfacet
  facet normal 0 0 -1
    outer loop
      vertex 3.048802457287246 -1.2628553268047962 0
      vertex 3.048802457287246 1.2628553268047962 0
      vertex 3.157903107916289 0.9579394349397257 0
    endloop
  endfacet
  facet normal 0 0 -1
    outer loop
      vertex 2.9103401723495717 -1.5556092315257921 0
      vertex 3.048802457287246 1.2628553268047962 0
      vertex 3.048802457287246 -1.2628553268047962 0
    endloop
  endfacet
  facet normal 0 0 -1
    outer loop
      vertex 2.9103401723495717 -1.5556092315257921 0
      vertex 2.9103401723495717 1.5556092315257921 0
      vertex 3.048802457287246 1.2628553268047962 0
    endloop
  endfacet
  facet normal 0 0 -1
    outer loop
      vertex 2.743849720598399 -1.8333817689646872 0
      vertex 2.9103401723495717 1.5556092315257921 0
      vertex 2.9103401723495717 -1.5556092315257921 0
    endloop
  endfacet
  facet normal 0 0 -1
    outer loop
      vertex 2.743849720598399 -1.8333817689646872 0
      vertex 2.743849720598399 1.8333817689646872 0
      vertex 2.9103401723495717 1.5556092315257921 0
    endloop
  endfacet
  facet normal 0 0 -1
    outer loop
      vertex 2.550934496097032 -2.09349783774003 0
      vertex 2.743849720598399 1.8333817689646872 0
      vertex 2.743849720598399 -1.8333817689646872 0
    endloop
  endfacet
  facet normal 0 0 -1
    outer loop
      vertex 2.550934496097032 -2.09349783774003 0
      vertex 2.550934496097032 2.09349783774003 0
      vertex 2.743849720598399 1.8333817689646872 0
    endloop
  endfacet
  facet normal 0 0 -1
    outer loop
      vertex 2.3334523779156067 -2.3334523779156067 0
      vertex 2.550934496097032 2.09349783774003 0
      vertex 2.550934496097032 -2.09349783774003 0
    endloop
  endfacet
  facet normal 0 0 -1
    outer loop
      vertex 2.3334523779156067 -2.3334523779156067 0
      vertex 2.3334523779156067 2.3334523779156067 0
      vertex 2.550934496097032 2.09349783774003 0
    endloop
  endfacet
  facet normal 0 0 -1
    outer loop
      vertex 2.09349783774003 -2.550934496097032 0
      vertex 2.3334523779156067 2.3334523779156067 0
      vertex 2.3334523779156067 -2.3334523779156067 0
    endloop
  endfacet
  facet normal 0 0 -1
    outer loop
      vertex 2.09349783774003 -2.550934496097032 0
      vertex 2.09349783774003 2.550934496097032 0
      vertex 2.3334523779156067 2.3334523779156067 0
    endloop
  endfacet
  facet normal 0 0 -1
    outer loop
      vertex 1.8333817689646872 -2.743849720598399 0
      vertex 2.09349783774003 2.550934496097032 0
      vertex 2.09349783774003 -2.550934496097032 0
    endloop
  endfacet
  facet normal 0 0 -1
    outer loop
      vertex 1.8333817689646872 -2.743849720598399 0
      vertex 1.8333817689646872 2.743849720598399 0
      vertex 2.09349783774003 2.550934496097032 0
    endloop
  endfacet
  facet normal 0 0 -1
    outer loop
      vertex 1.5556092315257921 -2.9103401723495717 0
      vertex 1.8333817689646872 2.743849720598399 0
      vertex 1.8333817689646872 -2.743849720598399 0
    endloop
  endfacet
  facet normal 0 0 -1
    outer loop
      vertex 1.5556092315257921 -2.9103401723495717 0
      vertex 1.5556092315257921 2.9103401723495717 0
      vertex 1.8333817689646872 2.743849720598399 0
    endloop
  endfacet
  facet normal 0 0 -1
    outer loop
      vertex 1.2628553268047962 -3.048802457287246 0
      vertex 1.5556092315257921 2.9103401723495717 0
      vertex 1.5556092315257921 -2.9103401723495717 0
    endloop
  endfacet
  facet normal 0 0 -1
    outer loop
      vertex 1.2628553268047962 -3.048802457287246 0
      vertex 1.2628553268047962 3.048802457287246 0
      vertex 1.5556092315257921 2.9103401723495717 0
    endloop
  endfacet
  facet normal 0 0 -1
    outer loop
      vertex 0.9579394349397257 -3.157903107916289 0
      vertex 1.2628553268047962 3.048802457287246 0
      vertex 1.2628553268047962 -3.048802457287246 0
    endloop
  endfacet
  facet normal 0 0 -1
    outer loop
      vertex 0.9579394349397257 -3.157903107916289 0
      vertex 0.9579394349397257 3.157903107916289 0
      vertex 1.2628553268047962 3.048802457287246 0
    endloop
  endfacet
  facet normal 0 0 -1
    outer loop
      vertex 0.6437980626532231 -3.2365914253306602 0
      vertex 0.9579394349397257 3.157903107916289 0
      vertex 0.9579394349397257 -3.157903107916289 0
    endloop
  endfacet
  facet normal 0 0 -1
    outer loop
      vertex 0.6437980626532231 -3.2365914253306602 0
      vertex 0.6437980626532231 3.2365914253306602 0
      vertex 0.9579394349397257 3.157903107916289 0
    endloop
  endfacet
  facet normal 0 0 -1
    outer loop
      vertex 0.32345656308755 -3.2841095980182495 0
      vertex 0.6437980626532231 3.2365914253306602 0
      vertex 0.6437980626532231 -3.2365914253306602 0
    endloop
  endfacet
  facet normal 0 0 -1
    outer loop
      vertex 0.32345656308755 -3.2841095980182495 0
      vertex 0.32345656308755 3.2841095980182495 0
      vertex 0.6437980626532231 3.2365914253306602 0
    endloop
  endfacet
  facet normal 0 0 -1
    outer loop
      vertex 0 -3.3 0
      vertex 0.32345656308755 3.2841095980182495 0
      vertex 0.32345656308755 -3.2841095980182495 0
    endloop
  endfacet
  facet normal 0 0 -1
    outer loop
      vertex 0 -3.3 0
      vertex 0 3.3 0
      vertex 0.32345656308755 3.2841095980182495 0
    endloop
  endfacet
  facet normal 0 0 -1
    outer loop
      vertex -0.32345656308755 -3.2841095980182495 0
      vertex 0 3.3 0
      vertex 0 -3.3 0
    endloop
  endfacet
  facet normal 0 0 -1
    outer loop
      vertex -0.32345656308755 -3.2841095980182495 0
      vertex -0.32345656308755 3.2841095980182495 0
      vertex 0 3.3 0
    endloop
  endfacet
  facet normal 0 0 -1
    outer loop
      vertex -0.6437980626532231 -3.2365914253306602 0
      vertex -0.32345656308755 3.2841095980182495 0
      vertex -0.32345656308755 -3.2841095980182495 0
    endloop
  endfacet
  facet normal 0 0 -1
    outer loop
      vertex -0.6437980626532231 -3.2365914253306602 0
      vertex -0.6437980626532231 3.2365914253306602 0
      vertex -0.32345656308755 3.2841095980182495 0
    endloop
  endfacet
  facet normal 0 0 -1
    outer loop
      vertex -0.9579394349397257 -3.157903107916289 0
      vertex -0.6437980626532231 3.2365914253306602 0
      vertex -0.6437980626532231 -3.2365914253306602 0
    endloop
  endfacet
  facet normal 0 0 -1
    outer loop
      vertex -0.9579394349397257 -3.157903107916289 0
      vertex -0.9579394349397257 3.157903107916289 0
      vertex -0.6437980626532231 3.2365914253306602 0
    endloop
  endfacet
  facet normal 0 0 -1
    outer loop
      vertex -1.2628553268047962 -3.048802457287246 0
      vertex -0.9579394349397257 3.157903107916289 0
      vertex -0.9579394349397257 -3.157903107916289 0
    endloop
  endfacet
  facet normal 0 0 -1
    outer loop
      vertex -1.2628553268047962 -3.048802457287246 0
      vertex -1.2628553268047962 3.048802457287246 0
      vertex -0.9579394349397257 3.157903107916289 0
    endloop
  endfacet
  facet normal 0 0 -1
    outer loop
      vertex -1.5556092315257921 -2.9103401723495717 0
      vertex -1.2628553268047962 3.048802457287246 0
      vertex -1.2628553268047962 -3.048802457287246 0
    endloop
  endfacet
  facet normal 0 0 -1
    outer loop
      vertex -1.5556092315257921 -2.9103401723495717 0
      vertex -1.5556092315257921 2.9103401723495717 0
      vertex -1.2628553268047962 3.048802457287246 0
    endloop
  endfacet
  facet normal 0 0 -1
    outer loop
      vertex -1.8333817689646872 -2.743849720598399 0
      vertex -1.5556092315257921 2.9103401723495717 0
      vertex -1.5556092315257921 -2.9103401723495717 0
    endloop
  endfacet
  facet normal 0 0 -1
    outer loop
      vertex -1.8333817689646872 -2.743849720598399 0
      vertex -1.8333817689646872 2.743849720598399 0
      vertex -1.5556092315257921 2.9103401723495717 0
    endloop
  endfacet
  facet normal 0 0 -1
    outer loop
      vertex -2.09349783774003 -2.550934496097032 0
      vertex -1.8333817689646872 2.743849720598399 0
      vertex -1.8333817689646872 -2.743849720598399 0
    endloop
  endfacet
  facet normal 0 0 -1
    outer loop
      vertex -2.09349783774003 -2.550934496097032 0
      vertex -2.09349783774003 2.550934496097032 0
      vertex -1.8333817689646872 2.743849720598399 0
    endloop
  endfacet
  facet normal 0 0 -1
    outer loop
      vertex -2.3334523779156067 -2.3334523779156067 0
      vertex -2.09349783774003 2.550934496097032 0
      vertex -2.09349783774003 -2.550934496097032 0
    endloop
  endfacet
  facet normal 0 0 -1
    outer loop
      vertex -2.3334523779156067 -2.3334523779156067 0
      vertex -2.3334523779156067 2.3334523779156067 0
      vertex -2.09349783774003 2.550934496097032 0
    endloop
  endfacet
  facet normal 0 0 -1
    outer loop
      vertex -2.550934496097032 -2.09349783774003 0
      vertex -2.3334523779156067 2.3334523779156067 0
      vertex -2.3334523779156067 -2.3334523779156067 0
    endloop
  endfacet
  facet normal 0 0 -1
    outer loop
      vertex -2.550934496097032 -2.09349783774003 0
      vertex -2.550934496097032 2.09349783774003 0
      vertex -2.3334523779156067 2.3334523779156067 0
    endloop
  endfacet
  facet normal 0 0 -1
    outer loop
      vertex -2.743849720598399 -1.8333817689646872 0
      vertex -2.550934496097032 2.09349783774003 0
      vertex -2.550934496097032 -2.09349783774003 0
    endloop
  endfacet
  facet normal 0 0 -1
    outer loop
      vertex -2.743849720598399 -1.8333817689646872 0
      vertex -2.743849720598399 1.8333817689646872 0
      vertex -2.550934496097032 2.09349783774003 0
    endloop
  endfacet
  facet normal 0 0 -1
    outer loop
      vertex -2.9103401723495717 -1.5556092315257921 0
      vertex -2.743849720598399 1.8333817689646872 0
      vertex -2.743849720598399 -1.8333817689646872 0
    endloop
  endfacet
  facet normal 0 0 -1
    outer loop
      vertex -2.9103401723495717 -1.5556092315257921 0
      vertex -2.9103401723495717 1.5556092315257921 0
      vertex -2.743849720598399 1.8333817689646872 0
    endloop
  endfacet
  facet normal 0 0 -1
    outer loop
      vertex -3.048802457287246 -1.2628553268047962 0
      vertex -2.9103401723495717 1.5556092315257921 0
      vertex -2.9103401723495717 -1.5556092315257921 0
    endloop
  endfacet
  facet normal 0 0 -1
    outer loop
      vertex -3.048802457287246 -1.2628553268047962 0
      vertex -3.048802457287246 1.2628553268047962 0
      vertex -2.9103401723495717 1.5556092315257921 0
    endloop
  endfacet
  facet normal 0 0 -1
    outer loop
      vertex -3.157903107916289 -0.9579394349397257 0
      vertex -3.048802457287246 1.2628553268047962 0
      vertex -3.048802457287246 -1.2628553268047962 0
    endloop
  endfacet
  facet normal 0 0 -1
    outer loop
      vertex -3.157903107916289 -0.9579394349397257 0
      vertex -3.157903107916289 0.9579394349397257 0
      vertex -3.048802457287246 1.2628553268047962 0
    endloop
  endfacet
  facet normal 0 0 -1
    outer loop
      vertex -3.2365914253306602 -0.6437980626532231 0
      vertex -3.157903107916289 0.9579394349397257 0
      vertex -3.157903107916289 -0.9579394349397257 0
    endloop
  endfacet
  facet normal 0 0 -1
    outer loop
      vertex -3.2365914253306602 -0.6437980626532231 0
      vertex -3.2365914253306602 0.6437980626532231 0
      vertex -3.157903107916289 0.9579394349397257 0
    endloop
  endfacet
  facet normal 0 0 -1
    outer loop
      vertex -3.2841095980182495 -0.32345656308755 0
      vertex -3.2365914253306602 0.6437980626532231 0
      vertex -3.2365914253306602 -0.6437980626532231 0
    endloop
  endfacet
  facet normal 0 0 -1
    outer loop
      vertex -3.2841095980182495 -0.32345656308755 0
      vertex -3.2841095980182495 0.32345656308755 0
      vertex -3.2365914253306602 0.6437980626532231 0
    endloop
  endfacet
  facet normal 0 0 -1
    outer loop
      vertex -3.2841095980182495 0.32345656308755 0
      vertex -3.2841095980182495 -0.32345656308755 0
      vertex -3.3 0 0
    endloop
  endfacet
  facet normal 0 0 1
    outer loop
      vertex 3.2841095980182495 0.32345656308755 0.5
      vertex 3.2841095980182495 -0.32345656308755 0.5
      vertex 3.3 0 0.5
    endloop
  endfacet
  facet normal 0 0 1
    outer loop
      vertex 3.2365914253306602 0.6437980626532231 0.5
      vertex 3.2841095980182495 -0.32345656308755 0.5
      vertex 3.2841095980182495 0.32345656308755 0.5
    endloop
  endfacet
  facet normal 0 0 1
    outer loop
      vertex 3.2365914253306602 0.6437980626532231 0.5
      vertex 3.2365914253306602 -0.6437980626532231 0.5
      vertex 3.2841095980182495 -0.32345656308755 0.5
    endloop
  endfacet
  facet normal 0 0 1
    outer loop
      vertex 3.157903107916289 0.9579394349397257 0.5
      vertex 3.2365914253306602 -0.6437980626532231 0.5
      vertex 3.2365914253306602 0.6437980626532231 0.5
    endloop
  endfacet
  facet normal 0 0 1
    outer loop
      vertex 3.157903107916289 0.9579394349397257 0.5
      vertex 3.157903107916289 -0.9579394349397257 0.5
      vertex 3.2365914253306602 -0.6437980626532231 0.5
    endloop
  endfacet
  facet normal 0 0 1
    outer loop
      vertex 3.048802457287246 1.2628553268047962 0.5
      vertex 3.157903107916289 -0.9579394349397257 0.5
      vertex 3.157903107916289 0.9579394349397257 0.5
    endloop
  endfacet
  facet normal 0 0 1
    outer loop
      vertex 3.048802457287246 1.2628553268047962 0.5
      vertex 3.048802457287246 -1.2628553268047962 0.5
      vertex 3.157903107916289 -0.9579394349397257 0.5
    endloop
  endfacet
  facet normal 0 0 1
    outer loop
      vertex 2.9103401723495717 1.5556092315257921 0.5
      vertex 3.048802457287246 -1.2628553268047962 0.5
      vertex 3.048802457287246 1.2628553268047962 0.5
    endloop
  endfacet
  facet normal 0 0 1
    outer loop
      vertex 2.9103401723495717 1.5556092315257921 0.5
      vertex 2.9103401723495717 -1.5556092315257921 0.5
      vertex 3.048802457287246 -1.2628553268047962 0.5
    endloop
  endfacet
  facet normal 0 0 1
    outer loop
      vertex 2.743849720598399 1.8333817689646872 0.5
      vertex 2.9103401723495717 -1.5556092315257921 0.5
      vertex 2.9103401723495717 1.5556092315257921 0.5
    endloop
  endfacet
  facet normal 0 0 1
    outer loop
      vertex 2.743849720598399 1.8333817689646872 0.5
      vertex 2.743849720598399 -1.8333817689646872 0.5
      vertex 2.9103401723495717 -1.5556092315257921 0.5
    endloop
  endfacet
  facet normal 0 0 1
    outer loop
      vertex 2.550934496097032 2.09349783774003 0.5
      vertex 2.743849720598399 -1.8333817689646872 0.5
      vertex 2.743849720598399 1.8333817689646872 0.5
    endloop
  endfacet
  facet normal 0 0 1
    outer loop
      vertex 2.550934496097032 2.09349783774003 0.5
      vertex 2.550934496097032 -2.09349783774003 0.5
      vertex 2.743849720598399 -1.8333817689646872 0.5
    endloop
  endfacet
  facet normal 0 0 1
    outer loop
      vertex 2.3334523779156067 2.3334523779156067 0.5
      vertex 2.550934496097032 -2.09349783774003 0.5
      vertex 2.550934496097032 2.09349783774003 0.5
    endloop
  endfacet
  facet normal 0 0 1
    outer loop
      vertex 2.3334523779156067 2.3334523779156067 0.5
      vertex 2.3334523779156067 -2.3334523779156067 0.5
      vertex 2.550934496097032 -2.09349783774003 0.5
    endloop
  endfacet
  facet normal 0 0 1
    outer loop
      vertex 2.09349783774003 2.550934496097032 0.5
      vertex 2.3334523779156067 -2.3334523779156067 0.5
      vertex 2.3334523779156067 2.3334523779156067 0.5
    endloop
  endfacet
  facet normal 0 0 1
    outer loop
      vertex 2.09349783774003 2.550934496097032 0.5
      vertex 2.09349783774003 -2.550934496097032 0.5
      vertex 2.3334523779156067 -2.3334523779156067 0.5
    endloop
  endfacet
  facet normal 0 0 1
    outer loop
      vertex 1.8333817689646872 2.743849720598399 0.5
      vertex 2.09349783774003 -2.550934496097032 0.5
      vertex 2.09349783774003 2.550934496097032 0.5
    endloop
  endfacet
  facet normal 0 0 1
    outer loop
      vertex 1.8333817689646872 2.743849720598399 0.5
      vertex 1.8333817689646872 -2.743849720598399 0.5
      vertex 2.09349783774003 -2.550934496097032 0.5
    endloop
  endfacet
  facet normal 0 0 1
    outer loop
      vertex 1.5556092315257921 2.9103401723495717 0.5
      vertex 1.8333817689646872 -2.743849720598399 0.5
      vertex 1.8333817689646872 2.743849720598399 0.5
    endloop
  endfacet
  facet normal 0 0 1
    outer loop
      vertex 1.5556092315257921 2.9103401723495717 0.5
      vertex 1.5556092315257921 -2.9103401723495717 0.5
      vertex 1.8333817689646872 -2.743849720598399 0.5
    endloop
  endfacet
  facet normal 0 0 1
    outer loop
      vertex 1.2628553268047962 3.048802457287246 0.5
      vertex 1.5556092315257921 -2.9103401723495717 0.5
      vertex 1.5556092315257921 2.9103401723495717 0.5
    endloop
  endfacet
  facet normal 0 0 1
    outer loop
      vertex 1.2628553268047962 3.048802457287246 0.5
      vertex 1.2628553268047962 -3.048802457287246 0.5
      vertex 1.5556092315257921 -2.9103401723495717 0.5
    endloop
  endfacet
  facet normal 0 0 1
    outer loop
      vertex 0.9579394349397257 3.157903107916289 0.5
      vertex 1.2628553268047962 -3.048802457287246 0.5
      vertex 1.2628553268047962 3.048802457287246 0.5
    endloop
  endfacet
  facet normal 0 0 1
    outer loop
      vertex 0.9579394349397257 3.157903107916289 0.5
      vertex 0.9579394349397257 -3.157903107916289 0.5
      vertex 1.2628553268047962 -3.048802457287246 0.5
    endloop
  endfacet
  facet normal 0 0 1
    outer loop
      vertex 0.6437980626532231 3.2365914253306602 0.5
      vertex 0.9579394349397257 -3.157903107916289 0.5
      vertex 0.9579394349397257 3.157903107916289 0.5
    endloop
  endfacet
  facet normal 0 0 1
    outer loop
      vertex 0.6437980626532231 3.2365914253306602 0.5
      vertex 0.6437980626532231 -3.2365914253306602 0.5
      vertex 0.9579394349397257 -3.157903107916289 0.5
    endloop
  endfacet
  facet normal 0 0 1
    outer loop
      vertex 0.32345656308755 3.2841095980182495 0.5
      vertex 0.6437980626532231 -3.2365914253306602 0.5
      vertex 0.6437980626532231 3.2365914253306602 0.5
    endloop
  endfacet
  facet normal 0 0 1
    outer loop
      vertex 0.32345656308755 3.2841095980182495 0.5
      vertex 0.32345656308755 -3.2841095980182495 0.5
      vertex 0.6437980626532231 -3.2365914253306602 0.5
    endloop
  endfacet
  facet normal 0 0 1
    outer loop
      vertex 0 3.3 0.5
      vertex 0.32345656308755 -3.2841095980182495 0.5
      vertex 0.32345656308755 3.2841095980182495 0.5
    endloop
  endfacet
  facet normal 0 0 1
    outer loop
      vertex 0 3.3 0.5
      vertex 0 -3.3 0.5
      vertex 0.32345656308755 -3.2841095980182495 0.5
    endloop
  endfacet
  facet normal 0 0 1
    outer loop
      vertex -0.32345656308755 3.2841095980182495 0.5
      vertex 0 -3.3 0.5
      vertex 0 3.3 0.5
    endloop
  endfacet
  facet normal 0 0 1
    outer loop
      vertex -0.32345656308755 3.2841095980182495 0.5
      vertex -0.32345656308755 -3.2841095980182495 0.5
      vertex 0 -3.3 0.5
    endloop
  endfacet
  facet normal 0 0 1
    outer loop
      vertex -0.6437980626532231 3.2365914253306602 0.5
      vertex -0.32345656308755 -3.2841095980182495 0.5
      vertex -0.32345656308755 3.2841095980182495 0.5
    endloop
  endfacet
  facet normal 0 0 1
    outer loop
      vertex -0.6437980626532231 3.2365914253306602 0.5
      vertex -0.6437980626532231 -3.2365914253306602 0.5
      vertex -0.32345656308755 -3.2841095980182495 0.5
    endloop
  endfacet
  facet normal 0 0 1
    outer loop
      vertex -0.9579394349397257 3.157903107916289 0.5
      vertex -0.6437980626532231 -3.2365914253306602 0.5
      vertex -0.6437980626532231 3.2365914253306602 0.5
    endloop
  endfacet
  facet normal 0 0 1
    outer loop
      vertex -0.9579394349397257 3.157903107916289 0.5
      vertex -0.9579394349397257 -3.157903107916289 0.5
      vertex -0.6437980626532231 -3.2365914253306602 0.5
    endloop
  endfacet
  facet normal 0 0 1
    outer loop
      vertex -1.2628553268047962 3.048802457287246 0.5
      vertex -0.9579394349397257 -3.157903107916289 0.5
      vertex -0.9579394349397257 3.157903107916289 0.5
    endloop
  endfacet
  facet normal 0 0 1
    outer loop
      vertex -1.2628553268047962 3.048802457287246 0.5
      vertex -1.2628553268047962 -3.048802457287246 0.5
      vertex -0.9579394349397257 -3.157903107916289 0.5
    endloop
  endfacet
  facet normal 0 0 1
    outer loop
      vertex -1.5556092315257921 2.9103401723495717 0.5
      vertex -1.2628553268047962 -3.048802457287246 0.5
      vertex -1.2628553268047962 3.048802457287246 0.5
    endloop
  endfacet
  facet normal 0 0 1
    outer loop
      vertex -1.5556092315257921 2.9103401723495717 0.5
      vertex -1.5556092315257921 -2.9103401723495717 0.5
      vertex -1.2628553268047962 -3.048802457287246 0.5
    endloop
  endfacet
  facet normal 0 0 1
    outer loop
      vertex -1.8333817689646872 2.743849720598399 0.5
      vertex -1.5556092315257921 -2.9103401723495717 0.5
      vertex -1.5556092315257921 2.9103401723495717 0.5
    endloop
  endfacet
  facet normal 0 0 1
    outer loop
      vertex -1.8333817689646872 2.743849720598399 0.5
      vertex -1.8333817689646872 -2.743849720598399 0.5
      vertex -1.5556092315257921 -2.9103401723495717 0.5
    endloop
  endfacet
  facet normal 0 0 1
    outer loop
      vertex -2.09349783774003 2.550934496097032 0.5
      vertex -1.8333817689646872 -2.743849720598399 0.5
      vertex -1.8333817689646872 2.743849720598399 0.5
    endloop
  endfacet
  facet normal 0 0 1
    outer loop
      vertex -2.09349783774003 2.550934496097032 0.5
      vertex -2.09349783774003 -2.550934496097032 0.5
      vertex -1.8333817689646872 -2.743849720598399 0.5
    endloop
  endfacet
  facet normal 0 0 1
    outer loop
      vertex -2.3334523779156067 2.3334523779156067 0.5
      vertex -2.09349783774003 -2.550934496097032 0.5
      vertex -2.09349783774003 2.550934496097032 0.5
    endloop
  endfacet
  facet normal 0 0 1
    outer loop
      vertex -2.3334523779156067 2.3334523779156067 0.5
      vertex -2.3334523779156067 -2.3334523779156067 0.5
      vertex -2.09349783774003 -2.550934496097032 0.5
    endloop
  endfacet
  facet normal 0 0 1
    outer loop
      vertex -2.550934496097032 2.09349783774003 0.5
      vertex -2.3334523779156067 -2.3334523779156067 0.5
      vertex -2.3334523779156067 2.3334523779156067 0.5
    endloop
  endfacet
  facet normal 0 0 1
    outer loop
      vertex -2.550934496097032 2.09349783774003 0.5
      vertex -2.550934496097032 -2.09349783774003 0.5
      vertex -2.3334523779156067 -2.3334523779156067 0.5
    endloop
  endfacet
  facet normal 0 0 1
    outer loop
      vertex -2.743849720598399 1.8333817689646872 0.5
      vertex -2.550934496097032 -2.09349783774003 0.5
      vertex -2.550934496097032 2.09349783774003 0.5
    endloop
  endfacet
  facet normal 0 0 1
    outer loop
      vertex -2.743849720598399 1.8333817689646872 0.5
      vertex -2.743849720598399 -1.8333817689646872 0.5
      vertex -2.550934496097032 -2.09349783774003 0.5
    endloop
  endfacet
  facet normal 0 0 1
    outer loop
      vertex -2.9103401723495717 1.5556092315257921 0.5
      vertex -2.743849720598399 -1.8333817689646872 0.5
      vertex -2.743849720598399 1.8333817689646872 0.5
    endloop
  endfacet
  facet normal 0 0 1
    outer loop
      vertex -2.9103401723495717 1.5556092315257921 0.5
      vertex -2.9103401723495717 -1.5556092315257921 0.5
      vertex -2.743849720598399 -1.8333817689646872 0.5
    endloop
  endfacet
  facet normal 0 0 1
    outer loop
      vertex -3.048802457287246 1.2628553268047962 0.5
      vertex -2.9103401723495717 -1.5556092315257921 0.5
      vertex -2.9103401723495717 1.5556092315257921 0.5
    endloop
  endfacet
  facet normal 0 0 1
    outer loop
      vertex -3.048802457287246 1.2628553268047962 0.5
      vertex -3.048802457287246 -1.2628553268047962 0.5
      vertex -2.9103401723495717 -1.5556092315257921 0.5
    endloop
  endfacet
  facet normal 0 0 1
    outer loop
      vertex -3.157903107916289 0.9579394349397257 0.5
      vertex -3.048802457287246 -1.2628553268047962 0.5
      vertex -3.048802457287246 1.2628553268047962 0.5
    endloop
  endfacet
  facet normal 0 0 1
    outer loop
      vertex -3.157903107916289 0.9579394349397257 0.5
      vertex -3.157903107916289 -0.9579394349397257 0.5
      vertex -3.048802457287246 -1.2628553268047962 0.5
    endloop
  endfacet
  facet normal 0 0 1
    outer loop
      vertex -3.2365914253306602 0.6437980626532231 0.5
      vertex -3.157903107916289 -0.9579394349397257 0.5
      vertex -3.157903107916289 0.9579394349397257 0.5
    endloop
  endfacet
  facet normal 0 0 1
    outer loop
      vertex -3.2365914253306602 0.6437980626532231 0.5
      vertex -3.2365914253306602 -0.6437980626532231 0.5
      vertex -3.157903107916289 -0.9579394349397257 0.5
    endloop
  endfacet
  facet normal 0 0 1
    outer loop
      vertex -3.2841095980182495 0.32345656308755 0.5
      vertex -3.2365914253306602 -0.6437980626532231 0.5
      vertex -3.2365914253306602 0.6437980626532231 0.5
    endloop
  endfacet
  facet normal 0 0 1
    outer loop
      vertex -3.2841095980182495 0.32345656308755 0.5
      vertex -3.2841095980182495 -0.32345656308755 0.5
      vertex -3.2365914253306602 -0.6437980626532231 0.5
    endloop
  endfacet
  facet normal 0 0 1
    outer loop
      vertex -3.2841095980182495 -0.32345656308755 0.5
      vertex -3.2841095980182495 0.32345656308755 0.5
      vertex -3.3 0 0.5
    endloop
  endfacet
endsolid OpenSCAD_Model
