M48
; DRILL file {tscircuit} date 2026-10-06T14:53:50.339Z
; FORMAT={-:-/ absolute / metric / decimal}
; #@! TF.CreationDate,2026-10-06T14:53:50.339Z
; #@! TF.GenerationSoftware,tscircuit
; #@! TF.FileFunction,Plated,1,2,PTH
FMAT,2
METRIC
; #@! TA.AperFunction,Plated,PTH,ComponentDrill
T10C0.599999
; #@! TA.AperFunction,Plated,PTH,ComponentDrill
T11C0.300000
%
G90
G05
T10
X-4.3199Y22.9602G85X-4.3199Y22.1602
G05
X4.3199Y22.9602G85X4.3199Y22.1602
G05
X4.3199Y27.1602G85X4.3199Y25.9602
G05
X-4.3199Y27.1602G85X-4.3199Y25.9602
G05
T11
X-3.6000Y20.1000
X-2.0000Y19.8000
X-0.8000Y19.9000
X0.8000Y19.9000
X2.0000Y19.8000
X3.6000Y19.8000
X-6.0000Y19.0000
X-1.9999Y10.2000
X-0.9998Y10.2000
X-0.0003Y10.2000
X0.9998Y10.2000
X1.9999Y10.2000
X1.9999Y15.8000
X0.9998Y15.8000
X-0.0003Y15.8000
X-1.9999Y15.8000
X-2.5000Y13.0000
X6.2534Y7.5000
X4.7466Y7.5000
X8.1349Y14.7830
X3.9328Y14.7942
X3.8000Y9.8000
X5.2000Y13.2000
X-7.4000Y16.0000
X0.2466Y17.8000
X1.7534Y18.2000
X-8.4000Y13.4000
X-9.5000Y-4.3751
X9.2000Y-8.0000
X13.0000Y-8.0000
X10.5000Y-5.5000
X14.0000Y-3.5000
X14.2001Y19.0000
X13.2001Y19.0000
X12.2001Y19.0000
X17.3000Y14.8002
X9.3000Y16.0000
X12.3151Y13.3000
X-1.5000Y3.3000
X3.0000Y1.5000
X2.0000Y3.0000
X-7.5000Y6.0000
X-13.0000Y3.0000
X-8.0000Y4.8000
X-7.8000Y0.0000
X-7.5000Y8.5000
X-15.0000Y-3.0000
X-7.9000Y1.0000
X-20.1000Y0.0000
X-16.5000Y4.5000
X2.0000Y4.8000
X2.3000Y6.0000
X-2.0000Y7.2000
X-2.3000Y6.0000
X-2.0000Y4.8000
X0.8000Y9.4000
X3.2000Y8.5000
X-5.2534Y4.4000
X5.2534Y4.1000
X9.0000Y3.5000
X11.0000Y6.9500
X-4.5000Y14.6000
X7.2499Y24.0000
X16.0000Y2.7501
X-16.0000Y-3.4000
X4.9580Y-5.5420
X-4.2466Y17.4000
X-3.4000Y7.2000
X6.1000Y10.5000
X10.1000Y7.7600
X-6.1850Y0.3740
X-1.2860Y-11.8900
X6.3589Y-13.0516
X-6.6437Y12.0593
X-3.4565Y23.8947
X6.3350Y-6.3250
X-2.6180Y-4.6170
X-12.0651Y5.3343
X-15.4474Y0.4637
X-16.8500Y2.1000
X-5.3050Y7.5430
X-4.3552Y7.4780
X5.6000Y19.0790
X2.8216Y16.6218
X-8.6791Y14.6020
X-16.7400Y-1.6560
X-6.4530Y10.8167
X3.3300Y23.0530
X3.4860Y6.9600
X5.8790Y22.9990
X-1.8000Y0.6000
X4.7121Y10.3600
X-6.9911Y-2.3150
X6.2600Y15.5922
X-18.1650Y1.0200
X13.8020Y-10.3160
X-18.7452Y10.0711
M30