%TF.GenerationSoftware,tscircuit,circuit-json-to-gerber,0.0.109*%
%TF.CreationDate,2026-10-06T15:17:40.941Z*%
%TF.SameCoordinates,Original*%
%TF.FileFunction,Other,Fab,Top*%
%TF.FilePolarity,Positive*%
%FSLAX46Y46*%
%MOMM*%
G04 Gerber Fmt 4.6, Leading zero omitted, Abs format (unit mm)*
G04 Created by tscircuit (builder) date 2026-10-06T15:17:40.941Z*
G01*
%LPD*%
G75*
G04 APERTURE MACROS START*
%AMHORZPILL*
0 Horizontal pill (stadium) shape macro*
0 Parameters:*
0 $1 = Total width*
0 $2 = Total height*
0 $3 = Circle diameter (equal to height)*
0 $4 = Circle center offset
0 21 = Center Line(Exposure, Width, Height, Center X, Center Y, Rotation)*
0 1 = Circle(Exposure, Diameter, Center X, Center Y, Rotation)*
21,1,$1-$3,$2,0.0,0.0,0.0*
1,1,$3,0.0-$4,0.0*
1,1,$3,$4,0.0*%
%AMVERTPILL*
0 Vertical pill (stadium) shape macro*
0 Parameters:*
0 $1 = Total width*
0 $2 = Total height*
0 $3 = Circle diameter (equal to width)*
0 $4 = Circle center offset
0 21 = Center Line(Exposure, Width, Height, Center X, Center Y, Rotation)*
21,1,$1,$2-$3,0.0,0.0,0.0*
1,1,$3,0.0,0.0-$4*
1,1,$3,0.0,$4*%
%AMROUNDRECT*
0 Rectangle with rounded corners*
0 $1 Corner radius*
0 $2 $3 $4 $5 $6 $7 $8 $9 X,Y Position of each corner*
0 Polygon box body*
4,1,4,$2,$3,$4,$5,$6,$7,$8,$9,$2,$3,0*
0 Circles for rounded corners*
1,1,$1+$1,$2,$3*
1,1,$1+$1,$4,$5*
1,1,$1+$1,$6,$7*
1,1,$1+$1,$8,$9*
0 Rectangles between the rounded corners*
20,1,$1+$1,$2,$3,$4,$5,0*
20,1,$1+$1,$4,$5,$6,$7,0*
20,1,$1+$1,$6,$7,$8,$9,0*
20,1,$1+$1,$8,$9,$2,$3,0*%
G04 APERTURE MACROS END*
G04 aperture START LIST*
%ADD10C,0.150000*%
%ADD11C,0.500000*%
%ADD12C,0.300000*%
%ADD13C,0.600000*%
%ADD14C,0.200000*%
%ADD15C,0.400000*%
%ADD16C,0.196429*%
%ADD17C,0.250000*%
%ADD18C,0.225000*%
%ADD19C,0.262500*%
%ADD20C,0.175000*%
%ADD21C,0.162500*%
%ADD22C,0.254000*%
%ADD23C,0.080000*%
%ADD24C,0.050000*%
%ADD25C,0.010800*%
%TD*%
G04 aperture END LIST*
D22*
X-04526991Y028460242D02*
X-04489794Y028550044D01*
X-04399991Y028587242D01*
X004399991Y028587242D01*
X004489794Y028550044D01*
X004526991Y028460242D01*
X004526991Y023560252D01*
X004489794Y023470449D01*
X004399991Y023433252D01*
X004272991Y028333242D01*
X-04399991Y023433252D01*
X-04526991Y028460242D01*
D22*
X006973535Y026143967D02*
X007581789Y026143967D01*
X007581789Y025990221D01*
X006970817Y025990221D01*
X006970817Y025996901D01*
X006973535Y026143967D01*
D22*
X008461823Y026131978D02*
X009070077Y026131978D01*
X009070077Y025978232D01*
X008459105Y025978232D01*
X008459105Y025984912D01*
X008461823Y026131978D01*
D22*
X008691617Y025736373D02*
X008691617Y026344627D01*
X008845363Y026344627D01*
X008845363Y025733656D01*
X008838683Y025733656D01*
X008691617Y025736373D01*
D22*
X007899984Y-18924983D02*
X007899984Y-26824967D01*
X-07899984Y-26824967D01*
X-07899984Y-18924983D01*
X-07799984Y-18924983D01*
X-07799984Y-26724968D01*
X007799984Y-26724968D01*
X007799984Y-18924983D01*
X007899984Y-18924983D01*
D22*
X-20026465Y-04856033D02*
X-19418211Y-04856033D01*
X-19418211Y-05009779D01*
X-20029183Y-05009779D01*
X-20029183Y-05003099D01*
X-20026465Y-04856033D01*
D22*
X-18538177Y-04868022D02*
X-17929923Y-04868022D01*
X-17929923Y-05021768D01*
X-18540895Y-05021768D01*
X-18540895Y-05015088D01*
X-18538177Y-04868022D01*
D22*
X-18308383Y-05263627D02*
X-18308383Y-04655373D01*
X-18154637Y-04655373D01*
X-18154637Y-05266344D01*
X-18161317Y-05266344D01*
X-18308383Y-05263627D01*
D22*
X021156035Y005099974D02*
X022605994Y005099974D01*
X022605994Y006499972D01*
X021005997Y006499972D01*
X021005997Y006299972D01*
X022405994Y006299972D01*
X022405994Y005299974D01*
X021005997Y005299974D01*
X021005997Y005099974D01*
X021156035Y005099974D01*
D22*
X021610999Y004784989D02*
X021981001Y004784989D01*
X021981001Y003565002D01*
X022250978Y003565002D01*
X022250978Y003564976D01*
X021781002Y003095000D01*
X021381002Y003565002D01*
X021620982Y003565002D01*
X021610999Y004784989D01*
D23*
X008750062Y026000000D02*
X008300025Y026000000D01*
D23*
X008300025Y026225019D02*
X007699975Y026000000D01*
X008300025Y025774981D01*
X008300025Y026225019D01*
D23*
X007699975Y026225019D02*
X007699975Y025774981D01*
D23*
X007699975Y026000000D02*
X007249938Y026000000D01*
D24*
X020949947Y-10624888D02*
X020949947Y-06375112D01*
D25*
X020867661Y-09617556D02*
X020810711Y-09617556D01*
X020810711Y-09617556D02*
X020847797Y-09595838D01*
X020847797Y-09595838D02*
X020810711Y-09574120D01*
X020810711Y-09574120D02*
X020867661Y-09574120D01*
X020867661Y-09536560D02*
X020810711Y-09513703D01*
X020810711Y-09513703D02*
X020867661Y-09489023D01*
X020845447Y-09525033D02*
X020845447Y-09501660D01*
X020867253Y-09452099D02*
X020812186Y-09452099D01*
X020812186Y-09452099D02*
X020810711Y-09435953D01*
X020810711Y-09435953D02*
X020811204Y-09424621D01*
X020811204Y-09424621D02*
X020812719Y-09417784D01*
X020812719Y-09417784D02*
X020813955Y-09414910D01*
X020813955Y-09414910D02*
X020815563Y-09412544D01*
X020815563Y-09412544D02*
X020817584Y-09410796D01*
X020817584Y-09410796D02*
X020823064Y-09409255D01*
X020823064Y-09409255D02*
X020827925Y-09409400D01*
X020827925Y-09409400D02*
X020831444Y-09410977D01*
X020831444Y-09410977D02*
X020833855Y-09413808D01*
X020833855Y-09413808D02*
X020835390Y-09417713D01*
X020835390Y-09417713D02*
X020836561Y-09425195D01*
X020836561Y-09425195D02*
X020837476Y-09451029D01*
X020839801Y-09429575D02*
X020867661Y-09407392D01*
X020810711Y-09369012D02*
X020867661Y-09369012D01*
X020814508Y-09329796D02*
X020845724Y-09369012D01*
X020836866Y-09354137D02*
X020866395Y-09324387D01*
X020810711Y-09282213D02*
X020867661Y-09282213D01*
X020810711Y-09282213D02*
X020810711Y-09245093D01*
X020839186Y-09282213D02*
X020839186Y-09256229D01*
X020867661Y-09282213D02*
X020867661Y-09245093D01*
X020867661Y-09200479D02*
X020811894Y-09199859D01*
X020811894Y-09199859D02*
X020810711Y-09191511D01*
X020810711Y-09191511D02*
X020810848Y-09185116D01*
X020810848Y-09185116D02*
X020813658Y-09174728D01*
X020813658Y-09174728D02*
X020819725Y-09167046D01*
X020819725Y-09167046D02*
X020827894Y-09162654D01*
X020827894Y-09162654D02*
X020836364Y-09160903D01*
X020836364Y-09160903D02*
X020842742Y-09160735D01*
X020842742Y-09160735D02*
X020848207Y-09161536D01*
X020848207Y-09161536D02*
X020852830Y-09163174D01*
X020852830Y-09163174D02*
X020859826Y-09168433D01*
X020859826Y-09168433D02*
X020864279Y-09175455D01*
X020864279Y-09175455D02*
X020867400Y-09186976D01*
X020867400Y-09186976D02*
X020867661Y-09200479D01*
X020810711Y-09014514D02*
X020867661Y-09014514D01*
X020867661Y-08951053D02*
X020810711Y-08951053D01*
X020810711Y-08951053D02*
X020867661Y-08911883D01*
X020867661Y-08911883D02*
X020810711Y-08912652D01*
X020810711Y-08871780D02*
X020810711Y-08825063D01*
X020810711Y-08847728D02*
X020867661Y-08847728D01*
X020810711Y-08783935D02*
X020867661Y-08783935D01*
X020810711Y-08783935D02*
X020810711Y-08746816D01*
X020839186Y-08783935D02*
X020839186Y-08757952D01*
X020867661Y-08783935D02*
X020867661Y-08746816D01*
X020867253Y-08704683D02*
X020812186Y-08704683D01*
X020812186Y-08704683D02*
X020810711Y-08688537D01*
X020810711Y-08688537D02*
X020811204Y-08677204D01*
X020811204Y-08677204D02*
X020812719Y-08670368D01*
X020812719Y-08670368D02*
X020813955Y-08667494D01*
X020813955Y-08667494D02*
X020815563Y-08665128D01*
X020815563Y-08665128D02*
X020817584Y-08663380D01*
X020817584Y-08663380D02*
X020823064Y-08661839D01*
X020823064Y-08661839D02*
X020827925Y-08661983D01*
X020827925Y-08661983D02*
X020831444Y-08663561D01*
X020831444Y-08663561D02*
X020833855Y-08666392D01*
X020833855Y-08666392D02*
X020835390Y-08670297D01*
X020835390Y-08670297D02*
X020836561Y-08677779D01*
X020836561Y-08677779D02*
X020837476Y-08703613D01*
X020839801Y-08682159D02*
X020867661Y-08659976D01*
X020867661Y-08618868D02*
X020810711Y-08618868D01*
X020810711Y-08618868D02*
X020867661Y-08579698D01*
X020867661Y-08579698D02*
X020810711Y-08580467D01*
X020867661Y-08540005D02*
X020810711Y-08517148D01*
X020810711Y-08517148D02*
X020867661Y-08492468D01*
X020845447Y-08528478D02*
X020845447Y-08505105D01*
X020810711Y-08452140D02*
X020867661Y-08452140D01*
X020867661Y-08452140D02*
X020867661Y-08414241D01*
X020810711Y-08369094D02*
X020867661Y-08369094D01*
X020867661Y-08369094D02*
X020867661Y-08331195D01*
X020810711Y-08290867D02*
X020836175Y-08267761D01*
X020810792Y-08243330D02*
X020836336Y-08267608D01*
X020836336Y-08267608D02*
X020867661Y-08266741D01*
X020823214Y-08081851D02*
X020816944Y-08084424D01*
X020816944Y-08084424D02*
X020812504Y-08089144D01*
X020812504Y-08089144D02*
X020809604Y-08098082D01*
X020809604Y-08098082D02*
X020810489Y-08104687D01*
X020810489Y-08104687D02*
X020813462Y-08110508D01*
X020813462Y-08110508D02*
X020820324Y-08116192D01*
X020820324Y-08116192D02*
X020838334Y-08120160D01*
X020838334Y-08120160D02*
X020856440Y-08117046D01*
X020856440Y-08117046D02*
X020863731Y-08112400D01*
X020863731Y-08112400D02*
X020867143Y-08107570D01*
X020867143Y-08107570D02*
X020868689Y-08098160D01*
X020868689Y-08098160D02*
X020866712Y-08089959D01*
X020866712Y-08089959D02*
X020860943Y-08083887D01*
X020860943Y-08083887D02*
X020852801Y-08081851D01*
X020868689Y-08019113D02*
X020866367Y-08026578D01*
X020866367Y-08026578D02*
X020859301Y-08033401D01*
X020859301Y-08033401D02*
X020835319Y-08038447D01*
X020835319Y-08038447D02*
X020817369Y-08033640D01*
X020817369Y-08033640D02*
X020812256Y-08027743D01*
X020812256Y-08027743D02*
X020809604Y-08017533D01*
X020809604Y-08017533D02*
X020812788Y-08007920D01*
X020812788Y-08007920D02*
X020818608Y-08002292D01*
X020818608Y-08002292D02*
X020840472Y-07997472D01*
X020840472Y-07997472D02*
X020854276Y-07999871D01*
X020854276Y-07999871D02*
X020862253Y-08004146D01*
X020862253Y-08004146D02*
X020867687Y-08011739D01*
X020867687Y-08011739D02*
X020868689Y-08019113D01*
X020867661Y-07954498D02*
X020810711Y-07954498D01*
X020810711Y-07954498D02*
X020867661Y-07915328D01*
X020867661Y-07915328D02*
X020810711Y-07916097D01*
X020867661Y-07871452D02*
X020810711Y-07871452D01*
X020810711Y-07871452D02*
X020867661Y-07832282D01*
X020867661Y-07832282D02*
X020810711Y-07833051D01*
X020810711Y-07787380D02*
X020867661Y-07787380D01*
X020810711Y-07787380D02*
X020810711Y-07750261D01*
X020839186Y-07787380D02*
X020839186Y-07761397D01*
X020867661Y-07787380D02*
X020867661Y-07750261D01*
X020823214Y-07666620D02*
X020816944Y-07669193D01*
X020816944Y-07669193D02*
X020812504Y-07673913D01*
X020812504Y-07673913D02*
X020809604Y-07682851D01*
X020809604Y-07682851D02*
X020810489Y-07689456D01*
X020810489Y-07689456D02*
X020813462Y-07695277D01*
X020813462Y-07695277D02*
X020820324Y-07700960D01*
X020820324Y-07700960D02*
X020838334Y-07704929D01*
X020838334Y-07704929D02*
X020856440Y-07701815D01*
X020856440Y-07701815D02*
X020863731Y-07697169D01*
X020863731Y-07697169D02*
X020867143Y-07692339D01*
X020867143Y-07692339D02*
X020868689Y-07682929D01*
X020868689Y-07682929D02*
X020866712Y-07674728D01*
X020866712Y-07674728D02*
X020860943Y-07668656D01*
X020860943Y-07668656D02*
X020852801Y-07666620D01*
X020810711Y-07626087D02*
X020810711Y-07579370D01*
X020810711Y-07602035D02*
X020867661Y-07602035D01*
X020810711Y-07538242D02*
X020867661Y-07538242D01*
X020810711Y-07538242D02*
X020810711Y-07501122D01*
X020839186Y-07538242D02*
X020839186Y-07512258D01*
X020867661Y-07538242D02*
X020867661Y-07501122D01*
X020867661Y-07456508D02*
X020811894Y-07455888D01*
X020811894Y-07455888D02*
X020810711Y-07447540D01*
X020810711Y-07447540D02*
X020810848Y-07441145D01*
X020810848Y-07441145D02*
X020813658Y-07430757D01*
X020813658Y-07430757D02*
X020819725Y-07423075D01*
X020819725Y-07423075D02*
X020827894Y-07418683D01*
X020827894Y-07418683D02*
X020836364Y-07416932D01*
X020836364Y-07416932D02*
X020842742Y-07416764D01*
X020842742Y-07416764D02*
X020848207Y-07417565D01*
X020848207Y-07417565D02*
X020852830Y-07419203D01*
X020852830Y-07419203D02*
X020859826Y-07424462D01*
X020859826Y-07424462D02*
X020864279Y-07431484D01*
X020864279Y-07431484D02*
X020867400Y-07443005D01*
X020867400Y-07443005D02*
X020867661Y-07456508D01*
D23*
X-18249938Y-05000000D02*
X-18699975Y-05000000D01*
D23*
X-18699975Y-04774981D02*
X-19300025Y-05000000D01*
X-18699975Y-05225019D01*
X-18699975Y-04774981D01*
D23*
X-19300025Y-04774981D02*
X-19300025Y-05225019D01*
D23*
X-19300025Y-05000000D02*
X-19750062Y-05000000D01*
M02*