%TF.GenerationSoftware,tscircuit,circuit-json-to-gerber,0.0.109*%
%TF.CreationDate,2026-10-05T21:50:37.830Z*%
%TF.SameCoordinates,Original*%
%TF.FileFunction,Copper,L2,Bot*%
%TF.FilePolarity,Positive*%
%FSLAX46Y46*%
%MOMM*%
G04 Gerber Fmt 4.6, Leading zero omitted, Abs format (unit mm)*
G04 Created by tscircuit (builder) date 2026-10-05T21:50:37.830Z*
G01*
%LPD*%
G75*
G04 APERTURE MACROS START*
%AMHORZPILL*
0 Horizontal pill (stadium) shape macro*
0 Parameters:*
0 $1 = Total width*
0 $2 = Total height*
0 $3 = Circle diameter (equal to height)*
0 $4 = Circle center offset
0 21 = Center Line(Exposure, Width, Height, Center X, Center Y, Rotation)*
0 1 = Circle(Exposure, Diameter, Center X, Center Y, Rotation)*
21,1,$1-$3,$2,0.0,0.0,0.0*
1,1,$3,0.0-$4,0.0*
1,1,$3,$4,0.0*%
%AMVERTPILL*
0 Vertical pill (stadium) shape macro*
0 Parameters:*
0 $1 = Total width*
0 $2 = Total height*
0 $3 = Circle diameter (equal to width)*
0 $4 = Circle center offset
0 21 = Center Line(Exposure, Width, Height, Center X, Center Y, Rotation)*
21,1,$1,$2-$3,0.0,0.0,0.0*
1,1,$3,0.0,0.0-$4*
1,1,$3,0.0,$4*%
%AMROUNDRECT*
0 Rectangle with rounded corners*
0 $1 Corner radius*
0 $2 $3 $4 $5 $6 $7 $8 $9 X,Y Position of each corner*
0 Polygon box body*
4,1,4,$2,$3,$4,$5,$6,$7,$8,$9,$2,$3,0*
0 Circles for rounded corners*
1,1,$1+$1,$2,$3*
1,1,$1+$1,$4,$5*
1,1,$1+$1,$6,$7*
1,1,$1+$1,$8,$9*
0 Rectangles between the rounded corners*
20,1,$1+$1,$2,$3,$4,$5,0*
20,1,$1+$1,$4,$5,$6,$7,0*
20,1,$1+$1,$6,$7,$8,$9,0*
20,1,$1+$1,$8,$9,$2,$3,0*%
G04 APERTURE MACROS END*
G04 aperture START LIST*
%ADD10C,0.150000*%
%ADD11C,0.300000*%
%ADD12C,0.200000*%
%ADD13C,0.212132*%
%ADD14C,0.216921*%
%ADD15C,0.222434*%
%ADD16C,0.227947*%
%ADD17C,0.233460*%
%ADD18C,0.238974*%
%ADD19C,0.244487*%
%ADD20C,0.250000*%
%ADD21C,0.236111*%
%ADD22C,0.222222*%
%ADD23C,0.208333*%
%ADD24C,0.194444*%
%ADD25C,0.180556*%
%ADD26C,0.166667*%
%ADD27C,0.152778*%
%ADD28C,0.162000*%
%ADD29VERTPILL,0.999998X1.799996X0.999998X0.399999*%
%ADD30VERTPILL,0.999998X2.199996X0.999998X0.599999*%
%ADD31C,0.700024*%
%ADD32C,0.900024*%
%ADD33C,2.200000*%
%ADD34C,0.600000*%
%ADD35C,0.001000*%
%TD*%
G04 aperture END LIST*
D35*
G36*
X022700000Y-15800000D02*
G01*
X019200000Y-15800000D01*
G01*
X019200000Y-12200000D01*
G01*
X022700000Y-12200000D01*
G01*
X022700000Y-09858406D01*
G01*
X022661139Y-09890298D01*
G01*
X022548761Y-09950366D01*
G01*
X022426823Y-09987355D01*
G01*
X022300012Y-09999845D01*
G01*
X022173201Y-09987355D01*
G01*
X022051263Y-09950366D01*
G01*
X021938885Y-09890298D01*
G01*
X021840384Y-09809461D01*
G01*
X021759547Y-09710961D01*
G01*
X021699479Y-09598582D01*
G01*
X021662490Y-09476644D01*
G01*
X021650000Y-09349833D01*
G01*
X021662490Y-09223022D01*
G01*
X021699479Y-09101084D01*
G01*
X021759547Y-08988706D01*
G01*
X021840384Y-08890205D01*
G01*
X021938885Y-08809368D01*
G01*
X022051263Y-08749300D01*
G01*
X022173201Y-08712311D01*
G01*
X022300012Y-08699821D01*
G01*
X022426823Y-08712311D01*
G01*
X022548761Y-08749300D01*
G01*
X022661139Y-08809368D01*
G01*
X022700000Y-08841260D01*
G01*
X022700000Y-08158384D01*
G01*
X022661139Y-08190276D01*
G01*
X022548761Y-08250344D01*
G01*
X022426823Y-08287333D01*
G01*
X022300012Y-08299823D01*
G01*
X022173201Y-08287333D01*
G01*
X022051263Y-08250344D01*
G01*
X021938885Y-08190276D01*
G01*
X021840384Y-08109439D01*
G01*
X021759547Y-08010939D01*
G01*
X021699479Y-07898560D01*
G01*
X021662490Y-07776622D01*
G01*
X021650000Y-07649811D01*
G01*
X021662490Y-07523000D01*
G01*
X021699479Y-07401062D01*
G01*
X021759547Y-07288684D01*
G01*
X021840384Y-07190183D01*
G01*
X021938885Y-07109346D01*
G01*
X022051263Y-07049278D01*
G01*
X022173201Y-07012289D01*
G01*
X022300012Y-06999799D01*
G01*
X022426823Y-07012289D01*
G01*
X022548761Y-07049278D01*
G01*
X022661139Y-07109346D01*
G01*
X022700000Y-07141238D01*
G01*
X022700000Y002500130D01*
G01*
X020756164Y002500130D01*
G01*
X020756164Y004500130D01*
G01*
X022700000Y004500130D01*
G01*
X022700000Y005500124D01*
G01*
X020756164Y005500124D01*
G01*
X020756164Y007500124D01*
G01*
X022700000Y007500124D01*
G01*
X022700000Y023200000D01*
G01*
X019200000Y023200000D01*
G01*
X019200000Y026700000D01*
G01*
X-19200000Y026700000D01*
G01*
X-19200000Y023200000D01*
G01*
X-22700000Y023200000D01*
G01*
X-22700000Y-12200000D01*
G01*
X-19200000Y-12200000D01*
G01*
X-19200000Y-15800000D01*
G01*
X-22700000Y-15800000D01*
G01*
X-22700000Y-18700000D01*
G01*
X022700000Y-18700000D01*
G01*
X022700000Y-15800000D01*
G37*
%LPC*%
D35*
G36*
X004746636Y006900000D02*
G01*
X004863690Y006911529D01*
G01*
X004976246Y006945672D01*
G01*
X005079978Y007001118D01*
G01*
X005170900Y007075736D01*
G01*
X005245518Y007166658D01*
G01*
X005300964Y007270390D01*
G01*
X005335107Y007382946D01*
G01*
X005346636Y007500000D01*
G01*
X005335107Y007617054D01*
G01*
X005300964Y007729610D01*
G01*
X005245518Y007833342D01*
G01*
X005170900Y007924264D01*
G01*
X005118547Y007967229D01*
G01*
X005265729Y008146644D01*
G01*
X008632874Y011431719D01*
G01*
X008632576Y011432025D01*
G01*
X008636165Y011434970D01*
G01*
X008682801Y011491796D01*
G01*
X008717455Y011556629D01*
G01*
X008738794Y011626976D01*
G01*
X008746000Y011700135D01*
G01*
X008743193Y011728638D01*
G01*
X008744905Y011728769D01*
G01*
X008544423Y014346633D01*
G01*
X008559171Y014358736D01*
G01*
X008633789Y014449658D01*
G01*
X008689235Y014553390D01*
G01*
X008723378Y014665946D01*
G01*
X008734907Y014783000D01*
G01*
X008723378Y014900054D01*
G01*
X008689235Y015012610D01*
G01*
X008633789Y015116342D01*
G01*
X008559171Y015207264D01*
G01*
X008468249Y015281882D01*
G01*
X008364517Y015337328D01*
G01*
X008251961Y015371471D01*
G01*
X008134907Y015383000D01*
G01*
X008017853Y015371471D01*
G01*
X007905297Y015337328D01*
G01*
X007801565Y015281882D01*
G01*
X007710643Y015207264D01*
G01*
X007636025Y015116342D01*
G01*
X007580579Y015012610D01*
G01*
X007546436Y014900054D01*
G01*
X007534907Y014783000D01*
G01*
X007546436Y014665946D01*
G01*
X007580579Y014553390D01*
G01*
X007636025Y014449658D01*
G01*
X007710643Y014358736D01*
G01*
X007796709Y014288103D01*
G01*
X007983716Y011846198D01*
G01*
X007375000Y011252318D01*
G01*
X007375000Y021976656D01*
G01*
X007564239Y023490940D01*
G01*
X007583280Y023501118D01*
G01*
X007674202Y023575736D01*
G01*
X007748820Y023666658D01*
G01*
X007804266Y023770390D01*
G01*
X007838409Y023882946D01*
G01*
X007849938Y024000000D01*
G01*
X007838409Y024117054D01*
G01*
X007804266Y024229610D01*
G01*
X007748820Y024333342D01*
G01*
X007674202Y024424264D01*
G01*
X007583280Y024498882D01*
G01*
X007479548Y024554328D01*
G01*
X007366992Y024588471D01*
G01*
X007249938Y024600000D01*
G01*
X007132884Y024588471D01*
G01*
X007020328Y024554328D01*
G01*
X006916596Y024498882D01*
G01*
X006825674Y024424264D01*
G01*
X006751056Y024333342D01*
G01*
X006695610Y024229610D01*
G01*
X006661467Y024117054D01*
G01*
X006649938Y024000000D01*
G01*
X006661467Y023882946D01*
G01*
X006695610Y023770390D01*
G01*
X006751056Y023666658D01*
G01*
X006819883Y023582793D01*
G01*
X006627894Y022046502D01*
G01*
X006629560Y022046294D01*
G01*
X006625000Y022000000D01*
G01*
X006625000Y016126901D01*
G01*
X006593342Y016152882D01*
G01*
X006489610Y016208328D01*
G01*
X006377054Y016242471D01*
G01*
X006260000Y016254000D01*
G01*
X006142946Y016242471D01*
G01*
X006030390Y016208328D01*
G01*
X005926658Y016152882D01*
G01*
X005835736Y016078264D01*
G01*
X005761118Y015987342D01*
G01*
X005705672Y015883610D01*
G01*
X005671529Y015771054D01*
G01*
X005663238Y015686880D01*
G01*
X005528433Y015548783D01*
G01*
X005323656Y015339006D01*
G01*
X005118878Y015129228D01*
G01*
X004914101Y014919451D01*
G01*
X004709324Y014709674D01*
G01*
X004504547Y014499896D01*
G01*
X004299769Y014290119D01*
G01*
X004094992Y014080342D01*
G01*
X003890215Y013870564D01*
G01*
X003685437Y013660787D01*
G01*
X003480660Y013451010D01*
G01*
X003275883Y013241233D01*
G01*
X003071106Y013031455D01*
G01*
X002938523Y012895636D01*
G01*
X-00452589Y011673340D01*
G01*
X-00452055Y011671859D01*
G01*
X-00472208Y011665746D01*
G01*
X-00550007Y011624161D01*
G01*
X-00618198Y011568198D01*
G01*
X-00674161Y011500007D01*
G01*
X-00674411Y011499539D01*
G01*
X-00674454Y011499568D01*
G01*
X-01156378Y010776484D01*
G01*
X-01229418Y010754328D01*
G01*
X-01333150Y010698882D01*
G01*
X-01424072Y010624264D01*
G01*
X-01498689Y010533342D01*
G01*
X-01499870Y010531133D01*
G01*
X-01501051Y010533342D01*
G01*
X-01575668Y010624264D01*
G01*
X-01666590Y010698882D01*
G01*
X-01770322Y010754328D01*
G01*
X-01802957Y010764228D01*
G01*
X-03913060Y014477906D01*
G01*
X-03911531Y014482946D01*
G01*
X-03900002Y014600000D01*
G01*
X-03911531Y014717054D01*
G01*
X-03925197Y014762106D01*
G01*
X-00710305Y014728344D01*
G01*
X-00710301Y014728710D01*
G01*
X-00706367Y014728323D01*
G01*
X-00633208Y014735528D01*
G01*
X-00562861Y014756868D01*
G01*
X-00498029Y014791522D01*
G01*
X-00443213Y014836508D01*
G01*
X-00443040Y014836333D01*
G01*
X-00067596Y015206626D01*
G01*
X-00000318Y015200000D01*
G01*
X000065117Y015206445D01*
G01*
X000493712Y014780718D01*
G01*
X000493798Y014780805D01*
G01*
X000549647Y014734971D01*
G01*
X000614479Y014700317D01*
G01*
X000684827Y014678977D01*
G01*
X000757986Y014671772D01*
G01*
X000759081Y014671880D01*
G01*
X000759081Y014671773D01*
G01*
X003344129Y014679324D01*
G01*
X003344348Y014677097D01*
G01*
X003378492Y014564541D01*
G01*
X003433938Y014460809D01*
G01*
X003508555Y014369887D01*
G01*
X003599477Y014295269D01*
G01*
X003703209Y014239823D01*
G01*
X003815765Y014205680D01*
G01*
X003932819Y014194151D01*
G01*
X004049874Y014205680D01*
G01*
X004162430Y014239823D01*
G01*
X004266162Y014295269D01*
G01*
X004357084Y014369887D01*
G01*
X004431701Y014460809D01*
G01*
X004487147Y014564541D01*
G01*
X004521291Y014677097D01*
G01*
X004532819Y014794151D01*
G01*
X004521291Y014911205D01*
G01*
X004487147Y015023761D01*
G01*
X004431701Y015127493D01*
G01*
X004357084Y015218415D01*
G01*
X004266162Y015293033D01*
G01*
X004162430Y015348479D01*
G01*
X004049874Y015382622D01*
G01*
X003932819Y015394151D01*
G01*
X003857010Y015386684D01*
G01*
X003828774Y015401777D01*
G01*
X003758427Y015423117D01*
G01*
X003685268Y015430322D01*
G01*
X003684172Y015430214D01*
G01*
X003684172Y015430321D01*
G01*
X002466073Y015426763D01*
G01*
X002498814Y015466658D01*
G01*
X002554260Y015570390D01*
G01*
X002588404Y015682946D01*
G01*
X002599933Y015800000D01*
G01*
X002588404Y015917054D01*
G01*
X002554260Y016029610D01*
G01*
X002498814Y016133342D01*
G01*
X002424197Y016224264D01*
G01*
X002399169Y016244804D01*
G01*
X002394034Y016296946D01*
G01*
X002372694Y016367293D01*
G01*
X002338040Y016432126D01*
G01*
X002297251Y016481827D01*
G01*
X002297824Y016482373D01*
G01*
X001148004Y017689991D01*
G01*
X001147431Y017689445D01*
G01*
X001141584Y017696570D01*
G01*
X001084758Y017743206D01*
G01*
X001019926Y017777859D01*
G01*
X000949578Y017799199D01*
G01*
X000876419Y017806405D01*
G01*
X000846297Y017803438D01*
G01*
X000835107Y017917054D01*
G01*
X000800964Y018029610D01*
G01*
X000745518Y018133342D01*
G01*
X000670900Y018224264D01*
G01*
X000579978Y018298882D01*
G01*
X000476246Y018354328D01*
G01*
X000363690Y018388471D01*
G01*
X000246636Y018400000D01*
G01*
X000129582Y018388471D01*
G01*
X000017026Y018354328D01*
G01*
X-00086706Y018298882D01*
G01*
X-00177628Y018224264D01*
G01*
X-00252246Y018133342D01*
G01*
X-00307692Y018029610D01*
G01*
X-00341835Y017917054D01*
G01*
X-00353364Y017800000D01*
G01*
X-00341835Y017682946D01*
G01*
X-00307692Y017570390D01*
G01*
X-00252246Y017466658D01*
G01*
X-00177628Y017375736D01*
G01*
X-00086706Y017301118D01*
G01*
X000017026Y017245672D01*
G01*
X000129582Y017211529D01*
G01*
X000246636Y017200000D01*
G01*
X000310059Y017206247D01*
G01*
X000341306Y017175000D01*
G01*
X-03690910Y017175000D01*
G01*
X-03658165Y017282946D01*
G01*
X-03646636Y017400000D01*
G01*
X-03658165Y017517054D01*
G01*
X-03692308Y017629610D01*
G01*
X-03747754Y017733342D01*
G01*
X-03822372Y017824264D01*
G01*
X-03913294Y017898882D01*
G01*
X-03996764Y017943498D01*
G01*
X-03869636Y018067658D01*
G01*
X-03663174Y018269301D01*
G01*
X-03456713Y018470943D01*
G01*
X-03250252Y018672586D01*
G01*
X-03043791Y018874229D01*
G01*
X-02837329Y019075871D01*
G01*
X-02630868Y019277514D01*
G01*
X-02555812Y019350818D01*
G01*
X-02493214Y019350726D01*
G01*
X-02393610Y019350579D01*
G01*
X-02333342Y019301118D01*
G01*
X-02229610Y019245672D01*
G01*
X-02117054Y019211529D01*
G01*
X-02051211Y019205044D01*
G01*
X-02040725Y019194178D01*
G01*
X-01899184Y019047511D01*
G01*
X-01898669Y019048008D01*
G01*
X-01893576Y019041802D01*
G01*
X-01825385Y018985839D01*
G01*
X-01747586Y018944255D01*
G01*
X-01663169Y018918647D01*
G01*
X-01638474Y018916215D01*
G01*
X-01638720Y018914481D01*
G01*
X-00513342Y018754480D01*
G01*
X-00513095Y018756215D01*
G01*
X-00450000Y018750000D01*
G01*
X-00362209Y018758647D01*
G01*
X-00277792Y018784254D01*
G01*
X-00242529Y018803103D01*
G01*
X-00241534Y018801199D01*
G01*
X-00058849Y018896695D01*
G01*
X001146801Y018753156D01*
G01*
X001147046Y018755216D01*
G01*
X001200000Y018750000D01*
G01*
X001287791Y018758647D01*
G01*
X001372208Y018784254D01*
G01*
X001450007Y018825839D01*
G01*
X001518198Y018881802D01*
G01*
X001541340Y018910000D01*
G01*
X001573841Y018910000D01*
G01*
X001661632Y018918647D01*
G01*
X001746049Y018944255D01*
G01*
X001823848Y018985839D01*
G01*
X001892039Y019041802D01*
G01*
X001948002Y019109994D01*
G01*
X001949853Y019113457D01*
G01*
X002000000Y019163604D01*
G01*
X002045135Y019118469D01*
G01*
X002226802Y018936802D01*
G01*
X002294993Y018880839D01*
G01*
X002372792Y018839254D01*
G01*
X002457209Y018813647D01*
G01*
X002545000Y018805000D01*
G01*
X002835143Y018805000D01*
G01*
X002917546Y018805000D01*
G01*
X002957510Y018758108D01*
G01*
X002959101Y018759464D01*
G01*
X002981802Y018731802D01*
G01*
X003049993Y018675839D01*
G01*
X003127792Y018634254D01*
G01*
X003212209Y018608647D01*
G01*
X003300000Y018600000D01*
G01*
X003371170Y018607010D01*
G01*
X003371381Y018605697D01*
G01*
X004257680Y018748088D01*
G01*
X004346390Y018700672D01*
G01*
X004458946Y018666529D01*
G01*
X004576000Y018655000D01*
G01*
X004693054Y018666529D01*
G01*
X004805610Y018700672D01*
G01*
X004909342Y018756118D01*
G01*
X005000264Y018830736D01*
G01*
X005074882Y018921658D01*
G01*
X005130328Y019025390D01*
G01*
X005164471Y019137946D01*
G01*
X005176000Y019255000D01*
G01*
X005164471Y019372054D01*
G01*
X005130328Y019484610D01*
G01*
X005074882Y019588342D01*
G01*
X005000264Y019679264D01*
G01*
X004909342Y019753882D01*
G01*
X004805610Y019809328D01*
G01*
X004693054Y019843471D01*
G01*
X004576000Y019855000D01*
G01*
X004458946Y019843471D01*
G01*
X004346390Y019809328D01*
G01*
X004242658Y019753882D01*
G01*
X004151736Y019679264D01*
G01*
X004117086Y019637043D01*
G01*
X003478395Y019534432D01*
G01*
X003467775Y019546892D01*
G01*
X003466185Y019545537D01*
G01*
X003443484Y019573198D01*
G01*
X003375292Y019629161D01*
G01*
X003297493Y019670746D01*
G01*
X003213076Y019696353D01*
G01*
X003125286Y019705000D01*
G01*
X002835143Y019705000D01*
G01*
X002731396Y019705000D01*
G01*
X002681531Y019754865D01*
G01*
X002596024Y019840372D01*
G01*
X002588471Y019917054D01*
G01*
X002554328Y020029610D01*
G01*
X002498882Y020133342D01*
G01*
X002424264Y020224264D01*
G01*
X002333342Y020298882D01*
G01*
X002229610Y020354328D01*
G01*
X002117054Y020388471D01*
G01*
X002000000Y020400000D01*
G01*
X001882946Y020388471D01*
G01*
X001770390Y020354328D01*
G01*
X001666658Y020298882D01*
G01*
X001575736Y020224264D01*
G01*
X001501118Y020133342D01*
G01*
X001445672Y020029610D01*
G01*
X001411529Y019917054D01*
G01*
X001403976Y019840372D01*
G01*
X001398724Y019835120D01*
G01*
X001393051Y019829447D01*
G01*
X001400000Y019900000D01*
G01*
X001388471Y020017054D01*
G01*
X001354328Y020129610D01*
G01*
X001298882Y020233342D01*
G01*
X001224264Y020324264D01*
G01*
X001175000Y020364694D01*
G01*
X001175000Y023031000D01*
G01*
X001167794Y023104159D01*
G01*
X001146455Y023174506D01*
G01*
X001111801Y023239339D01*
G01*
X001065165Y023296165D01*
G01*
X-00589247Y024950577D01*
G01*
X-00583000Y025014000D01*
G01*
X-00594529Y025131054D01*
G01*
X-00628672Y025243610D01*
G01*
X-00684118Y025347342D01*
G01*
X-00758736Y025438264D01*
G01*
X-00849658Y025512882D01*
G01*
X-00953390Y025568328D01*
G01*
X-01065946Y025602471D01*
G01*
X-01183000Y025614000D01*
G01*
X-01300054Y025602471D01*
G01*
X-01412610Y025568328D01*
G01*
X-01516342Y025512882D01*
G01*
X-01607264Y025438264D01*
G01*
X-01681882Y025347342D01*
G01*
X-01737328Y025243610D01*
G01*
X-01771471Y025131054D01*
G01*
X-01783000Y025014000D01*
G01*
X-01771471Y024896946D01*
G01*
X-01737328Y024784390D01*
G01*
X-01681882Y024680658D01*
G01*
X-01607264Y024589736D01*
G01*
X-01516342Y024515118D01*
G01*
X-01412610Y024459672D01*
G01*
X-01300054Y024425529D01*
G01*
X-01183000Y024414000D01*
G01*
X-01119577Y024420247D01*
G01*
X000425000Y022875670D01*
G01*
X000425000Y020364694D01*
G01*
X000375736Y020324264D01*
G01*
X000301118Y020233342D01*
G01*
X000245672Y020129610D01*
G01*
X000211529Y020017054D01*
G01*
X000200000Y019900000D01*
G01*
X000211529Y019782946D01*
G01*
X000215332Y019770408D01*
G01*
X-00090716Y019806845D01*
G01*
X-00090961Y019804785D01*
G01*
X-00143915Y019810000D01*
G01*
X-00209501Y019803541D01*
G01*
X-00200000Y019900000D01*
G01*
X-00211529Y020017054D01*
G01*
X-00245672Y020129610D01*
G01*
X-00301118Y020233342D01*
G01*
X-00375736Y020324264D01*
G01*
X-00466658Y020398882D01*
G01*
X-00570390Y020454328D01*
G01*
X-00682946Y020488471D01*
G01*
X-00800000Y020500000D01*
G01*
X-00917054Y020488471D01*
G01*
X-01029610Y020454328D01*
G01*
X-01133342Y020398882D01*
G01*
X-01224264Y020324264D01*
G01*
X-01298882Y020233342D01*
G01*
X-01354328Y020129610D01*
G01*
X-01388471Y020017054D01*
G01*
X-01400000Y019900000D01*
G01*
X-01391915Y019817915D01*
G01*
X-01393113Y019819156D01*
G01*
X-01402884Y019829281D01*
G01*
X-01411529Y019917054D01*
G01*
X-01445672Y020029610D01*
G01*
X-01501118Y020133342D01*
G01*
X-01575736Y020224264D01*
G01*
X-01666658Y020298882D01*
G01*
X-01770390Y020354328D01*
G01*
X-01882946Y020388471D01*
G01*
X-02000000Y020400000D01*
G01*
X-02117054Y020388471D01*
G01*
X-02229610Y020354328D01*
G01*
X-02333342Y020298882D01*
G01*
X-02392199Y020250579D01*
G01*
X-02491887Y020250726D01*
G01*
X-02738163Y020251089D01*
G01*
X-02738163Y020251024D01*
G01*
X-02738826Y020251089D01*
G01*
X-02826617Y020242442D01*
G01*
X-02911034Y020216835D01*
G01*
X-02988833Y020175250D01*
G01*
X-03052901Y020122670D01*
G01*
X-03053245Y020123022D01*
G01*
X-03259706Y019921379D01*
G01*
X-03466168Y019719737D01*
G01*
X-03672629Y019518094D01*
G01*
X-03879090Y019316451D01*
G01*
X-04085551Y019114809D01*
G01*
X-04292013Y018913166D01*
G01*
X-04498474Y018711524D01*
G01*
X-04678395Y018535802D01*
G01*
X-05132449Y018219080D01*
G01*
X-05131994Y018218427D01*
G01*
X-05193198Y018168198D01*
G01*
X-05249161Y018100007D01*
G01*
X-05290746Y018022208D01*
G01*
X-05316353Y017937791D01*
G01*
X-05325000Y017850000D01*
G01*
X-05325000Y016950000D01*
G01*
X-05316353Y016862209D01*
G01*
X-05290746Y016777792D01*
G01*
X-05249161Y016699993D01*
G01*
X-05193198Y016631802D01*
G01*
X-05174691Y016616614D01*
G01*
X-05175836Y016615340D01*
G01*
X-05160860Y016601878D01*
G01*
X-04891190Y016127581D01*
G01*
X-04889439Y016128576D01*
G01*
X-04874161Y016099993D01*
G01*
X-04818198Y016031802D01*
G01*
X-04814524Y016028786D01*
G01*
X-05623980Y015893877D01*
G01*
X-05623789Y015892732D01*
G01*
X-05637791Y015891353D01*
G01*
X-05722208Y015865746D01*
G01*
X-05800007Y015824161D01*
G01*
X-05868198Y015768198D01*
G01*
X-06318198Y015318198D01*
G01*
X-06374161Y015250007D01*
G01*
X-06415746Y015172208D01*
G01*
X-06441353Y015087791D01*
G01*
X-06450000Y015000000D01*
G01*
X-06448634Y014986134D01*
G01*
X-06449785Y014986098D01*
G01*
X-06421394Y014067529D01*
G01*
X-06420243Y014067565D01*
G01*
X-06414661Y014010889D01*
G01*
X-06416011Y014010674D01*
G01*
X-06373638Y013744542D01*
G01*
X-06331265Y013478410D01*
G01*
X-06288892Y013212278D01*
G01*
X-06246519Y012946146D01*
G01*
X-06204145Y012680014D01*
G01*
X-06202795Y012680229D01*
G01*
X-06201096Y012662981D01*
G01*
X-06175489Y012578564D01*
G01*
X-06133904Y012500765D01*
G01*
X-06089431Y012446574D01*
G01*
X-06090469Y012445616D01*
G01*
X-05890970Y012229400D01*
G01*
X-05691471Y012013184D01*
G01*
X-05491971Y011796968D01*
G01*
X-05292472Y011580752D01*
G01*
X-05092973Y011364536D01*
G01*
X-04893473Y011148320D01*
G01*
X-04693974Y010932104D01*
G01*
X-04494475Y010715888D01*
G01*
X-04294976Y010499672D01*
G01*
X-04095476Y010283456D01*
G01*
X-03895977Y010067240D01*
G01*
X-03696478Y009851024D01*
G01*
X-03496978Y009634808D01*
G01*
X-03297479Y009418592D01*
G01*
X-03166286Y009276406D01*
G01*
X-03156226Y009174262D01*
G01*
X-03122082Y009061706D01*
G01*
X-03066636Y008957974D01*
G01*
X-02992019Y008867052D01*
G01*
X-02901097Y008792434D01*
G01*
X-02797365Y008736988D01*
G01*
X-02684809Y008702845D01*
G01*
X-02567755Y008691316D01*
G01*
X-02450700Y008702845D01*
G01*
X-02338144Y008736988D01*
G01*
X-02234412Y008792434D01*
G01*
X-02181811Y008835603D01*
G01*
X-02193000Y008722000D01*
G01*
X-02181471Y008604946D01*
G01*
X-02147328Y008492390D01*
G01*
X-02091882Y008388658D01*
G01*
X-02017264Y008297736D01*
G01*
X-01926342Y008223118D01*
G01*
X-01822610Y008167672D01*
G01*
X-01710054Y008133529D01*
G01*
X-01593000Y008122000D01*
G01*
X-01475946Y008133529D01*
G01*
X-01374808Y008164208D01*
G01*
X-01374808Y007900000D01*
G01*
X-01374807Y007900000D01*
G01*
X-01367602Y007826841D01*
G01*
X-01346262Y007756494D01*
G01*
X-01311609Y007691661D01*
G01*
X-01264973Y007634835D01*
G01*
X-01208146Y007588199D01*
G01*
X-01143314Y007553545D01*
G01*
X-01072966Y007532206D01*
G01*
X-00999808Y007525000D01*
G01*
X003800000Y007525000D01*
G01*
X003873159Y007532206D01*
G01*
X003943506Y007553545D01*
G01*
X004008339Y007588199D01*
G01*
X004065165Y007634835D01*
G01*
X004111801Y007691661D01*
G01*
X004146455Y007756494D01*
G01*
X004167794Y007826841D01*
G01*
X004175000Y007900000D01*
G01*
X004175000Y009335306D01*
G01*
X004224264Y009375736D01*
G01*
X004298882Y009466658D01*
G01*
X004354328Y009570390D01*
G01*
X004388471Y009682946D01*
G01*
X004399785Y009797819D01*
G01*
X004450736Y009735736D01*
G01*
X004541658Y009661118D01*
G01*
X004645390Y009605672D01*
G01*
X004757946Y009571529D01*
G01*
X004875000Y009560000D01*
G01*
X004992054Y009571529D01*
G01*
X005104610Y009605672D01*
G01*
X005208342Y009661118D01*
G01*
X005299264Y009735736D01*
G01*
X005373882Y009826658D01*
G01*
X005429328Y009930390D01*
G01*
X005463471Y010042946D01*
G01*
X005475000Y010160000D01*
G01*
X005463471Y010277054D01*
G01*
X005429328Y010389610D01*
G01*
X005373882Y010493342D01*
G01*
X005347901Y010525000D01*
G01*
X006629511Y010525000D01*
G01*
X004727109Y008668966D01*
G01*
X004727407Y008668661D01*
G01*
X004723817Y008665715D01*
G01*
X004700452Y008637244D01*
G01*
X004699056Y008638389D01*
G01*
X004322660Y008179561D01*
G01*
X004324056Y008178416D01*
G01*
X004300786Y008150061D01*
G01*
X004266132Y008085228D01*
G01*
X004244793Y008014881D01*
G01*
X004237587Y007941722D01*
G01*
X004237587Y007814321D01*
G01*
X004192308Y007729610D01*
G01*
X004158165Y007617054D01*
G01*
X004146636Y007500000D01*
G01*
X004158165Y007382946D01*
G01*
X004192308Y007270390D01*
G01*
X004247754Y007166658D01*
G01*
X004322372Y007075736D01*
G01*
X004413294Y007001118D01*
G01*
X004517026Y006945672D01*
G01*
X004629582Y006911529D01*
G01*
X004746636Y006900000D01*
G37*
D35*
G36*
X-02803000Y-13365000D02*
G01*
X-02685946Y-13353471D01*
G01*
X-02573390Y-13319328D01*
G01*
X-02469658Y-13263882D01*
G01*
X-02378736Y-13189264D01*
G01*
X-02304118Y-13098342D01*
G01*
X-02248672Y-12994610D01*
G01*
X-02214529Y-12882054D01*
G01*
X-02203000Y-12765000D01*
G01*
X-02214529Y-12647946D01*
G01*
X-02248672Y-12535390D01*
G01*
X-02304118Y-12431658D01*
G01*
X-02378736Y-12340736D01*
G01*
X-02426883Y-12301223D01*
G01*
X-02416790Y-08106615D01*
G01*
X012082688Y006411401D01*
G01*
X012082692Y006411405D01*
G01*
X012082696Y006411409D01*
G01*
X012082861Y006411575D01*
G01*
X012082845Y006411591D01*
G01*
X012129328Y006468231D01*
G01*
X012163981Y006533064D01*
G01*
X012185321Y006603411D01*
G01*
X012192526Y006676570D01*
G01*
X012192519Y006676641D01*
G01*
X012192526Y006676641D01*
G01*
X012190324Y018400966D01*
G01*
X012200129Y018400000D01*
G01*
X012317183Y018411529D01*
G01*
X012429739Y018445672D01*
G01*
X012533471Y018501118D01*
G01*
X012624393Y018575736D01*
G01*
X012699011Y018666658D01*
G01*
X012754457Y018770390D01*
G01*
X012788600Y018882946D01*
G01*
X012800129Y019000000D01*
G01*
X012788600Y019117054D01*
G01*
X012754457Y019229610D01*
G01*
X012699011Y019333342D01*
G01*
X012624393Y019424264D01*
G01*
X012533471Y019498882D01*
G01*
X012429739Y019554328D01*
G01*
X012317183Y019588471D01*
G01*
X012200129Y019600000D01*
G01*
X012083075Y019588471D01*
G01*
X011970519Y019554328D01*
G01*
X011866787Y019498882D01*
G01*
X011775865Y019424264D01*
G01*
X011701247Y019333342D01*
G01*
X011645801Y019229610D01*
G01*
X011611658Y019117054D01*
G01*
X011600129Y019000000D01*
G01*
X011606376Y018936577D01*
G01*
X011550119Y018880320D01*
G01*
X011503483Y018823494D01*
G01*
X011468829Y018758661D01*
G01*
X011447489Y018688314D01*
G01*
X011440284Y018615155D01*
G01*
X011440291Y018615084D01*
G01*
X011440284Y018615084D01*
G01*
X011442497Y006831731D01*
G01*
X008553474Y003939014D01*
G01*
X008543662Y003971360D01*
G01*
X008488216Y004075092D01*
G01*
X008413599Y004166014D01*
G01*
X008322677Y004240631D01*
G01*
X008218944Y004296077D01*
G01*
X008106389Y004330221D01*
G01*
X007989334Y004341750D01*
G01*
X007872280Y004330221D01*
G01*
X007759724Y004296077D01*
G01*
X007655992Y004240631D01*
G01*
X007565070Y004166014D01*
G01*
X007533888Y004128018D01*
G01*
X002251575Y004257412D01*
G01*
X002333342Y004301118D01*
G01*
X002424264Y004375736D01*
G01*
X002498882Y004466658D01*
G01*
X002554328Y004570390D01*
G01*
X002588471Y004682946D01*
G01*
X002600000Y004800000D01*
G01*
X002588471Y004917054D01*
G01*
X002554328Y005029610D01*
G01*
X002498882Y005133342D01*
G01*
X002424264Y005224264D01*
G01*
X002333342Y005298882D01*
G01*
X002229610Y005354328D01*
G01*
X002117054Y005388471D01*
G01*
X002000000Y005400000D01*
G01*
X001936577Y005393753D01*
G01*
X000451760Y006878570D01*
G01*
X000394934Y006925206D01*
G01*
X000330102Y006959860D01*
G01*
X000259754Y006981199D01*
G01*
X000186595Y006988405D01*
G01*
X-01440207Y006988405D01*
G01*
X-01411529Y007082946D01*
G01*
X-01400000Y007200000D01*
G01*
X-01411529Y007317054D01*
G01*
X-01445672Y007429610D01*
G01*
X-01501118Y007533342D01*
G01*
X-01575736Y007624264D01*
G01*
X-01666658Y007698882D01*
G01*
X-01770390Y007754328D01*
G01*
X-01882946Y007788471D01*
G01*
X-02000000Y007800000D01*
G01*
X-02107329Y007789429D01*
G01*
X-02384711Y008066811D01*
G01*
X-02441537Y008113447D01*
G01*
X-02506369Y008148100D01*
G01*
X-02576717Y008169440D01*
G01*
X-02649876Y008176646D01*
G01*
X-02713901Y008176646D01*
G01*
X-03546303Y008176646D01*
G01*
X-03619462Y008169440D01*
G01*
X-03689810Y008148100D01*
G01*
X-03754642Y008113447D01*
G01*
X-03811468Y008066811D01*
G01*
X-04020165Y007858114D01*
G01*
X-04066801Y007801288D01*
G01*
X-04101455Y007736455D01*
G01*
X-04122794Y007666108D01*
G01*
X-04130000Y007592949D01*
G01*
X-04130000Y006506770D01*
G01*
X-04122794Y006433611D01*
G01*
X-04101455Y006363263D01*
G01*
X-04066801Y006298431D01*
G01*
X-04020165Y006241605D01*
G01*
X-02598078Y004819518D01*
G01*
X-02600000Y004800000D01*
G01*
X-02588471Y004682946D01*
G01*
X-02554328Y004570390D01*
G01*
X-02498882Y004466658D01*
G01*
X-02424264Y004375736D01*
G01*
X-02333342Y004301118D01*
G01*
X-02229610Y004245672D01*
G01*
X-02117054Y004211529D01*
G01*
X-02000000Y004200000D01*
G01*
X-01882946Y004211529D01*
G01*
X-01770390Y004245672D01*
G01*
X-01666658Y004301118D01*
G01*
X-01575736Y004375736D01*
G01*
X-01501118Y004466658D01*
G01*
X-01446070Y004569645D01*
G01*
X-01396753Y004522861D01*
G01*
X-01397528Y004421455D01*
G01*
X-01399796Y004124635D01*
G01*
X-01399471Y004124633D01*
G01*
X-01399809Y004121197D01*
G01*
X-01392046Y004042386D01*
G01*
X-01392829Y004042247D01*
G01*
X-01221988Y003083596D01*
G01*
X-01350101Y002863407D01*
G01*
X-01348480Y002862464D01*
G01*
X-01376893Y002809308D01*
G01*
X-01402501Y002724891D01*
G01*
X-01410809Y002640536D01*
G01*
X-01411134Y002640538D01*
G01*
X-01413402Y002343719D01*
G01*
X-01415669Y002046900D01*
G01*
X-01417937Y001750080D01*
G01*
X-01420205Y001453261D01*
G01*
X-01422472Y001156442D01*
G01*
X-01423804Y000982105D01*
G01*
X-01476899Y000929010D01*
G01*
X-01638835Y000767075D01*
G01*
X-01800771Y000605139D01*
G01*
X-01876811Y000529098D01*
G01*
X-01933342Y000498882D01*
G01*
X-02024264Y000424264D01*
G01*
X-02098882Y000333342D01*
G01*
X-02154328Y000229610D01*
G01*
X-02188471Y000117054D01*
G01*
X-02200000Y000000000D01*
G01*
X-02188471Y-00117054D01*
G01*
X-02154328Y-00229610D01*
G01*
X-02098882Y-00333342D01*
G01*
X-02024264Y-00424264D01*
G01*
X-01933342Y-00498882D01*
G01*
X-01829610Y-00554328D01*
G01*
X-01717054Y-00588471D01*
G01*
X-01600000Y-00600000D01*
G01*
X-01482946Y-00588471D01*
G01*
X-01370390Y-00554328D01*
G01*
X-01266658Y-00498882D01*
G01*
X-01175736Y-00424264D01*
G01*
X-01101118Y-00333342D01*
G01*
X-01045672Y-00229610D01*
G01*
X-01011529Y-00117054D01*
G01*
X-01000000Y000000000D01*
G01*
X-01011529Y000117054D01*
G01*
X-01012584Y000120533D01*
G01*
X-01002439Y000130678D01*
G01*
X-00840503Y000292614D01*
G01*
X-00678567Y000454550D01*
G01*
X-00622604Y000522742D01*
G01*
X-00581019Y000600541D01*
G01*
X-00563458Y000658433D01*
G01*
X-00561652Y000657957D01*
G01*
X-00539640Y000741394D01*
G01*
X-00541446Y000741870D01*
G01*
X-00533400Y000768394D01*
G01*
X-00525091Y000852749D01*
G01*
X-00524766Y000852747D01*
G01*
X-00522499Y001149566D01*
G01*
X-00520231Y001446385D01*
G01*
X-00517963Y001743205D01*
G01*
X-00515696Y002040024D01*
G01*
X-00513428Y002336843D01*
G01*
X-00512073Y002514122D01*
G01*
X-00361046Y002773693D01*
G01*
X-00362667Y002774636D01*
G01*
X-00334254Y002827792D01*
G01*
X-00308647Y002912209D01*
G01*
X-00300000Y003000000D01*
G01*
X-00307763Y003078812D01*
G01*
X-00306980Y003078951D01*
G01*
X-00487980Y004094606D01*
G01*
X-00464964Y004071590D01*
G01*
X-00461056Y004031912D01*
G01*
X-00435448Y003947495D01*
G01*
X-00393863Y003869696D01*
G01*
X-00337900Y003801504D01*
G01*
X-00269709Y003745541D01*
G01*
X-00191910Y003703956D01*
G01*
X-00107493Y003678349D01*
G01*
X-00019702Y003669702D01*
G01*
X000068088Y003678349D01*
G01*
X000104134Y003689283D01*
G01*
X000158263Y003588014D01*
G01*
X000232881Y003497093D01*
G01*
X000323803Y003422475D01*
G01*
X000427535Y003367029D01*
G01*
X000540091Y003332885D01*
G01*
X000657145Y003321357D01*
G01*
X000774199Y003332885D01*
G01*
X000886755Y003367029D01*
G01*
X000990487Y003422475D01*
G01*
X001081409Y003497093D01*
G01*
X001112591Y003535088D01*
G01*
X007515202Y003378251D01*
G01*
X007565070Y003317486D01*
G01*
X007655992Y003242868D01*
G01*
X007759724Y003187422D01*
G01*
X007792816Y003177384D01*
G01*
X-00280144Y-04905898D01*
G01*
X-00301118Y-04866658D01*
G01*
X-00375736Y-04775736D01*
G01*
X-00400000Y-04755823D01*
G01*
X-00400000Y-04291994D01*
G01*
X-00407686Y-04213958D01*
G01*
X-00430448Y-04138921D01*
G01*
X-00467412Y-04069766D01*
G01*
X-00517157Y-04009151D01*
G01*
X-10659151Y006132843D01*
G01*
X-10719766Y006182588D01*
G01*
X-10788921Y006219552D01*
G01*
X-10863958Y006242314D01*
G01*
X-10941994Y006250000D01*
G01*
X-12060823Y006250000D01*
G01*
X-12080736Y006274264D01*
G01*
X-12171658Y006348882D01*
G01*
X-12275390Y006404328D01*
G01*
X-12387946Y006438471D01*
G01*
X-12505000Y006450000D01*
G01*
X-12622054Y006438471D01*
G01*
X-12734610Y006404328D01*
G01*
X-12838342Y006348882D01*
G01*
X-12929264Y006274264D01*
G01*
X-13003882Y006183342D01*
G01*
X-13059328Y006079610D01*
G01*
X-13093471Y005967054D01*
G01*
X-13105000Y005850000D01*
G01*
X-13093471Y005732946D01*
G01*
X-13059328Y005620390D01*
G01*
X-13003882Y005516658D01*
G01*
X-12929264Y005425736D01*
G01*
X-12838342Y005351118D01*
G01*
X-12734610Y005295672D01*
G01*
X-12622054Y005261529D01*
G01*
X-12505000Y005250000D01*
G01*
X-12387946Y005261529D01*
G01*
X-12275390Y005295672D01*
G01*
X-12171658Y005351118D01*
G01*
X-12080736Y005425736D01*
G01*
X-12060823Y005450000D01*
G01*
X-11107680Y005450000D01*
G01*
X-06458307Y000800627D01*
G01*
X-06508342Y000773882D01*
G01*
X-06599264Y000699264D01*
G01*
X-06629477Y000662450D01*
G01*
X-06997425Y000672418D01*
G01*
X-07304155Y000957815D01*
G01*
X-07300000Y001000000D01*
G01*
X-07311529Y001117054D01*
G01*
X-07345672Y001229610D01*
G01*
X-07401118Y001333342D01*
G01*
X-07475736Y001424264D01*
G01*
X-07566658Y001498882D01*
G01*
X-07670390Y001554328D01*
G01*
X-07782946Y001588471D01*
G01*
X-07900000Y001600000D01*
G01*
X-08017054Y001588471D01*
G01*
X-08129610Y001554328D01*
G01*
X-08233342Y001498882D01*
G01*
X-08324264Y001424264D01*
G01*
X-08398882Y001333342D01*
G01*
X-08454328Y001229610D01*
G01*
X-08488471Y001117054D01*
G01*
X-08500000Y001000000D01*
G01*
X-08488471Y000882946D01*
G01*
X-08454328Y000770390D01*
G01*
X-08398882Y000666658D01*
G01*
X-08324264Y000575736D01*
G01*
X-08233342Y000501118D01*
G01*
X-08129610Y000445672D01*
G01*
X-08017054Y000411529D01*
G01*
X-07900000Y000400000D01*
G01*
X-07814690Y000408402D01*
G01*
X-07404619Y000026851D01*
G01*
X-07403881Y000027644D01*
G01*
X-07357512Y-00010410D01*
G01*
X-07292679Y-00045063D01*
G01*
X-07222332Y-00066403D01*
G01*
X-07159305Y-00072611D01*
G01*
X-07159328Y-00073471D01*
G01*
X-06650145Y-00087265D01*
G01*
X-06599264Y-00149264D01*
G01*
X-06508342Y-00223882D01*
G01*
X-06404610Y-00279328D01*
G01*
X-06292054Y-00313471D01*
G01*
X-06175000Y-00325000D01*
G01*
X-06057946Y-00313471D01*
G01*
X-05945390Y-00279328D01*
G01*
X-05841658Y-00223882D01*
G01*
X-05750736Y-00149264D01*
G01*
X-05676118Y-00058342D01*
G01*
X-05649373Y-00008307D01*
G01*
X-01200000Y-04457680D01*
G01*
X-01200000Y-04755823D01*
G01*
X-01224264Y-04775736D01*
G01*
X-01298882Y-04866658D01*
G01*
X-01354328Y-04970390D01*
G01*
X-01388471Y-05082946D01*
G01*
X-01400000Y-05200000D01*
G01*
X-01388471Y-05317054D01*
G01*
X-01354328Y-05429610D01*
G01*
X-01298882Y-05533342D01*
G01*
X-01224264Y-05624264D01*
G01*
X-01133342Y-05698882D01*
G01*
X-01093425Y-05720218D01*
G01*
X-03056751Y-07686055D01*
G01*
X-03056734Y-07686072D01*
G01*
X-03103218Y-07742712D01*
G01*
X-03137872Y-07807545D01*
G01*
X-03159211Y-07877892D01*
G01*
X-03166328Y-07950149D01*
G01*
X-03166416Y-07950149D01*
G01*
X-03176881Y-12299387D01*
G01*
X-03227264Y-12340736D01*
G01*
X-03301882Y-12431658D01*
G01*
X-03357328Y-12535390D01*
G01*
X-03391471Y-12647946D01*
G01*
X-03403000Y-12765000D01*
G01*
X-03391471Y-12882054D01*
G01*
X-03357328Y-12994610D01*
G01*
X-03301882Y-13098342D01*
G01*
X-03227264Y-13189264D01*
G01*
X-03136342Y-13263882D01*
G01*
X-03032610Y-13319328D01*
G01*
X-02920054Y-13353471D01*
G01*
X-02803000Y-13365000D01*
G37*
D35*
G36*
X008957115Y-13958084D02*
G01*
X009074169Y-13946555D01*
G01*
X009186725Y-13912412D01*
G01*
X009290457Y-13856966D01*
G01*
X009381379Y-13782348D01*
G01*
X009455996Y-13691426D01*
G01*
X009511442Y-13587694D01*
G01*
X009545586Y-13475138D01*
G01*
X009557115Y-13358084D01*
G01*
X009548609Y-13271727D01*
G01*
X012725822Y-09845417D01*
G01*
X012724999Y-09844654D01*
G01*
X012762651Y-09798775D01*
G01*
X012797304Y-09733943D01*
G01*
X012818644Y-09663595D01*
G01*
X012825671Y-09592250D01*
G01*
X012825845Y-09592251D01*
G01*
X012869021Y-00669865D01*
G01*
X016483373Y002930750D01*
G01*
X016483324Y002930799D01*
G01*
X016483878Y002931254D01*
G01*
X016530514Y002988080D01*
G01*
X016561763Y003046542D01*
G01*
X016657139Y003037148D01*
G01*
X016774194Y003048677D01*
G01*
X016886750Y003082820D01*
G01*
X016990482Y003138266D01*
G01*
X017081404Y003212884D01*
G01*
X017156021Y003303806D01*
G01*
X017211467Y003407538D01*
G01*
X017245611Y003520094D01*
G01*
X017257139Y003637148D01*
G01*
X017245611Y003754202D01*
G01*
X017211467Y003866758D01*
G01*
X017156021Y003970490D01*
G01*
X017081404Y004061412D01*
G01*
X016990482Y004136030D01*
G01*
X016886750Y004191476D01*
G01*
X016774194Y004225619D01*
G01*
X016657139Y004237148D01*
G01*
X016540085Y004225619D01*
G01*
X016427529Y004191476D01*
G01*
X016323797Y004136030D01*
G01*
X016292139Y004110049D01*
G01*
X016292139Y013120654D01*
G01*
X016306102Y013178659D01*
G01*
X016304964Y013178933D01*
G01*
X016309311Y013193262D01*
G01*
X016316516Y013266421D01*
G01*
X016316516Y013367687D01*
G01*
X016316516Y013468953D01*
G01*
X016316516Y013570219D01*
G01*
X016316516Y013671485D01*
G01*
X016316516Y013772750D01*
G01*
X016316516Y013874016D01*
G01*
X016309311Y013947175D01*
G01*
X016309196Y013947552D01*
G01*
X016309234Y013947560D01*
G01*
X016265883Y014164314D01*
G01*
X016265883Y014532244D01*
G01*
X016265883Y014937307D01*
G01*
X016265883Y015342371D01*
G01*
X016265883Y015747434D01*
G01*
X016265883Y016152497D01*
G01*
X016265883Y016557561D01*
G01*
X016258678Y016630719D01*
G01*
X016237338Y016701067D01*
G01*
X016202684Y016765899D01*
G01*
X016156048Y016822726D01*
G01*
X016099222Y016869362D01*
G01*
X016034389Y016904015D01*
G01*
X015964042Y016925355D01*
G01*
X015890883Y016932561D01*
G01*
X015485820Y016932561D01*
G01*
X015455757Y016932561D01*
G01*
X015455757Y016962624D01*
G01*
X015448551Y017035783D01*
G01*
X015427211Y017106130D01*
G01*
X015392558Y017170963D01*
G01*
X015345922Y017227789D01*
G01*
X015289095Y017274425D01*
G01*
X015224263Y017309079D01*
G01*
X015153915Y017330418D01*
G01*
X015080757Y017337624D01*
G01*
X014575125Y017337624D01*
G01*
X014575125Y018535306D01*
G01*
X014624389Y018575736D01*
G01*
X014699007Y018666658D01*
G01*
X014754453Y018770390D01*
G01*
X014788596Y018882946D01*
G01*
X014800125Y019000000D01*
G01*
X014788596Y019117054D01*
G01*
X014754453Y019229610D01*
G01*
X014699007Y019333342D01*
G01*
X014624389Y019424264D01*
G01*
X014533467Y019498882D01*
G01*
X014429735Y019554328D01*
G01*
X014317179Y019588471D01*
G01*
X014200125Y019600000D01*
G01*
X014083071Y019588471D01*
G01*
X013970515Y019554328D01*
G01*
X013866783Y019498882D01*
G01*
X013775861Y019424264D01*
G01*
X013701243Y019333342D01*
G01*
X013645797Y019229610D01*
G01*
X013611654Y019117054D01*
G01*
X013600125Y019000000D01*
G01*
X013611654Y018882946D01*
G01*
X013645797Y018770390D01*
G01*
X013701243Y018666658D01*
G01*
X013775861Y018575736D01*
G01*
X013825125Y018535306D01*
G01*
X013825125Y016962624D01*
G01*
X013832331Y016889465D01*
G01*
X013853670Y016819118D01*
G01*
X013888324Y016754285D01*
G01*
X013934960Y016697459D01*
G01*
X013991786Y016650823D01*
G01*
X014056619Y016616169D01*
G01*
X014126966Y016594829D01*
G01*
X014200125Y016587624D01*
G01*
X014705757Y016587624D01*
G01*
X014705757Y016557561D01*
G01*
X014712962Y016484402D01*
G01*
X014734302Y016414054D01*
G01*
X014768955Y016349222D01*
G01*
X014815592Y016292395D01*
G01*
X014872418Y016245759D01*
G01*
X014937250Y016211106D01*
G01*
X015007598Y016189766D01*
G01*
X015080757Y016182561D01*
G01*
X015485820Y016182561D01*
G01*
X015515883Y016182561D01*
G01*
X015515883Y016152497D01*
G01*
X015515883Y015747434D01*
G01*
X015515883Y015342371D01*
G01*
X015515883Y014937307D01*
G01*
X015515883Y014532244D01*
G01*
X015515883Y014127181D01*
G01*
X015523089Y014054022D01*
G01*
X015523203Y014053645D01*
G01*
X015523165Y014053637D01*
G01*
X015566516Y013836883D01*
G01*
X015566516Y013772750D01*
G01*
X015566516Y013671485D01*
G01*
X015566516Y013570219D01*
G01*
X015566516Y013468953D01*
G01*
X015566516Y013367687D01*
G01*
X015566516Y013310921D01*
G01*
X015552554Y013252918D01*
G01*
X015553692Y013252644D01*
G01*
X015549345Y013238314D01*
G01*
X015542139Y013165155D01*
G01*
X015542139Y003756565D01*
G01*
X006618574Y-05167000D01*
G01*
X005422694Y-05167000D01*
G01*
X005382264Y-05117736D01*
G01*
X005291342Y-05043118D01*
G01*
X005187610Y-04987672D01*
G01*
X005075054Y-04953529D01*
G01*
X004958000Y-04942000D01*
G01*
X004840946Y-04953529D01*
G01*
X004728390Y-04987672D01*
G01*
X004624658Y-05043118D01*
G01*
X004533736Y-05117736D01*
G01*
X004459118Y-05208658D01*
G01*
X004403672Y-05312390D01*
G01*
X004369529Y-05424946D01*
G01*
X004358000Y-05542000D01*
G01*
X004369529Y-05659054D01*
G01*
X004403672Y-05771610D01*
G01*
X004459118Y-05875342D01*
G01*
X004533736Y-05966264D01*
G01*
X004624658Y-06040882D01*
G01*
X004728390Y-06096328D01*
G01*
X004840946Y-06130471D01*
G01*
X004958000Y-06142000D01*
G01*
X005075054Y-06130471D01*
G01*
X005187610Y-06096328D01*
G01*
X005291342Y-06040882D01*
G01*
X005382264Y-05966264D01*
G01*
X005422694Y-05917000D01*
G01*
X006773904Y-05917000D01*
G01*
X006847063Y-05909794D01*
G01*
X006857745Y-05906554D01*
G01*
X006620031Y-06144268D01*
G01*
X006564660Y-06114672D01*
G01*
X006452104Y-06080529D01*
G01*
X006335050Y-06069000D01*
G01*
X006217995Y-06080529D01*
G01*
X006105439Y-06114672D01*
G01*
X006001707Y-06170118D01*
G01*
X005910785Y-06244736D01*
G01*
X005836168Y-06335658D01*
G01*
X005780722Y-06439390D01*
G01*
X005746578Y-06551946D01*
G01*
X005735050Y-06669000D01*
G01*
X005746578Y-06786054D01*
G01*
X005780722Y-06898610D01*
G01*
X005836168Y-07002342D01*
G01*
X005910785Y-07093264D01*
G01*
X006001707Y-07167882D01*
G01*
X006105439Y-07223328D01*
G01*
X006217995Y-07257471D01*
G01*
X006335050Y-07269000D01*
G01*
X006452104Y-07257471D01*
G01*
X006564660Y-07223328D01*
G01*
X006668392Y-07167882D01*
G01*
X006759314Y-07093264D01*
G01*
X006810792Y-07030537D01*
G01*
X006837145Y-07027942D01*
G01*
X006916872Y-07003757D01*
G01*
X006990349Y-06964483D01*
G01*
X007054752Y-06911628D01*
G01*
X008041382Y-05924998D01*
G01*
X009750000Y-05924998D01*
G01*
X009820505Y-05918054D01*
G01*
X009843750Y-05918054D01*
G01*
X009914263Y-05911109D01*
G01*
X009937500Y-05911109D01*
G01*
X010008007Y-05904165D01*
G01*
X010031250Y-05904165D01*
G01*
X010057149Y-05901614D01*
G01*
X010075736Y-05924262D01*
G01*
X010098384Y-05942849D01*
G01*
X010095833Y-05968748D01*
G01*
X010095833Y-05991991D01*
G01*
X010088889Y-06062498D01*
G01*
X010088889Y-06085735D01*
G01*
X010081944Y-06156248D01*
G01*
X010081944Y-06179493D01*
G01*
X010075000Y-06249998D01*
G01*
X010075000Y-06523960D01*
G01*
X009429810Y-07169150D01*
G01*
X009363518Y-07235441D01*
G01*
X009345676Y-07257182D01*
G01*
X009299176Y-07303681D01*
G01*
X009281334Y-07325422D01*
G01*
X009234834Y-07371922D01*
G01*
X009216991Y-07393663D01*
G01*
X009209699Y-07400955D01*
G01*
X009200000Y-07400000D01*
G01*
X009082946Y-07411529D01*
G01*
X008970390Y-07445672D01*
G01*
X008866658Y-07501118D01*
G01*
X008775736Y-07575736D01*
G01*
X008701118Y-07666658D01*
G01*
X008645672Y-07770390D01*
G01*
X008611529Y-07882946D01*
G01*
X008600000Y-08000000D01*
G01*
X008611529Y-08117054D01*
G01*
X008645672Y-08229610D01*
G01*
X008701118Y-08333342D01*
G01*
X008775736Y-08424264D01*
G01*
X008866658Y-08498882D01*
G01*
X008970390Y-08554328D01*
G01*
X009082946Y-08588471D01*
G01*
X009200000Y-08600000D01*
G01*
X009317054Y-08588471D01*
G01*
X009429610Y-08554328D01*
G01*
X009533342Y-08498882D01*
G01*
X009624264Y-08424264D01*
G01*
X009698882Y-08333342D01*
G01*
X009754328Y-08229610D01*
G01*
X009788471Y-08117054D01*
G01*
X009800000Y-08000000D01*
G01*
X009799045Y-07990301D01*
G01*
X009806337Y-07983009D01*
G01*
X009828078Y-07965166D01*
G01*
X009874578Y-07918666D01*
G01*
X009896319Y-07900824D01*
G01*
X009942818Y-07854324D01*
G01*
X009964559Y-07836482D01*
G01*
X010030850Y-07770190D01*
G01*
X010800520Y-07000520D01*
G01*
X010853375Y-06936117D01*
G01*
X010892649Y-06862640D01*
G01*
X010916834Y-06782913D01*
G01*
X010925000Y-06700000D01*
G01*
X010925000Y-06249998D01*
G01*
X010918056Y-06179493D01*
G01*
X010918056Y-06156248D01*
G01*
X010911111Y-06085735D01*
G01*
X010911111Y-06062498D01*
G01*
X010904167Y-05991991D01*
G01*
X010904167Y-05968748D01*
G01*
X010901616Y-05942849D01*
G01*
X010924264Y-05924262D01*
G01*
X010998882Y-05833340D01*
G01*
X011054328Y-05729608D01*
G01*
X011088471Y-05617052D01*
G01*
X011100000Y-05499998D01*
G01*
X011088471Y-05382944D01*
G01*
X011054328Y-05270388D01*
G01*
X010998882Y-05166656D01*
G01*
X010924264Y-05075734D01*
G01*
X010833342Y-05001116D01*
G01*
X010729610Y-04945670D01*
G01*
X010617054Y-04911527D01*
G01*
X010500000Y-04899998D01*
G01*
X010382946Y-04911527D01*
G01*
X010270390Y-04945670D01*
G01*
X010166658Y-05001116D01*
G01*
X010075736Y-05075734D01*
G01*
X010057149Y-05098382D01*
G01*
X010031250Y-05095831D01*
G01*
X010008007Y-05095831D01*
G01*
X009937500Y-05088887D01*
G01*
X009914263Y-05088887D01*
G01*
X009843750Y-05081942D01*
G01*
X009820505Y-05081942D01*
G01*
X009750000Y-05074998D01*
G01*
X007865341Y-05074998D01*
G01*
X007782428Y-05083164D01*
G01*
X007754642Y-05091593D01*
G01*
X012118734Y-00727501D01*
G01*
X012076561Y-09442559D01*
G01*
X008998316Y-12762142D01*
G01*
X008957115Y-12758084D01*
G01*
X008840061Y-12769613D01*
G01*
X008727505Y-12803757D01*
G01*
X008623773Y-12859203D01*
G01*
X008532851Y-12933820D01*
G01*
X008458233Y-13024742D01*
G01*
X008402787Y-13128474D01*
G01*
X008368644Y-13241030D01*
G01*
X008357115Y-13358084D01*
G01*
X008368644Y-13475138D01*
G01*
X008402787Y-13587694D01*
G01*
X008458233Y-13691426D01*
G01*
X008532851Y-13782348D01*
G01*
X008623773Y-13856966D01*
G01*
X008727505Y-13912412D01*
G01*
X008840061Y-13946555D01*
G01*
X008957115Y-13958084D01*
G37*
D35*
G36*
X002300000Y005400000D02*
G01*
X002417054Y005411529D01*
G01*
X002529610Y005445672D01*
G01*
X002633342Y005501118D01*
G01*
X002724264Y005575736D01*
G01*
X002798882Y005666658D01*
G01*
X002854328Y005770390D01*
G01*
X002888471Y005882946D01*
G01*
X002900000Y006000000D01*
G01*
X002888471Y006117054D01*
G01*
X002854328Y006229610D01*
G01*
X002798882Y006333342D01*
G01*
X002724264Y006424264D01*
G01*
X002633342Y006498882D01*
G01*
X002529610Y006554328D01*
G01*
X002417054Y006588471D01*
G01*
X002300000Y006600000D01*
G01*
X002182946Y006588471D01*
G01*
X002070390Y006554328D01*
G01*
X001966658Y006498882D01*
G01*
X001875736Y006424264D01*
G01*
X001801118Y006333342D01*
G01*
X001745672Y006229610D01*
G01*
X001711529Y006117054D01*
G01*
X001700000Y006000000D01*
G01*
X001711529Y005882946D01*
G01*
X001745672Y005770390D01*
G01*
X001801118Y005666658D01*
G01*
X001875736Y005575736D01*
G01*
X001966658Y005501118D01*
G01*
X002070390Y005445672D01*
G01*
X002182946Y005411529D01*
G01*
X002300000Y005400000D01*
G37*
D35*
G36*
X-12320639Y-00183307D02*
G01*
X-12203585Y-00171778D01*
G01*
X-12091029Y-00137635D01*
G01*
X-11987297Y-00082189D01*
G01*
X-11896375Y-00007571D01*
G01*
X-11821758Y000083351D01*
G01*
X-11766312Y000187083D01*
G01*
X-11732168Y000299639D01*
G01*
X-11720639Y000416693D01*
G01*
X-11732168Y000533747D01*
G01*
X-11766312Y000646303D01*
G01*
X-11821758Y000750035D01*
G01*
X-11896375Y000840957D01*
G01*
X-11987297Y000915575D01*
G01*
X-12091029Y000971021D01*
G01*
X-12203585Y001005164D01*
G01*
X-12320639Y001016693D01*
G01*
X-12437694Y001005164D01*
G01*
X-12550250Y000971021D01*
G01*
X-12653982Y000915575D01*
G01*
X-12696316Y000880832D01*
G01*
X-17105166Y001043190D01*
G01*
X-18906886Y002844910D01*
G01*
X-18911529Y002892054D01*
G01*
X-18945672Y003004610D01*
G01*
X-19001118Y003108342D01*
G01*
X-19075736Y003199264D01*
G01*
X-19166658Y003273882D01*
G01*
X-19270390Y003329328D01*
G01*
X-19382946Y003363471D01*
G01*
X-19500000Y003375000D01*
G01*
X-19617054Y003363471D01*
G01*
X-19729610Y003329328D01*
G01*
X-19833342Y003273882D01*
G01*
X-19924264Y003199264D01*
G01*
X-19998882Y003108342D01*
G01*
X-20054328Y003004610D01*
G01*
X-20088471Y002892054D01*
G01*
X-20100000Y002775000D01*
G01*
X-20088471Y002657946D01*
G01*
X-20054328Y002545390D01*
G01*
X-19998882Y002441658D01*
G01*
X-19924264Y002350736D01*
G01*
X-19833342Y002276118D01*
G01*
X-19729610Y002220672D01*
G01*
X-19617054Y002186529D01*
G01*
X-19510835Y002176067D01*
G01*
X-17616570Y000281802D01*
G01*
X-17548379Y000225839D01*
G01*
X-17470580Y000184254D01*
G01*
X-17386163Y000158647D01*
G01*
X-17314883Y000151626D01*
G01*
X-17314932Y000150305D01*
G01*
X-12731614Y-00018478D01*
G01*
X-12653982Y-00082189D01*
G01*
X-12550250Y-00137635D01*
G01*
X-12437694Y-00171778D01*
G01*
X-12320639Y-00183307D01*
G37*
D35*
G36*
X-16000000Y-16375000D02*
G01*
X017800000Y-16375000D01*
G01*
X017873159Y-16367794D01*
G01*
X017943506Y-16346455D01*
G01*
X018008339Y-16311801D01*
G01*
X018065165Y-16265165D01*
G01*
X018111801Y-16208339D01*
G01*
X018146455Y-16143506D01*
G01*
X018167794Y-16073159D01*
G01*
X018175000Y-16000000D01*
G01*
X018175000Y002285374D01*
G01*
X018224264Y002325804D01*
G01*
X018298882Y002416726D01*
G01*
X018354328Y002520458D01*
G01*
X018388471Y002633014D01*
G01*
X018400000Y002750068D01*
G01*
X018388471Y002867122D01*
G01*
X018354328Y002979678D01*
G01*
X018298882Y003083410D01*
G01*
X018224264Y003174332D01*
G01*
X018133342Y003248950D01*
G01*
X018029610Y003304396D01*
G01*
X017917054Y003338539D01*
G01*
X017800000Y003350068D01*
G01*
X017682946Y003338539D01*
G01*
X017570390Y003304396D01*
G01*
X017466658Y003248950D01*
G01*
X017375736Y003174332D01*
G01*
X017301118Y003083410D01*
G01*
X017245672Y002979678D01*
G01*
X017211529Y002867122D01*
G01*
X017200000Y002750068D01*
G01*
X017211529Y002633014D01*
G01*
X017245672Y002520458D01*
G01*
X017301118Y002416726D01*
G01*
X017375736Y002325804D01*
G01*
X017425000Y002285374D01*
G01*
X017425000Y-15625000D01*
G01*
X-15625000Y-15625000D01*
G01*
X-15625000Y-03864694D01*
G01*
X-15575736Y-03824264D01*
G01*
X-15501118Y-03733342D01*
G01*
X-15445672Y-03629610D01*
G01*
X-15411529Y-03517054D01*
G01*
X-15400000Y-03400000D01*
G01*
X-15411529Y-03282946D01*
G01*
X-15445672Y-03170390D01*
G01*
X-15501118Y-03066658D01*
G01*
X-15575736Y-02975736D01*
G01*
X-15666658Y-02901118D01*
G01*
X-15770390Y-02845672D01*
G01*
X-15882946Y-02811529D01*
G01*
X-16000000Y-02800000D01*
G01*
X-16117054Y-02811529D01*
G01*
X-16229610Y-02845672D01*
G01*
X-16333342Y-02901118D01*
G01*
X-16424264Y-02975736D01*
G01*
X-16498882Y-03066658D01*
G01*
X-16554328Y-03170390D01*
G01*
X-16588471Y-03282946D01*
G01*
X-16600000Y-03400000D01*
G01*
X-16588471Y-03517054D01*
G01*
X-16554328Y-03629610D01*
G01*
X-16498882Y-03733342D01*
G01*
X-16424264Y-03824264D01*
G01*
X-16375000Y-03864694D01*
G01*
X-16375000Y-16000000D01*
G01*
X-16367794Y-16073159D01*
G01*
X-16346455Y-16143506D01*
G01*
X-16311801Y-16208339D01*
G01*
X-16265165Y-16265165D01*
G01*
X-16208339Y-16311801D01*
G01*
X-16143506Y-16346455D01*
G01*
X-16073159Y-16367794D01*
G01*
X-16000000Y-16375000D01*
G37*
D35*
G36*
X003000000Y000900000D02*
G01*
X003117054Y000911529D01*
G01*
X003229610Y000945672D01*
G01*
X003333342Y001001118D01*
G01*
X003424264Y001075736D01*
G01*
X003498882Y001166658D01*
G01*
X003554328Y001270390D01*
G01*
X003588471Y001382946D01*
G01*
X003600000Y001500000D01*
G01*
X003588471Y001617054D01*
G01*
X003554328Y001729610D01*
G01*
X003498882Y001833342D01*
G01*
X003424264Y001924264D01*
G01*
X003333342Y001998882D01*
G01*
X003229610Y002054328D01*
G01*
X003117054Y002088471D01*
G01*
X003000000Y002100000D01*
G01*
X002882946Y002088471D01*
G01*
X002770390Y002054328D01*
G01*
X002666658Y001998882D01*
G01*
X002575736Y001924264D01*
G01*
X002501118Y001833342D01*
G01*
X002445672Y001729610D01*
G01*
X002411529Y001617054D01*
G01*
X002400000Y001500000D01*
G01*
X002411529Y001382946D01*
G01*
X002445672Y001270390D01*
G01*
X002501118Y001166658D01*
G01*
X002575736Y001075736D01*
G01*
X002666658Y001001118D01*
G01*
X002770390Y000945672D01*
G01*
X002882946Y000911529D01*
G01*
X003000000Y000900000D01*
G37*
D35*
G36*
X-20100000Y-00600000D02*
G01*
X-19982946Y-00588471D01*
G01*
X-19870390Y-00554328D01*
G01*
X-19766658Y-00498882D01*
G01*
X-19675736Y-00424264D01*
G01*
X-19601118Y-00333342D01*
G01*
X-19545672Y-00229610D01*
G01*
X-19511529Y-00117054D01*
G01*
X-19500000Y000000000D01*
G01*
X-19511529Y000117054D01*
G01*
X-19545672Y000229610D01*
G01*
X-19601118Y000333342D01*
G01*
X-19675736Y000424264D01*
G01*
X-19766658Y000498882D01*
G01*
X-19870390Y000554328D01*
G01*
X-19982946Y000588471D01*
G01*
X-20100000Y000600000D01*
G01*
X-20217054Y000588471D01*
G01*
X-20329610Y000554328D01*
G01*
X-20433342Y000498882D01*
G01*
X-20524264Y000424264D01*
G01*
X-20598882Y000333342D01*
G01*
X-20654328Y000229610D01*
G01*
X-20688471Y000117054D01*
G01*
X-20700000Y000000000D01*
G01*
X-20688471Y-00117054D01*
G01*
X-20654328Y-00229610D01*
G01*
X-20598882Y-00333342D01*
G01*
X-20524264Y-00424264D01*
G01*
X-20433342Y-00498882D01*
G01*
X-20329610Y-00554328D01*
G01*
X-20217054Y-00588471D01*
G01*
X-20100000Y-00600000D01*
G37*
%LPD*%
D35*
G36*
X003425000Y009335306D02*
G01*
X003399180Y009356496D01*
G01*
X003389328Y009324017D01*
G01*
X003333882Y009220285D01*
G01*
X003259264Y009129363D01*
G01*
X003168342Y009054745D01*
G01*
X003064610Y008999299D01*
G01*
X002952054Y008965156D01*
G01*
X002835000Y008953627D01*
G01*
X002717946Y008965156D01*
G01*
X002605390Y008999299D01*
G01*
X002501658Y009054745D01*
G01*
X002410736Y009129363D01*
G01*
X002336118Y009220285D01*
G01*
X002280672Y009324017D01*
G01*
X002246529Y009436573D01*
G01*
X002235000Y009553627D01*
G01*
X002246529Y009670681D01*
G01*
X002280672Y009783237D01*
G01*
X002336118Y009886969D01*
G01*
X002410736Y009977891D01*
G01*
X002501658Y010052509D01*
G01*
X002605390Y010107954D01*
G01*
X002683836Y010131751D01*
G01*
X002686081Y010154539D01*
G01*
X002707420Y010224886D01*
G01*
X002742074Y010289719D01*
G01*
X002788710Y010346545D01*
G01*
X002839684Y010388379D01*
G01*
X002839303Y010388925D01*
G01*
X003034339Y010525000D01*
G01*
X001503148Y010525000D01*
G01*
X001554135Y010429610D01*
G01*
X001588279Y010317054D01*
G01*
X001599807Y010200000D01*
G01*
X001588279Y010082946D01*
G01*
X001554135Y009970390D01*
G01*
X001498689Y009866658D01*
G01*
X001424072Y009775736D01*
G01*
X001333150Y009701118D01*
G01*
X001319894Y009694032D01*
G01*
X001354328Y009629610D01*
G01*
X001388471Y009517054D01*
G01*
X001400000Y009400000D01*
G01*
X001388471Y009282946D01*
G01*
X001354328Y009170390D01*
G01*
X001298882Y009066658D01*
G01*
X001224264Y008975736D01*
G01*
X001133342Y008901118D01*
G01*
X001029610Y008845672D01*
G01*
X000917054Y008811529D01*
G01*
X000800000Y008800000D01*
G01*
X000682946Y008811529D01*
G01*
X000570390Y008845672D01*
G01*
X000466658Y008901118D01*
G01*
X000375736Y008975736D01*
G01*
X000301118Y009066658D01*
G01*
X000245672Y009170390D01*
G01*
X000211529Y009282946D01*
G01*
X000200000Y009400000D01*
G01*
X000211529Y009517054D01*
G01*
X000245672Y009629610D01*
G01*
X000264243Y009664353D01*
G01*
X000229293Y009645672D01*
G01*
X000116737Y009611529D01*
G01*
X-00000318Y009600000D01*
G01*
X-00117372Y009611529D01*
G01*
X-00229928Y009645672D01*
G01*
X-00333660Y009701118D01*
G01*
X-00424582Y009775736D01*
G01*
X-00499199Y009866658D01*
G01*
X-00500062Y009868273D01*
G01*
X-00500926Y009866658D01*
G01*
X-00575543Y009775736D01*
G01*
X-00624807Y009735306D01*
G01*
X-00624808Y008275000D01*
G01*
X003425000Y008275000D01*
G01*
X003425000Y009335306D01*
G37*
D35*
G36*
X006625000Y015181099D02*
G01*
X006593342Y015155118D01*
G01*
X006489610Y015099672D01*
G01*
X006377054Y015065529D01*
G01*
X006307750Y015058703D01*
G01*
X006172458Y014920108D01*
G01*
X005967681Y014710331D01*
G01*
X005762903Y014500553D01*
G01*
X005558126Y014290776D01*
G01*
X005353349Y014080999D01*
G01*
X005148571Y013871222D01*
G01*
X004943794Y013661444D01*
G01*
X004739017Y013451667D01*
G01*
X004534240Y013241890D01*
G01*
X004329462Y013032112D01*
G01*
X004124685Y012822335D01*
G01*
X003919908Y012612558D01*
G01*
X003715130Y012402781D01*
G01*
X003510353Y012193003D01*
G01*
X003509994Y012193353D01*
G01*
X003506539Y012189143D01*
G01*
X003438347Y012133179D01*
G01*
X003360548Y012091595D01*
G01*
X003340396Y012085482D01*
G01*
X003340930Y012084001D01*
G01*
X001096454Y011275000D01*
G01*
X006625000Y011275000D01*
G01*
X006625000Y015181099D01*
G37*
%ADD36C,0.999998*%
D36*
X-04319905Y022960177D03*
X-04319905Y022960177D02*
X-04319905Y022160178D01*
X-04319905Y022160178D03*
D36*
X004319905Y022960177D03*
X004319905Y022960177D02*
X004319905Y022160178D01*
X004319905Y022160178D03*
D36*
X004319905Y027160168D03*
X004319905Y027160168D02*
X004319905Y025960171D01*
X004319905Y025960171D03*
D36*
X-04319905Y027160168D03*
X-04319905Y027160168D02*
X-04319905Y025960171D01*
X-04319905Y025960171D03*
D10*
X-04319905Y022560177D02*
X-06000000Y021902701D01*
D10*
X-06000000Y021902701D02*
X-06000000Y020100000D01*
D10*
X-06000000Y020100000D02*
X-03600000Y020100000D01*
D10*
X004319905Y022560177D02*
X006000000Y021902701D01*
D10*
X004319905Y026560169D02*
X006000000Y025602719D01*
D10*
X-04319905Y026560169D02*
X-06000000Y025602719D01*
D10*
X004746636Y007500000D02*
X004612587Y007634049D01*
D10*
X004612587Y007634049D02*
X004612587Y007941722D01*
D10*
X004612587Y007941722D02*
X004988982Y008400550D01*
D10*
X004988982Y008400550D02*
X008371000Y011700135D01*
D10*
X008371000Y011700135D02*
X008134907Y014783000D01*
D10*
X003932819Y014794151D02*
X003685268Y015055322D01*
D10*
X003685268Y015055322D02*
X000757986Y015046772D01*
D10*
X000757986Y015046772D02*
X-00000317Y015800000D01*
D10*
X003800000Y009800000D02*
X003800000Y007900000D01*
D10*
X003800000Y007900000D02*
X-00999808Y007900000D01*
D10*
X-00999808Y007900000D02*
X-00999808Y010200000D01*
D10*
X014000000Y-03500002D02*
X014000000Y-06500000D01*
D10*
X014000000Y-06500000D02*
X013000000Y-06500000D01*
D10*
X013000000Y-06500000D02*
X013000000Y-08000000D01*
D10*
X011000000Y006949960D02*
X011000000Y008500000D01*
D10*
X011000000Y008500000D02*
X006253364Y008500000D01*
D10*
X006253364Y008500000D02*
X006253364Y007500000D01*
D11*
X-01999933Y010200000D02*
X-04500002Y014600000D01*
D10*
X-00000318Y010200000D02*
X-00000318Y010900000D01*
D10*
X-00000318Y010900000D02*
X007000000Y010900000D01*
D10*
X007000000Y010900000D02*
X007000000Y022000000D01*
D10*
X007000000Y022000000D02*
X007249938Y024000000D01*
D10*
X017800000Y002750068D02*
X017800000Y-16000000D01*
D10*
X017800000Y-16000000D02*
X-16000000Y-16000000D01*
D10*
X-16000000Y-16000000D02*
X-16000000Y-03400000D01*
D10*
X004958000Y-05542000D02*
X006773904Y-05542000D01*
D10*
X006773904Y-05542000D02*
X015917139Y003601235D01*
D10*
X015917139Y003601235D02*
X015917139Y013165155D01*
D10*
X015917139Y013165155D02*
X015941516Y013266421D01*
D10*
X015941516Y013266421D02*
X015941516Y013367687D01*
D10*
X015941516Y013367687D02*
X015941516Y013468953D01*
D10*
X015941516Y013468953D02*
X015941516Y013570219D01*
D10*
X015941516Y013570219D02*
X015941516Y013671485D01*
D10*
X015941516Y013671485D02*
X015941516Y013772750D01*
D10*
X015941516Y013772750D02*
X015941516Y013874016D01*
D10*
X015941516Y013874016D02*
X015890883Y014127181D01*
D10*
X015890883Y014127181D02*
X015890883Y014532244D01*
D10*
X015890883Y014532244D02*
X015890883Y014937307D01*
D10*
X015890883Y014937307D02*
X015890883Y015342371D01*
D10*
X015890883Y015342371D02*
X015890883Y015747434D01*
D10*
X015890883Y015747434D02*
X015890883Y016152497D01*
D10*
X015890883Y016152497D02*
X015890883Y016557561D01*
D10*
X015890883Y016557561D02*
X015485820Y016557561D01*
D10*
X015485820Y016557561D02*
X015080757Y016557561D01*
D10*
X015080757Y016557561D02*
X015080757Y016962624D01*
D10*
X015080757Y016962624D02*
X014200125Y016962624D01*
D10*
X014200125Y016962624D02*
X014200125Y019000000D01*
D10*
X000999808Y015800000D02*
X000999808Y016800000D01*
D10*
X000999808Y016800000D02*
X-04246636Y016800000D01*
D10*
X-04246636Y016800000D02*
X-04246636Y017400000D01*
D10*
X002000000Y004800000D02*
X000186595Y006613405D01*
D10*
X000186595Y006613405D02*
X-02613405Y006613405D01*
D10*
X-02613405Y006613405D02*
X-03200000Y007200000D01*
D10*
X-02048230Y007200000D02*
X-02649876Y007801646D01*
D10*
X-02649876Y007801646D02*
X-02713901Y007801646D01*
D10*
X-02713901Y007801646D02*
X-03546303Y007801646D01*
D10*
X-03546303Y007801646D02*
X-03755000Y007592949D01*
D10*
X-03755000Y007592949D02*
X-03755000Y006506770D01*
D10*
X-03755000Y006506770D02*
X-02048230Y004800000D01*
D10*
X000657145Y003921357D02*
X007989334Y003741750D01*
D10*
X-06175000Y000275000D02*
X-07149173Y000301391D01*
D10*
X-07149173Y000301391D02*
X-07900000Y001000000D01*
D10*
X-02803000Y-12765000D02*
X-02791417Y-07951051D01*
D10*
X-02791417Y-07951051D02*
X011817526Y006676570D01*
D10*
X011817526Y006676570D02*
X011815284Y018615155D01*
D10*
X011815284Y018615155D02*
X012200129Y019000000D01*
D10*
X008957115Y-13358084D02*
X012450850Y-09590436D01*
D10*
X012450850Y-09590436D02*
X012494775Y-00513366D01*
D10*
X012494775Y-00513366D02*
X016218713Y003196419D01*
D10*
X016218713Y003196419D02*
X016234262Y003448106D01*
D10*
X016234262Y003448106D02*
X016657139Y003637148D01*
D10*
X000000000Y015800000D02*
X-00706367Y015103323D01*
D10*
X-00706367Y015103323D02*
X-05009234Y015148511D01*
D10*
X-05009234Y015148511D02*
X-05325728Y014809640D01*
D10*
X001999933Y015800000D02*
X002026239Y016223787D01*
D10*
X002026239Y016223787D02*
X000876419Y017431405D01*
D10*
X000876419Y017431405D02*
X000669685Y017376951D01*
D10*
X000669685Y017376951D02*
X000246636Y017800000D01*
D10*
X002835000Y009553627D02*
X003099855Y009798541D01*
D10*
X003099855Y009798541D02*
X003210681Y009909368D01*
D10*
X003210681Y009909368D02*
X003053875Y010081380D01*
D10*
X003053875Y010081380D02*
X003775712Y010585000D01*
D10*
X003775712Y010585000D02*
X004807330Y010492000D01*
D10*
X004807330Y010492000D02*
X004875000Y010160000D01*
D10*
X000800000Y019900000D02*
X000800000Y023031000D01*
D10*
X000800000Y023031000D02*
X-01051847Y024882847D01*
D10*
X-01051847Y024882847D02*
X-01183000Y025014000D01*
D13*
X009200000Y-08000000D02*
X009266291Y-07933709D01*
D13*
X009266291Y-07933709D02*
X009275000Y-07925000D01*
D14*
X009275000Y-07925000D02*
X009332583Y-07867417D01*
D15*
X009332583Y-07867417D02*
X009398874Y-07801126D01*
D16*
X009398874Y-07801126D02*
X009465165Y-07734835D01*
D17*
X009465165Y-07734835D02*
X009531456Y-07668544D01*
D18*
X009531456Y-07668544D02*
X009597748Y-07602252D01*
D19*
X009597748Y-07602252D02*
X009664039Y-07535961D01*
D20*
X009664039Y-07535961D02*
X009730330Y-07469670D01*
D20*
X009730330Y-07469670D02*
X010500000Y-06700000D01*
D20*
X010500000Y-06700000D02*
X010500000Y-06249998D01*
D21*
X010500000Y-06249998D02*
X010500000Y-06156248D01*
D22*
X010500000Y-06156248D02*
X010500000Y-06062498D01*
D23*
X010500000Y-06062498D02*
X010500000Y-05968748D01*
D24*
X010500000Y-05968748D02*
X010500000Y-05874998D01*
D25*
X010500000Y-05874998D02*
X010500000Y-05781248D01*
D26*
X010500000Y-05781248D02*
X010500000Y-05687498D01*
D27*
X010500000Y-05687498D02*
X010500000Y-05593748D01*
D10*
X010500000Y-05593748D02*
X010500000Y-05574998D01*
D10*
X010500000Y-05574998D02*
X010500000Y-05499998D01*
D20*
X006335050Y-06669000D02*
X006622892Y-06611108D01*
D20*
X006622892Y-06611108D02*
X006754231Y-06611108D01*
D20*
X006754231Y-06611108D02*
X007865341Y-05499998D01*
D20*
X007865341Y-05499998D02*
X009750000Y-05499998D01*
D21*
X009750000Y-05499998D02*
X009843750Y-05499998D01*
D22*
X009843750Y-05499998D02*
X009937500Y-05499998D01*
D23*
X009937500Y-05499998D02*
X010031250Y-05499998D01*
D24*
X010031250Y-05499998D02*
X010125000Y-05499998D01*
D25*
X010125000Y-05499998D02*
X010218750Y-05499998D01*
D26*
X010218750Y-05499998D02*
X010312500Y-05499998D01*
D27*
X010312500Y-05499998D02*
X010406250Y-05499998D01*
D10*
X010406250Y-05499998D02*
X010425000Y-05499998D01*
D10*
X010425000Y-05499998D02*
X010500000Y-05499998D01*
D12*
X-00800000Y-05200000D02*
X-00800000Y-05039993D01*
D12*
X-00800000Y-05039993D02*
X-00800000Y-04291994D01*
D12*
X-00800000Y-04291994D02*
X-10941994Y005850000D01*
D12*
X-10941994Y005850000D02*
X-12505000Y005850000D01*
D11*
X-12320639Y000416693D02*
X-17298372Y000600000D01*
D11*
X-17298372Y000600000D02*
X-19328877Y002630505D01*
D11*
X-19328877Y002630505D02*
X-19355505Y002630505D01*
D11*
X-19355505Y002630505D02*
X-19500000Y002775000D01*
D11*
X-00999808Y010200000D02*
X-01066099Y010133709D01*
D11*
X-01066099Y010133709D02*
X-01074808Y010125000D01*
D11*
X-01074808Y010125000D02*
X-01132390Y010067417D01*
D11*
X-01132390Y010067417D02*
X-01198681Y010001126D01*
D11*
X-01198681Y010001126D02*
X-01264973Y009934835D01*
D11*
X-01264973Y009934835D02*
X-01331264Y009868544D01*
D11*
X-01331264Y009868544D02*
X-01593000Y009311872D01*
D11*
X-01593000Y009311872D02*
X-01593000Y009016936D01*
D11*
X-01593000Y009016936D02*
X-01593000Y008722000D01*
D11*
X-00999808Y010200000D02*
X-00300000Y011250000D01*
D11*
X-00300000Y011250000D02*
X003188341Y012507341D01*
D11*
X003188341Y012507341D02*
X003393118Y012717118D01*
D11*
X003393118Y012717118D02*
X003597895Y012926895D01*
D11*
X003597895Y012926895D02*
X003802673Y013136673D01*
D11*
X003802673Y013136673D02*
X004007450Y013346450D01*
D11*
X004007450Y013346450D02*
X004212227Y013556227D01*
D11*
X004212227Y013556227D02*
X004417004Y013766004D01*
D11*
X004417004Y013766004D02*
X004621782Y013975782D01*
D11*
X004621782Y013975782D02*
X004826559Y014185559D01*
D11*
X004826559Y014185559D02*
X005031336Y014395336D01*
D11*
X005031336Y014395336D02*
X005236114Y014605114D01*
D11*
X005236114Y014605114D02*
X005440891Y014814891D01*
D11*
X005440891Y014814891D02*
X005645668Y015024668D01*
D11*
X005645668Y015024668D02*
X005850445Y015234445D01*
D11*
X005850445Y015234445D02*
X006055223Y015444223D01*
D11*
X006055223Y015444223D02*
X006260000Y015654000D01*
D11*
X002000000Y019800000D02*
X001858461Y019658461D01*
D11*
X001858461Y019658461D02*
X001716922Y019516922D01*
D11*
X001716922Y019516922D02*
X001575382Y019375382D01*
D11*
X001575382Y019375382D02*
X001573841Y019360000D01*
D11*
X001573841Y019360000D02*
X001287548Y019360000D01*
D11*
X001287548Y019360000D02*
X001200000Y019200000D01*
D11*
X001200000Y019200000D02*
X-00143915Y019360000D01*
D11*
X-00143915Y019360000D02*
X-00450000Y019200000D01*
D11*
X-00450000Y019200000D02*
X-01575378Y019360000D01*
D11*
X-01575378Y019360000D02*
X-01716919Y019506667D01*
D11*
X-01716919Y019506667D02*
X-01858459Y019653333D01*
D11*
X-01858459Y019653333D02*
X-02000000Y019800000D01*
D11*
X-02000000Y019800000D02*
X-02246275Y019800363D01*
D11*
X-02246275Y019800363D02*
X-02492551Y019800726D01*
D11*
X-02492551Y019800726D02*
X-02738826Y019801089D01*
D11*
X-02738826Y019801089D02*
X-02945287Y019599446D01*
D11*
X-02945287Y019599446D02*
X-03151749Y019397804D01*
D11*
X-03151749Y019397804D02*
X-03358210Y019196161D01*
D11*
X-03358210Y019196161D02*
X-03564671Y018994519D01*
D11*
X-03564671Y018994519D02*
X-03771132Y018792876D01*
D11*
X-03771132Y018792876D02*
X-03977593Y018591233D01*
D11*
X-03977593Y018591233D02*
X-04184055Y018389591D01*
D11*
X-04184055Y018389591D02*
X-04390516Y018187948D01*
D11*
X-04390516Y018187948D02*
X-04875000Y017850000D01*
D11*
X-04875000Y017850000D02*
X-04875000Y016950000D01*
D11*
X-04875000Y016950000D02*
X-04805744Y016887744D01*
D11*
X-04805744Y016887744D02*
X-04500000Y016350000D01*
D11*
X-04500000Y016350000D02*
X-04303803Y016356775D01*
D11*
X-04303803Y016356775D02*
X-04019359Y016363502D01*
D11*
X-04019359Y016363502D02*
X-03734915Y016370230D01*
D11*
X-03734915Y016370230D02*
X-03450471Y016376957D01*
D11*
X-03450471Y016376957D02*
X-03166027Y016383684D01*
D11*
X-03166027Y016383684D02*
X-02881583Y016390412D01*
D11*
X-02881583Y016390412D02*
X-02597139Y016397139D01*
D11*
X-02597139Y016397139D02*
X-02398093Y016198093D01*
D11*
X-02398093Y016198093D02*
X-02199046Y015999046D01*
D11*
X-02199046Y015999046D02*
X-02000000Y015800000D01*
D11*
X-02300000Y006000000D02*
X-02225000Y006000000D01*
D11*
X-02225000Y006000000D02*
X-02206250Y006000000D01*
D11*
X-02206250Y006000000D02*
X-02112500Y006000000D01*
D11*
X-02112500Y006000000D02*
X-02018750Y006000000D01*
D11*
X-02018750Y006000000D02*
X-01925000Y006000000D01*
D11*
X-01925000Y006000000D02*
X-01831250Y006000000D01*
D11*
X-01831250Y006000000D02*
X-01756978Y006000000D01*
D11*
X-01756978Y006000000D02*
X-01743205Y005986227D01*
D11*
X-01743205Y005986227D02*
X-01676914Y005919936D01*
D11*
X-01676914Y005919936D02*
X-01610622Y005853644D01*
D11*
X-01610622Y005853644D02*
X-00019702Y004262724D01*
D11*
X-00019702Y004262724D02*
X-00019702Y004119702D01*
D11*
X-00019702Y004119702D02*
X000000000Y005775000D01*
D11*
X002000000Y019800000D02*
X002181667Y019618333D01*
D11*
X002181667Y019618333D02*
X002363333Y019436667D01*
D11*
X002363333Y019436667D02*
X002545000Y019255000D01*
D11*
X002545000Y019255000D02*
X002835143Y019255000D01*
D11*
X002835143Y019255000D02*
X003125286Y019255000D01*
D11*
X003125286Y019255000D02*
X003300000Y019050000D01*
D11*
X003300000Y019050000D02*
X004576000Y019255000D01*
D11*
X-01600000Y000000000D02*
X-01644508Y000044508D01*
D11*
X-01644508Y000044508D02*
X-01644508Y000125005D01*
D11*
X-01644508Y000125005D02*
X-01482573Y000286941D01*
D11*
X-01482573Y000286941D02*
X-01320637Y000448876D01*
D11*
X-01320637Y000448876D02*
X-01158701Y000610812D01*
D11*
X-01158701Y000610812D02*
X-00996765Y000772748D01*
D11*
X-00996765Y000772748D02*
X-00974753Y000856184D01*
D11*
X-00974753Y000856184D02*
X-00972485Y001153004D01*
D11*
X-00972485Y001153004D02*
X-00970218Y001449823D01*
D11*
X-00970218Y001449823D02*
X-00967950Y001746643D01*
D11*
X-00967950Y001746643D02*
X-00965682Y002043462D01*
D11*
X-00965682Y002043462D02*
X-00963415Y002340281D01*
D11*
X-00963415Y002340281D02*
X-00961147Y002637101D01*
D11*
X-00961147Y002637101D02*
X-00750000Y003000000D01*
D11*
X-00750000Y003000000D02*
X-00949809Y004121197D01*
D11*
X-00949809Y004121197D02*
X-00947541Y004418017D01*
D11*
X-00947541Y004418017D02*
X-00945274Y004714836D01*
D11*
X-00945274Y004714836D02*
X-01138806Y004898431D01*
D11*
X-01138806Y004898431D02*
X-01332338Y005082026D01*
D11*
X-01332338Y005082026D02*
X-01350000Y005250000D01*
D11*
X-01350000Y005250000D02*
X-01912935Y005632810D01*
D11*
X-01912935Y005632810D02*
X-02106468Y005816405D01*
D11*
X-02106468Y005816405D02*
X-02300000Y006000000D01*
D11*
X-02000000Y015800000D02*
X-04650000Y015600000D01*
D11*
X-04650000Y015600000D02*
X-05550000Y015450000D01*
D11*
X-05550000Y015450000D02*
X-06000000Y015000000D01*
D11*
X-06000000Y015000000D02*
X-05971609Y014081431D01*
D11*
X-05971609Y014081431D02*
X-05929236Y013815299D01*
D11*
X-05929236Y013815299D02*
X-05886863Y013549167D01*
D11*
X-05886863Y013549167D02*
X-05844489Y013283035D01*
D11*
X-05844489Y013283035D02*
X-05802116Y013016903D01*
D11*
X-05802116Y013016903D02*
X-05759743Y012750772D01*
D11*
X-05759743Y012750772D02*
X-05560244Y012534556D01*
D11*
X-05560244Y012534556D02*
X-05360745Y012318340D01*
D11*
X-05360745Y012318340D02*
X-05161245Y012102124D01*
D11*
X-05161245Y012102124D02*
X-04961746Y011885908D01*
D11*
X-04961746Y011885908D02*
X-04762247Y011669692D01*
D11*
X-04762247Y011669692D02*
X-04562747Y011453476D01*
D11*
X-04562747Y011453476D02*
X-04363248Y011237260D01*
D11*
X-04363248Y011237260D02*
X-04163749Y011021044D01*
D11*
X-04163749Y011021044D02*
X-03964250Y010804828D01*
D11*
X-03964250Y010804828D02*
X-03764750Y010588612D01*
D11*
X-03764750Y010588612D02*
X-03565251Y010372396D01*
D11*
X-03565251Y010372396D02*
X-03365752Y010156180D01*
D11*
X-03365752Y010156180D02*
X-03166252Y009939964D01*
D11*
X-03166252Y009939964D02*
X-02966753Y009723748D01*
D11*
X-02966753Y009723748D02*
X-02767254Y009507532D01*
D11*
X-02767254Y009507532D02*
X-02567755Y009291316D01*
D10*
X-08000000Y004800000D02*
X-08000000Y005500000D01*
D10*
X-08000000Y005500000D02*
X-07500000Y006000000D01*
D10*
X001999933Y010246766D02*
X002078668Y009823304D01*
D10*
X002078668Y009823304D02*
X002254626Y009622991D01*
D10*
X002254626Y009622991D02*
X001353062Y008831043D01*
D10*
X001353062Y008831043D02*
X001881028Y008230000D01*
D10*
X001881028Y008230000D02*
X002782519Y009021207D01*
D10*
X002782519Y009021207D02*
X003200000Y008546766D01*
D10*
X006253000Y007500000D02*
X006835000Y006918000D01*
D10*
X006835000Y006918000D02*
X006835078Y004830341D01*
D10*
X-07500000Y008500000D02*
X-07500000Y006000000D01*
D10*
X-05253000Y004400000D02*
X-06853000Y006000000D01*
D10*
X-06853000Y006000000D02*
X-07500000Y006000000D01*
D10*
X-14999998Y-03000000D02*
X-15174811Y-03000000D01*
D10*
X-15174811Y-03000000D02*
X-16465335Y-01709476D01*
D10*
X-16465335Y-01709476D02*
X-16665524Y-01709476D01*
D10*
X-16665524Y-01709476D02*
X-16740000Y-01675000D01*
D10*
X006000000Y021903000D02*
X003897000Y019800000D01*
D10*
X003897000Y019800000D02*
X003600000Y019800000D01*
D10*
X006253364Y007500000D02*
X005758579Y007005215D01*
D10*
X005758579Y007005215D02*
X005705930Y006960002D01*
D10*
X005705930Y006960002D02*
X004227785Y006960002D01*
D10*
X004227785Y006960002D02*
X003783404Y007151542D01*
D10*
X006000000Y021902701D02*
X006442692Y022345394D01*
D10*
X006442692Y022345394D02*
X006178398Y022903623D01*
D10*
X006000000Y021902701D02*
X006000000Y025602719D01*
D10*
X-01500000Y003300000D02*
X-04153000Y003300000D01*
D10*
X-04153000Y003300000D02*
X-05253000Y004400000D01*
D10*
X-09411000Y-03823000D02*
X-09476081Y-03757919D01*
D10*
X-09476081Y-03757919D02*
X-09476081Y-03741424D01*
D10*
X-09476081Y-03741424D02*
X-07800000Y-02065343D01*
D10*
X-07800000Y-02065343D02*
X-07800000Y000000000D01*
D10*
X009600000Y018930000D02*
X009698903Y019028903D01*
D10*
X009698903Y019028903D02*
X009750966Y019028903D01*
D10*
X009750966Y019028903D02*
X010096064Y019374000D01*
D10*
X010096064Y019374000D02*
X011668137Y019451518D01*
D10*
X011668137Y019451518D02*
X011892106Y019564969D01*
D10*
X011892106Y019564969D02*
X012137000Y019540000D01*
D10*
X012137000Y019540000D02*
X012344970Y019556059D01*
D10*
X012344970Y019556059D02*
X012636504Y019527971D01*
D10*
X012636504Y019527971D02*
X012829972Y019311406D01*
D10*
X012829972Y019311406D02*
X013137959Y019000000D01*
D10*
X013137959Y019000000D02*
X013200127Y019000000D01*
D10*
X-03600000Y020100000D02*
X-03600000Y019800000D01*
D10*
X-03600000Y019800000D02*
X-07400000Y016000000D01*
D10*
X013000000Y-08000000D02*
X014601000Y-08000000D01*
D10*
X014601000Y-08000000D02*
X015902939Y-09301939D01*
D10*
X015902939Y-09301939D02*
X015950000Y-09349000D01*
D10*
X-18636000Y007742000D02*
X-18577337Y007683337D01*
D10*
X-18577337Y007683337D02*
X-17504000Y006610000D01*
D10*
X-17504000Y006610000D02*
X-17364000Y005880000D01*
D10*
X-06000000Y025602719D02*
X-07400000Y024202719D01*
D10*
X-07400000Y024202719D02*
X-07400000Y016000000D01*
D34*
X-03600000Y020100000D03*
D34*
X-02000000Y019800000D03*
D34*
X-00800000Y019900000D03*
D34*
X000800000Y019900000D03*
D34*
X002000000Y019800000D03*
D34*
X003600000Y019800000D03*
D34*
X-01999933Y010200000D03*
D34*
X-00999808Y010200000D03*
D34*
X-00000317Y010200000D03*
D34*
X000999808Y010200000D03*
D34*
X001999933Y010200000D03*
D34*
X001999933Y015800000D03*
D34*
X000999808Y015800000D03*
D34*
X-00000317Y015800000D03*
D34*
X-01999933Y015800000D03*
D34*
X-02500000Y013000000D03*
D34*
X006253364Y007500000D03*
D34*
X004746636Y007500000D03*
D34*
X008134907Y014783000D03*
D34*
X003932819Y014794151D03*
D34*
X003800000Y009800000D03*
D34*
X005200000Y013200000D03*
D34*
X-07400000Y016000000D03*
D34*
X000246636Y017800000D03*
D34*
X001753364Y018200000D03*
D34*
X009200000Y-08000000D03*
D34*
X013000000Y-08000000D03*
D34*
X010500000Y-05499998D03*
D34*
X014000000Y-03500002D03*
D34*
X014200125Y019000000D03*
D34*
X013200127Y019000000D03*
D34*
X012200129Y019000000D03*
D34*
X-01500000Y003300000D03*
D34*
X003000000Y001500000D03*
D34*
X-13000000Y003000000D03*
D34*
X-08000000Y004800000D03*
D34*
X-07800000Y000000000D03*
D34*
X-07500000Y006000000D03*
D34*
X-07500000Y008500000D03*
D34*
X-14999998Y-03000000D03*
D34*
X-07900000Y001000000D03*
D34*
X-20100000Y000000000D03*
D34*
X002000000Y004800000D03*
D34*
X002300000Y006000000D03*
D34*
X-02000000Y007200000D03*
D34*
X-02300000Y006000000D03*
D34*
X-02000000Y004800000D03*
D34*
X000800000Y009400000D03*
D34*
X003200000Y008500000D03*
D34*
X-05253364Y004400000D03*
D34*
X011000000Y006949960D03*
D34*
X-04500002Y014600000D03*
D34*
X007249938Y024000000D03*
D34*
X017800000Y002750068D03*
D34*
X-16000000Y-03400000D03*
D34*
X004958000Y-05542000D03*
D34*
X-04246636Y017400000D03*
D34*
X-03200000Y007200000D03*
D34*
X000657145Y003921357D03*
D34*
X007989334Y003741750D03*
D34*
X-06175000Y000275000D03*
D34*
X-02803000Y-12765000D03*
D34*
X008957115Y-13358084D03*
D34*
X016657139Y003637148D03*
D34*
X-05325728Y014809640D03*
D34*
X002835000Y009553627D03*
D34*
X004875000Y010160000D03*
D34*
X-01183000Y025014000D03*
D34*
X006335050Y-06669000D03*
D34*
X-00800000Y-05200000D03*
D34*
X-12505000Y005850000D03*
D34*
X-12320639Y000416693D03*
D34*
X-19500000Y002775000D03*
D34*
X-01593000Y008722000D03*
D34*
X006260000Y015654000D03*
D34*
X000000000Y005775000D03*
D34*
X004576000Y019255000D03*
D34*
X-01600000Y000000000D03*
D34*
X-02567755Y009291316D03*
D34*
X006835078Y004830341D03*
D34*
X-16740000Y-01675000D03*
D34*
X003783404Y007151542D03*
D34*
X006178398Y022903623D03*
D34*
X-09411000Y-03823000D03*
D34*
X009600000Y018930000D03*
D34*
X015950000Y-09349000D03*
D34*
X-18636000Y007742000D03*
D34*
X-17364000Y005880000D03*
%LPC*%
D31*
X022300012Y-09349833D03*
%LPD*%
%LPC*%
D31*
X022300012Y-07649811D03*
%LPD*%
%LPC*%
D32*
X021756164Y003500130D03*
%LPD*%
%LPC*%
D32*
X021756164Y006500124D03*
%LPD*%
%LPC*%
D33*
X-21000000Y025000000D03*
%LPD*%
%LPC*%
D33*
X021000000Y025000000D03*
%LPD*%
%LPC*%
D33*
X-21000000Y-14000000D03*
%LPD*%
%LPC*%
D33*
X021000000Y-14000000D03*
%LPD*%
M02*