%TF.GenerationSoftware,tscircuit,circuit-json-to-gerber,0.0.109*%
%TF.CreationDate,2026-10-06T05:33:59.808Z*%
%TF.SameCoordinates,Original*%
%TF.FileFunction,Copper,L2,Bot*%
%TF.FilePolarity,Positive*%
%FSLAX46Y46*%
%MOMM*%
G04 Gerber Fmt 4.6, Leading zero omitted, Abs format (unit mm)*
G04 Created by tscircuit (builder) date 2026-10-06T05:33:59.808Z*
G01*
%LPD*%
G75*
G04 APERTURE MACROS START*
%AMHORZPILL*
0 Horizontal pill (stadium) shape macro*
0 Parameters:*
0 $1 = Total width*
0 $2 = Total height*
0 $3 = Circle diameter (equal to height)*
0 $4 = Circle center offset
0 21 = Center Line(Exposure, Width, Height, Center X, Center Y, Rotation)*
0 1 = Circle(Exposure, Diameter, Center X, Center Y, Rotation)*
21,1,$1-$3,$2,0.0,0.0,0.0*
1,1,$3,0.0-$4,0.0*
1,1,$3,$4,0.0*%
%AMVERTPILL*
0 Vertical pill (stadium) shape macro*
0 Parameters:*
0 $1 = Total width*
0 $2 = Total height*
0 $3 = Circle diameter (equal to width)*
0 $4 = Circle center offset
0 21 = Center Line(Exposure, Width, Height, Center X, Center Y, Rotation)*
21,1,$1,$2-$3,0.0,0.0,0.0*
1,1,$3,0.0,0.0-$4*
1,1,$3,0.0,$4*%
%AMROUNDRECT*
0 Rectangle with rounded corners*
0 $1 Corner radius*
0 $2 $3 $4 $5 $6 $7 $8 $9 X,Y Position of each corner*
0 Polygon box body*
4,1,4,$2,$3,$4,$5,$6,$7,$8,$9,$2,$3,0*
0 Circles for rounded corners*
1,1,$1+$1,$2,$3*
1,1,$1+$1,$4,$5*
1,1,$1+$1,$6,$7*
1,1,$1+$1,$8,$9*
0 Rectangles between the rounded corners*
20,1,$1+$1,$2,$3,$4,$5,0*
20,1,$1+$1,$4,$5,$6,$7,0*
20,1,$1+$1,$6,$7,$8,$9,0*
20,1,$1+$1,$8,$9,$2,$3,0*%
G04 APERTURE MACROS END*
G04 aperture START LIST*
%ADD10C,0.150000*%
%ADD11C,0.300000*%
%ADD12C,0.500000*%
%ADD13C,0.200000*%
%ADD14C,0.152778*%
%ADD15C,0.166667*%
%ADD16C,0.180556*%
%ADD17C,0.194444*%
%ADD18C,0.208333*%
%ADD19C,0.222222*%
%ADD20C,0.236111*%
%ADD21C,0.250000*%
%ADD22C,0.244487*%
%ADD23C,0.238974*%
%ADD24C,0.233460*%
%ADD25C,0.227947*%
%ADD26C,0.222434*%
%ADD27C,0.216921*%
%ADD28C,0.212132*%
%ADD29C,0.162000*%
%ADD30VERTPILL,0.999998X1.799996X0.999998X0.399999*%
%ADD31VERTPILL,0.999998X2.199996X0.999998X0.599999*%
%ADD32C,0.700024*%
%ADD33C,0.900024*%
%ADD34C,2.200000*%
%ADD35C,0.600000*%
%ADD36C,0.001000*%
%TD*%
G04 aperture END LIST*
D36*
G36*
X020700000Y-15800000D02*
G01*
X017200000Y-15800000D01*
G01*
X017200000Y-12200000D01*
G01*
X020700000Y-12200000D01*
G01*
X020700000Y-09858406D01*
G01*
X020661139Y-09890298D01*
G01*
X020548761Y-09950366D01*
G01*
X020426823Y-09987355D01*
G01*
X020300012Y-09999845D01*
G01*
X020173201Y-09987355D01*
G01*
X020051263Y-09950366D01*
G01*
X019938885Y-09890298D01*
G01*
X019840384Y-09809461D01*
G01*
X019759547Y-09710961D01*
G01*
X019699479Y-09598582D01*
G01*
X019662490Y-09476644D01*
G01*
X019650000Y-09349833D01*
G01*
X019662490Y-09223022D01*
G01*
X019699479Y-09101084D01*
G01*
X019759547Y-08988706D01*
G01*
X019840384Y-08890205D01*
G01*
X019938885Y-08809368D01*
G01*
X020051263Y-08749300D01*
G01*
X020173201Y-08712311D01*
G01*
X020300012Y-08699821D01*
G01*
X020426823Y-08712311D01*
G01*
X020548761Y-08749300D01*
G01*
X020661139Y-08809368D01*
G01*
X020700000Y-08841260D01*
G01*
X020700000Y-08158384D01*
G01*
X020661139Y-08190276D01*
G01*
X020548761Y-08250344D01*
G01*
X020426823Y-08287333D01*
G01*
X020300012Y-08299823D01*
G01*
X020173201Y-08287333D01*
G01*
X020051263Y-08250344D01*
G01*
X019938885Y-08190276D01*
G01*
X019840384Y-08109439D01*
G01*
X019759547Y-08010939D01*
G01*
X019699479Y-07898560D01*
G01*
X019662490Y-07776622D01*
G01*
X019650000Y-07649811D01*
G01*
X019662490Y-07523000D01*
G01*
X019699479Y-07401062D01*
G01*
X019759547Y-07288684D01*
G01*
X019840384Y-07190183D01*
G01*
X019938885Y-07109346D01*
G01*
X020051263Y-07049278D01*
G01*
X020173201Y-07012289D01*
G01*
X020300012Y-06999799D01*
G01*
X020426823Y-07012289D01*
G01*
X020548761Y-07049278D01*
G01*
X020661139Y-07109346D01*
G01*
X020700000Y-07141238D01*
G01*
X020700000Y002500130D01*
G01*
X018756164Y002500130D01*
G01*
X018756164Y004500130D01*
G01*
X020700000Y004500130D01*
G01*
X020700000Y005500124D01*
G01*
X018756164Y005500124D01*
G01*
X018756164Y007500124D01*
G01*
X020700000Y007500124D01*
G01*
X020700000Y023200000D01*
G01*
X017200000Y023200000D01*
G01*
X017200000Y026700000D01*
G01*
X-17200000Y026700000D01*
G01*
X-17200000Y023200000D01*
G01*
X-20700000Y023200000D01*
G01*
X-20700000Y-12200000D01*
G01*
X-17200000Y-12200000D01*
G01*
X-17200000Y-15800000D01*
G01*
X-20700000Y-15800000D01*
G01*
X-20700000Y-18700000D01*
G01*
X020700000Y-18700000D01*
G01*
X020700000Y-15800000D01*
G37*
%LPC*%
D36*
G36*
X002000000Y004200000D02*
G01*
X002117054Y004211529D01*
G01*
X002229610Y004245672D01*
G01*
X002333342Y004301118D01*
G01*
X002424264Y004375736D01*
G01*
X002498882Y004466658D01*
G01*
X002554328Y004570390D01*
G01*
X002588471Y004682946D01*
G01*
X002600000Y004800000D01*
G01*
X002588471Y004917054D01*
G01*
X002554328Y005029610D01*
G01*
X002498882Y005133342D01*
G01*
X002424264Y005224264D01*
G01*
X002333342Y005298882D01*
G01*
X002229610Y005354328D01*
G01*
X002117054Y005388471D01*
G01*
X002000000Y005400000D01*
G01*
X001936577Y005393753D01*
G01*
X000451760Y006878570D01*
G01*
X000394934Y006925206D01*
G01*
X000330102Y006959860D01*
G01*
X000259754Y006981199D01*
G01*
X000186595Y006988405D01*
G01*
X-01440207Y006988405D01*
G01*
X-01411529Y007082946D01*
G01*
X-01400000Y007200000D01*
G01*
X-01411529Y007317054D01*
G01*
X-01445672Y007429610D01*
G01*
X-01501118Y007533342D01*
G01*
X-01575736Y007624264D01*
G01*
X-01666658Y007698882D01*
G01*
X-01770390Y007754328D01*
G01*
X-01882946Y007788471D01*
G01*
X-02000000Y007800000D01*
G01*
X-02117054Y007788471D01*
G01*
X-02229610Y007754328D01*
G01*
X-02333342Y007698882D01*
G01*
X-02424264Y007624264D01*
G01*
X-02498882Y007533342D01*
G01*
X-02554328Y007429610D01*
G01*
X-02588471Y007317054D01*
G01*
X-02600000Y007200000D01*
G01*
X-02588471Y007082946D01*
G01*
X-02580496Y007056657D01*
G01*
X-02802163Y007221962D01*
G01*
X-02811529Y007317054D01*
G01*
X-02845672Y007429610D01*
G01*
X-02901118Y007533342D01*
G01*
X-02975736Y007624264D01*
G01*
X-03046445Y007682294D01*
G01*
X-03013191Y007685569D01*
G01*
X-02928774Y007711177D01*
G01*
X-02850975Y007752761D01*
G01*
X-02785135Y007806796D01*
G01*
X-02784932Y007806590D01*
G01*
X-02574815Y008013898D01*
G01*
X-02364698Y008221206D01*
G01*
X-02154580Y008428513D01*
G01*
X-01944463Y008635821D01*
G01*
X-01734345Y008843129D01*
G01*
X-01524228Y009050437D01*
G01*
X-01414811Y009158391D01*
G01*
X-01412209Y009158647D01*
G01*
X-01374807Y009169992D01*
G01*
X-01374808Y007900000D01*
G01*
X-01374807Y007900000D01*
G01*
X-01367602Y007826841D01*
G01*
X-01346262Y007756494D01*
G01*
X-01311609Y007691661D01*
G01*
X-01264973Y007634835D01*
G01*
X-01208146Y007588199D01*
G01*
X-01143314Y007553545D01*
G01*
X-01072966Y007532206D01*
G01*
X-00999808Y007525000D01*
G01*
X003800000Y007525000D01*
G01*
X003873159Y007532206D01*
G01*
X003943506Y007553545D01*
G01*
X004008339Y007588199D01*
G01*
X004065165Y007634835D01*
G01*
X004111801Y007691661D01*
G01*
X004146455Y007756494D01*
G01*
X004167794Y007826841D01*
G01*
X004175000Y007900000D01*
G01*
X004175000Y009335306D01*
G01*
X004224264Y009375736D01*
G01*
X004298882Y009466658D01*
G01*
X004354328Y009570390D01*
G01*
X004388471Y009682946D01*
G01*
X004400000Y009800000D01*
G01*
X004388471Y009917054D01*
G01*
X004354328Y010029610D01*
G01*
X004298882Y010133342D01*
G01*
X004224264Y010224264D01*
G01*
X004133342Y010298882D01*
G01*
X004029610Y010354328D01*
G01*
X003917054Y010388471D01*
G01*
X003800000Y010400000D01*
G01*
X003682946Y010388471D01*
G01*
X003570390Y010354328D01*
G01*
X003466658Y010298882D01*
G01*
X003375736Y010224264D01*
G01*
X003301118Y010133342D01*
G01*
X003245672Y010029610D01*
G01*
X003211529Y009917054D01*
G01*
X003200000Y009800000D01*
G01*
X003211529Y009682946D01*
G01*
X003245672Y009570390D01*
G01*
X003301118Y009466658D01*
G01*
X003375736Y009375736D01*
G01*
X003425000Y009335306D01*
G01*
X003425000Y008275000D01*
G01*
X-00624808Y008275000D01*
G01*
X-00624807Y009735306D01*
G01*
X-00575543Y009775736D01*
G01*
X-00500926Y009866658D01*
G01*
X-00500062Y009868273D01*
G01*
X-00499199Y009866658D01*
G01*
X-00424582Y009775736D01*
G01*
X-00333660Y009701118D01*
G01*
X-00229928Y009645672D01*
G01*
X-00117372Y009611529D01*
G01*
X-00000318Y009600000D01*
G01*
X000116737Y009611529D01*
G01*
X000229293Y009645672D01*
G01*
X000264243Y009664353D01*
G01*
X000245672Y009629610D01*
G01*
X000211529Y009517054D01*
G01*
X000200000Y009400000D01*
G01*
X000211529Y009282946D01*
G01*
X000245672Y009170390D01*
G01*
X000301118Y009066658D01*
G01*
X000375736Y008975736D01*
G01*
X000466658Y008901118D01*
G01*
X000570390Y008845672D01*
G01*
X000682946Y008811529D01*
G01*
X000800000Y008800000D01*
G01*
X000917054Y008811529D01*
G01*
X001029610Y008845672D01*
G01*
X001133342Y008901118D01*
G01*
X001224264Y008975736D01*
G01*
X001298882Y009066658D01*
G01*
X001354328Y009170390D01*
G01*
X001388471Y009282946D01*
G01*
X001400000Y009400000D01*
G01*
X001388471Y009517054D01*
G01*
X001354328Y009629610D01*
G01*
X001319894Y009694032D01*
G01*
X001333150Y009701118D01*
G01*
X001424072Y009775736D01*
G01*
X001498689Y009866658D01*
G01*
X001554135Y009970390D01*
G01*
X001588279Y010082946D01*
G01*
X001599807Y010200000D01*
G01*
X001588279Y010317054D01*
G01*
X001554135Y010429610D01*
G01*
X001498689Y010533342D01*
G01*
X001424072Y010624264D01*
G01*
X001374907Y010664613D01*
G01*
X001374920Y010725000D01*
G01*
X005544274Y010725000D01*
G01*
X005511529Y010617054D01*
G01*
X005500000Y010500000D01*
G01*
X005511529Y010382946D01*
G01*
X005545672Y010270390D01*
G01*
X005601118Y010166658D01*
G01*
X005675736Y010075736D01*
G01*
X005766658Y010001118D01*
G01*
X005870390Y009945672D01*
G01*
X005982946Y009911529D01*
G01*
X005999085Y009909939D01*
G01*
X004727109Y008668966D01*
G01*
X004727407Y008668661D01*
G01*
X004723817Y008665715D01*
G01*
X004700452Y008637244D01*
G01*
X004699056Y008638389D01*
G01*
X004322660Y008179561D01*
G01*
X004324056Y008178416D01*
G01*
X004300786Y008150061D01*
G01*
X004266132Y008085228D01*
G01*
X004244793Y008014881D01*
G01*
X004237587Y007941722D01*
G01*
X004237587Y007814321D01*
G01*
X004192308Y007729610D01*
G01*
X004158165Y007617054D01*
G01*
X004146636Y007500000D01*
G01*
X004158165Y007382946D01*
G01*
X004192308Y007270390D01*
G01*
X004247754Y007166658D01*
G01*
X004322372Y007075736D01*
G01*
X004413294Y007001118D01*
G01*
X004517026Y006945672D01*
G01*
X004629582Y006911529D01*
G01*
X004746636Y006900000D01*
G01*
X004863690Y006911529D01*
G01*
X004976246Y006945672D01*
G01*
X005079978Y007001118D01*
G01*
X005170900Y007075736D01*
G01*
X005245518Y007166658D01*
G01*
X005300964Y007270390D01*
G01*
X005335107Y007382946D01*
G01*
X005346636Y007500000D01*
G01*
X005335107Y007617054D01*
G01*
X005300964Y007729610D01*
G01*
X005245518Y007833342D01*
G01*
X005170900Y007924264D01*
G01*
X005118547Y007967229D01*
G01*
X005265729Y008146644D01*
G01*
X008632874Y011431719D01*
G01*
X008632576Y011432025D01*
G01*
X008636165Y011434970D01*
G01*
X008682801Y011491796D01*
G01*
X008717455Y011556629D01*
G01*
X008738794Y011626976D01*
G01*
X008746000Y011700135D01*
G01*
X008743193Y011728638D01*
G01*
X008744905Y011728769D01*
G01*
X008544423Y014346633D01*
G01*
X008559171Y014358736D01*
G01*
X008633789Y014449658D01*
G01*
X008689235Y014553390D01*
G01*
X008723378Y014665946D01*
G01*
X008734907Y014783000D01*
G01*
X008723378Y014900054D01*
G01*
X008689235Y015012610D01*
G01*
X008633789Y015116342D01*
G01*
X008559171Y015207264D01*
G01*
X008468249Y015281882D01*
G01*
X008364517Y015337328D01*
G01*
X008251961Y015371471D01*
G01*
X008134907Y015383000D01*
G01*
X008017853Y015371471D01*
G01*
X007905297Y015337328D01*
G01*
X007801565Y015281882D01*
G01*
X007710643Y015207264D01*
G01*
X007636025Y015116342D01*
G01*
X007580579Y015012610D01*
G01*
X007546436Y014900054D01*
G01*
X007534907Y014783000D01*
G01*
X007546436Y014665946D01*
G01*
X007580579Y014553390D01*
G01*
X007636025Y014449658D01*
G01*
X007710643Y014358736D01*
G01*
X007796709Y014288103D01*
G01*
X007983716Y011846198D01*
G01*
X006691574Y010585550D01*
G01*
X006688471Y010617054D01*
G01*
X006654328Y010729610D01*
G01*
X006598882Y010833342D01*
G01*
X006524264Y010924264D01*
G01*
X006475000Y010964694D01*
G01*
X006475000Y011100000D01*
G01*
X006467794Y011173159D01*
G01*
X006446455Y011243506D01*
G01*
X006411801Y011308339D01*
G01*
X006365165Y011365165D01*
G01*
X006308339Y011411801D01*
G01*
X006283645Y011425000D01*
G01*
X007000000Y011425000D01*
G01*
X007073159Y011432206D01*
G01*
X007143506Y011453545D01*
G01*
X007208339Y011488199D01*
G01*
X007265165Y011534835D01*
G01*
X007311801Y011591661D01*
G01*
X007346455Y011656494D01*
G01*
X007367794Y011726841D01*
G01*
X007375000Y011800000D01*
G01*
X007375000Y021976656D01*
G01*
X007564239Y023490940D01*
G01*
X007583280Y023501118D01*
G01*
X007674202Y023575736D01*
G01*
X007748820Y023666658D01*
G01*
X007804266Y023770390D01*
G01*
X007838409Y023882946D01*
G01*
X007849938Y024000000D01*
G01*
X007838409Y024117054D01*
G01*
X007804266Y024229610D01*
G01*
X007748820Y024333342D01*
G01*
X007674202Y024424264D01*
G01*
X007583280Y024498882D01*
G01*
X007479548Y024554328D01*
G01*
X007366992Y024588471D01*
G01*
X007249938Y024600000D01*
G01*
X007132884Y024588471D01*
G01*
X007020328Y024554328D01*
G01*
X006916596Y024498882D01*
G01*
X006825674Y024424264D01*
G01*
X006751056Y024333342D01*
G01*
X006695610Y024229610D01*
G01*
X006661467Y024117054D01*
G01*
X006649938Y024000000D01*
G01*
X006661467Y023882946D01*
G01*
X006695610Y023770390D01*
G01*
X006751056Y023666658D01*
G01*
X006819883Y023582793D01*
G01*
X006627894Y022046502D01*
G01*
X006629560Y022046294D01*
G01*
X006625000Y022000000D01*
G01*
X006625000Y012175000D01*
G01*
X-00000317Y012175000D01*
G01*
X-00000318Y012175000D01*
G01*
X-00073476Y012167794D01*
G01*
X-00143824Y012146455D01*
G01*
X-00208656Y012111801D01*
G01*
X-00265483Y012065165D01*
G01*
X-00312119Y012008339D01*
G01*
X-00346772Y011943506D01*
G01*
X-00368112Y011873159D01*
G01*
X-00375317Y011800000D01*
G01*
X-00375317Y010664695D01*
G01*
X-00424582Y010624264D01*
G01*
X-00499199Y010533342D01*
G01*
X-00500062Y010531727D01*
G01*
X-00500926Y010533342D01*
G01*
X-00575543Y010624264D01*
G01*
X-00666465Y010698882D01*
G01*
X-00770197Y010754328D01*
G01*
X-00882753Y010788471D01*
G01*
X-00999807Y010800000D01*
G01*
X-01116862Y010788471D01*
G01*
X-01229418Y010754328D01*
G01*
X-01333150Y010698882D01*
G01*
X-01424072Y010624264D01*
G01*
X-01498689Y010533342D01*
G01*
X-01499870Y010531133D01*
G01*
X-01501051Y010533342D01*
G01*
X-01575668Y010624264D01*
G01*
X-01666590Y010698882D01*
G01*
X-01770322Y010754328D01*
G01*
X-01802957Y010764228D01*
G01*
X-03913060Y014477906D01*
G01*
X-03911531Y014482946D01*
G01*
X-03900002Y014600000D01*
G01*
X-03911531Y014717054D01*
G01*
X-03928679Y014773583D01*
G01*
X-00584768Y014833853D01*
G01*
X-00584779Y014834456D01*
G01*
X-00518366Y014840998D01*
G01*
X-00448019Y014862337D01*
G01*
X-00383187Y014896991D01*
G01*
X-00326360Y014943627D01*
G01*
X-00063740Y015206247D01*
G01*
X-00000318Y015200000D01*
G01*
X000065117Y015206445D01*
G01*
X000493712Y014780718D01*
G01*
X000493798Y014780805D01*
G01*
X000549647Y014734971D01*
G01*
X000614479Y014700317D01*
G01*
X000684827Y014678977D01*
G01*
X000757986Y014671772D01*
G01*
X000759081Y014671880D01*
G01*
X000759081Y014671773D01*
G01*
X003344129Y014679324D01*
G01*
X003344348Y014677097D01*
G01*
X003378492Y014564541D01*
G01*
X003433938Y014460809D01*
G01*
X003508555Y014369887D01*
G01*
X003599477Y014295269D01*
G01*
X003703209Y014239823D01*
G01*
X003815765Y014205680D01*
G01*
X003932819Y014194151D01*
G01*
X004049874Y014205680D01*
G01*
X004162430Y014239823D01*
G01*
X004266162Y014295269D01*
G01*
X004357084Y014369887D01*
G01*
X004431701Y014460809D01*
G01*
X004487147Y014564541D01*
G01*
X004521291Y014677097D01*
G01*
X004532819Y014794151D01*
G01*
X004521291Y014911205D01*
G01*
X004487147Y015023761D01*
G01*
X004431701Y015127493D01*
G01*
X004357084Y015218415D01*
G01*
X004266162Y015293033D01*
G01*
X004162430Y015348479D01*
G01*
X004049874Y015382622D01*
G01*
X003932819Y015394151D01*
G01*
X003857010Y015386684D01*
G01*
X003828774Y015401777D01*
G01*
X003758427Y015423117D01*
G01*
X003685268Y015430322D01*
G01*
X003684172Y015430214D01*
G01*
X003684172Y015430321D01*
G01*
X002466073Y015426763D01*
G01*
X002498814Y015466658D01*
G01*
X002554260Y015570390D01*
G01*
X002588404Y015682946D01*
G01*
X002599933Y015800000D01*
G01*
X002588404Y015917054D01*
G01*
X002554260Y016029610D01*
G01*
X002510807Y016110904D01*
G01*
X002591992Y016067510D01*
G01*
X002704548Y016033366D01*
G01*
X002821602Y016021838D01*
G01*
X002938656Y016033366D01*
G01*
X003051212Y016067510D01*
G01*
X003154944Y016122956D01*
G01*
X003245866Y016197574D01*
G01*
X003320483Y016288495D01*
G01*
X003375929Y016392228D01*
G01*
X003410073Y016504783D01*
G01*
X003421602Y016621838D01*
G01*
X003410073Y016738892D01*
G01*
X003375929Y016851448D01*
G01*
X003320483Y016955180D01*
G01*
X003245866Y017046102D01*
G01*
X003229725Y017059349D01*
G01*
X003210529Y017249511D01*
G01*
X003181130Y017540750D01*
G01*
X003151731Y017831988D01*
G01*
X003122332Y018123227D01*
G01*
X003092933Y018414466D01*
G01*
X003071277Y018629000D01*
G01*
X005207095Y018629000D01*
G01*
X005266658Y018580118D01*
G01*
X005370390Y018524672D01*
G01*
X005482946Y018490529D01*
G01*
X005600000Y018479000D01*
G01*
X005717054Y018490529D01*
G01*
X005829610Y018524672D01*
G01*
X005933342Y018580118D01*
G01*
X006024264Y018654736D01*
G01*
X006098882Y018745658D01*
G01*
X006154328Y018849390D01*
G01*
X006188471Y018961946D01*
G01*
X006200000Y019079000D01*
G01*
X006188471Y019196054D01*
G01*
X006154328Y019308610D01*
G01*
X006098882Y019412342D01*
G01*
X006024264Y019503264D01*
G01*
X005933342Y019577882D01*
G01*
X005829610Y019633328D01*
G01*
X005717054Y019667471D01*
G01*
X005600000Y019679000D01*
G01*
X005482946Y019667471D01*
G01*
X005370390Y019633328D01*
G01*
X005266658Y019577882D01*
G01*
X005207095Y019529000D01*
G01*
X002907396Y019529000D01*
G01*
X002848528Y019587868D01*
G01*
X002689539Y019746857D01*
G01*
X002649654Y019786742D01*
G01*
X002596024Y019840372D01*
G01*
X002588471Y019917054D01*
G01*
X002554328Y020029610D01*
G01*
X002498882Y020133342D01*
G01*
X002450000Y020192905D01*
G01*
X002450000Y020800000D01*
G01*
X002441353Y020887791D01*
G01*
X002415746Y020972208D01*
G01*
X002374161Y021050007D01*
G01*
X002318198Y021118198D01*
G01*
X002250007Y021174161D01*
G01*
X002172208Y021215746D01*
G01*
X002087791Y021241353D01*
G01*
X002000000Y021250000D01*
G01*
X-02000000Y021250000D01*
G01*
X-02087791Y021241353D01*
G01*
X-02172208Y021215746D01*
G01*
X-02250007Y021174161D01*
G01*
X-02318198Y021118198D01*
G01*
X-02374161Y021050007D01*
G01*
X-02415746Y020972208D01*
G01*
X-02441353Y020887791D01*
G01*
X-02450000Y020800000D01*
G01*
X-02450000Y020192905D01*
G01*
X-02498882Y020133342D01*
G01*
X-02554328Y020029610D01*
G01*
X-02588471Y019917054D01*
G01*
X-02600000Y019800000D01*
G01*
X-02588471Y019682946D01*
G01*
X-02554328Y019570390D01*
G01*
X-02498882Y019466658D01*
G01*
X-02424264Y019375736D01*
G01*
X-02333342Y019301118D01*
G01*
X-02229610Y019245672D01*
G01*
X-02117054Y019211529D01*
G01*
X-02000000Y019200000D01*
G01*
X-01882946Y019211529D01*
G01*
X-01770390Y019245672D01*
G01*
X-01666658Y019301118D01*
G01*
X-01575736Y019375736D01*
G01*
X-01501118Y019466658D01*
G01*
X-01445672Y019570390D01*
G01*
X-01411529Y019682946D01*
G01*
X-01400000Y019800000D01*
G01*
X-01411529Y019917054D01*
G01*
X-01445672Y020029610D01*
G01*
X-01501118Y020133342D01*
G01*
X-01550000Y020192905D01*
G01*
X-01550000Y020350000D01*
G01*
X-01192905Y020350000D01*
G01*
X-01224264Y020324264D01*
G01*
X-01298882Y020233342D01*
G01*
X-01354328Y020129610D01*
G01*
X-01388471Y020017054D01*
G01*
X-01400000Y019900000D01*
G01*
X-01388471Y019782946D01*
G01*
X-01354328Y019670390D01*
G01*
X-01298882Y019566658D01*
G01*
X-01224264Y019475736D01*
G01*
X-01133342Y019401118D01*
G01*
X-01029610Y019345672D01*
G01*
X-00917054Y019311529D01*
G01*
X-00800000Y019300000D01*
G01*
X-00682946Y019311529D01*
G01*
X-00570390Y019345672D01*
G01*
X-00466658Y019401118D01*
G01*
X-00375736Y019475736D01*
G01*
X-00301118Y019566658D01*
G01*
X-00245672Y019670390D01*
G01*
X-00211529Y019782946D01*
G01*
X-00200000Y019900000D01*
G01*
X-00211529Y020017054D01*
G01*
X-00245672Y020129610D01*
G01*
X-00301118Y020233342D01*
G01*
X-00375736Y020324264D01*
G01*
X-00407095Y020350000D01*
G01*
X000407095Y020350000D01*
G01*
X000375736Y020324264D01*
G01*
X000301118Y020233342D01*
G01*
X000245672Y020129610D01*
G01*
X000211529Y020017054D01*
G01*
X000200000Y019900000D01*
G01*
X000211529Y019782946D01*
G01*
X000245672Y019670390D01*
G01*
X000301118Y019566658D01*
G01*
X000375736Y019475736D01*
G01*
X000466658Y019401118D01*
G01*
X000570390Y019345672D01*
G01*
X000682946Y019311529D01*
G01*
X000800000Y019300000D01*
G01*
X000917054Y019311529D01*
G01*
X001029610Y019345672D01*
G01*
X001133342Y019401118D01*
G01*
X001224264Y019475736D01*
G01*
X001298882Y019566658D01*
G01*
X001354328Y019670390D01*
G01*
X001388471Y019782946D01*
G01*
X001400000Y019900000D01*
G01*
X001388471Y020017054D01*
G01*
X001354328Y020129610D01*
G01*
X001298882Y020233342D01*
G01*
X001224264Y020324264D01*
G01*
X001192905Y020350000D01*
G01*
X001550000Y020350000D01*
G01*
X001550000Y020192905D01*
G01*
X001501118Y020133342D01*
G01*
X001445672Y020029610D01*
G01*
X001411529Y019917054D01*
G01*
X001400000Y019800000D01*
G01*
X001411529Y019682946D01*
G01*
X001445672Y019570390D01*
G01*
X001501118Y019466658D01*
G01*
X001575736Y019375736D01*
G01*
X001666658Y019301118D01*
G01*
X001770390Y019245672D01*
G01*
X001882946Y019211529D01*
G01*
X001959628Y019203976D01*
G01*
X002053143Y019110461D01*
G01*
X002079550Y019084054D01*
G01*
X002125396Y019038208D01*
G01*
X002138686Y018906554D01*
G01*
X002168085Y018615315D01*
G01*
X002197484Y018324076D01*
G01*
X002226883Y018032837D01*
G01*
X002256282Y017741598D01*
G01*
X002285680Y017450359D01*
G01*
X002315079Y017159120D01*
G01*
X002334248Y016969227D01*
G01*
X002322720Y016955180D01*
G01*
X002267274Y016851448D01*
G01*
X002233131Y016738892D01*
G01*
X002221602Y016621838D01*
G01*
X002223444Y016603139D01*
G01*
X000802702Y018023880D01*
G01*
X000800964Y018029610D01*
G01*
X000745518Y018133342D01*
G01*
X000670900Y018224264D01*
G01*
X000579978Y018298882D01*
G01*
X000476246Y018354328D01*
G01*
X000363690Y018388471D01*
G01*
X000246636Y018400000D01*
G01*
X000129582Y018388471D01*
G01*
X000017026Y018354328D01*
G01*
X-00086706Y018298882D01*
G01*
X-00177628Y018224264D01*
G01*
X-00252246Y018133342D01*
G01*
X-00307692Y018029610D01*
G01*
X-00341835Y017917054D01*
G01*
X-00353364Y017800000D01*
G01*
X-00341835Y017682946D01*
G01*
X-00307692Y017570390D01*
G01*
X-00252246Y017466658D01*
G01*
X-00177628Y017375736D01*
G01*
X-00086706Y017301118D01*
G01*
X000017026Y017245672D01*
G01*
X000129582Y017211529D01*
G01*
X000246636Y017200000D01*
G01*
X000363690Y017211529D01*
G01*
X000476246Y017245672D01*
G01*
X000504922Y017261000D01*
G01*
X000590922Y017175000D01*
G01*
X-03690910Y017175000D01*
G01*
X-03658165Y017282946D01*
G01*
X-03646636Y017400000D01*
G01*
X-03658165Y017517054D01*
G01*
X-03692308Y017629610D01*
G01*
X-03747754Y017733342D01*
G01*
X-03822372Y017824264D01*
G01*
X-03913294Y017898882D01*
G01*
X-04017026Y017954328D01*
G01*
X-04129582Y017988471D01*
G01*
X-04246636Y018000000D01*
G01*
X-04363690Y017988471D01*
G01*
X-04476246Y017954328D01*
G01*
X-04579978Y017898882D01*
G01*
X-04670900Y017824264D01*
G01*
X-04745518Y017733342D01*
G01*
X-04800964Y017629610D01*
G01*
X-04835107Y017517054D01*
G01*
X-04846636Y017400000D01*
G01*
X-04835107Y017282946D01*
G01*
X-04800964Y017170390D01*
G01*
X-04745518Y017066658D01*
G01*
X-04670900Y016975736D01*
G01*
X-04621636Y016935306D01*
G01*
X-04621636Y016800000D01*
G01*
X-04614430Y016726841D01*
G01*
X-04593091Y016656494D01*
G01*
X-04558437Y016591661D01*
G01*
X-04511801Y016534835D01*
G01*
X-04454975Y016488199D01*
G01*
X-04390142Y016453545D01*
G01*
X-04319795Y016432206D01*
G01*
X-04246636Y016425000D01*
G01*
X000624808Y016425000D01*
G01*
X000624808Y016264695D01*
G01*
X000575543Y016224264D01*
G01*
X000500926Y016133342D01*
G01*
X000499745Y016131133D01*
G01*
X000498564Y016133342D01*
G01*
X000423947Y016224264D01*
G01*
X000333025Y016298882D01*
G01*
X000229293Y016354328D01*
G01*
X000116737Y016388471D01*
G01*
X-00000317Y016400000D01*
G01*
X-00117372Y016388471D01*
G01*
X-00229928Y016354328D01*
G01*
X-00333660Y016298882D01*
G01*
X-00424582Y016224264D01*
G01*
X-00499199Y016133342D01*
G01*
X-00554645Y016029610D01*
G01*
X-00588789Y015917054D01*
G01*
X-00600317Y015800000D01*
G01*
X-00594071Y015736577D01*
G01*
X-00749644Y015581003D01*
G01*
X-01446647Y015568440D01*
G01*
X-01445605Y015570390D01*
G01*
X-01411461Y015682946D01*
G01*
X-01399933Y015800000D01*
G01*
X-01411461Y015917054D01*
G01*
X-01445605Y016029610D01*
G01*
X-01501051Y016133342D01*
G01*
X-01575668Y016224264D01*
G01*
X-01666590Y016298882D01*
G01*
X-01770322Y016354328D01*
G01*
X-01882878Y016388471D01*
G01*
X-01999932Y016400000D01*
G01*
X-02116987Y016388471D01*
G01*
X-02229543Y016354328D01*
G01*
X-02333275Y016298882D01*
G01*
X-02424197Y016224264D01*
G01*
X-02478674Y016157883D01*
G01*
X-02679182Y016160514D01*
G01*
X-02973144Y016164371D01*
G01*
X-03267106Y016168229D01*
G01*
X-03561069Y016172086D01*
G01*
X-03855031Y016175943D01*
G01*
X-04148993Y016179800D01*
G01*
X-04442955Y016183657D01*
G01*
X-04442962Y016183115D01*
G01*
X-04448859Y016183696D01*
G01*
X-04536650Y016175049D01*
G01*
X-04564362Y016166643D01*
G01*
X-04564855Y016168489D01*
G01*
X-05065995Y016034793D01*
G01*
X-05065503Y016032947D01*
G01*
X-05122208Y016015746D01*
G01*
X-05200007Y015974161D01*
G01*
X-05234500Y015945854D01*
G01*
X-05235876Y015947527D01*
G01*
X-06197013Y015156893D01*
G01*
X-06341068Y015150826D01*
G01*
X-06635685Y015138418D01*
G01*
X-06930302Y015126011D01*
G01*
X-07224919Y015113603D01*
G01*
X-07519536Y015101195D01*
G01*
X-07814153Y015088787D01*
G01*
X-08108770Y015076379D01*
G01*
X-08305805Y015068081D01*
G01*
X-08345727Y015100844D01*
G01*
X-08449459Y015156290D01*
G01*
X-08562015Y015190433D01*
G01*
X-08679069Y015201962D01*
G01*
X-08796124Y015190433D01*
G01*
X-08908680Y015156290D01*
G01*
X-09012412Y015100844D01*
G01*
X-09103334Y015026226D01*
G01*
X-09177951Y014935304D01*
G01*
X-09233397Y014831572D01*
G01*
X-09267541Y014719016D01*
G01*
X-09279069Y014601962D01*
G01*
X-09267541Y014484908D01*
G01*
X-09233397Y014372352D01*
G01*
X-09177951Y014268620D01*
G01*
X-09103334Y014177698D01*
G01*
X-09012412Y014103080D01*
G01*
X-08908680Y014047634D01*
G01*
X-08796124Y014013491D01*
G01*
X-08679069Y014001962D01*
G01*
X-08562015Y014013491D01*
G01*
X-08449459Y014047634D01*
G01*
X-08345727Y014103080D01*
G01*
X-08265424Y014168984D01*
G01*
X-08070900Y014177176D01*
G01*
X-07776283Y014189584D01*
G01*
X-07481666Y014201992D01*
G01*
X-07187049Y014214400D01*
G01*
X-06892432Y014226808D01*
G01*
X-06597815Y014239215D01*
G01*
X-06303198Y014251623D01*
G01*
X-06283705Y014252444D01*
G01*
X-07110694Y013411338D01*
G01*
X-07110481Y013411128D01*
G01*
X-07155096Y013356766D01*
G01*
X-07189749Y013291933D01*
G01*
X-07211089Y013221586D01*
G01*
X-07218294Y013148427D01*
G01*
X-07217686Y013142252D01*
G01*
X-07218243Y013142243D01*
G01*
X-07204555Y012312294D01*
G01*
X-07203998Y012312303D01*
G01*
X-07200789Y012279726D01*
G01*
X-07232131Y012176404D01*
G01*
X-07243660Y012059350D01*
G01*
X-07232131Y011942296D01*
G01*
X-07197988Y011829740D01*
G01*
X-07142542Y011726008D01*
G01*
X-07067924Y011635086D01*
G01*
X-06977002Y011560468D01*
G01*
X-06873270Y011505022D01*
G01*
X-06760714Y011470879D01*
G01*
X-06643660Y011459350D01*
G01*
X-06526606Y011470879D01*
G01*
X-06414050Y011505022D01*
G01*
X-06310318Y011560468D01*
G01*
X-06219396Y011635086D01*
G01*
X-06144778Y011726008D01*
G01*
X-06089332Y011829740D01*
G01*
X-06055189Y011942296D01*
G01*
X-06043660Y012059350D01*
G01*
X-06055189Y012176404D01*
G01*
X-06089332Y012288960D01*
G01*
X-06144778Y012392692D01*
G01*
X-06219396Y012483614D01*
G01*
X-06310318Y012558232D01*
G01*
X-06414050Y012613678D01*
G01*
X-06459652Y012627511D01*
G01*
X-06465754Y012997536D01*
G01*
X-05068856Y014418278D01*
G01*
X-05054330Y014370390D01*
G01*
X-04998884Y014266658D01*
G01*
X-04924266Y014175736D01*
G01*
X-04833344Y014101118D01*
G01*
X-04729612Y014045672D01*
G01*
X-04696978Y014035773D01*
G01*
X-02586875Y010322095D01*
G01*
X-02588404Y010317054D01*
G01*
X-02599932Y010200000D01*
G01*
X-02588404Y010082946D01*
G01*
X-02554260Y009970390D01*
G01*
X-02498814Y009866658D01*
G01*
X-02424197Y009775736D01*
G01*
X-02333275Y009701118D01*
G01*
X-02229543Y009645672D01*
G01*
X-02208761Y009639368D01*
G01*
X-02366444Y009483794D01*
G01*
X-02576561Y009276486D01*
G01*
X-02786678Y009069178D01*
G01*
X-02996796Y008861871D01*
G01*
X-03206913Y008654563D01*
G01*
X-03273563Y008588804D01*
G01*
X-03327047Y008592205D01*
G01*
X-03581667Y008608395D01*
G01*
X-03836286Y008624584D01*
G01*
X-04090906Y008640773D01*
G01*
X-04345526Y008656963D01*
G01*
X-04600145Y008673152D01*
G01*
X-04600265Y008671258D01*
G01*
X-04628700Y008674059D01*
G01*
X-04716490Y008665412D01*
G01*
X-04800907Y008639805D01*
G01*
X-04878706Y008598220D01*
G01*
X-04946661Y008542451D01*
G01*
X-04946682Y008542472D01*
G01*
X-04946894Y008542260D01*
G01*
X-04946898Y008542257D01*
G01*
X-04946901Y008542253D01*
G01*
X-05072223Y008417102D01*
G01*
X-05072202Y008417081D01*
G01*
X-05072438Y008416887D01*
G01*
X-05219657Y008269668D01*
G01*
X-05350839Y008138485D01*
G01*
X-05422054Y008131471D01*
G01*
X-05534610Y008097328D01*
G01*
X-05638342Y008041882D01*
G01*
X-05729264Y007967264D01*
G01*
X-05803882Y007876342D01*
G01*
X-05859328Y007772610D01*
G01*
X-05893471Y007660054D01*
G01*
X-05905000Y007543000D01*
G01*
X-05893471Y007425946D01*
G01*
X-05859328Y007313390D01*
G01*
X-05803882Y007209658D01*
G01*
X-05729264Y007118736D01*
G01*
X-05638342Y007044118D01*
G01*
X-05534610Y006988672D01*
G01*
X-05422054Y006954529D01*
G01*
X-05305000Y006943000D01*
G01*
X-05187946Y006954529D01*
G01*
X-05075390Y006988672D01*
G01*
X-04971658Y007044118D01*
G01*
X-04880736Y007118736D01*
G01*
X-04856174Y007148665D01*
G01*
X-04854052Y007144696D01*
G01*
X-04779434Y007053774D01*
G01*
X-04688512Y006979156D01*
G01*
X-04618245Y006941598D01*
G01*
X-04465015Y006576039D01*
G01*
X-04464847Y006576110D01*
G01*
X-04424161Y006499993D01*
G01*
X-04368198Y006431802D01*
G01*
X-04323269Y006394930D01*
G01*
X-04324457Y006393386D01*
G01*
X-03639124Y005865939D01*
G01*
X-03453055Y005680760D01*
G01*
X-03452982Y005680834D01*
G01*
X-03385627Y005625558D01*
G01*
X-03307828Y005583974D01*
G01*
X-03223411Y005558366D01*
G01*
X-03135621Y005549720D01*
G01*
X-03135469Y005549735D01*
G01*
X-03135469Y005549720D01*
G01*
X-02856929Y005549813D01*
G01*
X-02692744Y005549868D01*
G01*
X-02633342Y005501118D01*
G01*
X-02529610Y005445672D01*
G01*
X-02417054Y005411529D01*
G01*
X-02300000Y005400000D01*
G01*
X-02182946Y005411529D01*
G01*
X-02070390Y005445672D01*
G01*
X-01966658Y005501118D01*
G01*
X-01875736Y005575736D01*
G01*
X-01801118Y005666658D01*
G01*
X-01745672Y005770390D01*
G01*
X-01711529Y005882946D01*
G01*
X-01700000Y006000000D01*
G01*
X-01711529Y006117054D01*
G01*
X-01745672Y006229610D01*
G01*
X-01750373Y006238405D01*
G01*
X000031265Y006238405D01*
G01*
X001406247Y004863423D01*
G01*
X001400000Y004800000D01*
G01*
X001411529Y004682946D01*
G01*
X001445672Y004570390D01*
G01*
X001501118Y004466658D01*
G01*
X001575736Y004375736D01*
G01*
X001666658Y004301118D01*
G01*
X001770390Y004245672D01*
G01*
X001882946Y004211529D01*
G01*
X002000000Y004200000D01*
G37*
D36*
G36*
X-06000000Y018400000D02*
G01*
X-05882946Y018411529D01*
G01*
X-05770390Y018445672D01*
G01*
X-05666658Y018501118D01*
G01*
X-05575736Y018575736D01*
G01*
X-05501118Y018666658D01*
G01*
X-05445672Y018770390D01*
G01*
X-05411529Y018882946D01*
G01*
X-05400000Y019000000D01*
G01*
X-05411529Y019117054D01*
G01*
X-05445672Y019229610D01*
G01*
X-05501118Y019333342D01*
G01*
X-05575736Y019424264D01*
G01*
X-05666658Y019498882D01*
G01*
X-05770390Y019554328D01*
G01*
X-05882946Y019588471D01*
G01*
X-05964602Y019596514D01*
G01*
X-05964602Y022649943D01*
G01*
X-05092573Y023521971D01*
G01*
X-03923061Y023521971D01*
G01*
X-03880761Y023470428D01*
G01*
X-03789839Y023395810D01*
G01*
X-03686107Y023340364D01*
G01*
X-03573551Y023306221D01*
G01*
X-03456497Y023294692D01*
G01*
X-03339443Y023306221D01*
G01*
X-03226887Y023340364D01*
G01*
X-03123155Y023395810D01*
G01*
X-03032233Y023470428D01*
G01*
X-02957615Y023561350D01*
G01*
X-02902170Y023665082D01*
G01*
X-02868026Y023777638D01*
G01*
X-02856497Y023894692D01*
G01*
X-02868026Y024011746D01*
G01*
X-02902170Y024124302D01*
G01*
X-02957615Y024228034D01*
G01*
X-03032233Y024318956D01*
G01*
X-03123155Y024393574D01*
G01*
X-03226887Y024449020D01*
G01*
X-03339443Y024483163D01*
G01*
X-03456497Y024494692D01*
G01*
X-03573551Y024483163D01*
G01*
X-03686107Y024449020D01*
G01*
X-03789839Y024393574D01*
G01*
X-03880761Y024318956D01*
G01*
X-03919321Y024271971D01*
G01*
X-05247903Y024271971D01*
G01*
X-05321062Y024264765D01*
G01*
X-05391410Y024243426D01*
G01*
X-05456242Y024208772D01*
G01*
X-05513069Y024162136D01*
G01*
X-06604767Y023070438D01*
G01*
X-06651403Y023013612D01*
G01*
X-06686057Y022948779D01*
G01*
X-06707396Y022878432D01*
G01*
X-06714602Y022805273D01*
G01*
X-06714602Y019339602D01*
G01*
X-06707396Y019266443D01*
G01*
X-06686057Y019196095D01*
G01*
X-06651403Y019131263D01*
G01*
X-06604767Y019074437D01*
G01*
X-06593753Y019063423D01*
G01*
X-06600000Y019000000D01*
G01*
X-06588471Y018882946D01*
G01*
X-06554328Y018770390D01*
G01*
X-06498882Y018666658D01*
G01*
X-06424264Y018575736D01*
G01*
X-06333342Y018501118D01*
G01*
X-06229610Y018445672D01*
G01*
X-06117054Y018411529D01*
G01*
X-06000000Y018400000D01*
G37*
D36*
G36*
X-16000000Y-16375000D02*
G01*
X016000000Y-16375000D01*
G01*
X016073159Y-16367794D01*
G01*
X016143506Y-16346455D01*
G01*
X016208339Y-16311801D01*
G01*
X016265165Y-16265165D01*
G01*
X016311801Y-16208339D01*
G01*
X016346455Y-16143506D01*
G01*
X016367794Y-16073159D01*
G01*
X016375000Y-16000000D01*
G01*
X016375000Y002285374D01*
G01*
X016424264Y002325804D01*
G01*
X016498882Y002416726D01*
G01*
X016554328Y002520458D01*
G01*
X016588471Y002633014D01*
G01*
X016600000Y002750068D01*
G01*
X016588471Y002867122D01*
G01*
X016554328Y002979678D01*
G01*
X016498882Y003083410D01*
G01*
X016424264Y003174332D01*
G01*
X016333342Y003248950D01*
G01*
X016229610Y003304396D01*
G01*
X016169013Y003322778D01*
G01*
X016182305Y003336070D01*
G01*
X016228941Y003392896D01*
G01*
X016263594Y003457729D01*
G01*
X016284934Y003528076D01*
G01*
X016292139Y003601235D01*
G01*
X016292139Y013120654D01*
G01*
X016306102Y013178659D01*
G01*
X016304964Y013178933D01*
G01*
X016309311Y013193262D01*
G01*
X016316516Y013266421D01*
G01*
X016316516Y013367687D01*
G01*
X016316516Y013468953D01*
G01*
X016316516Y013570219D01*
G01*
X016316516Y013671485D01*
G01*
X016316516Y013772750D01*
G01*
X016316516Y013874016D01*
G01*
X016309311Y013947175D01*
G01*
X016309196Y013947552D01*
G01*
X016309234Y013947560D01*
G01*
X016265883Y014164314D01*
G01*
X016265883Y014532244D01*
G01*
X016265883Y014937307D01*
G01*
X016265883Y015342371D01*
G01*
X016265883Y015747434D01*
G01*
X016265883Y016152497D01*
G01*
X016265883Y016557561D01*
G01*
X016258678Y016630719D01*
G01*
X016237338Y016701067D01*
G01*
X016202684Y016765899D01*
G01*
X016156048Y016822726D01*
G01*
X016099222Y016869362D01*
G01*
X016034389Y016904015D01*
G01*
X015964042Y016925355D01*
G01*
X015890883Y016932561D01*
G01*
X015485820Y016932561D01*
G01*
X015455757Y016932561D01*
G01*
X015455757Y016962624D01*
G01*
X015448551Y017035783D01*
G01*
X015427211Y017106130D01*
G01*
X015392558Y017170963D01*
G01*
X015345922Y017227789D01*
G01*
X015289095Y017274425D01*
G01*
X015224263Y017309079D01*
G01*
X015153915Y017330418D01*
G01*
X015080757Y017337624D01*
G01*
X014575125Y017337624D01*
G01*
X014575125Y018535306D01*
G01*
X014624389Y018575736D01*
G01*
X014699007Y018666658D01*
G01*
X014754453Y018770390D01*
G01*
X014788596Y018882946D01*
G01*
X014800125Y019000000D01*
G01*
X014788596Y019117054D01*
G01*
X014754453Y019229610D01*
G01*
X014699007Y019333342D01*
G01*
X014624389Y019424264D01*
G01*
X014533467Y019498882D01*
G01*
X014429735Y019554328D01*
G01*
X014317179Y019588471D01*
G01*
X014200125Y019600000D01*
G01*
X014083071Y019588471D01*
G01*
X013970515Y019554328D01*
G01*
X013866783Y019498882D01*
G01*
X013775861Y019424264D01*
G01*
X013701243Y019333342D01*
G01*
X013645797Y019229610D01*
G01*
X013611654Y019117054D01*
G01*
X013600125Y019000000D01*
G01*
X013611654Y018882946D01*
G01*
X013645797Y018770390D01*
G01*
X013701243Y018666658D01*
G01*
X013775861Y018575736D01*
G01*
X013825125Y018535306D01*
G01*
X013825125Y016962624D01*
G01*
X013832331Y016889465D01*
G01*
X013853670Y016819118D01*
G01*
X013888324Y016754285D01*
G01*
X013934960Y016697459D01*
G01*
X013991786Y016650823D01*
G01*
X014056619Y016616169D01*
G01*
X014126966Y016594829D01*
G01*
X014200125Y016587624D01*
G01*
X014705757Y016587624D01*
G01*
X014705757Y016557561D01*
G01*
X014712962Y016484402D01*
G01*
X014734302Y016414054D01*
G01*
X014768955Y016349222D01*
G01*
X014815592Y016292395D01*
G01*
X014872418Y016245759D01*
G01*
X014937250Y016211106D01*
G01*
X015007598Y016189766D01*
G01*
X015080757Y016182561D01*
G01*
X015485820Y016182561D01*
G01*
X015515883Y016182561D01*
G01*
X015515883Y016152497D01*
G01*
X015515883Y015747434D01*
G01*
X015515883Y015342371D01*
G01*
X015515883Y014937307D01*
G01*
X015515883Y014532244D01*
G01*
X015515883Y014127181D01*
G01*
X015523089Y014054022D01*
G01*
X015523203Y014053645D01*
G01*
X015523165Y014053637D01*
G01*
X015566516Y013836883D01*
G01*
X015566516Y013772750D01*
G01*
X015566516Y013671485D01*
G01*
X015566516Y013570219D01*
G01*
X015566516Y013468953D01*
G01*
X015566516Y013367687D01*
G01*
X015566516Y013310921D01*
G01*
X015552554Y013252918D01*
G01*
X015553692Y013252644D01*
G01*
X015549345Y013238314D01*
G01*
X015542139Y013165155D01*
G01*
X015542139Y003756565D01*
G01*
X006618574Y-05167000D01*
G01*
X005422694Y-05167000D01*
G01*
X005382264Y-05117736D01*
G01*
X005291342Y-05043118D01*
G01*
X005187610Y-04987672D01*
G01*
X005113751Y-04965268D01*
G01*
X012580165Y002501146D01*
G01*
X012626801Y002557972D01*
G01*
X012661455Y002622805D01*
G01*
X012682794Y002693152D01*
G01*
X012690000Y002766311D01*
G01*
X012690000Y012835230D01*
G01*
X012739356Y012875736D01*
G01*
X012813974Y012966658D01*
G01*
X012869420Y013070390D01*
G01*
X012903563Y013182946D01*
G01*
X012915092Y013300000D01*
G01*
X012903563Y013417054D01*
G01*
X012869420Y013529610D01*
G01*
X012813974Y013633342D01*
G01*
X012739356Y013724264D01*
G01*
X012648434Y013798882D01*
G01*
X012544702Y013854328D01*
G01*
X012432146Y013888471D01*
G01*
X012315092Y013900000D01*
G01*
X012198038Y013888471D01*
G01*
X012145190Y013872440D01*
G01*
X012119683Y018407923D01*
G01*
X012200129Y018400000D01*
G01*
X012317183Y018411529D01*
G01*
X012429739Y018445672D01*
G01*
X012533471Y018501118D01*
G01*
X012624393Y018575736D01*
G01*
X012699011Y018666658D01*
G01*
X012754457Y018770390D01*
G01*
X012788600Y018882946D01*
G01*
X012800129Y019000000D01*
G01*
X012788600Y019117054D01*
G01*
X012754457Y019229610D01*
G01*
X012699011Y019333342D01*
G01*
X012624393Y019424264D01*
G01*
X012533471Y019498882D01*
G01*
X012429739Y019554328D01*
G01*
X012317183Y019588471D01*
G01*
X012200129Y019600000D01*
G01*
X012083075Y019588471D01*
G01*
X011970519Y019554328D01*
G01*
X011866787Y019498882D01*
G01*
X011775865Y019424264D01*
G01*
X011701247Y019333342D01*
G01*
X011645801Y019229610D01*
G01*
X011611658Y019117054D01*
G01*
X011600129Y019000000D01*
G01*
X011601008Y018991072D01*
G01*
X011504396Y018911124D01*
G01*
X011505545Y018909735D01*
G01*
X011478307Y018887381D01*
G01*
X011431670Y018830555D01*
G01*
X011397017Y018765722D01*
G01*
X011375677Y018695375D01*
G01*
X011368472Y018622216D01*
G01*
X011368680Y018620108D01*
G01*
X011368478Y018620107D01*
G01*
X011442100Y005528719D01*
G01*
X009574126Y003664338D01*
G01*
X009554326Y003729610D01*
G01*
X009498880Y003833342D01*
G01*
X009424262Y003924264D01*
G01*
X009374998Y003964694D01*
G01*
X009374998Y006559921D01*
G01*
X009986278Y007171201D01*
G01*
X010100000Y007160000D01*
G01*
X010217054Y007171529D01*
G01*
X010329610Y007205672D01*
G01*
X010433342Y007261118D01*
G01*
X010524264Y007335736D01*
G01*
X010598882Y007426658D01*
G01*
X010654328Y007530390D01*
G01*
X010688471Y007642946D01*
G01*
X010700000Y007760000D01*
G01*
X010688471Y007877054D01*
G01*
X010654328Y007989610D01*
G01*
X010598882Y008093342D01*
G01*
X010524264Y008184264D01*
G01*
X010433342Y008258882D01*
G01*
X010329610Y008314328D01*
G01*
X010217054Y008348471D01*
G01*
X010100000Y008360000D01*
G01*
X009982946Y008348471D01*
G01*
X009870390Y008314328D01*
G01*
X009766658Y008258882D01*
G01*
X009675736Y008184264D01*
G01*
X009601118Y008093342D01*
G01*
X009545672Y007989610D01*
G01*
X009511529Y007877054D01*
G01*
X009500000Y007760000D01*
G01*
X009501293Y007746876D01*
G01*
X008734833Y006980416D01*
G01*
X008688197Y006923590D01*
G01*
X008653543Y006858757D01*
G01*
X008632204Y006788410D01*
G01*
X008624998Y006715251D01*
G01*
X008624998Y003964694D01*
G01*
X008575734Y003924264D01*
G01*
X008501116Y003833342D01*
G01*
X008445670Y003729610D01*
G01*
X008411527Y003617054D01*
G01*
X008399998Y003500000D01*
G01*
X008406245Y003436575D01*
G01*
X007848722Y002879052D01*
G01*
X007803363Y002872760D01*
G01*
X002574499Y002836887D01*
G01*
X002588471Y002882946D01*
G01*
X002600000Y003000000D01*
G01*
X002588471Y003117054D01*
G01*
X002554328Y003229610D01*
G01*
X002498882Y003333342D01*
G01*
X002424264Y003424264D01*
G01*
X002333342Y003498882D01*
G01*
X002229610Y003554328D01*
G01*
X002117054Y003588471D01*
G01*
X002000000Y003600000D01*
G01*
X001882946Y003588471D01*
G01*
X001770390Y003554328D01*
G01*
X001666658Y003498882D01*
G01*
X001575736Y003424264D01*
G01*
X001501118Y003333342D01*
G01*
X001445672Y003229610D01*
G01*
X001411529Y003117054D01*
G01*
X001400000Y003000000D01*
G01*
X001411529Y002882946D01*
G01*
X001427887Y002829021D01*
G01*
X000433320Y002822198D01*
G01*
X-01407254Y004726347D01*
G01*
X-01400000Y004800000D01*
G01*
X-01411529Y004917054D01*
G01*
X-01445672Y005029610D01*
G01*
X-01501118Y005133342D01*
G01*
X-01575736Y005224264D01*
G01*
X-01666658Y005298882D01*
G01*
X-01770390Y005354328D01*
G01*
X-01882946Y005388471D01*
G01*
X-02000000Y005400000D01*
G01*
X-02117054Y005388471D01*
G01*
X-02229610Y005354328D01*
G01*
X-02333342Y005298882D01*
G01*
X-02424264Y005224264D01*
G01*
X-02498882Y005133342D01*
G01*
X-02554328Y005029610D01*
G01*
X-02588471Y004917054D01*
G01*
X-02600000Y004800000D01*
G01*
X-02588471Y004682946D01*
G01*
X-02554328Y004570390D01*
G01*
X-02498882Y004466658D01*
G01*
X-02424264Y004375736D01*
G01*
X-02333342Y004301118D01*
G01*
X-02229610Y004245672D01*
G01*
X-02117054Y004211529D01*
G01*
X-02000000Y004200000D01*
G01*
X-01946663Y004205253D01*
G01*
X000005676Y002185479D01*
G01*
X000006087Y002185876D01*
G01*
X000010139Y002180939D01*
G01*
X000066965Y002134303D01*
G01*
X000131798Y002099650D01*
G01*
X000202145Y002078310D01*
G01*
X000275304Y002071105D01*
G01*
X000277875Y002071358D01*
G01*
X000277877Y002071113D01*
G01*
X002888561Y002089024D01*
G01*
X002882946Y002088471D01*
G01*
X002770390Y002054328D01*
G01*
X002666658Y001998882D01*
G01*
X002575736Y001924264D01*
G01*
X002501118Y001833342D01*
G01*
X002445672Y001729610D01*
G01*
X002411529Y001617054D01*
G01*
X002400000Y001500000D01*
G01*
X002411529Y001382946D01*
G01*
X002445672Y001270390D01*
G01*
X002501118Y001166658D01*
G01*
X002575736Y001075736D01*
G01*
X002666658Y001001118D01*
G01*
X002770390Y000945672D01*
G01*
X002882946Y000911529D01*
G01*
X003000000Y000900000D01*
G01*
X003117054Y000911529D01*
G01*
X003229610Y000945672D01*
G01*
X003333342Y001001118D01*
G01*
X003424264Y001075736D01*
G01*
X003498882Y001166658D01*
G01*
X003554328Y001270390D01*
G01*
X003588471Y001382946D01*
G01*
X003600000Y001500000D01*
G01*
X003588471Y001617054D01*
G01*
X003554328Y001729610D01*
G01*
X003498882Y001833342D01*
G01*
X003424264Y001924264D01*
G01*
X003333342Y001998882D01*
G01*
X003229610Y002054328D01*
G01*
X003117054Y002088471D01*
G01*
X003096925Y002090454D01*
G01*
X007833104Y002122947D01*
G01*
X007833102Y002123191D01*
G01*
X007881846Y002127992D01*
G01*
X007882054Y002126495D01*
G01*
X008057733Y002150863D01*
G01*
X-01539347Y-07427754D01*
G01*
X-01539321Y-07427780D01*
G01*
X-01539602Y-07428010D01*
G01*
X-01586238Y-07484836D01*
G01*
X-01620892Y-07549668D01*
G01*
X-01642232Y-07620016D01*
G01*
X-01649335Y-07692141D01*
G01*
X-01649436Y-07692141D01*
G01*
X-01659719Y-11424254D01*
G01*
X-01710264Y-11465736D01*
G01*
X-01784882Y-11556658D01*
G01*
X-01840328Y-11660390D01*
G01*
X-01874471Y-11772946D01*
G01*
X-01886000Y-11890000D01*
G01*
X-01874471Y-12007054D01*
G01*
X-01840328Y-12119610D01*
G01*
X-01784882Y-12223342D01*
G01*
X-01710264Y-12314264D01*
G01*
X-01619342Y-12388882D01*
G01*
X-01515610Y-12444328D01*
G01*
X-01403054Y-12478471D01*
G01*
X-01286000Y-12490000D01*
G01*
X-01168946Y-12478471D01*
G01*
X-01056390Y-12444328D01*
G01*
X-00952658Y-12388882D01*
G01*
X-00861736Y-12314264D01*
G01*
X-00787118Y-12223342D01*
G01*
X-00731672Y-12119610D01*
G01*
X-00697529Y-12007054D01*
G01*
X-00686000Y-11890000D01*
G01*
X-00697529Y-11772946D01*
G01*
X-00731672Y-11660390D01*
G01*
X-00787118Y-11556658D01*
G01*
X-00861736Y-11465736D01*
G01*
X-00909721Y-11426356D01*
G01*
X-00899866Y-07849144D01*
G01*
X011940000Y004966021D01*
G01*
X011940000Y002921641D01*
G01*
X004134835Y-04883524D01*
G01*
X004088199Y-04940350D01*
G01*
X004053545Y-05005183D01*
G01*
X004032206Y-05075530D01*
G01*
X004025000Y-05148689D01*
G01*
X004025000Y-10774986D01*
G01*
X004032206Y-10848145D01*
G01*
X004053545Y-10918492D01*
G01*
X004088199Y-10983325D01*
G01*
X004117036Y-11018463D01*
G01*
X004115744Y-11019575D01*
G01*
X005769722Y-12941793D01*
G01*
X005758908Y-13051588D01*
G01*
X005770437Y-13168642D01*
G01*
X005804580Y-13281198D01*
G01*
X005860026Y-13384930D01*
G01*
X005934644Y-13475852D01*
G01*
X006025566Y-13550469D01*
G01*
X006129298Y-13605915D01*
G01*
X006241854Y-13640059D01*
G01*
X006358908Y-13651588D01*
G01*
X006475962Y-13640059D01*
G01*
X006588518Y-13605915D01*
G01*
X006692250Y-13550469D01*
G01*
X006783172Y-13475852D01*
G01*
X006857790Y-13384930D01*
G01*
X006913236Y-13281198D01*
G01*
X006947379Y-13168642D01*
G01*
X006958908Y-13051588D01*
G01*
X006947379Y-12934533D01*
G01*
X006913236Y-12821978D01*
G01*
X006857790Y-12718246D01*
G01*
X006783172Y-12627324D01*
G01*
X006692250Y-12552706D01*
G01*
X006588518Y-12497260D01*
G01*
X006475962Y-12463117D01*
G01*
X006358908Y-12451588D01*
G01*
X006339034Y-12453545D01*
G01*
X004775000Y-10635858D01*
G01*
X004775000Y-06110467D01*
G01*
X004840946Y-06130471D01*
G01*
X004958000Y-06142000D01*
G01*
X005075054Y-06130471D01*
G01*
X005187610Y-06096328D01*
G01*
X005291342Y-06040882D01*
G01*
X005382264Y-05966264D01*
G01*
X005422694Y-05917000D01*
G01*
X005897438Y-05917000D01*
G01*
X005836168Y-05991658D01*
G01*
X005780722Y-06095390D01*
G01*
X005746578Y-06207946D01*
G01*
X005735050Y-06325000D01*
G01*
X005746578Y-06442054D01*
G01*
X005780722Y-06554610D01*
G01*
X005836168Y-06658342D01*
G01*
X005910785Y-06749264D01*
G01*
X006001707Y-06823882D01*
G01*
X006105439Y-06879328D01*
G01*
X006217995Y-06913471D01*
G01*
X006335050Y-06925000D01*
G01*
X006452104Y-06913471D01*
G01*
X006564660Y-06879328D01*
G01*
X006668392Y-06823882D01*
G01*
X006759314Y-06749264D01*
G01*
X006799744Y-06700000D01*
G01*
X008788349Y-06700000D01*
G01*
X008783166Y-06717085D01*
G01*
X008775000Y-06799998D01*
G01*
X008775000Y-07250000D01*
G01*
X008781944Y-07320505D01*
G01*
X008781944Y-07343750D01*
G01*
X008788889Y-07414263D01*
G01*
X008788889Y-07437500D01*
G01*
X008795833Y-07508007D01*
G01*
X008795833Y-07531250D01*
G01*
X008798384Y-07557149D01*
G01*
X008775736Y-07575736D01*
G01*
X008701118Y-07666658D01*
G01*
X008645672Y-07770390D01*
G01*
X008611529Y-07882946D01*
G01*
X008600000Y-08000000D01*
G01*
X008611529Y-08117054D01*
G01*
X008645672Y-08229610D01*
G01*
X008701118Y-08333342D01*
G01*
X008775736Y-08424264D01*
G01*
X008866658Y-08498882D01*
G01*
X008970390Y-08554328D01*
G01*
X009082946Y-08588471D01*
G01*
X009200000Y-08600000D01*
G01*
X009317054Y-08588471D01*
G01*
X009429610Y-08554328D01*
G01*
X009533342Y-08498882D01*
G01*
X009624264Y-08424264D01*
G01*
X009698882Y-08333342D01*
G01*
X009754328Y-08229610D01*
G01*
X009788471Y-08117054D01*
G01*
X009800000Y-08000000D01*
G01*
X009788471Y-07882946D01*
G01*
X009754328Y-07770390D01*
G01*
X009698882Y-07666658D01*
G01*
X009624264Y-07575736D01*
G01*
X009601616Y-07557149D01*
G01*
X009604167Y-07531250D01*
G01*
X009604167Y-07508007D01*
G01*
X009611111Y-07437500D01*
G01*
X009611111Y-07414263D01*
G01*
X009618056Y-07343750D01*
G01*
X009618056Y-07320505D01*
G01*
X009625000Y-07250000D01*
G01*
X009625000Y-06976038D01*
G01*
X010270190Y-06330848D01*
G01*
X010336482Y-06264557D01*
G01*
X010354324Y-06242816D01*
G01*
X010400824Y-06196317D01*
G01*
X010418666Y-06174576D01*
G01*
X010465166Y-06128076D01*
G01*
X010483009Y-06106335D01*
G01*
X010490301Y-06099043D01*
G01*
X010500000Y-06099998D01*
G01*
X010617054Y-06088469D01*
G01*
X010729610Y-06054326D01*
G01*
X010833342Y-05998880D01*
G01*
X010924264Y-05924262D01*
G01*
X010998882Y-05833340D01*
G01*
X011054328Y-05729608D01*
G01*
X011088471Y-05617052D01*
G01*
X011100000Y-05499998D01*
G01*
X011088471Y-05382944D01*
G01*
X011054328Y-05270388D01*
G01*
X010998882Y-05166656D01*
G01*
X010924264Y-05075734D01*
G01*
X010833342Y-05001116D01*
G01*
X010729610Y-04945670D01*
G01*
X010617054Y-04911527D01*
G01*
X010500000Y-04899998D01*
G01*
X010382946Y-04911527D01*
G01*
X010270390Y-04945670D01*
G01*
X010166658Y-05001116D01*
G01*
X010075736Y-05075734D01*
G01*
X010001118Y-05166656D01*
G01*
X009945672Y-05270388D01*
G01*
X009911529Y-05382944D01*
G01*
X009900000Y-05499998D01*
G01*
X009900955Y-05509697D01*
G01*
X009893663Y-05516989D01*
G01*
X009871922Y-05534832D01*
G01*
X009825422Y-05581332D01*
G01*
X009803681Y-05599174D01*
G01*
X009757182Y-05645674D01*
G01*
X009735441Y-05663516D01*
G01*
X009669150Y-05729808D01*
G01*
X009448958Y-05950000D01*
G01*
X006799744Y-05950000D01*
G01*
X006772661Y-05917000D01*
G01*
X006773904Y-05917000D01*
G01*
X006847063Y-05909794D01*
G01*
X006917411Y-05888455D01*
G01*
X006982243Y-05853801D01*
G01*
X007039070Y-05807165D01*
G01*
X015427290Y002581055D01*
G01*
X015445672Y002520458D01*
G01*
X015501118Y002416726D01*
G01*
X015575736Y002325804D01*
G01*
X015625000Y002285374D01*
G01*
X015625000Y-15625000D01*
G01*
X-15625000Y-15625000D01*
G01*
X-15625000Y-03864694D01*
G01*
X-15575736Y-03824264D01*
G01*
X-15501118Y-03733342D01*
G01*
X-15445672Y-03629610D01*
G01*
X-15411529Y-03517054D01*
G01*
X-15400000Y-03400000D01*
G01*
X-15411529Y-03282946D01*
G01*
X-15445672Y-03170390D01*
G01*
X-15501118Y-03066658D01*
G01*
X-15575736Y-02975736D01*
G01*
X-15666658Y-02901118D01*
G01*
X-15770390Y-02845672D01*
G01*
X-15882946Y-02811529D01*
G01*
X-16000000Y-02800000D01*
G01*
X-16117054Y-02811529D01*
G01*
X-16229610Y-02845672D01*
G01*
X-16333342Y-02901118D01*
G01*
X-16424264Y-02975736D01*
G01*
X-16498882Y-03066658D01*
G01*
X-16554328Y-03170390D01*
G01*
X-16588471Y-03282946D01*
G01*
X-16600000Y-03400000D01*
G01*
X-16588471Y-03517054D01*
G01*
X-16554328Y-03629610D01*
G01*
X-16498882Y-03733342D01*
G01*
X-16424264Y-03824264D01*
G01*
X-16375000Y-03864694D01*
G01*
X-16375000Y-16000000D01*
G01*
X-16367794Y-16073159D01*
G01*
X-16346455Y-16143506D01*
G01*
X-16311801Y-16208339D01*
G01*
X-16265165Y-16265165D01*
G01*
X-16208339Y-16311801D01*
G01*
X-16143506Y-16346455D01*
G01*
X-16073159Y-16367794D01*
G01*
X-16000000Y-16375000D01*
G37*
D36*
G36*
X002300000Y005400000D02*
G01*
X002417054Y005411529D01*
G01*
X002529610Y005445672D01*
G01*
X002633342Y005501118D01*
G01*
X002724264Y005575736D01*
G01*
X002798882Y005666658D01*
G01*
X002854328Y005770390D01*
G01*
X002888471Y005882946D01*
G01*
X002900000Y006000000D01*
G01*
X002888471Y006117054D01*
G01*
X002854328Y006229610D01*
G01*
X002798882Y006333342D01*
G01*
X002724264Y006424264D01*
G01*
X002633342Y006498882D01*
G01*
X002529610Y006554328D01*
G01*
X002417054Y006588471D01*
G01*
X002300000Y006600000D01*
G01*
X002182946Y006588471D01*
G01*
X002070390Y006554328D01*
G01*
X001966658Y006498882D01*
G01*
X001875736Y006424264D01*
G01*
X001801118Y006333342D01*
G01*
X001745672Y006229610D01*
G01*
X001711529Y006117054D01*
G01*
X001700000Y006000000D01*
G01*
X001711529Y005882946D01*
G01*
X001745672Y005770390D01*
G01*
X001801118Y005666658D01*
G01*
X001875736Y005575736D01*
G01*
X001966658Y005501118D01*
G01*
X002070390Y005445672D01*
G01*
X002182946Y005411529D01*
G01*
X002300000Y005400000D01*
G37*
D36*
G36*
X-02618000Y-05217000D02*
G01*
X-02500946Y-05205471D01*
G01*
X-02388390Y-05171328D01*
G01*
X-02284658Y-05115882D01*
G01*
X-02193736Y-05041264D01*
G01*
X-02119118Y-04950342D01*
G01*
X-02063672Y-04846610D01*
G01*
X-02029529Y-04734054D01*
G01*
X-02018000Y-04617000D01*
G01*
X-02029529Y-04499946D01*
G01*
X-02063672Y-04387390D01*
G01*
X-02119118Y-04283658D01*
G01*
X-02193736Y-04192736D01*
G01*
X-02284658Y-04118118D01*
G01*
X-02388390Y-04062672D01*
G01*
X-02500946Y-04028529D01*
G01*
X-02618000Y-04017000D01*
G01*
X-02730435Y-04028074D01*
G01*
X-02770154Y-04016025D01*
G01*
X-02843313Y-04008819D01*
G01*
X-02865907Y-04011044D01*
G01*
X-02866000Y-04009506D01*
G01*
X-05569366Y-04173357D01*
G01*
X-11903155Y002367598D01*
G01*
X-11724708Y004841187D01*
G01*
X-11640846Y004910011D01*
G01*
X-11566229Y005000933D01*
G01*
X-11510783Y005104665D01*
G01*
X-11476639Y005217221D01*
G01*
X-11465111Y005334275D01*
G01*
X-11476639Y005451329D01*
G01*
X-11510783Y005563885D01*
G01*
X-11566229Y005667617D01*
G01*
X-11640846Y005758539D01*
G01*
X-11731768Y005833157D01*
G01*
X-11835500Y005888603D01*
G01*
X-11948056Y005922746D01*
G01*
X-12065111Y005934275D01*
G01*
X-12182165Y005922746D01*
G01*
X-12294721Y005888603D01*
G01*
X-12398453Y005833157D01*
G01*
X-12489375Y005758539D01*
G01*
X-12563992Y005667617D01*
G01*
X-12619438Y005563885D01*
G01*
X-12653582Y005451329D01*
G01*
X-12665111Y005334275D01*
G01*
X-12653582Y005217221D01*
G01*
X-12619438Y005104665D01*
G01*
X-12563992Y005000933D01*
G01*
X-12489375Y004910011D01*
G01*
X-12472681Y004896310D01*
G01*
X-12663282Y002254235D01*
G01*
X-12661608Y002254114D01*
G01*
X-12664254Y002227252D01*
G01*
X-12657049Y002154093D01*
G01*
X-12635709Y002083746D01*
G01*
X-12601055Y002018913D01*
G01*
X-12558259Y001966766D01*
G01*
X-12558651Y001966387D01*
G01*
X-05988202Y-04818968D01*
G01*
X-05987810Y-04818589D01*
G01*
X-05983970Y-04823268D01*
G01*
X-05927144Y-04869905D01*
G01*
X-05862311Y-04904558D01*
G01*
X-05791964Y-04925898D01*
G01*
X-05718805Y-04933103D01*
G01*
X-05696211Y-04930878D01*
G01*
X-05696118Y-04932417D01*
G01*
X-03192333Y-04780661D01*
G01*
X-03172328Y-04846610D01*
G01*
X-03116882Y-04950342D01*
G01*
X-03042264Y-05041264D01*
G01*
X-02951342Y-05115882D01*
G01*
X-02847610Y-05171328D01*
G01*
X-02735054Y-05205471D01*
G01*
X-02618000Y-05217000D01*
G37*
D36*
G36*
X-15447444Y-00136332D02*
G01*
X-15330390Y-00124804D01*
G01*
X-15217834Y-00090660D01*
G01*
X-15114102Y-00035214D01*
G01*
X-15023180Y000039403D01*
G01*
X-14948562Y000130325D01*
G01*
X-14893116Y000234057D01*
G01*
X-14858973Y000346613D01*
G01*
X-14847444Y000463668D01*
G01*
X-14858973Y000580722D01*
G01*
X-14893116Y000693278D01*
G01*
X-14948562Y000797010D01*
G01*
X-15023180Y000887932D01*
G01*
X-15087766Y000940936D01*
G01*
X-15092620Y000990221D01*
G01*
X-15118228Y001074638D01*
G01*
X-15159813Y001152437D01*
G01*
X-15215776Y001220628D01*
G01*
X-15225118Y001228295D01*
G01*
X-15224414Y001229038D01*
G01*
X-15412505Y001407311D01*
G01*
X-15600597Y001585585D01*
G01*
X-15788688Y001763859D01*
G01*
X-15976779Y001942132D01*
G01*
X-16164871Y002120406D01*
G01*
X-16260982Y002211501D01*
G01*
X-16261529Y002217054D01*
G01*
X-16295672Y002329610D01*
G01*
X-16351118Y002433342D01*
G01*
X-16425736Y002524264D01*
G01*
X-16516658Y002598882D01*
G01*
X-16620390Y002654328D01*
G01*
X-16732946Y002688471D01*
G01*
X-16850000Y002700000D01*
G01*
X-16967054Y002688471D01*
G01*
X-17079610Y002654328D01*
G01*
X-17183342Y002598882D01*
G01*
X-17274264Y002524264D01*
G01*
X-17348882Y002433342D01*
G01*
X-17404328Y002329610D01*
G01*
X-17438471Y002217054D01*
G01*
X-17450000Y002100000D01*
G01*
X-17438471Y001982946D01*
G01*
X-17404328Y001870390D01*
G01*
X-17348882Y001766658D01*
G01*
X-17274264Y001675736D01*
G01*
X-17183342Y001601118D01*
G01*
X-17079610Y001545672D01*
G01*
X-16967054Y001511529D01*
G01*
X-16850000Y001500000D01*
G01*
X-16821562Y001502801D01*
G01*
X-16783991Y001467191D01*
G01*
X-16595899Y001288917D01*
G01*
X-16407808Y001110643D01*
G01*
X-16219717Y000932370D01*
G01*
X-16135074Y000852145D01*
G01*
X-16142173Y000780066D01*
G01*
X-16133526Y000692275D01*
G01*
X-16107919Y000607858D01*
G01*
X-16066334Y000530059D01*
G01*
X-16046555Y000505958D01*
G01*
X-16048121Y000504746D01*
G01*
X-16043932Y000499330D01*
G01*
X-16047444Y000463668D01*
G01*
X-16035915Y000346613D01*
G01*
X-16001772Y000234057D01*
G01*
X-15946326Y000130325D01*
G01*
X-15871708Y000039403D01*
G01*
X-15780786Y-00035214D01*
G01*
X-15677054Y-00090660D01*
G01*
X-15564498Y-00124804D01*
G01*
X-15447444Y-00136332D01*
G37*
D36*
G36*
X-06185000Y-00226000D02*
G01*
X-06067946Y-00214471D01*
G01*
X-05955390Y-00180328D01*
G01*
X-05851658Y-00124882D01*
G01*
X-05760736Y-00050264D01*
G01*
X-05686118Y000040658D01*
G01*
X-05630672Y000144390D01*
G01*
X-05596529Y000256946D01*
G01*
X-05585000Y000374000D01*
G01*
X-05596529Y000491054D01*
G01*
X-05630672Y000603610D01*
G01*
X-05686118Y000707342D01*
G01*
X-05760736Y000798264D01*
G01*
X-05851658Y000872882D01*
G01*
X-05955390Y000928328D01*
G01*
X-06067946Y000962471D01*
G01*
X-06185000Y000974000D01*
G01*
X-06278414Y000964799D01*
G01*
X-06578780Y001265165D01*
G01*
X-06635606Y001311801D01*
G01*
X-06700439Y001346455D01*
G01*
X-06770786Y001367794D01*
G01*
X-06843945Y001375000D01*
G01*
X-07435306Y001375000D01*
G01*
X-07475736Y001424264D01*
G01*
X-07566658Y001498882D01*
G01*
X-07670390Y001554328D01*
G01*
X-07782946Y001588471D01*
G01*
X-07900000Y001600000D01*
G01*
X-08017054Y001588471D01*
G01*
X-08129610Y001554328D01*
G01*
X-08233342Y001498882D01*
G01*
X-08324264Y001424264D01*
G01*
X-08398882Y001333342D01*
G01*
X-08454328Y001229610D01*
G01*
X-08488471Y001117054D01*
G01*
X-08500000Y001000000D01*
G01*
X-08488471Y000882946D01*
G01*
X-08454328Y000770390D01*
G01*
X-08398882Y000666658D01*
G01*
X-08324264Y000575736D01*
G01*
X-08233342Y000501118D01*
G01*
X-08129610Y000445672D01*
G01*
X-08017054Y000411529D01*
G01*
X-07900000Y000400000D01*
G01*
X-07782946Y000411529D01*
G01*
X-07670390Y000445672D01*
G01*
X-07566658Y000501118D01*
G01*
X-07475736Y000575736D01*
G01*
X-07435306Y000625000D01*
G01*
X-06999275Y000625000D01*
G01*
X-06781707Y000407432D01*
G01*
X-06785000Y000374000D01*
G01*
X-06773471Y000256946D01*
G01*
X-06739328Y000144390D01*
G01*
X-06683882Y000040658D01*
G01*
X-06609264Y-00050264D01*
G01*
X-06518342Y-00124882D01*
G01*
X-06414610Y-00180328D01*
G01*
X-06302054Y-00214471D01*
G01*
X-06185000Y-00226000D01*
G37*
D36*
G36*
X-20100000Y-00600000D02*
G01*
X-19982946Y-00588471D01*
G01*
X-19870390Y-00554328D01*
G01*
X-19766658Y-00498882D01*
G01*
X-19675736Y-00424264D01*
G01*
X-19601118Y-00333342D01*
G01*
X-19545672Y-00229610D01*
G01*
X-19511529Y-00117054D01*
G01*
X-19500000Y000000000D01*
G01*
X-19511529Y000117054D01*
G01*
X-19545672Y000229610D01*
G01*
X-19601118Y000333342D01*
G01*
X-19675736Y000424264D01*
G01*
X-19766658Y000498882D01*
G01*
X-19870390Y000554328D01*
G01*
X-19982946Y000588471D01*
G01*
X-20100000Y000600000D01*
G01*
X-20217054Y000588471D01*
G01*
X-20329610Y000554328D01*
G01*
X-20433342Y000498882D01*
G01*
X-20524264Y000424264D01*
G01*
X-20598882Y000333342D01*
G01*
X-20654328Y000229610D01*
G01*
X-20688471Y000117054D01*
G01*
X-20700000Y000000000D01*
G01*
X-20688471Y-00117054D01*
G01*
X-20654328Y-00229610D01*
G01*
X-20598882Y-00333342D01*
G01*
X-20524264Y-00424264D01*
G01*
X-20433342Y-00498882D01*
G01*
X-20329610Y-00554328D01*
G01*
X-20217054Y-00588471D01*
G01*
X-20100000Y-00600000D01*
G37*
%LPD*%
%ADD37C,0.999998*%
D37*
X-04319905Y022960177D03*
X-04319905Y022960177D02*
X-04319905Y022160178D01*
X-04319905Y022160178D03*
D37*
X004319905Y022960177D03*
X004319905Y022960177D02*
X004319905Y022160178D01*
X004319905Y022160178D03*
D37*
X004319905Y027160168D03*
X004319905Y027160168D02*
X004319905Y025960171D01*
X004319905Y025960171D03*
D37*
X-04319905Y027160168D03*
X-04319905Y027160168D02*
X-04319905Y025960171D01*
X-04319905Y025960171D03*
D10*
X-04319905Y022560177D02*
X-06000000Y021902701D01*
D10*
X-06000000Y021902701D02*
X-06000000Y020100000D01*
D10*
X-06000000Y020100000D02*
X-03600000Y020100000D01*
D10*
X004319905Y022560177D02*
X006000000Y021902701D01*
D10*
X004319905Y026560169D02*
X006000000Y025602719D01*
D10*
X-04319905Y026560169D02*
X-06000000Y025602719D01*
D11*
X-02000000Y019800000D02*
X-02000000Y020800000D01*
D11*
X-02000000Y020800000D02*
X002000000Y020800000D01*
D11*
X002000000Y020800000D02*
X002000000Y019800000D01*
D10*
X004746636Y007500000D02*
X004612587Y007634049D01*
D10*
X004612587Y007634049D02*
X004612587Y007941722D01*
D10*
X004612587Y007941722D02*
X004988982Y008400550D01*
D10*
X004988982Y008400550D02*
X008371000Y011700135D01*
D10*
X008371000Y011700135D02*
X008134907Y014783000D01*
D10*
X003932819Y014794151D02*
X003685268Y015055322D01*
D10*
X003685268Y015055322D02*
X000757986Y015046772D01*
D10*
X000757986Y015046772D02*
X-00000317Y015800000D01*
D10*
X003800000Y009800000D02*
X003800000Y007900000D01*
D10*
X003800000Y007900000D02*
X-00999808Y007900000D01*
D10*
X-00999808Y007900000D02*
X-00999808Y010200000D01*
D10*
X014000000Y-03500002D02*
X014000000Y-06500000D01*
D10*
X014000000Y-06500000D02*
X013000000Y-06500000D01*
D10*
X013000000Y-06500000D02*
X013000000Y-08000000D01*
D10*
X011000000Y006949960D02*
X011000000Y008500000D01*
D10*
X011000000Y008500000D02*
X006253364Y008500000D01*
D10*
X006253364Y008500000D02*
X006253364Y007500000D01*
D11*
X-01999933Y010200000D02*
X-04500002Y014600000D01*
D10*
X-00000318Y010200000D02*
X-00000318Y011800000D01*
D10*
X-00000318Y011800000D02*
X007000000Y011800000D01*
D10*
X007000000Y011800000D02*
X007000000Y022000000D01*
D10*
X007000000Y022000000D02*
X007249938Y024000000D01*
D10*
X016000000Y002750068D02*
X016000000Y-16000000D01*
D10*
X016000000Y-16000000D02*
X-16000000Y-16000000D01*
D10*
X-16000000Y-16000000D02*
X-16000000Y-03400000D01*
D10*
X004958000Y-05542000D02*
X006773904Y-05542000D01*
D10*
X006773904Y-05542000D02*
X015917139Y003601235D01*
D10*
X015917139Y003601235D02*
X015917139Y013165155D01*
D10*
X015917139Y013165155D02*
X015941516Y013266421D01*
D10*
X015941516Y013266421D02*
X015941516Y013367687D01*
D10*
X015941516Y013367687D02*
X015941516Y013468953D01*
D10*
X015941516Y013468953D02*
X015941516Y013570219D01*
D10*
X015941516Y013570219D02*
X015941516Y013671485D01*
D10*
X015941516Y013671485D02*
X015941516Y013772750D01*
D10*
X015941516Y013772750D02*
X015941516Y013874016D01*
D10*
X015941516Y013874016D02*
X015890883Y014127181D01*
D10*
X015890883Y014127181D02*
X015890883Y014532244D01*
D10*
X015890883Y014532244D02*
X015890883Y014937307D01*
D10*
X015890883Y014937307D02*
X015890883Y015342371D01*
D10*
X015890883Y015342371D02*
X015890883Y015747434D01*
D10*
X015890883Y015747434D02*
X015890883Y016152497D01*
D10*
X015890883Y016152497D02*
X015890883Y016557561D01*
D10*
X015890883Y016557561D02*
X015485820Y016557561D01*
D10*
X015485820Y016557561D02*
X015080757Y016557561D01*
D10*
X015080757Y016557561D02*
X015080757Y016962624D01*
D10*
X015080757Y016962624D02*
X014200125Y016962624D01*
D10*
X014200125Y016962624D02*
X014200125Y019000000D01*
D10*
X000999808Y015800000D02*
X000999808Y016800000D01*
D10*
X000999808Y016800000D02*
X-04246636Y016800000D01*
D10*
X-04246636Y016800000D02*
X-04246636Y017400000D01*
D10*
X002000000Y004800000D02*
X000186595Y006613405D01*
D10*
X000186595Y006613405D02*
X-02613405Y006613405D01*
D10*
X-02613405Y006613405D02*
X-03400000Y007200000D01*
D10*
X000999808Y010200000D02*
X001000000Y011100000D01*
D10*
X001000000Y011100000D02*
X006100000Y011100000D01*
D10*
X006100000Y011100000D02*
X006100000Y010500000D01*
D10*
X010100000Y007760000D02*
X010100000Y007815253D01*
D10*
X010100000Y007815253D02*
X008999998Y006715251D01*
D10*
X008999998Y006715251D02*
X008999998Y003500000D01*
D10*
X-02000000Y004800000D02*
X000275304Y002446105D01*
D10*
X000275304Y002446105D02*
X007830531Y002497938D01*
D10*
X007830531Y002497938D02*
X008024899Y002524899D01*
D10*
X008024899Y002524899D02*
X009000000Y003500000D01*
D10*
X-06185000Y000374000D02*
X-06222000Y000378055D01*
D10*
X-06222000Y000378055D02*
X-06843945Y001000000D01*
D10*
X-06843945Y001000000D02*
X-07900000Y001000000D01*
D10*
X-01286000Y-11890000D02*
X-01274437Y-07693175D01*
D10*
X-01274437Y-07693175D02*
X011817977Y005374052D01*
D10*
X011817977Y005374052D02*
X011743472Y018622216D01*
D10*
X011743472Y018622216D02*
X012200000Y019000000D01*
D10*
X006358908Y-13051588D02*
X004400000Y-10774986D01*
D10*
X004400000Y-10774986D02*
X004400000Y-05148689D01*
D10*
X004400000Y-05148689D02*
X012315000Y002766311D01*
D10*
X012315000Y002766311D02*
X012315000Y013300000D01*
D10*
X-00000317Y015800000D02*
X-00591525Y015208792D01*
D10*
X-00591525Y015208792D02*
X-04893750Y015131250D01*
D10*
X-04893750Y015131250D02*
X-06843294Y013148427D01*
D10*
X-06843294Y013148427D02*
X-06829606Y012318478D01*
D10*
X-06829606Y012318478D02*
X-06759781Y012318478D01*
D10*
X-06759781Y012318478D02*
X-06643660Y012059350D01*
D10*
X001999933Y015800000D02*
X001999933Y016296320D01*
D10*
X001999933Y016296320D02*
X000496427Y017799825D01*
D10*
X000496427Y017799825D02*
X000247175Y017799825D01*
D10*
X000247175Y017799825D02*
X000247000Y017800000D01*
D10*
X-03456497Y023894692D02*
X-03395557Y023896971D01*
D10*
X-03395557Y023896971D02*
X-03542280Y023896971D01*
D10*
X-03542280Y023896971D02*
X-05247903Y023896971D01*
D10*
X-05247903Y023896971D02*
X-06339602Y022805273D01*
D10*
X-06339602Y022805273D02*
X-06339602Y019339602D01*
D10*
X-06339602Y019339602D02*
X-06000000Y019000000D01*
D10*
X009200000Y-08000000D02*
X009200000Y-07925000D01*
D10*
X009200000Y-07925000D02*
X009200000Y-07906250D01*
D14*
X009200000Y-07906250D02*
X009200000Y-07812500D01*
D15*
X009200000Y-07812500D02*
X009200000Y-07718750D01*
D16*
X009200000Y-07718750D02*
X009200000Y-07625000D01*
D17*
X009200000Y-07625000D02*
X009200000Y-07531250D01*
D18*
X009200000Y-07531250D02*
X009200000Y-07437500D01*
D19*
X009200000Y-07437500D02*
X009200000Y-07343750D01*
D20*
X009200000Y-07343750D02*
X009200000Y-07250000D01*
D21*
X009200000Y-07250000D02*
X009200000Y-06799998D01*
D21*
X009200000Y-06799998D02*
X009969670Y-06030328D01*
D21*
X009969670Y-06030328D02*
X010035961Y-05964037D01*
D22*
X010035961Y-05964037D02*
X010102252Y-05897746D01*
D23*
X010102252Y-05897746D02*
X010168544Y-05831454D01*
D24*
X010168544Y-05831454D02*
X010234835Y-05765163D01*
D25*
X010234835Y-05765163D02*
X010301126Y-05698872D01*
D26*
X010301126Y-05698872D02*
X010367417Y-05632581D01*
D27*
X010367417Y-05632581D02*
X010425000Y-05574998D01*
D28*
X010425000Y-05574998D02*
X010433709Y-05566289D01*
D28*
X010433709Y-05566289D02*
X010500000Y-05499998D01*
D10*
X006335050Y-06325000D02*
X009674998Y-06325000D01*
D10*
X009674998Y-06325000D02*
X010500000Y-05499998D01*
D10*
X-02618000Y-04617000D02*
X-02662896Y-04572104D01*
D10*
X-02662896Y-04572104D02*
X-02662896Y-04564236D01*
D10*
X-02662896Y-04564236D02*
X-02843313Y-04383819D01*
D10*
X-02843313Y-04383819D02*
X-05718805Y-04558103D01*
D10*
X-05718805Y-04558103D02*
X-12289254Y002227252D01*
D10*
X-12289254Y002227252D02*
X-12065111Y005334275D01*
D11*
X-15447444Y000463668D02*
X-15569808Y000621867D01*
D11*
X-15569808Y000621867D02*
X-15692173Y000780066D01*
D11*
X-15692173Y000780066D02*
X-15533974Y000902430D01*
D11*
X-15533974Y000902430D02*
X-15722065Y001080704D01*
D11*
X-15722065Y001080704D02*
X-15910157Y001258977D01*
D11*
X-15910157Y001258977D02*
X-16098248Y001437251D01*
D11*
X-16098248Y001437251D02*
X-16286339Y001615525D01*
D11*
X-16286339Y001615525D02*
X-16474431Y001793798D01*
D11*
X-16474431Y001793798D02*
X-16662522Y001972072D01*
D11*
X-16662522Y001972072D02*
X-16850000Y002100000D01*
D11*
X-00999808Y010200000D02*
X-01209925Y009992692D01*
D11*
X-01209925Y009992692D02*
X-01500000Y009600000D01*
D11*
X-01500000Y009600000D02*
X-01630160Y009578077D01*
D11*
X-01630160Y009578077D02*
X-01840277Y009370769D01*
D11*
X-01840277Y009370769D02*
X-02050395Y009163461D01*
D11*
X-02050395Y009163461D02*
X-02260512Y008956154D01*
D11*
X-02260512Y008956154D02*
X-02470629Y008748846D01*
D11*
X-02470629Y008748846D02*
X-02680747Y008541538D01*
D11*
X-02680747Y008541538D02*
X-02890864Y008334230D01*
D11*
X-02890864Y008334230D02*
X-03100982Y008126923D01*
D11*
X-03100982Y008126923D02*
X-03355601Y008143112D01*
D11*
X-03355601Y008143112D02*
X-03610221Y008159301D01*
D11*
X-03610221Y008159301D02*
X-03864841Y008175491D01*
D11*
X-03864841Y008175491D02*
X-04119460Y008191680D01*
D11*
X-04119460Y008191680D02*
X-04374080Y008207870D01*
D11*
X-04374080Y008207870D02*
X-04628700Y008224059D01*
D11*
X-04628700Y008224059D02*
X-04754240Y008098689D01*
D11*
X-04754240Y008098689D02*
X-04901459Y007951469D01*
D11*
X-04901459Y007951469D02*
X-05048678Y007804250D01*
D11*
X-05048678Y007804250D02*
X-05195897Y007657031D01*
D11*
X-05195897Y007657031D02*
X-05195897Y007652103D01*
D11*
X-05195897Y007652103D02*
X-05305000Y007543000D01*
D11*
X-02300000Y006000000D02*
X-02578540Y005999907D01*
D11*
X-02578540Y005999907D02*
X-02857080Y005999813D01*
D11*
X-02857080Y005999813D02*
X-03135621Y005999720D01*
D11*
X-03135621Y005999720D02*
X-03341982Y006205095D01*
D11*
X-03341982Y006205095D02*
X-04050000Y006750000D01*
D11*
X-04050000Y006750000D02*
X-04355170Y007478038D01*
D11*
X002000000Y019800000D02*
X002066291Y019733709D01*
D11*
X002066291Y019733709D02*
X002075000Y019725000D01*
D11*
X002075000Y019725000D02*
X002132583Y019667417D01*
D11*
X002132583Y019667417D02*
X002198874Y019601126D01*
D11*
X002198874Y019601126D02*
X002265165Y019534835D01*
D11*
X002265165Y019534835D02*
X002331456Y019468544D01*
D11*
X002331456Y019468544D02*
X002397748Y019402252D01*
D11*
X002397748Y019402252D02*
X002464039Y019335961D01*
D11*
X002464039Y019335961D02*
X002530330Y019269670D01*
D11*
X002530330Y019269670D02*
X002721000Y019079000D01*
D11*
X002721000Y019079000D02*
X005600000Y019079000D01*
D11*
X002000000Y019800000D02*
X002185671Y019614329D01*
D11*
X002185671Y019614329D02*
X002371341Y019428659D01*
D11*
X002371341Y019428659D02*
X002557012Y019242988D01*
D11*
X002557012Y019242988D02*
X002586411Y018951749D01*
D11*
X002586411Y018951749D02*
X002615810Y018660510D01*
D11*
X002615810Y018660510D02*
X002645209Y018369271D01*
D11*
X002645209Y018369271D02*
X002674607Y018078032D01*
D11*
X002674607Y018078032D02*
X002704006Y017786793D01*
D11*
X002704006Y017786793D02*
X002733405Y017495554D01*
D11*
X002733405Y017495554D02*
X002762804Y017204315D01*
D11*
X002762804Y017204315D02*
X002792203Y016913077D01*
D11*
X002792203Y016913077D02*
X002821602Y016621838D01*
D11*
X-02000000Y015800000D02*
X-02097161Y015702839D01*
D11*
X-02097161Y015702839D02*
X-02391124Y015706696D01*
D11*
X-02391124Y015706696D02*
X-02685086Y015710553D01*
D11*
X-02685086Y015710553D02*
X-02979048Y015714410D01*
D11*
X-02979048Y015714410D02*
X-03273010Y015718267D01*
D11*
X-03273010Y015718267D02*
X-03566973Y015722124D01*
D11*
X-03566973Y015722124D02*
X-03860935Y015725981D01*
D11*
X-03860935Y015725981D02*
X-04154897Y015729839D01*
D11*
X-04154897Y015729839D02*
X-04448859Y015733696D01*
D11*
X-04448859Y015733696D02*
X-04950000Y015600000D01*
D11*
X-04950000Y015600000D02*
X-06027516Y014713633D01*
D11*
X-06027516Y014713633D02*
X-06322133Y014701225D01*
D11*
X-06322133Y014701225D02*
X-06616750Y014688817D01*
D11*
X-06616750Y014688817D02*
X-06911367Y014676409D01*
D11*
X-06911367Y014676409D02*
X-07205984Y014664001D01*
D11*
X-07205984Y014664001D02*
X-07500601Y014651593D01*
D11*
X-07500601Y014651593D02*
X-07795218Y014639185D01*
D11*
X-07795218Y014639185D02*
X-08089835Y014626778D01*
D11*
X-08089835Y014626778D02*
X-08384452Y014614370D01*
D11*
X-08384452Y014614370D02*
X-08679069Y014601962D01*
D10*
X-08000000Y004800000D02*
X-08000000Y005500000D01*
D10*
X-08000000Y005500000D02*
X-07500000Y006000000D01*
D10*
X001999933Y010200000D02*
X003200000Y008999933D01*
D10*
X003200000Y008999933D02*
X003200000Y008500000D01*
D10*
X-07500000Y008500000D02*
X-07500000Y006000000D01*
D10*
X-05253000Y004400000D02*
X-06853000Y006000000D01*
D10*
X-06853000Y006000000D02*
X-07500000Y006000000D01*
D10*
X-07400000Y016000000D02*
X-08188692Y016018119D01*
D10*
X-08188692Y016018119D02*
X-09416242Y014918098D01*
D10*
X-09416242Y014918098D02*
X-09334412Y014334412D01*
D10*
X-09334412Y014334412D02*
X-08400000Y013400000D01*
D10*
X-14999998Y-03000000D02*
X-15318634Y-03000000D01*
D10*
X-15318634Y-03000000D02*
X-16507475Y-01811159D01*
D10*
X-16507475Y-01811159D02*
X-16507841Y-01811159D01*
D10*
X-16507841Y-01811159D02*
X-16740000Y-01656000D01*
D10*
X-06452972Y010816664D02*
X-06452972Y009547028D01*
D10*
X-06452972Y009547028D02*
X-07500000Y008500000D01*
D10*
X006000000Y021903000D02*
X004850000Y023053000D01*
D10*
X004850000Y023053000D02*
X003330000Y023053000D01*
D10*
X003486000Y006960002D02*
X005727000Y006960002D01*
D10*
X005727000Y006960002D02*
X006253000Y007500000D01*
D10*
X006000000Y021902701D02*
X005879000Y022023701D01*
D10*
X005879000Y022023701D02*
X005879000Y022999000D01*
D10*
X005253364Y004100000D02*
X005253364Y006500364D01*
D10*
X005253364Y006500364D02*
X006253000Y007500000D01*
D10*
X006000000Y021903000D02*
X006000000Y025602719D01*
D10*
X-13000000Y003000000D02*
X-15000000Y003000000D01*
D10*
X-15000000Y003000000D02*
X-16500000Y004500000D01*
D10*
X-01800000Y000600000D02*
X-01863236Y000663236D01*
D10*
X-01863236Y000663236D02*
X-01863236Y000804335D01*
D10*
X-01863236Y000804335D02*
X-05253364Y004194464D01*
D10*
X-05253364Y004194464D02*
X-05253364Y004400000D01*
D10*
X001999933Y010200000D02*
X002467943Y010668011D01*
D10*
X002467943Y010668011D02*
X004055982Y010668011D01*
D10*
X004055982Y010668011D02*
X004231989Y010668011D01*
D10*
X004231989Y010668011D02*
X004712066Y010360000D01*
D10*
X-06991058Y-02315000D02*
X-07205197Y-02012124D01*
D10*
X-07205197Y-02012124D02*
X-07205197Y-02003338D01*
D10*
X-07205197Y-02003338D02*
X-07800000Y-01408535D01*
D10*
X-07800000Y-01408535D02*
X-07800000Y000000000D01*
D10*
X-08000000Y004800000D02*
X-08424207Y004378460D01*
D10*
X-08424207Y004378460D02*
X-08443248Y000667430D01*
D10*
X-08443248Y000667430D02*
X-08445290Y000600411D01*
D10*
X-08445290Y000600411D02*
X-07800000Y000000000D01*
D10*
X005200000Y013200000D02*
X005200000Y014424527D01*
D10*
X005200000Y014424527D02*
X006278602Y015503129D01*
D10*
X006278602Y015503129D02*
X006278602Y015514602D01*
D10*
X006278602Y015514602D02*
X006260000Y015592183D01*
D10*
X-13000000Y003000000D02*
X-12700911Y003300161D01*
D10*
X-12700911Y003300161D02*
X-12704116Y005880638D01*
D10*
X-12704116Y005880638D02*
X-09033808Y005842298D01*
D10*
X-09033808Y005842298D02*
X-08000000Y004800000D01*
D10*
X-18165001Y001020000D02*
X-18001000Y002999000D01*
D10*
X-18001000Y002999000D02*
X-16500000Y004500000D01*
D10*
X-03600000Y020100000D02*
X-03600000Y019800000D01*
D10*
X-03600000Y019800000D02*
X-07400000Y016000000D01*
D10*
X-03600000Y020100000D02*
X-01775748Y018334011D01*
D10*
X-01775748Y018334011D02*
X001534631Y018345522D01*
D10*
X001534631Y018345522D02*
X001677375Y018275625D01*
D10*
X001677375Y018275625D02*
X001753000Y018200000D01*
D10*
X013200127Y019000000D02*
X013345290Y019000000D01*
D10*
X013345290Y019000000D02*
X013710083Y019514498D01*
D10*
X013710083Y019514498D02*
X014068819Y019567564D01*
D10*
X014068819Y019567564D02*
X014327638Y019548908D01*
D10*
X014327638Y019548908D02*
X014615640Y019534532D01*
D10*
X014615640Y019534532D02*
X014772356Y019366305D01*
D10*
X014772356Y019366305D02*
X017300000Y016827000D01*
D10*
X017300000Y016827000D02*
X017300000Y014800000D01*
D10*
X013000000Y-08000000D02*
X013802000Y-08802000D01*
D10*
X013802000Y-08802000D02*
X013802000Y-10316000D01*
D10*
X-18745190Y010071137D02*
X-18598000Y006598000D01*
D10*
X-18598000Y006598000D02*
X-16500000Y004500000D01*
D10*
X-06000000Y025602719D02*
X-05288745Y024891464D01*
D10*
X-05288745Y024891464D02*
X-03604030Y024891464D01*
D10*
X-03604030Y024891464D02*
X-02679720Y024101232D01*
D10*
X-02679720Y024101232D02*
X-02807874Y019219265D01*
D10*
X-02807874Y019219265D02*
X000734099Y019219265D01*
D10*
X000734099Y019219265D02*
X001753364Y018200000D01*
D35*
X-03600000Y020100000D03*
D35*
X-02000000Y019800000D03*
D35*
X-00800000Y019900000D03*
D35*
X000800000Y019900000D03*
D35*
X002000000Y019800000D03*
D35*
X003600000Y019800000D03*
D35*
X-06000000Y019000000D03*
D35*
X-01999933Y010200000D03*
D35*
X-00999808Y010200000D03*
D35*
X-00000317Y010200000D03*
D35*
X000999808Y010200000D03*
D35*
X001999933Y010200000D03*
D35*
X001999933Y015800000D03*
D35*
X000999808Y015800000D03*
D35*
X-00000317Y015800000D03*
D35*
X-01999933Y015800000D03*
D35*
X-02500000Y013000000D03*
D35*
X006253364Y007500000D03*
D35*
X004746636Y007500000D03*
D35*
X008134907Y014783000D03*
D35*
X003932819Y014794151D03*
D35*
X003800000Y009800000D03*
D35*
X005200000Y013200000D03*
D35*
X-07400000Y016000000D03*
D35*
X000246636Y017800000D03*
D35*
X001753364Y018200000D03*
D35*
X-08400000Y013400000D03*
D35*
X-09500000Y-04375076D03*
D35*
X009200000Y-08000000D03*
D35*
X013000000Y-08000000D03*
D35*
X010500000Y-05499998D03*
D35*
X014000000Y-03500002D03*
D35*
X014200125Y019000000D03*
D35*
X013200127Y019000000D03*
D35*
X012200129Y019000000D03*
D35*
X017300000Y014800244D03*
D35*
X009300000Y016000000D03*
D35*
X012315092Y013300000D03*
D35*
X-01500000Y003300000D03*
D35*
X003000000Y001500000D03*
D35*
X002000000Y003000000D03*
D35*
X-07500000Y006000000D03*
D35*
X-13000000Y003000000D03*
D35*
X-08000000Y004800000D03*
D35*
X-07800000Y000000000D03*
D35*
X-07500000Y008500000D03*
D35*
X-14999998Y-03000000D03*
D35*
X-07900000Y001000000D03*
D35*
X-20100000Y000000000D03*
D35*
X-16500000Y004500000D03*
D35*
X002000000Y004800000D03*
D35*
X002300000Y006000000D03*
D35*
X-02000000Y007200000D03*
D35*
X-02300000Y006000000D03*
D35*
X-02000000Y004800000D03*
D35*
X000800000Y009400000D03*
D35*
X003200000Y008500000D03*
D35*
X-05253364Y004400000D03*
D35*
X005253364Y004100000D03*
D35*
X008999998Y003500000D03*
D35*
X011000000Y006949960D03*
D35*
X-04500002Y014600000D03*
D35*
X007249938Y024000000D03*
D35*
X016000000Y002750068D03*
D35*
X-16000000Y-03400000D03*
D35*
X004958000Y-05542000D03*
D35*
X-04246636Y017400000D03*
D35*
X-03400000Y007200000D03*
D35*
X006100000Y010500000D03*
D35*
X010100000Y007760000D03*
D35*
X-06185000Y000374000D03*
D35*
X-01286000Y-11890000D03*
D35*
X006358908Y-13051588D03*
D35*
X-06643660Y012059350D03*
D35*
X-03456497Y023894692D03*
D35*
X006335050Y-06325000D03*
D35*
X-02618000Y-04617000D03*
D35*
X-12065111Y005334275D03*
D35*
X-15447444Y000463668D03*
D35*
X-16850000Y002100000D03*
D35*
X-05305000Y007543000D03*
D35*
X-04355170Y007478038D03*
D35*
X005600000Y019079000D03*
D35*
X002821602Y016621838D03*
D35*
X-08679069Y014601962D03*
D35*
X-16740000Y-01656000D03*
D35*
X-06452972Y010816664D03*
D35*
X003330000Y023053000D03*
D35*
X003486000Y006960002D03*
D35*
X005879000Y022999000D03*
D35*
X-01800000Y000600000D03*
D35*
X004712066Y010360000D03*
D35*
X-06991058Y-02315000D03*
D35*
X006260000Y015592183D03*
D35*
X-18165001Y001020000D03*
D35*
X013802000Y-10316000D03*
D35*
X-18745190Y010071137D03*
%LPC*%
D32*
X020300012Y-09349833D03*
%LPD*%
%LPC*%
D32*
X020300012Y-07649811D03*
%LPD*%
%LPC*%
D33*
X019756164Y003500130D03*
%LPD*%
%LPC*%
D33*
X019756164Y006500124D03*
%LPD*%
%LPC*%
D34*
X-19000000Y025000000D03*
%LPD*%
%LPC*%
D34*
X019000000Y025000000D03*
%LPD*%
%LPC*%
D34*
X-19000000Y-14000000D03*
%LPD*%
%LPC*%
D34*
X019000000Y-14000000D03*
%LPD*%
M02*