%TF.GenerationSoftware,tscircuit,circuit-json-to-gerber,0.0.109*%
%TF.CreationDate,2026-10-06T05:33:59.807Z*%
%TF.SameCoordinates,Original*%
%TF.FileFunction,Soldermask,Top*%
%TF.FilePolarity,Negative*%
%FSLAX46Y46*%
%MOMM*%
G04 Gerber Fmt 4.6, Leading zero omitted, Abs format (unit mm)*
G04 Created by tscircuit (builder) date 2026-10-06T05:33:59.807Z*
G01*
%LPD*%
G75*
G04 APERTURE MACROS START*
%AMHORZPILL*
0 Horizontal pill (stadium) shape macro*
0 Parameters:*
0 $1 = Total width*
0 $2 = Total height*
0 $3 = Circle diameter (equal to height)*
0 $4 = Circle center offset
0 21 = Center Line(Exposure, Width, Height, Center X, Center Y, Rotation)*
0 1 = Circle(Exposure, Diameter, Center X, Center Y, Rotation)*
21,1,$1-$3,$2,0.0,0.0,0.0*
1,1,$3,0.0-$4,0.0*
1,1,$3,$4,0.0*%
%AMVERTPILL*
0 Vertical pill (stadium) shape macro*
0 Parameters:*
0 $1 = Total width*
0 $2 = Total height*
0 $3 = Circle diameter (equal to width)*
0 $4 = Circle center offset
0 21 = Center Line(Exposure, Width, Height, Center X, Center Y, Rotation)*
21,1,$1,$2-$3,0.0,0.0,0.0*
1,1,$3,0.0,0.0-$4*
1,1,$3,0.0,$4*%
%AMROUNDRECT*
0 Rectangle with rounded corners*
0 $1 Corner radius*
0 $2 $3 $4 $5 $6 $7 $8 $9 X,Y Position of each corner*
0 Polygon box body*
4,1,4,$2,$3,$4,$5,$6,$7,$8,$9,$2,$3,0*
0 Circles for rounded corners*
1,1,$1+$1,$2,$3*
1,1,$1+$1,$4,$5*
1,1,$1+$1,$6,$7*
1,1,$1+$1,$8,$9*
0 Rectangles between the rounded corners*
20,1,$1+$1,$2,$3,$4,$5,0*
20,1,$1+$1,$4,$5,$6,$7,0*
20,1,$1+$1,$6,$7,$8,$9,0*
20,1,$1+$1,$8,$9,$2,$3,0*%
G04 APERTURE MACROS END*
G04 aperture START LIST*
%ADD10C,0.150000*%
%ADD11C,0.500000*%
%ADD12C,0.300000*%
%ADD13C,0.600000*%
%ADD14C,0.200000*%
%ADD15C,0.400000*%
%ADD16C,0.196429*%
%ADD17C,0.250000*%
%ADD18C,0.225000*%
%ADD19C,0.262500*%
%ADD20C,0.175000*%
%ADD21C,0.162500*%
%ADD22C,0.162000*%
%ADD23VERTPILL,1.101598X1.901596X1.101598X0.399999*%
%ADD24VERTPILL,1.101598X2.301596X1.101598X0.599999*%
%ADD25R,0.679999X1.279998*%
%ADD26R,0.379999X1.279998*%
%ADD27C,0.001000*%
%ADD28R,0.806475X0.864006*%
%ADD29R,0.564533X0.604804*%
%ADD30R,0.200000X0.499999*%
%ADD31R,1.499997X0.899998*%
%ADD32R,1.299997X0.699998*%
%ADD33R,0.799998X0.899998*%
%ADD34R,0.559999X0.629999*%
%ADD35R,0.799998X0.799998*%
%ADD36R,0.559999X0.559999*%
%ADD37R,1.901596X1.301598*%
%ADD38R,1.799996X1.199998*%
%ADD39R,1.651610X0.701599*%
%ADD40R,1.550010X0.599999*%
%ADD41R,1.410005X1.350010*%
%ADD42R,0.987003X0.945007*%
%ADD43R,1.601597X1.101598*%
%ADD44R,1.499997X0.999998*%
%ADD45R,1.101598X1.601597*%
%ADD46R,0.999998X1.499997*%
%ADD47R,1.350010X1.410005*%
%ADD48R,0.945007X0.987003*%
%ADD49C,0.700024*%
%ADD50R,1.301598X0.701599*%
%ADD51R,1.199998X0.599999*%
%ADD52R,1.229995X1.859991*%
%ADD53R,0.860996X1.301994*%
%ADD54R,1.301598X1.901596*%
%ADD55R,1.199998X1.799996*%
%ADD56R,0.701599X1.651610*%
%ADD57R,0.599999X1.550010*%
%ADD58C,0.900024*%
%ADD59R,0.699999X1.199998*%
%ADD60R,0.489999X0.839998*%
%ADD61R,1.524000X0.599999*%
%ADD62R,1.066800X0.419999*%
%ADD63R,0.999998X0.650011*%
%ADD64R,0.699999X0.455008*%
%ADD65R,0.766597X0.381610*%
%ADD66R,0.664997X0.280010*%
%ADD67R,1.301598X2.101596*%
%ADD68R,1.199998X1.999996*%
%ADD69R,2.821610X1.401597*%
%ADD70R,2.720010X1.299997*%
%ADD71R,0.899998X0.799998*%
%ADD72R,0.629999X0.559999*%
%ADD73R,0.599999X0.299999*%
%ADD74R,0.419999X0.210000*%
%ADD75C,2.200000*%
%ADD76C,0.600000*%
%TD*%
G04 aperture END LIST*
%ADD77C,1.101598*%
D77*
X-04319905Y022960177D03*
X-04319905Y022960177D02*
X-04319905Y022160178D01*
X-04319905Y022160178D03*
D77*
X004319905Y022960177D03*
X004319905Y022960177D02*
X004319905Y022160178D01*
X004319905Y022160178D03*
D77*
X004319905Y027160168D03*
X004319905Y027160168D02*
X004319905Y025960171D01*
X004319905Y025960171D03*
D77*
X-04319905Y027160168D03*
X-04319905Y027160168D02*
X-04319905Y025960171D01*
X-04319905Y025960171D03*
D25*
X003200019Y021960229D03*
D25*
X002399919Y021960229D03*
D26*
X001749933Y021960229D03*
D26*
X001249807Y021960229D03*
D26*
X000749935Y021960229D03*
D26*
X000249809Y021960229D03*
D26*
X-00250063Y021960229D03*
D26*
X-00750189Y021960229D03*
D26*
X-01250061Y021960229D03*
D26*
X-01750187Y021960229D03*
D25*
X-02400173Y021960229D03*
D25*
X-03200019Y021960229D03*
D28*
X000753364Y019000000D03*
D28*
X-00753364Y019000000D03*
D28*
X-03246636Y019000000D03*
D28*
X-04753364Y019000000D03*
D30*
X-00799973Y011949964D03*
D30*
X-00399923Y011950218D03*
D30*
X-00000127Y011950218D03*
D30*
X000399923Y011950218D03*
D30*
X000799973Y011950218D03*
D30*
X000799973Y014050036D03*
D30*
X000399923Y014050036D03*
D30*
X-00000127Y014050036D03*
D30*
X-00399923Y014050036D03*
D30*
X-00799973Y014050036D03*
D31*
X-00000127Y013000000D03*
D28*
X006253364Y009000000D03*
D28*
X004746636Y009000000D03*
D33*
X005200024Y011500000D03*
D33*
X003799976Y011500000D03*
D33*
X008700024Y020000000D03*
D33*
X007299976Y020000000D03*
D28*
X008753364Y023000000D03*
D28*
X007246636Y023000000D03*
D35*
X007249938Y026000000D03*
D35*
X008750062Y026000000D03*
D37*
X-19875015Y014799971D03*
D37*
X-19875015Y011200029D03*
D39*
X-15999991Y012500001D03*
D39*
X-15999991Y013499999D03*
D28*
X-05753364Y016000000D03*
D28*
X-04246636Y016000000D03*
D28*
X001753364Y017000000D03*
D28*
X000246636Y017000000D03*
D41*
X-06499998Y013400000D03*
D41*
X-04500002Y013400000D03*
D33*
X-05700024Y011000000D03*
D33*
X-04299976Y011000000D03*
D43*
X007750048Y-18375048D03*
D43*
X007750048Y-16375052D03*
D43*
X007750048Y-14375056D03*
D43*
X007750048Y-12375060D03*
D43*
X007750048Y-10375064D03*
D43*
X007750048Y-08375068D03*
D43*
X007750048Y-06375072D03*
D43*
X007750048Y-04375076D03*
D45*
X004999990Y-02874952D03*
D45*
X002999994Y-02874952D03*
D45*
X000999998Y-02874952D03*
D45*
X-00999998Y-02874952D03*
D45*
X-02999994Y-02874952D03*
D45*
X-04999990Y-02874952D03*
D43*
X-07750048Y-04375076D03*
D43*
X-07750048Y-06375072D03*
D43*
X-07750048Y-08375068D03*
D43*
X-07750048Y-10375064D03*
D43*
X-07750048Y-12375060D03*
D43*
X-07750048Y-14375056D03*
D43*
X-07750048Y-16375052D03*
D43*
X-07750048Y-18375048D03*
D33*
X011700024Y-08000000D03*
D33*
X010299976Y-08000000D03*
D47*
X012000000Y-03500002D03*
D47*
X012000000Y-05499998D03*
D49*
X020300012Y-09349833D03*
D49*
X020300012Y-07649811D03*
D27*
G36*
X020949973Y-06900105D02*
X021599959Y-06900105D01*
X021599959Y-06900105D01*
X021599959Y-05850120D01*
X021599959Y-05850120D01*
X020299936Y-05850120D01*
X020299936Y-05850120D01*
X020299936Y-06500080D01*
X020299936Y-06500080D01*
X020949947Y-06500080D01*
X020949947Y-06500080D01*
X020949947Y-06900079D01*
X020949947Y-06900079D01*
X020949973Y-06900105D01*
X020949973Y-06900105D01*
G37*
D27*
G36*
X020299936Y-11149880D02*
X021599959Y-11149880D01*
X021599959Y-11149880D01*
X021599959Y-10099895D01*
X021599959Y-10099895D01*
X020949973Y-10099895D01*
X020949973Y-10099895D01*
X020949947Y-10099921D01*
X020949947Y-10099921D01*
X020949947Y-10499920D01*
X020949947Y-10499920D01*
X020299936Y-10499920D01*
X020299936Y-10499920D01*
X020299936Y-11149880D01*
X020299936Y-11149880D01*
G37*
D50*
X019000040Y-10199971D03*
D50*
X019000040Y-06799927D03*
D52*
X015815092Y-03000000D03*
D52*
X020184908Y-03000000D03*
D28*
X-15753364Y-05000000D03*
D28*
X-14246636Y-05000000D03*
D35*
X-19750062Y-05000000D03*
D35*
X-18249938Y-05000000D03*
D54*
X010900157Y014799990D03*
D54*
X015499843Y014800244D03*
D56*
X014200125Y017325004D03*
D56*
X013200127Y017325004D03*
D56*
X012200129Y017325004D03*
D52*
X-21184908Y-09000000D03*
D52*
X-16815092Y-09000000D03*
D52*
X012315092Y011500000D03*
D52*
X016684908Y011500000D03*
D58*
X019756164Y003500130D03*
D58*
X019756164Y006500124D03*
D59*
X018606052Y008599942D03*
D59*
X020906022Y008599942D03*
D59*
X020906022Y001400058D03*
D59*
X018606052Y001400058D03*
D61*
X017505978Y007249932D03*
D61*
X017505978Y005750062D03*
D61*
X017505978Y002750068D03*
D28*
X003246636Y003000000D03*
D28*
X004753364Y003000000D03*
D63*
X-03000002Y000050040D03*
D63*
X-03000002Y001949960D03*
D63*
X-04999998Y001000000D03*
D28*
X-00753364Y001500000D03*
D28*
X000753364Y001500000D03*
D65*
X-11157478Y003999998D03*
D65*
X-11157478Y003499872D03*
D65*
X-11157478Y003000000D03*
D65*
X-11157478Y002499874D03*
D65*
X-11157478Y002000002D03*
D65*
X-08842522Y003999998D03*
D65*
X-08842522Y003499872D03*
D65*
X-08842522Y003000000D03*
D65*
X-08842522Y002499874D03*
D65*
X-08842522Y002000002D03*
D67*
X-10000000Y003000000D03*
D69*
X-14000000Y004350010D03*
D69*
X-14000000Y001649990D03*
D41*
X-14999998Y-01000000D03*
D41*
X-13000002Y-01000000D03*
D41*
X-09000002Y008500000D03*
D41*
X-10999998Y008500000D03*
D71*
X-07000000Y003700024D03*
D71*
X-07000000Y002299976D03*
D41*
X-09000002Y000000000D03*
D41*
X-10999998Y000000000D03*
D41*
X-09000002Y006000000D03*
D41*
X-10999998Y006000000D03*
D63*
X-17000002Y-00949960D03*
D63*
X-17000002Y000949960D03*
D63*
X-18999998Y000000000D03*
D33*
X-17299976Y003000000D03*
D33*
X-18700024Y003000000D03*
D73*
X-00749986Y005999873D03*
D73*
X000749986Y005999873D03*
D73*
X000749986Y006499999D03*
D73*
X000749986Y005500001D03*
D73*
X-00749986Y006499999D03*
D73*
X-00749986Y005500001D03*
D33*
X002200024Y008500000D03*
D33*
X000799976Y008500000D03*
D28*
X-05253364Y006000000D03*
D28*
X-03746636Y006000000D03*
D28*
X005253364Y005500000D03*
D28*
X003746636Y005500000D03*
D28*
X010253364Y010000000D03*
D28*
X008746636Y010000000D03*
D28*
X007246636Y012000000D03*
D28*
X008753364Y012000000D03*
D63*
X008999998Y005050040D03*
D63*
X008999998Y006949960D03*
D63*
X007000002Y006000000D03*
D75*
X-19000000Y025000000D03*
D75*
X019000000Y025000000D03*
D75*
X-19000000Y-14000000D03*
D75*
X019000000Y-14000000D03*
M02*