solid OpenSCAD_Model
  facet normal 0 -1 0
    outer loop
      vertex 2.8 -1.15 0.1
      vertex 4.2 -1.15 0.1
      vertex 2.8 -1.15 1.9000000000000001
    endloop
  endfacet
  facet normal 0 0 -1
    outer loop
      vertex 2.8 -1.15 0.1
      vertex 2.8 -0.85 0.1
      vertex 4.2 -0.85 0.1
    endloop
  endfacet
  facet normal 0 0 -1
    outer loop
      vertex 2.8 -1.15 0.1
      vertex 4.2 -0.85 0.1
      vertex 4.2 -1.15 0.1
    endloop
  endfacet
  facet normal -1 0 0
    outer loop
      vertex 2.8 -1.15 0.1
      vertex 2.8 -0.85 1.5499999999999998
      vertex 2.8 -0.85 0.1
    endloop
  endfacet
  facet normal 0 -1 0
    outer loop
      vertex 4.6000000000000005 -1.15 0.1
      vertex 5.2 -1.15 0.1
      vertex 4.6000000000000005 -1.15 1.9000000000000001
    endloop
  endfacet
  facet normal 0 0 -1
    outer loop
      vertex 4.6000000000000005 -1.15 0.1
      vertex 5.2 1.15 0.1
      vertex 5.2 -1.15 0.1
    endloop
  endfacet
  facet normal 0 -1 0
    outer loop
      vertex 4.2 -1.15 0.1
      vertex 4.2 -1.15 1.9000000000000001
      vertex 2.8 -1.15 1.9000000000000001
    endloop
  endfacet
  facet normal -1 0 0
    outer loop
      vertex 2.8 -1.15 0.1
      vertex 2.8 -1.15 1.9000000000000001
      vertex 2.8 -0.85 1.5499999999999998
    endloop
  endfacet
  facet normal -1 0 0
    outer loop
      vertex 2.8 -1.15 1.9000000000000001
      vertex 2.8 1.15 1.9000000000000001
      vertex 2.8 -0.85 1.5499999999999998
    endloop
  endfacet
  facet normal 0 0 1
    outer loop
      vertex 2.8 -1.15 1.9000000000000001
      vertex 4.2 -1.15 1.9000000000000001
      vertex 2.8 1.15 1.9000000000000001
    endloop
  endfacet
  facet normal 0 -1 0
    outer loop
      vertex 4.6000000000000005 -1.15 1.9000000000000001
      vertex 5.2 -1.15 0.1
      vertex 5.2 -1.15 1.9000000000000001
    endloop
  endfacet
  facet normal 0 0 1
    outer loop
      vertex 4.6000000000000005 -1.15 1.9000000000000001
      vertex 5.2 -1.15 1.9000000000000001
      vertex 4.6000000000000005 1.15 1.9000000000000001
    endloop
  endfacet
  facet normal 0 0 -1
    outer loop
      vertex 2.8 1.15 0.1
      vertex 4.2 1.15 0.1
      vertex 2.8 0.85 0.1
    endloop
  endfacet
  facet normal 0 0 -1
    outer loop
      vertex 4.2 1.15 0.1
      vertex 4.2 0.85 0.1
      vertex 2.8 0.85 0.1
    endloop
  endfacet
  facet normal -1 0 0
    outer loop
      vertex 2.8 1.15 0.1
      vertex 2.8 0.85 0.1
      vertex 2.8 0.85 1.5499999999999998
    endloop
  endfacet
  facet normal 0 1 0
    outer loop
      vertex 2.8 1.15 0.1
      vertex 4.2 1.15 1.9000000000000001
      vertex 4.2 1.15 0.1
    endloop
  endfacet
  facet normal 0 0 -1
    outer loop
      vertex 4.6000000000000005 -1.15 0.1
      vertex 4.6000000000000005 1.15 0.1
      vertex 5.2 1.15 0.1
    endloop
  endfacet
  facet normal 0 1 0
    outer loop
      vertex 4.6000000000000005 1.15 0.1
      vertex 5.2 1.15 1.9000000000000001
      vertex 5.2 1.15 0.1
    endloop
  endfacet
  facet normal -1 0 0
    outer loop
      vertex 2.8 1.15 0.1
      vertex 2.8 0.85 1.5499999999999998
      vertex 2.8 1.15 1.9000000000000001
    endloop
  endfacet
  facet normal -1 0 0
    outer loop
      vertex 2.8 1.15 1.9000000000000001
      vertex 2.8 0.85 1.5499999999999998
      vertex 2.8 -0.85 1.5499999999999998
    endloop
  endfacet
  facet normal 0 0 1
    outer loop
      vertex 4.2 -1.15 1.9000000000000001
      vertex 4.2 1.15 1.9000000000000001
      vertex 2.8 1.15 1.9000000000000001
    endloop
  endfacet
  facet normal 0 1 0
    outer loop
      vertex 2.8 1.15 0.1
      vertex 2.8 1.15 1.9000000000000001
      vertex 4.2 1.15 1.9000000000000001
    endloop
  endfacet
  facet normal 0 0 1
    outer loop
      vertex 4.6000000000000005 1.15 1.9000000000000001
      vertex 5.2 -1.15 1.9000000000000001
      vertex 5.2 1.15 1.9000000000000001
    endloop
  endfacet
  facet normal 0 1 0
    outer loop
      vertex 4.6000000000000005 1.15 0.1
      vertex 4.6000000000000005 1.15 1.9000000000000001
      vertex 5.2 1.15 1.9000000000000001
    endloop
  endfacet
  facet normal -1 0 0
    outer loop
      vertex 5.2 -2.25 0
      vertex 5.2 -2.25 2.2
      vertex 5.2 -1.15 0.1
    endloop
  endfacet
  facet normal -1 0 0
    outer loop
      vertex 5.2 -2.25 0
      vertex 5.2 -1.15 0.1
      vertex 5.2 1.15 0.1
    endloop
  endfacet
  facet normal 0 -1 0
    outer loop
      vertex 5.2 -2.25 0
      vertex 7.4 -2.25 0
      vertex 7.4 -2.25 2.2
    endloop
  endfacet
  facet normal 0 0 -1
    outer loop
      vertex 5.2 -2.25 0
      vertex 7.4 2.25 0
      vertex 7.4 -2.25 0
    endloop
  endfacet
  facet normal 1 0 0
    outer loop
      vertex 7.4 -2.25 0
      vertex 7.4 2.25 0
      vertex 7.4 -2.25 2.2
    endloop
  endfacet
  facet normal -1 0 0
    outer loop
      vertex 5.2 -1.15 0.1
      vertex 5.2 -2.25 2.2
      vertex 5.2 -1.15 1.9000000000000001
    endloop
  endfacet
  facet normal 0 -1 0
    outer loop
      vertex 5.2 -2.25 0
      vertex 7.4 -2.25 2.2
      vertex 5.2 -2.25 2.2
    endloop
  endfacet
  facet normal -1 0 0
    outer loop
      vertex 5.2 -2.25 2.2
      vertex 5.2 2.25 2.2
      vertex 5.2 -1.15 1.9000000000000001
    endloop
  endfacet
  facet normal 0 0 1
    outer loop
      vertex 5.2 -2.25 2.2
      vertex 7.4 -2.25 2.2
      vertex 5.2 2.25 2.2
    endloop
  endfacet
  facet normal -1 0 0
    outer loop
      vertex 5.2 -2.25 0
      vertex 5.2 1.15 0.1
      vertex 5.2 2.25 0
    endloop
  endfacet
  facet normal 0 0 -1
    outer loop
      vertex 5.2 -2.25 0
      vertex 5.2 2.25 0
      vertex 7.4 2.25 0
    endloop
  endfacet
  facet normal -1 0 0
    outer loop
      vertex 5.2 1.15 0.1
      vertex 5.2 1.15 1.9000000000000001
      vertex 5.2 2.25 0
    endloop
  endfacet
  facet normal 0 1 0
    outer loop
      vertex 5.2 2.25 0
      vertex 5.2 2.25 2.2
      vertex 7.4 2.25 0
    endloop
  endfacet
  facet normal -1 0 0
    outer loop
      vertex 5.2 -1.15 1.9000000000000001
      vertex 5.2 2.25 2.2
      vertex 5.2 1.15 1.9000000000000001
    endloop
  endfacet
  facet normal -1 0 0
    outer loop
      vertex 5.2 2.25 0
      vertex 5.2 1.15 1.9000000000000001
      vertex 5.2 2.25 2.2
    endloop
  endfacet
  facet normal 1 0 0
    outer loop
      vertex 7.4 -2.25 2.2
      vertex 7.4 2.25 0
      vertex 7.4 2.25 2.2
    endloop
  endfacet
  facet normal 0 0 1
    outer loop
      vertex 7.4 -2.25 2.2
      vertex 7.4 2.25 2.2
      vertex 5.2 2.25 2.2
    endloop
  endfacet
  facet normal 0 1 0
    outer loop
      vertex 7.4 2.25 0
      vertex 5.2 2.25 2.2
      vertex 7.4 2.25 2.2
    endloop
  endfacet
  facet normal 0 0 -1
    outer loop
      vertex 4.2 -2.25 0
      vertex 4.5 -0.85 0
      vertex 4.6000000000000005 -2.25 0
    endloop
  endfacet
  facet normal -1 0 0
    outer loop
      vertex 4.2 -2.25 0
      vertex 4.2 -1.15 0.1
      vertex 4.2 -0.85 0
    endloop
  endfacet
  facet normal 0 0 -1
    outer loop
      vertex 4.2 -2.25 0
      vertex 4.2 -0.85 0
      vertex 4.5 -0.85 0
    endloop
  endfacet
  facet normal -1 0 0
    outer loop
      vertex 4.2 -2.25 0
      vertex 4.2 -2.25 2.2
      vertex 4.2 -1.15 0.1
    endloop
  endfacet
  facet normal 0 -1 0
    outer loop
      vertex 4.2 -2.25 0
      vertex 4.6000000000000005 -2.25 0
      vertex 4.6000000000000005 -2.25 2.2
    endloop
  endfacet
  facet normal 1 0 0
    outer loop
      vertex 4.6000000000000005 -2.25 0
      vertex 4.6000000000000005 -1.15 0.1
      vertex 4.6000000000000005 -1.15 1.9000000000000001
    endloop
  endfacet
  facet normal -1 0 0
    outer loop
      vertex 4.2 -1.15 0.1
      vertex 4.2 -0.85 0.1
      vertex 4.2 -0.85 0
    endloop
  endfacet
  facet normal 0 0 -1
    outer loop
      vertex 4.6000000000000005 -2.25 0
      vertex 4.5 -0.85 0
      vertex 4.5 0.85 0
    endloop
  endfacet
  facet normal 1 0 0
    outer loop
      vertex 4.6000000000000005 -2.25 0
      vertex 4.6000000000000005 1.15 0.1
      vertex 4.6000000000000005 -1.15 0.1
    endloop
  endfacet
  facet normal 0 -1 0
    outer loop
      vertex 4.2 -2.25 0
      vertex 4.6000000000000005 -2.25 2.2
      vertex 4.2 -2.25 2.2
    endloop
  endfacet
  facet normal -1 0 0
    outer loop
      vertex 4.2 -1.15 0.1
      vertex 4.2 -2.25 2.2
      vertex 4.2 -1.15 1.9000000000000001
    endloop
  endfacet
  facet normal 1 0 0
    outer loop
      vertex 4.6000000000000005 -2.25 0
      vertex 4.6000000000000005 -1.15 1.9000000000000001
      vertex 4.6000000000000005 -2.25 2.2
    endloop
  endfacet
  facet normal -1 0 0
    outer loop
      vertex 4.2 -2.25 2.2
      vertex 4.2 1.15 1.9000000000000001
      vertex 4.2 -1.15 1.9000000000000001
    endloop
  endfacet
  facet normal 0 0 1
    outer loop
      vertex 4.2 -2.25 2.2
      vertex 4.6000000000000005 -2.25 2.2
      vertex 4.2 2.25 2.2
    endloop
  endfacet
  facet normal 1 0 0
    outer loop
      vertex 4.6000000000000005 -2.25 2.2
      vertex 4.6000000000000005 -1.15 1.9000000000000001
      vertex 4.6000000000000005 2.25 2.2
    endloop
  endfacet
  facet normal 0 0 -1
    outer loop
      vertex 4.6000000000000005 -2.25 0
      vertex 4.5 0.85 0
      vertex 4.6000000000000005 2.25 0
    endloop
  endfacet
  facet normal 1 0 0
    outer loop
      vertex 4.6000000000000005 -2.25 0
      vertex 4.6000000000000005 2.25 0
      vertex 4.6000000000000005 1.15 0.1
    endloop
  endfacet
  facet normal -1 0 0
    outer loop
      vertex 4.2 2.25 0
      vertex 4.2 0.85 0
      vertex 4.2 0.85 0.1
    endloop
  endfacet
  facet normal -1 0 0
    outer loop
      vertex 4.2 1.15 0.1
      vertex 4.2 2.25 0
      vertex 4.2 0.85 0.1
    endloop
  endfacet
  facet normal 0 0 -1
    outer loop
      vertex 4.2 2.25 0
      vertex 4.5 0.85 0
      vertex 4.2 0.85 0
    endloop
  endfacet
  facet normal 0 0 -1
    outer loop
      vertex 4.2 2.25 0
      vertex 4.6000000000000005 2.25 0
      vertex 4.5 0.85 0
    endloop
  endfacet
  facet normal -1 0 0
    outer loop
      vertex 4.2 1.15 0.1
      vertex 4.2 1.15 1.9000000000000001
      vertex 4.2 2.25 0
    endloop
  endfacet
  facet normal 0 1 0
    outer loop
      vertex 4.2 2.25 0
      vertex 4.2 2.25 2.2
      vertex 4.6000000000000005 2.25 0
    endloop
  endfacet
  facet normal 1 0 0
    outer loop
      vertex 4.6000000000000005 1.15 0.1
      vertex 4.6000000000000005 2.25 0
      vertex 4.6000000000000005 2.25 2.2
    endloop
  endfacet
  facet normal -1 0 0
    outer loop
      vertex 4.2 -2.25 2.2
      vertex 4.2 2.25 2.2
      vertex 4.2 1.15 1.9000000000000001
    endloop
  endfacet
  facet normal 0 0 1
    outer loop
      vertex 4.6000000000000005 -2.25 2.2
      vertex 4.6000000000000005 2.25 2.2
      vertex 4.2 2.25 2.2
    endloop
  endfacet
  facet normal 1 0 0
    outer loop
      vertex 4.6000000000000005 -1.15 1.9000000000000001
      vertex 4.6000000000000005 1.15 1.9000000000000001
      vertex 4.6000000000000005 2.25 2.2
    endloop
  endfacet
  facet normal -1 0 0
    outer loop
      vertex 4.2 2.25 0
      vertex 4.2 1.15 1.9000000000000001
      vertex 4.2 2.25 2.2
    endloop
  endfacet
  facet normal 0 1 0
    outer loop
      vertex 4.6000000000000005 2.25 0
      vertex 4.2 2.25 2.2
      vertex 4.6000000000000005 2.25 2.2
    endloop
  endfacet
  facet normal 1 0 0
    outer loop
      vertex 4.6000000000000005 1.15 0.1
      vertex 4.6000000000000005 2.25 2.2
      vertex 4.6000000000000005 1.15 1.9000000000000001
    endloop
  endfacet
  facet normal 0 1 0
    outer loop
      vertex 4.5 -0.85 1.5499999999999998
      vertex 2.8 -0.85 0.1
      vertex 2.8 -0.85 1.5499999999999998
    endloop
  endfacet
  facet normal 0 1 0
    outer loop
      vertex 4.5 -0.85 1.5499999999999998
      vertex 4.2 -0.85 0.1
      vertex 2.8 -0.85 0.1
    endloop
  endfacet
  facet normal 0 1 0
    outer loop
      vertex 4.5 -0.85 1.5499999999999998
      vertex 4.2 -0.85 0
      vertex 4.2 -0.85 0.1
    endloop
  endfacet
  facet normal 0 1 0
    outer loop
      vertex 4.5 -0.85 1.5499999999999998
      vertex 4.5 -0.85 0
      vertex 4.2 -0.85 0
    endloop
  endfacet
  facet normal -1 0 0
    outer loop
      vertex 4.5 -0.85 1.5499999999999998
      vertex 4.5 0.85 0
      vertex 4.5 -0.85 0
    endloop
  endfacet
  facet normal 0 0 -1
    outer loop
      vertex 4.5 -0.85 1.5499999999999998
      vertex 2.8 -0.85 1.5499999999999998
      vertex 4.5 0.85 1.5499999999999998
    endloop
  endfacet
  facet normal 0 -1 0
    outer loop
      vertex 4.2 0.85 0.1
      vertex 4.5 0.85 0
      vertex 2.8 0.85 1.5499999999999998
    endloop
  endfacet
  facet normal 0 -1 0
    outer loop
      vertex 2.8 0.85 0.1
      vertex 4.2 0.85 0.1
      vertex 2.8 0.85 1.5499999999999998
    endloop
  endfacet
  facet normal 0 -1 0
    outer loop
      vertex 4.5 0.85 1.5499999999999998
      vertex 2.8 0.85 1.5499999999999998
      vertex 4.5 0.85 0
    endloop
  endfacet
  facet normal 0 -1 0
    outer loop
      vertex 4.2 0.85 0.1
      vertex 4.2 0.85 0
      vertex 4.5 0.85 0
    endloop
  endfacet
  facet normal -1 0 0
    outer loop
      vertex 4.5 -0.85 1.5499999999999998
      vertex 4.5 0.85 1.5499999999999998
      vertex 4.5 0.85 0
    endloop
  endfacet
  facet normal 0 0 -1
    outer loop
      vertex 4.5 0.85 1.5499999999999998
      vertex 2.8 -0.85 1.5499999999999998
      vertex 2.8 0.85 1.5499999999999998
    endloop
  endfacet
endsolid OpenSCAD_Model
