<?xml version="1.0" encoding="utf-8"?>
<svg width="36.795098mm" height="52.1794725mm" viewBox="-18.375005 -23.519457499999998 36.795098 52.1794725" style="background-color:white" xmlns="http://www.w3.org/2000/svg" xmlns:xlink="http://www.w3.org/1999/xlink">
  <g transform="translate(-17.375 27.66) scale(1 -1) translate(17.375 22.5195)">
    <path d="M -1.40007 22.5603 L -1.40007 21.3602 L -1.10007 21.3602 L -1.10007 22.5603 L -1.40007 22.5603" fill="black"/>
    <path d="M -1.6002 21.3602 L -1.6002 22.5603 L -1.9002 22.5603 L -1.9002 21.3602 L -1.6002 21.3602" fill="black"/>
    <path d="M 3.50002 21.3602 L 3.50002 22.5603 L 2.90002 22.5603 L 2.90002 21.3602 L 3.50002 21.3602" fill="black"/>
    <path d="M -0.900201 22.5603 L -0.900201 21.3602 L -0.600202 21.3602 L -0.600202 22.5603 L -0.900201 22.5603" fill="black"/>
    <path d="M -2.10017 21.3602 L -2.10017 22.5603 L -2.70017 22.5603 L -2.70017 21.3602 L -2.10017 21.3602" fill="black"/>
    <path d="M -0.400075 22.5603 L -0.400075 21.3602 L -0.100076 21.3602 L -0.100076 22.5603 L -0.400075 22.5603" fill="black"/>
    <path d="M 0.099797 22.5603 L 0.099797 21.3602 L 0.399796 21.3602 L 0.399796 22.5603 L 0.099797 22.5603" fill="black"/>
    <path d="M 2.69992 21.3602 L 2.69992 22.5603 L 2.09992 22.5603 L 2.09992 21.3602 L 2.69992 21.3602" fill="black"/>
    <path d="M 0.599923 22.5603 L 0.599923 21.3602 L 0.899922 21.3602 L 0.899922 22.5603 L 0.599923 22.5603" fill="black"/>
    <path d="M 1.0998 22.5603 L 1.0998 21.3602 L 1.39979 21.3602 L 1.39979 22.5603 L 1.0998 22.5603" fill="black"/>
    <path d="M 1.59992 22.5603 L 1.59992 21.3602 L 1.89992 21.3602 L 1.89992 22.5603 L 1.59992 22.5603" fill="black"/>
    <path d="M -3.50002 22.5603 L -3.50002 21.3603 L -2.90002 21.3603 L -2.90002 22.5603 L -3.50002 22.5603" fill="black"/>
    <path d="M 4.28254 21.6616 L 4.30743 21.6603 L 4.33238 21.6603 L 4.35727 21.6616 L 4.38208 21.6641 L 4.40672 21.6678 L 4.43116 21.6727 L 4.45531 21.6789 L 4.47914 21.6862 L 4.50258 21.6947 L 4.52554 21.7044 L 4.54802 21.7152 L 4.56989 21.7272 L 4.59118 21.7402 L 4.61178 21.7542 L 4.63164 21.7693 L 4.65074 21.7853 L 4.66903 21.8022 L 4.68643 21.8201 L 4.70294 21.8388 L 4.71848 21.8583 L 4.73304 21.8785 L 4.74655 21.8995 L 4.75902 21.9211 L 4.7704 21.9432 L 4.78064 21.966 L 4.78975 21.9892 L 4.79768 22.0128 L 4.80443 22.0368 L 4.81 22.0611 L 4.81432 22.0857 L 4.81741 22.1104 L 4.81929 22.1353 L 4.8199 22.1602 L 4.8199 22.9602 L 4.81929 22.9851 L 4.81741 23.01 L 4.81432 23.0347 L 4.81 23.0593 L 4.80443 23.0835 L 4.79768 23.1075 L 4.78975 23.1312 L 4.78064 23.1544 L 4.7704 23.1771 L 4.75902 23.1993 L 4.74655 23.2209 L 4.73304 23.2418 L 4.71848 23.2621 L 4.70294 23.2816 L 4.68643 23.3003 L 4.66903 23.3181 L 4.65074 23.3351 L 4.63164 23.3511 L 4.61178 23.3661 L 4.59118 23.3802 L 4.56989 23.3932 L 4.54802 23.4051 L 4.52554 23.4159 L 4.50258 23.4256 L 4.47914 23.4341 L 4.45531 23.4415 L 4.43116 23.4476 L 4.40672 23.4526 L 4.38208 23.4563 L 4.35727 23.4588 L 4.33238 23.46 L 4.30743 23.46 L 4.28254 23.4588 L 4.25773 23.4563 L 4.23309 23.4526 L 4.20865 23.4476 L 4.1845 23.4415 L 4.16067 23.4341 L 4.13723 23.4256 L 4.11427 23.4159 L 4.09179 23.4051 L 4.06989 23.3932 L 4.04863 23.3802 L 4.02803 23.3661 L 4.00817 23.3511 L 3.98907 23.3351 L 3.97078 23.3181 L 3.95338 23.3003 L 3.93687 23.2816 L 3.92133 23.2621 L 3.90677 23.2418 L 3.89326 23.2209 L 3.88079 23.1993 L 3.86941 23.1771 L 3.85917 23.1544 L 3.85006 23.1312 L 3.84213 23.1075 L 3.83537 23.0835 L 3.82981 23.0593 L 3.82549 23.0347 L 3.8224 23.01 L 3.82052 22.9851 L 3.81991 22.9602 L 3.81991 22.1602 L 3.82052 22.1353 L 3.8224 22.1104 L 3.82549 22.0857 L 3.82981 22.0611 L 3.83537 22.0368 L 3.84213 22.0128 L 3.85006 21.9892 L 3.85917 21.966 L 3.86941 21.9432 L 3.88079 21.9211 L 3.89326 21.8995 L 3.90677 21.8785 L 3.92133 21.8583 L 3.93687 21.8388 L 3.95338 21.8201 L 3.97078 21.8022 L 3.98907 21.7853 L 4.00817 21.7693 L 4.02803 21.7542 L 4.04863 21.7402 L 4.06989 21.7272 L 4.09179 21.7152 L 4.11427 21.7044 L 4.13723 21.6947 L 4.16067 21.6862 L 4.1845 21.6789 L 4.20865 21.6727 L 4.23309 21.6678 L 4.25773 21.6641 L 4.28254 21.6616" fill="black"/>
    <path d="M -4.30743 21.6603 L -4.28254 21.6616 L -4.25773 21.6641 L -4.23309 21.6678 L -4.20865 21.6727 L -4.1845 21.6789 L -4.16067 21.6862 L -4.13723 21.6947 L -4.11427 21.7044 L -4.09179 21.7152 L -4.06992 21.7272 L -4.04863 21.7402 L -4.02803 21.7542 L -4.00817 21.7693 L -3.98907 21.7853 L -3.97078 21.8022 L -3.95338 21.8201 L -3.93687 21.8388 L -3.92133 21.8583 L -3.90677 21.8785 L -3.89326 21.8995 L -3.88079 21.9211 L -3.86941 21.9432 L -3.85917 21.966 L -3.85006 21.9892 L -3.84213 22.0128 L -3.83537 22.0368 L -3.82981 22.0611 L -3.82549 22.0857 L -3.8224 22.1104 L -3.82052 22.1353 L -3.81991 22.1602 L -3.81991 22.9602 L -3.82052 22.9851 L -3.8224 23.01 L -3.82549 23.0347 L -3.82981 23.0593 L -3.83537 23.0835 L -3.84213 23.1075 L -3.85006 23.1312 L -3.85917 23.1544 L -3.86941 23.1771 L -3.88079 23.1993 L -3.89326 23.2209 L -3.90677 23.2418 L -3.92133 23.2621 L -3.93687 23.2816 L -3.95338 23.3003 L -3.97078 23.3181 L -3.98907 23.3351 L -4.00817 23.3511 L -4.02803 23.3661 L -4.04863 23.3802 L -4.06992 23.3932 L -4.09179 23.4051 L -4.11427 23.4159 L -4.13723 23.4256 L -4.16067 23.4341 L -4.1845 23.4415 L -4.20865 23.4476 L -4.23309 23.4526 L -4.25773 23.4563 L -4.28254 23.4588 L -4.30743 23.46 L -4.33238 23.46 L -4.35727 23.4588 L -4.38208 23.4563 L -4.40672 23.4526 L -4.43116 23.4476 L -4.45531 23.4415 L -4.47914 23.4341 L -4.50258 23.4256 L -4.52554 23.4159 L -4.54802 23.4051 L -4.56992 23.3932 L -4.59118 23.3802 L -4.61178 23.3661 L -4.63164 23.3511 L -4.65074 23.3351 L -4.66903 23.3181 L -4.68643 23.3003 L -4.70294 23.2816 L -4.71848 23.2621 L -4.73304 23.2418 L -4.74655 23.2209 L -4.75902 23.1993 L -4.7704 23.1771 L -4.78064 23.1544 L -4.78975 23.1312 L -4.79768 23.1075 L -4.80443 23.0835 L -4.81 23.0593 L -4.81432 23.0347 L -4.81741 23.01 L -4.81929 22.9851 L -4.8199 22.9602 L -4.8199 22.1602 L -4.81929 22.1353 L -4.81741 22.1104 L -4.81432 22.0857 L -4.81 22.0611 L -4.80443 22.0368 L -4.79768 22.0128 L -4.78975 21.9892 L -4.78064 21.966 L -4.7704 21.9432 L -4.75902 21.9211 L -4.74655 21.8995 L -4.73304 21.8785 L -4.71848 21.8583 L -4.70294 21.8388 L -4.68643 21.8201 L -4.66903 21.8022 L -4.65074 21.7853 L -4.63164 21.7693 L -4.61178 21.7542 L -4.59118 21.7402 L -4.56992 21.7272 L -4.54802 21.7152 L -4.52554 21.7044 L -4.50258 21.6947 L -4.47914 21.6862 L -4.45531 21.6789 L -4.43116 21.6727 L -4.40672 21.6678 L -4.38208 21.6641 L -4.35727 21.6616 L -4.33238 21.6603 L -4.30743 21.6603" fill="black"/>
    <path d="M 4.28254 25.4616 L 4.30743 25.4603 L 4.33238 25.4603 L 4.35727 25.4616 L 4.38208 25.4641 L 4.40672 25.4678 L 4.43116 25.4727 L 4.45531 25.4789 L 4.47914 25.4862 L 4.50258 25.4947 L 4.52554 25.5044 L 4.54802 25.5152 L 4.56989 25.5272 L 4.59118 25.5402 L 4.61178 25.5542 L 4.63164 25.5693 L 4.65074 25.5853 L 4.66903 25.6022 L 4.68643 25.6201 L 4.70294 25.6388 L 4.71848 25.6583 L 4.73304 25.6785 L 4.74655 25.6995 L 4.75902 25.7211 L 4.7704 25.7432 L 4.78064 25.766 L 4.78975 25.7892 L 4.79768 25.8128 L 4.80443 25.8368 L 4.81 25.8611 L 4.81432 25.8856 L 4.81741 25.9104 L 4.81929 25.9353 L 4.8199 25.9602 L 4.8199 27.1602 L 4.81929 27.1851 L 4.81741 27.21 L 4.81432 27.2347 L 4.81 27.2593 L 4.80443 27.2835 L 4.79768 27.3075 L 4.78975 27.3312 L 4.78064 27.3544 L 4.7704 27.3771 L 4.75902 27.3993 L 4.74655 27.4209 L 4.73304 27.4418 L 4.71848 27.4621 L 4.70294 27.4816 L 4.68643 27.5002 L 4.66903 27.5181 L 4.65074 27.535 L 4.63164 27.5511 L 4.61178 27.5661 L 4.59118 27.5802 L 4.56989 27.5932 L 4.54802 27.6051 L 4.52554 27.6159 L 4.50258 27.6256 L 4.47914 27.6341 L 4.45531 27.6415 L 4.43116 27.6476 L 4.40672 27.6526 L 4.38208 27.6563 L 4.35727 27.6588 L 4.33238 27.66 L 4.30743 27.66 L 4.28254 27.6588 L 4.25773 27.6563 L 4.23309 27.6526 L 4.20865 27.6476 L 4.1845 27.6415 L 4.16067 27.6341 L 4.13723 27.6256 L 4.11427 27.6159 L 4.09179 27.6051 L 4.06989 27.5932 L 4.04863 27.5802 L 4.02803 27.5661 L 4.00817 27.5511 L 3.98907 27.535 L 3.97078 27.5181 L 3.95338 27.5002 L 3.93687 27.4816 L 3.92133 27.4621 L 3.90677 27.4418 L 3.89326 27.4209 L 3.88079 27.3993 L 3.86941 27.3771 L 3.85917 27.3544 L 3.85006 27.3312 L 3.84213 27.3075 L 3.83537 27.2835 L 3.82981 27.2593 L 3.82549 27.2347 L 3.8224 27.21 L 3.82052 27.1851 L 3.81991 27.1602 L 3.81991 25.9602 L 3.82052 25.9353 L 3.8224 25.9104 L 3.82549 25.8856 L 3.82981 25.8611 L 3.83537 25.8368 L 3.84213 25.8128 L 3.85006 25.7892 L 3.85917 25.766 L 3.86941 25.7432 L 3.88079 25.7211 L 3.89326 25.6995 L 3.90677 25.6785 L 3.92133 25.6583 L 3.93687 25.6388 L 3.95338 25.6201 L 3.97078 25.6022 L 3.98907 25.5853 L 4.00817 25.5693 L 4.02803 25.5542 L 4.04863 25.5402 L 4.06989 25.5272 L 4.09179 25.5152 L 4.11427 25.5044 L 4.13723 25.4947 L 4.16067 25.4862 L 4.1845 25.4789 L 4.20865 25.4727 L 4.23309 25.4678 L 4.25773 25.4641 L 4.28254 25.4616" fill="black"/>
    <path d="M -4.30743 25.4603 L -4.28254 25.4616 L -4.25773 25.4641 L -4.23309 25.4678 L -4.20865 25.4727 L -4.1845 25.4789 L -4.16067 25.4862 L -4.13723 25.4947 L -4.11427 25.5044 L -4.09179 25.5152 L -4.06992 25.5272 L -4.04863 25.5402 L -4.02803 25.5542 L -4.00817 25.5693 L -3.98907 25.5853 L -3.97078 25.6022 L -3.95338 25.6201 L -3.93687 25.6388 L -3.92133 25.6583 L -3.90677 25.6785 L -3.89326 25.6995 L -3.88079 25.7211 L -3.86941 25.7432 L -3.85917 25.766 L -3.85006 25.7892 L -3.84213 25.8128 L -3.83537 25.8368 L -3.82981 25.8611 L -3.82549 25.8856 L -3.8224 25.9104 L -3.82052 25.9353 L -3.81991 25.9602 L -3.81991 27.1602 L -3.82052 27.1851 L -3.8224 27.21 L -3.82549 27.2347 L -3.82981 27.2593 L -3.83537 27.2835 L -3.84213 27.3075 L -3.85006 27.3312 L -3.85917 27.3544 L -3.86941 27.3771 L -3.88079 27.3993 L -3.89326 27.4209 L -3.90677 27.4418 L -3.92133 27.4621 L -3.93687 27.4816 L -3.95338 27.5002 L -3.97078 27.5181 L -3.98907 27.535 L -4.00817 27.5511 L -4.02803 27.5661 L -4.04863 27.5802 L -4.06992 27.5932 L -4.09179 27.6051 L -4.11427 27.6159 L -4.13723 27.6256 L -4.16067 27.6341 L -4.1845 27.6415 L -4.20865 27.6476 L -4.23309 27.6526 L -4.25773 27.6563 L -4.28254 27.6588 L -4.30743 27.66 L -4.33238 27.66 L -4.35727 27.6588 L -4.38208 27.6563 L -4.40672 27.6526 L -4.43116 27.6476 L -4.45531 27.6415 L -4.47914 27.6341 L -4.50258 27.6256 L -4.52554 27.6159 L -4.54802 27.6051 L -4.56992 27.5932 L -4.59118 27.5802 L -4.61178 27.5661 L -4.63164 27.5511 L -4.65074 27.535 L -4.66903 27.5181 L -4.68643 27.5002 L -4.70294 27.4816 L -4.71848 27.4621 L -4.73304 27.4418 L -4.74655 27.4209 L -4.75902 27.3993 L -4.7704 27.3771 L -4.78064 27.3544 L -4.78975 27.3312 L -4.79768 27.3075 L -4.80443 27.2835 L -4.81 27.2593 L -4.81432 27.2347 L -4.81741 27.21 L -4.81929 27.1851 L -4.8199 27.1602 L -4.8199 25.9602 L -4.81929 25.9353 L -4.81741 25.9104 L -4.81432 25.8856 L -4.81 25.8611 L -4.80443 25.8368 L -4.79768 25.8128 L -4.78975 25.7892 L -4.78064 25.766 L -4.7704 25.7432 L -4.75902 25.7211 L -4.74655 25.6995 L -4.73304 25.6785 L -4.71848 25.6583 L -4.70294 25.6388 L -4.68643 25.6201 L -4.66903 25.6022 L -4.65074 25.5853 L -4.63164 25.5693 L -4.61178 25.5542 L -4.59118 25.5402 L -4.56992 25.5272 L -4.54802 25.5152 L -4.52554 25.5044 L -4.50258 25.4947 L -4.47914 25.4862 L -4.45531 25.4789 L -4.43116 25.4727 L -4.40672 25.4678 L -4.38208 25.4641 L -4.35727 25.4616 L -4.33238 25.4603 L -4.30743 25.4603" fill="black"/>
    <rect x="-3.5289" y="18.6976" width="0.564533" height="0.604804" fill="black"/>
    <rect x="-5.03563" y="18.6976" width="0.564533" height="0.604804" fill="black"/>
    <rect x="0.471098" y="18.6976" width="0.564533" height="0.604804" fill="black"/>
    <rect x="-1.03563" y="18.6976" width="0.564533" height="0.604804" fill="black"/>
    <rect x="-0.899973" y="11.7" width="0.2" height="0.499999" fill="black"/>
    <rect x="-0.499923" y="11.7002" width="0.2" height="0.499999" fill="black"/>
    <rect x="-0.100127" y="11.7002" width="0.2" height="0.499999" fill="black"/>
    <rect x="0.299923" y="11.7002" width="0.2" height="0.499999" fill="black"/>
    <rect x="0.699973" y="11.7002" width="0.2" height="0.499999" fill="black"/>
    <rect x="0.699973" y="13.8" width="0.2" height="0.499999" fill="black"/>
    <rect x="0.299923" y="13.8" width="0.2" height="0.499999" fill="black"/>
    <rect x="-0.100127" y="13.8" width="0.2" height="0.499999" fill="black"/>
    <rect x="-0.499923" y="13.8" width="0.2" height="0.499999" fill="black"/>
    <rect x="-0.899973" y="13.8" width="0.2" height="0.499999" fill="black"/>
    <rect x="-0.650126" y="12.65" width="1.3" height="0.699998" fill="black"/>
    <rect x="5.9711" y="8.6976" width="0.564533" height="0.604804" fill="black"/>
    <rect x="4.46437" y="8.6976" width="0.564533" height="0.604804" fill="black"/>
    <rect x="8.42002" y="19.685" width="0.559999" height="0.629999" fill="black"/>
    <rect x="7.01998" y="19.685" width="0.559999" height="0.629999" fill="black"/>
    <rect x="4.92002" y="11.185" width="0.559999" height="0.629999" fill="black"/>
    <rect x="3.51998" y="11.185" width="0.559999" height="0.629999" fill="black"/>
    <rect x="8.4711" y="22.6976" width="0.564533" height="0.604804" fill="black"/>
    <rect x="6.96437" y="22.6976" width="0.564533" height="0.604804" fill="black"/>
    <rect x="6.96994" y="25.72" width="0.559999" height="0.559999" fill="black"/>
    <rect x="8.47006" y="25.72" width="0.559999" height="0.559999" fill="black"/>
    <rect x="-14.85" y="13.4951" width="0.699999" height="2.65999" fill="black"/>
    <rect x="-12.85" y="13.4951" width="0.699999" height="2.65999" fill="black"/>
    <rect x="-10.675" y="7.78494" width="1.05" height="2.38" fill="black"/>
    <rect x="-17.375" y="7.78494" width="1.05" height="2.38" fill="black"/>
    <rect x="-6.03563" y="15.6976" width="0.564533" height="0.604804" fill="black"/>
    <rect x="-4.5289" y="15.6976" width="0.564533" height="0.604804" fill="black"/>
    <rect x="1.4711" y="16.6976" width="0.564533" height="0.604804" fill="black"/>
    <rect x="-0.0356305" y="16.6976" width="0.564533" height="0.604804" fill="black"/>
    <rect x="5.5065" y="17.0275" width="0.987003" height="0.945007" fill="black"/>
    <rect x="3.5065" y="17.0275" width="0.987003" height="0.945007" fill="black"/>
    <rect x="-5.98002" y="10.685" width="0.559999" height="0.629999" fill="black"/>
    <rect x="-4.57998" y="10.685" width="0.559999" height="0.629999" fill="black"/>
    <rect x="-7.20494" y="-22.5195" width="1.4" height="0.629999" fill="black"/>
    <rect x="-4.71987" y="-21.8845" width="0.629999" height="0.629999" fill="black"/>
    <rect x="-7.20494" y="-21.2495" width="1.4" height="0.629999" fill="black"/>
    <rect x="-4.72012" y="-20.6145" width="0.629999" height="0.629999" fill="black"/>
    <rect x="-7.20494" y="-19.9795" width="1.4" height="0.629999" fill="black"/>
    <rect x="-4.72012" y="-19.3445" width="0.629999" height="0.629999" fill="black"/>
    <rect x="-7.20494" y="-18.7095" width="1.4" height="0.629999" fill="black"/>
    <rect x="-4.72012" y="-18.0745" width="0.629999" height="0.629999" fill="black"/>
    <rect x="-7.20494" y="-17.4395" width="1.4" height="0.629999" fill="black"/>
    <rect x="-4.72012" y="-16.8045" width="0.629999" height="0.629999" fill="black"/>
    <rect x="-7.20494" y="-16.1695" width="1.4" height="0.629999" fill="black"/>
    <rect x="-4.72012" y="-15.5345" width="0.629999" height="0.629999" fill="black"/>
    <rect x="-7.20494" y="-14.8995" width="1.4" height="0.629999" fill="black"/>
    <rect x="-4.72012" y="-14.2645" width="0.629999" height="0.629999" fill="black"/>
    <rect x="-7.20494" y="-13.6295" width="1.4" height="0.629999" fill="black"/>
    <rect x="-4.72012" y="-12.9945" width="0.629999" height="0.629999" fill="black"/>
    <rect x="-7.20494" y="-12.3595" width="1.4" height="0.629999" fill="black"/>
    <rect x="-7.20494" y="-11.0895" width="1.4" height="0.629999" fill="black"/>
    <rect x="-4.76" y="-8.87451" width="0.629999" height="1.4" fill="black"/>
    <rect x="-4.125" y="-10.5896" width="0.629999" height="0.629999" fill="black"/>
    <rect x="-3.49" y="-8.87451" width="0.629999" height="1.4" fill="black"/>
    <rect x="-2.855" y="-10.5896" width="0.629999" height="0.629999" fill="black"/>
    <rect x="-2.22" y="-8.87451" width="0.629999" height="1.4" fill="black"/>
    <rect x="-1.585" y="-10.5896" width="0.629999" height="0.629999" fill="black"/>
    <rect x="-0.949999" y="-8.87451" width="0.629999" height="1.4" fill="black"/>
    <rect x="-0.314999" y="-10.5896" width="0.629999" height="0.629999" fill="black"/>
    <rect x="0.320001" y="-8.87451" width="0.629999" height="1.4" fill="black"/>
    <rect x="0.955001" y="-10.5896" width="0.629999" height="0.629999" fill="black"/>
    <rect x="1.59" y="-8.87451" width="0.629999" height="1.4" fill="black"/>
    <rect x="2.225" y="-10.5896" width="0.629999" height="0.629999" fill="black"/>
    <rect x="2.86" y="-8.87451" width="0.629999" height="1.4" fill="black"/>
    <rect x="3.495" y="-10.5896" width="0.629999" height="0.629999" fill="black"/>
    <rect x="4.13" y="-8.87451" width="0.629999" height="1.4" fill="black"/>
    <rect x="5.80494" y="-11.0895" width="1.4" height="0.629999" fill="black"/>
    <rect x="5.80494" y="-12.3595" width="1.4" height="0.629999" fill="black"/>
    <rect x="5.80494" y="-13.6295" width="1.4" height="0.629999" fill="black"/>
    <rect x="5.80494" y="-14.8995" width="1.4" height="0.629999" fill="black"/>
    <rect x="5.80494" y="-16.1695" width="1.4" height="0.629999" fill="black"/>
    <rect x="5.80494" y="-17.4395" width="1.4" height="0.629999" fill="black"/>
    <rect x="5.80494" y="-18.7095" width="1.4" height="0.629999" fill="black"/>
    <rect x="5.80012" y="-20.0043" width="1.4" height="0.629999" fill="black"/>
    <rect x="5.80494" y="-21.2495" width="1.4" height="0.629999" fill="black"/>
    <rect x="5.80494" y="-22.5195" width="1.4" height="0.629999" fill="black"/>
    <rect x="0.420024" y="-4.815" width="0.559999" height="0.629999" fill="black"/>
    <rect x="-0.980023" y="-4.815" width="0.559999" height="0.629999" fill="black"/>
    <rect x="-16.1154" y="-7.651" width="0.860996" height="1.30199" fill="black"/>
    <rect x="-11.7456" y="-7.651" width="0.860996" height="1.30199" fill="black"/>
    <rect x="10.8846" y="-4.651" width="0.860996" height="1.30199" fill="black"/>
    <rect x="15.2544" y="-4.651" width="0.860996" height="1.30199" fill="black"/>
    <rect x="7.4711" y="-3.3024" width="0.564533" height="0.604804" fill="black"/>
    <rect x="5.96437" y="-3.3024" width="0.564533" height="0.604804" fill="black"/>
    <rect x="8.96994" y="-0.28" width="0.559999" height="0.559999" fill="black"/>
    <rect x="10.4701" y="-0.28" width="0.559999" height="0.559999" fill="black"/>
    <rect x="10.4901" y="16.7822" width="0.419999" height="1.08501" fill="black"/>
    <rect x="16.5801" y="14.1697" width="0.839998" height="1.26" fill="black"/>
    <rect x="8.97991" y="14.1697" width="0.839998" height="1.26" fill="black"/>
    <rect x="11.4896" y="16.7828" width="0.419999" height="1.08501" fill="black"/>
    <rect x="12.4896" y="16.7828" width="0.419999" height="1.08501" fill="black"/>
    <rect x="13.4896" y="16.7828" width="0.419999" height="1.08501" fill="black"/>
    <rect x="14.4896" y="16.7828" width="0.419999" height="1.08501" fill="black"/>
    <rect x="15.4896" y="16.7828" width="0.419999" height="1.08501" fill="black"/>
    <rect x="14.3611" y="8.17994" width="0.489999" height="0.839998" fill="black"/>
    <rect x="16.661" y="8.17994" width="0.489999" height="0.839998" fill="black"/>
    <rect x="16.661" y="0.980059" width="0.489999" height="0.839998" fill="black"/>
    <rect x="14.3611" y="0.980059" width="0.489999" height="0.839998" fill="black"/>
    <rect x="12.9726" y="7.03993" width="1.0668" height="0.419999" fill="black"/>
    <rect x="12.9726" y="5.54006" width="1.0668" height="0.419999" fill="black"/>
    <rect x="12.9726" y="2.54007" width="1.0668" height="0.419999" fill="black"/>
    <rect x="2.96437" y="2.6976" width="0.564533" height="0.604804" fill="black"/>
    <rect x="4.4711" y="2.6976" width="0.564533" height="0.604804" fill="black"/>
    <rect x="-5.35" y="2.32254" width="0.699999" height="0.455008" fill="black"/>
    <rect x="-5.35" y="4.22246" width="0.699999" height="0.455008" fill="black"/>
    <rect x="-7.35" y="3.2725" width="0.699999" height="0.455008" fill="black"/>
    <rect x="-5.5289" y="7.6976" width="0.564533" height="0.604804" fill="black"/>
    <rect x="-7.03563" y="7.6976" width="0.564533" height="0.604804" fill="black"/>
    <rect x="-4.24993" y="-0.210126" width="0.699999" height="0.419999" fill="black"/>
    <rect x="-4.24993" y="0.739834" width="0.699999" height="0.419999" fill="black"/>
    <rect x="-4.24993" y="-1.15983" width="0.699999" height="0.419999" fill="black"/>
    <rect x="-6.45007" y="0.740088" width="0.699999" height="0.419999" fill="black"/>
    <rect x="-6.45007" y="-1.16009" width="0.699999" height="0.419999" fill="black"/>
    <rect x="-0.0799755" y="1.685" width="0.559999" height="0.629999" fill="black"/>
    <rect x="-1.48002" y="1.685" width="0.559999" height="0.629999" fill="black"/>
    <rect x="-4.57998" y="-4.315" width="0.559999" height="0.629999" fill="black"/>
    <rect x="-5.98002" y="-4.315" width="0.559999" height="0.629999" fill="black"/>
    <rect x="-8.85" y="-2.17746" width="0.699999" height="0.455008" fill="black"/>
    <rect x="-8.85" y="-0.277544" width="0.699999" height="0.455008" fill="black"/>
    <rect x="-10.85" y="-1.2275" width="0.699999" height="0.455008" fill="black"/>
    <rect x="-12.58" y="1.685" width="0.559999" height="0.629999" fill="black"/>
    <rect x="-13.98" y="1.685" width="0.559999" height="0.629999" fill="black"/>
    <rect x="-0.959986" y="5.89487" width="0.419999" height="0.21" fill="black"/>
    <rect x="0.539987" y="5.89487" width="0.419999" height="0.21" fill="black"/>
    <rect x="0.539987" y="6.395" width="0.419999" height="0.21" fill="black"/>
    <rect x="0.539987" y="5.395" width="0.419999" height="0.21" fill="black"/>
    <rect x="-0.959986" y="6.395" width="0.419999" height="0.21" fill="black"/>
    <rect x="-0.959986" y="5.395" width="0.419999" height="0.21" fill="black"/>
    <rect x="-5.0289" y="5.6976" width="0.564533" height="0.604804" fill="black"/>
    <rect x="-6.53563" y="5.6976" width="0.564533" height="0.604804" fill="black"/>
    <rect x="4.9711" y="5.1976" width="0.564533" height="0.604804" fill="black"/>
    <rect x="3.46437" y="5.1976" width="0.564533" height="0.604804" fill="black"/>
    <rect x="1.92002" y="8.185" width="0.559999" height="0.629999" fill="black"/>
    <rect x="0.519977" y="8.185" width="0.559999" height="0.629999" fill="black"/>
    <rect x="9.9711" y="9.6976" width="0.564533" height="0.604804" fill="black"/>
    <rect x="8.46437" y="9.6976" width="0.564533" height="0.604804" fill="black"/>
    <rect x="6.96437" y="11.6976" width="0.564533" height="0.604804" fill="black"/>
    <rect x="8.4711" y="11.6976" width="0.564533" height="0.604804" fill="black"/>
    <rect x="8.65" y="4.82254" width="0.699999" height="0.455008" fill="black"/>
    <rect x="8.65" y="6.72246" width="0.699999" height="0.455008" fill="black"/>
    <rect x="6.65" y="5.7725" width="0.699999" height="0.455008" fill="black"/>
  </g>
</svg>