%TF.GenerationSoftware,tscircuit,circuit-json-to-gerber,0.0.109*%
%TF.CreationDate,2026-10-06T14:21:55.846Z*%
%TF.SameCoordinates,Original*%
%TF.FileFunction,Copper,L1,Top*%
%TF.FilePolarity,Positive*%
%FSLAX46Y46*%
%MOMM*%
G04 Gerber Fmt 4.6, Leading zero omitted, Abs format (unit mm)*
G04 Created by tscircuit (builder) date 2026-10-06T14:21:55.846Z*
G01*
%LPD*%
G75*
G04 APERTURE MACROS START*
%AMHORZPILL*
0 Horizontal pill (stadium) shape macro*
0 Parameters:*
0 $1 = Total width*
0 $2 = Total height*
0 $3 = Circle diameter (equal to height)*
0 $4 = Circle center offset
0 21 = Center Line(Exposure, Width, Height, Center X, Center Y, Rotation)*
0 1 = Circle(Exposure, Diameter, Center X, Center Y, Rotation)*
21,1,$1-$3,$2,0.0,0.0,0.0*
1,1,$3,0.0-$4,0.0*
1,1,$3,$4,0.0*%
%AMVERTPILL*
0 Vertical pill (stadium) shape macro*
0 Parameters:*
0 $1 = Total width*
0 $2 = Total height*
0 $3 = Circle diameter (equal to width)*
0 $4 = Circle center offset
0 21 = Center Line(Exposure, Width, Height, Center X, Center Y, Rotation)*
21,1,$1,$2-$3,0.0,0.0,0.0*
1,1,$3,0.0,0.0-$4*
1,1,$3,0.0,$4*%
%AMROUNDRECT*
0 Rectangle with rounded corners*
0 $1 Corner radius*
0 $2 $3 $4 $5 $6 $7 $8 $9 X,Y Position of each corner*
0 Polygon box body*
4,1,4,$2,$3,$4,$5,$6,$7,$8,$9,$2,$3,0*
0 Circles for rounded corners*
1,1,$1+$1,$2,$3*
1,1,$1+$1,$4,$5*
1,1,$1+$1,$6,$7*
1,1,$1+$1,$8,$9*
0 Rectangles between the rounded corners*
20,1,$1+$1,$2,$3,$4,$5,0*
20,1,$1+$1,$4,$5,$6,$7,0*
20,1,$1+$1,$6,$7,$8,$9,0*
20,1,$1+$1,$8,$9,$2,$3,0*%
G04 APERTURE MACROS END*
G04 aperture START LIST*
%ADD10C,0.150000*%
%ADD11C,0.500000*%
%ADD12C,0.300000*%
%ADD13C,0.600000*%
%ADD14C,0.200000*%
%ADD15C,0.400000*%
%ADD16C,0.196429*%
%ADD17C,0.250000*%
%ADD18C,0.225000*%
%ADD19C,0.262500*%
%ADD20C,0.175000*%
%ADD21C,0.162500*%
%ADD22C,0.162000*%
%ADD23VERTPILL,0.999998X1.799996X0.999998X0.399999*%
%ADD24VERTPILL,0.999998X2.199996X0.999998X0.599999*%
%ADD25R,0.599999X1.199998*%
%ADD26R,0.299999X1.199998*%
%ADD27C,0.001000*%
%ADD28R,0.806475X0.864006*%
%ADD29R,0.564533X0.604804*%
%ADD30R,0.200000X0.499999*%
%ADD31R,1.499997X0.899998*%
%ADD32R,1.299997X0.699998*%
%ADD33R,0.799998X0.899998*%
%ADD34R,0.559999X0.629999*%
%ADD35R,0.799998X0.799998*%
%ADD36R,0.559999X0.559999*%
%ADD37R,1.799996X1.199998*%
%ADD38R,1.550010X0.599999*%
%ADD39R,1.410005X1.350010*%
%ADD40R,0.987003X0.945007*%
%ADD41R,1.499997X0.999998*%
%ADD42R,0.999998X1.499997*%
%ADD43R,1.350010X1.410005*%
%ADD44R,0.945007X0.987003*%
%ADD45C,0.700024*%
%ADD46R,1.199998X0.599999*%
%ADD47R,1.229995X1.859991*%
%ADD48R,0.860996X1.301994*%
%ADD49R,1.199998X1.799996*%
%ADD50R,0.599999X1.550010*%
%ADD51C,0.900024*%
%ADD52R,0.699999X1.199998*%
%ADD53R,0.489999X0.839998*%
%ADD54R,1.524000X0.599999*%
%ADD55R,1.066800X0.419999*%
%ADD56R,0.999998X0.650011*%
%ADD57R,0.699999X0.455008*%
%ADD58R,0.664997X0.280010*%
%ADD59R,1.199998X1.999996*%
%ADD60R,2.720010X1.299997*%
%ADD61R,0.899998X0.799998*%
%ADD62R,0.629999X0.559999*%
%ADD63R,0.599999X0.299999*%
%ADD64R,0.419999X0.210000*%
%ADD65C,2.200000*%
%ADD66C,0.600000*%
%TD*%
G04 aperture END LIST*
D27*
G36*
X006700049Y-17575049D02*
G01*
X008800046Y-17575049D01*
G01*
X008800046Y-18700000D01*
G01*
X020700000Y-18700000D01*
G01*
X020700000Y-15800000D01*
G01*
X017200000Y-15800000D01*
G01*
X017200000Y-12200000D01*
G01*
X020700000Y-12200000D01*
G01*
X020700000Y-09858406D01*
G01*
X020661139Y-09890298D01*
G01*
X020548761Y-09950366D01*
G01*
X020426823Y-09987355D01*
G01*
X020300012Y-09999845D01*
G01*
X020173201Y-09987355D01*
G01*
X020051263Y-09950366D01*
G01*
X019938885Y-09890298D01*
G01*
X019840384Y-09809461D01*
G01*
X019759547Y-09710961D01*
G01*
X019699479Y-09598582D01*
G01*
X019662490Y-09476644D01*
G01*
X019650000Y-09349833D01*
G01*
X019662490Y-09223022D01*
G01*
X019699479Y-09101084D01*
G01*
X019759547Y-08988706D01*
G01*
X019840384Y-08890205D01*
G01*
X019938885Y-08809368D01*
G01*
X020051263Y-08749300D01*
G01*
X020173201Y-08712311D01*
G01*
X020300012Y-08699821D01*
G01*
X020426823Y-08712311D01*
G01*
X020548761Y-08749300D01*
G01*
X020661139Y-08809368D01*
G01*
X020700000Y-08841260D01*
G01*
X020700000Y-08158384D01*
G01*
X020661139Y-08190276D01*
G01*
X020548761Y-08250344D01*
G01*
X020426823Y-08287333D01*
G01*
X020300012Y-08299823D01*
G01*
X020173201Y-08287333D01*
G01*
X020051263Y-08250344D01*
G01*
X019938885Y-08190276D01*
G01*
X019840384Y-08109439D01*
G01*
X019759547Y-08010939D01*
G01*
X019699479Y-07898560D01*
G01*
X019662490Y-07776622D01*
G01*
X019650000Y-07649811D01*
G01*
X019662490Y-07523000D01*
G01*
X019699479Y-07401062D01*
G01*
X019700086Y-07399927D01*
G01*
X018100041Y-07399927D01*
G01*
X018100041Y-07174934D01*
G01*
X009480447Y-07174999D01*
G01*
X009250475Y-07404971D01*
G01*
X009317054Y-07411529D01*
G01*
X009429610Y-07445672D01*
G01*
X009533342Y-07501118D01*
G01*
X009599977Y-07555804D01*
G01*
X009599977Y-07250001D01*
G01*
X010999975Y-07250001D01*
G01*
X010999975Y-08749999D01*
G01*
X009599977Y-08749999D01*
G01*
X009599977Y-08444196D01*
G01*
X009533342Y-08498882D01*
G01*
X009429610Y-08554328D01*
G01*
X009317054Y-08588471D01*
G01*
X009200000Y-08600000D01*
G01*
X009082946Y-08588471D01*
G01*
X008970390Y-08554328D01*
G01*
X008866658Y-08498882D01*
G01*
X008800047Y-08444216D01*
G01*
X008800047Y-09175067D01*
G01*
X006700050Y-09175067D01*
G01*
X006700050Y-07575069D01*
G01*
X008019717Y-07575069D01*
G01*
X008419715Y-07175071D01*
G01*
X006700050Y-07175071D01*
G01*
X006700050Y-06797901D01*
G01*
X006668392Y-06823882D01*
G01*
X006564660Y-06879328D01*
G01*
X006452104Y-06913471D01*
G01*
X006335050Y-06925000D01*
G01*
X006217995Y-06913471D01*
G01*
X006105439Y-06879328D01*
G01*
X006001707Y-06823882D01*
G01*
X005910785Y-06749264D01*
G01*
X005836168Y-06658342D01*
G01*
X005780722Y-06554610D01*
G01*
X005746578Y-06442054D01*
G01*
X005735050Y-06325000D01*
G01*
X005746578Y-06207946D01*
G01*
X005780722Y-06095390D01*
G01*
X005836168Y-05991658D01*
G01*
X005910785Y-05900736D01*
G01*
X006001707Y-05826118D01*
G01*
X006105439Y-05770672D01*
G01*
X006217995Y-05736529D01*
G01*
X006270024Y-05731405D01*
G01*
X006833870Y-05175075D01*
G01*
X006700050Y-05175075D01*
G01*
X006700050Y-04992000D01*
G01*
X005195707Y-04992000D01*
G01*
X005291342Y-05043118D01*
G01*
X005382264Y-05117736D01*
G01*
X005456882Y-05208658D01*
G01*
X005512328Y-05312390D01*
G01*
X005546471Y-05424946D01*
G01*
X005558000Y-05542000D01*
G01*
X005546471Y-05659054D01*
G01*
X005512328Y-05771610D01*
G01*
X005456882Y-05875342D01*
G01*
X005382264Y-05966264D01*
G01*
X005291342Y-06040882D01*
G01*
X005187610Y-06096328D01*
G01*
X005075054Y-06130471D01*
G01*
X004958000Y-06142000D01*
G01*
X004840946Y-06130471D01*
G01*
X004728390Y-06096328D01*
G01*
X004624658Y-06040882D01*
G01*
X004533736Y-05966264D01*
G01*
X004506599Y-05933197D01*
G01*
X003222136Y-05933197D01*
G01*
X-06700049Y-15855383D01*
G01*
X-06700049Y-16795911D01*
G01*
X-01877763Y-11973625D01*
G01*
X-01886000Y-11890000D01*
G01*
X-01874471Y-11772946D01*
G01*
X-01840328Y-11660390D01*
G01*
X-01784882Y-11556658D01*
G01*
X-01710264Y-11465736D01*
G01*
X-01619342Y-11391118D01*
G01*
X-01515610Y-11335672D01*
G01*
X-01403054Y-11301529D01*
G01*
X-01286000Y-11290000D01*
G01*
X-01168946Y-11301529D01*
G01*
X-01056390Y-11335672D01*
G01*
X-00952658Y-11391118D01*
G01*
X-00861736Y-11465736D01*
G01*
X-00787118Y-11556658D01*
G01*
X-00731672Y-11660390D01*
G01*
X-00697529Y-11772946D01*
G01*
X-00686000Y-11890000D01*
G01*
X-00697529Y-12007054D01*
G01*
X-00731672Y-12119610D01*
G01*
X-00787118Y-12223342D01*
G01*
X-00861736Y-12314264D01*
G01*
X-00952658Y-12388882D01*
G01*
X-01056390Y-12444328D01*
G01*
X-01168946Y-12478471D01*
G01*
X-01286000Y-12490000D01*
G01*
X-01329221Y-12485743D01*
G01*
X-06700049Y-17856571D01*
G01*
X-06700049Y-18700000D01*
G01*
X006700049Y-18700000D01*
G01*
X006700049Y-17575049D01*
G37*
%LPC*%
D27*
G36*
X006700050Y-11175063D02*
G01*
X008800047Y-11175063D01*
G01*
X008800047Y-09575065D01*
G01*
X006700050Y-09575065D01*
G01*
X006700050Y-11175063D01*
G37*
D27*
G36*
X006700049Y-15175055D02*
G01*
X008800046Y-15175055D01*
G01*
X008800046Y-13575057D01*
G01*
X007730401Y-13575057D01*
G01*
X007330403Y-13175059D01*
G01*
X008800047Y-13175059D01*
G01*
X008800047Y-11575061D01*
G01*
X006700050Y-11575061D01*
G01*
X006700050Y-12559107D01*
G01*
X006692250Y-12552706D01*
G01*
X006588518Y-12497260D01*
G01*
X006475962Y-12463117D01*
G01*
X006358908Y-12451588D01*
G01*
X006241854Y-12463117D01*
G01*
X006129298Y-12497260D01*
G01*
X006025566Y-12552706D01*
G01*
X005934644Y-12627324D01*
G01*
X005860026Y-12718246D01*
G01*
X005804580Y-12821978D01*
G01*
X005770437Y-12934533D01*
G01*
X005758908Y-13051588D01*
G01*
X005770437Y-13168642D01*
G01*
X005804580Y-13281198D01*
G01*
X005860026Y-13384930D01*
G01*
X005934644Y-13475852D01*
G01*
X006025566Y-13550469D01*
G01*
X006129298Y-13605915D01*
G01*
X006241854Y-13640059D01*
G01*
X006358908Y-13651588D01*
G01*
X006475962Y-13640059D01*
G01*
X006588518Y-13605915D01*
G01*
X006661558Y-13566874D01*
G01*
X006700049Y-13605365D01*
G01*
X006700049Y-15175055D01*
G37*
D27*
G36*
X006700049Y-17175051D02*
G01*
X008800046Y-17175051D01*
G01*
X008800046Y-15575053D01*
G01*
X006700049Y-15575053D01*
G01*
X006700049Y-17175051D01*
G37*
%LPD*%
D27*
G36*
X-08800046Y-17575049D02*
G01*
X-07479187Y-17575049D01*
G01*
X-07079189Y-17175051D01*
G01*
X-08800046Y-17175051D01*
G01*
X-08800046Y-15575053D01*
G01*
X-07480379Y-15575053D01*
G01*
X-07080381Y-15175055D01*
G01*
X-08800046Y-15175055D01*
G01*
X-08800046Y-13575057D01*
G01*
X-06700049Y-13575057D01*
G01*
X-06700049Y-14794723D01*
G01*
X002801641Y-05293032D01*
G01*
X002858468Y-05246396D01*
G01*
X002923300Y-05211743D01*
G01*
X002993648Y-05190403D01*
G01*
X003066806Y-05183197D01*
G01*
X004480013Y-05183197D01*
G01*
X004533736Y-05117736D01*
G01*
X004624658Y-05043118D01*
G01*
X004720293Y-04992000D01*
G01*
X-02153306Y-04992000D01*
G01*
X-02193736Y-05041264D01*
G01*
X-02284658Y-05115882D01*
G01*
X-02388390Y-05171328D01*
G01*
X-02500946Y-05205471D01*
G01*
X-02618000Y-05217000D01*
G01*
X-02735054Y-05205471D01*
G01*
X-02847610Y-05171328D01*
G01*
X-02951342Y-05115882D01*
G01*
X-03042264Y-05041264D01*
G01*
X-03116882Y-04950342D01*
G01*
X-03172328Y-04846610D01*
G01*
X-03206471Y-04734054D01*
G01*
X-03218000Y-04617000D01*
G01*
X-03206471Y-04499946D01*
G01*
X-03193916Y-04458558D01*
G01*
X-04840502Y-04463014D01*
G01*
X-05754563Y-05380185D01*
G01*
X-05754607Y-05380141D01*
G01*
X-05755013Y-05380636D01*
G01*
X-05811839Y-05427272D01*
G01*
X-05876671Y-05461926D01*
G01*
X-05947019Y-05483266D01*
G01*
X-06020178Y-05490471D01*
G01*
X-06020238Y-05490465D01*
G01*
X-06020238Y-05490471D01*
G01*
X-13543398Y-05489266D01*
G01*
X-13543398Y-05732003D01*
G01*
X-14949874Y-05732003D01*
G01*
X-14949874Y-04267997D01*
G01*
X-13543398Y-04267997D01*
G01*
X-13543398Y-04739266D01*
G01*
X-06175856Y-04740446D01*
G01*
X-05363127Y-03924950D01*
G01*
X-05799989Y-03924950D01*
G01*
X-05799989Y-01824953D01*
G01*
X-04199991Y-01824953D01*
G01*
X-04199991Y-03711278D01*
G01*
X-03799993Y-03710196D01*
G01*
X-03799993Y-01824953D01*
G01*
X-02199995Y-01824953D01*
G01*
X-02199995Y-03537636D01*
G01*
X-01799997Y-03140624D01*
G01*
X-01799997Y-01824953D01*
G01*
X-00199999Y-01824953D01*
G01*
X-00199999Y-03924950D01*
G01*
X-01525566Y-03924950D01*
G01*
X-01845001Y-04242000D01*
G01*
X006700050Y-04242000D01*
G01*
X006700050Y-03575077D01*
G01*
X008800047Y-03575077D01*
G01*
X008800047Y-04834749D01*
G01*
X009479736Y-04175768D01*
G01*
X009480102Y-04176146D01*
G01*
X009532429Y-04133202D01*
G01*
X009597262Y-04098548D01*
G01*
X009667609Y-04077208D01*
G01*
X009740768Y-04070003D01*
G01*
X014214670Y-04070003D01*
G01*
X014900095Y-03384624D01*
G01*
X014900095Y-01770004D01*
G01*
X016730090Y-01770004D01*
G01*
X016730090Y-04229996D01*
G01*
X015115362Y-04229996D01*
G01*
X014778062Y-04567274D01*
G01*
X014771620Y-04588509D01*
G01*
X014736967Y-04653342D01*
G01*
X014690331Y-04710168D01*
G01*
X014633504Y-04756804D01*
G01*
X014568672Y-04791458D01*
G01*
X014498324Y-04812797D01*
G01*
X014425166Y-04820003D01*
G01*
X012975005Y-04820003D01*
G01*
X012975005Y-06424972D01*
G01*
X018100041Y-06424934D01*
G01*
X018100041Y-06199928D01*
G01*
X019900039Y-06199928D01*
G01*
X019900039Y-07141226D01*
G01*
X019938885Y-07109346D01*
G01*
X020051263Y-07049278D01*
G01*
X020173201Y-07012289D01*
G01*
X020300012Y-06999799D01*
G01*
X020426823Y-07012289D01*
G01*
X020548761Y-07049278D01*
G01*
X020661139Y-07109346D01*
G01*
X020700000Y-07141238D01*
G01*
X020700000Y002500130D01*
G01*
X018756164Y002500130D01*
G01*
X018756164Y004500130D01*
G01*
X020700000Y004500130D01*
G01*
X020700000Y005500124D01*
G01*
X018756164Y005500124D01*
G01*
X018756164Y007500124D01*
G01*
X020700000Y007500124D01*
G01*
X020700000Y023200000D01*
G01*
X017200000Y023200000D01*
G01*
X017200000Y026700000D01*
G01*
X-17200000Y026700000D01*
G01*
X-17200000Y023200000D01*
G01*
X-20700000Y023200000D01*
G01*
X-20700000Y-07770004D01*
G01*
X-20269910Y-07770004D01*
G01*
X-20269910Y-09384711D01*
G01*
X-19654599Y-10000064D01*
G01*
X-08800046Y-10000064D01*
G01*
X-08800046Y-09575065D01*
G01*
X-06700049Y-09575065D01*
G01*
X-06700049Y-11175063D01*
G01*
X-08800046Y-11175063D01*
G01*
X-08800046Y-10750064D01*
G01*
X-19809936Y-10750064D01*
G01*
X-19883095Y-10742858D01*
G01*
X-19953443Y-10721519D01*
G01*
X-20018275Y-10686865D01*
G01*
X-20075101Y-10640229D01*
G01*
X-20075109Y-10640219D01*
G01*
X-20075110Y-10640220D01*
G01*
X-20485307Y-10229996D01*
G01*
X-20700000Y-10229996D01*
G01*
X-20700000Y-12200000D01*
G01*
X-17200000Y-12200000D01*
G01*
X-17200000Y-15800000D01*
G01*
X-20700000Y-15800000D01*
G01*
X-20700000Y-18700000D01*
G01*
X-08800046Y-18700000D01*
G01*
X-08800046Y-17575049D01*
G37*
%LPC*%
D27*
G36*
X-16000000Y-04000000D02*
G01*
X-15882946Y-03988471D01*
G01*
X-15770390Y-03954328D01*
G01*
X-15666658Y-03898882D01*
G01*
X-15575736Y-03824264D01*
G01*
X-15501118Y-03733342D01*
G01*
X-15445672Y-03629610D01*
G01*
X-15411529Y-03517054D01*
G01*
X-15400000Y-03400000D01*
G01*
X-15411529Y-03282946D01*
G01*
X-15445672Y-03170390D01*
G01*
X-15501118Y-03066658D01*
G01*
X-15575736Y-02975736D01*
G01*
X-15625000Y-02935306D01*
G01*
X-15625000Y-00106451D01*
G01*
X-15564498Y-00124804D01*
G01*
X-15447444Y-00136332D01*
G01*
X-15330390Y-00124804D01*
G01*
X-15312521Y-00119383D01*
G01*
X-15304402Y-00129880D01*
G01*
X-15302835Y-00128668D01*
G01*
X-15266652Y-00172758D01*
G01*
X-15198461Y-00228721D01*
G01*
X-15120662Y-00270306D01*
G01*
X-15036245Y-00295913D01*
G01*
X-15014097Y-00298094D01*
G01*
X-15014336Y-00299711D01*
G01*
X-14005004Y-00449090D01*
G01*
X-14005004Y-01975005D01*
G01*
X-11995000Y-01975005D01*
G01*
X-11995000Y-01549508D01*
G01*
X-11892700Y-01539432D01*
G01*
X-11789524Y-01508134D01*
G01*
X-11694436Y-01457308D01*
G01*
X-11611091Y-01388909D01*
G01*
X-11611086Y-01388903D01*
G01*
X-11449998Y-01227815D01*
G01*
X-11449998Y-01500000D01*
G01*
X-11441351Y-01587791D01*
G01*
X-11415744Y-01672208D01*
G01*
X-11374159Y-01750007D01*
G01*
X-11318196Y-01818198D01*
G01*
X-11250005Y-01874161D01*
G01*
X-11172206Y-01915746D01*
G01*
X-11087789Y-01941353D01*
G01*
X-10999998Y-01950000D01*
G01*
X-07000000Y-01950000D01*
G01*
X-06912209Y-01941353D01*
G01*
X-06827792Y-01915746D01*
G01*
X-06749993Y-01874161D01*
G01*
X-06681802Y-01818198D01*
G01*
X-06625839Y-01750007D01*
G01*
X-06584254Y-01672208D01*
G01*
X-06558647Y-01587791D01*
G01*
X-06550000Y-01500000D01*
G01*
X-06550000Y-00302416D01*
G01*
X-06534326Y-00273092D01*
G01*
X-06508719Y-00188675D01*
G01*
X-06503231Y-00132959D01*
G01*
X-06414610Y-00180328D01*
G01*
X-06302054Y-00214471D01*
G01*
X-06185000Y-00226000D01*
G01*
X-06067946Y-00214471D01*
G01*
X-05955390Y-00180328D01*
G01*
X-05851658Y-00124882D01*
G01*
X-05760736Y-00050264D01*
G01*
X-05720306Y-00001000D01*
G01*
X-05626000Y-00001000D01*
G01*
X-05552841Y000006206D01*
G01*
X-05482494Y000027545D01*
G01*
X-05417661Y000062199D01*
G01*
X-05360835Y000108835D01*
G01*
X-05133787Y000335883D01*
G01*
X-03333118Y-01464786D01*
G01*
X-03276292Y-01511422D01*
G01*
X-03211459Y-01546076D01*
G01*
X-03141112Y-01567415D01*
G01*
X-03067953Y-01574621D01*
G01*
X001312404Y-01574621D01*
G01*
X001385563Y-01567415D01*
G01*
X001455910Y-01546076D01*
G01*
X001520743Y-01511422D01*
G01*
X001577569Y-01464786D01*
G01*
X004646461Y001604106D01*
G01*
X004693097Y001660932D01*
G01*
X004727750Y001725764D01*
G01*
X004749090Y001796112D01*
G01*
X004756295Y001869271D01*
G01*
X004749090Y001942429D01*
G01*
X004727750Y002012777D01*
G01*
X004693097Y002077609D01*
G01*
X004646461Y002134436D01*
G01*
X004512900Y002267997D01*
G01*
X005456602Y002267997D01*
G01*
X005456602Y002617853D01*
G01*
X014751645Y002523645D01*
G01*
X014751649Y002524000D01*
G01*
X014755445Y002523626D01*
G01*
X014828604Y002530832D01*
G01*
X014898952Y002552171D01*
G01*
X014963784Y002586825D01*
G01*
X015020610Y002633461D01*
G01*
X015024908Y002638698D01*
G01*
X015025343Y002638279D01*
G01*
X017448243Y005150063D01*
G01*
X018567978Y005150063D01*
G01*
X018567978Y006350061D01*
G01*
X016443978Y006350061D01*
G01*
X016443978Y005189248D01*
G01*
X014597705Y003275244D01*
G01*
X009571252Y003326189D01*
G01*
X009588469Y003382946D01*
G01*
X009599998Y003500000D01*
G01*
X009588469Y003617054D01*
G01*
X009554326Y003729610D01*
G01*
X009498880Y003833342D01*
G01*
X009424262Y003924264D01*
G01*
X009374998Y003964694D01*
G01*
X009374998Y004425034D01*
G01*
X009799997Y004425034D01*
G01*
X009799997Y005625000D01*
G01*
X011700000Y005625000D01*
G01*
X011773159Y005632206D01*
G01*
X011843506Y005653545D01*
G01*
X011908339Y005688199D01*
G01*
X011965165Y005734835D01*
G01*
X012011801Y005791661D01*
G01*
X012046455Y005856494D01*
G01*
X012067794Y005926841D01*
G01*
X012075000Y006000000D01*
G01*
X012075000Y008500000D01*
G01*
X012067794Y008573159D01*
G01*
X012046455Y008643506D01*
G01*
X012011801Y008708339D01*
G01*
X011965165Y008765165D01*
G01*
X011575000Y009155330D01*
G01*
X011575000Y010270004D01*
G01*
X013230090Y010270004D01*
G01*
X013230090Y012729996D01*
G01*
X012690092Y012729996D01*
G01*
X012690092Y012835306D01*
G01*
X012739356Y012875736D01*
G01*
X012813974Y012966658D01*
G01*
X012869420Y013070390D01*
G01*
X012903563Y013182946D01*
G01*
X012915092Y013300000D01*
G01*
X012903563Y013417054D01*
G01*
X012869420Y013529610D01*
G01*
X012813974Y013633342D01*
G01*
X012739356Y013724264D01*
G01*
X012648434Y013798882D01*
G01*
X012544702Y013854328D01*
G01*
X012432146Y013888471D01*
G01*
X012315092Y013900000D01*
G01*
X012198038Y013888471D01*
G01*
X012085482Y013854328D01*
G01*
X011981750Y013798882D01*
G01*
X011890828Y013724264D01*
G01*
X011816210Y013633342D01*
G01*
X011760764Y013529610D01*
G01*
X011726621Y013417054D01*
G01*
X011715092Y013300000D01*
G01*
X011726621Y013182946D01*
G01*
X011760764Y013070390D01*
G01*
X011816210Y012966658D01*
G01*
X011890828Y012875736D01*
G01*
X011940092Y012835306D01*
G01*
X011940092Y012729996D01*
G01*
X011575000Y012729996D01*
G01*
X011575000Y013000000D01*
G01*
X011567794Y013073159D01*
G01*
X011546455Y013143506D01*
G01*
X011511801Y013208339D01*
G01*
X011465165Y013265165D01*
G01*
X011408339Y013311801D01*
G01*
X011343506Y013346455D01*
G01*
X011273159Y013367794D01*
G01*
X011200000Y013375000D01*
G01*
X008000000Y013375000D01*
G01*
X007926841Y013367794D01*
G01*
X007856494Y013346455D01*
G01*
X007791661Y013311801D01*
G01*
X007734835Y013265165D01*
G01*
X007701669Y013224752D01*
G01*
X007700484Y013225644D01*
G01*
X007328593Y012732003D01*
G01*
X006543398Y012732003D01*
G01*
X006543398Y011697521D01*
G01*
X006085551Y011098577D01*
G01*
X005982946Y011088471D01*
G01*
X005870390Y011054328D01*
G01*
X005766658Y010998882D01*
G01*
X005675736Y010924264D01*
G01*
X005601118Y010833342D01*
G01*
X005545672Y010729610D01*
G01*
X005511529Y010617054D01*
G01*
X005500000Y010500000D01*
G01*
X005511529Y010382946D01*
G01*
X005545672Y010270390D01*
G01*
X005601118Y010166658D01*
G01*
X005675736Y010075736D01*
G01*
X005766658Y010001118D01*
G01*
X005870390Y009945672D01*
G01*
X005982946Y009911529D01*
G01*
X006100000Y009900000D01*
G01*
X006217054Y009911529D01*
G01*
X006329610Y009945672D01*
G01*
X006433342Y010001118D01*
G01*
X006524264Y010075736D01*
G01*
X006598882Y010166658D01*
G01*
X006654328Y010270390D01*
G01*
X006688471Y010382946D01*
G01*
X006700000Y010500000D01*
G01*
X006688471Y010617054D01*
G01*
X006680807Y010642318D01*
G01*
X007159091Y011267997D01*
G01*
X007949874Y011267997D01*
G01*
X007949874Y012310248D01*
G01*
X008050126Y012443321D01*
G01*
X008050126Y011267997D01*
G01*
X008303364Y011267997D01*
G01*
X008303364Y010732003D01*
G01*
X008043398Y010732003D01*
G01*
X008043398Y009932942D01*
G01*
X007943371Y009832859D01*
G01*
X007781712Y009671109D01*
G01*
X007781721Y009671100D01*
G01*
X007725839Y009603007D01*
G01*
X007684254Y009525208D01*
G01*
X007658647Y009440791D01*
G01*
X007650000Y009353000D01*
G01*
X007650000Y009081973D01*
G01*
X007650000Y008810947D01*
G01*
X007650000Y008539920D01*
G01*
X007650000Y008453889D01*
G01*
X007595272Y008398575D01*
G01*
X007410432Y008211757D01*
G01*
X007225591Y008024938D01*
G01*
X007040750Y007838120D01*
G01*
X006855909Y007651301D01*
G01*
X006671068Y007464483D01*
G01*
X006556705Y007348897D01*
G01*
X005322627Y007341805D01*
G01*
X005335107Y007382946D01*
G01*
X005346636Y007500000D01*
G01*
X005335107Y007617054D01*
G01*
X005300964Y007729610D01*
G01*
X005245518Y007833342D01*
G01*
X005170900Y007924264D01*
G01*
X005121636Y007964694D01*
G01*
X005121636Y008267997D01*
G01*
X005449874Y008267997D01*
G01*
X005449874Y009732003D01*
G01*
X004393303Y009732003D01*
G01*
X004400000Y009800000D01*
G01*
X004388471Y009917054D01*
G01*
X004354328Y010029610D01*
G01*
X004298882Y010133342D01*
G01*
X004224264Y010224264D01*
G01*
X004174993Y010264699D01*
G01*
X004174987Y010750001D01*
G01*
X004499975Y010750001D01*
G01*
X004499975Y012249999D01*
G01*
X003099977Y012249999D01*
G01*
X003099977Y010750001D01*
G01*
X003424987Y010750001D01*
G01*
X003424993Y010264689D01*
G01*
X003375736Y010224264D01*
G01*
X003301118Y010133342D01*
G01*
X003245672Y010029610D01*
G01*
X003211529Y009917054D01*
G01*
X003200000Y009800000D01*
G01*
X003209087Y009707744D01*
G01*
X002851560Y009860585D01*
G01*
X002851375Y009860153D01*
G01*
X002846881Y009862555D01*
G01*
X002762464Y009888162D01*
G01*
X002674673Y009896809D01*
G01*
X002663465Y009895705D01*
G01*
X002663441Y009896669D01*
G01*
X002395630Y009889982D01*
G01*
X002127820Y009883295D01*
G01*
X001860009Y009876608D01*
G01*
X001592199Y009869921D01*
G01*
X001499192Y009867599D01*
G01*
X001554135Y009970390D01*
G01*
X001588279Y010082946D01*
G01*
X001599807Y010200000D01*
G01*
X001588279Y010317054D01*
G01*
X001554135Y010429610D01*
G01*
X001498689Y010533342D01*
G01*
X001424072Y010624264D01*
G01*
X001333150Y010698882D01*
G01*
X001229418Y010754328D01*
G01*
X001116862Y010788471D01*
G01*
X001082035Y010791901D01*
G01*
X000774923Y011303852D01*
G01*
X000774923Y011400219D01*
G01*
X000799923Y011400219D01*
G01*
X000799923Y012500218D01*
G01*
X-00000077Y012500218D01*
G01*
X-00400127Y012500218D01*
G01*
X-00799923Y012500218D01*
G01*
X-00799923Y012499964D01*
G01*
X-01199973Y012499964D01*
G01*
X-01199973Y011399965D01*
G01*
X-01174973Y011399965D01*
G01*
X-01174973Y011375637D01*
G01*
X-01880437Y010787730D01*
G01*
X-01882878Y010788471D01*
G01*
X-01999932Y010800000D01*
G01*
X-02116987Y010788471D01*
G01*
X-02229543Y010754328D01*
G01*
X-02333275Y010698882D01*
G01*
X-02424197Y010624264D01*
G01*
X-02498814Y010533342D01*
G01*
X-02554260Y010429610D01*
G01*
X-02588404Y010317054D01*
G01*
X-02599932Y010200000D01*
G01*
X-02588404Y010082946D01*
G01*
X-02577964Y010048529D01*
G01*
X-02600005Y010048529D01*
G01*
X-02663457Y010054779D01*
G01*
X-02775757Y010054779D01*
G01*
X-02775754Y010089618D01*
G01*
X-02765639Y010122963D01*
G01*
X-02756997Y010210712D01*
G01*
X-02756993Y010210712D01*
G01*
X-02756966Y010504324D01*
G01*
X-02756939Y010797937D01*
G01*
X-02756912Y011091549D01*
G01*
X-02756916Y011091549D01*
G01*
X-02756912Y011091590D01*
G01*
X-02765559Y011179381D01*
G01*
X-02791166Y011263797D01*
G01*
X-02832751Y011341596D01*
G01*
X-02876760Y011395222D01*
G01*
X-02875689Y011396207D01*
G01*
X-03032204Y011566392D01*
G01*
X-03362233Y012078996D01*
G01*
X-03301614Y012100169D01*
G01*
X-03302201Y012101850D01*
G01*
X-03277792Y012109254D01*
G01*
X-03199993Y012150839D01*
G01*
X-03131802Y012206802D01*
G01*
X-03075839Y012274993D01*
G01*
X-03034254Y012352792D01*
G01*
X-03008647Y012437209D01*
G01*
X-03000000Y012525000D01*
G01*
X-03000000Y014175000D01*
G01*
X-03008647Y014262791D01*
G01*
X-03034254Y014347208D01*
G01*
X-03049297Y014375351D01*
G01*
X-03047508Y014376246D01*
G01*
X-03497508Y015276246D01*
G01*
X-03499297Y015275351D01*
G01*
X-03525839Y015325007D01*
G01*
X-03543398Y015346403D01*
G01*
X-03543398Y016732003D01*
G01*
X-03871636Y016732003D01*
G01*
X-03871636Y016935306D01*
G01*
X-03822372Y016975736D01*
G01*
X-03747754Y017066658D01*
G01*
X-03692308Y017170390D01*
G01*
X-03658165Y017282946D01*
G01*
X-03646636Y017400000D01*
G01*
X-03658165Y017517054D01*
G01*
X-03692308Y017629610D01*
G01*
X-03747754Y017733342D01*
G01*
X-03822372Y017824264D01*
G01*
X-03913294Y017898882D01*
G01*
X-04017026Y017954328D01*
G01*
X-04129582Y017988471D01*
G01*
X-04246636Y018000000D01*
G01*
X-04363690Y017988471D01*
G01*
X-04476246Y017954328D01*
G01*
X-04579978Y017898882D01*
G01*
X-04670900Y017824264D01*
G01*
X-04745518Y017733342D01*
G01*
X-04800964Y017629610D01*
G01*
X-04835107Y017517054D01*
G01*
X-04846636Y017400000D01*
G01*
X-04835107Y017282946D01*
G01*
X-04800964Y017170390D01*
G01*
X-04745518Y017066658D01*
G01*
X-04670900Y016975736D01*
G01*
X-04621636Y016935306D01*
G01*
X-04621636Y016732003D01*
G01*
X-04949874Y016732003D01*
G01*
X-04949874Y015675000D01*
G01*
X-05250000Y015675000D01*
G01*
X-05337791Y015666353D01*
G01*
X-05422208Y015640746D01*
G01*
X-05441441Y015630466D01*
G01*
X-05442129Y015631923D01*
G01*
X-06081033Y015330265D01*
G01*
X-06265448Y015504804D01*
G01*
X-06469335Y015697772D01*
G01*
X-06470054Y015697013D01*
G01*
X-06528655Y015745105D01*
G01*
X-06606454Y015786689D01*
G01*
X-06690870Y015812297D01*
G01*
X-06778661Y015820944D01*
G01*
X-06790793Y015819749D01*
G01*
X-06790821Y015820779D01*
G01*
X-07084550Y015812839D01*
G01*
X-07378279Y015804899D01*
G01*
X-07378251Y015803868D01*
G01*
X-07422522Y015799508D01*
G01*
X-07422773Y015801483D01*
G01*
X-07580172Y015781507D01*
G01*
X-07650000Y015886250D01*
G01*
X-07650000Y016160738D01*
G01*
X-07647884Y016162475D01*
G01*
X-07591921Y016230666D01*
G01*
X-07550337Y016308465D01*
G01*
X-07524729Y016392882D01*
G01*
X-07516469Y016476747D01*
G01*
X-07516100Y016476744D01*
G01*
X-07513594Y016763696D01*
G01*
X-07511089Y017050647D01*
G01*
X-07508584Y017337598D01*
G01*
X-07506078Y017624550D01*
G01*
X-07503573Y017911501D01*
G01*
X-07501068Y018198453D01*
G01*
X-07498563Y018485404D01*
G01*
X-07496057Y018772355D01*
G01*
X-07493552Y019059307D01*
G01*
X-07491047Y019346258D01*
G01*
X-07488541Y019633210D01*
G01*
X-07486036Y019920161D01*
G01*
X-07483531Y020207112D01*
G01*
X-07481380Y020453566D01*
G01*
X-07412907Y020523211D01*
G01*
X-07203208Y020736502D01*
G01*
X-06993510Y020949793D01*
G01*
X-06783811Y021163084D01*
G01*
X-06574113Y021376375D01*
G01*
X-06364414Y021589666D01*
G01*
X-06154716Y021802957D01*
G01*
X-05945017Y022016248D01*
G01*
X-05735318Y022229539D01*
G01*
X-05525620Y022442829D01*
G01*
X-05315921Y022656120D01*
G01*
X-05106223Y022869411D01*
G01*
X-05106480Y022869663D01*
G01*
X-05062454Y022923309D01*
G01*
X-05061462Y022922597D01*
G01*
X-04732466Y023381224D01*
G01*
X-04710225Y023383415D01*
G01*
X-04625809Y023409022D01*
G01*
X-04548009Y023450607D01*
G01*
X-04479818Y023506570D01*
G01*
X-04477384Y023509536D01*
G01*
X-04477127Y023509284D01*
G01*
X-04267429Y023722575D01*
G01*
X-04057730Y023935866D01*
G01*
X-04051853Y023941844D01*
G01*
X-04056497Y023894692D01*
G01*
X-04044968Y023777638D01*
G01*
X-04010825Y023665082D01*
G01*
X-03955379Y023561350D01*
G01*
X-03880761Y023470428D01*
G01*
X-03789839Y023395810D01*
G01*
X-03686107Y023340364D01*
G01*
X-03573551Y023306221D01*
G01*
X-03456497Y023294692D01*
G01*
X-03339443Y023306221D01*
G01*
X-03226887Y023340364D01*
G01*
X-03123155Y023395810D01*
G01*
X-03032233Y023470428D01*
G01*
X-02994901Y023515916D01*
G01*
X-00279412Y023493776D01*
G01*
X000387884Y022860228D01*
G01*
X000299935Y022860228D01*
G01*
X-00200191Y022860228D01*
G01*
X-00700063Y022860228D01*
G01*
X-01200189Y022860228D01*
G01*
X-01700061Y022860228D01*
G01*
X-02200187Y022860228D01*
G01*
X-03000172Y022860228D01*
G01*
X-03000172Y021060231D01*
G01*
X-02775173Y021060231D01*
G01*
X-02775173Y020400000D01*
G01*
X-02767967Y020326841D01*
G01*
X-02746628Y020256494D01*
G01*
X-02712124Y020191942D01*
G01*
X-02712150Y020191925D01*
G01*
X-02711974Y020191662D01*
G01*
X-02711974Y020191661D01*
G01*
X-02569823Y019978528D01*
G01*
X-02588471Y019917054D01*
G01*
X-02600000Y019800000D01*
G01*
X-02588471Y019682946D01*
G01*
X-02554328Y019570390D01*
G01*
X-02498882Y019466658D01*
G01*
X-02424264Y019375736D01*
G01*
X-02333342Y019301118D01*
G01*
X-02229610Y019245672D01*
G01*
X-02117054Y019211529D01*
G01*
X-02000000Y019200000D01*
G01*
X-01882946Y019211529D01*
G01*
X-01770390Y019245672D01*
G01*
X-01666658Y019301118D01*
G01*
X-01575736Y019375736D01*
G01*
X-01501118Y019466658D01*
G01*
X-01456602Y019549941D01*
G01*
X-01456602Y018267997D01*
G01*
X-00124339Y018267997D01*
G01*
X-00177628Y018224264D01*
G01*
X-00252246Y018133342D01*
G01*
X-00307692Y018029610D01*
G01*
X-00341835Y017917054D01*
G01*
X-00353364Y017800000D01*
G01*
X-00346667Y017732003D01*
G01*
X-00456602Y017732003D01*
G01*
X-00456602Y016758815D01*
G01*
X-00513403Y016776046D01*
G01*
X-00601194Y016784692D01*
G01*
X-00601353Y016784676D01*
G01*
X-00601353Y016784692D01*
G01*
X-00889368Y016784590D01*
G01*
X-01177383Y016784488D01*
G01*
X-01465398Y016784386D01*
G01*
X-01465398Y016784370D01*
G01*
X-01553029Y016775739D01*
G01*
X-01637446Y016750132D01*
G01*
X-01715245Y016708547D01*
G01*
X-01783336Y016652667D01*
G01*
X-01783345Y016652676D01*
G01*
X-01961576Y016474547D01*
G01*
X-02040127Y016396041D01*
G01*
X-02116987Y016388471D01*
G01*
X-02229543Y016354328D01*
G01*
X-02333275Y016298882D01*
G01*
X-02424197Y016224264D01*
G01*
X-02498814Y016133342D01*
G01*
X-02554260Y016029610D01*
G01*
X-02588404Y015917054D01*
G01*
X-02599932Y015800000D01*
G01*
X-02588404Y015682946D01*
G01*
X-02554260Y015570390D01*
G01*
X-02498814Y015466658D01*
G01*
X-02424197Y015375736D01*
G01*
X-02333275Y015301118D01*
G01*
X-02229543Y015245672D01*
G01*
X-02116987Y015211529D01*
G01*
X-01999932Y015200000D01*
G01*
X-01882878Y015211529D01*
G01*
X-01880437Y015212270D01*
G01*
X-01174973Y014624363D01*
G01*
X-01174973Y014600036D01*
G01*
X-01199973Y014600036D01*
G01*
X-01199973Y013500037D01*
G01*
X-00399973Y013500037D01*
G01*
X000000077Y013500037D01*
G01*
X000399873Y013500037D01*
G01*
X000799923Y013500037D01*
G01*
X001199973Y013500037D01*
G01*
X001199973Y014600036D01*
G01*
X001174973Y014600036D01*
G01*
X001174973Y014624363D01*
G01*
X001880437Y015212270D01*
G01*
X001882878Y015211529D01*
G01*
X001999933Y015200000D01*
G01*
X002116987Y015211529D01*
G01*
X002229543Y015245672D01*
G01*
X002333275Y015301118D01*
G01*
X002424197Y015375736D01*
G01*
X002498814Y015466658D01*
G01*
X002554260Y015570390D01*
G01*
X002588404Y015682946D01*
G01*
X002599933Y015800000D01*
G01*
X002588404Y015917054D01*
G01*
X002554260Y016029610D01*
G01*
X002552113Y016033626D01*
G01*
X002552774Y016034168D01*
G01*
X002570023Y016035867D01*
G01*
X002633163Y016055021D01*
G01*
X002704548Y016033366D01*
G01*
X002821602Y016021838D01*
G01*
X002938656Y016033366D01*
G01*
X003051212Y016067510D01*
G01*
X003154944Y016122956D01*
G01*
X003245866Y016197574D01*
G01*
X003320483Y016288495D01*
G01*
X003375929Y016392228D01*
G01*
X003410073Y016504783D01*
G01*
X003421602Y016621838D01*
G01*
X003410073Y016738892D01*
G01*
X003375929Y016851448D01*
G01*
X003320483Y016955180D01*
G01*
X003245866Y017046102D01*
G01*
X003154944Y017120719D01*
G01*
X003051212Y017176165D01*
G01*
X002938656Y017210309D01*
G01*
X002821602Y017221838D01*
G01*
X002704548Y017210309D01*
G01*
X002591992Y017176165D01*
G01*
X002488260Y017120719D01*
G01*
X002397338Y017046102D01*
G01*
X002322720Y016955180D01*
G01*
X002281243Y016877582D01*
G01*
X002232226Y016851382D01*
G01*
X002164035Y016795419D01*
G01*
X002108071Y016727227D01*
G01*
X002102551Y016716901D01*
G01*
X001990806Y016716861D01*
G01*
X001702791Y016716759D01*
G01*
X001414776Y016716657D01*
G01*
X001126761Y016716555D01*
G01*
X000949874Y016716492D01*
G01*
X000949874Y017732003D01*
G01*
X000839939Y017732003D01*
G01*
X000846636Y017800000D01*
G01*
X000835107Y017917054D01*
G01*
X000800964Y018029610D01*
G01*
X000745518Y018133342D01*
G01*
X000670900Y018224264D01*
G01*
X000579978Y018298882D01*
G01*
X000476246Y018354328D01*
G01*
X000363690Y018388471D01*
G01*
X000246636Y018400000D01*
G01*
X000129582Y018388471D01*
G01*
X000017026Y018354328D01*
G01*
X-00050126Y018318434D01*
G01*
X-00050126Y019732003D01*
G01*
X-00226982Y019732003D01*
G01*
X-00211529Y019782946D01*
G01*
X-00200000Y019900000D01*
G01*
X-00211529Y020017054D01*
G01*
X-00245672Y020129610D01*
G01*
X-00301118Y020233342D01*
G01*
X-00375736Y020324264D01*
G01*
X-00466658Y020398882D01*
G01*
X-00570390Y020454328D01*
G01*
X-00682946Y020488471D01*
G01*
X-00800000Y020500000D01*
G01*
X-00917054Y020488471D01*
G01*
X-01029610Y020454328D01*
G01*
X-01038807Y020449412D01*
G01*
X-01375187Y020626420D01*
G01*
X-01375187Y021060231D01*
G01*
X-01300187Y021060231D01*
G01*
X-00800061Y021060231D01*
G01*
X-00300189Y021060231D01*
G01*
X000199937Y021060231D01*
G01*
X000699809Y021060231D01*
G01*
X000874807Y021060231D01*
G01*
X000874807Y020543855D01*
G01*
X000832477Y020496801D01*
G01*
X000800000Y020500000D01*
G01*
X000682946Y020488471D01*
G01*
X000570390Y020454328D01*
G01*
X000466658Y020398882D01*
G01*
X000375736Y020324264D01*
G01*
X000301118Y020233342D01*
G01*
X000245672Y020129610D01*
G01*
X000211529Y020017054D01*
G01*
X000200000Y019900000D01*
G01*
X000211529Y019782946D01*
G01*
X000245672Y019670390D01*
G01*
X000301118Y019566658D01*
G01*
X000375736Y019475736D01*
G01*
X000466658Y019401118D01*
G01*
X000570390Y019345672D01*
G01*
X000682946Y019311529D01*
G01*
X000800000Y019300000D01*
G01*
X000917054Y019311529D01*
G01*
X001029610Y019345672D01*
G01*
X001133342Y019401118D01*
G01*
X001224264Y019475736D01*
G01*
X001298882Y019566658D01*
G01*
X001354328Y019670390D01*
G01*
X001388471Y019782946D01*
G01*
X001400000Y019900000D01*
G01*
X001393753Y019963423D01*
G01*
X001439459Y020009129D01*
G01*
X001411529Y019917054D01*
G01*
X001400000Y019800000D01*
G01*
X001411529Y019682946D01*
G01*
X001445672Y019570390D01*
G01*
X001501118Y019466658D01*
G01*
X001575736Y019375736D01*
G01*
X001666658Y019301118D01*
G01*
X001770390Y019245672D01*
G01*
X001882946Y019211529D01*
G01*
X002000000Y019200000D01*
G01*
X002117054Y019211529D01*
G01*
X002229610Y019245672D01*
G01*
X002333342Y019301118D01*
G01*
X002424264Y019375736D01*
G01*
X002498882Y019466658D01*
G01*
X002554328Y019570390D01*
G01*
X002588471Y019682946D01*
G01*
X002600000Y019800000D01*
G01*
X002588471Y019917054D01*
G01*
X002569772Y019978697D01*
G01*
X002711718Y020191659D01*
G01*
X002711720Y020191661D01*
G01*
X002711721Y020191663D01*
G01*
X002711957Y020192017D01*
G01*
X002711923Y020192040D01*
G01*
X002746374Y020256494D01*
G01*
X002767713Y020326841D01*
G01*
X002774919Y020400000D01*
G01*
X002774919Y021060231D01*
G01*
X002999918Y021060231D01*
G01*
X002999918Y022860228D01*
G01*
X001799920Y022860228D01*
G01*
X001477159Y022860228D01*
G01*
X000282204Y023994750D01*
G01*
X000533040Y023993630D01*
G01*
X000827038Y023992316D01*
G01*
X001121036Y023991003D01*
G01*
X001415034Y023989689D01*
G01*
X001709032Y023988376D01*
G01*
X002003030Y023987063D01*
G01*
X002297029Y023985749D01*
G01*
X002591027Y023984436D01*
G01*
X002885025Y023983122D01*
G01*
X003179023Y023981809D01*
G01*
X003473021Y023980495D01*
G01*
X003767019Y023979182D01*
G01*
X004061018Y023977868D01*
G01*
X004355016Y023976555D01*
G01*
X004649014Y023975241D01*
G01*
X004943012Y023973928D01*
G01*
X005237010Y023972614D01*
G01*
X005531008Y023971301D01*
G01*
X005639755Y023970815D01*
G01*
X005711581Y023898971D01*
G01*
X005914384Y023696116D01*
G01*
X006096077Y023514376D01*
G01*
X006392522Y023126669D01*
G01*
X006394033Y023127824D01*
G01*
X006431802Y023081802D01*
G01*
X006499993Y023025839D01*
G01*
X006543398Y023002638D01*
G01*
X006543398Y022267997D01*
G01*
X007949874Y022267997D01*
G01*
X007949874Y023732003D01*
G01*
X007783748Y023732003D01*
G01*
X007804266Y023770390D01*
G01*
X007838409Y023882946D01*
G01*
X007849938Y024000000D01*
G01*
X007838409Y024117054D01*
G01*
X007804266Y024229610D01*
G01*
X007748820Y024333342D01*
G01*
X007674202Y024424264D01*
G01*
X007624938Y024464694D01*
G01*
X007624938Y025300001D01*
G01*
X007949937Y025300001D01*
G01*
X007949937Y026699999D01*
G01*
X006549939Y026699999D01*
G01*
X006549939Y025300001D01*
G01*
X006874938Y025300001D01*
G01*
X006874938Y024464694D01*
G01*
X006825674Y024424264D01*
G01*
X006751056Y024333342D01*
G01*
X006695610Y024229610D01*
G01*
X006685844Y024197414D01*
G01*
X006550861Y024332431D01*
G01*
X006348058Y024535286D01*
G01*
X006145256Y024738140D01*
G01*
X006145252Y024738136D01*
G01*
X006145215Y024738181D01*
G01*
X006077024Y024794144D01*
G01*
X005999224Y024835729D01*
G01*
X005914808Y024861336D01*
G01*
X005829026Y024869785D01*
G01*
X005829027Y024869979D01*
G01*
X005535029Y024871292D01*
G01*
X005241031Y024872606D01*
G01*
X004947033Y024873919D01*
G01*
X004653035Y024875232D01*
G01*
X004359037Y024876546D01*
G01*
X004065038Y024877859D01*
G01*
X003771040Y024879173D01*
G01*
X003477042Y024880486D01*
G01*
X003183044Y024881800D01*
G01*
X002889046Y024883113D01*
G01*
X002595048Y024884427D01*
G01*
X002301049Y024885740D01*
G01*
X002007051Y024887054D01*
G01*
X001713053Y024888367D01*
G01*
X001419055Y024889681D01*
G01*
X001125057Y024890994D01*
G01*
X000831059Y024892307D01*
G01*
X000537060Y024893621D01*
G01*
X000243062Y024894934D01*
G01*
X-00050936Y024896248D01*
G01*
X-00344934Y024897561D01*
G01*
X-00638932Y024898875D01*
G01*
X-00932930Y024900188D01*
G01*
X-01226928Y024901502D01*
G01*
X-01520927Y024902815D01*
G01*
X-01814925Y024904129D01*
G01*
X-02108923Y024905442D01*
G01*
X-02402921Y024906756D01*
G01*
X-02519858Y024907278D01*
G01*
X-02541882Y024927969D01*
G01*
X-02542677Y024927123D01*
G01*
X-02599993Y024974161D01*
G01*
X-02677792Y025015746D01*
G01*
X-02762209Y025041353D01*
G01*
X-02850000Y025050000D01*
G01*
X-02895721Y025045497D01*
G01*
X-02895942Y025047649D01*
G01*
X-04214862Y024912289D01*
G01*
X-04214641Y024910138D01*
G01*
X-04256711Y024905994D01*
G01*
X-04341128Y024880387D01*
G01*
X-04418927Y024838802D01*
G01*
X-04487119Y024782839D01*
G01*
X-04489553Y024779873D01*
G01*
X-04489809Y024780125D01*
G01*
X-04699508Y024566834D01*
G01*
X-04909206Y024353543D01*
G01*
X-04963118Y024298708D01*
G01*
X-05037791Y024291353D01*
G01*
X-05122208Y024265746D01*
G01*
X-05200007Y024224161D01*
G01*
X-05268198Y024168198D01*
G01*
X-05314658Y024111586D01*
G01*
X-05315650Y024112298D01*
G01*
X-05772439Y023475523D01*
G01*
X-05957699Y023287089D01*
G01*
X-06167398Y023073798D01*
G01*
X-06377096Y022860507D01*
G01*
X-06586795Y022647216D01*
G01*
X-06796493Y022433925D01*
G01*
X-07006192Y022220634D01*
G01*
X-07215890Y022007344D01*
G01*
X-07425589Y021794053D01*
G01*
X-07635287Y021580762D01*
G01*
X-07844986Y021367471D01*
G01*
X-08054684Y021154180D01*
G01*
X-08264383Y020940889D01*
G01*
X-08264126Y020940637D01*
G01*
X-08317655Y020875411D01*
G01*
X-08359240Y020797612D01*
G01*
X-08384848Y020713196D01*
G01*
X-08393494Y020625405D01*
G01*
X-08389193Y020581729D01*
G01*
X-08391349Y020581518D01*
G01*
X-08381200Y020477956D01*
G01*
X-08383497Y020214970D01*
G01*
X-08386002Y019928018D01*
G01*
X-08388507Y019641067D01*
G01*
X-08391012Y019354116D01*
G01*
X-08393518Y019067164D01*
G01*
X-08396023Y018780213D01*
G01*
X-08398528Y018493261D01*
G01*
X-08401034Y018206310D01*
G01*
X-08403539Y017919359D01*
G01*
X-08406044Y017632407D01*
G01*
X-08408549Y017345456D01*
G01*
X-08411055Y017058504D01*
G01*
X-08413560Y016771553D01*
G01*
X-08414435Y016671286D01*
G01*
X-08418198Y016668198D01*
G01*
X-08474161Y016600007D01*
G01*
X-08515746Y016522208D01*
G01*
X-08541353Y016437791D01*
G01*
X-08550000Y016350000D01*
G01*
X-08550000Y015750000D01*
G01*
X-08541353Y015662209D01*
G01*
X-08515746Y015577792D01*
G01*
X-08474384Y015500411D01*
G01*
X-08474423Y015500385D01*
G01*
X-08174423Y015050385D01*
G01*
X-08174384Y015050411D01*
G01*
X-08174161Y015049993D01*
G01*
X-08118198Y014981802D01*
G01*
X-08050007Y014925839D01*
G01*
X-07972208Y014884254D01*
G01*
X-07887791Y014858647D01*
G01*
X-07800000Y014850000D01*
G01*
X-07743597Y014855555D01*
G01*
X-07743346Y014853581D01*
G01*
X-07331624Y014905832D01*
G01*
X-07060230Y014913168D01*
G01*
X-06952703Y014916075D01*
G01*
X-06884101Y014851146D01*
G01*
X-06680214Y014658178D01*
G01*
X-06476327Y014465210D01*
G01*
X-06475608Y014465970D01*
G01*
X-06417007Y014417877D01*
G01*
X-06339208Y014376293D01*
G01*
X-06254791Y014350685D01*
G01*
X-06167000Y014342038D01*
G01*
X-06079210Y014350685D01*
G01*
X-05994793Y014376293D01*
G01*
X-05975560Y014386573D01*
G01*
X-05974872Y014385115D01*
G01*
X-05149107Y014775000D01*
G01*
X-05070896Y014775000D01*
G01*
X-05088473Y014717054D01*
G01*
X-05100002Y014600000D01*
G01*
X-05088473Y014482946D01*
G01*
X-05055730Y014375005D01*
G01*
X-05505004Y014375005D01*
G01*
X-05505004Y012424995D01*
G01*
X-05064922Y012424995D01*
G01*
X-05078811Y012417571D01*
G01*
X-05147003Y012361607D01*
G01*
X-05202966Y012293416D01*
G01*
X-05244551Y012215617D01*
G01*
X-05270158Y012131200D01*
G01*
X-05275531Y012076650D01*
G01*
X-06094663Y012298933D01*
G01*
X-06144778Y012392692D01*
G01*
X-06219396Y012483614D01*
G01*
X-06310318Y012558232D01*
G01*
X-06414050Y012613678D01*
G01*
X-06526606Y012647821D01*
G01*
X-06643660Y012659350D01*
G01*
X-06760714Y012647821D01*
G01*
X-06873270Y012613678D01*
G01*
X-06977002Y012558232D01*
G01*
X-07067924Y012483614D01*
G01*
X-07142542Y012392692D01*
G01*
X-07197988Y012288960D01*
G01*
X-07232131Y012176404D01*
G01*
X-07243660Y012059350D01*
G01*
X-07232131Y011942296D01*
G01*
X-07197988Y011829740D01*
G01*
X-07142542Y011726008D01*
G01*
X-07067924Y011635086D01*
G01*
X-06977002Y011560468D01*
G01*
X-06873270Y011505022D01*
G01*
X-06760714Y011470879D01*
G01*
X-06643660Y011459350D01*
G01*
X-06526606Y011470879D01*
G01*
X-06414050Y011505022D01*
G01*
X-06310318Y011560468D01*
G01*
X-06292129Y011575395D01*
G01*
X-05120307Y011257404D01*
G01*
X-04999975Y011144087D01*
G01*
X-04999975Y010250001D01*
G01*
X-03656989Y010250001D01*
G01*
X-03656993Y010210794D01*
G01*
X-03656989Y010210794D01*
G01*
X-03656993Y010210753D01*
G01*
X-03648346Y010122963D01*
G01*
X-03638254Y010089694D01*
G01*
X-03638270Y009917180D01*
G01*
X-03638287Y009732317D01*
G01*
X-03785360Y009732317D01*
G01*
X-04083205Y009732317D01*
G01*
X-04381051Y009732317D01*
G01*
X-04678896Y009732317D01*
G01*
X-04976741Y009732317D01*
G01*
X-05274586Y009732317D01*
G01*
X-05572431Y009732317D01*
G01*
X-05870276Y009732317D01*
G01*
X-06168121Y009732317D01*
G01*
X-06465966Y009732317D01*
G01*
X-06577879Y009732317D01*
G01*
X-06643340Y009797549D01*
G01*
X-06643900Y009798107D01*
G01*
X-06841626Y009995140D01*
G01*
X-07039353Y010192174D01*
G01*
X-07237080Y010389208D01*
G01*
X-07434807Y010586241D01*
G01*
X-07632534Y010783275D01*
G01*
X-07829701Y010979751D01*
G01*
X-07830261Y010980309D01*
G01*
X-08027987Y011177342D01*
G01*
X-08225714Y011374376D01*
G01*
X-08423441Y011571410D01*
G01*
X-08488942Y011636681D01*
G01*
X-08489016Y011739502D01*
G01*
X-08489225Y012028992D01*
G01*
X-08489434Y012318482D01*
G01*
X-08489643Y012607971D01*
G01*
X-08489675Y012607971D01*
G01*
X-08498290Y012695437D01*
G01*
X-08498656Y012696642D01*
G01*
X-08498536Y012696666D01*
G01*
X-08677601Y013583963D01*
G01*
X-08540902Y013848527D01*
G01*
X-08542788Y013849502D01*
G01*
X-08524943Y013882888D01*
G01*
X-08499336Y013967304D01*
G01*
X-08492716Y014034512D01*
G01*
X-08449459Y014047634D01*
G01*
X-08345727Y014103080D01*
G01*
X-08254805Y014177698D01*
G01*
X-08180188Y014268620D01*
G01*
X-08124742Y014372352D01*
G01*
X-08090598Y014484908D01*
G01*
X-08079069Y014601962D01*
G01*
X-08090598Y014719016D01*
G01*
X-08124742Y014831572D01*
G01*
X-08180188Y014935304D01*
G01*
X-08254805Y015026226D01*
G01*
X-08345727Y015100844D01*
G01*
X-08449459Y015156290D01*
G01*
X-08562015Y015190433D01*
G01*
X-08679069Y015201962D01*
G01*
X-08796124Y015190433D01*
G01*
X-08908680Y015156290D01*
G01*
X-09012412Y015100844D01*
G01*
X-09051874Y015068458D01*
G01*
X-09113315Y015049820D01*
G01*
X-09191114Y015008236D01*
G01*
X-09259305Y014952273D01*
G01*
X-09315269Y014884081D01*
G01*
X-09356853Y014806282D01*
G01*
X-09382461Y014721865D01*
G01*
X-09391107Y014634075D01*
G01*
X-09391075Y014633750D01*
G01*
X-09391107Y014633750D01*
G01*
X-09390898Y014344260D01*
G01*
X-09390768Y014164329D01*
G01*
X-09549787Y013856568D01*
G01*
X-09547901Y013855593D01*
G01*
X-09565746Y013822208D01*
G01*
X-09591353Y013737791D01*
G01*
X-09600000Y013650000D01*
G01*
X-09591353Y013562209D01*
G01*
X-09590988Y013561004D01*
G01*
X-09591107Y013560980D01*
G01*
X-09389611Y012562533D01*
G01*
X-09389434Y012317831D01*
G01*
X-09389225Y012028342D01*
G01*
X-09389016Y011738852D01*
G01*
X-09388807Y011449362D01*
G01*
X-09388775Y011449362D01*
G01*
X-09380160Y011361897D01*
G01*
X-09354553Y011277480D01*
G01*
X-09312968Y011199681D01*
G01*
X-09257005Y011131489D01*
G01*
X-09256392Y011130986D01*
G01*
X-09256446Y011130931D01*
G01*
X-09058719Y010933897D01*
G01*
X-08860992Y010736864D01*
G01*
X-08663265Y010539830D01*
G01*
X-08465538Y010342796D01*
G01*
X-08268371Y010146321D01*
G01*
X-08267811Y010145763D01*
G01*
X-08070085Y009948729D01*
G01*
X-07872358Y009751695D01*
G01*
X-07674631Y009554662D01*
G01*
X-07476904Y009357628D01*
G01*
X-07279737Y009161152D01*
G01*
X-07279177Y009160594D01*
G01*
X-07082010Y008964119D01*
G01*
X-07081450Y008963561D01*
G01*
X-07081396Y008963615D01*
G01*
X-07013818Y008908156D01*
G01*
X-06936019Y008866571D01*
G01*
X-06851602Y008840963D01*
G01*
X-06763812Y008832317D01*
G01*
X-06465966Y008832317D01*
G01*
X-06168121Y008832317D01*
G01*
X-05870276Y008832317D01*
G01*
X-05572431Y008832317D01*
G01*
X-05274586Y008832317D01*
G01*
X-04976741Y008832317D01*
G01*
X-04678896Y008832317D01*
G01*
X-04381051Y008832317D01*
G01*
X-04083205Y008832317D01*
G01*
X-03785360Y008832317D01*
G01*
X-03685632Y008832317D01*
G01*
X-03662507Y008813339D01*
G01*
X-03628981Y008795419D01*
G01*
X-03835180Y008598175D01*
G01*
X-04042942Y008399436D01*
G01*
X-04250704Y008200697D01*
G01*
X-04381659Y008075429D01*
G01*
X-04472224Y008066509D01*
G01*
X-04584780Y008032366D01*
G01*
X-04688512Y007976920D01*
G01*
X-04779434Y007902302D01*
G01*
X-04803996Y007872373D01*
G01*
X-04806118Y007876342D01*
G01*
X-04880736Y007967264D01*
G01*
X-04971658Y008041882D01*
G01*
X-05075390Y008097328D01*
G01*
X-05187946Y008131471D01*
G01*
X-05305000Y008143000D01*
G01*
X-05422054Y008131471D01*
G01*
X-05534610Y008097328D01*
G01*
X-05638342Y008041882D01*
G01*
X-05729264Y007967264D01*
G01*
X-05803882Y007876342D01*
G01*
X-05859328Y007772610D01*
G01*
X-05893471Y007660054D01*
G01*
X-05901521Y007578323D01*
G01*
X-06037203Y007440411D01*
G01*
X-06242914Y007231319D01*
G01*
X-06448625Y007022228D01*
G01*
X-06654337Y006813136D01*
G01*
X-06654090Y006812893D01*
G01*
X-06707717Y006747548D01*
G01*
X-06749302Y006669749D01*
G01*
X-06774909Y006585332D01*
G01*
X-06783556Y006497542D01*
G01*
X-06783121Y006493123D01*
G01*
X-06783534Y006493119D01*
G01*
X-06780694Y006204152D01*
G01*
X-06777854Y005915184D01*
G01*
X-06775013Y005626217D01*
G01*
X-06772173Y005337250D01*
G01*
X-06769333Y005048283D01*
G01*
X-06766492Y004759315D01*
G01*
X-06763652Y004470348D01*
G01*
X-06763239Y004470352D01*
G01*
X-06755531Y004392097D01*
G01*
X-06755998Y004392010D01*
G01*
X-06610892Y003616476D01*
G01*
X-06714307Y003222065D01*
G01*
X-06831097Y003105275D01*
G01*
X-06936397Y002999975D01*
G01*
X-07302463Y002999975D01*
G01*
X-07770610Y003327689D01*
G01*
X-07771045Y003327067D01*
G01*
X-07777772Y003332588D01*
G01*
X-07846927Y003369552D01*
G01*
X-07921964Y003392314D01*
G01*
X-08000000Y003400000D01*
G01*
X-08210023Y003400000D01*
G01*
X-08210023Y003440005D01*
G01*
X-09475021Y003440005D01*
G01*
X-09475021Y002559995D01*
G01*
X-08210023Y002559995D01*
G01*
X-08210023Y002600000D01*
G01*
X-08126092Y002600000D01*
G01*
X-07749999Y002336726D01*
G01*
X-07749999Y001599977D01*
G01*
X-07450000Y001599977D01*
G01*
X-07450000Y001392905D01*
G01*
X-07475736Y001424264D01*
G01*
X-07566658Y001498882D01*
G01*
X-07670390Y001554328D01*
G01*
X-07782946Y001588471D01*
G01*
X-07900000Y001600000D01*
G01*
X-07945934Y001595476D01*
G01*
X-08210023Y001875670D01*
G01*
X-08210023Y002440007D01*
G01*
X-09475021Y002440007D01*
G01*
X-09475021Y001559997D01*
G01*
X-08943122Y001559997D01*
G01*
X-08491988Y001081350D01*
G01*
X-08500000Y001000000D01*
G01*
X-08488471Y000882946D01*
G01*
X-08454328Y000770390D01*
G01*
X-08398882Y000666658D01*
G01*
X-08324264Y000575736D01*
G01*
X-08233342Y000501118D01*
G01*
X-08129610Y000445672D01*
G01*
X-08017054Y000411529D01*
G01*
X-07900000Y000400000D01*
G01*
X-07782946Y000411529D01*
G01*
X-07670390Y000445672D01*
G01*
X-07566658Y000501118D01*
G01*
X-07475736Y000575736D01*
G01*
X-07450000Y000607095D01*
G01*
X-07450000Y000040722D01*
G01*
X-07504782Y-00026029D01*
G01*
X-07546366Y-00103828D01*
G01*
X-07571974Y-00188245D01*
G01*
X-07573447Y-00203203D01*
G01*
X-07915448Y-00422859D01*
G01*
X-07915054Y-00423472D01*
G01*
X-07922271Y-00427329D01*
G01*
X-07985167Y-00478947D01*
G01*
X-07985599Y-00478502D01*
G01*
X-08032065Y-00523579D01*
G01*
X-08121218Y-00522087D01*
G01*
X-08121229Y-00522765D01*
G01*
X-08128750Y-00522024D01*
G01*
X-08162438Y-00525342D01*
G01*
X-09674070Y-00533787D01*
G01*
X-09982362Y-00381240D01*
G01*
X-09994996Y-00368606D01*
G01*
X-09994996Y000975005D01*
G01*
X-10649888Y000975005D01*
G01*
X-10707478Y001523554D01*
G01*
X-10707478Y001559997D01*
G01*
X-10524979Y001559997D01*
G01*
X-10524979Y002059869D01*
G01*
X-10524979Y002939879D01*
G01*
X-11065243Y002939879D01*
G01*
X-11069687Y002941227D01*
G01*
X-11157478Y002949874D01*
G01*
X-12000000Y002949874D01*
G01*
X-12087791Y002941227D01*
G01*
X-12172208Y002915620D01*
G01*
X-12250007Y002874035D01*
G01*
X-12318198Y002818072D01*
G01*
X-12326846Y002807535D01*
G01*
X-12327669Y002808310D01*
G01*
X-12523763Y002599989D01*
G01*
X-15660005Y002599989D01*
G01*
X-15660005Y001105552D01*
G01*
X-15688199Y001158299D01*
G01*
X-15734835Y001215125D01*
G01*
X-15791661Y001261761D01*
G01*
X-15856494Y001296415D01*
G01*
X-15926841Y001317754D01*
G01*
X-16000000Y001324960D01*
G01*
X-16200003Y001324960D01*
G01*
X-16200003Y001574966D01*
G01*
X-16565585Y001574966D01*
G01*
X-16516658Y001601118D01*
G01*
X-16425736Y001675736D01*
G01*
X-16351118Y001766658D01*
G01*
X-16295672Y001870390D01*
G01*
X-16261529Y001982946D01*
G01*
X-16250000Y002100000D01*
G01*
X-16261529Y002217054D01*
G01*
X-16295672Y002329610D01*
G01*
X-16351118Y002433342D01*
G01*
X-16425736Y002524264D01*
G01*
X-16516658Y002598882D01*
G01*
X-16620390Y002654328D01*
G01*
X-16732946Y002688471D01*
G01*
X-16850000Y002700000D01*
G01*
X-16967054Y002688471D01*
G01*
X-17079610Y002654328D01*
G01*
X-17156756Y002613093D01*
G01*
X-17354632Y002621094D01*
G01*
X-17615732Y002631652D01*
G01*
X-17700758Y002635090D01*
G01*
X-17777593Y002712155D01*
G01*
X-17978845Y002914010D01*
G01*
X-18000025Y002935253D01*
G01*
X-18000025Y003063603D01*
G01*
X-17996309Y003067319D01*
G01*
X-17803550Y003260078D01*
G01*
X-17747587Y003328269D01*
G01*
X-17706002Y003406068D01*
G01*
X-17680395Y003490485D01*
G01*
X-17674214Y003553236D01*
G01*
X-17672451Y003553137D01*
G01*
X-17665670Y003674321D01*
G01*
X-17667433Y003674420D01*
G01*
X-17665852Y003690475D01*
G01*
X-17665057Y003690459D01*
G01*
X-17659248Y003980835D01*
G01*
X-17653438Y004271211D01*
G01*
X-17647628Y004561587D01*
G01*
X-17641818Y004851964D01*
G01*
X-17636008Y005142340D01*
G01*
X-17630198Y005432716D01*
G01*
X-17624388Y005723092D01*
G01*
X-17618578Y006013468D01*
G01*
X-17612768Y006303845D01*
G01*
X-17606958Y006594221D01*
G01*
X-17601148Y006884597D01*
G01*
X-17595338Y007174973D01*
G01*
X-17589528Y007465349D01*
G01*
X-17583718Y007755726D01*
G01*
X-17577909Y008046102D01*
G01*
X-17572099Y008336478D01*
G01*
X-17566289Y008626854D01*
G01*
X-17560479Y008917231D01*
G01*
X-17554669Y009207607D01*
G01*
X-17548859Y009497983D01*
G01*
X-17543049Y009788359D01*
G01*
X-17537239Y010078735D01*
G01*
X-17534875Y010196894D01*
G01*
X-17454301Y010283183D01*
G01*
X-17256166Y010495372D01*
G01*
X-17058031Y010707560D01*
G01*
X-16859896Y010919749D01*
G01*
X-16661761Y011131938D01*
G01*
X-16463627Y011344127D01*
G01*
X-16265492Y011556315D01*
G01*
X-16067357Y011768504D01*
G01*
X-15944569Y011900002D01*
G01*
X-14924986Y011900002D01*
G01*
X-14924986Y013100000D01*
G01*
X-17074996Y013100000D01*
G01*
X-17074996Y012008097D01*
G01*
X-17121434Y011958365D01*
G01*
X-17319569Y011746177D01*
G01*
X-17517704Y011533988D01*
G01*
X-17715839Y011321799D01*
G01*
X-17913973Y011109610D01*
G01*
X-18112108Y010897422D01*
G01*
X-18310243Y010685233D01*
G01*
X-18309329Y010684380D01*
G01*
X-18355500Y010628120D01*
G01*
X-18397085Y010550321D01*
G01*
X-18422692Y010465904D01*
G01*
X-18430454Y010387099D01*
G01*
X-18431249Y010387115D01*
G01*
X-18437059Y010096739D01*
G01*
X-18442869Y009806363D01*
G01*
X-18448679Y009515987D01*
G01*
X-18454489Y009225611D01*
G01*
X-18460299Y008935234D01*
G01*
X-18466109Y008644858D01*
G01*
X-18471919Y008354482D01*
G01*
X-18477728Y008064106D01*
G01*
X-18483538Y007773730D01*
G01*
X-18489348Y007483353D01*
G01*
X-18495158Y007192977D01*
G01*
X-18500968Y006902601D01*
G01*
X-18506778Y006612225D01*
G01*
X-18512588Y006321849D01*
G01*
X-18518398Y006031472D01*
G01*
X-18524208Y005741096D01*
G01*
X-18530018Y005450720D01*
G01*
X-18535828Y005160344D01*
G01*
X-18541638Y004869967D01*
G01*
X-18547448Y004579591D01*
G01*
X-18553258Y004289215D01*
G01*
X-18559067Y003998839D01*
G01*
X-18563589Y003772831D01*
G01*
X-18586421Y003749999D01*
G01*
X-19400023Y003749999D01*
G01*
X-19400023Y002250001D01*
G01*
X-19150024Y002250001D01*
G01*
X-19150024Y001586372D01*
G01*
X-20140372Y000596024D01*
G01*
X-20217054Y000588471D01*
G01*
X-20329610Y000554328D01*
G01*
X-20433342Y000498882D01*
G01*
X-20524264Y000424264D01*
G01*
X-20598882Y000333342D01*
G01*
X-20654328Y000229610D01*
G01*
X-20688471Y000117054D01*
G01*
X-20700000Y000000000D01*
G01*
X-20688471Y-00117054D01*
G01*
X-20654328Y-00229610D01*
G01*
X-20598882Y-00333342D01*
G01*
X-20524264Y-00424264D01*
G01*
X-20433342Y-00498882D01*
G01*
X-20329610Y-00554328D01*
G01*
X-20217054Y-00588471D01*
G01*
X-20100000Y-00600000D01*
G01*
X-19982946Y-00588471D01*
G01*
X-19870390Y-00554328D01*
G01*
X-19799997Y-00516702D01*
G01*
X-19799997Y-00625006D01*
G01*
X-18199999Y-00625006D01*
G01*
X-18199999Y000625006D01*
G01*
X-18838598Y000625006D01*
G01*
X-18381826Y001081778D01*
G01*
X-18325863Y001149969D01*
G01*
X-18284278Y001227768D01*
G01*
X-18258671Y001312185D01*
G01*
X-18250024Y001399976D01*
G01*
X-18250024Y001911302D01*
G01*
X-18213687Y001874856D01*
G01*
X-18213641Y001874902D01*
G01*
X-18213212Y001874379D01*
G01*
X-18145020Y001818416D01*
G01*
X-18067221Y001776832D01*
G01*
X-17982804Y001751224D01*
G01*
X-17913138Y001744362D01*
G01*
X-17913195Y001742945D01*
G01*
X-17652095Y001732387D01*
G01*
X-17390995Y001721829D01*
G01*
X-17309383Y001718529D01*
G01*
X-17274264Y001675736D01*
G01*
X-17183342Y001601118D01*
G01*
X-17134415Y001574966D01*
G01*
X-17800001Y001574966D01*
G01*
X-17800001Y000324954D01*
G01*
X-16375000Y000324954D01*
G01*
X-16375000Y-02935306D01*
G01*
X-16424264Y-02975736D01*
G01*
X-16498882Y-03066658D01*
G01*
X-16554328Y-03170390D01*
G01*
X-16588471Y-03282946D01*
G01*
X-16600000Y-03400000D01*
G01*
X-16588471Y-03517054D01*
G01*
X-16554328Y-03629610D01*
G01*
X-16498882Y-03733342D01*
G01*
X-16424264Y-03824264D01*
G01*
X-16333342Y-03898882D01*
G01*
X-16229610Y-03954328D01*
G01*
X-16117054Y-03988471D01*
G01*
X-16000000Y-04000000D01*
G37*
D27*
G36*
X008050126Y022267997D02*
G01*
X009456602Y022267997D01*
G01*
X009456602Y023732003D01*
G01*
X009125062Y023732003D01*
G01*
X009125062Y025300001D01*
G01*
X009450061Y025300001D01*
G01*
X009450061Y026699999D01*
G01*
X008050063Y026699999D01*
G01*
X008050063Y025300001D01*
G01*
X008375062Y025300001D01*
G01*
X008375062Y023732003D01*
G01*
X008050126Y023732003D01*
G01*
X008050126Y022267997D01*
G37*
D27*
G36*
X005600000Y018479000D02*
G01*
X005717054Y018490529D01*
G01*
X005829610Y018524672D01*
G01*
X005933342Y018580118D01*
G01*
X006024264Y018654736D01*
G01*
X006098882Y018745658D01*
G01*
X006154328Y018849390D01*
G01*
X006188471Y018961946D01*
G01*
X006200000Y019079000D01*
G01*
X006192858Y019151508D01*
G01*
X006591350Y019550000D01*
G01*
X006599977Y019550000D01*
G01*
X006599977Y019250001D01*
G01*
X007999975Y019250001D01*
G01*
X007999975Y020749999D01*
G01*
X006599977Y020749999D01*
G01*
X006599977Y020450000D01*
G01*
X006404954Y020450000D01*
G01*
X006317164Y020441353D01*
G01*
X006232747Y020415746D01*
G01*
X006154948Y020374161D01*
G01*
X006086756Y020318198D01*
G01*
X005415600Y019647042D01*
G01*
X005370390Y019633328D01*
G01*
X005266658Y019577882D01*
G01*
X005175736Y019503264D01*
G01*
X005101118Y019412342D01*
G01*
X005045672Y019308610D01*
G01*
X005011529Y019196054D01*
G01*
X005000000Y019079000D01*
G01*
X005011529Y018961946D01*
G01*
X005045672Y018849390D01*
G01*
X005101118Y018745658D01*
G01*
X005175736Y018654736D01*
G01*
X005266658Y018580118D01*
G01*
X005370390Y018524672D01*
G01*
X005482946Y018490529D01*
G01*
X005600000Y018479000D01*
G37*
D27*
G36*
X-05456602Y018267997D02*
G01*
X-04050126Y018267997D01*
G01*
X-04050126Y019732003D01*
G01*
X-05456602Y019732003D01*
G01*
X-05456602Y019375000D01*
G01*
X-05535306Y019375000D01*
G01*
X-05575736Y019424264D01*
G01*
X-05666658Y019498882D01*
G01*
X-05770390Y019554328D01*
G01*
X-05882946Y019588471D01*
G01*
X-06000000Y019600000D01*
G01*
X-06117054Y019588471D01*
G01*
X-06229610Y019554328D01*
G01*
X-06333342Y019498882D01*
G01*
X-06424264Y019424264D01*
G01*
X-06498882Y019333342D01*
G01*
X-06554328Y019229610D01*
G01*
X-06588471Y019117054D01*
G01*
X-06600000Y019000000D01*
G01*
X-06588471Y018882946D01*
G01*
X-06554328Y018770390D01*
G01*
X-06498882Y018666658D01*
G01*
X-06424264Y018575736D01*
G01*
X-06333342Y018501118D01*
G01*
X-06229610Y018445672D01*
G01*
X-06117054Y018411529D01*
G01*
X-06000000Y018400000D01*
G01*
X-05882946Y018411529D01*
G01*
X-05770390Y018445672D01*
G01*
X-05666658Y018501118D01*
G01*
X-05575736Y018575736D01*
G01*
X-05535306Y018625000D01*
G01*
X-05456602Y018625000D01*
G01*
X-05456602Y018267997D01*
G37*
D27*
G36*
X011600130Y016249999D02*
G01*
X012800128Y016249999D01*
G01*
X012800128Y018400009D01*
G01*
X012575129Y018400009D01*
G01*
X012575129Y018535306D01*
G01*
X012624393Y018575736D01*
G01*
X012699011Y018666658D01*
G01*
X012754457Y018770390D01*
G01*
X012788600Y018882946D01*
G01*
X012800129Y019000000D01*
G01*
X012788600Y019117054D01*
G01*
X012754457Y019229610D01*
G01*
X012699011Y019333342D01*
G01*
X012624393Y019424264D01*
G01*
X012533471Y019498882D01*
G01*
X012429739Y019554328D01*
G01*
X012317183Y019588471D01*
G01*
X012200129Y019600000D01*
G01*
X012083075Y019588471D01*
G01*
X011970519Y019554328D01*
G01*
X011866787Y019498882D01*
G01*
X011775865Y019424264D01*
G01*
X011701247Y019333342D01*
G01*
X011645801Y019229610D01*
G01*
X011611658Y019117054D01*
G01*
X011600129Y019000000D01*
G01*
X011611658Y018882946D01*
G01*
X011645801Y018770390D01*
G01*
X011701247Y018666658D01*
G01*
X011775865Y018575736D01*
G01*
X011825129Y018535306D01*
G01*
X011825129Y018400009D01*
G01*
X011600130Y018400009D01*
G01*
X011600130Y016249999D01*
G37*
D27*
G36*
X013600126Y016249999D02*
G01*
X014800124Y016249999D01*
G01*
X014800124Y018400009D01*
G01*
X014575125Y018400009D01*
G01*
X014575125Y018535306D01*
G01*
X014624389Y018575736D01*
G01*
X014699007Y018666658D01*
G01*
X014754453Y018770390D01*
G01*
X014788596Y018882946D01*
G01*
X014800125Y019000000D01*
G01*
X014788596Y019117054D01*
G01*
X014754453Y019229610D01*
G01*
X014699007Y019333342D01*
G01*
X014624389Y019424264D01*
G01*
X014533467Y019498882D01*
G01*
X014429735Y019554328D01*
G01*
X014317179Y019588471D01*
G01*
X014200125Y019600000D01*
G01*
X014083071Y019588471D01*
G01*
X013970515Y019554328D01*
G01*
X013866783Y019498882D01*
G01*
X013775861Y019424264D01*
G01*
X013701243Y019333342D01*
G01*
X013645797Y019229610D01*
G01*
X013611654Y019117054D01*
G01*
X013600125Y019000000D01*
G01*
X013611654Y018882946D01*
G01*
X013645797Y018770390D01*
G01*
X013701243Y018666658D01*
G01*
X013775861Y018575736D01*
G01*
X013825125Y018535306D01*
G01*
X013825125Y018400009D01*
G01*
X013600126Y018400009D01*
G01*
X013600126Y016249999D01*
G37*
D27*
G36*
X008134907Y014183000D02*
G01*
X008251961Y014194529D01*
G01*
X008364517Y014228672D01*
G01*
X008468249Y014284118D01*
G01*
X008559171Y014358736D01*
G01*
X008633789Y014449658D01*
G01*
X008689235Y014553390D01*
G01*
X008723378Y014665946D01*
G01*
X008734907Y014783000D01*
G01*
X008723378Y014900054D01*
G01*
X008689235Y015012610D01*
G01*
X008633789Y015116342D01*
G01*
X008559171Y015207264D01*
G01*
X008468249Y015281882D01*
G01*
X008364517Y015337328D01*
G01*
X008251961Y015371471D01*
G01*
X008134907Y015383000D01*
G01*
X008017853Y015371471D01*
G01*
X007905297Y015337328D01*
G01*
X007801565Y015281882D01*
G01*
X007771751Y015257415D01*
G01*
X004388838Y015179723D01*
G01*
X004357084Y015218415D01*
G01*
X004266162Y015293033D01*
G01*
X004162430Y015348479D01*
G01*
X004049874Y015382622D01*
G01*
X003932819Y015394151D01*
G01*
X003815765Y015382622D01*
G01*
X003703209Y015348479D01*
G01*
X003599477Y015293033D01*
G01*
X003508555Y015218415D01*
G01*
X003433938Y015127493D01*
G01*
X003378492Y015023761D01*
G01*
X003344348Y014911205D01*
G01*
X003332819Y014794151D01*
G01*
X003344348Y014677097D01*
G01*
X003378492Y014564541D01*
G01*
X003433938Y014460809D01*
G01*
X003508555Y014369887D01*
G01*
X003599477Y014295269D01*
G01*
X003703209Y014239823D01*
G01*
X003815765Y014205680D01*
G01*
X003932819Y014194151D01*
G01*
X004049874Y014205680D01*
G01*
X004162430Y014239823D01*
G01*
X004266162Y014295269D01*
G01*
X004357084Y014369887D01*
G01*
X004406357Y014429928D01*
G01*
X007607278Y014503440D01*
G01*
X007636025Y014449658D01*
G01*
X007710643Y014358736D01*
G01*
X007801565Y014284118D01*
G01*
X007905297Y014228672D01*
G01*
X008017853Y014194529D01*
G01*
X008134907Y014183000D01*
G37*
D27*
G36*
X-12000000Y003049872D02*
G01*
X-11157478Y003049872D01*
G01*
X-11069687Y003058519D01*
G01*
X-11065243Y003059867D01*
G01*
X-10524979Y003059867D01*
G01*
X-10524979Y003559993D01*
G01*
X-10524979Y004440003D01*
G01*
X-10757478Y004440003D01*
G01*
X-10757478Y004479057D01*
G01*
X-10742156Y004625000D01*
G01*
X-09226678Y004625000D01*
G01*
X-09217522Y004607557D01*
G01*
X-09217522Y004440003D01*
G01*
X-09475021Y004440003D01*
G01*
X-09475021Y003559993D01*
G01*
X-08210023Y003559993D01*
G01*
X-08210023Y004440003D01*
G01*
X-08467522Y004440003D01*
G01*
X-08467522Y004700000D01*
G01*
X-08474728Y004773159D01*
G01*
X-08496067Y004843506D01*
G01*
X-08512078Y004873460D01*
G01*
X-08510488Y004874294D01*
G01*
X-08667966Y005174294D01*
G01*
X-08669556Y005173460D01*
G01*
X-08688199Y005208339D01*
G01*
X-08734835Y005265165D01*
G01*
X-08791661Y005311801D01*
G01*
X-08856494Y005346455D01*
G01*
X-08926841Y005367794D01*
G01*
X-09000000Y005375000D01*
G01*
X-09994996Y005375000D01*
G01*
X-09994996Y006975005D01*
G01*
X-10399998Y006975005D01*
G01*
X-10399998Y007524995D01*
G01*
X-09994996Y007524995D01*
G01*
X-09994996Y009475005D01*
G01*
X-12005000Y009475005D01*
G01*
X-12005000Y007524995D01*
G01*
X-11599998Y007524995D01*
G01*
X-11599998Y006975005D01*
G01*
X-12005000Y006975005D01*
G01*
X-12005000Y006052254D01*
G01*
X-12129301Y005927953D01*
G01*
X-12182165Y005922746D01*
G01*
X-12294721Y005888603D01*
G01*
X-12398453Y005833157D01*
G01*
X-12489375Y005758539D01*
G01*
X-12563992Y005667617D01*
G01*
X-12619438Y005563885D01*
G01*
X-12653582Y005451329D01*
G01*
X-12665111Y005334275D01*
G01*
X-12661736Y005300009D01*
G01*
X-15660005Y005300009D01*
G01*
X-15660005Y003400011D01*
G01*
X-12523944Y003400011D01*
G01*
X-12327715Y003191484D01*
G01*
X-12326888Y003192262D01*
G01*
X-12318198Y003181674D01*
G01*
X-12250007Y003125711D01*
G01*
X-12172208Y003084126D01*
G01*
X-12087791Y003058519D01*
G01*
X-12000000Y003049872D01*
G37*
D27*
G36*
X016000000Y002150068D02*
G01*
X016117054Y002161597D01*
G01*
X016229610Y002195740D01*
G01*
X016333342Y002251186D01*
G01*
X016424264Y002325804D01*
G01*
X016443978Y002349826D01*
G01*
X016443978Y002150069D01*
G01*
X018567978Y002150069D01*
G01*
X018567978Y003350067D01*
G01*
X016443978Y003350067D01*
G01*
X016443978Y003150310D01*
G01*
X016424264Y003174332D01*
G01*
X016333342Y003248950D01*
G01*
X016229610Y003304396D01*
G01*
X016117054Y003338539D01*
G01*
X016000000Y003350068D01*
G01*
X015882946Y003338539D01*
G01*
X015770390Y003304396D01*
G01*
X015666658Y003248950D01*
G01*
X015575736Y003174332D01*
G01*
X015501118Y003083410D01*
G01*
X015445672Y002979678D01*
G01*
X015411529Y002867122D01*
G01*
X015400000Y002750068D01*
G01*
X015411529Y002633014D01*
G01*
X015445672Y002520458D01*
G01*
X015501118Y002416726D01*
G01*
X015575736Y002325804D01*
G01*
X015666658Y002251186D01*
G01*
X015770390Y002195740D01*
G01*
X015882946Y002161597D01*
G01*
X016000000Y002150068D01*
G37*
D27*
G36*
X000199999Y-03924950D02*
G01*
X001799997Y-03924950D01*
G01*
X001799997Y-01824953D01*
G01*
X000199999Y-01824953D01*
G01*
X000199999Y-03924950D01*
G37*
D27*
G36*
X002199995Y-03924950D02*
G01*
X003799993Y-03924950D01*
G01*
X003799993Y-01824953D01*
G01*
X002199995Y-01824953D01*
G01*
X002199995Y-03924950D01*
G37*
D27*
G36*
X004199991Y-03924950D02*
G01*
X005799989Y-03924950D01*
G01*
X005799989Y-01824953D01*
G01*
X004199991Y-01824953D01*
G01*
X004199991Y-03924950D01*
G37*
D27*
G36*
X-16456602Y-05732003D02*
G01*
X-15050126Y-05732003D01*
G01*
X-15050126Y-04267997D01*
G01*
X-16456602Y-04267997D01*
G01*
X-16456602Y-04625000D01*
G01*
X-17549939Y-04625000D01*
G01*
X-17549939Y-04300001D01*
G01*
X-18949937Y-04300001D01*
G01*
X-18949937Y-05699999D01*
G01*
X-17549939Y-05699999D01*
G01*
X-17549939Y-05375000D01*
G01*
X-16456602Y-05375000D01*
G01*
X-16456602Y-05732003D01*
G37*
D27*
G36*
X-08800046Y-07175071D02*
G01*
X-06700049Y-07175071D01*
G01*
X-06700049Y-05575073D01*
G01*
X-08800046Y-05575073D01*
G01*
X-08800046Y-07175071D01*
G37*
D27*
G36*
X-08800046Y-09175067D02*
G01*
X-06700049Y-09175067D01*
G01*
X-06700049Y-07575069D01*
G01*
X-08800046Y-07575069D01*
G01*
X-08800046Y-09175067D01*
G37*
D27*
G36*
X-08800046Y-13175059D02*
G01*
X-06700049Y-13175059D01*
G01*
X-06700049Y-11575061D01*
G01*
X-08800046Y-11575061D01*
G01*
X-08800046Y-13175059D01*
G37*
%LPD*%
D27*
G36*
X-05799997Y001625006D02*
G01*
X-04263294Y001625006D01*
G01*
X-04347015Y002348255D01*
G01*
X-04344927Y002348497D01*
G01*
X-04350000Y002400000D01*
G01*
X-04341353Y002487791D01*
G01*
X-04315746Y002572208D01*
G01*
X-04274161Y002650007D01*
G01*
X-04218198Y002718198D01*
G01*
X-04188212Y002742807D01*
G01*
X-04187902Y002823774D01*
G01*
X-04186775Y003117767D01*
G01*
X-04185648Y003411760D01*
G01*
X-04184522Y003705752D01*
G01*
X-04183395Y003999745D01*
G01*
X-04182268Y004293738D01*
G01*
X-04181142Y004587730D01*
G01*
X-04180975Y004587729D01*
G01*
X-04172498Y004673797D01*
G01*
X-04146891Y004758213D01*
G01*
X-04105306Y004836013D01*
G01*
X-04049343Y004904204D01*
G01*
X-04047237Y004905932D01*
G01*
X-04047419Y004906116D01*
G01*
X-03842970Y005108115D01*
G01*
X-03681150Y005267997D01*
G01*
X-04449874Y005267997D01*
G01*
X-04449874Y006732003D01*
G01*
X-03775000Y006732003D01*
G01*
X-03775000Y006735306D01*
G01*
X-03824264Y006775736D01*
G01*
X-03898882Y006866658D01*
G01*
X-03954328Y006970390D01*
G01*
X-03969912Y007021763D01*
G01*
X-04021828Y006979156D01*
G01*
X-04125560Y006923710D01*
G01*
X-04238116Y006889567D01*
G01*
X-04355170Y006878038D01*
G01*
X-04472224Y006889567D01*
G01*
X-04584780Y006923710D01*
G01*
X-04688512Y006979156D01*
G01*
X-04779434Y007053774D01*
G01*
X-04854052Y007144696D01*
G01*
X-04856174Y007148665D01*
G01*
X-04880736Y007118736D01*
G01*
X-04971658Y007044118D01*
G01*
X-05075390Y006988672D01*
G01*
X-05187946Y006954529D01*
G01*
X-05259631Y006947469D01*
G01*
X-05395642Y006809222D01*
G01*
X-05601353Y006600131D01*
G01*
X-05807064Y006391039D01*
G01*
X-05881741Y006315135D01*
G01*
X-05880737Y006212998D01*
G01*
X-05877897Y005924030D01*
G01*
X-05875057Y005635063D01*
G01*
X-05872216Y005346096D01*
G01*
X-05869376Y005057129D01*
G01*
X-05866536Y004768161D01*
G01*
X-05864083Y004518695D01*
G01*
X-05707676Y003682761D01*
G01*
X-05708143Y003682674D01*
G01*
X-05700000Y003600000D01*
G01*
X-05708647Y003512209D01*
G01*
X-05716496Y003486334D01*
G01*
X-05714714Y003485867D01*
G01*
X-05864186Y002915802D01*
G01*
X-05865968Y002916269D01*
G01*
X-05883726Y002857728D01*
G01*
X-05920260Y002789379D01*
G01*
X-05919480Y002788884D01*
G01*
X-05970540Y002708392D01*
G01*
X-05971320Y002708887D01*
G01*
X-05976371Y002699437D01*
G01*
X-06032335Y002631245D01*
G01*
X-06194701Y002468879D01*
G01*
X-06250001Y002413579D01*
G01*
X-06250001Y001599977D01*
G01*
X-06535346Y001599977D01*
G01*
X-06533455Y001509045D01*
G01*
X-06527907Y001242283D01*
G01*
X-06522360Y000975521D01*
G01*
X-06520194Y000871362D01*
G01*
X-06518342Y000872882D01*
G01*
X-06414610Y000928328D01*
G01*
X-06302054Y000962471D01*
G01*
X-06185000Y000974000D01*
G01*
X-06067946Y000962471D01*
G01*
X-05955390Y000928328D01*
G01*
X-05851658Y000872882D01*
G01*
X-05799997Y000830485D01*
G01*
X-05799997Y001625006D01*
G37*
D27*
G36*
X-01119746Y000486278D02*
G01*
X-01119334Y000484651D01*
G01*
X-01097167Y000491376D01*
G01*
X-01009376Y000500022D01*
G01*
X-01009372Y000500022D01*
G01*
X-00724997Y000500020D01*
G01*
X-00440636Y000500017D01*
G01*
X-00440626Y000500018D01*
G01*
X-00440616Y000500017D01*
G01*
X-00156247Y000500015D01*
G01*
X000128128Y000500012D01*
G01*
X000412503Y000500010D01*
G01*
X000696879Y000500007D01*
G01*
X000981254Y000500005D01*
G01*
X001265615Y000500002D01*
G01*
X001265625Y000500003D01*
G01*
X001265635Y000500002D01*
G01*
X001363605Y000500001D01*
G01*
X001438945Y000575341D01*
G01*
X001646088Y000782484D01*
G01*
X001853231Y000989627D01*
G01*
X001913604Y001050000D01*
G01*
X001456602Y001050000D01*
G01*
X001456602Y000767997D01*
G01*
X000050126Y000767997D01*
G01*
X000050126Y002232003D01*
G01*
X001456602Y002232003D01*
G01*
X001456602Y001950000D01*
G01*
X002607095Y001950000D01*
G01*
X002666658Y001998882D01*
G01*
X002770390Y002054328D01*
G01*
X002882946Y002088471D01*
G01*
X003000000Y002100000D01*
G01*
X003117054Y002088471D01*
G01*
X003229610Y002054328D01*
G01*
X003333342Y001998882D01*
G01*
X003424264Y001924264D01*
G01*
X003498882Y001833342D01*
G01*
X003554328Y001729610D01*
G01*
X003588471Y001617054D01*
G01*
X003589392Y001607698D01*
G01*
X003850965Y001869271D01*
G01*
X003452239Y002267997D01*
G01*
X002543398Y002267997D01*
G01*
X002543398Y002625000D01*
G01*
X002464694Y002625000D01*
G01*
X002424264Y002575736D01*
G01*
X002333342Y002501118D01*
G01*
X002229610Y002445672D01*
G01*
X002117054Y002411529D01*
G01*
X002000000Y002400000D01*
G01*
X001882946Y002411529D01*
G01*
X001770390Y002445672D01*
G01*
X001666658Y002501118D01*
G01*
X001575736Y002575736D01*
G01*
X001501118Y002666658D01*
G01*
X001445672Y002770390D01*
G01*
X001411529Y002882946D01*
G01*
X001400000Y003000000D01*
G01*
X001411529Y003117054D01*
G01*
X001445672Y003229610D01*
G01*
X001501118Y003333342D01*
G01*
X001575736Y003424264D01*
G01*
X001666658Y003498882D01*
G01*
X001770390Y003554328D01*
G01*
X001882946Y003588471D01*
G01*
X002000000Y003600000D01*
G01*
X002117054Y003588471D01*
G01*
X002229610Y003554328D01*
G01*
X002333342Y003498882D01*
G01*
X002424264Y003424264D01*
G01*
X002464694Y003375000D01*
G01*
X002543398Y003375000D01*
G01*
X002543398Y003732003D01*
G01*
X003949874Y003732003D01*
G01*
X003949874Y002831022D01*
G01*
X004050126Y002730770D01*
G01*
X004050126Y003732003D01*
G01*
X005456602Y003732003D01*
G01*
X005456602Y003367892D01*
G01*
X008425220Y003337804D01*
G01*
X008411527Y003382946D01*
G01*
X008399998Y003500000D01*
G01*
X008411527Y003617054D01*
G01*
X008445670Y003729610D01*
G01*
X008501116Y003833342D01*
G01*
X008575734Y003924264D01*
G01*
X008624998Y003964694D01*
G01*
X008624998Y004425034D01*
G01*
X008199999Y004425034D01*
G01*
X008199999Y005625000D01*
G01*
X007800001Y005625000D01*
G01*
X007800001Y005374994D01*
G01*
X006200003Y005374994D01*
G01*
X006200003Y006446831D01*
G01*
X005121336Y006440632D01*
G01*
X005121335Y006440880D01*
G01*
X005118750Y006440625D01*
G01*
X004856250Y006440625D01*
G01*
X004593750Y006440625D01*
G01*
X004331250Y006440625D01*
G01*
X004243459Y006449272D01*
G01*
X004159042Y006474879D01*
G01*
X004081243Y006516464D01*
G01*
X004013052Y006572427D01*
G01*
X003881802Y006703677D01*
G01*
X003750552Y006834927D01*
G01*
X003694589Y006903118D01*
G01*
X003653004Y006980917D01*
G01*
X003627397Y007065334D01*
G01*
X003618750Y007153125D01*
G01*
X003622437Y007190560D01*
G01*
X003620325Y007190737D01*
G01*
X003647689Y007516981D01*
G01*
X003652417Y007751663D01*
G01*
X003657432Y008000633D01*
G01*
X003661137Y008184578D01*
G01*
X003651020Y008221573D01*
G01*
X003551628Y008387227D01*
G01*
X003420378Y008605977D01*
G01*
X003421764Y008606809D01*
G01*
X003390504Y008665292D01*
G01*
X003371835Y008726837D01*
G01*
X003238586Y008739527D01*
G01*
X003238791Y008741682D01*
G01*
X003193459Y008746147D01*
G01*
X003109042Y008771754D01*
G01*
X003104548Y008774156D01*
G01*
X003104363Y008773724D01*
G01*
X002587915Y008994502D01*
G01*
X002418095Y008990262D01*
G01*
X002150285Y008983575D01*
G01*
X001882474Y008976888D01*
G01*
X001614664Y008970201D01*
G01*
X001499975Y008967337D01*
G01*
X001499975Y007750001D01*
G01*
X000099977Y007750001D01*
G01*
X000099977Y008816688D01*
G01*
X000044013Y008816688D01*
G01*
X-00237023Y008816688D01*
G01*
X-00518059Y008816688D01*
G01*
X-00799095Y008816688D01*
G01*
X-01080131Y008816688D01*
G01*
X-01163884Y008816688D01*
G01*
X-01177792Y008809254D01*
G01*
X-01262209Y008783647D01*
G01*
X-01297979Y008780124D01*
G01*
X-01297736Y008778045D01*
G01*
X-01517660Y008752329D01*
G01*
X-01701101Y008711002D01*
G01*
X-01701315Y008711952D01*
G01*
X-01712209Y008708647D01*
G01*
X-01800000Y008700000D01*
G01*
X-01810441Y008701028D01*
G01*
X-01810462Y008700122D01*
G01*
X-01938634Y008703103D01*
G01*
X-02491004Y008638512D01*
G01*
X-02589777Y008544029D01*
G01*
X-02797539Y008345290D01*
G01*
X-03005301Y008146552D01*
G01*
X-03213063Y007947813D01*
G01*
X-03370613Y007797106D01*
G01*
X-03282946Y007788471D01*
G01*
X-03170390Y007754328D01*
G01*
X-03066658Y007698882D01*
G01*
X-02975736Y007624264D01*
G01*
X-02901118Y007533342D01*
G01*
X-02845672Y007429610D01*
G01*
X-02811529Y007317054D01*
G01*
X-02800000Y007200000D01*
G01*
X-02811529Y007082946D01*
G01*
X-02845672Y006970390D01*
G01*
X-02901118Y006866658D01*
G01*
X-02975736Y006775736D01*
G01*
X-03025000Y006735306D01*
G01*
X-03025000Y006546636D01*
G01*
X-03032206Y006473477D01*
G01*
X-03043398Y006436581D01*
G01*
X-03043398Y005898105D01*
G01*
X-03025173Y005916112D01*
G01*
X-02895659Y006044073D01*
G01*
X-02888471Y006117054D01*
G01*
X-02854328Y006229610D01*
G01*
X-02798882Y006333342D01*
G01*
X-02724264Y006424264D01*
G01*
X-02633342Y006498882D01*
G01*
X-02529610Y006554328D01*
G01*
X-02417054Y006588471D01*
G01*
X-02300000Y006600000D01*
G01*
X-02182946Y006588471D01*
G01*
X-02070390Y006554328D01*
G01*
X-01966658Y006498882D01*
G01*
X-01875736Y006424264D01*
G01*
X-01835258Y006374941D01*
G01*
X-01705255Y006374924D01*
G01*
X-01936577Y006606247D01*
G01*
X-02000000Y006600000D01*
G01*
X-02117054Y006611529D01*
G01*
X-02229610Y006645672D01*
G01*
X-02333342Y006701118D01*
G01*
X-02424264Y006775736D01*
G01*
X-02498882Y006866658D01*
G01*
X-02554328Y006970390D01*
G01*
X-02588471Y007082946D01*
G01*
X-02600000Y007200000D01*
G01*
X-02588471Y007317054D01*
G01*
X-02554328Y007429610D01*
G01*
X-02498882Y007533342D01*
G01*
X-02424264Y007624264D01*
G01*
X-02333342Y007698882D01*
G01*
X-02229610Y007754328D01*
G01*
X-02117054Y007788471D01*
G01*
X-02000000Y007800000D01*
G01*
X-01882946Y007788471D01*
G01*
X-01770390Y007754328D01*
G01*
X-01666658Y007698882D01*
G01*
X-01575736Y007624264D01*
G01*
X-01527280Y007565221D01*
G01*
X-01180080Y007567123D01*
G01*
X-01180079Y007566926D01*
G01*
X-01178026Y007567128D01*
G01*
X-01104867Y007559923D01*
G01*
X-01034519Y007538583D01*
G01*
X-00969687Y007503929D01*
G01*
X-00917006Y007460695D01*
G01*
X-00916666Y007461045D01*
G01*
X-00390844Y006949999D01*
G01*
X-00149986Y006949999D01*
G01*
X-00149986Y006715910D01*
G01*
X000149986Y006424367D01*
G01*
X000149986Y006449873D01*
G01*
X001349985Y006449873D01*
G01*
X001349985Y006374879D01*
G01*
X001835258Y006374941D01*
G01*
X001875736Y006424264D01*
G01*
X001966658Y006498882D01*
G01*
X002070390Y006554328D01*
G01*
X002182946Y006588471D01*
G01*
X002300000Y006600000D01*
G01*
X002417054Y006588471D01*
G01*
X002529610Y006554328D01*
G01*
X002633342Y006498882D01*
G01*
X002724264Y006424264D01*
G01*
X002764694Y006375000D01*
G01*
X003246636Y006375000D01*
G01*
X003319795Y006367794D01*
G01*
X003390142Y006346455D01*
G01*
X003454975Y006311801D01*
G01*
X003511801Y006265165D01*
G01*
X003544963Y006232003D01*
G01*
X004449874Y006232003D01*
G01*
X004449874Y004767997D01*
G01*
X003043398Y004767997D01*
G01*
X003043398Y005625000D01*
G01*
X002764694Y005625000D01*
G01*
X002724264Y005575736D01*
G01*
X002633342Y005501118D01*
G01*
X002529610Y005445672D01*
G01*
X002417054Y005411529D01*
G01*
X002300000Y005400000D01*
G01*
X002182946Y005411529D01*
G01*
X002070390Y005445672D01*
G01*
X001966658Y005501118D01*
G01*
X001875736Y005575736D01*
G01*
X001835354Y005624941D01*
G01*
X001705406Y005624924D01*
G01*
X001936577Y005393753D01*
G01*
X002000000Y005400000D01*
G01*
X002117054Y005388471D01*
G01*
X002229610Y005354328D01*
G01*
X002333342Y005298882D01*
G01*
X002424264Y005224264D01*
G01*
X002498882Y005133342D01*
G01*
X002554328Y005029610D01*
G01*
X002588471Y004917054D01*
G01*
X002600000Y004800000D01*
G01*
X002588471Y004682946D01*
G01*
X002554328Y004570390D01*
G01*
X002498882Y004466658D01*
G01*
X002424264Y004375736D01*
G01*
X002333342Y004301118D01*
G01*
X002229610Y004245672D01*
G01*
X002117054Y004211529D01*
G01*
X002000000Y004200000D01*
G01*
X001882946Y004211529D01*
G01*
X001770390Y004245672D01*
G01*
X001666658Y004301118D01*
G01*
X001575736Y004375736D01*
G01*
X001501118Y004466658D01*
G01*
X001445672Y004570390D01*
G01*
X001411529Y004682946D01*
G01*
X001400000Y004800000D01*
G01*
X001406247Y004863424D01*
G01*
X001219670Y005050001D01*
G01*
X000149986Y005050001D01*
G01*
X000149986Y005572039D01*
G01*
X-00149986Y005286271D01*
G01*
X-00149986Y005050001D01*
G01*
X-00397999Y005050001D01*
G01*
X-00954109Y004520222D01*
G01*
X-00954649Y004520789D01*
G01*
X-01004429Y004479936D01*
G01*
X-01069262Y004445283D01*
G01*
X-01139609Y004423943D01*
G01*
X-01212768Y004416737D01*
G01*
X-01216700Y004417124D01*
G01*
X-01216704Y004416758D01*
G01*
X-01539291Y004420144D01*
G01*
X-01575736Y004375736D01*
G01*
X-01666658Y004301118D01*
G01*
X-01770390Y004245672D01*
G01*
X-01882946Y004211529D01*
G01*
X-02000000Y004200000D01*
G01*
X-02117054Y004211529D01*
G01*
X-02229610Y004245672D01*
G01*
X-02333342Y004301118D01*
G01*
X-02424264Y004375736D01*
G01*
X-02498882Y004466658D01*
G01*
X-02554328Y004570390D01*
G01*
X-02588471Y004682946D01*
G01*
X-02600000Y004800000D01*
G01*
X-02588471Y004917054D01*
G01*
X-02554328Y005029610D01*
G01*
X-02498882Y005133342D01*
G01*
X-02424264Y005224264D01*
G01*
X-02333342Y005298882D01*
G01*
X-02229610Y005354328D01*
G01*
X-02117054Y005388471D01*
G01*
X-02000000Y005400000D01*
G01*
X-01936577Y005393753D01*
G01*
X-01705406Y005624924D01*
G01*
X-01835354Y005624941D01*
G01*
X-01875736Y005575736D01*
G01*
X-01966658Y005501118D01*
G01*
X-02070390Y005445672D01*
G01*
X-02182946Y005411529D01*
G01*
X-02263357Y005403609D01*
G01*
X-02392624Y005275891D01*
G01*
X-02597074Y005073892D01*
G01*
X-02801523Y004871893D01*
G01*
X-03005972Y004669894D01*
G01*
X-03210421Y004467895D01*
G01*
X-03281865Y004397308D01*
G01*
X-03282275Y004290289D01*
G01*
X-03283402Y003996296D01*
G01*
X-03284528Y003702303D01*
G01*
X-03285655Y003408310D01*
G01*
X-03286782Y003114318D01*
G01*
X-03287908Y002820325D01*
G01*
X-03289035Y002526332D01*
G01*
X-03289202Y002526333D01*
G01*
X-03297678Y002440266D01*
G01*
X-03323286Y002355849D01*
G01*
X-03364870Y002278050D01*
G01*
X-03420834Y002209859D01*
G01*
X-03424625Y002206748D01*
G01*
X-03297650Y001109838D01*
G01*
X-03299738Y001109596D01*
G01*
X-03294665Y001058093D01*
G01*
X-03294835Y001056370D01*
G01*
X-03294669Y001056369D01*
G01*
X-03295055Y000955546D01*
G01*
X-03248136Y000910623D01*
G01*
X-03061688Y000732107D01*
G01*
X-03002092Y000675046D01*
G01*
X-02200003Y000675046D01*
G01*
X-02200003Y000448809D01*
G01*
X-01786180Y000317674D01*
G01*
X-01119746Y000486278D01*
G37*
D27*
G36*
X011325000Y008344670D02*
G01*
X010934835Y008734835D01*
G01*
X010888199Y008791661D01*
G01*
X010853545Y008856494D01*
G01*
X010832206Y008926841D01*
G01*
X010825000Y009000000D01*
G01*
X010825000Y009267997D01*
G01*
X010475000Y009267997D01*
G01*
X010475000Y008224694D01*
G01*
X010524264Y008184264D01*
G01*
X010598882Y008093342D01*
G01*
X010654328Y007989610D01*
G01*
X010688471Y007877054D01*
G01*
X010700000Y007760000D01*
G01*
X010688471Y007642946D01*
G01*
X010654328Y007530390D01*
G01*
X010598882Y007426658D01*
G01*
X010524264Y007335736D01*
G01*
X010433342Y007261118D01*
G01*
X010329610Y007205672D01*
G01*
X010217054Y007171529D01*
G01*
X010100000Y007160000D01*
G01*
X009982946Y007171529D01*
G01*
X009870390Y007205672D01*
G01*
X009766658Y007261118D01*
G01*
X009675736Y007335736D01*
G01*
X009601118Y007426658D01*
G01*
X009545672Y007530390D01*
G01*
X009511529Y007642946D01*
G01*
X009500000Y007760000D01*
G01*
X009511529Y007877054D01*
G01*
X009545672Y007989610D01*
G01*
X009601118Y008093342D01*
G01*
X009675736Y008184264D01*
G01*
X009725000Y008224694D01*
G01*
X009725000Y009267997D01*
G01*
X009550126Y009267997D01*
G01*
X009550126Y010732003D01*
G01*
X010825000Y010732003D01*
G01*
X010825000Y012625000D01*
G01*
X009456602Y012625000D01*
G01*
X009456602Y011267997D01*
G01*
X009203364Y011267997D01*
G01*
X009203364Y010732003D01*
G01*
X009449874Y010732003D01*
G01*
X009449874Y009267997D01*
G01*
X008651263Y009267997D01*
G01*
X008579947Y009196641D01*
G01*
X008550000Y009166677D01*
G01*
X008550000Y009081973D01*
G01*
X008550000Y008810947D01*
G01*
X008550000Y008539920D01*
G01*
X008550000Y008268894D01*
G01*
X008541353Y008181103D01*
G01*
X008515746Y008096686D01*
G01*
X008474161Y008018887D01*
G01*
X008419724Y007952554D01*
G01*
X008419887Y007952393D01*
G01*
X008235046Y007765575D01*
G01*
X008050205Y007578756D01*
G01*
X007865364Y007391938D01*
G01*
X007680523Y007205119D01*
G01*
X007495682Y007018301D01*
G01*
X007310841Y006831482D01*
G01*
X007131973Y006650701D01*
G01*
X007108400Y006625006D01*
G01*
X007800001Y006625006D01*
G01*
X007800001Y006375000D01*
G01*
X011325000Y006375000D01*
G01*
X011325000Y008344670D01*
G37*
D27*
G36*
X000770000Y013470000D02*
G01*
X-00770000Y013470000D01*
G01*
X-00770000Y012530000D01*
G01*
X000770000Y012530000D01*
G01*
X000770000Y013470000D01*
G37*
D27*
G36*
X-09400000Y003360000D02*
G01*
X-08510000Y003360000D01*
G01*
X-08510000Y003640000D01*
G01*
X-09400000Y003640000D01*
G01*
X-09400000Y004000000D01*
G01*
X-10600000Y004000000D01*
G01*
X-10600000Y003140000D01*
G01*
X-11490000Y003140000D01*
G01*
X-11490000Y002860000D01*
G01*
X-10600000Y002860000D01*
G01*
X-10600000Y002000000D01*
G01*
X-09400000Y002000000D01*
G01*
X-09400000Y003360000D01*
G37*
%ADD67C,0.999998*%
D67*
X-04319905Y022960177D03*
X-04319905Y022960177D02*
X-04319905Y022160178D01*
X-04319905Y022160178D03*
D67*
X004319905Y022960177D03*
X004319905Y022960177D02*
X004319905Y022160178D01*
X004319905Y022160178D03*
D67*
X004319905Y027160168D03*
X004319905Y027160168D02*
X004319905Y025960171D01*
X004319905Y025960171D03*
D67*
X-04319905Y027160168D03*
X-04319905Y027160168D02*
X-04319905Y025960171D01*
X-04319905Y025960171D03*
D25*
X003200019Y021960229D03*
D25*
X002399919Y021960229D03*
D26*
X001749933Y021960229D03*
D26*
X001249807Y021960229D03*
D26*
X000749935Y021960229D03*
D26*
X000249809Y021960229D03*
D26*
X-00250063Y021960229D03*
D26*
X-00750189Y021960229D03*
D26*
X-01250061Y021960229D03*
D26*
X-01750187Y021960229D03*
D25*
X-02400173Y021960229D03*
D25*
X-03200019Y021960229D03*
D28*
X000753364Y019000000D03*
D28*
X-00753364Y019000000D03*
D28*
X-03246636Y019000000D03*
D28*
X-04753364Y019000000D03*
D30*
X-00799973Y011949964D03*
D30*
X-00399923Y011950218D03*
D30*
X-00000127Y011950218D03*
D30*
X000399923Y011950218D03*
D30*
X000799973Y011950218D03*
D30*
X000799973Y014050036D03*
D30*
X000399923Y014050036D03*
D30*
X-00000127Y014050036D03*
D30*
X-00399923Y014050036D03*
D30*
X-00799973Y014050036D03*
D31*
X-00000127Y013000000D03*
D28*
X006253364Y009000000D03*
D28*
X004746636Y009000000D03*
D33*
X005200024Y011500000D03*
D33*
X003799976Y011500000D03*
D33*
X008700024Y020000000D03*
D33*
X007299976Y020000000D03*
D28*
X008753364Y023000000D03*
D28*
X007246636Y023000000D03*
D35*
X007249938Y026000000D03*
D35*
X008750062Y026000000D03*
D37*
X-19875015Y014799971D03*
D37*
X-19875015Y011200029D03*
D38*
X-15999991Y012500001D03*
D38*
X-15999991Y013499999D03*
D28*
X-05753364Y016000000D03*
D28*
X-04246636Y016000000D03*
D28*
X001753364Y017000000D03*
D28*
X000246636Y017000000D03*
D39*
X-06499998Y013400000D03*
D39*
X-04500002Y013400000D03*
D33*
X-05700024Y011000000D03*
D33*
X-04299976Y011000000D03*
D41*
X007750048Y-18375048D03*
D41*
X007750048Y-16375052D03*
D41*
X007750048Y-14375056D03*
D41*
X007750048Y-12375060D03*
D41*
X007750048Y-10375064D03*
D41*
X007750048Y-08375068D03*
D41*
X007750048Y-06375072D03*
D41*
X007750048Y-04375076D03*
D42*
X004999990Y-02874952D03*
D42*
X002999994Y-02874952D03*
D42*
X000999998Y-02874952D03*
D42*
X-00999998Y-02874952D03*
D42*
X-02999994Y-02874952D03*
D42*
X-04999990Y-02874952D03*
D41*
X-07750048Y-04375076D03*
D41*
X-07750048Y-06375072D03*
D41*
X-07750048Y-08375068D03*
D41*
X-07750048Y-10375064D03*
D41*
X-07750048Y-12375060D03*
D41*
X-07750048Y-14375056D03*
D41*
X-07750048Y-16375052D03*
D41*
X-07750048Y-18375048D03*
D33*
X011700024Y-08000000D03*
D33*
X010299976Y-08000000D03*
D43*
X012000000Y-03500002D03*
D43*
X012000000Y-05499998D03*
D27*
G36*
X020949973Y-06900105D02*
X021599959Y-06900105D01*
X021599959Y-06900105D01*
X021599959Y-05850120D01*
X021599959Y-05850120D01*
X020299936Y-05850120D01*
X020299936Y-05850120D01*
X020299936Y-06500080D01*
X020299936Y-06500080D01*
X020949947Y-06500080D01*
X020949947Y-06500080D01*
X020949947Y-06900079D01*
X020949947Y-06900079D01*
X020949973Y-06900105D01*
X020949973Y-06900105D01*
G37*
D27*
G36*
X020299936Y-11149880D02*
X021599959Y-11149880D01*
X021599959Y-11149880D01*
X021599959Y-10099895D01*
X021599959Y-10099895D01*
X020949973Y-10099895D01*
X020949973Y-10099895D01*
X020949947Y-10099921D01*
X020949947Y-10099921D01*
X020949947Y-10499920D01*
X020949947Y-10499920D01*
X020299936Y-10499920D01*
X020299936Y-10499920D01*
X020299936Y-11149880D01*
X020299936Y-11149880D01*
G37*
D46*
X019000040Y-10199971D03*
D46*
X019000040Y-06799927D03*
D47*
X015815092Y-03000000D03*
D47*
X020184908Y-03000000D03*
D28*
X-15753364Y-05000000D03*
D28*
X-14246636Y-05000000D03*
D35*
X-19750062Y-05000000D03*
D35*
X-18249938Y-05000000D03*
D49*
X010900157Y014799990D03*
D49*
X015499843Y014800244D03*
D50*
X014200125Y017325004D03*
D50*
X013200127Y017325004D03*
D50*
X012200129Y017325004D03*
D47*
X-21184908Y-09000000D03*
D47*
X-16815092Y-09000000D03*
D47*
X012315092Y011500000D03*
D47*
X016684908Y011500000D03*
D52*
X018606052Y008599942D03*
D52*
X020906022Y008599942D03*
D52*
X020906022Y001400058D03*
D52*
X018606052Y001400058D03*
D54*
X017505978Y007249932D03*
D54*
X017505978Y005750062D03*
D54*
X017505978Y002750068D03*
D28*
X003246636Y003000000D03*
D28*
X004753364Y003000000D03*
D56*
X-03000002Y000050040D03*
D56*
X-03000002Y001949960D03*
D56*
X-04999998Y001000000D03*
D28*
X-00753364Y001500000D03*
D28*
X000753364Y001500000D03*
D58*
X-11157478Y003999998D03*
D58*
X-11157478Y003499872D03*
D58*
X-11157478Y003000000D03*
D58*
X-11157478Y002499874D03*
D58*
X-11157478Y002000002D03*
D58*
X-08842522Y003999998D03*
D58*
X-08842522Y003499872D03*
D58*
X-08842522Y003000000D03*
D58*
X-08842522Y002499874D03*
D58*
X-08842522Y002000002D03*
D59*
X-10000000Y003000000D03*
D60*
X-14000000Y004350010D03*
D60*
X-14000000Y001649990D03*
D39*
X-14999998Y-01000000D03*
D39*
X-13000002Y-01000000D03*
D39*
X-09000002Y008500000D03*
D39*
X-10999998Y008500000D03*
D61*
X-07000000Y003700024D03*
D61*
X-07000000Y002299976D03*
D39*
X-09000002Y000000000D03*
D39*
X-10999998Y000000000D03*
D39*
X-09000002Y006000000D03*
D39*
X-10999998Y006000000D03*
D56*
X-17000002Y-00949960D03*
D56*
X-17000002Y000949960D03*
D56*
X-18999998Y000000000D03*
D33*
X-17299976Y003000000D03*
D33*
X-18700024Y003000000D03*
D63*
X-00749986Y005999873D03*
D63*
X000749986Y005999873D03*
D63*
X000749986Y006499999D03*
D63*
X000749986Y005500001D03*
D63*
X-00749986Y006499999D03*
D63*
X-00749986Y005500001D03*
D33*
X002200024Y008500000D03*
D33*
X000799976Y008500000D03*
D28*
X-05253364Y006000000D03*
D28*
X-03746636Y006000000D03*
D28*
X005253364Y005500000D03*
D28*
X003746636Y005500000D03*
D28*
X010253364Y010000000D03*
D28*
X008746636Y010000000D03*
D28*
X007246636Y012000000D03*
D28*
X008753364Y012000000D03*
D56*
X008999998Y005050040D03*
D56*
X008999998Y006949960D03*
D56*
X007000002Y006000000D03*
D10*
X-03200019Y021960229D02*
X-03200019Y020400000D01*
D10*
X-03200019Y020400000D02*
X-03600000Y020100000D01*
D10*
X-02400173Y021960229D02*
X-02400173Y020400000D01*
D10*
X-02400173Y020400000D02*
X-02000000Y019800000D01*
D10*
X-01750187Y021960229D02*
X-01750187Y020400000D01*
D10*
X-01750187Y020400000D02*
X-00800000Y019900000D01*
D10*
X001249807Y021960229D02*
X001249807Y020400000D01*
D10*
X001249807Y020400000D02*
X000800000Y019900000D01*
D10*
X002399919Y021960229D02*
X002399919Y020400000D01*
D10*
X002399919Y020400000D02*
X002000000Y019800000D01*
D10*
X003200019Y021960229D02*
X003200019Y020400000D01*
D10*
X003200019Y020400000D02*
X003600000Y019800000D01*
D10*
X-04753364Y019000000D02*
X-06000000Y019000000D01*
D10*
X-00753364Y019000000D02*
X-00753364Y019900000D01*
D10*
X-00753364Y019900000D02*
X-00800000Y019900000D01*
D10*
X000753364Y019000000D02*
X001753364Y019000000D01*
D10*
X001753364Y019000000D02*
X001753364Y018200000D01*
D10*
X-03246636Y019000000D02*
X-03246636Y019900000D01*
D10*
X-03246636Y019900000D02*
X-03600000Y020100000D01*
D10*
X-00799973Y011949964D02*
X-00799973Y011200000D01*
D10*
X-00799973Y011200000D02*
X-01999933Y010200000D01*
D10*
X-00399923Y011950218D02*
X-00399923Y011200000D01*
D10*
X-00399923Y011200000D02*
X-00999808Y010200000D01*
D10*
X-00000127Y011950218D02*
X-00000127Y011200000D01*
D10*
X-00000127Y011200000D02*
X-00000317Y010200000D01*
D10*
X000399923Y011950218D02*
X000399923Y011200000D01*
D10*
X000399923Y011200000D02*
X000999808Y010200000D01*
D10*
X000799973Y011950218D02*
X000799973Y011200000D01*
D10*
X000799973Y011200000D02*
X001999933Y010200000D01*
D10*
X000799973Y014050036D02*
X000799973Y014800000D01*
D10*
X000799973Y014800000D02*
X001999933Y015800000D01*
D10*
X000399923Y014050036D02*
X000399923Y014800000D01*
D10*
X000399923Y014800000D02*
X000999808Y015800000D01*
D10*
X-00000127Y014050036D02*
X-00000127Y014800000D01*
D10*
X-00000127Y014800000D02*
X-00000317Y015800000D01*
D10*
X-00799973Y014050036D02*
X-00799973Y014800000D01*
D10*
X-00799973Y014800000D02*
X-01999933Y015800000D01*
D10*
X-00000127Y013000000D02*
X-02500000Y013000000D01*
D10*
X006253364Y009000000D02*
X006253364Y007500000D01*
D10*
X004746636Y009000000D02*
X004746636Y007500000D01*
D10*
X008134907Y014783000D02*
X008324232Y014829768D01*
D10*
X008324232Y014829768D02*
X008306705Y014829768D01*
D10*
X008306705Y014829768D02*
X008243327Y014893146D01*
D10*
X008243327Y014893146D02*
X003932819Y014794151D01*
D10*
X003799976Y011500000D02*
X003800000Y009800000D01*
D10*
X005200024Y011500000D02*
X005200000Y013200000D01*
D10*
X-05753364Y016000000D02*
X-07400000Y016000000D01*
D10*
X000246636Y017000000D02*
X000246636Y017800000D01*
D10*
X001753364Y017000000D02*
X001753364Y018200000D01*
D10*
X-06499998Y013400000D02*
X-08400000Y013400000D01*
D11*
X-07750048Y-04375076D02*
X-09500000Y-04375076D01*
D10*
X010299976Y-08000000D02*
X009200000Y-08000000D01*
D10*
X011700024Y-08000000D02*
X013000000Y-08000000D01*
D10*
X012000000Y-05499998D02*
X010500000Y-05499998D01*
D10*
X012000000Y-03500002D02*
X014000000Y-03500002D01*
D10*
X014200125Y017325004D02*
X014200125Y019000000D01*
D10*
X013200127Y017325004D02*
X013200127Y019000000D01*
D10*
X012200129Y017325004D02*
X012200129Y019000000D01*
D10*
X015499843Y014800244D02*
X017300000Y014800244D01*
D10*
X010900157Y014799990D02*
X009300000Y016000000D01*
D10*
X012315092Y011500000D02*
X012315092Y013300000D01*
D10*
X-03000002Y001949960D02*
X-01500000Y001949960D01*
D10*
X-01500000Y001949960D02*
X-01500000Y003300000D01*
D10*
X-00753364Y001500000D02*
X-00753364Y003300000D01*
D10*
X-00753364Y003300000D02*
X-01500000Y003300000D01*
D12*
X000753364Y001500000D02*
X003000000Y001500000D01*
D10*
X003246636Y003000000D02*
X002000000Y003000000D01*
D10*
X-07000000Y003700024D02*
X-07000000Y005000000D01*
D10*
X-07000000Y005000000D02*
X-07500000Y005000000D01*
D10*
X-07500000Y005000000D02*
X-07500000Y006000000D01*
D12*
X-11157478Y002000002D02*
X-11157478Y001500000D01*
D12*
X-11157478Y001500000D02*
X-10999998Y000000000D01*
D14*
X-11157478Y003999998D02*
X-11157478Y004500000D01*
D14*
X-11157478Y004500000D02*
X-10999998Y006000000D01*
D13*
X-10999998Y006000000D02*
X-10999998Y008500000D01*
D12*
X-11157478Y003499872D02*
X-12000000Y003499872D01*
D12*
X-12000000Y003499872D02*
X-12800000Y004350010D01*
D15*
X-12800000Y004350010D02*
X-14000000Y004350010D01*
D12*
X-11157478Y002499874D02*
X-12000000Y002499874D01*
D12*
X-12000000Y002499874D02*
X-12800000Y001649990D01*
D15*
X-12800000Y001649990D02*
X-14000000Y001649990D01*
D14*
X-08842522Y003000000D02*
X-08000000Y003000000D01*
D14*
X-08000000Y003000000D02*
X-07000000Y002299976D01*
D12*
X-07000000Y002299976D02*
X-07000000Y-01500000D01*
D12*
X-07000000Y-01500000D02*
X-10999998Y-01500000D01*
D12*
X-10999998Y-01500000D02*
X-10999998Y000000000D01*
D11*
X-13000002Y-01000000D02*
X-12000000Y-01000000D01*
D11*
X-12000000Y-01000000D02*
X-10999998Y000000000D01*
D10*
X-08842522Y003999998D02*
X-08842522Y004700000D01*
D10*
X-08842522Y004700000D02*
X-09000000Y005000000D01*
D10*
X-09000000Y005000000D02*
X-10999998Y005000000D01*
D10*
X-10999998Y005000000D02*
X-10999998Y006000000D01*
D14*
X-11157478Y003000000D02*
X-13000000Y003000000D01*
D14*
X-08842522Y003499872D02*
X-08000000Y003499872D01*
D14*
X-08000000Y003499872D02*
X-08000000Y004800000D01*
D10*
X-08842522Y002499874D02*
X-10000000Y002499874D01*
D10*
X-10000000Y002499874D02*
X-10000000Y003000000D01*
D10*
X-10000000Y003000000D02*
X-11157478Y003000000D01*
D10*
X-11157478Y003000000D02*
X-13000000Y003000000D01*
D10*
X-09000002Y000000000D02*
X-07800000Y000000000D01*
D10*
X-09000002Y006000000D02*
X-07500000Y006000000D01*
D10*
X-09000002Y008500000D02*
X-07500000Y008500000D01*
D10*
X-14999998Y-01000000D02*
X-14999998Y-03000000D01*
D12*
X-10000000Y003000000D02*
X-11157478Y003000000D01*
D12*
X-11157478Y003000000D02*
X-13000000Y003000000D01*
D10*
X-08842522Y002000002D02*
X-07900000Y001000000D01*
D12*
X-18999998Y000000000D02*
X-20100000Y000000000D01*
D10*
X-17299976Y003000000D02*
X-16500000Y004500000D01*
D10*
X000749986Y005500001D02*
X001300000Y005500001D01*
D10*
X001300000Y005500001D02*
X002000000Y004800000D01*
D10*
X000749986Y005999873D02*
X001300000Y005999873D01*
D10*
X001300000Y005999873D02*
X002300000Y006000000D01*
D10*
X000749986Y006499999D02*
X001300000Y006499999D01*
D10*
X001300000Y006499999D02*
X002000000Y007200000D01*
D10*
X002000000Y007200000D02*
X003200000Y008400000D01*
D10*
X003200000Y008400000D02*
X003200000Y008500000D01*
D10*
X-00749986Y006499999D02*
X-01300000Y006499999D01*
D10*
X-01300000Y006499999D02*
X-02000000Y007200000D01*
D10*
X-00749986Y005999873D02*
X-01300000Y005999873D01*
D10*
X-01300000Y005999873D02*
X-02300000Y006000000D01*
D10*
X-00749986Y005500001D02*
X-01300000Y005500001D01*
D10*
X-01300000Y005500001D02*
X-02000000Y004800000D01*
D10*
X000799976Y008500000D02*
X000800000Y009400000D01*
D10*
X002200024Y008500000D02*
X003200000Y008500000D01*
D10*
X-05253364Y006000000D02*
X-05253364Y004400000D01*
D10*
X005253364Y005500000D02*
X005253364Y004100000D01*
D10*
X008999998Y005050040D02*
X008999998Y003500000D01*
D10*
X008999998Y006949960D02*
X011000000Y006949960D01*
D12*
X-04500002Y014600000D02*
X-04500002Y013400000D01*
D10*
X007249938Y024000000D02*
X007249938Y026000000D01*
D10*
X017505978Y002750068D02*
X016000000Y002750068D01*
D10*
X-16000000Y-03400000D02*
X-16000000Y000949960D01*
D10*
X-16000000Y000949960D02*
X-17000002Y000949960D01*
D10*
X-07750048Y-16375052D02*
X003066806Y-05558197D01*
D10*
X003066806Y-05558197D02*
X004769371Y-05558197D01*
D10*
X004769371Y-05558197D02*
X004941803Y-05558197D01*
D10*
X004941803Y-05558197D02*
X004958000Y-05542000D01*
D10*
X-04246636Y017400000D02*
X-04246636Y016000000D01*
D10*
X-07750048Y-10375064D02*
X-19809936Y-10375064D01*
D10*
X-19809936Y-10375064D02*
X-21184908Y-09000000D01*
D10*
X-03400000Y007200000D02*
X-03400000Y006546636D01*
D10*
X-03400000Y006546636D02*
X-03746636Y006000000D01*
D10*
X007246636Y012000000D02*
X008000000Y013000000D01*
D10*
X008000000Y013000000D02*
X011200000Y013000000D01*
D10*
X011200000Y013000000D02*
X011200000Y009000000D01*
D10*
X011200000Y009000000D02*
X011700000Y008500000D01*
D10*
X011700000Y008500000D02*
X011700000Y006000000D01*
D10*
X011700000Y006000000D02*
X007000002Y006000000D01*
D10*
X006100000Y010500000D02*
X007246636Y012000000D01*
D10*
X-02000000Y007200000D02*
X-01987693Y007187693D01*
D10*
X-01987693Y007187693D02*
X-01178026Y007192128D01*
D10*
X-01178026Y007192128D02*
X-00080883Y006125817D01*
D10*
X-00080883Y006125817D02*
X-00065539Y005884647D01*
D10*
X-00065539Y005884647D02*
X-01212768Y004791737D01*
D10*
X-01212768Y004791737D02*
X-02000000Y004800000D01*
D10*
X010253364Y010000000D02*
X010100000Y009847000D01*
D10*
X010100000Y009847000D02*
X010100000Y007760000D01*
D10*
X002300000Y006000000D02*
X003246636Y006000000D01*
D10*
X003246636Y006000000D02*
X003746636Y005500000D01*
D10*
X-04999998Y001000000D02*
X-05626000Y000374000D01*
D10*
X-05626000Y000374000D02*
X-06185000Y000374000D01*
D10*
X002000000Y003000000D02*
X003250566Y003000000D01*
D10*
X003250566Y003000000D02*
X004381295Y001869271D01*
D10*
X004381295Y001869271D02*
X001312404Y-01199621D01*
D10*
X001312404Y-01199621D02*
X-03067953Y-01199621D01*
D10*
X-03067953Y-01199621D02*
X-04999998Y000732424D01*
D10*
X-04999998Y000732424D02*
X-04999998Y001000000D01*
D10*
X017505978Y005750062D02*
X014755445Y002898626D01*
D10*
X014755445Y002898626D02*
X004753364Y003000000D01*
D10*
X-15753364Y-05000000D02*
X-15753000Y-05000000D01*
D10*
X-15753000Y-05000000D02*
X-18249938Y-05000000D01*
D10*
X-07750048Y-18375048D02*
X-07748856Y-18375048D01*
D10*
X-07748856Y-18375048D02*
X-01385808Y-12012000D01*
D10*
X-01385808Y-12012000D02*
X-01385808Y-11989808D01*
D10*
X-01385808Y-11989808D02*
X-01286000Y-11890000D01*
D10*
X-00999998Y-02874952D02*
X-02215025Y-04080907D01*
D10*
X-02215025Y-04080907D02*
X-04996626Y-04088435D01*
D10*
X-04996626Y-04088435D02*
X-06020178Y-05115471D01*
D10*
X-06020178Y-05115471D02*
X-14044852Y-05114186D01*
D10*
X-14044852Y-05114186D02*
X-14133474Y-05113526D01*
D10*
X-14133474Y-05113526D02*
X-14246636Y-05000000D01*
D10*
X007750048Y-06375072D02*
X009740768Y-04445003D01*
D10*
X009740768Y-04445003D02*
X014425166Y-04445003D01*
D10*
X014425166Y-04445003D02*
X014430648Y-04384352D01*
D10*
X014430648Y-04384352D02*
X015815092Y-03000000D01*
D10*
X007750048Y-08375068D02*
X009325116Y-06800000D01*
D10*
X009325116Y-06800000D02*
X019000040Y-06799927D01*
D10*
X007750048Y-14375056D02*
X007750048Y-14125034D01*
D10*
X007750048Y-14125034D02*
X006689646Y-13064632D01*
D10*
X006689646Y-13064632D02*
X006358908Y-13051588D01*
D10*
X008753364Y023000000D02*
X008750062Y023002938D01*
D10*
X008750062Y023002938D02*
X008750062Y026000000D01*
D10*
X-06643660Y012059350D02*
X-04931534Y011594740D01*
D10*
X-04931534Y011594740D02*
X-04299976Y011000000D01*
D10*
X000800000Y019900000D02*
X001250000Y020350000D01*
D10*
X001250000Y020350000D02*
X001293982Y022517048D01*
D10*
X001293982Y022517048D02*
X-00128466Y023867557D01*
D10*
X-00128466Y023867557D02*
X-03456497Y023894692D01*
D10*
X-10999998Y006000000D02*
X-10999998Y006093750D01*
D10*
X-10999998Y006093750D02*
X-10999998Y006187500D01*
D10*
X-10999998Y006187500D02*
X-10999998Y006281250D01*
D10*
X-10999998Y006281250D02*
X-10999998Y006375000D01*
D10*
X-10999998Y006375000D02*
X-10999998Y006468750D01*
D10*
X-10999998Y006468750D02*
X-10999998Y006562500D01*
D10*
X-10999998Y006562500D02*
X-10999998Y006575000D01*
D10*
X-10999998Y006575000D02*
X-10999998Y006656250D01*
D16*
X-10999998Y006656250D02*
X-10999998Y006750000D01*
D17*
X-10999998Y006750000D02*
X-10999998Y008499998D01*
D17*
X-10999998Y008499998D02*
X-11000000Y008500000D01*
D10*
X007750048Y-04375076D02*
X007743960Y-04803924D01*
D10*
X007743960Y-04803924D02*
X006451986Y-06078675D01*
D10*
X006451986Y-06078675D02*
X006466668Y-06309668D01*
D10*
X006466668Y-06309668D02*
X006335050Y-06325000D01*
D10*
X007750048Y-04375076D02*
X007508000Y-04617000D01*
D10*
X007508000Y-04617000D02*
X-02618000Y-04617000D01*
D10*
X-12065111Y005334275D02*
X-12080219Y005488775D01*
D10*
X-12080219Y005488775D02*
X-12038149Y005488775D01*
D10*
X-12038149Y005488775D02*
X-11526924Y006000000D01*
D10*
X-11526924Y006000000D02*
X-10999998Y006000000D01*
D12*
X-20100000Y000000000D02*
X-18700024Y001399976D01*
D12*
X-18700024Y001399976D02*
X-18700024Y003000000D01*
D12*
X-10999998Y000000000D02*
X-10812060Y-00187938D01*
D12*
X-10812060Y-00187938D02*
X-10624121Y-00375877D01*
D12*
X-10624121Y-00375877D02*
X-10436183Y-00563815D01*
D12*
X-10436183Y-00563815D02*
X-10248244Y-00751754D01*
D12*
X-10248244Y-00751754D02*
X-09778125Y-00984375D01*
D12*
X-09778125Y-00984375D02*
X-08100000Y-00975000D01*
D12*
X-08100000Y-00975000D02*
X-08128750Y-00972024D01*
D12*
X-08128750Y-00972024D02*
X-07852813Y-00976642D01*
D12*
X-07852813Y-00976642D02*
X-07672265Y-00801491D01*
D12*
X-07672265Y-00801491D02*
X-07125000Y-00450000D01*
D12*
X-07125000Y-00450000D02*
X-07130620Y-00276036D01*
D12*
X-07130620Y-00276036D02*
X-06950072Y-00100884D01*
D12*
X-06950072Y-00100884D02*
X-06955620Y000165878D01*
D12*
X-06955620Y000165878D02*
X-06961167Y000432640D01*
D12*
X-06961167Y000432640D02*
X-06966715Y000699402D01*
D12*
X-06966715Y000699402D02*
X-06972262Y000966165D01*
D12*
X-06972262Y000966165D02*
X-06977810Y001232927D01*
D12*
X-06977810Y001232927D02*
X-06983357Y001499689D01*
D12*
X-06983357Y001499689D02*
X-06988905Y001766451D01*
D12*
X-06988905Y001766451D02*
X-06994452Y002033214D01*
D12*
X-06994452Y002033214D02*
X-07000000Y002299976D01*
D12*
X-10999998Y000000000D02*
X-11290618Y-00005758D01*
D12*
X-11290618Y-00005758D02*
X-11581238Y-00011516D01*
D12*
X-11581238Y-00011516D02*
X-11871858Y-00017274D01*
D12*
X-11871858Y-00017274D02*
X-12162478Y-00023033D01*
D12*
X-12162478Y-00023033D02*
X-12453098Y-00028791D01*
D12*
X-12453098Y-00028791D02*
X-12743718Y-00034549D01*
D12*
X-12743718Y-00034549D02*
X-13034338Y-00040307D01*
D12*
X-13034338Y-00040307D02*
X-13324958Y-00046065D01*
D12*
X-13324958Y-00046065D02*
X-13615578Y-00051823D01*
D12*
X-13615578Y-00051823D02*
X-14948454Y000145440D01*
D12*
X-14948454Y000145440D02*
X-15118850Y000365736D01*
D12*
X-15118850Y000365736D02*
X-15289245Y000586032D01*
D12*
X-15289245Y000586032D02*
X-15447444Y000463668D01*
D12*
X-16850000Y002100000D02*
X-17111713Y002160904D01*
D12*
X-17111713Y002160904D02*
X-17372813Y002171462D01*
D12*
X-17372813Y002171462D02*
X-17633914Y002182020D01*
D12*
X-17633914Y002182020D02*
X-17895014Y002192577D01*
D12*
X-17895014Y002192577D02*
X-18096266Y002394433D01*
D12*
X-18096266Y002394433D02*
X-18297519Y002596289D01*
D12*
X-18297519Y002596289D02*
X-18498771Y002798144D01*
D12*
X-18498771Y002798144D02*
X-18700024Y003000000D01*
D12*
X-15999991Y012500001D02*
X-16198126Y012287812D01*
D12*
X-16198126Y012287812D02*
X-16396261Y012075623D01*
D12*
X-16396261Y012075623D02*
X-16594396Y011863435D01*
D12*
X-16594396Y011863435D02*
X-16792530Y011651246D01*
D12*
X-16792530Y011651246D02*
X-16990665Y011439057D01*
D12*
X-16990665Y011439057D02*
X-17188800Y011226868D01*
D12*
X-17188800Y011226868D02*
X-17386935Y011014680D01*
D12*
X-17386935Y011014680D02*
X-17585070Y010802491D01*
D12*
X-17585070Y010802491D02*
X-17783204Y010590302D01*
D12*
X-17783204Y010590302D02*
X-17981339Y010378113D01*
D12*
X-17981339Y010378113D02*
X-17987149Y010087737D01*
D12*
X-17987149Y010087737D02*
X-17992959Y009797361D01*
D12*
X-17992959Y009797361D02*
X-17998769Y009506985D01*
D12*
X-17998769Y009506985D02*
X-18004579Y009216609D01*
D12*
X-18004579Y009216609D02*
X-18010389Y008926232D01*
D12*
X-18010389Y008926232D02*
X-18016199Y008635856D01*
D12*
X-18016199Y008635856D02*
X-18022009Y008345480D01*
D12*
X-18022009Y008345480D02*
X-18027818Y008055104D01*
D12*
X-18027818Y008055104D02*
X-18033628Y007764728D01*
D12*
X-18033628Y007764728D02*
X-18039438Y007474351D01*
D12*
X-18039438Y007474351D02*
X-18045248Y007183975D01*
D12*
X-18045248Y007183975D02*
X-18051058Y006893599D01*
D12*
X-18051058Y006893599D02*
X-18056868Y006603223D01*
D12*
X-18056868Y006603223D02*
X-18062678Y006312847D01*
D12*
X-18062678Y006312847D02*
X-18068488Y006022470D01*
D12*
X-18068488Y006022470D02*
X-18074298Y005732094D01*
D12*
X-18074298Y005732094D02*
X-18080108Y005441718D01*
D12*
X-18080108Y005441718D02*
X-18085918Y005151342D01*
D12*
X-18085918Y005151342D02*
X-18091728Y004860966D01*
D12*
X-18091728Y004860966D02*
X-18097538Y004570589D01*
D12*
X-18097538Y004570589D02*
X-18103348Y004280213D01*
D12*
X-18103348Y004280213D02*
X-18109157Y003989837D01*
D12*
X-18109157Y003989837D02*
X-18114967Y003699461D01*
D12*
X-18114967Y003699461D02*
X-18121748Y003578276D01*
D12*
X-18121748Y003578276D02*
X-18314507Y003385517D01*
D12*
X-18314507Y003385517D02*
X-18507265Y003192759D01*
D12*
X-18507265Y003192759D02*
X-18700024Y003000000D01*
D12*
X-05305000Y007543000D02*
X-05510711Y007333908D01*
D12*
X-05510711Y007333908D02*
X-05716422Y007124817D01*
D12*
X-05716422Y007124817D02*
X-05922134Y006915725D01*
D12*
X-05922134Y006915725D02*
X-06127845Y006706633D01*
D12*
X-06127845Y006706633D02*
X-06333556Y006497542D01*
D12*
X-06333556Y006497542D02*
X-06330716Y006208575D01*
D12*
X-06330716Y006208575D02*
X-06327875Y005919607D01*
D12*
X-06327875Y005919607D02*
X-06325035Y005630640D01*
D12*
X-06325035Y005630640D02*
X-06322195Y005341673D01*
D12*
X-06322195Y005341673D02*
X-06319354Y005052706D01*
D12*
X-06319354Y005052706D02*
X-06316514Y004763738D01*
D12*
X-06316514Y004763738D02*
X-06313674Y004474771D01*
D12*
X-06313674Y004474771D02*
X-06150000Y003600000D01*
D12*
X-06150000Y003600000D02*
X-06299472Y003029935D01*
D12*
X-06299472Y003029935D02*
X-06350533Y002949443D01*
D12*
X-06350533Y002949443D02*
X-06512899Y002787077D01*
D12*
X-06512899Y002787077D02*
X-06675266Y002624710D01*
D12*
X-06675266Y002624710D02*
X-06837633Y002462343D01*
D12*
X-06837633Y002462343D02*
X-07000000Y002299976D01*
D12*
X-00999808Y010200000D02*
X-01191965Y010007843D01*
D12*
X-01191965Y010007843D02*
X-01384122Y009815686D01*
D18*
X-01384122Y009815686D02*
X-01576279Y009623529D01*
D18*
X-01576279Y009623529D02*
X-01848073Y009623529D01*
D18*
X-01848073Y009623529D02*
X-02119868Y009623529D01*
D17*
X-02119868Y009623529D02*
X-02391663Y009623529D01*
D17*
X-02391663Y009623529D02*
X-02663457Y009623529D01*
D19*
X-02663457Y009623529D02*
X-02935252Y009623529D01*
D19*
X-02935252Y009623529D02*
X-03207047Y009623529D01*
D19*
X-03207047Y009623529D02*
X-03207020Y009917141D01*
D19*
X-03207020Y009917141D02*
X-03206993Y010210753D01*
D12*
X-03206993Y010210753D02*
X-03206966Y010504365D01*
D12*
X-03206966Y010504365D02*
X-03206939Y010797978D01*
D12*
X-03206939Y010797978D02*
X-03206912Y011091590D01*
D12*
X-03206912Y011091590D02*
X-03389619Y011290254D01*
D12*
X-03389619Y011290254D02*
X-03750000Y011850000D01*
D12*
X-03750000Y011850000D02*
X-03806250Y011812500D01*
D12*
X-03806250Y011812500D02*
X-04085628Y011832151D01*
D12*
X-04085628Y011832151D02*
X-04365006Y011851802D01*
D12*
X-04365006Y011851802D02*
X-04644385Y011871452D01*
D12*
X-04644385Y011871452D02*
X-04828805Y012043409D01*
D12*
X-04828805Y012043409D02*
X-03450000Y012525000D01*
D12*
X-03450000Y012525000D02*
X-03450000Y014175000D01*
D12*
X-03450000Y014175000D02*
X-03900000Y015075000D01*
D12*
X-03900000Y015075000D02*
X-04050000Y015225000D01*
D12*
X-04050000Y015225000D02*
X-05250000Y015225000D01*
D12*
X-05250000Y015225000D02*
X-06167000Y014792038D01*
D12*
X-06167000Y014792038D02*
X-06370887Y014985007D01*
D12*
X-06370887Y014985007D02*
X-06574774Y015177975D01*
D12*
X-06574774Y015177975D02*
X-06778661Y015370944D01*
D12*
X-06778661Y015370944D02*
X-07072390Y015363003D01*
D12*
X-07072390Y015363003D02*
X-07366119Y015355063D01*
D12*
X-07366119Y015355063D02*
X-07800000Y015300000D01*
D12*
X-07800000Y015300000D02*
X-08100000Y015750000D01*
D12*
X-08100000Y015750000D02*
X-08100000Y016350000D01*
D12*
X-08100000Y016350000D02*
X-07966082Y016480673D01*
D12*
X-07966082Y016480673D02*
X-07963577Y016767624D01*
D12*
X-07963577Y016767624D02*
X-07961072Y017054576D01*
D12*
X-07961072Y017054576D02*
X-07958567Y017341527D01*
D12*
X-07958567Y017341527D02*
X-07956061Y017628479D01*
D12*
X-07956061Y017628479D02*
X-07953556Y017915430D01*
D12*
X-07953556Y017915430D02*
X-07951051Y018202381D01*
D12*
X-07951051Y018202381D02*
X-07948545Y018489333D01*
D12*
X-07948545Y018489333D02*
X-07946040Y018776284D01*
D12*
X-07946040Y018776284D02*
X-07943535Y019063236D01*
D12*
X-07943535Y019063236D02*
X-07941030Y019350187D01*
D12*
X-07941030Y019350187D02*
X-07938524Y019637138D01*
D12*
X-07938524Y019637138D02*
X-07936019Y019924090D01*
D12*
X-07936019Y019924090D02*
X-07933514Y020211041D01*
D12*
X-07933514Y020211041D02*
X-07931008Y020497992D01*
D12*
X-07931008Y020497992D02*
X-07943494Y020625405D01*
D12*
X-07943494Y020625405D02*
X-07733796Y020838696D01*
D12*
X-07733796Y020838696D02*
X-07524097Y021051987D01*
D12*
X-07524097Y021051987D02*
X-07314399Y021265278D01*
D12*
X-07314399Y021265278D02*
X-07104700Y021478568D01*
D12*
X-07104700Y021478568D02*
X-06895001Y021691859D01*
D12*
X-06895001Y021691859D02*
X-06685303Y021905150D01*
D12*
X-06685303Y021905150D02*
X-06475604Y022118441D01*
D12*
X-06475604Y022118441D02*
X-06265906Y022331732D01*
D12*
X-06265906Y022331732D02*
X-06056207Y022545023D01*
D12*
X-06056207Y022545023D02*
X-05846509Y022758314D01*
D12*
X-05846509Y022758314D02*
X-05636810Y022971605D01*
D12*
X-05636810Y022971605D02*
X-05427112Y023184895D01*
D12*
X-05427112Y023184895D02*
X-04950000Y023850000D01*
D12*
X-04950000Y023850000D02*
X-04798016Y023824768D01*
D12*
X-04798016Y023824768D02*
X-04588318Y024038059D01*
D12*
X-04588318Y024038059D02*
X-04378619Y024251350D01*
D12*
X-04378619Y024251350D02*
X-04168920Y024464641D01*
D12*
X-04168920Y024464641D02*
X-02850000Y024600000D01*
D12*
X-02850000Y024600000D02*
X-02698930Y024458073D01*
D12*
X-02698930Y024458073D02*
X-02404932Y024456760D01*
D12*
X-02404932Y024456760D02*
X-02110933Y024455447D01*
D12*
X-02110933Y024455447D02*
X-01816935Y024454133D01*
D12*
X-01816935Y024454133D02*
X-01522937Y024452820D01*
D12*
X-01522937Y024452820D02*
X-01228939Y024451506D01*
D12*
X-01228939Y024451506D02*
X-00934941Y024450193D01*
D12*
X-00934941Y024450193D02*
X-00640943Y024448879D01*
D12*
X-00640943Y024448879D02*
X-00346944Y024447566D01*
D12*
X-00346944Y024447566D02*
X-00052946Y024446252D01*
D12*
X-00052946Y024446252D02*
X000241052Y024444939D01*
D12*
X000241052Y024444939D02*
X000535050Y024443625D01*
D12*
X000535050Y024443625D02*
X000829048Y024442312D01*
D12*
X000829048Y024442312D02*
X001123046Y024440998D01*
D12*
X001123046Y024440998D02*
X001417045Y024439685D01*
D12*
X001417045Y024439685D02*
X001711043Y024438372D01*
D12*
X001711043Y024438372D02*
X002005041Y024437058D01*
D12*
X002005041Y024437058D02*
X002299039Y024435745D01*
D12*
X002299039Y024435745D02*
X002593037Y024434431D01*
D12*
X002593037Y024434431D02*
X002887035Y024433118D01*
D12*
X002887035Y024433118D02*
X003181033Y024431804D01*
D12*
X003181033Y024431804D02*
X003475032Y024430491D01*
D12*
X003475032Y024430491D02*
X003769030Y024429177D01*
D12*
X003769030Y024429177D02*
X004063028Y024427864D01*
D12*
X004063028Y024427864D02*
X004357026Y024426550D01*
D12*
X004357026Y024426550D02*
X004651024Y024425237D01*
D12*
X004651024Y024425237D02*
X004945022Y024423923D01*
D12*
X004945022Y024423923D02*
X005239021Y024422610D01*
D12*
X005239021Y024422610D02*
X005533019Y024421297D01*
D12*
X005533019Y024421297D02*
X005827017Y024419983D01*
D12*
X005827017Y024419983D02*
X006029820Y024217128D01*
D12*
X006029820Y024217128D02*
X006232622Y024014274D01*
D12*
X006232622Y024014274D02*
X006435425Y023811419D01*
D12*
X006435425Y023811419D02*
X006750000Y023400000D01*
D12*
X006750000Y023400000D02*
X006841031Y023405709D01*
D12*
X006841031Y023405709D02*
X007043833Y023202855D01*
D12*
X007043833Y023202855D02*
X007246636Y023000000D01*
D12*
X008746636Y010000000D02*
X008753364Y010006728D01*
D12*
X008753364Y010006728D02*
X008753364Y012000000D01*
D12*
X-04355170Y007478038D02*
X-04147408Y007676777D01*
D12*
X-04147408Y007676777D02*
X-03939646Y007875516D01*
D12*
X-03939646Y007875516D02*
X-03731884Y008074255D01*
D12*
X-03731884Y008074255D02*
X-03524122Y008272994D01*
D12*
X-03524122Y008272994D02*
X-03316360Y008471733D01*
D12*
X-03316360Y008471733D02*
X-03108598Y008670471D01*
D12*
X-03108598Y008670471D02*
X-02900836Y008869210D01*
D12*
X-02900836Y008869210D02*
X-02693074Y009067949D01*
D12*
X-02693074Y009067949D02*
X-01350000Y009225000D01*
D12*
X-01350000Y009225000D02*
X-01361167Y009266688D01*
D12*
X-01361167Y009266688D02*
X-01080131Y009266688D01*
D12*
X-01080131Y009266688D02*
X-00799095Y009266688D01*
D12*
X-00799095Y009266688D02*
X-00518059Y009266688D01*
D12*
X-00518059Y009266688D02*
X-00237023Y009266688D01*
D12*
X-00237023Y009266688D02*
X000044013Y009266688D01*
D12*
X000044013Y009266688D02*
X000325049Y009266688D01*
D12*
X000325049Y009266688D02*
X000606086Y009266688D01*
D12*
X000606086Y009266688D02*
X000666688Y009266688D01*
D12*
X000666688Y009266688D02*
X000800000Y009400000D01*
D12*
X005600000Y019079000D02*
X005623685Y019102685D01*
D12*
X005623685Y019102685D02*
X005623685Y019218731D01*
D12*
X005623685Y019218731D02*
X006404954Y020000000D01*
D12*
X006404954Y020000000D02*
X007299976Y020000000D01*
D12*
X002821602Y016621838D02*
X002651917Y016549529D01*
D12*
X002651917Y016549529D02*
X002482233Y016477221D01*
D20*
X002482233Y016477221D02*
X002468758Y016477221D01*
D21*
X002468758Y016477221D02*
X002327351Y016339995D01*
D21*
X002327351Y016339995D02*
X002278956Y016335713D01*
D21*
X002278956Y016335713D02*
X001990941Y016335611D01*
D21*
X001990941Y016335611D02*
X001702926Y016335509D01*
D21*
X001702926Y016335509D02*
X001414911Y016335407D01*
D21*
X001414911Y016335407D02*
X001126896Y016335305D01*
D21*
X001126896Y016335305D02*
X000838881Y016335203D01*
D21*
X000838881Y016335203D02*
X000550866Y016335101D01*
D21*
X000550866Y016335101D02*
X000262851Y016334999D01*
D21*
X000262851Y016334999D02*
X-00025164Y016334896D01*
D21*
X-00025164Y016334896D02*
X-00313179Y016334794D01*
D21*
X-00313179Y016334794D02*
X-00601194Y016334692D01*
D12*
X-00601194Y016334692D02*
X-00889209Y016334590D01*
D12*
X-00889209Y016334590D02*
X-01177224Y016334488D01*
D12*
X-01177224Y016334488D02*
X-01465239Y016334386D01*
D12*
X-01465239Y016334386D02*
X-01643470Y016156257D01*
D12*
X-01643470Y016156257D02*
X-01821701Y015978129D01*
D12*
X-01821701Y015978129D02*
X-01999933Y015800000D01*
D12*
X-03000002Y000050040D02*
X-03186449Y000228555D01*
D12*
X-03186449Y000228555D02*
X-03372897Y000407070D01*
D12*
X-03372897Y000407070D02*
X-03559344Y000585585D01*
D12*
X-03559344Y000585585D02*
X-03745792Y000764100D01*
D12*
X-03745792Y000764100D02*
X-03744665Y001058093D01*
D12*
X-03744665Y001058093D02*
X-03900000Y002400000D01*
D12*
X-03900000Y002400000D02*
X-03739032Y002528057D01*
D12*
X-03739032Y002528057D02*
X-03737905Y002822050D01*
D12*
X-03737905Y002822050D02*
X-03736778Y003116042D01*
D12*
X-03736778Y003116042D02*
X-03735652Y003410035D01*
D12*
X-03735652Y003410035D02*
X-03734525Y003704028D01*
D12*
X-03734525Y003704028D02*
X-03733398Y003998020D01*
D12*
X-03733398Y003998020D02*
X-03732272Y004292013D01*
D12*
X-03732272Y004292013D02*
X-03731145Y004586006D01*
D12*
X-03731145Y004586006D02*
X-03526696Y004788005D01*
D12*
X-03526696Y004788005D02*
X-03322246Y004990004D01*
D12*
X-03322246Y004990004D02*
X-03117797Y005192003D01*
D12*
X-03117797Y005192003D02*
X-02913348Y005394003D01*
D12*
X-02913348Y005394003D02*
X-02708899Y005596002D01*
D12*
X-02708899Y005596002D02*
X-02504449Y005798001D01*
D12*
X-02504449Y005798001D02*
X-02300000Y006000000D01*
D12*
X-03000002Y000050040D02*
X-02715627Y000050037D01*
D12*
X-02715627Y000050037D02*
X-02431252Y000050035D01*
D12*
X-02431252Y000050035D02*
X-01800000Y-00150000D01*
D12*
X-01800000Y-00150000D02*
X-01009376Y000050023D01*
D12*
X-01009376Y000050023D02*
X-00725001Y000050020D01*
D12*
X-00725001Y000050020D02*
X-00440626Y000050018D01*
D12*
X-00440626Y000050018D02*
X-00156251Y000050015D01*
D12*
X-00156251Y000050015D02*
X000128124Y000050013D01*
D12*
X000128124Y000050013D02*
X000412500Y000050010D01*
D12*
X000412500Y000050010D02*
X000696875Y000050008D01*
D12*
X000696875Y000050008D02*
X000981250Y000050005D01*
D12*
X000981250Y000050005D02*
X001265625Y000050003D01*
D12*
X001265625Y000050003D02*
X001550000Y000050000D01*
D12*
X001550000Y000050000D02*
X001757143Y000257143D01*
D12*
X001757143Y000257143D02*
X001964286Y000464286D01*
D12*
X001964286Y000464286D02*
X002171429Y000671429D01*
D12*
X002171429Y000671429D02*
X002378571Y000878571D01*
D12*
X002378571Y000878571D02*
X002585714Y001085714D01*
D12*
X002585714Y001085714D02*
X002792857Y001292857D01*
D12*
X002792857Y001292857D02*
X003000000Y001500000D01*
D12*
X-08679069Y014601962D02*
X-08846922Y014634078D01*
D12*
X-08846922Y014634078D02*
X-08941107Y014634075D01*
D12*
X-08941107Y014634075D02*
X-08940898Y014344585D01*
D12*
X-08940898Y014344585D02*
X-08940689Y014055095D01*
D12*
X-08940689Y014055095D02*
X-09150000Y013650000D01*
D12*
X-09150000Y013650000D02*
X-08939643Y012607646D01*
D12*
X-08939643Y012607646D02*
X-08939434Y012318157D01*
D12*
X-08939434Y012318157D02*
X-08939225Y012028667D01*
D12*
X-08939225Y012028667D02*
X-08939016Y011739177D01*
D12*
X-08939016Y011739177D02*
X-08938807Y011449687D01*
D12*
X-08938807Y011449687D02*
X-08741080Y011252654D01*
D12*
X-08741080Y011252654D02*
X-08543353Y011055620D01*
D12*
X-08543353Y011055620D02*
X-08345626Y010858586D01*
D12*
X-08345626Y010858586D02*
X-08147899Y010661553D01*
D12*
X-08147899Y010661553D02*
X-07950173Y010464519D01*
D12*
X-07950173Y010464519D02*
X-07752446Y010267485D01*
D12*
X-07752446Y010267485D02*
X-07554719Y010070452D01*
D12*
X-07554719Y010070452D02*
X-07356992Y009873418D01*
D12*
X-07356992Y009873418D02*
X-07159265Y009676384D01*
D12*
X-07159265Y009676384D02*
X-06961538Y009479351D01*
D12*
X-06961538Y009479351D02*
X-06763812Y009282317D01*
D12*
X-06763812Y009282317D02*
X-06465966Y009282317D01*
D12*
X-06465966Y009282317D02*
X-06168121Y009282317D01*
D12*
X-06168121Y009282317D02*
X-05870276Y009282317D01*
D12*
X-05870276Y009282317D02*
X-05572431Y009282317D01*
D12*
X-05572431Y009282317D02*
X-05274586Y009282317D01*
D12*
X-05274586Y009282317D02*
X-04976741Y009282317D01*
D12*
X-04976741Y009282317D02*
X-04678896Y009282317D01*
D12*
X-04678896Y009282317D02*
X-04381051Y009282317D01*
D12*
X-04381051Y009282317D02*
X-04083205Y009282317D01*
D12*
X-04083205Y009282317D02*
X-03785360Y009282317D01*
D12*
X-03785360Y009282317D02*
X-03487515Y009282317D01*
D12*
X-03487515Y009282317D02*
X-03375000Y009225000D01*
D12*
X-03375000Y009225000D02*
X-03412500Y009187500D01*
D12*
X-03412500Y009187500D02*
X-01800000Y009150000D01*
D12*
X-01800000Y009150000D02*
X-01339877Y009253658D01*
D12*
X-01339877Y009253658D02*
X-01104754Y009282317D01*
D12*
X-01104754Y009282317D02*
X-00806909Y009282317D01*
D12*
X-00806909Y009282317D02*
X-00509064Y009282317D01*
D12*
X-00509064Y009282317D02*
X-00211219Y009282317D01*
D12*
X-00211219Y009282317D02*
X000086627Y009282317D01*
D12*
X000086627Y009282317D02*
X000384472Y009282317D01*
D12*
X000384472Y009282317D02*
X000682317Y009282317D01*
D12*
X000682317Y009282317D02*
X000800000Y009400000D01*
D12*
X000800000Y009400000D02*
X001067810Y009406687D01*
D12*
X001067810Y009406687D02*
X001335621Y009413374D01*
D12*
X001335621Y009413374D02*
X001603431Y009420061D01*
D12*
X001603431Y009420061D02*
X001871242Y009426748D01*
D12*
X001871242Y009426748D02*
X002139052Y009433435D01*
D12*
X002139052Y009433435D02*
X002406863Y009440122D01*
D12*
X002406863Y009440122D02*
X002674673Y009446809D01*
D12*
X002674673Y009446809D02*
X003281250Y009187500D01*
D12*
X003281250Y009187500D02*
X003675000Y009150000D01*
D12*
X003675000Y009150000D02*
X003825000Y008850000D01*
D12*
X003825000Y008850000D02*
X003806250Y008837500D01*
D12*
X003806250Y008837500D02*
X003937500Y008618750D01*
D12*
X003937500Y008618750D02*
X004068750Y008400000D01*
D12*
X004068750Y008400000D02*
X004112356Y008240541D01*
D12*
X004112356Y008240541D02*
X004107340Y007991571D01*
D12*
X004107340Y007991571D02*
X004102325Y007742600D01*
D12*
X004102325Y007742600D02*
X004097310Y007493630D01*
D12*
X004097310Y007493630D02*
X004068750Y007153125D01*
D12*
X004068750Y007153125D02*
X004200000Y007021875D01*
D12*
X004200000Y007021875D02*
X004331250Y006890625D01*
D12*
X004331250Y006890625D02*
X004593750Y006890625D01*
D12*
X004593750Y006890625D02*
X004856250Y006890625D01*
D12*
X004856250Y006890625D02*
X005118750Y006890625D01*
D12*
X005118750Y006890625D02*
X006750000Y006900000D01*
D12*
X006750000Y006900000D02*
X006806114Y006961164D01*
D12*
X006806114Y006961164D02*
X006990955Y007147983D01*
D12*
X006990955Y007147983D02*
X007175795Y007334801D01*
D12*
X007175795Y007334801D02*
X007360636Y007521620D01*
D12*
X007360636Y007521620D02*
X007545477Y007708438D01*
D12*
X007545477Y007708438D02*
X007730318Y007895257D01*
D12*
X007730318Y007895257D02*
X007915159Y008082075D01*
D12*
X007915159Y008082075D02*
X008100000Y008268894D01*
D12*
X008100000Y008268894D02*
X008100000Y008539920D01*
D12*
X008100000Y008539920D02*
X008100000Y008810947D01*
D12*
X008100000Y008810947D02*
X008100000Y009081973D01*
D12*
X008100000Y009081973D02*
X008100000Y009353000D01*
D12*
X008100000Y009353000D02*
X008261659Y009514750D01*
D12*
X008261659Y009514750D02*
X008423318Y009676500D01*
D12*
X008423318Y009676500D02*
X008584977Y009838250D01*
D12*
X008584977Y009838250D02*
X008746636Y010000000D01*
D10*
X019000040Y-10199971D02*
X020525031Y-10199971D01*
D10*
X020525031Y-10199971D02*
X020949947Y-10624888D01*
D10*
X003600000Y019800000D02*
X003353364Y019800000D01*
D10*
X003353364Y019800000D02*
X001753364Y018200000D01*
D10*
X-16740000Y-01656000D02*
X-16663000Y-01287000D01*
D10*
X-16663000Y-01287000D02*
X-17000002Y-00949960D01*
D10*
X-05700024Y011000000D02*
X-06364142Y011000000D01*
D10*
X-06364142Y011000000D02*
X-06500225Y010863917D01*
D10*
X-06500225Y010863917D02*
X-06452972Y010816664D01*
D10*
X003330000Y023053000D02*
X003407338Y022975662D01*
D10*
X003407338Y022975662D02*
X003420717Y022975662D01*
D10*
X003420717Y022975662D02*
X003600000Y022796378D01*
D10*
X003600000Y022796378D02*
X003600000Y019800000D01*
D10*
X003200000Y008500000D02*
X003200000Y007260000D01*
D10*
X003200000Y007260000D02*
X003399088Y007060912D01*
D10*
X003399088Y007060912D02*
X003486000Y006960002D01*
D10*
X005879000Y022999000D02*
X005951016Y022926984D01*
D10*
X005951016Y022926984D02*
X008700024Y020177976D01*
D10*
X008700024Y020177976D02*
X008700024Y020000000D01*
D10*
X017300000Y014800000D02*
X016684908Y014184908D01*
D10*
X016684908Y014184908D02*
X016684908Y011500000D01*
D10*
X020949947Y-06375112D02*
X020184908Y-05610073D01*
D10*
X020184908Y-05610073D02*
X020184908Y-03000000D01*
D10*
X-19875015Y011200029D02*
X-19875015Y014799971D01*
D10*
X-08400000Y013400000D02*
X-08442260Y013108241D01*
D10*
X-08442260Y013108241D02*
X-06331879Y010918405D01*
D10*
X-06331879Y010918405D02*
X-05700024Y011000000D01*
D10*
X017505978Y007249932D02*
X018855942Y008599942D01*
D10*
X018855942Y008599942D02*
X020906022Y008599942D01*
D10*
X-01500000Y003300000D02*
X-01800000Y003000000D01*
D10*
X-01800000Y003000000D02*
X-01800000Y000600000D01*
D10*
X008700024Y020000000D02*
X009300000Y019400024D01*
D10*
X009300000Y019400024D02*
X009300000Y016000000D01*
D10*
X-15999991Y013499999D02*
X-18574999Y013499999D01*
D10*
X-18574999Y013499999D02*
X-19875015Y014799971D01*
D10*
X020949947Y-10624888D02*
X021199947Y-06625112D01*
D10*
X021199947Y-06625112D02*
X020949947Y-06375112D01*
D10*
X016684908Y011500000D02*
X017505978Y010679022D01*
D10*
X017505978Y010679022D02*
X017505978Y007249932D01*
D10*
X004712066Y010360000D02*
X005200000Y011550000D01*
D10*
X005200000Y011550000D02*
X005200000Y013200000D01*
D10*
X008700024Y020000000D02*
X012200000Y020000000D01*
D10*
X012200000Y020000000D02*
X013200000Y019000000D01*
D10*
X-09500000Y-04375076D02*
X-07221562Y-02096638D01*
D10*
X-07221562Y-02096638D02*
X-06991058Y-02315000D01*
D10*
X-19750062Y-05000000D02*
X-17000002Y-02250002D01*
D10*
X-17000002Y-02250002D02*
X-17000002Y-00949960D01*
D10*
X-19750062Y-05000000D02*
X-19750062Y-06064938D01*
D10*
X-19750062Y-06064938D02*
X-16815092Y-09000000D01*
D10*
X006260000Y015592183D02*
X008858000Y015558000D01*
D10*
X008858000Y015558000D02*
X009300000Y016000000D01*
D10*
X001999933Y010200000D02*
X001697000Y010502933D01*
D10*
X001697000Y010502933D02*
X001703815Y011330503D01*
D10*
X001703815Y011330503D02*
X000031746Y013011029D01*
D10*
X000031746Y013011029D02*
X-02500000Y013000000D01*
D10*
X-17000002Y-00949960D02*
X-18001000Y000051038D01*
D10*
X-18001000Y000051038D02*
X-18001000Y000885319D01*
D10*
X-18001000Y000885319D02*
X-18165001Y001020000D01*
D10*
X013802000Y-10316000D02*
X013872723Y-10386723D01*
D10*
X013872723Y-10386723D02*
X014059475Y-10199971D01*
D10*
X014059475Y-10199971D02*
X019000040Y-10199971D01*
D10*
X-19875015Y011200029D02*
X-19733806Y011200029D01*
D10*
X-19733806Y011200029D02*
X-18773063Y010239285D01*
D10*
X-18773063Y010239285D02*
X-18766285Y010239285D01*
D10*
X-18766285Y010239285D02*
X-18745190Y010071137D01*
D10*
X020184908Y-03000000D02*
X018501407Y-01316407D01*
D10*
X018501407Y-01316407D02*
X018505265Y-01197673D01*
D10*
X018505265Y-01197673D02*
X018510805Y006254501D01*
D10*
X018510805Y006254501D02*
X017505978Y007249932D01*
D13*
X-03600000Y020100000D03*
D13*
X-02000000Y019800000D03*
D13*
X-00800000Y019900000D03*
D13*
X000800000Y019900000D03*
D13*
X002000000Y019800000D03*
D13*
X003600000Y019800000D03*
D13*
X-06000000Y019000000D03*
D13*
X-01999933Y010200000D03*
D13*
X-00999808Y010200000D03*
D13*
X-00000317Y010200000D03*
D13*
X000999808Y010200000D03*
D13*
X001999933Y010200000D03*
D13*
X001999933Y015800000D03*
D13*
X000999808Y015800000D03*
D13*
X-00000317Y015800000D03*
D13*
X-01999933Y015800000D03*
D13*
X-02500000Y013000000D03*
D13*
X006253364Y007500000D03*
D13*
X004746636Y007500000D03*
D13*
X008134907Y014783000D03*
D13*
X003932819Y014794151D03*
D13*
X003800000Y009800000D03*
D13*
X005200000Y013200000D03*
D13*
X-07400000Y016000000D03*
D13*
X000246636Y017800000D03*
D13*
X001753364Y018200000D03*
D13*
X-08400000Y013400000D03*
D13*
X-09500000Y-04375076D03*
D13*
X009200000Y-08000000D03*
D13*
X013000000Y-08000000D03*
D13*
X010500000Y-05499998D03*
D13*
X014000000Y-03500002D03*
D13*
X014200125Y019000000D03*
D13*
X013200127Y019000000D03*
D13*
X012200129Y019000000D03*
D13*
X017300000Y014800244D03*
D13*
X009300000Y016000000D03*
D13*
X012315092Y013300000D03*
D13*
X-01500000Y003300000D03*
D13*
X003000000Y001500000D03*
D13*
X002000000Y003000000D03*
D13*
X-07500000Y006000000D03*
D13*
X-13000000Y003000000D03*
D13*
X-08000000Y004800000D03*
D13*
X-07800000Y000000000D03*
D13*
X-07500000Y008500000D03*
D13*
X-14999998Y-03000000D03*
D13*
X-07900000Y001000000D03*
D13*
X-20100000Y000000000D03*
D13*
X-16500000Y004500000D03*
D13*
X002000000Y004800000D03*
D13*
X002300000Y006000000D03*
D13*
X-02000000Y007200000D03*
D13*
X-02300000Y006000000D03*
D13*
X-02000000Y004800000D03*
D13*
X000800000Y009400000D03*
D13*
X003200000Y008500000D03*
D13*
X-05253364Y004400000D03*
D13*
X005253364Y004100000D03*
D13*
X008999998Y003500000D03*
D13*
X011000000Y006949960D03*
D13*
X-04500002Y014600000D03*
D13*
X007249938Y024000000D03*
D13*
X016000000Y002750068D03*
D13*
X-16000000Y-03400000D03*
D13*
X004958000Y-05542000D03*
D13*
X-04246636Y017400000D03*
D13*
X-03400000Y007200000D03*
D13*
X006100000Y010500000D03*
D13*
X010100000Y007760000D03*
D13*
X-06185000Y000374000D03*
D13*
X-01286000Y-11890000D03*
D13*
X006358908Y-13051588D03*
D13*
X-06643660Y012059350D03*
D13*
X-03456497Y023894692D03*
D13*
X006335050Y-06325000D03*
D13*
X-02618000Y-04617000D03*
D13*
X-12065111Y005334275D03*
D13*
X-15447444Y000463668D03*
D13*
X-16850000Y002100000D03*
D13*
X-05305000Y007543000D03*
D13*
X-04355170Y007478038D03*
D13*
X005600000Y019079000D03*
D13*
X002821602Y016621838D03*
D13*
X-08679069Y014601962D03*
D13*
X-16740000Y-01656000D03*
D13*
X-06452972Y010816664D03*
D13*
X003330000Y023053000D03*
D13*
X003486000Y006960002D03*
D13*
X005879000Y022999000D03*
D13*
X-01800000Y000600000D03*
D13*
X004712066Y010360000D03*
D13*
X-06991058Y-02315000D03*
D13*
X006260000Y015592183D03*
D13*
X-18165001Y001020000D03*
D13*
X013802000Y-10316000D03*
D13*
X-18745190Y010071137D03*
%LPC*%
D45*
X020300012Y-09349833D03*
%LPD*%
%LPC*%
D45*
X020300012Y-07649811D03*
%LPD*%
%LPC*%
D51*
X019756164Y003500130D03*
%LPD*%
%LPC*%
D51*
X019756164Y006500124D03*
%LPD*%
%LPC*%
D65*
X-19000000Y025000000D03*
%LPD*%
%LPC*%
D65*
X019000000Y025000000D03*
%LPD*%
%LPC*%
D65*
X-19000000Y-14000000D03*
%LPD*%
%LPC*%
D65*
X019000000Y-14000000D03*
%LPD*%
M02*