%TF.GenerationSoftware,tscircuit,circuit-json-to-gerber,0.0.109*%
%TF.CreationDate,2026-10-07T11:35:21.831Z*%
%TF.SameCoordinates,Original*%
%TF.FileFunction,Copper,L1,Top*%
%TF.FilePolarity,Positive*%
%FSLAX46Y46*%
%MOMM*%
G04 Gerber Fmt 4.6, Leading zero omitted, Abs format (unit mm)*
G04 Created by tscircuit (builder) date 2026-10-07T11:35:21.831Z*
G01*
%LPD*%
G75*
G04 APERTURE MACROS START*
%AMHORZPILL*
0 Horizontal pill (stadium) shape macro*
0 Parameters:*
0 $1 = Total width*
0 $2 = Total height*
0 $3 = Circle diameter (equal to height)*
0 $4 = Circle center offset
0 21 = Center Line(Exposure, Width, Height, Center X, Center Y, Rotation)*
0 1 = Circle(Exposure, Diameter, Center X, Center Y, Rotation)*
21,1,$1-$3,$2,0.0,0.0,0.0*
1,1,$3,0.0-$4,0.0*
1,1,$3,$4,0.0*%
%AMVERTPILL*
0 Vertical pill (stadium) shape macro*
0 Parameters:*
0 $1 = Total width*
0 $2 = Total height*
0 $3 = Circle diameter (equal to width)*
0 $4 = Circle center offset
0 21 = Center Line(Exposure, Width, Height, Center X, Center Y, Rotation)*
21,1,$1,$2-$3,0.0,0.0,0.0*
1,1,$3,0.0,0.0-$4*
1,1,$3,0.0,$4*%
%AMROUNDRECT*
0 Rectangle with rounded corners*
0 $1 Corner radius*
0 $2 $3 $4 $5 $6 $7 $8 $9 X,Y Position of each corner*
0 Polygon box body*
4,1,4,$2,$3,$4,$5,$6,$7,$8,$9,$2,$3,0*
0 Circles for rounded corners*
1,1,$1+$1,$2,$3*
1,1,$1+$1,$4,$5*
1,1,$1+$1,$6,$7*
1,1,$1+$1,$8,$9*
0 Rectangles between the rounded corners*
20,1,$1+$1,$2,$3,$4,$5,0*
20,1,$1+$1,$4,$5,$6,$7,0*
20,1,$1+$1,$6,$7,$8,$9,0*
20,1,$1+$1,$8,$9,$2,$3,0*%
G04 APERTURE MACROS END*
G04 aperture START LIST*
%ADD10C,0.150000*%
%ADD11C,0.500000*%
%ADD12C,0.300000*%
%ADD13C,0.600000*%
%ADD14C,0.200000*%
%ADD15C,0.400000*%
%ADD16C,0.196429*%
%ADD17C,0.250000*%
%ADD18C,0.237500*%
%ADD19C,0.162000*%
%ADD20VERTPILL,0.999998X1.799996X0.999998X0.399999*%
%ADD21VERTPILL,0.999998X2.199996X0.999998X0.599999*%
%ADD22R,0.599999X1.199998*%
%ADD23R,0.299999X1.199998*%
%ADD24C,0.001000*%
%ADD25R,0.806475X0.864006*%
%ADD26R,0.564533X0.604804*%
%ADD27R,0.200000X0.499999*%
%ADD28R,1.499997X0.899998*%
%ADD29R,1.299997X0.699998*%
%ADD30R,0.799998X0.899998*%
%ADD31R,0.559999X0.629999*%
%ADD32R,0.799998X0.799998*%
%ADD33R,0.559999X0.559999*%
%ADD34R,1.799996X1.199998*%
%ADD35R,1.550010X0.599999*%
%ADD36R,1.410005X1.350010*%
%ADD37R,0.987003X0.945007*%
%ADD38R,1.499997X0.999998*%
%ADD39R,0.999998X1.499997*%
%ADD40R,1.350010X1.410005*%
%ADD41R,0.945007X0.987003*%
%ADD42C,0.700024*%
%ADD43R,1.199998X0.599999*%
%ADD44R,1.229995X1.859991*%
%ADD45R,0.860996X1.301994*%
%ADD46R,1.199998X1.799996*%
%ADD47R,0.599999X1.550010*%
%ADD48C,0.900024*%
%ADD49R,0.699999X1.199998*%
%ADD50R,0.489999X0.839998*%
%ADD51R,1.524000X0.599999*%
%ADD52R,1.066800X0.419999*%
%ADD53R,0.999998X0.650011*%
%ADD54R,0.699999X0.455008*%
%ADD55R,0.664997X0.280010*%
%ADD56R,1.199998X1.999996*%
%ADD57R,2.720010X1.299997*%
%ADD58R,0.899998X0.799998*%
%ADD59R,0.629999X0.559999*%
%ADD60R,0.599999X0.299999*%
%ADD61R,0.419999X0.210000*%
%ADD62C,2.200000*%
%ADD63C,0.450000*%
%TD*%
G04 aperture END LIST*
D24*
G36*
X-08800046Y-17575049D02*
G01*
X-06700049Y-17575049D01*
G01*
X-06700049Y-18000048D01*
G01*
X-06319929Y-18000048D01*
G01*
X003780729Y-07899390D01*
G01*
X003787813Y-07827463D01*
G01*
X003817688Y-07728976D01*
G01*
X003866203Y-07638211D01*
G01*
X003931494Y-07558654D01*
G01*
X004011051Y-07493363D01*
G01*
X004101816Y-07444848D01*
G01*
X004200303Y-07414973D01*
G01*
X004302725Y-07404885D01*
G01*
X004405147Y-07414973D01*
G01*
X004503634Y-07444848D01*
G01*
X004594399Y-07493363D01*
G01*
X004673956Y-07558654D01*
G01*
X004739246Y-07638211D01*
G01*
X004787762Y-07728976D01*
G01*
X004817637Y-07827463D01*
G01*
X004827725Y-07929885D01*
G01*
X004817637Y-08032307D01*
G01*
X004787762Y-08130794D01*
G01*
X004739246Y-08221559D01*
G01*
X004673956Y-08301116D01*
G01*
X004594399Y-08366407D01*
G01*
X004503634Y-08414922D01*
G01*
X004405147Y-08444797D01*
G01*
X004302725Y-08454885D01*
G01*
X004287403Y-08453376D01*
G01*
X-05899434Y-18640213D01*
G01*
X-05956260Y-18686849D01*
G01*
X-05980863Y-18700000D01*
G01*
X006700049Y-18700000D01*
G01*
X006700049Y-17575049D01*
G01*
X008800046Y-17575049D01*
G01*
X008800046Y-18700000D01*
G01*
X020700000Y-18700000D01*
G01*
X020700000Y-15800000D01*
G01*
X017200000Y-15800000D01*
G01*
X017200000Y-12200000D01*
G01*
X020700000Y-12200000D01*
G01*
X020700000Y-09858406D01*
G01*
X020661139Y-09890298D01*
G01*
X020548761Y-09950366D01*
G01*
X020426823Y-09987355D01*
G01*
X020300012Y-09999845D01*
G01*
X020173201Y-09987355D01*
G01*
X020051263Y-09950366D01*
G01*
X019938885Y-09890298D01*
G01*
X019840384Y-09809461D01*
G01*
X019759547Y-09710961D01*
G01*
X019699479Y-09598582D01*
G01*
X019662490Y-09476644D01*
G01*
X019650000Y-09349833D01*
G01*
X019662490Y-09223022D01*
G01*
X019699479Y-09101084D01*
G01*
X019759547Y-08988706D01*
G01*
X019840384Y-08890205D01*
G01*
X019938885Y-08809368D01*
G01*
X020051263Y-08749300D01*
G01*
X020173201Y-08712311D01*
G01*
X020300012Y-08699821D01*
G01*
X020426823Y-08712311D01*
G01*
X020548761Y-08749300D01*
G01*
X020661139Y-08809368D01*
G01*
X020700000Y-08841260D01*
G01*
X020700000Y-08158384D01*
G01*
X020661139Y-08190276D01*
G01*
X020548761Y-08250344D01*
G01*
X020426823Y-08287333D01*
G01*
X020300012Y-08299823D01*
G01*
X020173201Y-08287333D01*
G01*
X020051263Y-08250344D01*
G01*
X019938885Y-08190276D01*
G01*
X019840384Y-08109439D01*
G01*
X019759547Y-08010939D01*
G01*
X019699479Y-07898560D01*
G01*
X019662490Y-07776622D01*
G01*
X019650000Y-07649811D01*
G01*
X019662490Y-07523000D01*
G01*
X019699479Y-07401062D01*
G01*
X019700086Y-07399927D01*
G01*
X018100041Y-07399927D01*
G01*
X018100041Y-07174934D01*
G01*
X009480447Y-07174999D01*
G01*
X009178310Y-07477136D01*
G01*
X009200000Y-07475000D01*
G01*
X009302422Y-07485088D01*
G01*
X009400909Y-07514963D01*
G01*
X009491674Y-07563478D01*
G01*
X009566638Y-07625000D01*
G01*
X009599977Y-07625000D01*
G01*
X009599977Y-07250001D01*
G01*
X010999975Y-07250001D01*
G01*
X010999975Y-08749999D01*
G01*
X009599977Y-08749999D01*
G01*
X009599977Y-08375000D01*
G01*
X009566638Y-08375000D01*
G01*
X009491674Y-08436522D01*
G01*
X009400909Y-08485037D01*
G01*
X009302422Y-08514912D01*
G01*
X009200000Y-08525000D01*
G01*
X009097578Y-08514912D01*
G01*
X008999091Y-08485037D01*
G01*
X008908326Y-08436522D01*
G01*
X008828769Y-08371231D01*
G01*
X008800047Y-08336233D01*
G01*
X008800047Y-09175067D01*
G01*
X007113758Y-09175067D01*
G01*
X007113758Y-09575065D01*
G01*
X008800047Y-09575065D01*
G01*
X008800047Y-11175063D01*
G01*
X007113758Y-11175063D01*
G01*
X007113758Y-11575061D01*
G01*
X008800047Y-11575061D01*
G01*
X008800047Y-13175059D01*
G01*
X007113758Y-13175059D01*
G01*
X007113758Y-13208436D01*
G01*
X007480379Y-13575057D01*
G01*
X008800046Y-13575057D01*
G01*
X008800046Y-15175055D01*
G01*
X006700049Y-15175055D01*
G01*
X006700049Y-13855387D01*
G01*
X006473593Y-13628931D01*
G01*
X006426957Y-13572105D01*
G01*
X006392304Y-13507272D01*
G01*
X006370964Y-13436925D01*
G01*
X006363758Y-13363766D01*
G01*
X006363758Y-03294044D01*
G01*
X006370964Y-03220885D01*
G01*
X006392304Y-03150538D01*
G01*
X006426957Y-03085705D01*
G01*
X006473593Y-03028879D01*
G01*
X006530420Y-02982243D01*
G01*
X006595252Y-02947589D01*
G01*
X006665600Y-02926250D01*
G01*
X006738758Y-02919044D01*
G01*
X007304578Y-02919044D01*
G01*
X009905978Y-00317645D01*
G01*
X009934963Y-00222091D01*
G01*
X009983478Y-00131326D01*
G01*
X010048769Y-00051769D01*
G01*
X010128326Y000013522D01*
G01*
X010219091Y000062037D01*
G01*
X010317578Y000091912D01*
G01*
X010420000Y000102000D01*
G01*
X010522422Y000091912D01*
G01*
X010620909Y000062037D01*
G01*
X010711674Y000013522D01*
G01*
X010791231Y-00051769D01*
G01*
X010856522Y-00131326D01*
G01*
X010905037Y-00222091D01*
G01*
X010934912Y-00320578D01*
G01*
X010945000Y-00423000D01*
G01*
X010934912Y-00525422D01*
G01*
X010905037Y-00623909D01*
G01*
X010856522Y-00714674D01*
G01*
X010791231Y-00794231D01*
G01*
X010711674Y-00859522D01*
G01*
X010620909Y-00908037D01*
G01*
X010522422Y-00937912D01*
G01*
X010420000Y-00948000D01*
G01*
X010343789Y-00940494D01*
G01*
X007725074Y-03559209D01*
G01*
X007705738Y-03575077D01*
G01*
X008800047Y-03575077D01*
G01*
X008800047Y-04553194D01*
G01*
X008836893Y-04578634D01*
G01*
X008902422Y-04585088D01*
G01*
X009000909Y-04614963D01*
G01*
X009091674Y-04663478D01*
G01*
X009171231Y-04728769D01*
G01*
X009236522Y-04808326D01*
G01*
X009285037Y-04899091D01*
G01*
X009314912Y-04997578D01*
G01*
X009325000Y-05100000D01*
G01*
X009314912Y-05202422D01*
G01*
X009285037Y-05300909D01*
G01*
X009236522Y-05391674D01*
G01*
X009171231Y-05471231D01*
G01*
X009091674Y-05536522D01*
G01*
X009000909Y-05585037D01*
G01*
X008902422Y-05614912D01*
G01*
X008800047Y-05624995D01*
G01*
X008800047Y-06112295D01*
G01*
X011024995Y-06112295D01*
G01*
X011024995Y-05874998D01*
G01*
X010866638Y-05874998D01*
G01*
X010791674Y-05936520D01*
G01*
X010700909Y-05985035D01*
G01*
X010602422Y-06014910D01*
G01*
X010500000Y-06024998D01*
G01*
X010397578Y-06014910D01*
G01*
X010299091Y-05985035D01*
G01*
X010208326Y-05936520D01*
G01*
X010128769Y-05871229D01*
G01*
X010063478Y-05791672D01*
G01*
X010014963Y-05700907D01*
G01*
X009985088Y-05602420D01*
G01*
X009975000Y-05499998D01*
G01*
X009985088Y-05397576D01*
G01*
X010014963Y-05299089D01*
G01*
X010063478Y-05208324D01*
G01*
X010128769Y-05128767D01*
G01*
X010208326Y-05063476D01*
G01*
X010299091Y-05014961D01*
G01*
X010397578Y-04985086D01*
G01*
X010500000Y-04974998D01*
G01*
X010602422Y-04985086D01*
G01*
X010700909Y-05014961D01*
G01*
X010791674Y-05063476D01*
G01*
X010866638Y-05124998D01*
G01*
X011024995Y-05124998D01*
G01*
X011024995Y-04494996D01*
G01*
X012975005Y-04494996D01*
G01*
X012975005Y-05748852D01*
G01*
X014900095Y-03823761D01*
G01*
X014900095Y-01770004D01*
G01*
X016730090Y-01770004D01*
G01*
X016730090Y-04229996D01*
G01*
X015554521Y-04229996D01*
G01*
X013359547Y-06424970D01*
G01*
X018100041Y-06424934D01*
G01*
X018100041Y-06199928D01*
G01*
X019900039Y-06199928D01*
G01*
X019900039Y-07141226D01*
G01*
X019938885Y-07109346D01*
G01*
X020051263Y-07049278D01*
G01*
X020173201Y-07012289D01*
G01*
X020300012Y-06999799D01*
G01*
X020426823Y-07012289D01*
G01*
X020548761Y-07049278D01*
G01*
X020661139Y-07109346D01*
G01*
X020700000Y-07141238D01*
G01*
X020700000Y002500130D01*
G01*
X018756164Y002500130D01*
G01*
X018756164Y004500130D01*
G01*
X020700000Y004500130D01*
G01*
X020700000Y005500124D01*
G01*
X018756164Y005500124D01*
G01*
X018756164Y007500124D01*
G01*
X020700000Y007500124D01*
G01*
X020700000Y023200000D01*
G01*
X017200000Y023200000D01*
G01*
X017200000Y026700000D01*
G01*
X-17200000Y026700000D01*
G01*
X-17200000Y023200000D01*
G01*
X-20700000Y023200000D01*
G01*
X-20700000Y-07770004D01*
G01*
X-20269910Y-07770004D01*
G01*
X-20269910Y-09384711D01*
G01*
X-19654599Y-10000064D01*
G01*
X-08800046Y-10000064D01*
G01*
X-08800046Y-09575065D01*
G01*
X-06700049Y-09575065D01*
G01*
X-06700049Y-11175063D01*
G01*
X-08800046Y-11175063D01*
G01*
X-08800046Y-10750064D01*
G01*
X-19809936Y-10750064D01*
G01*
X-19883095Y-10742858D01*
G01*
X-19953443Y-10721519D01*
G01*
X-20018275Y-10686865D01*
G01*
X-20075101Y-10640229D01*
G01*
X-20075109Y-10640219D01*
G01*
X-20075110Y-10640220D01*
G01*
X-20485307Y-10229996D01*
G01*
X-20700000Y-10229996D01*
G01*
X-20700000Y-12200000D01*
G01*
X-17200000Y-12200000D01*
G01*
X-17200000Y-15800000D01*
G01*
X-20700000Y-15800000D01*
G01*
X-20700000Y-18700000D01*
G01*
X-08800046Y-18700000D01*
G01*
X-08800046Y-17575049D01*
G37*
%LPC*%
D24*
G36*
X-08088005Y014423005D02*
G01*
X-07985583Y014433093D01*
G01*
X-07887096Y014462968D01*
G01*
X-07796331Y014511484D01*
G01*
X-07716774Y014576774D01*
G01*
X-07651484Y014656331D01*
G01*
X-07602968Y014747096D01*
G01*
X-07573093Y014845583D01*
G01*
X-07563005Y014948005D01*
G01*
X-07573093Y015050427D01*
G01*
X-07602968Y015148914D01*
G01*
X-07651484Y015239679D01*
G01*
X-07716774Y015319236D01*
G01*
X-07767168Y015360593D01*
G01*
X-07767168Y015374317D01*
G01*
X-07767168Y015671466D01*
G01*
X-07767168Y015968616D01*
G01*
X-07767168Y016265765D01*
G01*
X-07767168Y016562915D01*
G01*
X-07767168Y016860064D01*
G01*
X-07767168Y017157214D01*
G01*
X-07767168Y017454363D01*
G01*
X-07767168Y017751513D01*
G01*
X-07767168Y018048662D01*
G01*
X-07767168Y018345812D01*
G01*
X-07767168Y018642961D01*
G01*
X-07767168Y018940110D01*
G01*
X-07767168Y019237260D01*
G01*
X-07767168Y019534409D01*
G01*
X-07767168Y019831559D01*
G01*
X-07767168Y020128708D01*
G01*
X-07767168Y020239461D01*
G01*
X-07693547Y020313082D01*
G01*
X-07488125Y020518504D01*
G01*
X-07282702Y020723927D01*
G01*
X-07077280Y020929349D01*
G01*
X-06871858Y021134772D01*
G01*
X-06666435Y021340194D01*
G01*
X-06461013Y021545616D01*
G01*
X-06255590Y021751039D01*
G01*
X-06050168Y021956461D01*
G01*
X-05844746Y022161884D01*
G01*
X-05639323Y022367306D01*
G01*
X-05433901Y022572728D01*
G01*
X-05228478Y022778151D01*
G01*
X-05023056Y022983573D01*
G01*
X-04817634Y023188996D01*
G01*
X-04761670Y023257187D01*
G01*
X-04720086Y023334986D01*
G01*
X-04705485Y023383119D01*
G01*
X-04703823Y023384781D01*
G01*
X-03202723Y023264064D01*
G01*
X-03202555Y023266152D01*
G01*
X-03166651Y023262616D01*
G01*
X-02872691Y023262616D01*
G01*
X-02578731Y023262616D01*
G01*
X-02284772Y023262616D01*
G01*
X-01990812Y023262616D01*
G01*
X-01696852Y023262616D01*
G01*
X-01402893Y023262616D01*
G01*
X-01108933Y023262616D01*
G01*
X-00814973Y023262616D01*
G01*
X-00521013Y023262616D01*
G01*
X-00227054Y023262616D01*
G01*
X000066906Y023262616D01*
G01*
X000360866Y023262616D01*
G01*
X000654825Y023262616D01*
G01*
X000948785Y023262616D01*
G01*
X001242745Y023262616D01*
G01*
X001536705Y023262616D01*
G01*
X001830664Y023262616D01*
G01*
X002124624Y023262616D01*
G01*
X002418584Y023262616D01*
G01*
X002712544Y023262616D01*
G01*
X003006503Y023262616D01*
G01*
X003300463Y023262616D01*
G01*
X003594423Y023262616D01*
G01*
X003682213Y023271263D01*
G01*
X003766630Y023296870D01*
G01*
X003844429Y023338455D01*
G01*
X003891046Y023376712D01*
G01*
X003892286Y023375307D01*
G01*
X003920249Y023400000D01*
G01*
X004446005Y023400000D01*
G01*
X004957760Y023275391D01*
G01*
X004958108Y023276821D01*
G01*
X004976431Y023271263D01*
G01*
X005064221Y023262616D01*
G01*
X005358181Y023262616D01*
G01*
X005652141Y023262616D01*
G01*
X005946100Y023262616D01*
G01*
X006240060Y023262616D01*
G01*
X006347624Y023262616D01*
G01*
X006393976Y023216264D01*
G01*
X006543398Y023066842D01*
G01*
X006543398Y022643240D01*
G01*
X005900672Y021715217D01*
G01*
X005897578Y021714912D01*
G01*
X005799091Y021685037D01*
G01*
X005708326Y021636522D01*
G01*
X005628769Y021571231D01*
G01*
X005563478Y021491674D01*
G01*
X005514963Y021400909D01*
G01*
X005485088Y021302422D01*
G01*
X005475000Y021200000D01*
G01*
X005485088Y021097578D01*
G01*
X005514963Y020999091D01*
G01*
X005563478Y020908326D01*
G01*
X005628769Y020828769D01*
G01*
X005708326Y020763478D01*
G01*
X005799091Y020714963D01*
G01*
X005897578Y020685088D01*
G01*
X006000000Y020675000D01*
G01*
X006102422Y020685088D01*
G01*
X006200909Y020714963D01*
G01*
X006291674Y020763478D01*
G01*
X006371231Y020828769D01*
G01*
X006436522Y020908326D01*
G01*
X006485037Y020999091D01*
G01*
X006514912Y021097578D01*
G01*
X006525000Y021200000D01*
G01*
X006516428Y021287028D01*
G01*
X007195823Y022267997D01*
G01*
X007949874Y022267997D01*
G01*
X007949874Y023732003D01*
G01*
X007699116Y023732003D01*
G01*
X007734975Y023799091D01*
G01*
X007764850Y023897578D01*
G01*
X007774938Y024000000D01*
G01*
X007764850Y024102422D01*
G01*
X007734975Y024200909D01*
G01*
X007686460Y024291674D01*
G01*
X007624938Y024366638D01*
G01*
X007624938Y025300001D01*
G01*
X007949937Y025300001D01*
G01*
X007949937Y026699999D01*
G01*
X006549939Y026699999D01*
G01*
X006549939Y025300001D01*
G01*
X006874938Y025300001D01*
G01*
X006874938Y024366638D01*
G01*
X006813416Y024291674D01*
G01*
X006764901Y024200909D01*
G01*
X006737779Y024111497D01*
G01*
X006706227Y024128362D01*
G01*
X006621811Y024153969D01*
G01*
X006534020Y024162616D01*
G01*
X006240060Y024162616D01*
G01*
X005946100Y024162616D01*
G01*
X005652141Y024162616D01*
G01*
X005358181Y024162616D01*
G01*
X005118217Y024162616D01*
G01*
X004606461Y024287225D01*
G01*
X004606113Y024285795D01*
G01*
X004587791Y024291353D01*
G01*
X004500000Y024300000D01*
G01*
X003750000Y024300000D01*
G01*
X003662209Y024291353D01*
G01*
X003577792Y024265746D01*
G01*
X003499993Y024224161D01*
G01*
X003453377Y024185904D01*
G01*
X003452136Y024187309D01*
G01*
X003424173Y024162616D01*
G01*
X003300463Y024162616D01*
G01*
X003006503Y024162616D01*
G01*
X002712544Y024162616D01*
G01*
X002418584Y024162616D01*
G01*
X002124624Y024162616D01*
G01*
X001830664Y024162616D01*
G01*
X001536705Y024162616D01*
G01*
X001242745Y024162616D01*
G01*
X000948785Y024162616D01*
G01*
X000654825Y024162616D01*
G01*
X000360866Y024162616D01*
G01*
X000066906Y024162616D01*
G01*
X-00227054Y024162616D01*
G01*
X-00521013Y024162616D01*
G01*
X-00814973Y024162616D01*
G01*
X-01108933Y024162616D01*
G01*
X-01402893Y024162616D01*
G01*
X-01696852Y024162616D01*
G01*
X-01990812Y024162616D01*
G01*
X-02284772Y024162616D01*
G01*
X-02578731Y024162616D01*
G01*
X-02872691Y024162616D01*
G01*
X-03148585Y024162616D01*
G01*
X-04838928Y024298552D01*
G01*
X-04839096Y024296464D01*
G01*
X-04875000Y024300000D01*
G01*
X-04962791Y024291353D01*
G01*
X-05047208Y024265746D01*
G01*
X-05125007Y024224161D01*
G01*
X-05193198Y024168198D01*
G01*
X-05493198Y023868198D01*
G01*
X-05549161Y023800007D01*
G01*
X-05590746Y023722208D01*
G01*
X-05605347Y023674074D01*
G01*
X-05659452Y023619969D01*
G01*
X-05864874Y023414547D01*
G01*
X-06070297Y023209125D01*
G01*
X-06275719Y023003702D01*
G01*
X-06481142Y022798280D01*
G01*
X-06686564Y022592857D01*
G01*
X-06891986Y022387435D01*
G01*
X-07097409Y022182013D01*
G01*
X-07302831Y021976590D01*
G01*
X-07508254Y021771168D01*
G01*
X-07713676Y021565745D01*
G01*
X-07919098Y021360323D01*
G01*
X-08124521Y021154901D01*
G01*
X-08329943Y020949478D01*
G01*
X-08535366Y020744056D01*
G01*
X-08591329Y020675864D01*
G01*
X-08632913Y020598065D01*
G01*
X-08658521Y020513648D01*
G01*
X-08667168Y020425858D01*
G01*
X-08667168Y020128708D01*
G01*
X-08667168Y019831559D01*
G01*
X-08667168Y019534409D01*
G01*
X-08667168Y019237260D01*
G01*
X-08667168Y018940110D01*
G01*
X-08667168Y018642961D01*
G01*
X-08667168Y018345812D01*
G01*
X-08667168Y018048662D01*
G01*
X-08667168Y017751513D01*
G01*
X-08667168Y017454363D01*
G01*
X-08667168Y017157214D01*
G01*
X-08667168Y016860064D01*
G01*
X-08667168Y016562915D01*
G01*
X-08667168Y016265765D01*
G01*
X-08667168Y015968616D01*
G01*
X-08667168Y015671466D01*
G01*
X-08667168Y015374317D01*
G01*
X-08667168Y015077168D01*
G01*
X-08658521Y014989377D01*
G01*
X-08632913Y014904960D01*
G01*
X-08603310Y014849577D01*
G01*
X-08602917Y014845583D01*
G01*
X-08573042Y014747096D01*
G01*
X-08524527Y014656331D01*
G01*
X-08459236Y014576774D01*
G01*
X-08379679Y014511484D01*
G01*
X-08288914Y014462968D01*
G01*
X-08190427Y014433093D01*
G01*
X-08088005Y014423005D01*
G37*
D24*
G36*
X008050126Y022267997D02*
G01*
X009456602Y022267997D01*
G01*
X009456602Y023732003D01*
G01*
X009125062Y023732003D01*
G01*
X009125062Y025300001D01*
G01*
X009450061Y025300001D01*
G01*
X009450061Y026699999D01*
G01*
X008050063Y026699999D01*
G01*
X008050063Y025300001D01*
G01*
X008375062Y025300001D01*
G01*
X008375062Y023732003D01*
G01*
X008050126Y023732003D01*
G01*
X008050126Y022267997D01*
G37*
D24*
G36*
X-01456602Y018267997D02*
G01*
X-00050126Y018267997D01*
G01*
X-00050126Y019732003D01*
G01*
X-00304979Y019732003D01*
G01*
X-00285088Y019797578D01*
G01*
X-00275000Y019900000D01*
G01*
X-00285088Y020002422D01*
G01*
X-00314963Y020100909D01*
G01*
X-00363478Y020191674D01*
G01*
X-00428769Y020271231D01*
G01*
X-00508326Y020336522D01*
G01*
X-00599091Y020385037D01*
G01*
X-00697578Y020414912D01*
G01*
X-00800000Y020425000D01*
G01*
X-00902422Y020414912D01*
G01*
X-00947346Y020401285D01*
G01*
X-01375187Y020626420D01*
G01*
X-01375187Y021060231D01*
G01*
X-01300187Y021060231D01*
G01*
X-00800061Y021060231D01*
G01*
X-00300189Y021060231D01*
G01*
X000199937Y021060231D01*
G01*
X000699809Y021060231D01*
G01*
X000874807Y021060231D01*
G01*
X000874807Y020543855D01*
G01*
X000764761Y020421529D01*
G01*
X000697578Y020414912D01*
G01*
X000599091Y020385037D01*
G01*
X000508326Y020336522D01*
G01*
X000428769Y020271231D01*
G01*
X000363478Y020191674D01*
G01*
X000314963Y020100909D01*
G01*
X000285088Y020002422D01*
G01*
X000275000Y019900000D01*
G01*
X000285088Y019797578D01*
G01*
X000314963Y019699091D01*
G01*
X000363478Y019608326D01*
G01*
X000428769Y019528769D01*
G01*
X000508326Y019463478D01*
G01*
X000599091Y019414963D01*
G01*
X000697578Y019385088D01*
G01*
X000800000Y019375000D01*
G01*
X000902422Y019385088D01*
G01*
X001000909Y019414963D01*
G01*
X001091674Y019463478D01*
G01*
X001171231Y019528769D01*
G01*
X001236522Y019608326D01*
G01*
X001285037Y019699091D01*
G01*
X001314912Y019797578D01*
G01*
X001325000Y019900000D01*
G01*
X001322969Y019920625D01*
G01*
X001528596Y020149198D01*
G01*
X001527539Y020150148D01*
G01*
X001561608Y020191661D01*
G01*
X001596262Y020256494D01*
G01*
X001617601Y020326841D01*
G01*
X001624807Y020400000D01*
G01*
X001624807Y021060231D01*
G01*
X001699807Y021060231D01*
G01*
X002024919Y021060231D01*
G01*
X002024919Y020513521D01*
G01*
X001891263Y020312996D01*
G01*
X001799091Y020285037D01*
G01*
X001708326Y020236522D01*
G01*
X001628769Y020171231D01*
G01*
X001563478Y020091674D01*
G01*
X001514963Y020000909D01*
G01*
X001485088Y019902422D01*
G01*
X001475000Y019800000D01*
G01*
X001485088Y019697578D01*
G01*
X001514963Y019599091D01*
G01*
X001563478Y019508326D01*
G01*
X001628769Y019428769D01*
G01*
X001708326Y019363478D01*
G01*
X001799091Y019314963D01*
G01*
X001897578Y019285088D01*
G01*
X002000000Y019275000D01*
G01*
X002102422Y019285088D01*
G01*
X002200909Y019314963D01*
G01*
X002291674Y019363478D01*
G01*
X002371231Y019428769D01*
G01*
X002436522Y019508326D01*
G01*
X002485037Y019599091D01*
G01*
X002514912Y019697578D01*
G01*
X002525000Y019800000D01*
G01*
X002515430Y019897166D01*
G01*
X002711718Y020191659D01*
G01*
X002711720Y020191661D01*
G01*
X002711721Y020191663D01*
G01*
X002711957Y020192017D01*
G01*
X002711923Y020192040D01*
G01*
X002746374Y020256494D01*
G01*
X002767713Y020326841D01*
G01*
X002774919Y020400000D01*
G01*
X002774919Y021060231D01*
G01*
X002999918Y021060231D01*
G01*
X002999918Y022860228D01*
G01*
X001799920Y022860228D01*
G01*
X001299933Y022860228D01*
G01*
X000799807Y022860228D01*
G01*
X000299935Y022860228D01*
G01*
X-00200191Y022860228D01*
G01*
X-00700063Y022860228D01*
G01*
X-01200189Y022860228D01*
G01*
X-01700061Y022860228D01*
G01*
X-02200187Y022860228D01*
G01*
X-03000172Y022860228D01*
G01*
X-03000172Y021060231D01*
G01*
X-02775173Y021060231D01*
G01*
X-02775173Y020400000D01*
G01*
X-02767967Y020326841D01*
G01*
X-02746628Y020256494D01*
G01*
X-02712124Y020191942D01*
G01*
X-02712150Y020191925D01*
G01*
X-02711974Y020191662D01*
G01*
X-02711974Y020191661D01*
G01*
X-02515446Y019896997D01*
G01*
X-02525000Y019800000D01*
G01*
X-02514912Y019697578D01*
G01*
X-02485037Y019599091D01*
G01*
X-02436522Y019508326D01*
G01*
X-02371231Y019428769D01*
G01*
X-02291674Y019363478D01*
G01*
X-02200909Y019314963D01*
G01*
X-02102422Y019285088D01*
G01*
X-02000000Y019275000D01*
G01*
X-01897578Y019285088D01*
G01*
X-01799091Y019314963D01*
G01*
X-01708326Y019363478D01*
G01*
X-01628769Y019428769D01*
G01*
X-01563478Y019508326D01*
G01*
X-01514963Y019599091D01*
G01*
X-01485088Y019697578D01*
G01*
X-01475000Y019800000D01*
G01*
X-01478266Y019833163D01*
G01*
X-01296729Y019737636D01*
G01*
X-01295021Y019732003D01*
G01*
X-01456602Y019732003D01*
G01*
X-01456602Y018267997D01*
G37*
D24*
G36*
X005335000Y018490000D02*
G01*
X005437422Y018500088D01*
G01*
X005535909Y018529963D01*
G01*
X005626674Y018578478D01*
G01*
X005706231Y018643769D01*
G01*
X005714013Y018653251D01*
G01*
X005760970Y018657876D01*
G01*
X005845387Y018683483D01*
G01*
X005923186Y018725068D01*
G01*
X005991378Y018781031D01*
G01*
X006599977Y019389630D01*
G01*
X006599977Y019250001D01*
G01*
X007999975Y019250001D01*
G01*
X007999975Y020749999D01*
G01*
X006599977Y020749999D01*
G01*
X006599977Y020450000D01*
G01*
X006573951Y020450000D01*
G01*
X006486160Y020441353D01*
G01*
X006401743Y020415746D01*
G01*
X006323944Y020374161D01*
G01*
X006255753Y020318198D01*
G01*
X005478978Y019541423D01*
G01*
X005470438Y019540582D01*
G01*
X005435792Y019530073D01*
G01*
X005335000Y019540000D01*
G01*
X005232578Y019529912D01*
G01*
X005134091Y019500037D01*
G01*
X005043326Y019451522D01*
G01*
X004963769Y019386231D01*
G01*
X004898478Y019306674D01*
G01*
X004849963Y019215909D01*
G01*
X004820088Y019117422D01*
G01*
X004810000Y019015000D01*
G01*
X004820088Y018912578D01*
G01*
X004849963Y018814091D01*
G01*
X004898478Y018723326D01*
G01*
X004963769Y018643769D01*
G01*
X005043326Y018578478D01*
G01*
X005134091Y018529963D01*
G01*
X005232578Y018500088D01*
G01*
X005335000Y018490000D01*
G37*
D24*
G36*
X-05456602Y018267997D02*
G01*
X-04050126Y018267997D01*
G01*
X-04050126Y019732003D01*
G01*
X-05456602Y019732003D01*
G01*
X-05456602Y019375000D01*
G01*
X-05633362Y019375000D01*
G01*
X-05708326Y019436522D01*
G01*
X-05799091Y019485037D01*
G01*
X-05897578Y019514912D01*
G01*
X-06000000Y019525000D01*
G01*
X-06102422Y019514912D01*
G01*
X-06200909Y019485037D01*
G01*
X-06291674Y019436522D01*
G01*
X-06371231Y019371231D01*
G01*
X-06436522Y019291674D01*
G01*
X-06485037Y019200909D01*
G01*
X-06514912Y019102422D01*
G01*
X-06525000Y019000000D01*
G01*
X-06514912Y018897578D01*
G01*
X-06485037Y018799091D01*
G01*
X-06436522Y018708326D01*
G01*
X-06371231Y018628769D01*
G01*
X-06291674Y018563478D01*
G01*
X-06200909Y018514963D01*
G01*
X-06102422Y018485088D01*
G01*
X-06000000Y018475000D01*
G01*
X-05897578Y018485088D01*
G01*
X-05799091Y018514963D01*
G01*
X-05708326Y018563478D01*
G01*
X-05633362Y018625000D01*
G01*
X-05456602Y018625000D01*
G01*
X-05456602Y018267997D01*
G37*
D24*
G36*
X011600130Y016249999D02*
G01*
X012800128Y016249999D01*
G01*
X012800128Y018400009D01*
G01*
X012575129Y018400009D01*
G01*
X012575129Y018633362D01*
G01*
X012636651Y018708326D01*
G01*
X012685166Y018799091D01*
G01*
X012715041Y018897578D01*
G01*
X012725129Y019000000D01*
G01*
X012715041Y019102422D01*
G01*
X012685166Y019200909D01*
G01*
X012636651Y019291674D01*
G01*
X012571360Y019371231D01*
G01*
X012491803Y019436522D01*
G01*
X012401038Y019485037D01*
G01*
X012302551Y019514912D01*
G01*
X012200129Y019525000D01*
G01*
X012097707Y019514912D01*
G01*
X011999220Y019485037D01*
G01*
X011908455Y019436522D01*
G01*
X011828898Y019371231D01*
G01*
X011763607Y019291674D01*
G01*
X011715092Y019200909D01*
G01*
X011685217Y019102422D01*
G01*
X011675129Y019000000D01*
G01*
X011685217Y018897578D01*
G01*
X011715092Y018799091D01*
G01*
X011763607Y018708326D01*
G01*
X011825129Y018633362D01*
G01*
X011825129Y018400009D01*
G01*
X011600130Y018400009D01*
G01*
X011600130Y016249999D01*
G37*
D24*
G36*
X013600126Y016249999D02*
G01*
X014800124Y016249999D01*
G01*
X014800124Y018400009D01*
G01*
X014575125Y018400009D01*
G01*
X014575125Y018633362D01*
G01*
X014636647Y018708326D01*
G01*
X014685162Y018799091D01*
G01*
X014715037Y018897578D01*
G01*
X014725125Y019000000D01*
G01*
X014715037Y019102422D01*
G01*
X014685162Y019200909D01*
G01*
X014636647Y019291674D01*
G01*
X014571356Y019371231D01*
G01*
X014491799Y019436522D01*
G01*
X014401034Y019485037D01*
G01*
X014302547Y019514912D01*
G01*
X014200125Y019525000D01*
G01*
X014097703Y019514912D01*
G01*
X013999216Y019485037D01*
G01*
X013908451Y019436522D01*
G01*
X013828894Y019371231D01*
G01*
X013763603Y019291674D01*
G01*
X013715088Y019200909D01*
G01*
X013685213Y019102422D01*
G01*
X013675125Y019000000D01*
G01*
X013685213Y018897578D01*
G01*
X013715088Y018799091D01*
G01*
X013763603Y018708326D01*
G01*
X013825125Y018633362D01*
G01*
X013825125Y018400009D01*
G01*
X013600126Y018400009D01*
G01*
X013600126Y016249999D01*
G37*
D24*
G36*
X-01199973Y013500037D02*
G01*
X-00399973Y013500037D01*
G01*
X000000077Y013500037D01*
G01*
X000399873Y013500037D01*
G01*
X000799923Y013500037D01*
G01*
X001199973Y013500037D01*
G01*
X001199973Y014600036D01*
G01*
X001174973Y014600036D01*
G01*
X001174973Y014624363D01*
G01*
X001960385Y015278895D01*
G01*
X001999933Y015275000D01*
G01*
X002102355Y015285088D01*
G01*
X002200841Y015314963D01*
G01*
X002291607Y015363478D01*
G01*
X002371164Y015428769D01*
G01*
X002436454Y015508326D01*
G01*
X002484969Y015599091D01*
G01*
X002514845Y015697578D01*
G01*
X002524933Y015800000D01*
G01*
X002514845Y015902422D01*
G01*
X002484969Y016000909D01*
G01*
X002436454Y016091674D01*
G01*
X002371164Y016171231D01*
G01*
X002291607Y016236522D01*
G01*
X002200841Y016285037D01*
G01*
X002102355Y016314912D01*
G01*
X001999933Y016325000D01*
G01*
X001897510Y016314912D01*
G01*
X001799024Y016285037D01*
G01*
X001708258Y016236522D01*
G01*
X001628701Y016171231D01*
G01*
X001563411Y016091674D01*
G01*
X001514896Y016000909D01*
G01*
X001499870Y015951375D01*
G01*
X001484844Y016000909D01*
G01*
X001436329Y016091674D01*
G01*
X001371039Y016171231D01*
G01*
X001291482Y016236522D01*
G01*
X001200716Y016285037D01*
G01*
X001102230Y016314912D01*
G01*
X000999808Y016325000D01*
G01*
X000949874Y016320082D01*
G01*
X000949874Y017414888D01*
G01*
X002274118Y017390589D01*
G01*
X002276601Y017387564D01*
G01*
X002356158Y017322273D01*
G01*
X002446923Y017273758D01*
G01*
X002545410Y017243883D01*
G01*
X002647832Y017233795D01*
G01*
X002750254Y017243883D01*
G01*
X002848741Y017273758D01*
G01*
X002939506Y017322273D01*
G01*
X003019063Y017387564D01*
G01*
X003084354Y017467120D01*
G01*
X003132869Y017557886D01*
G01*
X003162744Y017656372D01*
G01*
X003172832Y017758795D01*
G01*
X003162744Y017861217D01*
G01*
X003132869Y017959704D01*
G01*
X003084354Y018050469D01*
G01*
X003019063Y018130026D01*
G01*
X002939506Y018195316D01*
G01*
X002848741Y018243832D01*
G01*
X002750254Y018273707D01*
G01*
X002647832Y018283795D01*
G01*
X002545410Y018273707D01*
G01*
X002446923Y018243832D01*
G01*
X002356158Y018195316D01*
G01*
X002289287Y018140437D01*
G01*
X000617971Y018171104D01*
G01*
X000617867Y018171231D01*
G01*
X000538310Y018236522D01*
G01*
X000447545Y018285037D01*
G01*
X000349058Y018314912D01*
G01*
X000246636Y018325000D01*
G01*
X000144214Y018314912D01*
G01*
X000045727Y018285037D01*
G01*
X-00045038Y018236522D01*
G01*
X-00124595Y018171231D01*
G01*
X-00189886Y018091674D01*
G01*
X-00238401Y018000909D01*
G01*
X-00268276Y017902422D01*
G01*
X-00278364Y017800000D01*
G01*
X-00271667Y017732003D01*
G01*
X-00369291Y017732003D01*
G01*
X-00382478Y017756674D01*
G01*
X-00447769Y017836231D01*
G01*
X-00527326Y017901522D01*
G01*
X-00618091Y017950037D01*
G01*
X-00716578Y017979912D01*
G01*
X-00819000Y017990000D01*
G01*
X-00921422Y017979912D01*
G01*
X-01019909Y017950037D01*
G01*
X-01110674Y017901522D01*
G01*
X-01190231Y017836231D01*
G01*
X-01255522Y017756674D01*
G01*
X-01304037Y017665909D01*
G01*
X-01333912Y017567422D01*
G01*
X-01344000Y017465000D01*
G01*
X-01333912Y017362578D01*
G01*
X-01324269Y017330790D01*
G01*
X-01415875Y017239184D01*
G01*
X-01596326Y017058733D01*
G01*
X-01776778Y016878282D01*
G01*
X-01957229Y016697831D01*
G01*
X-02137680Y016517380D01*
G01*
X-02318131Y016336929D01*
G01*
X-02374094Y016268738D01*
G01*
X-02415678Y016190939D01*
G01*
X-02441286Y016106522D01*
G01*
X-02444170Y016077238D01*
G01*
X-02484969Y016000909D01*
G01*
X-02514845Y015902422D01*
G01*
X-02524933Y015800000D01*
G01*
X-02514845Y015697578D01*
G01*
X-02484969Y015599091D01*
G01*
X-02436454Y015508326D01*
G01*
X-02371164Y015428769D01*
G01*
X-02291607Y015363478D01*
G01*
X-02200841Y015314963D01*
G01*
X-02102355Y015285088D01*
G01*
X-01999932Y015275000D01*
G01*
X-01960385Y015278895D01*
G01*
X-01174973Y014624363D01*
G01*
X-01174973Y014600036D01*
G01*
X-01199973Y014600036D01*
G01*
X-01199973Y013500037D01*
G37*
D24*
G36*
X-04999975Y010250001D02*
G01*
X-03599977Y010250001D01*
G01*
X-03599977Y011749999D01*
G01*
X-04519645Y011749999D01*
G01*
X-05122440Y012352794D01*
G01*
X-05122440Y012424995D01*
G01*
X-03495000Y012424995D01*
G01*
X-03495000Y014375005D01*
G01*
X-04027839Y014375005D01*
G01*
X-04014965Y014399091D01*
G01*
X-03985090Y014497578D01*
G01*
X-03975002Y014600000D01*
G01*
X-03985090Y014702422D01*
G01*
X-04014965Y014800909D01*
G01*
X-04063480Y014891674D01*
G01*
X-04128771Y014971231D01*
G01*
X-04208328Y015036522D01*
G01*
X-04299093Y015085037D01*
G01*
X-04397580Y015114912D01*
G01*
X-04500002Y015125000D01*
G01*
X-04602424Y015114912D01*
G01*
X-04700911Y015085037D01*
G01*
X-04791676Y015036522D01*
G01*
X-04871233Y014971231D01*
G01*
X-04936524Y014891674D01*
G01*
X-04985039Y014800909D01*
G01*
X-05014914Y014702422D01*
G01*
X-05025002Y014600000D01*
G01*
X-05014914Y014497578D01*
G01*
X-04985039Y014399091D01*
G01*
X-04972165Y014375005D01*
G01*
X-05122440Y014375005D01*
G01*
X-05122440Y014830304D01*
G01*
X-04689275Y015263469D01*
G01*
X-04685559Y015267997D01*
G01*
X-03543398Y015267997D01*
G01*
X-03543398Y016732003D01*
G01*
X-03871636Y016732003D01*
G01*
X-03871636Y017033362D01*
G01*
X-03810114Y017108326D01*
G01*
X-03761599Y017199091D01*
G01*
X-03731724Y017297578D01*
G01*
X-03721636Y017400000D01*
G01*
X-03731724Y017502422D01*
G01*
X-03761599Y017600909D01*
G01*
X-03810114Y017691674D01*
G01*
X-03875405Y017771231D01*
G01*
X-03954962Y017836522D01*
G01*
X-04045727Y017885037D01*
G01*
X-04144214Y017914912D01*
G01*
X-04246636Y017925000D01*
G01*
X-04349058Y017914912D01*
G01*
X-04447545Y017885037D01*
G01*
X-04538310Y017836522D01*
G01*
X-04617867Y017771231D01*
G01*
X-04683158Y017691674D01*
G01*
X-04731673Y017600909D01*
G01*
X-04761548Y017502422D01*
G01*
X-04771636Y017400000D01*
G01*
X-04769619Y017379523D01*
G01*
X-04797579Y017394468D01*
G01*
X-04896066Y017424343D01*
G01*
X-04998488Y017434431D01*
G01*
X-05100911Y017424343D01*
G01*
X-05199397Y017394468D01*
G01*
X-05290163Y017345953D01*
G01*
X-05369719Y017280662D01*
G01*
X-05435010Y017201105D01*
G01*
X-05483525Y017110340D01*
G01*
X-05513400Y017011854D01*
G01*
X-05523488Y016909431D01*
G01*
X-05513400Y016807009D01*
G01*
X-05483525Y016708522D01*
G01*
X-05435010Y016617757D01*
G01*
X-05369719Y016538200D01*
G01*
X-05329440Y016505144D01*
G01*
X-05329440Y015683964D01*
G01*
X-05762605Y015250799D01*
G01*
X-05809241Y015193973D01*
G01*
X-05843894Y015129140D01*
G01*
X-05865234Y015058793D01*
G01*
X-05872440Y014985634D01*
G01*
X-05872440Y014003898D01*
G01*
X-05872440Y012197464D01*
G01*
X-05865234Y012124305D01*
G01*
X-05843894Y012053957D01*
G01*
X-05809241Y011989125D01*
G01*
X-05762605Y011932299D01*
G01*
X-04999975Y011169669D01*
G01*
X-04999975Y010250001D01*
G37*
D24*
G36*
X008134907Y014258000D02*
G01*
X008237330Y014268088D01*
G01*
X008335816Y014297963D01*
G01*
X008426582Y014346478D01*
G01*
X008506138Y014411769D01*
G01*
X008571429Y014491326D01*
G01*
X008619944Y014582091D01*
G01*
X008629440Y014613395D01*
G01*
X008636033Y014621429D01*
G01*
X008670687Y014686262D01*
G01*
X008692026Y014756609D01*
G01*
X008699232Y014829768D01*
G01*
X008692026Y014902927D01*
G01*
X008670687Y014973274D01*
G01*
X008636033Y015038107D01*
G01*
X008589397Y015094933D01*
G01*
X008532571Y015141569D01*
G01*
X008516809Y015149994D01*
G01*
X008508492Y015158311D01*
G01*
X008451666Y015204947D01*
G01*
X008430661Y015216174D01*
G01*
X008426582Y015219522D01*
G01*
X008335816Y015268037D01*
G01*
X008237330Y015297912D01*
G01*
X008134907Y015308000D01*
G01*
X008032485Y015297912D01*
G01*
X007933998Y015268037D01*
G01*
X007920517Y015260831D01*
G01*
X004289361Y015177438D01*
G01*
X004224494Y015230673D01*
G01*
X004133728Y015279188D01*
G01*
X004035242Y015309063D01*
G01*
X003932819Y015319151D01*
G01*
X003830397Y015309063D01*
G01*
X003731911Y015279188D01*
G01*
X003641145Y015230673D01*
G01*
X003561588Y015165382D01*
G01*
X003496298Y015085825D01*
G01*
X003447783Y014995060D01*
G01*
X003417907Y014896574D01*
G01*
X003407819Y014794151D01*
G01*
X003417907Y014691729D01*
G01*
X003447783Y014593242D01*
G01*
X003496298Y014502477D01*
G01*
X003561588Y014422920D01*
G01*
X003641145Y014357630D01*
G01*
X003731911Y014309114D01*
G01*
X003830397Y014279239D01*
G01*
X003932819Y014269151D01*
G01*
X004035242Y014279239D01*
G01*
X004133728Y014309114D01*
G01*
X004224494Y014357630D01*
G01*
X004304051Y014422920D01*
G01*
X004307947Y014427667D01*
G01*
X007690885Y014505360D01*
G01*
X007698386Y014491326D01*
G01*
X007763676Y014411769D01*
G01*
X007843233Y014346478D01*
G01*
X007933998Y014297963D01*
G01*
X008032485Y014268088D01*
G01*
X008134907Y014258000D01*
G37*
D24*
G36*
X003800000Y009675000D02*
G01*
X003902422Y009685088D01*
G01*
X004000909Y009714963D01*
G01*
X004091674Y009763478D01*
G01*
X004171231Y009828769D01*
G01*
X004236522Y009908326D01*
G01*
X004285037Y009999091D01*
G01*
X004314912Y010097578D01*
G01*
X004325000Y010200000D01*
G01*
X004314912Y010302422D01*
G01*
X004285037Y010400909D01*
G01*
X004236522Y010491674D01*
G01*
X004174993Y010566647D01*
G01*
X004174990Y010750001D01*
G01*
X004499975Y010750001D01*
G01*
X004499975Y012249999D01*
G01*
X004445283Y012249999D01*
G01*
X004455753Y012281406D01*
G01*
X004454172Y012281933D01*
G01*
X004467794Y012326841D01*
G01*
X004475000Y012400000D01*
G01*
X004475000Y012933362D01*
G01*
X004536522Y013008326D01*
G01*
X004585037Y013099091D01*
G01*
X004614912Y013197578D01*
G01*
X004625000Y013300000D01*
G01*
X004614912Y013402422D01*
G01*
X004585037Y013500909D01*
G01*
X004536522Y013591674D01*
G01*
X004471231Y013671231D01*
G01*
X004391674Y013736522D01*
G01*
X004300909Y013785037D01*
G01*
X004202422Y013814912D01*
G01*
X004100000Y013825000D01*
G01*
X003997578Y013814912D01*
G01*
X003899091Y013785037D01*
G01*
X003808326Y013736522D01*
G01*
X003728769Y013671231D01*
G01*
X003663478Y013591674D01*
G01*
X003614963Y013500909D01*
G01*
X003585088Y013402422D01*
G01*
X003575000Y013300000D01*
G01*
X003585088Y013197578D01*
G01*
X003614963Y013099091D01*
G01*
X003663478Y013008326D01*
G01*
X003725000Y012933362D01*
G01*
X003725000Y012460858D01*
G01*
X003654708Y012249999D01*
G01*
X003099977Y012249999D01*
G01*
X003099977Y010750001D01*
G01*
X003424990Y010750001D01*
G01*
X003424993Y010566630D01*
G01*
X003363478Y010491674D01*
G01*
X003314963Y010400909D01*
G01*
X003285088Y010302422D01*
G01*
X003275000Y010200000D01*
G01*
X003285088Y010097578D01*
G01*
X003314963Y009999091D01*
G01*
X003363478Y009908326D01*
G01*
X003428769Y009828769D01*
G01*
X003508326Y009763478D01*
G01*
X003599091Y009714963D01*
G01*
X003697578Y009685088D01*
G01*
X003800000Y009675000D01*
G37*
D24*
G36*
X004050126Y002267997D02*
G01*
X005456602Y002267997D01*
G01*
X005456602Y002625000D01*
G01*
X014755916Y002625000D01*
G01*
X014829075Y002632206D01*
G01*
X014899423Y002653545D01*
G01*
X014964255Y002688199D01*
G01*
X015021081Y002734835D01*
G01*
X017436309Y005150063D01*
G01*
X018567978Y005150063D01*
G01*
X018567978Y006350061D01*
G01*
X016443978Y006350061D01*
G01*
X016443978Y005218392D01*
G01*
X014600586Y003375000D01*
G01*
X009508061Y003375000D01*
G01*
X009514910Y003397578D01*
G01*
X009524998Y003500000D01*
G01*
X009514910Y003602422D01*
G01*
X009485035Y003700909D01*
G01*
X009436520Y003791674D01*
G01*
X009374998Y003866638D01*
G01*
X009374998Y004425034D01*
G01*
X009799997Y004425034D01*
G01*
X009799997Y005625000D01*
G01*
X011700000Y005625000D01*
G01*
X011773159Y005632206D01*
G01*
X011843506Y005653545D01*
G01*
X011908339Y005688199D01*
G01*
X011965165Y005734835D01*
G01*
X012011801Y005791661D01*
G01*
X012046455Y005856494D01*
G01*
X012067794Y005926841D01*
G01*
X012075000Y006000000D01*
G01*
X012075000Y008500000D01*
G01*
X012067794Y008573159D01*
G01*
X012046455Y008643506D01*
G01*
X012011801Y008708339D01*
G01*
X011965165Y008765165D01*
G01*
X011575000Y009155330D01*
G01*
X011575000Y010270004D01*
G01*
X013230090Y010270004D01*
G01*
X013230090Y012729996D01*
G01*
X012690092Y012729996D01*
G01*
X012690092Y012933362D01*
G01*
X012751614Y013008326D01*
G01*
X012800129Y013099091D01*
G01*
X012830004Y013197578D01*
G01*
X012840092Y013300000D01*
G01*
X012830004Y013402422D01*
G01*
X012800129Y013500909D01*
G01*
X012751614Y013591674D01*
G01*
X012686323Y013671231D01*
G01*
X012606766Y013736522D01*
G01*
X012516001Y013785037D01*
G01*
X012417514Y013814912D01*
G01*
X012315092Y013825000D01*
G01*
X012212670Y013814912D01*
G01*
X012114183Y013785037D01*
G01*
X012023418Y013736522D01*
G01*
X011943861Y013671231D01*
G01*
X011878570Y013591674D01*
G01*
X011830055Y013500909D01*
G01*
X011800180Y013402422D01*
G01*
X011790092Y013300000D01*
G01*
X011800180Y013197578D01*
G01*
X011830055Y013099091D01*
G01*
X011878570Y013008326D01*
G01*
X011940092Y012933362D01*
G01*
X011940092Y012729996D01*
G01*
X011575000Y012729996D01*
G01*
X011575000Y013000000D01*
G01*
X011567794Y013073159D01*
G01*
X011546455Y013143506D01*
G01*
X011511801Y013208339D01*
G01*
X011465165Y013265165D01*
G01*
X011408339Y013311801D01*
G01*
X011343506Y013346455D01*
G01*
X011273159Y013367794D01*
G01*
X011200000Y013375000D01*
G01*
X008000000Y013375000D01*
G01*
X007926841Y013367794D01*
G01*
X007856494Y013346455D01*
G01*
X007791661Y013311801D01*
G01*
X007734835Y013265165D01*
G01*
X007701669Y013224752D01*
G01*
X007700484Y013225644D01*
G01*
X007328593Y012732003D01*
G01*
X006543398Y012732003D01*
G01*
X006543398Y011697521D01*
G01*
X006023551Y011017470D01*
G01*
X005997578Y011014912D01*
G01*
X005899091Y010985037D01*
G01*
X005808326Y010936522D01*
G01*
X005728769Y010871231D01*
G01*
X005663478Y010791674D01*
G01*
X005614963Y010700909D01*
G01*
X005585088Y010602422D01*
G01*
X005575000Y010500000D01*
G01*
X005585088Y010397578D01*
G01*
X005594733Y010365783D01*
G01*
X005578578Y010364577D01*
G01*
X005515386Y010427769D01*
G01*
X005435381Y010507774D01*
G01*
X005435037Y010508909D01*
G01*
X005386522Y010599674D01*
G01*
X005321231Y010679231D01*
G01*
X005241674Y010744522D01*
G01*
X005150909Y010793037D01*
G01*
X005052422Y010822912D01*
G01*
X004950000Y010833000D01*
G01*
X004847578Y010822912D01*
G01*
X004749091Y010793037D01*
G01*
X004658326Y010744522D01*
G01*
X004578769Y010679231D01*
G01*
X004513478Y010599674D01*
G01*
X004464963Y010508909D01*
G01*
X004435088Y010410422D01*
G01*
X004425000Y010308000D01*
G01*
X004435088Y010205578D01*
G01*
X004464963Y010107091D01*
G01*
X004513478Y010016326D01*
G01*
X004578769Y009936769D01*
G01*
X004658326Y009871478D01*
G01*
X004749091Y009822963D01*
G01*
X004847578Y009793088D01*
G01*
X004880520Y009789843D01*
G01*
X004938360Y009732003D01*
G01*
X004043398Y009732003D01*
G01*
X004043398Y008267997D01*
G01*
X004371636Y008267997D01*
G01*
X004371636Y007866638D01*
G01*
X004310114Y007791674D01*
G01*
X004261599Y007700909D01*
G01*
X004231724Y007602422D01*
G01*
X004221636Y007500000D01*
G01*
X004231724Y007397578D01*
G01*
X004261599Y007299091D01*
G01*
X004310114Y007208326D01*
G01*
X004375405Y007128769D01*
G01*
X004454962Y007063478D01*
G01*
X004545727Y007014963D01*
G01*
X004644214Y006985088D01*
G01*
X004746636Y006975000D01*
G01*
X004849058Y006985088D01*
G01*
X004947545Y007014963D01*
G01*
X005038310Y007063478D01*
G01*
X005117867Y007128769D01*
G01*
X005183158Y007208326D01*
G01*
X005231673Y007299091D01*
G01*
X005261548Y007397578D01*
G01*
X005271636Y007500000D01*
G01*
X005261548Y007602422D01*
G01*
X005231673Y007700909D01*
G01*
X005183158Y007791674D01*
G01*
X005121636Y007866638D01*
G01*
X005121636Y008267997D01*
G01*
X005449874Y008267997D01*
G01*
X005449874Y009452471D01*
G01*
X006756805Y009550000D01*
G01*
X007026698Y009550000D01*
G01*
X007313354Y009550000D01*
G01*
X007600010Y009550000D01*
G01*
X007886667Y009550000D01*
G01*
X008043398Y009550000D01*
G01*
X008043398Y009267997D01*
G01*
X009449874Y009267997D01*
G01*
X009449874Y010732003D01*
G01*
X009203364Y010732003D01*
G01*
X009203364Y011267997D01*
G01*
X009456602Y011267997D01*
G01*
X009456602Y012625000D01*
G01*
X010825000Y012625000D01*
G01*
X010825000Y010732003D01*
G01*
X010628364Y010732003D01*
G01*
X010628364Y010733362D01*
G01*
X010689886Y010808326D01*
G01*
X010738401Y010899091D01*
G01*
X010768276Y010997578D01*
G01*
X010778364Y011100000D01*
G01*
X010768276Y011202422D01*
G01*
X010738401Y011300909D01*
G01*
X010689886Y011391674D01*
G01*
X010624595Y011471231D01*
G01*
X010545038Y011536522D01*
G01*
X010454273Y011585037D01*
G01*
X010355786Y011614912D01*
G01*
X010253364Y011625000D01*
G01*
X010150942Y011614912D01*
G01*
X010052455Y011585037D01*
G01*
X009961690Y011536522D01*
G01*
X009882133Y011471231D01*
G01*
X009816842Y011391674D01*
G01*
X009768327Y011300909D01*
G01*
X009738452Y011202422D01*
G01*
X009728364Y011100000D01*
G01*
X009738452Y010997578D01*
G01*
X009768327Y010899091D01*
G01*
X009816842Y010808326D01*
G01*
X009878364Y010733362D01*
G01*
X009878364Y010732003D01*
G01*
X009550126Y010732003D01*
G01*
X009550126Y009267997D01*
G01*
X010825000Y009267997D01*
G01*
X010825000Y009000000D01*
G01*
X010832206Y008926841D01*
G01*
X010853545Y008856494D01*
G01*
X010888199Y008791661D01*
G01*
X010934835Y008734835D01*
G01*
X011325000Y008344670D01*
G01*
X011325000Y006375000D01*
G01*
X007800001Y006375000D01*
G01*
X007800001Y006625006D01*
G01*
X006200003Y006625006D01*
G01*
X006200003Y005374994D01*
G01*
X007800001Y005374994D01*
G01*
X007800001Y005625000D01*
G01*
X008199999Y005625000D01*
G01*
X008199999Y004425034D01*
G01*
X008624998Y004425034D01*
G01*
X008624998Y003866638D01*
G01*
X008563476Y003791674D01*
G01*
X008514961Y003700909D01*
G01*
X008485086Y003602422D01*
G01*
X008474998Y003500000D01*
G01*
X008485086Y003397578D01*
G01*
X008491935Y003375000D01*
G01*
X005456602Y003375000D01*
G01*
X005456602Y003732003D01*
G01*
X004050126Y003732003D01*
G01*
X004050126Y002267997D01*
G37*
D24*
G36*
X-16000000Y-03925000D02*
G01*
X-15897578Y-03914912D01*
G01*
X-15799091Y-03885037D01*
G01*
X-15708326Y-03836522D01*
G01*
X-15628769Y-03771231D01*
G01*
X-15563478Y-03691674D01*
G01*
X-15514963Y-03600909D01*
G01*
X-15485088Y-03502422D01*
G01*
X-15475000Y-03400000D01*
G01*
X-15485088Y-03297578D01*
G01*
X-15514963Y-03199091D01*
G01*
X-15563478Y-03108326D01*
G01*
X-15625000Y-03033362D01*
G01*
X-15625000Y000110904D01*
G01*
X-15521354Y-00065284D01*
G01*
X-15519809Y-00064375D01*
G01*
X-15507650Y-00087122D01*
G01*
X-15451687Y-00155314D01*
G01*
X-15383496Y-00211277D01*
G01*
X-15305697Y-00252861D01*
G01*
X-15221280Y-00278469D01*
G01*
X-15210462Y-00279535D01*
G01*
X-15210622Y-00280456D01*
G01*
X-14005004Y-00490210D01*
G01*
X-14005004Y-01975005D01*
G01*
X-11995000Y-01975005D01*
G01*
X-11995000Y-01549508D01*
G01*
X-11892700Y-01539432D01*
G01*
X-11789524Y-01508134D01*
G01*
X-11694436Y-01457308D01*
G01*
X-11611091Y-01388909D01*
G01*
X-11611086Y-01388903D01*
G01*
X-11549998Y-01327815D01*
G01*
X-11549998Y-01500000D01*
G01*
X-11539430Y-01607300D01*
G01*
X-11508132Y-01710476D01*
G01*
X-11457306Y-01805564D01*
G01*
X-11388907Y-01888909D01*
G01*
X-11305562Y-01957308D01*
G01*
X-11210474Y-02008134D01*
G01*
X-11107298Y-02039432D01*
G01*
X-10999998Y-02050000D01*
G01*
X-10892698Y-02039432D01*
G01*
X-10789522Y-02008134D01*
G01*
X-10694434Y-01957308D01*
G01*
X-10685529Y-01950000D01*
G01*
X-09345456Y-01950000D01*
G01*
X-09349486Y-01990923D01*
G01*
X-09371231Y-02008769D01*
G01*
X-09436522Y-02088326D01*
G01*
X-09485037Y-02179091D01*
G01*
X-09514912Y-02277578D01*
G01*
X-09525000Y-02380000D01*
G01*
X-09514912Y-02482422D01*
G01*
X-09485037Y-02580909D01*
G01*
X-09436522Y-02671674D01*
G01*
X-09371231Y-02751231D01*
G01*
X-09291675Y-02816522D01*
G01*
X-09200909Y-02865037D01*
G01*
X-09102423Y-02894912D01*
G01*
X-09000000Y-02905000D01*
G01*
X-08897578Y-02894912D01*
G01*
X-08799091Y-02865037D01*
G01*
X-08708326Y-02816522D01*
G01*
X-08628769Y-02751231D01*
G01*
X-08563479Y-02671674D01*
G01*
X-08514963Y-02580909D01*
G01*
X-08512064Y-02571352D01*
G01*
X-07911878Y-02598258D01*
G01*
X-07901231Y-02611231D01*
G01*
X-07821674Y-02676522D01*
G01*
X-07730909Y-02725037D01*
G01*
X-07632422Y-02754912D01*
G01*
X-07530000Y-02765000D01*
G01*
X-07427578Y-02754912D01*
G01*
X-07329091Y-02725037D01*
G01*
X-07238326Y-02676522D01*
G01*
X-07158769Y-02611231D01*
G01*
X-07093478Y-02531674D01*
G01*
X-07044963Y-02440909D01*
G01*
X-07015088Y-02342422D01*
G01*
X-07005000Y-02240000D01*
G01*
X-07015088Y-02137578D01*
G01*
X-07044963Y-02039091D01*
G01*
X-07092583Y-01950000D01*
G01*
X-07000000Y-01950000D01*
G01*
X-06912209Y-01941353D01*
G01*
X-06827792Y-01915746D01*
G01*
X-06749993Y-01874161D01*
G01*
X-06681802Y-01818198D01*
G01*
X-06625839Y-01750007D01*
G01*
X-06584254Y-01672208D01*
G01*
X-06558647Y-01587791D01*
G01*
X-06550000Y-01500000D01*
G01*
X-06550000Y001599977D01*
G01*
X-06250001Y001599977D01*
G01*
X-06250001Y002413579D01*
G01*
X-06173118Y002490462D01*
G01*
X-06003556Y002660024D01*
G01*
X-05993690Y002672046D01*
G01*
X-05981802Y002681802D01*
G01*
X-05925839Y002749993D01*
G01*
X-05884254Y002827792D01*
G01*
X-05858784Y002911757D01*
G01*
X-05858739Y002911748D01*
G01*
X-05708739Y003661748D01*
G01*
X-05708784Y003661757D01*
G01*
X-05708647Y003662209D01*
G01*
X-05700000Y003750000D01*
G01*
X-05708647Y003837791D01*
G01*
X-05712787Y003851441D01*
G01*
X-05711644Y003851706D01*
G01*
X-05861121Y004495957D01*
G01*
X-05861785Y004730143D01*
G01*
X-05862592Y005015204D01*
G01*
X-05863400Y005300264D01*
G01*
X-05864208Y005585325D01*
G01*
X-05865016Y005870385D01*
G01*
X-05865824Y006155446D01*
G01*
X-05866632Y006440507D01*
G01*
X-05866912Y006539119D01*
G01*
X-05820830Y006585444D01*
G01*
X-05643259Y006763955D01*
G01*
X-05465688Y006942465D01*
G01*
X-05288116Y007120975D01*
G01*
X-05237542Y007171816D01*
G01*
X-05153847Y007174054D01*
G01*
X-04890139Y007181103D01*
G01*
X-04626431Y007188153D01*
G01*
X-04362723Y007195203D01*
G01*
X-04099015Y007202253D01*
G01*
X-03924318Y007206923D01*
G01*
X-03925000Y007200000D01*
G01*
X-03914912Y007097578D01*
G01*
X-03885037Y006999091D01*
G01*
X-03836522Y006908326D01*
G01*
X-03775000Y006833362D01*
G01*
X-03775000Y006732003D01*
G01*
X-04449874Y006732003D01*
G01*
X-04449874Y005267997D01*
G01*
X-03111657Y005267997D01*
G01*
X-03091801Y005230850D01*
G01*
X-03045165Y005174023D01*
G01*
X-02988339Y005127387D01*
G01*
X-02923506Y005092734D01*
G01*
X-02855065Y005071972D01*
G01*
X-02518653Y004735561D01*
G01*
X-02514912Y004697578D01*
G01*
X-02485037Y004599091D01*
G01*
X-02436522Y004508326D01*
G01*
X-02371231Y004428769D01*
G01*
X-02291674Y004363478D01*
G01*
X-02200909Y004314963D01*
G01*
X-02102422Y004285088D01*
G01*
X-02000000Y004275000D01*
G01*
X-01897578Y004285088D01*
G01*
X-01799091Y004314963D01*
G01*
X-01708326Y004363478D01*
G01*
X-01628769Y004428769D01*
G01*
X-01563478Y004508326D01*
G01*
X-01514963Y004599091D01*
G01*
X-01500000Y004648419D01*
G01*
X-01485037Y004599091D01*
G01*
X-01436522Y004508326D01*
G01*
X-01371231Y004428769D01*
G01*
X-01291674Y004363478D01*
G01*
X-01200909Y004314963D01*
G01*
X-01129784Y004293388D01*
G01*
X-01069036Y004232640D01*
G01*
X-00874977Y004038581D01*
G01*
X-00680917Y003844521D01*
G01*
X-00486858Y003650461D01*
G01*
X-00422789Y003586392D01*
G01*
X-00421709Y003475481D01*
G01*
X-00418840Y003180743D01*
G01*
X-00415970Y002886005D01*
G01*
X-00413101Y002591267D01*
G01*
X-00410231Y002296529D01*
G01*
X-00407362Y002001791D01*
G01*
X-00404492Y001707053D01*
G01*
X-00401623Y001412315D01*
G01*
X-00399370Y001180937D01*
G01*
X-00745980Y000964049D01*
G01*
X-00745385Y000963098D01*
G01*
X-00757285Y000956738D01*
G01*
X-00819399Y000905762D01*
G01*
X-00819887Y000906268D01*
G01*
X-01006055Y000726474D01*
G01*
X-01192223Y000546680D01*
G01*
X-01240533Y000500025D01*
G01*
X-02200003Y000500033D01*
G01*
X-02200003Y000675046D01*
G01*
X-03800001Y000675046D01*
G01*
X-03800001Y-00574966D01*
G01*
X-02200003Y-00574966D01*
G01*
X-02200003Y-00402794D01*
G01*
X-02172643Y-00402891D01*
G01*
X-01896326Y-00403868D01*
G01*
X-01620009Y-00404846D01*
G01*
X-01343692Y-00405824D01*
G01*
X-01067375Y-00406802D01*
G01*
X-01067374Y-00406648D01*
G01*
X-01065782Y-00406805D01*
G01*
X-00996466Y-00399978D01*
G01*
X001549996Y-00400000D01*
G01*
X001550000Y-00400000D01*
G01*
X001637791Y-00391353D01*
G01*
X001722208Y-00365746D01*
G01*
X001800007Y-00324161D01*
G01*
X001868198Y-00268198D01*
G01*
X003129784Y000993388D01*
G01*
X003200909Y001014963D01*
G01*
X003291674Y001063478D01*
G01*
X003371231Y001128769D01*
G01*
X003436522Y001208326D01*
G01*
X003485037Y001299091D01*
G01*
X003514912Y001397578D01*
G01*
X003525000Y001500000D01*
G01*
X003514912Y001602422D01*
G01*
X003485037Y001700909D01*
G01*
X003436522Y001791674D01*
G01*
X003371231Y001871231D01*
G01*
X003291674Y001936522D01*
G01*
X003200909Y001985037D01*
G01*
X003102422Y002014912D01*
G01*
X003000000Y002025000D01*
G01*
X002897578Y002014912D01*
G01*
X002799091Y001985037D01*
G01*
X002733542Y001950000D01*
G01*
X001456602Y001950000D01*
G01*
X001456602Y002232003D01*
G01*
X000490440Y002232003D01*
G01*
X000489726Y002305291D01*
G01*
X000486857Y002600029D01*
G01*
X000483987Y002894767D01*
G01*
X000481118Y003189505D01*
G01*
X000478248Y003484243D01*
G01*
X000475379Y003778981D01*
G01*
X000474969Y003778977D01*
G01*
X000466753Y003862391D01*
G01*
X000441146Y003946807D01*
G01*
X000399561Y004024607D01*
G01*
X000343598Y004092798D01*
G01*
X000149539Y004286858D01*
G01*
X000079452Y004356945D01*
G01*
X000091674Y004363478D01*
G01*
X000171231Y004428769D01*
G01*
X000236522Y004508326D01*
G01*
X000285037Y004599091D01*
G01*
X000314912Y004697578D01*
G01*
X000325000Y004800000D01*
G01*
X000314912Y004902422D01*
G01*
X000285037Y005000909D01*
G01*
X000280469Y005009454D01*
G01*
X000307500Y005050001D01*
G01*
X001219670Y005050001D01*
G01*
X001475582Y004794088D01*
G01*
X001485088Y004697578D01*
G01*
X001514963Y004599091D01*
G01*
X001563478Y004508326D01*
G01*
X001628769Y004428769D01*
G01*
X001708326Y004363478D01*
G01*
X001799091Y004314963D01*
G01*
X001897578Y004285088D01*
G01*
X002000000Y004275000D01*
G01*
X002102422Y004285088D01*
G01*
X002200909Y004314963D01*
G01*
X002291674Y004363478D01*
G01*
X002371231Y004428769D01*
G01*
X002436522Y004508326D01*
G01*
X002485037Y004599091D01*
G01*
X002514912Y004697578D01*
G01*
X002525000Y004800000D01*
G01*
X002514912Y004902422D01*
G01*
X002485037Y005000909D01*
G01*
X002436522Y005091674D01*
G01*
X002371231Y005171231D01*
G01*
X002291674Y005236522D01*
G01*
X002200909Y005285037D01*
G01*
X002102422Y005314912D01*
G01*
X002005913Y005324418D01*
G01*
X001705406Y005624924D01*
G01*
X001933418Y005624953D01*
G01*
X002008326Y005563478D01*
G01*
X002099091Y005514963D01*
G01*
X002197578Y005485088D01*
G01*
X002294088Y005475582D01*
G01*
X002534835Y005234835D01*
G01*
X002591661Y005188199D01*
G01*
X002656494Y005153545D01*
G01*
X002726841Y005132206D01*
G01*
X002800000Y005125000D01*
G01*
X003043398Y005125000D01*
G01*
X003043398Y004767997D01*
G01*
X004449874Y004767997D01*
G01*
X004449874Y006232003D01*
G01*
X003043398Y006232003D01*
G01*
X003043398Y005875000D01*
G01*
X002955330Y005875000D01*
G01*
X002824418Y006005912D01*
G01*
X002814912Y006102422D01*
G01*
X002785037Y006200909D01*
G01*
X002736522Y006291674D01*
G01*
X002671231Y006371231D01*
G01*
X002591674Y006436522D01*
G01*
X002500909Y006485037D01*
G01*
X002402422Y006514912D01*
G01*
X002300000Y006525000D01*
G01*
X002197578Y006514912D01*
G01*
X002099091Y006485037D01*
G01*
X002008326Y006436522D01*
G01*
X001933305Y006374953D01*
G01*
X001349985Y006374879D01*
G01*
X001349985Y006449873D01*
G01*
X000449987Y006449873D01*
G01*
X000450000Y006450000D01*
G01*
X000441353Y006537791D01*
G01*
X000430315Y006574179D01*
G01*
X000432357Y006574768D01*
G01*
X000280978Y007099341D01*
G01*
X000280970Y007314765D01*
G01*
X000280959Y007593810D01*
G01*
X000280953Y007750001D01*
G01*
X001499975Y007750001D01*
G01*
X001499975Y009249999D01*
G01*
X001300479Y009249999D01*
G01*
X001314912Y009297578D01*
G01*
X001325000Y009400000D01*
G01*
X001314912Y009502422D01*
G01*
X001285037Y009600909D01*
G01*
X001236522Y009691674D01*
G01*
X001212319Y009721165D01*
G01*
X001291482Y009763478D01*
G01*
X001371039Y009828769D01*
G01*
X001436329Y009908326D01*
G01*
X001484844Y009999091D01*
G01*
X001514720Y010097578D01*
G01*
X001524808Y010200000D01*
G01*
X001514720Y010302422D01*
G01*
X001484844Y010400909D01*
G01*
X001436329Y010491674D01*
G01*
X001371039Y010571231D01*
G01*
X001291482Y010636522D01*
G01*
X001200716Y010685037D01*
G01*
X001134001Y010705275D01*
G01*
X000774923Y011303852D01*
G01*
X000774923Y011400219D01*
G01*
X000799923Y011400219D01*
G01*
X000799923Y012500218D01*
G01*
X-00000077Y012500218D01*
G01*
X-00400127Y012500218D01*
G01*
X-00799923Y012500218D01*
G01*
X-00799923Y012499964D01*
G01*
X-01199973Y012499964D01*
G01*
X-01199973Y011399965D01*
G01*
X-01174973Y011399965D01*
G01*
X-01174973Y011375637D01*
G01*
X-01960385Y010721105D01*
G01*
X-01999932Y010725000D01*
G01*
X-02102355Y010714912D01*
G01*
X-02200841Y010685037D01*
G01*
X-02291607Y010636522D01*
G01*
X-02371164Y010571231D01*
G01*
X-02436454Y010491674D01*
G01*
X-02484969Y010400909D01*
G01*
X-02514845Y010302422D01*
G01*
X-02524932Y010200000D01*
G01*
X-02514845Y010097578D01*
G01*
X-02484969Y009999091D01*
G01*
X-02436454Y009908326D01*
G01*
X-02371164Y009828769D01*
G01*
X-02291607Y009763478D01*
G01*
X-02200841Y009714963D01*
G01*
X-02152178Y009700201D01*
G01*
X-02308657Y009546750D01*
G01*
X-02507412Y009351842D01*
G01*
X-02706167Y009156934D01*
G01*
X-02904922Y008962025D01*
G01*
X-03103677Y008767117D01*
G01*
X-03302433Y008572209D01*
G01*
X-03463255Y008414500D01*
G01*
X-03977544Y008105821D01*
G01*
X-04123066Y008101931D01*
G01*
X-04386774Y008094882D01*
G01*
X-04650482Y008087832D01*
G01*
X-04914191Y008080782D01*
G01*
X-05177899Y008073732D01*
G01*
X-05441607Y008066682D01*
G01*
X-05441580Y008065661D01*
G01*
X-05517372Y008058197D01*
G01*
X-05601789Y008032589D01*
G01*
X-05679588Y007991004D01*
G01*
X-05747779Y007935041D01*
G01*
X-05748535Y007934120D01*
G01*
X-05748617Y007934201D01*
G01*
X-05926188Y007755691D01*
G01*
X-06103760Y007577181D01*
G01*
X-06281331Y007398670D01*
G01*
X-06458902Y007220160D01*
G01*
X-06636474Y007041650D01*
G01*
X-06636392Y007041569D01*
G01*
X-06691599Y006974299D01*
G01*
X-06733183Y006896499D01*
G01*
X-06758791Y006812083D01*
G01*
X-06767438Y006724292D01*
G01*
X-06767312Y006723017D01*
G01*
X-06767436Y006723017D01*
G01*
X-06766628Y006437956D01*
G01*
X-06765820Y006152896D01*
G01*
X-06765012Y005867835D01*
G01*
X-06764205Y005582774D01*
G01*
X-06763397Y005297714D01*
G01*
X-06762589Y005012653D01*
G01*
X-06761781Y004727593D01*
G01*
X-06760973Y004442532D01*
G01*
X-06760849Y004442532D01*
G01*
X-06752328Y004356017D01*
G01*
X-06748187Y004342366D01*
G01*
X-06749331Y004342101D01*
G01*
X-06610320Y003742958D01*
G01*
X-06714546Y003221826D01*
G01*
X-06809514Y003126858D01*
G01*
X-06936397Y002999975D01*
G01*
X-07302463Y002999975D01*
G01*
X-07770610Y003327689D01*
G01*
X-07771045Y003327067D01*
G01*
X-07777772Y003332588D01*
G01*
X-07846927Y003369552D01*
G01*
X-07921964Y003392314D01*
G01*
X-08000000Y003400000D01*
G01*
X-08210023Y003400000D01*
G01*
X-08210023Y003440005D01*
G01*
X-09475021Y003440005D01*
G01*
X-09475021Y002559995D01*
G01*
X-08210023Y002559995D01*
G01*
X-08210023Y002600000D01*
G01*
X-08126092Y002600000D01*
G01*
X-07749999Y002336726D01*
G01*
X-07749999Y001599977D01*
G01*
X-07450000Y001599977D01*
G01*
X-07450000Y001266458D01*
G01*
X-07463478Y001291674D01*
G01*
X-07528769Y001371231D01*
G01*
X-07608326Y001436522D01*
G01*
X-07699091Y001485037D01*
G01*
X-07797578Y001514912D01*
G01*
X-07877412Y001522775D01*
G01*
X-08210023Y001875670D01*
G01*
X-08210023Y002440007D01*
G01*
X-09475021Y002440007D01*
G01*
X-09475021Y001559997D01*
G01*
X-08943122Y001559997D01*
G01*
X-08424084Y001009305D01*
G01*
X-08425000Y001000000D01*
G01*
X-08414912Y000897578D01*
G01*
X-08385037Y000799091D01*
G01*
X-08336522Y000708326D01*
G01*
X-08271231Y000628769D01*
G01*
X-08191674Y000563478D01*
G01*
X-08100909Y000514963D01*
G01*
X-08002422Y000485088D01*
G01*
X-07900000Y000475000D01*
G01*
X-07797578Y000485088D01*
G01*
X-07699091Y000514963D01*
G01*
X-07608326Y000563478D01*
G01*
X-07528769Y000628769D01*
G01*
X-07463478Y000708326D01*
G01*
X-07450000Y000733542D01*
G01*
X-07450000Y-00101270D01*
G01*
X-07484610Y-00136153D01*
G01*
X-07649778Y-00302620D01*
G01*
X-07814946Y-00469088D01*
G01*
X-07848101Y-00502504D01*
G01*
X-07959674Y-00502504D01*
G01*
X-08018178Y-00508266D01*
G01*
X-08018429Y-00506356D01*
G01*
X-08713339Y-00597871D01*
G01*
X-09852378Y-00515774D01*
G01*
X-09923087Y-00444677D01*
G01*
X-09994996Y-00372373D01*
G01*
X-09994996Y000975005D01*
G01*
X-10649888Y000975005D01*
G01*
X-10707478Y001523554D01*
G01*
X-10707478Y001559997D01*
G01*
X-10524979Y001559997D01*
G01*
X-10524979Y002059869D01*
G01*
X-10524979Y002939879D01*
G01*
X-11065243Y002939879D01*
G01*
X-11069687Y002941227D01*
G01*
X-11157478Y002949874D01*
G01*
X-12000000Y002949874D01*
G01*
X-12087791Y002941227D01*
G01*
X-12172208Y002915620D01*
G01*
X-12250007Y002874035D01*
G01*
X-12318198Y002818072D01*
G01*
X-12326846Y002807535D01*
G01*
X-12327669Y002808310D01*
G01*
X-12523763Y002599989D01*
G01*
X-15660005Y002599989D01*
G01*
X-15660005Y001746455D01*
G01*
X-15750014Y001840683D01*
G01*
X-15929342Y002028417D01*
G01*
X-16108669Y002216152D01*
G01*
X-16109317Y002215533D01*
G01*
X-16115872Y002223521D01*
G01*
X-16184063Y002279484D01*
G01*
X-16261862Y002321068D01*
G01*
X-16315850Y002337445D01*
G01*
X-16315323Y002339372D01*
G01*
X-17508533Y002665810D01*
G01*
X-17509060Y002663883D01*
G01*
X-17539489Y002673114D01*
G01*
X-17627280Y002681760D01*
G01*
X-17653565Y002679171D01*
G01*
X-17653672Y002680986D01*
G01*
X-17739567Y002675939D01*
G01*
X-17793388Y002729760D01*
G01*
X-17989534Y002925906D01*
G01*
X-18000025Y002936397D01*
G01*
X-18000025Y003082337D01*
G01*
X-17968976Y003114925D01*
G01*
X-17766352Y003327594D01*
G01*
X-17563727Y003540262D01*
G01*
X-17361102Y003752931D01*
G01*
X-17158478Y003965599D01*
G01*
X-16955853Y004178268D01*
G01*
X-16753228Y004390936D01*
G01*
X-16753908Y004391584D01*
G01*
X-16704865Y004451341D01*
G01*
X-16663281Y004529140D01*
G01*
X-16641720Y004600216D01*
G01*
X-16178190Y004997780D01*
G01*
X-16179532Y004999344D01*
G01*
X-16152955Y005021155D01*
G01*
X-16146033Y005029589D01*
G01*
X-16145354Y005028942D01*
G01*
X-15942730Y005241610D01*
G01*
X-15740105Y005454279D01*
G01*
X-15740784Y005454926D01*
G01*
X-15691742Y005514684D01*
G01*
X-15650158Y005592483D01*
G01*
X-15624550Y005676900D01*
G01*
X-15616336Y005760291D01*
G01*
X-15615925Y005760287D01*
G01*
X-15613059Y006053127D01*
G01*
X-15610193Y006345966D01*
G01*
X-15607328Y006638806D01*
G01*
X-15604462Y006931645D01*
G01*
X-15601596Y007224485D01*
G01*
X-15598730Y007517324D01*
G01*
X-15595865Y007810164D01*
G01*
X-15592999Y008103004D01*
G01*
X-15590133Y008395843D01*
G01*
X-15587267Y008688683D01*
G01*
X-15584402Y008981522D01*
G01*
X-15581536Y009274362D01*
G01*
X-15578670Y009567202D01*
G01*
X-15575804Y009860041D01*
G01*
X-15572939Y010152881D01*
G01*
X-15570073Y010445720D01*
G01*
X-15567207Y010738560D01*
G01*
X-15564342Y011031400D01*
G01*
X-15561476Y011324239D01*
G01*
X-15558610Y011617079D01*
G01*
X-15555841Y011900002D01*
G01*
X-14924986Y011900002D01*
G01*
X-14924986Y013100000D01*
G01*
X-17074996Y013100000D01*
G01*
X-17074996Y011900002D01*
G01*
X-16455884Y011900002D01*
G01*
X-16458567Y011625886D01*
G01*
X-16461433Y011333046D01*
G01*
X-16464298Y011040207D01*
G01*
X-16467164Y010747367D01*
G01*
X-16470030Y010454527D01*
G01*
X-16472896Y010161688D01*
G01*
X-16475761Y009868848D01*
G01*
X-16478627Y009576009D01*
G01*
X-16481493Y009283169D01*
G01*
X-16484359Y008990329D01*
G01*
X-16487224Y008697490D01*
G01*
X-16490090Y008404650D01*
G01*
X-16492956Y008111811D01*
G01*
X-16495822Y007818971D01*
G01*
X-16498687Y007526131D01*
G01*
X-16501553Y007233292D01*
G01*
X-16504419Y006940452D01*
G01*
X-16507285Y006647613D01*
G01*
X-16510150Y006354773D01*
G01*
X-16513016Y006061934D01*
G01*
X-16514145Y005946590D01*
G01*
X-16594326Y005862434D01*
G01*
X-16781317Y005666174D01*
G01*
X-17392963Y005141574D01*
G01*
X-17391621Y005140009D01*
G01*
X-17418198Y005118198D01*
G01*
X-17474161Y005050007D01*
G01*
X-17515746Y004972208D01*
G01*
X-17541353Y004887791D01*
G01*
X-17543476Y004866236D01*
G01*
X-17607450Y004799091D01*
G01*
X-17810074Y004586423D01*
G01*
X-18012699Y004373754D01*
G01*
X-18215324Y004161086D01*
G01*
X-18417948Y003948417D01*
G01*
X-18606996Y003749999D01*
G01*
X-19400023Y003749999D01*
G01*
X-19400023Y002936390D01*
G01*
X-20418201Y001918195D01*
G01*
X-20474161Y001850007D01*
G01*
X-20515746Y001772208D01*
G01*
X-20541353Y001687791D01*
G01*
X-20550000Y001600000D01*
G01*
X-20550000Y000266458D01*
G01*
X-20585037Y000200909D01*
G01*
X-20614912Y000102422D01*
G01*
X-20625000Y000000000D01*
G01*
X-20614912Y-00102422D01*
G01*
X-20585037Y-00200909D01*
G01*
X-20536522Y-00291674D01*
G01*
X-20471231Y-00371231D01*
G01*
X-20391674Y-00436522D01*
G01*
X-20300909Y-00485037D01*
G01*
X-20202422Y-00514912D01*
G01*
X-20100000Y-00525000D01*
G01*
X-19997578Y-00514912D01*
G01*
X-19899091Y-00485037D01*
G01*
X-19833542Y-00450000D01*
G01*
X-19799997Y-00450000D01*
G01*
X-19799997Y-00625006D01*
G01*
X-18199999Y-00625006D01*
G01*
X-18199999Y000625006D01*
G01*
X-19650000Y000625006D01*
G01*
X-19650000Y001413606D01*
G01*
X-18813620Y002250001D01*
G01*
X-18586421Y002250001D01*
G01*
X-18429784Y002093364D01*
G01*
X-18233639Y001897219D01*
G01*
X-18165447Y001841255D01*
G01*
X-18087648Y001799671D01*
G01*
X-18003231Y001774063D01*
G01*
X-17915441Y001765417D01*
G01*
X-17905465Y001765417D01*
G01*
X-17879179Y001768006D01*
G01*
X-17879072Y001766191D01*
G01*
X-17674703Y001778198D01*
G01*
X-16931840Y001574966D01*
G01*
X-17800001Y001574966D01*
G01*
X-17800001Y000324954D01*
G01*
X-16375000Y000324954D01*
G01*
X-16375000Y-03033362D01*
G01*
X-16436522Y-03108326D01*
G01*
X-16485037Y-03199091D01*
G01*
X-16514912Y-03297578D01*
G01*
X-16525000Y-03400000D01*
G01*
X-16514912Y-03502422D01*
G01*
X-16485037Y-03600909D01*
G01*
X-16436522Y-03691674D01*
G01*
X-16371231Y-03771231D01*
G01*
X-16291674Y-03836522D01*
G01*
X-16200909Y-03885037D01*
G01*
X-16102422Y-03914912D01*
G01*
X-16000000Y-03925000D01*
G37*
D24*
G36*
X-12000000Y003049872D02*
G01*
X-11157478Y003049872D01*
G01*
X-11069687Y003058519D01*
G01*
X-11065243Y003059867D01*
G01*
X-10524979Y003059867D01*
G01*
X-10524979Y003559993D01*
G01*
X-10524979Y004440003D01*
G01*
X-10757478Y004440003D01*
G01*
X-10757478Y004479057D01*
G01*
X-10742156Y004625000D01*
G01*
X-09226678Y004625000D01*
G01*
X-09217522Y004607557D01*
G01*
X-09217522Y004440003D01*
G01*
X-09475021Y004440003D01*
G01*
X-09475021Y003559993D01*
G01*
X-08210023Y003559993D01*
G01*
X-08210023Y004440003D01*
G01*
X-08467522Y004440003D01*
G01*
X-08467522Y004700000D01*
G01*
X-08474728Y004773159D01*
G01*
X-08496067Y004843506D01*
G01*
X-08512078Y004873460D01*
G01*
X-08510488Y004874294D01*
G01*
X-08667966Y005174294D01*
G01*
X-08669556Y005173460D01*
G01*
X-08688199Y005208339D01*
G01*
X-08734835Y005265165D01*
G01*
X-08791661Y005311801D01*
G01*
X-08856494Y005346455D01*
G01*
X-08926841Y005367794D01*
G01*
X-09000000Y005375000D01*
G01*
X-09994996Y005375000D01*
G01*
X-09994996Y006975005D01*
G01*
X-10399998Y006975005D01*
G01*
X-10399998Y007524995D01*
G01*
X-09994996Y007524995D01*
G01*
X-09994996Y009475005D01*
G01*
X-12005000Y009475005D01*
G01*
X-12005000Y007524995D01*
G01*
X-11599998Y007524995D01*
G01*
X-11599998Y006975005D01*
G01*
X-12005000Y006975005D01*
G01*
X-12005000Y005867689D01*
G01*
X-12083346Y005891455D01*
G01*
X-12185769Y005901543D01*
G01*
X-12288191Y005891455D01*
G01*
X-12386677Y005861580D01*
G01*
X-12477443Y005813065D01*
G01*
X-12557000Y005747774D01*
G01*
X-12622290Y005668218D01*
G01*
X-12670805Y005577452D01*
G01*
X-12700681Y005478966D01*
G01*
X-12710769Y005376543D01*
G01*
X-12703231Y005300009D01*
G01*
X-15660005Y005300009D01*
G01*
X-15660005Y003400011D01*
G01*
X-12523944Y003400011D01*
G01*
X-12327715Y003191484D01*
G01*
X-12326888Y003192262D01*
G01*
X-12318198Y003181674D01*
G01*
X-12250007Y003125711D01*
G01*
X-12172208Y003084126D01*
G01*
X-12087791Y003058519D01*
G01*
X-12000000Y003049872D01*
G37*
D24*
G36*
X002543398Y002267997D02*
G01*
X003949874Y002267997D01*
G01*
X003949874Y003732003D01*
G01*
X002543398Y003732003D01*
G01*
X002543398Y003375000D01*
G01*
X002472160Y003375000D01*
G01*
X002485037Y003399091D01*
G01*
X002514912Y003497578D01*
G01*
X002525000Y003600000D01*
G01*
X002514912Y003702422D01*
G01*
X002485037Y003800909D01*
G01*
X002436522Y003891674D01*
G01*
X002371231Y003971231D01*
G01*
X002291674Y004036522D01*
G01*
X002200909Y004085037D01*
G01*
X002102422Y004114912D01*
G01*
X002000000Y004125000D01*
G01*
X001897578Y004114912D01*
G01*
X001799091Y004085037D01*
G01*
X001708326Y004036522D01*
G01*
X001628769Y003971231D01*
G01*
X001563478Y003891674D01*
G01*
X001514963Y003800909D01*
G01*
X001485088Y003702422D01*
G01*
X001475000Y003600000D01*
G01*
X001485088Y003497578D01*
G01*
X001514963Y003399091D01*
G01*
X001563478Y003308326D01*
G01*
X001625000Y003233362D01*
G01*
X001625000Y003000000D01*
G01*
X001632206Y002926841D01*
G01*
X001653545Y002856494D01*
G01*
X001688199Y002791661D01*
G01*
X001734835Y002734835D01*
G01*
X001791661Y002688199D01*
G01*
X001856494Y002653545D01*
G01*
X001926841Y002632206D01*
G01*
X002000000Y002625000D01*
G01*
X002543398Y002625000D01*
G01*
X002543398Y002267997D01*
G37*
D24*
G36*
X016443978Y002150069D02*
G01*
X018567978Y002150069D01*
G01*
X018567978Y003350067D01*
G01*
X016443978Y003350067D01*
G01*
X016443978Y003125068D01*
G01*
X016366638Y003125068D01*
G01*
X016291674Y003186590D01*
G01*
X016200909Y003235105D01*
G01*
X016102422Y003264980D01*
G01*
X016000000Y003275068D01*
G01*
X015897578Y003264980D01*
G01*
X015799091Y003235105D01*
G01*
X015708326Y003186590D01*
G01*
X015628769Y003121299D01*
G01*
X015563478Y003041742D01*
G01*
X015514963Y002950977D01*
G01*
X015485088Y002852490D01*
G01*
X015475000Y002750068D01*
G01*
X015485088Y002647646D01*
G01*
X015514963Y002549159D01*
G01*
X015563478Y002458394D01*
G01*
X015628769Y002378837D01*
G01*
X015708326Y002313546D01*
G01*
X015799091Y002265031D01*
G01*
X015897578Y002235156D01*
G01*
X016000000Y002225068D01*
G01*
X016102422Y002235156D01*
G01*
X016200909Y002265031D01*
G01*
X016291674Y002313546D01*
G01*
X016366638Y002375068D01*
G01*
X016443978Y002375068D01*
G01*
X016443978Y002150069D01*
G37*
D24*
G36*
X-05000000Y-00525000D02*
G01*
X-04897578Y-00514912D01*
G01*
X-04799091Y-00485037D01*
G01*
X-04708326Y-00436522D01*
G01*
X-04628769Y-00371231D01*
G01*
X-04563478Y-00291674D01*
G01*
X-04514963Y-00200909D01*
G01*
X-04485088Y-00102422D01*
G01*
X-04475000Y000000000D01*
G01*
X-04485088Y000102422D01*
G01*
X-04514963Y000200909D01*
G01*
X-04563478Y000291674D01*
G01*
X-04624999Y000366638D01*
G01*
X-04624999Y000374994D01*
G01*
X-04199999Y000374994D01*
G01*
X-04199999Y001625006D01*
G01*
X-05799997Y001625006D01*
G01*
X-05799997Y000374994D01*
G01*
X-05374999Y000374994D01*
G01*
X-05374999Y000366639D01*
G01*
X-05436522Y000291674D01*
G01*
X-05485037Y000200909D01*
G01*
X-05514912Y000102422D01*
G01*
X-05525000Y000000000D01*
G01*
X-05514912Y-00102422D01*
G01*
X-05485037Y-00200909D01*
G01*
X-05436522Y-00291674D01*
G01*
X-05371231Y-00371231D01*
G01*
X-05291674Y-00436522D01*
G01*
X-05200909Y-00485037D01*
G01*
X-05102422Y-00514912D01*
G01*
X-05000000Y-00525000D01*
G37*
D24*
G36*
X-05799989Y-03924950D02*
G01*
X-04199991Y-03924950D01*
G01*
X-04199991Y-01824953D01*
G01*
X-05799989Y-01824953D01*
G01*
X-05799989Y-03924950D01*
G37*
D24*
G36*
X-14949874Y-05732003D02*
G01*
X-13543398Y-05732003D01*
G01*
X-13543398Y-05489857D01*
G01*
X-03237699Y-05490300D01*
G01*
X-03237699Y-05490298D01*
G01*
X-03237682Y-05490300D01*
G01*
X-03164524Y-05483095D01*
G01*
X-03094176Y-05461755D01*
G01*
X-03029344Y-05427101D01*
G01*
X-02972517Y-05380465D01*
G01*
X-02972375Y-05380292D01*
G01*
X-02972360Y-05380307D01*
G01*
X-01518733Y-03924950D01*
G01*
X-00199999Y-03924950D01*
G01*
X-00199999Y-01824953D01*
G01*
X-01799997Y-01824953D01*
G01*
X-01799997Y-03145257D01*
G01*
X-02199995Y-03545731D01*
G01*
X-02199995Y-01824953D01*
G01*
X-03799993Y-01824953D01*
G01*
X-03799993Y-03924950D01*
G01*
X-02578763Y-03924950D01*
G01*
X-03393136Y-04740293D01*
G01*
X-13543398Y-04739857D01*
G01*
X-13543398Y-04267997D01*
G01*
X-14949874Y-04267997D01*
G01*
X-14949874Y-05732003D01*
G37*
D24*
G36*
X000199999Y-03924950D02*
G01*
X001799997Y-03924950D01*
G01*
X001799997Y-01824953D01*
G01*
X000199999Y-01824953D01*
G01*
X000199999Y-03924950D01*
G37*
D24*
G36*
X002199995Y-03924950D02*
G01*
X003799993Y-03924950D01*
G01*
X003799993Y-01824953D01*
G01*
X002199995Y-01824953D01*
G01*
X002199995Y-03924950D01*
G37*
D24*
G36*
X004199991Y-03924950D02*
G01*
X005799989Y-03924950D01*
G01*
X005799989Y-01824953D01*
G01*
X004199991Y-01824953D01*
G01*
X004199991Y-03924950D01*
G37*
D24*
G36*
X-16456602Y-05732003D02*
G01*
X-15050126Y-05732003D01*
G01*
X-15050126Y-04267997D01*
G01*
X-16456602Y-04267997D01*
G01*
X-16456602Y-04625000D01*
G01*
X-17549939Y-04625000D01*
G01*
X-17549939Y-04300001D01*
G01*
X-18949937Y-04300001D01*
G01*
X-18949937Y-05699999D01*
G01*
X-17549939Y-05699999D01*
G01*
X-17549939Y-05375000D01*
G01*
X-16456602Y-05375000D01*
G01*
X-16456602Y-05732003D01*
G37*
D24*
G36*
X-08800046Y-17175051D02*
G01*
X-06700049Y-17175051D01*
G01*
X-06700049Y-15855383D01*
G01*
X003222136Y-05933197D01*
G01*
X004611098Y-05933197D01*
G01*
X004666326Y-05978522D01*
G01*
X004757091Y-06027037D01*
G01*
X004855578Y-06056912D01*
G01*
X004958000Y-06067000D01*
G01*
X005060422Y-06056912D01*
G01*
X005158909Y-06027037D01*
G01*
X005249674Y-05978522D01*
G01*
X005329231Y-05913231D01*
G01*
X005394522Y-05833674D01*
G01*
X005443037Y-05742909D01*
G01*
X005472912Y-05644422D01*
G01*
X005483000Y-05542000D01*
G01*
X005472912Y-05439578D01*
G01*
X005443037Y-05341091D01*
G01*
X005394522Y-05250326D01*
G01*
X005329231Y-05170769D01*
G01*
X005249674Y-05105478D01*
G01*
X005158909Y-05056963D01*
G01*
X005060422Y-05027088D01*
G01*
X004958000Y-05017000D01*
G01*
X004855578Y-05027088D01*
G01*
X004757091Y-05056963D01*
G01*
X004666326Y-05105478D01*
G01*
X004586769Y-05170769D01*
G01*
X004576570Y-05183197D01*
G01*
X003066806Y-05183197D01*
G01*
X002993648Y-05190403D01*
G01*
X002923300Y-05211743D01*
G01*
X002858468Y-05246396D01*
G01*
X002801641Y-05293032D01*
G01*
X-06700049Y-14794723D01*
G01*
X-06700049Y-13575057D01*
G01*
X-08800046Y-13575057D01*
G01*
X-08800046Y-15175055D01*
G01*
X-07080381Y-15175055D01*
G01*
X-07480379Y-15575053D01*
G01*
X-08800046Y-15575053D01*
G01*
X-08800046Y-17175051D01*
G37*
D24*
G36*
X-08800046Y-07175071D02*
G01*
X-06700049Y-07175071D01*
G01*
X-06700049Y-05575073D01*
G01*
X-08800046Y-05575073D01*
G01*
X-08800046Y-07175071D01*
G37*
D24*
G36*
X-08800046Y-09175067D02*
G01*
X-06700049Y-09175067D01*
G01*
X-06700049Y-07575069D01*
G01*
X-08800046Y-07575069D01*
G01*
X-08800046Y-09175067D01*
G37*
D24*
G36*
X-08800046Y-13175059D02*
G01*
X-06700049Y-13175059D01*
G01*
X-06700049Y-11575061D01*
G01*
X-08800046Y-11575061D01*
G01*
X-08800046Y-13175059D01*
G37*
D24*
G36*
X006700049Y-17175051D02*
G01*
X008800046Y-17175051D01*
G01*
X008800046Y-15575053D01*
G01*
X006700049Y-15575053D01*
G01*
X006700049Y-17175051D01*
G37*
%LPD*%
D24*
G36*
X000770000Y013470000D02*
G01*
X-00770000Y013470000D01*
G01*
X-00770000Y012530000D01*
G01*
X000770000Y012530000D01*
G01*
X000770000Y013470000D01*
G37*
D24*
G36*
X-09400000Y003360000D02*
G01*
X-08510000Y003360000D01*
G01*
X-08510000Y003640000D01*
G01*
X-09400000Y003640000D01*
G01*
X-09400000Y004000000D01*
G01*
X-10600000Y004000000D01*
G01*
X-10600000Y003140000D01*
G01*
X-11490000Y003140000D01*
G01*
X-11490000Y002860000D01*
G01*
X-10600000Y002860000D01*
G01*
X-10600000Y002000000D01*
G01*
X-09400000Y002000000D01*
G01*
X-09400000Y003360000D01*
G37*
%ADD64C,0.999998*%
D64*
X-04319905Y022960177D03*
X-04319905Y022960177D02*
X-04319905Y022160178D01*
X-04319905Y022160178D03*
D64*
X004319905Y022960177D03*
X004319905Y022960177D02*
X004319905Y022160178D01*
X004319905Y022160178D03*
D64*
X004319905Y027160168D03*
X004319905Y027160168D02*
X004319905Y025960171D01*
X004319905Y025960171D03*
D64*
X-04319905Y027160168D03*
X-04319905Y027160168D02*
X-04319905Y025960171D01*
X-04319905Y025960171D03*
D22*
X003200019Y021960229D03*
D22*
X002399919Y021960229D03*
D23*
X001749933Y021960229D03*
D23*
X001249807Y021960229D03*
D23*
X000749935Y021960229D03*
D23*
X000249809Y021960229D03*
D23*
X-00250063Y021960229D03*
D23*
X-00750189Y021960229D03*
D23*
X-01250061Y021960229D03*
D23*
X-01750187Y021960229D03*
D22*
X-02400173Y021960229D03*
D22*
X-03200019Y021960229D03*
D25*
X000753364Y019000000D03*
D25*
X-00753364Y019000000D03*
D25*
X-03246636Y019000000D03*
D25*
X-04753364Y019000000D03*
D27*
X-00799973Y011949964D03*
D27*
X-00399923Y011950218D03*
D27*
X-00000127Y011950218D03*
D27*
X000399923Y011950218D03*
D27*
X000799973Y011950218D03*
D27*
X000799973Y014050036D03*
D27*
X000399923Y014050036D03*
D27*
X-00000127Y014050036D03*
D27*
X-00399923Y014050036D03*
D27*
X-00799973Y014050036D03*
D28*
X-00000127Y013000000D03*
D25*
X006253364Y009000000D03*
D25*
X004746636Y009000000D03*
D30*
X005200024Y011500000D03*
D30*
X003799976Y011500000D03*
D30*
X008700024Y020000000D03*
D30*
X007299976Y020000000D03*
D25*
X008753364Y023000000D03*
D25*
X007246636Y023000000D03*
D32*
X007249938Y026000000D03*
D32*
X008750062Y026000000D03*
D34*
X-19875015Y014799971D03*
D34*
X-19875015Y011200029D03*
D35*
X-15999991Y012500001D03*
D35*
X-15999991Y013499999D03*
D25*
X-05753364Y016000000D03*
D25*
X-04246636Y016000000D03*
D25*
X001753364Y017000000D03*
D25*
X000246636Y017000000D03*
D36*
X-06499998Y013400000D03*
D36*
X-04500002Y013400000D03*
D30*
X-05700024Y011000000D03*
D30*
X-04299976Y011000000D03*
D38*
X007750048Y-18375048D03*
D38*
X007750048Y-16375052D03*
D38*
X007750048Y-14375056D03*
D38*
X007750048Y-12375060D03*
D38*
X007750048Y-10375064D03*
D38*
X007750048Y-08375068D03*
D38*
X007750048Y-06375072D03*
D38*
X007750048Y-04375076D03*
D39*
X004999990Y-02874952D03*
D39*
X002999994Y-02874952D03*
D39*
X000999998Y-02874952D03*
D39*
X-00999998Y-02874952D03*
D39*
X-02999994Y-02874952D03*
D39*
X-04999990Y-02874952D03*
D38*
X-07750048Y-04375076D03*
D38*
X-07750048Y-06375072D03*
D38*
X-07750048Y-08375068D03*
D38*
X-07750048Y-10375064D03*
D38*
X-07750048Y-12375060D03*
D38*
X-07750048Y-14375056D03*
D38*
X-07750048Y-16375052D03*
D38*
X-07750048Y-18375048D03*
D30*
X011700024Y-08000000D03*
D30*
X010299976Y-08000000D03*
D40*
X012000000Y-03500002D03*
D40*
X012000000Y-05499998D03*
D24*
G36*
X020949973Y-06900105D02*
X021599959Y-06900105D01*
X021599959Y-06900105D01*
X021599959Y-05850120D01*
X021599959Y-05850120D01*
X020299936Y-05850120D01*
X020299936Y-05850120D01*
X020299936Y-06500080D01*
X020299936Y-06500080D01*
X020949947Y-06500080D01*
X020949947Y-06500080D01*
X020949947Y-06900079D01*
X020949947Y-06900079D01*
X020949973Y-06900105D01*
X020949973Y-06900105D01*
G37*
D24*
G36*
X020299936Y-11149880D02*
X021599959Y-11149880D01*
X021599959Y-11149880D01*
X021599959Y-10099895D01*
X021599959Y-10099895D01*
X020949973Y-10099895D01*
X020949973Y-10099895D01*
X020949947Y-10099921D01*
X020949947Y-10099921D01*
X020949947Y-10499920D01*
X020949947Y-10499920D01*
X020299936Y-10499920D01*
X020299936Y-10499920D01*
X020299936Y-11149880D01*
X020299936Y-11149880D01*
G37*
D43*
X019000040Y-10199971D03*
D43*
X019000040Y-06799927D03*
D44*
X015815092Y-03000000D03*
D44*
X020184908Y-03000000D03*
D25*
X-15753364Y-05000000D03*
D25*
X-14246636Y-05000000D03*
D32*
X-19750062Y-05000000D03*
D32*
X-18249938Y-05000000D03*
D46*
X010900157Y014799990D03*
D46*
X015499843Y014800244D03*
D47*
X014200125Y017325004D03*
D47*
X013200127Y017325004D03*
D47*
X012200129Y017325004D03*
D44*
X-21184908Y-09000000D03*
D44*
X-16815092Y-09000000D03*
D44*
X012315092Y011500000D03*
D44*
X016684908Y011500000D03*
D49*
X018606052Y008599942D03*
D49*
X020906022Y008599942D03*
D49*
X020906022Y001400058D03*
D49*
X018606052Y001400058D03*
D51*
X017505978Y007249932D03*
D51*
X017505978Y005750062D03*
D51*
X017505978Y002750068D03*
D25*
X003246636Y003000000D03*
D25*
X004753364Y003000000D03*
D53*
X-03000002Y000050040D03*
D53*
X-03000002Y001949960D03*
D53*
X-04999998Y001000000D03*
D25*
X-00753364Y001500000D03*
D25*
X000753364Y001500000D03*
D55*
X-11157478Y003999998D03*
D55*
X-11157478Y003499872D03*
D55*
X-11157478Y003000000D03*
D55*
X-11157478Y002499874D03*
D55*
X-11157478Y002000002D03*
D55*
X-08842522Y003999998D03*
D55*
X-08842522Y003499872D03*
D55*
X-08842522Y003000000D03*
D55*
X-08842522Y002499874D03*
D55*
X-08842522Y002000002D03*
D56*
X-10000000Y003000000D03*
D57*
X-14000000Y004350010D03*
D57*
X-14000000Y001649990D03*
D36*
X-14999998Y-01000000D03*
D36*
X-13000002Y-01000000D03*
D36*
X-09000002Y008500000D03*
D36*
X-10999998Y008500000D03*
D58*
X-07000000Y003700024D03*
D58*
X-07000000Y002299976D03*
D36*
X-09000002Y000000000D03*
D36*
X-10999998Y000000000D03*
D36*
X-09000002Y006000000D03*
D36*
X-10999998Y006000000D03*
D53*
X-17000002Y-00949960D03*
D53*
X-17000002Y000949960D03*
D53*
X-18999998Y000000000D03*
D30*
X-17299976Y003000000D03*
D30*
X-18700024Y003000000D03*
D60*
X-00749986Y005999873D03*
D60*
X000749986Y005999873D03*
D60*
X000749986Y006499999D03*
D60*
X000749986Y005500001D03*
D60*
X-00749986Y006499999D03*
D60*
X-00749986Y005500001D03*
D30*
X002200024Y008500000D03*
D30*
X000799976Y008500000D03*
D25*
X-05253364Y006000000D03*
D25*
X-03746636Y006000000D03*
D25*
X005253364Y005500000D03*
D25*
X003746636Y005500000D03*
D25*
X010253364Y010000000D03*
D25*
X008746636Y010000000D03*
D25*
X007246636Y012000000D03*
D25*
X008753364Y012000000D03*
D53*
X008999998Y005050040D03*
D53*
X008999998Y006949960D03*
D53*
X007000002Y006000000D03*
D10*
X007246636Y023000000D02*
X006000000Y021200000D01*
D10*
X004100000Y013300000D02*
X004100000Y012400000D01*
D10*
X004100000Y012400000D02*
X003799976Y011500000D01*
D63*
X006000000Y021200000D03*
D63*
X004100000Y013300000D03*
D10*
X-03200019Y021960229D02*
X-03200019Y020400000D01*
D10*
X-03200019Y020400000D02*
X-03600000Y020100000D01*
D10*
X-02400173Y021960229D02*
X-02400173Y020400000D01*
D10*
X-02400173Y020400000D02*
X-02000000Y019800000D01*
D10*
X-01750187Y021960229D02*
X-01750187Y020400000D01*
D10*
X-01750187Y020400000D02*
X-00800000Y019900000D01*
D10*
X001249807Y021960229D02*
X001249807Y020400000D01*
D10*
X001249807Y020400000D02*
X000800000Y019900000D01*
D10*
X002399919Y021960229D02*
X002399919Y020400000D01*
D10*
X002399919Y020400000D02*
X002000000Y019800000D01*
D10*
X003200019Y021960229D02*
X003200019Y020400000D01*
D10*
X003200019Y020400000D02*
X003600000Y019800000D01*
D10*
X-04753364Y019000000D02*
X-06000000Y019000000D01*
D10*
X-00753364Y019000000D02*
X-00753364Y019900000D01*
D10*
X-00753364Y019900000D02*
X-00800000Y019900000D01*
D10*
X000753364Y019000000D02*
X001753364Y019000000D01*
D10*
X001753364Y019000000D02*
X001753364Y018200000D01*
D10*
X-03246636Y019000000D02*
X-03246636Y019900000D01*
D10*
X-03246636Y019900000D02*
X-03600000Y020100000D01*
D10*
X-00799973Y011949964D02*
X-00799973Y011200000D01*
D10*
X-00799973Y011200000D02*
X-01999933Y010200000D01*
D10*
X-00399923Y011950218D02*
X-00399923Y011200000D01*
D10*
X-00399923Y011200000D02*
X-00999808Y010200000D01*
D10*
X-00000127Y011950218D02*
X-00000127Y011200000D01*
D10*
X-00000127Y011200000D02*
X-00000317Y010200000D01*
D10*
X000399923Y011950218D02*
X000399923Y011200000D01*
D10*
X000399923Y011200000D02*
X000999808Y010200000D01*
D10*
X000799973Y011950218D02*
X000799973Y011200000D01*
D10*
X000799973Y011200000D02*
X001999933Y010200000D01*
D10*
X000799973Y014050036D02*
X000799973Y014800000D01*
D10*
X000799973Y014800000D02*
X001999933Y015800000D01*
D10*
X000399923Y014050036D02*
X000399923Y014800000D01*
D10*
X000399923Y014800000D02*
X000999808Y015800000D01*
D10*
X-00000127Y014050036D02*
X-00000127Y014800000D01*
D10*
X-00000127Y014800000D02*
X-00000317Y015800000D01*
D10*
X-00799973Y014050036D02*
X-00799973Y014800000D01*
D10*
X-00799973Y014800000D02*
X-01999933Y015800000D01*
D10*
X-00000127Y013000000D02*
X-02500000Y013000000D01*
D10*
X006253364Y009000000D02*
X006253364Y007500000D01*
D10*
X004746636Y009000000D02*
X004746636Y007500000D01*
D10*
X008134907Y014783000D02*
X008324232Y014829768D01*
D10*
X008324232Y014829768D02*
X008306705Y014829768D01*
D10*
X008306705Y014829768D02*
X008243327Y014893146D01*
D10*
X008243327Y014893146D02*
X003932819Y014794151D01*
D10*
X003799976Y011500000D02*
X003800000Y010200000D01*
D10*
X005200024Y011500000D02*
X005200000Y013200000D01*
D10*
X-05753364Y016000000D02*
X-07400000Y016000000D01*
D10*
X000246636Y017000000D02*
X000246636Y017800000D01*
D10*
X001753364Y017000000D02*
X003000000Y017000000D01*
D10*
X003000000Y017000000D02*
X003000000Y016400000D01*
D10*
X-06499998Y013400000D02*
X-08400000Y013400000D01*
D11*
X-07750048Y-04375076D02*
X-09500000Y-04375076D01*
D12*
X007750048Y-04375076D02*
X008800000Y-05100000D01*
D10*
X010299976Y-08000000D02*
X009200000Y-08000000D01*
D10*
X011700024Y-08000000D02*
X013000000Y-08000000D01*
D10*
X012000000Y-05499998D02*
X010500000Y-05499998D01*
D10*
X012000000Y-03500002D02*
X014000000Y-03500002D01*
D10*
X020949947Y-10624888D02*
X020000000Y-10624888D01*
D10*
X020949947Y-06375112D02*
X020000000Y-06375112D01*
D10*
X014200125Y017325004D02*
X014200125Y019000000D01*
D10*
X013200127Y017325004D02*
X013200127Y019000000D01*
D10*
X012200129Y017325004D02*
X012200129Y019000000D01*
D10*
X015499843Y014800244D02*
X017300000Y014800244D01*
D10*
X010900157Y014799990D02*
X009300000Y016000000D01*
D10*
X012315092Y011500000D02*
X012315092Y013300000D01*
D10*
X-04999998Y001000000D02*
X-05000000Y000000000D01*
D10*
X-03000002Y001949960D02*
X-01500000Y001949960D01*
D10*
X-01500000Y001949960D02*
X-01500000Y003300000D01*
D10*
X-00753364Y001500000D02*
X-00753364Y003300000D01*
D10*
X-00753364Y003300000D02*
X-01500000Y003300000D01*
D12*
X000753364Y001500000D02*
X003000000Y001500000D01*
D10*
X003246636Y003000000D02*
X002000000Y003000000D01*
D10*
X002000000Y003000000D02*
X002000000Y003600000D01*
D11*
X-10999998Y000000000D02*
X-10999998Y-01500000D01*
D10*
X-07000000Y003700024D02*
X-07000000Y005000000D01*
D10*
X-07000000Y005000000D02*
X-07500000Y005000000D01*
D10*
X-07500000Y005000000D02*
X-07500000Y006000000D01*
D12*
X-11157478Y002000002D02*
X-11157478Y001500000D01*
D12*
X-11157478Y001500000D02*
X-10999998Y000000000D01*
D14*
X-11157478Y003999998D02*
X-11157478Y004500000D01*
D14*
X-11157478Y004500000D02*
X-10999998Y006000000D01*
D13*
X-10999998Y006000000D02*
X-10999998Y008500000D01*
D12*
X-11157478Y003499872D02*
X-12000000Y003499872D01*
D12*
X-12000000Y003499872D02*
X-12800000Y004350010D01*
D15*
X-12800000Y004350010D02*
X-14000000Y004350010D01*
D12*
X-11157478Y002499874D02*
X-12000000Y002499874D01*
D12*
X-12000000Y002499874D02*
X-12800000Y001649990D01*
D15*
X-12800000Y001649990D02*
X-14000000Y001649990D01*
D14*
X-08842522Y003000000D02*
X-08000000Y003000000D01*
D14*
X-08000000Y003000000D02*
X-07000000Y002299976D01*
D12*
X-07000000Y002299976D02*
X-07000000Y-01500000D01*
D12*
X-07000000Y-01500000D02*
X-10999998Y-01500000D01*
D12*
X-10999998Y-01500000D02*
X-10999998Y000000000D01*
D11*
X-13000002Y-01000000D02*
X-12000000Y-01000000D01*
D11*
X-12000000Y-01000000D02*
X-10999998Y000000000D01*
D10*
X-08842522Y003999998D02*
X-08842522Y004700000D01*
D10*
X-08842522Y004700000D02*
X-09000000Y005000000D01*
D10*
X-09000000Y005000000D02*
X-10999998Y005000000D01*
D10*
X-10999998Y005000000D02*
X-10999998Y006000000D01*
D14*
X-11157478Y003000000D02*
X-13000000Y003000000D01*
D14*
X-08842522Y003499872D02*
X-08000000Y003499872D01*
D14*
X-08000000Y003499872D02*
X-08000000Y004800000D01*
D10*
X-08842522Y002499874D02*
X-10000000Y002499874D01*
D10*
X-10000000Y002499874D02*
X-10000000Y003000000D01*
D10*
X-10000000Y003000000D02*
X-11157478Y003000000D01*
D10*
X-11157478Y003000000D02*
X-13000000Y003000000D01*
D10*
X-09000002Y000000000D02*
X-07800000Y000000000D01*
D10*
X-09000002Y006000000D02*
X-07500000Y006000000D01*
D10*
X-09000002Y008500000D02*
X-07500000Y008500000D01*
D10*
X-14999998Y-01000000D02*
X-14999998Y-03000000D01*
D12*
X-10000000Y003000000D02*
X-11157478Y003000000D01*
D12*
X-11157478Y003000000D02*
X-13000000Y003000000D01*
D10*
X-08842522Y002000002D02*
X-07900000Y001000000D01*
D12*
X-18999998Y000000000D02*
X-20100000Y000000000D01*
D10*
X-17000002Y-00949960D02*
X-17000002Y-02000000D01*
D10*
X-17299976Y003000000D02*
X-16500000Y004500000D01*
D10*
X000749986Y005500001D02*
X001300000Y005500001D01*
D10*
X001300000Y005500001D02*
X002000000Y004800000D01*
D10*
X000749986Y005999873D02*
X001300000Y005999873D01*
D10*
X001300000Y005999873D02*
X002300000Y006000000D01*
D10*
X000749986Y006499999D02*
X001300000Y006499999D01*
D10*
X001300000Y006499999D02*
X002000000Y007200000D01*
D10*
X002000000Y007200000D02*
X003200000Y008400000D01*
D10*
X003200000Y008400000D02*
X003200000Y008500000D01*
D10*
X-00749986Y006499999D02*
X-01300000Y006499999D01*
D10*
X-01300000Y006499999D02*
X-02000000Y007200000D01*
D10*
X-00749986Y005999873D02*
X-01300000Y005999873D01*
D10*
X-01300000Y005999873D02*
X-02300000Y006000000D01*
D10*
X-00749986Y005500001D02*
X-01300000Y005500001D01*
D10*
X-01300000Y005500001D02*
X-02000000Y004800000D01*
D10*
X000799976Y008500000D02*
X000800000Y009400000D01*
D10*
X002200024Y008500000D02*
X003200000Y008500000D01*
D10*
X-05253364Y006000000D02*
X-05253364Y004400000D01*
D10*
X005253364Y005500000D02*
X005253364Y004100000D01*
D10*
X010253364Y010000000D02*
X010253364Y011100000D01*
D10*
X008999998Y005050040D02*
X008999998Y003500000D01*
D10*
X008999998Y006949960D02*
X011000000Y006949960D01*
D12*
X-04500002Y014600000D02*
X-04500002Y013400000D01*
D10*
X007249938Y024000000D02*
X007249938Y026000000D01*
D10*
X017505978Y002750068D02*
X016000000Y002750068D01*
D10*
X-16000000Y-03400000D02*
X-16000000Y000949960D01*
D10*
X-16000000Y000949960D02*
X-17000002Y000949960D01*
D10*
X-07750048Y-16375052D02*
X003066806Y-05558197D01*
D10*
X003066806Y-05558197D02*
X004769371Y-05558197D01*
D10*
X004769371Y-05558197D02*
X004941803Y-05558197D01*
D10*
X004941803Y-05558197D02*
X004958000Y-05542000D01*
D10*
X-04246636Y017400000D02*
X-04246636Y016000000D01*
D10*
X-07750048Y-10375064D02*
X-19809936Y-10375064D01*
D10*
X-19809936Y-10375064D02*
X-21184908Y-09000000D01*
D10*
X-03400000Y007200000D02*
X-03400000Y006546636D01*
D10*
X-03400000Y006546636D02*
X-03746636Y006000000D01*
D10*
X007246636Y012000000D02*
X008000000Y013000000D01*
D10*
X008000000Y013000000D02*
X011200000Y013000000D01*
D10*
X011200000Y013000000D02*
X011200000Y009000000D01*
D10*
X011200000Y009000000D02*
X011700000Y008500000D01*
D10*
X011700000Y008500000D02*
X011700000Y006000000D01*
D10*
X011700000Y006000000D02*
X007000002Y006000000D01*
D10*
X006100000Y010500000D02*
X007246636Y012000000D01*
D10*
X-02052762Y007200000D02*
X-02780000Y006472762D01*
D10*
X-02780000Y006472762D02*
X-02780000Y005439189D01*
D10*
X-02780000Y005439189D02*
X-02691951Y005439189D01*
D10*
X-02691951Y005439189D02*
X-02052762Y004800000D01*
D10*
X002300000Y006000000D02*
X002800000Y005500000D01*
D10*
X002800000Y005500000D02*
X003746636Y005500000D01*
D10*
X017505978Y005750062D02*
X014755916Y003000000D01*
D10*
X014755916Y003000000D02*
X004753364Y003000000D01*
D10*
X-15753364Y-05000000D02*
X-15753000Y-05000000D01*
D10*
X-15753000Y-05000000D02*
X-18249938Y-05000000D01*
D10*
X-07750048Y-18375048D02*
X-06164599Y-18375048D01*
D10*
X-06164599Y-18375048D02*
X004204734Y-08005715D01*
D10*
X004204734Y-08005715D02*
X004226895Y-08005715D01*
D10*
X004226895Y-08005715D02*
X004302725Y-07929885D01*
D10*
X-00999998Y-02874952D02*
X-03237682Y-05115300D01*
D10*
X-03237682Y-05115300D02*
X-14044124Y-05114835D01*
D10*
X-14044124Y-05114835D02*
X-14134364Y-05112636D01*
D10*
X-14134364Y-05112636D02*
X-14246636Y-05000000D01*
D10*
X007750048Y-06375072D02*
X007862271Y-06487295D01*
D10*
X007862271Y-06487295D02*
X012766892Y-06487295D01*
D10*
X012766892Y-06487295D02*
X015815092Y-03439094D01*
D10*
X015815092Y-03439094D02*
X015815092Y-03000000D01*
D10*
X007750048Y-08375068D02*
X009325116Y-06800000D01*
D10*
X009325116Y-06800000D02*
X019000040Y-06799927D01*
D10*
X007750048Y-14375056D02*
X006738758Y-13363766D01*
D10*
X006738758Y-13363766D02*
X006738758Y-03294044D01*
D10*
X006738758Y-03294044D02*
X007459908Y-03294044D01*
D10*
X007459908Y-03294044D02*
X010249723Y-00504230D01*
D10*
X010249723Y-00504230D02*
X010338770Y-00504230D01*
D10*
X010338770Y-00504230D02*
X010420000Y-00423000D01*
D10*
X008753364Y023000000D02*
X008750062Y023002938D01*
D10*
X008750062Y023002938D02*
X008750062Y026000000D01*
D10*
X-04998488Y016909431D02*
X-04864571Y016740429D01*
D10*
X-04864571Y016740429D02*
X-04954440Y016650560D01*
D10*
X-04954440Y016650560D02*
X-04954440Y015528634D01*
D10*
X-04954440Y015528634D02*
X-05497440Y014985634D01*
D10*
X-05497440Y014985634D02*
X-05497440Y014003898D01*
D10*
X-05497440Y014003898D02*
X-05497440Y012197464D01*
D10*
X-05497440Y012197464D02*
X-04299976Y011000000D01*
D10*
X002647832Y017758795D02*
X000249440Y017802804D01*
D10*
X000249440Y017802804D02*
X000246636Y017800000D01*
D10*
X-10999998Y006000000D02*
X-10999998Y006093750D01*
D10*
X-10999998Y006093750D02*
X-10999998Y006187500D01*
D10*
X-10999998Y006187500D02*
X-10999998Y006281250D01*
D10*
X-10999998Y006281250D02*
X-10999998Y006375000D01*
D10*
X-10999998Y006375000D02*
X-10999998Y006468750D01*
D10*
X-10999998Y006468750D02*
X-10999998Y006562500D01*
D10*
X-10999998Y006562500D02*
X-10999998Y006575000D01*
D10*
X-10999998Y006575000D02*
X-10999998Y006656250D01*
D16*
X-10999998Y006656250D02*
X-10999998Y006750000D01*
D17*
X-10999998Y006750000D02*
X-10999998Y008499998D01*
D17*
X-10999998Y008499998D02*
X-11000000Y008500000D01*
D10*
X-07530000Y-02240000D02*
X-08801490Y-02183000D01*
D10*
X-08801490Y-02183000D02*
X-08962077Y-02022412D01*
D10*
X-08962077Y-02022412D02*
X-08977588Y-02022412D01*
D10*
X-08977588Y-02022412D02*
X-09000000Y-02380000D01*
D10*
X-12185769Y005376543D02*
X-11595000Y005405000D01*
D10*
X-11595000Y005405000D02*
X-11000000Y006000000D01*
D12*
X-10999998Y000000000D02*
X-10999998Y-01500000D01*
D12*
X-20100000Y000000000D02*
X-20100000Y001600000D01*
D12*
X-20100000Y001600000D02*
X-18700024Y003000000D01*
D12*
X-10999998Y000000000D02*
X-10810537Y-00190501D01*
D12*
X-10810537Y-00190501D02*
X-10621076Y-00381001D01*
D12*
X-10621076Y-00381001D02*
X-10431615Y-00571502D01*
D12*
X-10431615Y-00571502D02*
X-10242154Y-00762003D01*
D12*
X-10242154Y-00762003D02*
X-10052693Y-00952504D01*
D12*
X-10052693Y-00952504D02*
X-08700000Y-01050000D01*
D12*
X-08700000Y-01050000D02*
X-07959674Y-00952504D01*
D12*
X-07959674Y-00952504D02*
X-07660671Y-00952504D01*
D12*
X-07660671Y-00952504D02*
X-07495503Y-00786036D01*
D12*
X-07495503Y-00786036D02*
X-07330335Y-00619569D01*
D12*
X-07330335Y-00619569D02*
X-07165168Y-00453101D01*
D12*
X-07165168Y-00453101D02*
X-07000000Y-00286634D01*
D12*
X-07000000Y-00286634D02*
X-07000000Y000000767D01*
D12*
X-07000000Y000000767D02*
X-07000000Y000288168D01*
D12*
X-07000000Y000288168D02*
X-07000000Y000575569D01*
D12*
X-07000000Y000575569D02*
X-07000000Y000862971D01*
D12*
X-07000000Y000862971D02*
X-07000000Y001150372D01*
D12*
X-07000000Y001150372D02*
X-07000000Y001437773D01*
D12*
X-07000000Y001437773D02*
X-07000000Y001725174D01*
D12*
X-07000000Y001725174D02*
X-07000000Y002012575D01*
D12*
X-07000000Y002012575D02*
X-07000000Y002299976D01*
D12*
X-10999998Y000000000D02*
X-11284832Y-00006071D01*
D12*
X-11284832Y-00006071D02*
X-11569666Y-00012142D01*
D12*
X-11569666Y-00012142D02*
X-11854500Y-00018212D01*
D12*
X-11854500Y-00018212D02*
X-12139333Y-00024283D01*
D12*
X-12139333Y-00024283D02*
X-12424167Y-00030354D01*
D12*
X-12424167Y-00030354D02*
X-12709001Y-00036425D01*
D12*
X-12709001Y-00036425D02*
X-12993835Y-00042495D01*
D12*
X-12993835Y-00042495D02*
X-13278669Y-00048566D01*
D12*
X-13278669Y-00048566D02*
X-13563503Y-00054637D01*
D12*
X-13563503Y-00054637D02*
X-13848336Y-00060708D01*
D12*
X-13848336Y-00060708D02*
X-15133489Y000162884D01*
D12*
X-15133489Y000162884D02*
X-15279306Y000410760D01*
D12*
X-15279306Y000410760D02*
X-15425124Y000658635D01*
D17*
X-15425124Y000658635D02*
X-15531312Y000779317D01*
D18*
X-15531312Y000779317D02*
X-15637500Y000900000D01*
D18*
X-15637500Y000900000D02*
X-15637500Y001125000D01*
D18*
X-15637500Y001125000D02*
X-15750000Y001237500D01*
D18*
X-15750000Y001237500D02*
X-15862500Y001350000D01*
D17*
X-15862500Y001350000D02*
X-15896086Y001342120D01*
D12*
X-15896086Y001342120D02*
X-16075414Y001529854D01*
D12*
X-16075414Y001529854D02*
X-16254742Y001717588D01*
D12*
X-16254742Y001717588D02*
X-16434070Y001905323D01*
D12*
X-16434070Y001905323D02*
X-17627280Y002231760D01*
D12*
X-17627280Y002231760D02*
X-17905465Y002215417D01*
D12*
X-17905465Y002215417D02*
X-17915441Y002215417D01*
D12*
X-17915441Y002215417D02*
X-18111586Y002411562D01*
D12*
X-18111586Y002411562D02*
X-18307732Y002607708D01*
D12*
X-18307732Y002607708D02*
X-18503878Y002803854D01*
D12*
X-18503878Y002803854D02*
X-18700024Y003000000D01*
D12*
X-15999991Y012500001D02*
X-16002857Y012207161D01*
D12*
X-16002857Y012207161D02*
X-16005723Y011914322D01*
D12*
X-16005723Y011914322D02*
X-16008589Y011621482D01*
D12*
X-16008589Y011621482D02*
X-16011454Y011328643D01*
D12*
X-16011454Y011328643D02*
X-16014320Y011035803D01*
D12*
X-16014320Y011035803D02*
X-16017186Y010742963D01*
D12*
X-16017186Y010742963D02*
X-16020051Y010450124D01*
D12*
X-16020051Y010450124D02*
X-16022917Y010157284D01*
D12*
X-16022917Y010157284D02*
X-16025783Y009864445D01*
D12*
X-16025783Y009864445D02*
X-16028649Y009571605D01*
D12*
X-16028649Y009571605D02*
X-16031514Y009278766D01*
D12*
X-16031514Y009278766D02*
X-16034380Y008985926D01*
D12*
X-16034380Y008985926D02*
X-16037246Y008693086D01*
D12*
X-16037246Y008693086D02*
X-16040112Y008400247D01*
D12*
X-16040112Y008400247D02*
X-16042977Y008107407D01*
D12*
X-16042977Y008107407D02*
X-16045843Y007814568D01*
D12*
X-16045843Y007814568D02*
X-16048709Y007521728D01*
D12*
X-16048709Y007521728D02*
X-16051575Y007228888D01*
D12*
X-16051575Y007228888D02*
X-16054440Y006936049D01*
D12*
X-16054440Y006936049D02*
X-16057306Y006643209D01*
D12*
X-16057306Y006643209D02*
X-16060172Y006350370D01*
D12*
X-16060172Y006350370D02*
X-16063038Y006057530D01*
D12*
X-16063038Y006057530D02*
X-16065903Y005764690D01*
D12*
X-16065903Y005764690D02*
X-16268528Y005552022D01*
D12*
X-16268528Y005552022D02*
X-16471153Y005339353D01*
D12*
X-16471153Y005339353D02*
X-17100000Y004800000D01*
D12*
X-17100000Y004800000D02*
X-17079027Y004701348D01*
D12*
X-17079027Y004701348D02*
X-17281651Y004488679D01*
D12*
X-17281651Y004488679D02*
X-17484276Y004276011D01*
D12*
X-17484276Y004276011D02*
X-17686901Y004063342D01*
D12*
X-17686901Y004063342D02*
X-17889525Y003850674D01*
D12*
X-17889525Y003850674D02*
X-18092150Y003638005D01*
D12*
X-18092150Y003638005D02*
X-18294775Y003425337D01*
D12*
X-18294775Y003425337D02*
X-18497399Y003212668D01*
D12*
X-18497399Y003212668D02*
X-18700024Y003000000D01*
D12*
X-00999808Y010200000D02*
X-01198563Y010005092D01*
D12*
X-01198563Y010005092D02*
X-01397318Y009810183D01*
D12*
X-01397318Y009810183D02*
X-01596073Y009615275D01*
D12*
X-01596073Y009615275D02*
X-01794828Y009420367D01*
D12*
X-01794828Y009420367D02*
X-01993583Y009225458D01*
D12*
X-01993583Y009225458D02*
X-02192338Y009030550D01*
D12*
X-02192338Y009030550D02*
X-02391093Y008835642D01*
D12*
X-02391093Y008835642D02*
X-02589849Y008640733D01*
D12*
X-02589849Y008640733D02*
X-02788604Y008445825D01*
D12*
X-02788604Y008445825D02*
X-02987359Y008250917D01*
D12*
X-02987359Y008250917D02*
X-03186114Y008056008D01*
D12*
X-03186114Y008056008D02*
X-03847332Y007659142D01*
D12*
X-03847332Y007659142D02*
X-04111041Y007652092D01*
D12*
X-04111041Y007652092D02*
X-04374749Y007645042D01*
D12*
X-04374749Y007645042D02*
X-04638457Y007637993D01*
D12*
X-04638457Y007637993D02*
X-04902165Y007630943D01*
D12*
X-04902165Y007630943D02*
X-05165873Y007623893D01*
D12*
X-05165873Y007623893D02*
X-05429581Y007616843D01*
D12*
X-05429581Y007616843D02*
X-05607152Y007438333D01*
D12*
X-05607152Y007438333D02*
X-05784724Y007259823D01*
D12*
X-05784724Y007259823D02*
X-05962295Y007081312D01*
D12*
X-05962295Y007081312D02*
X-06139866Y006902802D01*
D12*
X-06139866Y006902802D02*
X-06317438Y006724292D01*
D12*
X-06317438Y006724292D02*
X-06316630Y006439231D01*
D12*
X-06316630Y006439231D02*
X-06315822Y006154171D01*
D12*
X-06315822Y006154171D02*
X-06315014Y005869110D01*
D12*
X-06315014Y005869110D02*
X-06314206Y005584050D01*
D12*
X-06314206Y005584050D02*
X-06313398Y005298989D01*
D12*
X-06313398Y005298989D02*
X-06312591Y005013928D01*
D12*
X-06312591Y005013928D02*
X-06311783Y004728868D01*
D12*
X-06311783Y004728868D02*
X-06310975Y004443807D01*
D12*
X-06310975Y004443807D02*
X-06150000Y003750000D01*
D12*
X-06150000Y003750000D02*
X-06300000Y003000000D01*
D12*
X-06300000Y003000000D02*
X-06306936Y003018504D01*
D12*
X-06306936Y003018504D02*
X-06321754Y002978222D01*
D12*
X-06321754Y002978222D02*
X-06491316Y002808660D01*
D12*
X-06491316Y002808660D02*
X-06660877Y002639099D01*
D12*
X-06660877Y002639099D02*
X-06830439Y002469537D01*
D12*
X-06830439Y002469537D02*
X-07000000Y002299976D01*
D12*
X-08088005Y014948005D02*
X-08217168Y015077168D01*
D12*
X-08217168Y015077168D02*
X-08217168Y015374317D01*
D12*
X-08217168Y015374317D02*
X-08217168Y015671466D01*
D12*
X-08217168Y015671466D02*
X-08217168Y015968616D01*
D12*
X-08217168Y015968616D02*
X-08217168Y016265765D01*
D12*
X-08217168Y016265765D02*
X-08217168Y016562915D01*
D12*
X-08217168Y016562915D02*
X-08217168Y016860064D01*
D12*
X-08217168Y016860064D02*
X-08217168Y017157214D01*
D12*
X-08217168Y017157214D02*
X-08217168Y017454363D01*
D12*
X-08217168Y017454363D02*
X-08217168Y017751513D01*
D12*
X-08217168Y017751513D02*
X-08217168Y018048662D01*
D12*
X-08217168Y018048662D02*
X-08217168Y018345812D01*
D12*
X-08217168Y018345812D02*
X-08217168Y018642961D01*
D12*
X-08217168Y018642961D02*
X-08217168Y018940110D01*
D12*
X-08217168Y018940110D02*
X-08217168Y019237260D01*
D12*
X-08217168Y019237260D02*
X-08217168Y019534409D01*
D12*
X-08217168Y019534409D02*
X-08217168Y019831559D01*
D12*
X-08217168Y019831559D02*
X-08217168Y020128708D01*
D12*
X-08217168Y020128708D02*
X-08217168Y020425858D01*
D12*
X-08217168Y020425858D02*
X-08011745Y020631280D01*
D12*
X-08011745Y020631280D02*
X-07806323Y020836703D01*
D12*
X-07806323Y020836703D02*
X-07600900Y021042125D01*
D12*
X-07600900Y021042125D02*
X-07395478Y021247547D01*
D12*
X-07395478Y021247547D02*
X-07190056Y021452970D01*
D12*
X-07190056Y021452970D02*
X-06984633Y021658392D01*
D12*
X-06984633Y021658392D02*
X-06779211Y021863815D01*
D12*
X-06779211Y021863815D02*
X-06573788Y022069237D01*
D12*
X-06573788Y022069237D02*
X-06368366Y022274659D01*
D12*
X-06368366Y022274659D02*
X-06162944Y022480082D01*
D12*
X-06162944Y022480082D02*
X-05957521Y022685504D01*
D12*
X-05957521Y022685504D02*
X-05752099Y022890926D01*
D12*
X-05752099Y022890926D02*
X-05546676Y023096349D01*
D12*
X-05546676Y023096349D02*
X-05341254Y023301771D01*
D12*
X-05341254Y023301771D02*
X-05135832Y023507194D01*
D12*
X-05135832Y023507194D02*
X-05175000Y023550000D01*
D12*
X-05175000Y023550000D02*
X-04875000Y023850000D01*
D12*
X-04875000Y023850000D02*
X-03166651Y023712616D01*
D12*
X-03166651Y023712616D02*
X-02872691Y023712616D01*
D12*
X-02872691Y023712616D02*
X-02578731Y023712616D01*
D12*
X-02578731Y023712616D02*
X-02284772Y023712616D01*
D12*
X-02284772Y023712616D02*
X-01990812Y023712616D01*
D12*
X-01990812Y023712616D02*
X-01696852Y023712616D01*
D12*
X-01696852Y023712616D02*
X-01402893Y023712616D01*
D12*
X-01402893Y023712616D02*
X-01108933Y023712616D01*
D12*
X-01108933Y023712616D02*
X-00814973Y023712616D01*
D12*
X-00814973Y023712616D02*
X-00521013Y023712616D01*
D12*
X-00521013Y023712616D02*
X-00227054Y023712616D01*
D12*
X-00227054Y023712616D02*
X000066906Y023712616D01*
D12*
X000066906Y023712616D02*
X000360866Y023712616D01*
D12*
X000360866Y023712616D02*
X000654825Y023712616D01*
D12*
X000654825Y023712616D02*
X000948785Y023712616D01*
D12*
X000948785Y023712616D02*
X001242745Y023712616D01*
D12*
X001242745Y023712616D02*
X001536705Y023712616D01*
D12*
X001536705Y023712616D02*
X001830664Y023712616D01*
D12*
X001830664Y023712616D02*
X002124624Y023712616D01*
D12*
X002124624Y023712616D02*
X002418584Y023712616D01*
D12*
X002418584Y023712616D02*
X002712544Y023712616D01*
D12*
X002712544Y023712616D02*
X003006503Y023712616D01*
D12*
X003006503Y023712616D02*
X003300463Y023712616D01*
D12*
X003300463Y023712616D02*
X003594423Y023712616D01*
D12*
X003594423Y023712616D02*
X003750000Y023850000D01*
D12*
X003750000Y023850000D02*
X004500000Y023850000D01*
D12*
X004500000Y023850000D02*
X005064221Y023712616D01*
D12*
X005064221Y023712616D02*
X005358181Y023712616D01*
D12*
X005358181Y023712616D02*
X005652141Y023712616D01*
D12*
X005652141Y023712616D02*
X005946100Y023712616D01*
D12*
X005946100Y023712616D02*
X006240060Y023712616D01*
D12*
X006240060Y023712616D02*
X006534020Y023712616D01*
D12*
X006534020Y023712616D02*
X006712174Y023534462D01*
D12*
X006712174Y023534462D02*
X006890328Y023356308D01*
D12*
X006890328Y023356308D02*
X007068482Y023178154D01*
D12*
X007068482Y023178154D02*
X007246636Y023000000D01*
D12*
X008746636Y010000000D02*
X008753364Y010006728D01*
D12*
X008753364Y010006728D02*
X008753364Y012000000D01*
D12*
X-01000000Y004800000D02*
X-00300000Y004950000D01*
D12*
X-00300000Y004950000D02*
X000000000Y005400000D01*
D12*
X000000000Y005400000D02*
X-00168989Y006198569D01*
D12*
X-00168989Y006198569D02*
X000000000Y006450000D01*
D12*
X000000000Y006450000D02*
X-00169020Y007035703D01*
D12*
X-00169020Y007035703D02*
X-00169030Y007314748D01*
D12*
X-00169030Y007314748D02*
X-00169041Y007593793D01*
D12*
X-00169041Y007593793D02*
X-00169051Y007872838D01*
D12*
X-00169051Y007872838D02*
X-00169062Y008151883D01*
D12*
X-00169062Y008151883D02*
X-00169072Y008430928D01*
D12*
X-00169072Y008430928D02*
X-00022825Y008577175D01*
D12*
X-00022825Y008577175D02*
X000123423Y008723423D01*
D12*
X000123423Y008723423D02*
X000269670Y008869670D01*
D12*
X000269670Y008869670D02*
X000335961Y008935961D01*
D12*
X000335961Y008935961D02*
X000402252Y009002252D01*
D12*
X000402252Y009002252D02*
X000468544Y009068544D01*
D12*
X000468544Y009068544D02*
X000534835Y009134835D01*
D12*
X000534835Y009134835D02*
X000601126Y009201126D01*
D12*
X000601126Y009201126D02*
X000667417Y009267417D01*
D12*
X000667417Y009267417D02*
X000725000Y009325000D01*
D12*
X000725000Y009325000D02*
X000733709Y009333709D01*
D12*
X000733709Y009333709D02*
X000800000Y009400000D01*
D12*
X-00819000Y017465000D02*
X-00868113Y017289387D01*
D12*
X-00868113Y017289387D02*
X-00917226Y017113774D01*
D12*
X-00917226Y017113774D02*
X-00917226Y017101437D01*
D12*
X-00917226Y017101437D02*
X-01097677Y016920986D01*
D12*
X-01097677Y016920986D02*
X-01278128Y016740535D01*
D12*
X-01278128Y016740535D02*
X-01458579Y016560084D01*
D12*
X-01458579Y016560084D02*
X-01639030Y016379633D01*
D12*
X-01639030Y016379633D02*
X-01819481Y016199182D01*
D12*
X-01819481Y016199182D02*
X-01999933Y016018731D01*
D12*
X-01999933Y016018731D02*
X-01999933Y015800000D01*
D12*
X005335000Y019015000D02*
X005558229Y019099229D01*
D12*
X005558229Y019099229D02*
X005673180Y019099229D01*
D12*
X005673180Y019099229D02*
X006573951Y020000000D01*
D12*
X006573951Y020000000D02*
X007299976Y020000000D01*
D12*
X-03000002Y000050040D02*
X-02723685Y000049062D01*
D12*
X-02723685Y000049062D02*
X-02447368Y000048084D01*
D12*
X-02447368Y000048084D02*
X-02171051Y000047107D01*
D12*
X-02171051Y000047107D02*
X-01894734Y000046129D01*
D12*
X-01894734Y000046129D02*
X-01618416Y000045151D01*
D12*
X-01618416Y000045151D02*
X-01342099Y000044173D01*
D12*
X-01342099Y000044173D02*
X-01065782Y000043195D01*
D12*
X-01065782Y000043195D02*
X-00879614Y000222989D01*
D12*
X-00879614Y000222989D02*
X-00693446Y000402783D01*
D12*
X-00693446Y000402783D02*
X-00507278Y000582577D01*
D12*
X-00507278Y000582577D02*
X000000000Y000900000D01*
D12*
X000000000Y000900000D02*
X000051226Y001121958D01*
D12*
X000051226Y001121958D02*
X000048356Y001416696D01*
D12*
X000048356Y001416696D02*
X000045487Y001711434D01*
D12*
X000045487Y001711434D02*
X000042617Y002006172D01*
D12*
X000042617Y002006172D02*
X000039748Y002300910D01*
D12*
X000039748Y002300910D02*
X000036878Y002595648D01*
D12*
X000036878Y002595648D02*
X000034009Y002890386D01*
D12*
X000034009Y002890386D02*
X000031139Y003185124D01*
D12*
X000031139Y003185124D02*
X000028270Y003479862D01*
D12*
X000028270Y003479862D02*
X000025400Y003774600D01*
D12*
X000025400Y003774600D02*
X-00168660Y003968660D01*
D12*
X-00168660Y003968660D02*
X-00362719Y004162719D01*
D12*
X-00362719Y004162719D02*
X-00556779Y004356779D01*
D12*
X-00556779Y004356779D02*
X-00750838Y004550838D01*
D12*
X-00750838Y004550838D02*
X-00944898Y004744898D01*
D12*
X-00944898Y004744898D02*
X-00200000Y004800000D01*
D12*
X-03000002Y000050040D02*
X001550000Y000050000D01*
D12*
X001550000Y000050000D02*
X003000000Y001500000D01*
D12*
X004950000Y010308000D02*
X005038858Y010219142D01*
D12*
X005038858Y010219142D02*
X005087617Y010219142D01*
D12*
X005087617Y010219142D02*
X005197188Y010109571D01*
D12*
X005197188Y010109571D02*
X005306759Y010000000D01*
D12*
X005306759Y010000000D02*
X005400000Y009900000D01*
D12*
X005400000Y009900000D02*
X006740041Y010000000D01*
D12*
X006740041Y010000000D02*
X007026698Y010000000D01*
D12*
X007026698Y010000000D02*
X007313354Y010000000D01*
D12*
X007313354Y010000000D02*
X007600010Y010000000D01*
D12*
X007600010Y010000000D02*
X007886667Y010000000D01*
D12*
X007886667Y010000000D02*
X008173323Y010000000D01*
D12*
X008173323Y010000000D02*
X008459980Y010000000D01*
D12*
X008459980Y010000000D02*
X008746636Y010000000D01*
D10*
X019000040Y-10199971D02*
X019575083Y-10199971D01*
D10*
X019575083Y-10199971D02*
X020000000Y-10624888D01*
D10*
X001753364Y018200000D02*
X001834906Y018281542D01*
D10*
X001834906Y018281542D02*
X002719445Y018281542D01*
D10*
X002719445Y018281542D02*
X002842757Y018322140D01*
D10*
X002842757Y018322140D02*
X003149378Y018051118D01*
D10*
X003149378Y018051118D02*
X003090981Y016490981D01*
D10*
X003090981Y016490981D02*
X003000000Y016400000D01*
D10*
X003600000Y019800000D02*
X003353364Y019800000D01*
D10*
X003353364Y019800000D02*
X001753364Y018200000D01*
D10*
X-05700024Y011000000D02*
X-05700024Y010299976D01*
D10*
X-05700024Y010299976D02*
X-07500000Y008500000D01*
D10*
X003200000Y008500000D02*
X003200000Y008150000D01*
D10*
X003200000Y008150000D02*
X004287480Y007028857D01*
D10*
X004287480Y007028857D02*
X005815724Y007042561D01*
D10*
X005815724Y007042561D02*
X006253000Y007500000D01*
D10*
X005186511Y020932801D02*
X005548070Y020869930D01*
D10*
X005548070Y020869930D02*
X005548070Y020838997D01*
D10*
X005548070Y020838997D02*
X005724649Y020684699D01*
D10*
X005724649Y020684699D02*
X008037605Y020695131D01*
D10*
X008037605Y020695131D02*
X008700024Y020000000D01*
D10*
X017300000Y014800000D02*
X016684908Y014184908D01*
D10*
X016684908Y014184908D02*
X016684908Y011500000D01*
D10*
X020000000Y-06375112D02*
X020184908Y-06190204D01*
D10*
X020184908Y-06190204D02*
X020184908Y-03000000D01*
D10*
X005253364Y004100000D02*
X006253364Y005100000D01*
D10*
X006253364Y005100000D02*
X006253364Y007500000D01*
D10*
X-19875015Y011200029D02*
X-19875015Y014799971D01*
D10*
X-08400000Y013400000D02*
X-08100000Y013400000D01*
D10*
X-08100000Y013400000D02*
X-05700024Y011000000D01*
D10*
X017505978Y007249932D02*
X018855942Y008599942D01*
D10*
X018855942Y008599942D02*
X020906022Y008599942D01*
D10*
X005200000Y013200000D02*
X004065259Y014328711D01*
D10*
X004065259Y014328711D02*
X003633260Y014294348D01*
D10*
X003633260Y014294348D02*
X002993310Y014998499D01*
D10*
X002993310Y014998499D02*
X003000000Y016400000D01*
D10*
X019000040Y-10199971D02*
X019000040Y-09595143D01*
D10*
X019000040Y-09595143D02*
X020163283Y-08431901D01*
D10*
X020163283Y-08431901D02*
X020566656Y-08431901D01*
D10*
X020566656Y-08431901D02*
X021164990Y-07833567D01*
D10*
X021164990Y-07833567D02*
X021212324Y-07491270D01*
D10*
X021212324Y-07491270D02*
X020000000Y-06375112D01*
D10*
X008700024Y020000000D02*
X009300000Y019400024D01*
D10*
X009300000Y019400024D02*
X009300000Y016000000D01*
D10*
X-19750062Y-05000000D02*
X-17000002Y-02250002D01*
D10*
X-17000002Y-02250002D02*
X-17000002Y-02000000D01*
D10*
X-15999991Y013499999D02*
X-18574999Y013499999D01*
D10*
X-18574999Y013499999D02*
X-19875015Y014799971D01*
D10*
X016684908Y011500000D02*
X017505978Y010679022D01*
D10*
X017505978Y010679022D02*
X017505978Y007249932D01*
D10*
X002000000Y010200000D02*
X002011733Y010211733D01*
D10*
X002011733Y010211733D02*
X002009619Y011946941D01*
D10*
X002009619Y011946941D02*
X003823922Y013817019D01*
D10*
X003823922Y013817019D02*
X003943275Y013787106D01*
D10*
X003943275Y013787106D02*
X004612894Y013787106D01*
D10*
X004612894Y013787106D02*
X005200000Y013200000D01*
D10*
X008700024Y020000000D02*
X012200127Y020000000D01*
D10*
X012200127Y020000000D02*
X013200127Y019000000D01*
D10*
X-19750062Y-05000000D02*
X-19750062Y-06064938D01*
D10*
X-19750062Y-06064938D02*
X-16815092Y-09000000D01*
D10*
X001999933Y010200000D02*
X000739922Y011464644D01*
D10*
X000739922Y011464644D02*
X000739922Y012361157D01*
D10*
X000739922Y012361157D02*
X000096445Y013000000D01*
D10*
X000096445Y013000000D02*
X-02500000Y013000000D01*
D10*
X013000000Y-08000000D02*
X016800000Y-08000000D01*
D10*
X016800000Y-08000000D02*
X019000040Y-10199971D01*
D10*
X-19875015Y011200029D02*
X-19781339Y011200029D01*
D10*
X-19781339Y011200029D02*
X-18786985Y010205675D01*
D10*
X-18786985Y010205675D02*
X-18786985Y010167985D01*
D10*
X-18786985Y010167985D02*
X-18693000Y010074000D01*
D10*
X020184908Y-03000000D02*
X018501407Y-01316407D01*
D10*
X018501407Y-01316407D02*
X018505265Y-01197673D01*
D10*
X018505265Y-01197673D02*
X018510805Y006254501D01*
D10*
X018510805Y006254501D02*
X017505978Y007249932D01*
D63*
X-03600000Y020100000D03*
D63*
X-02000000Y019800000D03*
D63*
X-00800000Y019900000D03*
D63*
X000800000Y019900000D03*
D63*
X002000000Y019800000D03*
D63*
X003600000Y019800000D03*
D63*
X-06000000Y019000000D03*
D63*
X-01999933Y010200000D03*
D63*
X-00999808Y010200000D03*
D63*
X-00000317Y010200000D03*
D63*
X000999808Y010200000D03*
D63*
X001999933Y010200000D03*
D63*
X001999933Y015800000D03*
D63*
X000999808Y015800000D03*
D63*
X-00000317Y015800000D03*
D63*
X-01999933Y015800000D03*
D63*
X-02500000Y013000000D03*
D63*
X006253364Y007500000D03*
D63*
X004746636Y007500000D03*
D63*
X008134907Y014783000D03*
D63*
X003932819Y014794151D03*
D63*
X003800000Y010200000D03*
D63*
X005200000Y013200000D03*
D63*
X-07400000Y016000000D03*
D63*
X000246636Y017800000D03*
D63*
X003000000Y016400000D03*
D63*
X-08400000Y013400000D03*
D63*
X-09500000Y-04375076D03*
D63*
X008800000Y-05100000D03*
D63*
X009200000Y-08000000D03*
D63*
X013000000Y-08000000D03*
D63*
X010500000Y-05499998D03*
D63*
X014000000Y-03500002D03*
D63*
X014200125Y019000000D03*
D63*
X013200127Y019000000D03*
D63*
X012200129Y019000000D03*
D63*
X017300000Y014800244D03*
D63*
X009300000Y016000000D03*
D63*
X012315092Y013300000D03*
D63*
X-05000000Y000000000D03*
D63*
X-01500000Y003300000D03*
D63*
X003000000Y001500000D03*
D63*
X002000000Y003600000D03*
D63*
X-10999998Y-01500000D03*
D63*
X-07500000Y006000000D03*
D63*
X-13000000Y003000000D03*
D63*
X-08000000Y004800000D03*
D63*
X-07800000Y000000000D03*
D63*
X-07500000Y008500000D03*
D63*
X-14999998Y-03000000D03*
D63*
X-07900000Y001000000D03*
D63*
X-20100000Y000000000D03*
D63*
X-17000002Y-02000000D03*
D63*
X-16500000Y004500000D03*
D63*
X002000000Y004800000D03*
D63*
X002300000Y006000000D03*
D63*
X-02000000Y007200000D03*
D63*
X-02300000Y006000000D03*
D63*
X-02000000Y004800000D03*
D63*
X000800000Y009400000D03*
D63*
X003200000Y008500000D03*
D63*
X-05253364Y004400000D03*
D63*
X005253364Y004100000D03*
D63*
X010253364Y011100000D03*
D63*
X008999998Y003500000D03*
D63*
X011000000Y006949960D03*
D63*
X-04500002Y014600000D03*
D63*
X007249938Y024000000D03*
D63*
X016000000Y002750068D03*
D63*
X-16000000Y-03400000D03*
D63*
X004958000Y-05542000D03*
D63*
X-04246636Y017400000D03*
D63*
X-03400000Y007200000D03*
D63*
X006100000Y010500000D03*
D63*
X004302725Y-07929885D03*
D63*
X010420000Y-00423000D03*
D63*
X-04998488Y016909431D03*
D63*
X002647832Y017758795D03*
D63*
X-07530000Y-02240000D03*
D63*
X-09000000Y-02380000D03*
D63*
X-12185769Y005376543D03*
D63*
X-08088005Y014948005D03*
D63*
X-01000000Y004800000D03*
D63*
X-00819000Y017465000D03*
D63*
X005335000Y019015000D03*
D63*
X-00200000Y004800000D03*
D63*
X004950000Y010308000D03*
D63*
X005186511Y020932801D03*
D63*
X-18693000Y010074000D03*
%LPC*%
D42*
X020300012Y-09349833D03*
%LPD*%
%LPC*%
D42*
X020300012Y-07649811D03*
%LPD*%
%LPC*%
D48*
X019756164Y003500130D03*
%LPD*%
%LPC*%
D48*
X019756164Y006500124D03*
%LPD*%
%LPC*%
D62*
X-19000000Y025000000D03*
%LPD*%
%LPC*%
D62*
X019000000Y025000000D03*
%LPD*%
%LPC*%
D62*
X-19000000Y-14000000D03*
%LPD*%
%LPC*%
D62*
X019000000Y-14000000D03*
%LPD*%
M02*