%TF.GenerationSoftware,tscircuit,circuit-json-to-gerber,0.0.109*%
%TF.CreationDate,2026-10-06T18:31:51.917Z*%
%TF.SameCoordinates,Original*%
%TF.FileFunction,Profile,NP*%
%FSLAX46Y46*%
%MOMM*%
G04 Gerber Fmt 4.6, Leading zero omitted, Abs format (unit mm)*
G04 Created by tscircuit (builder) date 2026-10-06T18:31:51.917Z*
G01*
%LPD*%
G75*
%ADD10C,0.050000*%
D10*
X-20000000Y-28000000D02*
X020000000Y-28000000D01*
X020098135Y-27997591D01*
X020196034Y-27990369D01*
X020293461Y-27978353D01*
X020390181Y-27961571D01*
X020485960Y-27940063D01*
X020580569Y-27913881D01*
X020673780Y-27883088D01*
X020765367Y-27847759D01*
X020855110Y-27807979D01*
X020942793Y-27763843D01*
X021028205Y-27715457D01*
X021111140Y-27662939D01*
X021191399Y-27606415D01*
X021268787Y-27546021D01*
X021343118Y-27481902D01*
X021414214Y-27414214D01*
X021481902Y-27343118D01*
X021546021Y-27268787D01*
X021606415Y-27191399D01*
X021662939Y-27111140D01*
X021715457Y-27028205D01*
X021763843Y-26942793D01*
X021807979Y-26855110D01*
X021847759Y-26765367D01*
X021883088Y-26673780D01*
X021913881Y-26580569D01*
X021940063Y-26485960D01*
X021961571Y-26390181D01*
X021978353Y-26293461D01*
X021990369Y-26196034D01*
X021997591Y-26098135D01*
X022000000Y-26000000D01*
X022000000Y026000000D01*
X021997591Y026098135D01*
X021990369Y026196034D01*
X021978353Y026293461D01*
X021961571Y026390181D01*
X021940063Y026485960D01*
X021913881Y026580569D01*
X021883088Y026673780D01*
X021847759Y026765367D01*
X021807979Y026855110D01*
X021763843Y026942793D01*
X021715457Y027028205D01*
X021662939Y027111140D01*
X021606415Y027191399D01*
X021546021Y027268787D01*
X021481902Y027343118D01*
X021414214Y027414214D01*
X021343118Y027481902D01*
X021268787Y027546021D01*
X021191399Y027606415D01*
X021111140Y027662939D01*
X021028205Y027715457D01*
X020942793Y027763843D01*
X020855110Y027807979D01*
X020765367Y027847759D01*
X020673780Y027883088D01*
X020580569Y027913881D01*
X020485960Y027940063D01*
X020390181Y027961571D01*
X020293461Y027978353D01*
X020196034Y027990369D01*
X020098135Y027997591D01*
X020000000Y028000000D01*
X-20000000Y028000000D01*
X-20098135Y027997591D01*
X-20196034Y027990369D01*
X-20293461Y027978353D01*
X-20390181Y027961571D01*
X-20485960Y027940063D01*
X-20580569Y027913881D01*
X-20673780Y027883088D01*
X-20765367Y027847759D01*
X-20855110Y027807979D01*
X-20942793Y027763843D01*
X-21028205Y027715457D01*
X-21111140Y027662939D01*
X-21191399Y027606415D01*
X-21268787Y027546021D01*
X-21343118Y027481902D01*
X-21414214Y027414214D01*
X-21481902Y027343118D01*
X-21546021Y027268787D01*
X-21606415Y027191399D01*
X-21662939Y027111140D01*
X-21715457Y027028205D01*
X-21763843Y026942793D01*
X-21807979Y026855110D01*
X-21847759Y026765367D01*
X-21883088Y026673780D01*
X-21913881Y026580569D01*
X-21940063Y026485960D01*
X-21961571Y026390181D01*
X-21978353Y026293461D01*
X-21990369Y026196034D01*
X-21997591Y026098135D01*
X-22000000Y026000000D01*
X-22000000Y-26000000D01*
X-21997591Y-26098135D01*
X-21990369Y-26196034D01*
X-21978353Y-26293461D01*
X-21961571Y-26390181D01*
X-21940063Y-26485960D01*
X-21913881Y-26580569D01*
X-21883088Y-26673780D01*
X-21847759Y-26765367D01*
X-21807979Y-26855110D01*
X-21763843Y-26942793D01*
X-21715457Y-27028205D01*
X-21662939Y-27111140D01*
X-21606415Y-27191399D01*
X-21546021Y-27268787D01*
X-21481902Y-27343118D01*
X-21414214Y-27414214D01*
X-21343118Y-27481902D01*
X-21268787Y-27546021D01*
X-21191399Y-27606415D01*
X-21111140Y-27662939D01*
X-21028205Y-27715457D01*
X-20942793Y-27763843D01*
X-20855110Y-27807979D01*
X-20765367Y-27847759D01*
X-20673780Y-27883088D01*
X-20580569Y-27913881D01*
X-20485960Y-27940063D01*
X-20390181Y-27961571D01*
X-20293461Y-27978353D01*
X-20196034Y-27990369D01*
X-20098135Y-27997591D01*
X-20000000Y-28000000D01*
M02*