%TF.GenerationSoftware,tscircuit,circuit-json-to-gerber,0.0.109*%
%TF.CreationDate,2026-10-05T16:26:20.928Z*%
%TF.SameCoordinates,Original*%
%TF.FileFunction,Copper,L2,Bot*%
%TF.FilePolarity,Positive*%
%FSLAX46Y46*%
%MOMM*%
G04 Gerber Fmt 4.6, Leading zero omitted, Abs format (unit mm)*
G04 Created by tscircuit (builder) date 2026-10-05T16:26:20.928Z*
G01*
%LPD*%
G75*
G04 APERTURE MACROS START*
%AMHORZPILL*
0 Horizontal pill (stadium) shape macro*
0 Parameters:*
0 $1 = Total width*
0 $2 = Total height*
0 $3 = Circle diameter (equal to height)*
0 $4 = Circle center offset
0 21 = Center Line(Exposure, Width, Height, Center X, Center Y, Rotation)*
0 1 = Circle(Exposure, Diameter, Center X, Center Y, Rotation)*
21,1,$1-$3,$2,0.0,0.0,0.0*
1,1,$3,0.0-$4,0.0*
1,1,$3,$4,0.0*%
%AMVERTPILL*
0 Vertical pill (stadium) shape macro*
0 Parameters:*
0 $1 = Total width*
0 $2 = Total height*
0 $3 = Circle diameter (equal to width)*
0 $4 = Circle center offset
0 21 = Center Line(Exposure, Width, Height, Center X, Center Y, Rotation)*
21,1,$1,$2-$3,0.0,0.0,0.0*
1,1,$3,0.0,0.0-$4*
1,1,$3,0.0,$4*%
%AMROUNDRECT*
0 Rectangle with rounded corners*
0 $1 Corner radius*
0 $2 $3 $4 $5 $6 $7 $8 $9 X,Y Position of each corner*
0 Polygon box body*
4,1,4,$2,$3,$4,$5,$6,$7,$8,$9,$2,$3,0*
0 Circles for rounded corners*
1,1,$1+$1,$2,$3*
1,1,$1+$1,$4,$5*
1,1,$1+$1,$6,$7*
1,1,$1+$1,$8,$9*
0 Rectangles between the rounded corners*
20,1,$1+$1,$2,$3,$4,$5,0*
20,1,$1+$1,$4,$5,$6,$7,0*
20,1,$1+$1,$6,$7,$8,$9,0*
20,1,$1+$1,$8,$9,$2,$3,0*%
G04 APERTURE MACROS END*
G04 aperture START LIST*
%ADD10C,0.150000*%
%ADD11C,0.200000*%
%ADD12C,0.300000*%
%ADD13C,0.212132*%
%ADD14C,0.216921*%
%ADD15C,0.222434*%
%ADD16C,0.227947*%
%ADD17C,0.233460*%
%ADD18C,0.238974*%
%ADD19C,0.244487*%
%ADD20C,0.250000*%
%ADD21C,0.236111*%
%ADD22C,0.222222*%
%ADD23C,0.208333*%
%ADD24C,0.194444*%
%ADD25C,0.180556*%
%ADD26C,0.166667*%
%ADD27C,0.152778*%
%ADD28C,0.262500*%
%ADD29C,0.275000*%
%ADD30C,0.287500*%
%ADD31C,0.162000*%
%ADD32VERTPILL,0.999998X1.799996X0.999998X0.399999*%
%ADD33VERTPILL,0.999998X2.199996X0.999998X0.599999*%
%ADD34C,0.100000*%
%ADD35C,0.900024*%
%ADD36C,2.200000*%
%ADD37C,0.600000*%
%ADD38C,0.001000*%
%TD*%
G04 aperture END LIST*
D38*
G36*
X022700000Y-15800000D02*
G01*
X019200000Y-15800000D01*
G01*
X019200000Y-12200000D01*
G01*
X022700000Y-12200000D01*
G01*
X022700000Y002500130D01*
G01*
X020756164Y002500130D01*
G01*
X020756164Y004500130D01*
G01*
X022700000Y004500130D01*
G01*
X022700000Y005500124D01*
G01*
X020756164Y005500124D01*
G01*
X020756164Y007500124D01*
G01*
X022700000Y007500124D01*
G01*
X022700000Y023200000D01*
G01*
X019200000Y023200000D01*
G01*
X019200000Y026700000D01*
G01*
X-19200000Y026700000D01*
G01*
X-19200000Y023200000D01*
G01*
X-22700000Y023200000D01*
G01*
X-22700000Y-12200000D01*
G01*
X-19200000Y-12200000D01*
G01*
X-19200000Y-15800000D01*
G01*
X-22700000Y-15800000D01*
G01*
X-22700000Y-18700000D01*
G01*
X022700000Y-18700000D01*
G01*
X022700000Y-15800000D01*
G37*
%LPC*%
D38*
G36*
X-06185000Y-00234201D02*
G01*
X-06067946Y-00222672D01*
G01*
X-05955390Y-00188529D01*
G01*
X-05851658Y-00133083D01*
G01*
X-05760736Y-00058465D01*
G01*
X-05686118Y000032457D01*
G01*
X-05630672Y000136189D01*
G01*
X-05596529Y000248745D01*
G01*
X-05585000Y000365799D01*
G01*
X-05596529Y000482853D01*
G01*
X-05630672Y000595409D01*
G01*
X-05686118Y000699141D01*
G01*
X-05760736Y000790063D01*
G01*
X-05851658Y000864681D01*
G01*
X-05955390Y000920127D01*
G01*
X-06067946Y000954270D01*
G01*
X-06185000Y000965799D01*
G01*
X-06221622Y000962192D01*
G01*
X-06524595Y001265165D01*
G01*
X-06581422Y001311801D01*
G01*
X-06646254Y001346455D01*
G01*
X-06716602Y001367794D01*
G01*
X-06789760Y001375000D01*
G01*
X-07435306Y001375000D01*
G01*
X-07475736Y001424264D01*
G01*
X-07566658Y001498882D01*
G01*
X-07670390Y001554328D01*
G01*
X-07725914Y001571171D01*
G01*
X-07716658Y001576118D01*
G01*
X-07625736Y001650736D01*
G01*
X-07551118Y001741658D01*
G01*
X-07545164Y001752796D01*
G01*
X-06529864Y002047058D01*
G01*
X-06530458Y002049106D01*
G01*
X-06482924Y002063525D01*
G01*
X-06405125Y002105110D01*
G01*
X-06336933Y002161073D01*
G01*
X-06280970Y002229264D01*
G01*
X-06239385Y002307063D01*
G01*
X-06213778Y002391480D01*
G01*
X-06205131Y002479271D01*
G01*
X-06213778Y002567062D01*
G01*
X-06239385Y002651478D01*
G01*
X-06280970Y002729278D01*
G01*
X-06336933Y002797469D01*
G01*
X-06537565Y002998100D01*
G01*
X-06738196Y003198732D01*
G01*
X-06938827Y003399363D01*
G01*
X-07139459Y003599995D01*
G01*
X-07340090Y003800626D01*
G01*
X-07540722Y004001257D01*
G01*
X-07741353Y004201889D01*
G01*
X-07795511Y004246335D01*
G01*
X-07794678Y004247479D01*
G01*
X-08211445Y004550926D01*
G01*
X-08211445Y004777685D01*
G01*
X-08211445Y005069786D01*
G01*
X-08211445Y005361886D01*
G01*
X-08211445Y005653987D01*
G01*
X-08211445Y005946087D01*
G01*
X-08211445Y006238188D01*
G01*
X-08211445Y006530288D01*
G01*
X-08211445Y006822389D01*
G01*
X-08211445Y007114489D01*
G01*
X-08211445Y007406590D01*
G01*
X-08211445Y007698690D01*
G01*
X-08211445Y007990791D01*
G01*
X-08211445Y008096496D01*
G01*
X-08132217Y008175724D01*
G01*
X-08094111Y008222156D01*
G01*
X-08092614Y008221014D01*
G01*
X-07738916Y008684736D01*
G01*
X-07729532Y008685660D01*
G01*
X-07645115Y008711268D01*
G01*
X-07567316Y008752852D01*
G01*
X-07499125Y008808816D01*
G01*
X-07288094Y009019846D01*
G01*
X-07077064Y009230877D01*
G01*
X-06866033Y009441907D01*
G01*
X-06655002Y009652938D01*
G01*
X-06443972Y009863969D01*
G01*
X-06232941Y010074999D01*
G01*
X-06131127Y010176813D01*
G01*
X-06066212Y010111059D01*
G01*
X-05874661Y009917033D01*
G01*
X-05683111Y009723008D01*
G01*
X-05491561Y009528983D01*
G01*
X-05300011Y009334957D01*
G01*
X-05108460Y009140932D01*
G01*
X-04916910Y008946907D01*
G01*
X-04725360Y008752881D01*
G01*
X-04533810Y008558856D01*
G01*
X-04533614Y008559049D01*
G01*
X-04531774Y008556807D01*
G01*
X-04463582Y008500844D01*
G01*
X-04385783Y008459259D01*
G01*
X-04301366Y008433652D01*
G01*
X-04270316Y008430594D01*
G01*
X-04270567Y008428629D01*
G01*
X-03980499Y008391594D01*
G01*
X-03690431Y008354559D01*
G01*
X-03400364Y008317525D01*
G01*
X-03110296Y008280490D01*
G01*
X-02820228Y008243455D01*
G01*
X-02530160Y008206420D01*
G01*
X-02240092Y008169386D01*
G01*
X-01950024Y008132351D01*
G01*
X-01949773Y008134316D01*
G01*
X-01893032Y008128728D01*
G01*
X-01805242Y008137374D01*
G01*
X-01720825Y008162982D01*
G01*
X-01643026Y008204566D01*
G01*
X-01574834Y008260530D01*
G01*
X-01527276Y008318479D01*
G01*
X-01526376Y008317839D01*
G01*
X-01374808Y008530855D01*
G01*
X-01374808Y007900000D01*
G01*
X-01374807Y007900000D01*
G01*
X-01367602Y007826841D01*
G01*
X-01346262Y007756494D01*
G01*
X-01311609Y007691661D01*
G01*
X-01264973Y007634835D01*
G01*
X-01208146Y007588199D01*
G01*
X-01143314Y007553545D01*
G01*
X-01072966Y007532206D01*
G01*
X-00999808Y007525000D01*
G01*
X000014311Y007525000D01*
G01*
X000006084Y007509609D01*
G01*
X-00028059Y007397053D01*
G01*
X-00039588Y007279999D01*
G01*
X-00028059Y007162945D01*
G01*
X000006084Y007050389D01*
G01*
X000061530Y006946657D01*
G01*
X000136148Y006855735D01*
G01*
X000227070Y006781117D01*
G01*
X000330802Y006725671D01*
G01*
X000421504Y006698157D01*
G01*
X000420242Y006571121D01*
G01*
X000420660Y006571117D01*
G01*
X000420220Y006566652D01*
G01*
X000428866Y006478861D01*
G01*
X000454474Y006394444D01*
G01*
X000496058Y006316645D01*
G01*
X000541067Y006261803D01*
G01*
X000540066Y006260876D01*
G01*
X000717513Y006069283D01*
G01*
X000894959Y005877691D01*
G01*
X001072405Y005686098D01*
G01*
X001186652Y005562743D01*
G01*
X001195803Y005532576D01*
G01*
X001236232Y005456938D01*
G01*
X001290641Y005390641D01*
G01*
X001339929Y005350191D01*
G01*
X001445060Y005245060D01*
G01*
X001524583Y005165537D01*
G01*
X001525749Y005163355D01*
G01*
X001501118Y005133342D01*
G01*
X001445672Y005029610D01*
G01*
X001411529Y004917054D01*
G01*
X001400000Y004800000D01*
G01*
X001406247Y004736577D01*
G01*
X001108083Y004438413D01*
G01*
X-01552864Y004403605D01*
G01*
X-01501118Y004466658D01*
G01*
X-01445672Y004570390D01*
G01*
X-01411529Y004682946D01*
G01*
X-01404959Y004749649D01*
G01*
X-01398545Y004761649D01*
G01*
X-01377206Y004831996D01*
G01*
X-01370000Y004905155D01*
G01*
X-01370000Y006994023D01*
G01*
X-01377206Y007067182D01*
G01*
X-01398545Y007137529D01*
G01*
X-01404969Y007149548D01*
G01*
X-01400000Y007200000D01*
G01*
X-01411529Y007317054D01*
G01*
X-01445672Y007429610D01*
G01*
X-01501118Y007533342D01*
G01*
X-01575736Y007624264D01*
G01*
X-01666658Y007698882D01*
G01*
X-01770390Y007754328D01*
G01*
X-01882946Y007788471D01*
G01*
X-02000000Y007800000D01*
G01*
X-02117054Y007788471D01*
G01*
X-02229610Y007754328D01*
G01*
X-02333342Y007698882D01*
G01*
X-02424264Y007624264D01*
G01*
X-02498882Y007533342D01*
G01*
X-02554328Y007429610D01*
G01*
X-02588471Y007317054D01*
G01*
X-02600000Y007200000D01*
G01*
X-02588471Y007082946D01*
G01*
X-02554328Y006970390D01*
G01*
X-02498882Y006866658D01*
G01*
X-02424264Y006775736D01*
G01*
X-02333342Y006701118D01*
G01*
X-02229610Y006645672D01*
G01*
X-02120000Y006612423D01*
G01*
X-02120000Y006569377D01*
G01*
X-02182946Y006588471D01*
G01*
X-02300000Y006600000D01*
G01*
X-02417054Y006588471D01*
G01*
X-02529610Y006554328D01*
G01*
X-02633342Y006498882D01*
G01*
X-02724264Y006424264D01*
G01*
X-02798882Y006333342D01*
G01*
X-02854328Y006229610D01*
G01*
X-02888471Y006117054D01*
G01*
X-02900000Y006000000D01*
G01*
X-02888471Y005882946D01*
G01*
X-02854328Y005770390D01*
G01*
X-02798882Y005666658D01*
G01*
X-02724264Y005575736D01*
G01*
X-02633342Y005501118D01*
G01*
X-02529610Y005445672D01*
G01*
X-02417054Y005411529D01*
G01*
X-02300000Y005400000D01*
G01*
X-02182946Y005411529D01*
G01*
X-02120000Y005430623D01*
G01*
X-02120000Y005387577D01*
G01*
X-02229610Y005354328D01*
G01*
X-02333342Y005298882D01*
G01*
X-02424264Y005224264D01*
G01*
X-02498882Y005133342D01*
G01*
X-02554328Y005029610D01*
G01*
X-02569984Y004977999D01*
G01*
X-03233952Y005672934D01*
G01*
X-03225832Y006988486D01*
G01*
X-03173693Y007031276D01*
G01*
X-03099075Y007122198D01*
G01*
X-03043629Y007225930D01*
G01*
X-03009486Y007338486D01*
G01*
X-02997957Y007455540D01*
G01*
X-03009486Y007572594D01*
G01*
X-03043629Y007685150D01*
G01*
X-03099075Y007788882D01*
G01*
X-03173693Y007879804D01*
G01*
X-03264615Y007954422D01*
G01*
X-03368347Y008009868D01*
G01*
X-03480903Y008044011D01*
G01*
X-03597957Y008055540D01*
G01*
X-03715011Y008044011D01*
G01*
X-03827567Y008009868D01*
G01*
X-03931299Y007954422D01*
G01*
X-04022221Y007879804D01*
G01*
X-04096839Y007788882D01*
G01*
X-04152285Y007685150D01*
G01*
X-04186428Y007572594D01*
G01*
X-04197957Y007455540D01*
G01*
X-04186428Y007338486D01*
G01*
X-04152285Y007225930D01*
G01*
X-04096839Y007122198D01*
G01*
X-04022221Y007031276D01*
G01*
X-03975818Y006993194D01*
G01*
X-03984873Y005525870D01*
G01*
X-03984653Y005525869D01*
G01*
X-03984881Y005523556D01*
G01*
X-03977675Y005450397D01*
G01*
X-03956335Y005380050D01*
G01*
X-03921682Y005315217D01*
G01*
X-03880481Y005265014D01*
G01*
X-03881018Y005264501D01*
G01*
X-03215467Y004567910D01*
G01*
X-03234039Y004566081D01*
G01*
X-03346595Y004531937D01*
G01*
X-03450327Y004476491D01*
G01*
X-03541249Y004401874D01*
G01*
X-03615866Y004310952D01*
G01*
X-03671312Y004207220D01*
G01*
X-03705456Y004094664D01*
G01*
X-03716985Y003977610D01*
G01*
X-03705456Y003860555D01*
G01*
X-03671312Y003748000D01*
G01*
X-03615866Y003644267D01*
G01*
X-03541249Y003553346D01*
G01*
X-03450327Y003478728D01*
G01*
X-03346595Y003423282D01*
G01*
X-03234039Y003389138D01*
G01*
X-03116985Y003377610D01*
G01*
X-03053571Y003383855D01*
G01*
X-01505517Y001835758D01*
G01*
X-01505513Y001835754D01*
G01*
X-01448687Y001789118D01*
G01*
X-01383854Y001754464D01*
G01*
X-01313507Y001733124D01*
G01*
X-01240348Y001725919D01*
G01*
X-01240342Y001725920D01*
G01*
X-01240342Y001725919D01*
G01*
X002887244Y001725986D01*
G01*
X002903199Y001673387D01*
G01*
X002958645Y001569655D01*
G01*
X003033263Y001478733D01*
G01*
X003124185Y001404115D01*
G01*
X003227917Y001348669D01*
G01*
X003340473Y001314526D01*
G01*
X003457527Y001302997D01*
G01*
X003574581Y001314526D01*
G01*
X003687137Y001348669D01*
G01*
X003790869Y001404115D01*
G01*
X003881791Y001478733D01*
G01*
X003956409Y001569655D01*
G01*
X004011855Y001673387D01*
G01*
X004045998Y001785943D01*
G01*
X004057527Y001902997D01*
G01*
X004045998Y002020051D01*
G01*
X004011855Y002132607D01*
G01*
X003956409Y002236339D01*
G01*
X003881791Y002327261D01*
G01*
X003790869Y002401879D01*
G01*
X003687137Y002457325D01*
G01*
X003574581Y002491468D01*
G01*
X003457527Y002502997D01*
G01*
X003340473Y002491468D01*
G01*
X003289455Y002475992D01*
G01*
X-01085017Y002475922D01*
G01*
X-02268166Y003659105D01*
G01*
X-02246912Y003652657D01*
G01*
X-02173753Y003645451D01*
G01*
X-02168854Y003645934D01*
G01*
X-02168848Y003645483D01*
G01*
X001270344Y003690471D01*
G01*
X001270338Y003690922D01*
G01*
X001338598Y003697645D01*
G01*
X001408945Y003718984D01*
G01*
X001473778Y003753638D01*
G01*
X001530604Y003800274D01*
G01*
X001936577Y004206247D01*
G01*
X002000000Y004200000D01*
G01*
X002117054Y004211529D01*
G01*
X002229610Y004245672D01*
G01*
X002333342Y004301118D01*
G01*
X002424264Y004375736D01*
G01*
X002498882Y004466658D01*
G01*
X002554328Y004570390D01*
G01*
X002588471Y004682946D01*
G01*
X002600000Y004800000D01*
G01*
X002588471Y004917054D01*
G01*
X002571057Y004974461D01*
G01*
X002708829Y004993384D01*
G01*
X002737963Y004997386D01*
G01*
X002800295Y004991246D01*
G01*
X002812819Y004992480D01*
G01*
X002812849Y004991421D01*
G01*
X003101315Y004999471D01*
G01*
X003389781Y005007522D01*
G01*
X003678247Y005015572D01*
G01*
X003678217Y005016630D01*
G01*
X003753484Y005024043D01*
G01*
X003837901Y005049651D01*
G01*
X003915700Y005091236D01*
G01*
X003983892Y005147199D01*
G01*
X003983989Y005147318D01*
G01*
X003984000Y005147307D01*
G01*
X004190582Y005354030D01*
G01*
X004397164Y005560752D01*
G01*
X004603747Y005767475D01*
G01*
X004810329Y005974198D01*
G01*
X005016798Y006180808D01*
G01*
X005016803Y006180812D01*
G01*
X005016807Y006180817D01*
G01*
X005016911Y006180921D01*
G01*
X005223494Y006387643D01*
G01*
X005223483Y006387654D01*
G01*
X005258081Y006429812D01*
G01*
X005373939Y006514858D01*
G01*
X005373081Y006516027D01*
G01*
X005423690Y006557560D01*
G01*
X005430068Y006565332D01*
G01*
X005430697Y006564732D01*
G01*
X005561947Y006702232D01*
G01*
X005561318Y006702832D01*
G01*
X005578066Y006723239D01*
G01*
X005579623Y006721926D01*
G01*
X005634843Y006787383D01*
G01*
X005637474Y006788789D01*
G01*
X005705665Y006844753D01*
G01*
X005729797Y006874158D01*
G01*
X005731422Y006872787D01*
G01*
X005868889Y007035737D01*
G01*
X005867264Y007037108D01*
G01*
X005899096Y007075895D01*
G01*
X005940680Y007153694D01*
G01*
X005966288Y007238111D01*
G01*
X005974934Y007325901D01*
G01*
X005974934Y007587891D01*
G01*
X005974934Y007849880D01*
G01*
X005974934Y008111870D01*
G01*
X005974934Y008187462D01*
G01*
X006036761Y008249289D01*
G01*
X006230389Y008442917D01*
G01*
X006424017Y008636546D01*
G01*
X006617645Y008830174D01*
G01*
X006679471Y008892000D01*
G01*
X006769251Y008892000D01*
G01*
X006928697Y008892000D01*
G01*
X006988260Y008843118D01*
G01*
X007091992Y008787672D01*
G01*
X007204548Y008753529D01*
G01*
X007321602Y008742000D01*
G01*
X007438656Y008753529D01*
G01*
X007551212Y008787672D01*
G01*
X007654944Y008843118D01*
G01*
X007745866Y008917736D01*
G01*
X007820483Y009008658D01*
G01*
X007875929Y009112390D01*
G01*
X007910073Y009224946D01*
G01*
X007921602Y009342000D01*
G01*
X007910073Y009459054D01*
G01*
X007875929Y009571610D01*
G01*
X007820483Y009675342D01*
G01*
X007745866Y009766264D01*
G01*
X007654944Y009840882D01*
G01*
X007551212Y009896328D01*
G01*
X007438656Y009930471D01*
G01*
X007321602Y009942000D01*
G01*
X007204548Y009930471D01*
G01*
X007091992Y009896328D01*
G01*
X007019298Y009857472D01*
G01*
X008632874Y011431719D01*
G01*
X008632576Y011432025D01*
G01*
X008636165Y011434970D01*
G01*
X008682801Y011491796D01*
G01*
X008717455Y011556629D01*
G01*
X008738794Y011626976D01*
G01*
X008746000Y011700135D01*
G01*
X008743193Y011728638D01*
G01*
X008744905Y011728769D01*
G01*
X008544423Y014346633D01*
G01*
X008559171Y014358736D01*
G01*
X008633789Y014449658D01*
G01*
X008689235Y014553390D01*
G01*
X008723378Y014665946D01*
G01*
X008734907Y014783000D01*
G01*
X008723378Y014900054D01*
G01*
X008689235Y015012610D01*
G01*
X008633789Y015116342D01*
G01*
X008559171Y015207264D01*
G01*
X008468249Y015281882D01*
G01*
X008364517Y015337328D01*
G01*
X008251961Y015371471D01*
G01*
X008134907Y015383000D01*
G01*
X008017853Y015371471D01*
G01*
X007905297Y015337328D01*
G01*
X007801565Y015281882D01*
G01*
X007710643Y015207264D01*
G01*
X007636025Y015116342D01*
G01*
X007580579Y015012610D01*
G01*
X007546436Y014900054D01*
G01*
X007534907Y014783000D01*
G01*
X007546436Y014665946D01*
G01*
X007580579Y014553390D01*
G01*
X007636025Y014449658D01*
G01*
X007710643Y014358736D01*
G01*
X007796709Y014288103D01*
G01*
X007983716Y011846198D01*
G01*
X007375000Y011252318D01*
G01*
X007375000Y021976656D01*
G01*
X007564239Y023490940D01*
G01*
X007583280Y023501118D01*
G01*
X007674202Y023575736D01*
G01*
X007748820Y023666658D01*
G01*
X007804266Y023770390D01*
G01*
X007838409Y023882946D01*
G01*
X007849938Y024000000D01*
G01*
X007838409Y024117054D01*
G01*
X007804266Y024229610D01*
G01*
X007748820Y024333342D01*
G01*
X007674202Y024424264D01*
G01*
X007583280Y024498882D01*
G01*
X007479548Y024554328D01*
G01*
X007366992Y024588471D01*
G01*
X007249938Y024600000D01*
G01*
X007132884Y024588471D01*
G01*
X007020328Y024554328D01*
G01*
X006916596Y024498882D01*
G01*
X006825674Y024424264D01*
G01*
X006751056Y024333342D01*
G01*
X006695610Y024229610D01*
G01*
X006661467Y024117054D01*
G01*
X006649938Y024000000D01*
G01*
X006661467Y023882946D01*
G01*
X006695610Y023770390D01*
G01*
X006751056Y023666658D01*
G01*
X006819883Y023582793D01*
G01*
X006627894Y022046502D01*
G01*
X006629560Y022046294D01*
G01*
X006625000Y022000000D01*
G01*
X006625000Y020130066D01*
G01*
X006579610Y020154328D01*
G01*
X006467054Y020188471D01*
G01*
X006350000Y020200000D01*
G01*
X006232946Y020188471D01*
G01*
X006120390Y020154328D01*
G01*
X006016658Y020098882D01*
G01*
X005925736Y020024264D01*
G01*
X005851118Y019933342D01*
G01*
X005795672Y019829610D01*
G01*
X005761529Y019717054D01*
G01*
X005750000Y019600000D01*
G01*
X005760119Y019497258D01*
G01*
X005698104Y019494918D01*
G01*
X005408384Y019483986D01*
G01*
X005118663Y019473053D01*
G01*
X004828943Y019462120D01*
G01*
X004539223Y019451187D01*
G01*
X004249503Y019440254D01*
G01*
X003959783Y019429321D01*
G01*
X003670063Y019418388D01*
G01*
X003380343Y019407455D01*
G01*
X003090622Y019396522D01*
G01*
X002800902Y019385590D01*
G01*
X002511182Y019374657D01*
G01*
X002418697Y019371167D01*
G01*
X002424264Y019375736D01*
G01*
X002498882Y019466658D01*
G01*
X002554328Y019570390D01*
G01*
X002588471Y019682946D01*
G01*
X002600000Y019800000D01*
G01*
X002588471Y019917054D01*
G01*
X002554328Y020029610D01*
G01*
X002498882Y020133342D01*
G01*
X002424264Y020224264D01*
G01*
X002333342Y020298882D01*
G01*
X002229610Y020354328D01*
G01*
X002117054Y020388471D01*
G01*
X002110828Y020389084D01*
G01*
X002133342Y020401118D01*
G01*
X002224264Y020475736D01*
G01*
X002298882Y020566658D01*
G01*
X002354328Y020670390D01*
G01*
X002388471Y020782946D01*
G01*
X002400000Y020900000D01*
G01*
X002388471Y021017054D01*
G01*
X002354328Y021129610D01*
G01*
X002298882Y021233342D01*
G01*
X002224264Y021324264D01*
G01*
X002133342Y021398882D01*
G01*
X002029610Y021454328D01*
G01*
X001917054Y021488471D01*
G01*
X001800000Y021500000D01*
G01*
X001682946Y021488471D01*
G01*
X001570390Y021454328D01*
G01*
X001466658Y021398882D01*
G01*
X001375736Y021324264D01*
G01*
X001301118Y021233342D01*
G01*
X001245672Y021129610D01*
G01*
X001211529Y021017054D01*
G01*
X001209755Y020999039D01*
G01*
X001200000Y021000000D01*
G01*
X001050000Y021000000D01*
G01*
X001013732Y020996428D01*
G01*
X001013562Y020998522D01*
G01*
X-00036642Y020913204D01*
G01*
X-00049993Y020924161D01*
G01*
X-00127792Y020965746D01*
G01*
X-00212209Y020991353D01*
G01*
X-00300000Y021000000D01*
G01*
X-01200000Y021000000D01*
G01*
X-01287791Y020991353D01*
G01*
X-01372208Y020965746D01*
G01*
X-01450007Y020924161D01*
G01*
X-01488205Y020892813D01*
G01*
X-01489579Y020894447D01*
G01*
X-01803468Y020630558D01*
G01*
X-01802094Y020628924D01*
G01*
X-01832087Y020604309D01*
G01*
X-01994124Y020442272D01*
G01*
X-02040372Y020396024D01*
G01*
X-02117054Y020388471D01*
G01*
X-02229610Y020354328D01*
G01*
X-02333342Y020298882D01*
G01*
X-02390769Y020251752D01*
G01*
X-02476299Y020252135D01*
G01*
X-02715454Y020253204D01*
G01*
X-02715455Y020253011D01*
G01*
X-02717467Y020253209D01*
G01*
X-02805258Y020244562D01*
G01*
X-02889675Y020218955D01*
G01*
X-02967474Y020177370D01*
G01*
X-03029859Y020126172D01*
G01*
X-03030328Y020126656D01*
G01*
X-03227007Y019936414D01*
G01*
X-03423685Y019746172D01*
G01*
X-03620364Y019555930D01*
G01*
X-03817042Y019365688D01*
G01*
X-04013721Y019175446D01*
G01*
X-04210399Y018985204D01*
G01*
X-04407078Y018794962D01*
G01*
X-04573042Y018634429D01*
G01*
X-05196390Y018226553D01*
G01*
X-05196168Y018226213D01*
G01*
X-05200007Y018224161D01*
G01*
X-05268198Y018168198D01*
G01*
X-05324161Y018100007D01*
G01*
X-05365746Y018022208D01*
G01*
X-05391353Y017937791D01*
G01*
X-05400000Y017850000D01*
G01*
X-05391353Y017762209D01*
G01*
X-05365746Y017677792D01*
G01*
X-05351501Y017651141D01*
G01*
X-05353249Y017650275D01*
G01*
X-05328955Y017601225D01*
G01*
X-05325959Y017441811D01*
G01*
X-05321066Y017181531D01*
G01*
X-05316174Y016921252D01*
G01*
X-05315422Y016921266D01*
G01*
X-05307607Y016841918D01*
G01*
X-05281999Y016757501D01*
G01*
X-05245855Y016689880D01*
G01*
X-05246687Y016689355D01*
G01*
X-04880434Y016109646D01*
G01*
X-04879602Y016110172D01*
G01*
X-04874161Y016099993D01*
G01*
X-04818198Y016031802D01*
G01*
X-04750007Y015975839D01*
G01*
X-04685678Y015941454D01*
G01*
X-04866212Y015777433D01*
G01*
X-04901649Y015745238D01*
G01*
X-04950000Y015750000D01*
G01*
X-05037791Y015741353D01*
G01*
X-05122208Y015715746D01*
G01*
X-05200007Y015674161D01*
G01*
X-05268198Y015618198D01*
G01*
X-05324161Y015550007D01*
G01*
X-05324384Y015549589D01*
G01*
X-05324423Y015549615D01*
G01*
X-05624423Y015099615D01*
G01*
X-05624384Y015099589D01*
G01*
X-05665746Y015022208D01*
G01*
X-05691353Y014937791D01*
G01*
X-05700000Y014850000D01*
G01*
X-05691353Y014762209D01*
G01*
X-05686357Y014745738D01*
G01*
X-05687679Y014745422D01*
G01*
X-05486789Y013904660D01*
G01*
X-05482708Y013664597D01*
G01*
X-05477793Y013375402D01*
G01*
X-05472877Y013086206D01*
G01*
X-05467961Y012797011D01*
G01*
X-05463045Y012507815D01*
G01*
X-05458130Y012218620D01*
G01*
X-05453214Y011929425D01*
G01*
X-05448298Y011640229D01*
G01*
X-05443383Y011351034D01*
G01*
X-05438467Y011061838D01*
G01*
X-05433551Y010772643D01*
G01*
X-05432864Y010772655D01*
G01*
X-05430448Y010748122D01*
G01*
X-05617294Y010937382D01*
G01*
X-05808844Y011131407D01*
G01*
X-05809040Y011131214D01*
G01*
X-05810880Y011133456D01*
G01*
X-05879071Y011189420D01*
G01*
X-05956870Y011231004D01*
G01*
X-06041287Y011256612D01*
G01*
X-06129078Y011265258D01*
G01*
X-06216869Y011256612D01*
G01*
X-06301286Y011231004D01*
G01*
X-06379085Y011189420D01*
G01*
X-06447276Y011133456D01*
G01*
X-06658307Y010922426D01*
G01*
X-06869337Y010711395D01*
G01*
X-07080368Y010500365D01*
G01*
X-07291399Y010289334D01*
G01*
X-07502429Y010078303D01*
G01*
X-07713460Y009867273D01*
G01*
X-07924490Y009656242D01*
G01*
X-07984090Y009596642D01*
G01*
X-08037791Y009591353D01*
G01*
X-08122208Y009565746D01*
G01*
X-08200007Y009524161D01*
G01*
X-08268198Y009468198D01*
G01*
X-08306304Y009421766D01*
G01*
X-08307801Y009422908D01*
G01*
X-08789927Y008790806D01*
G01*
X-08979643Y008601089D01*
G01*
X-09035607Y008532898D01*
G01*
X-09077191Y008455099D01*
G01*
X-09102799Y008370682D01*
G01*
X-09111445Y008282891D01*
G01*
X-09111445Y007990791D01*
G01*
X-09111445Y007698690D01*
G01*
X-09111445Y007406590D01*
G01*
X-09111445Y007114489D01*
G01*
X-09111445Y006822389D01*
G01*
X-09111445Y006530288D01*
G01*
X-09111445Y006238188D01*
G01*
X-09111445Y005946087D01*
G01*
X-09111445Y005653987D01*
G01*
X-09111445Y005361886D01*
G01*
X-09111445Y005069786D01*
G01*
X-09111445Y004777685D01*
G01*
X-09111445Y004548325D01*
G01*
X-09132841Y004473082D01*
G01*
X-09130822Y004472508D01*
G01*
X-09141353Y004437791D01*
G01*
X-09150000Y004350000D01*
G01*
X-09141353Y004262209D01*
G01*
X-09115746Y004177792D01*
G01*
X-09074161Y004099993D01*
G01*
X-09018198Y004031802D01*
G01*
X-08964040Y003987356D01*
G01*
X-08964873Y003986212D01*
G01*
X-08352866Y003540610D01*
G01*
X-08177118Y003364861D01*
G01*
X-07976486Y003164230D01*
G01*
X-07775855Y002963599D01*
G01*
X-07575223Y002762967D01*
G01*
X-07511769Y002699513D01*
G01*
X-07797023Y002616838D01*
G01*
X-07820390Y002629328D01*
G01*
X-07932946Y002663471D01*
G01*
X-08050000Y002675000D01*
G01*
X-08167054Y002663471D01*
G01*
X-08279610Y002629328D01*
G01*
X-08383342Y002573882D01*
G01*
X-08474264Y002499264D01*
G01*
X-08548882Y002408342D01*
G01*
X-08604328Y002304610D01*
G01*
X-08638471Y002192054D01*
G01*
X-08650000Y002075000D01*
G01*
X-08638471Y001957946D01*
G01*
X-08604328Y001845390D01*
G01*
X-08548882Y001741658D01*
G01*
X-08474264Y001650736D01*
G01*
X-08383342Y001576118D01*
G01*
X-08279610Y001520672D01*
G01*
X-08224086Y001503829D01*
G01*
X-08233342Y001498882D01*
G01*
X-08324264Y001424264D01*
G01*
X-08398882Y001333342D01*
G01*
X-08454328Y001229610D01*
G01*
X-08488471Y001117054D01*
G01*
X-08500000Y001000000D01*
G01*
X-08488471Y000882946D01*
G01*
X-08454328Y000770390D01*
G01*
X-08398882Y000666658D01*
G01*
X-08324264Y000575736D01*
G01*
X-08233342Y000501118D01*
G01*
X-08129610Y000445672D01*
G01*
X-08017054Y000411529D01*
G01*
X-07900000Y000400000D01*
G01*
X-07782946Y000411529D01*
G01*
X-07670390Y000445672D01*
G01*
X-07566658Y000501118D01*
G01*
X-07475736Y000575736D01*
G01*
X-07435306Y000625000D01*
G01*
X-06945090Y000625000D01*
G01*
X-06776114Y000456023D01*
G01*
X-06785000Y000365799D01*
G01*
X-06773471Y000248745D01*
G01*
X-06739328Y000136189D01*
G01*
X-06683882Y000032457D01*
G01*
X-06609264Y-00058465D01*
G01*
X-06518342Y-00133083D01*
G01*
X-06414610Y-00188529D01*
G01*
X-06302054Y-00222672D01*
G01*
X-06185000Y-00234201D01*
G37*
D38*
G36*
X-05565000Y018751000D02*
G01*
X-05447946Y018762529D01*
G01*
X-05335390Y018796672D01*
G01*
X-05231658Y018852118D01*
G01*
X-05140736Y018926736D01*
G01*
X-05066118Y019017658D01*
G01*
X-05010672Y019121390D01*
G01*
X-04976529Y019233946D01*
G01*
X-04965000Y019351000D01*
G01*
X-04976529Y019468054D01*
G01*
X-05010672Y019580610D01*
G01*
X-05066118Y019684342D01*
G01*
X-05140736Y019775264D01*
G01*
X-05231658Y019849882D01*
G01*
X-05335390Y019905328D01*
G01*
X-05447946Y019939471D01*
G01*
X-05565000Y019951000D01*
G01*
X-05643389Y019943279D01*
G01*
X-05715240Y020015130D01*
G01*
X-05869139Y020169028D01*
G01*
X-06023038Y020322927D01*
G01*
X-06176936Y020476826D01*
G01*
X-06221000Y020520890D01*
G01*
X-06221000Y020586306D01*
G01*
X-06171736Y020626736D01*
G01*
X-06097118Y020717658D01*
G01*
X-06041672Y020821390D01*
G01*
X-06007529Y020933946D01*
G01*
X-05996000Y021051000D01*
G01*
X-06007529Y021168054D01*
G01*
X-06041672Y021280610D01*
G01*
X-06097118Y021384342D01*
G01*
X-06171736Y021475264D01*
G01*
X-06262658Y021549882D01*
G01*
X-06366390Y021605328D01*
G01*
X-06478946Y021639471D01*
G01*
X-06596000Y021651000D01*
G01*
X-06713054Y021639471D01*
G01*
X-06825610Y021605328D01*
G01*
X-06929342Y021549882D01*
G01*
X-07020264Y021475264D01*
G01*
X-07094882Y021384342D01*
G01*
X-07150328Y021280610D01*
G01*
X-07184471Y021168054D01*
G01*
X-07196000Y021051000D01*
G01*
X-07184471Y020933946D01*
G01*
X-07150328Y020821390D01*
G01*
X-07094882Y020717658D01*
G01*
X-07020264Y020626736D01*
G01*
X-06971000Y020586306D01*
G01*
X-06971000Y020365559D01*
G01*
X-06963794Y020292401D01*
G01*
X-06942455Y020222053D01*
G01*
X-06907801Y020157221D01*
G01*
X-06861165Y020100394D01*
G01*
X-06707266Y019946496D01*
G01*
X-06553368Y019792597D01*
G01*
X-06399469Y019638698D01*
G01*
X-06245570Y019484800D01*
G01*
X-06160227Y019399457D01*
G01*
X-06165000Y019351000D01*
G01*
X-06153471Y019233946D01*
G01*
X-06119328Y019121390D01*
G01*
X-06063882Y019017658D01*
G01*
X-05989264Y018926736D01*
G01*
X-05898342Y018852118D01*
G01*
X-05794610Y018796672D01*
G01*
X-05682054Y018762529D01*
G01*
X-05565000Y018751000D01*
G37*
D38*
G36*
X-02927000Y-13365000D02*
G01*
X-02809946Y-13353471D01*
G01*
X-02697390Y-13319328D01*
G01*
X-02593658Y-13263882D01*
G01*
X-02502736Y-13189264D01*
G01*
X-02428118Y-13098342D01*
G01*
X-02372672Y-12994610D01*
G01*
X-02338529Y-12882054D01*
G01*
X-02327000Y-12765000D01*
G01*
X-02338529Y-12647946D01*
G01*
X-02372672Y-12535390D01*
G01*
X-02428118Y-12431658D01*
G01*
X-02502736Y-12340736D01*
G01*
X-02550417Y-12301605D01*
G01*
X-02544242Y-10490673D01*
G01*
X014744373Y006634166D01*
G01*
X014744252Y006634288D01*
G01*
X014745638Y006635425D01*
G01*
X014792274Y006692251D01*
G01*
X014826927Y006757084D01*
G01*
X014848267Y006827431D01*
G01*
X014855473Y006900590D01*
G01*
X014848267Y006973749D01*
G01*
X014826927Y007044096D01*
G01*
X014826125Y007045596D01*
G01*
X014826276Y007045659D01*
G01*
X014771867Y007175354D01*
G01*
X014826236Y016283659D01*
G01*
X014872418Y016245759D01*
G01*
X014937250Y016211106D01*
G01*
X015007598Y016189766D01*
G01*
X015080757Y016182561D01*
G01*
X015485820Y016182561D01*
G01*
X015515883Y016182561D01*
G01*
X015515883Y016152497D01*
G01*
X015515883Y015747434D01*
G01*
X015515883Y015342371D01*
G01*
X015515883Y014937307D01*
G01*
X015515883Y014532244D01*
G01*
X015515883Y014127181D01*
G01*
X015523089Y014054022D01*
G01*
X015523203Y014053645D01*
G01*
X015523165Y014053637D01*
G01*
X015566516Y013836883D01*
G01*
X015566516Y013772750D01*
G01*
X015566516Y013671485D01*
G01*
X015566516Y013570219D01*
G01*
X015566516Y013468953D01*
G01*
X015566516Y013367687D01*
G01*
X015566516Y013310921D01*
G01*
X015552554Y013252918D01*
G01*
X015553692Y013252644D01*
G01*
X015549345Y013238314D01*
G01*
X015542139Y013165155D01*
G01*
X015542139Y003756565D01*
G01*
X006618574Y-05167000D01*
G01*
X005422694Y-05167000D01*
G01*
X005382264Y-05117736D01*
G01*
X005291342Y-05043118D01*
G01*
X005187610Y-04987672D01*
G01*
X005075054Y-04953529D01*
G01*
X004958000Y-04942000D01*
G01*
X004840946Y-04953529D01*
G01*
X004728390Y-04987672D01*
G01*
X004624658Y-05043118D01*
G01*
X004533736Y-05117736D01*
G01*
X004459118Y-05208658D01*
G01*
X004403672Y-05312390D01*
G01*
X004369529Y-05424946D01*
G01*
X004358000Y-05542000D01*
G01*
X004369529Y-05659054D01*
G01*
X004403672Y-05771610D01*
G01*
X004459118Y-05875342D01*
G01*
X004533736Y-05966264D01*
G01*
X004624658Y-06040882D01*
G01*
X004728390Y-06096328D01*
G01*
X004840946Y-06130471D01*
G01*
X004958000Y-06142000D01*
G01*
X005075054Y-06130471D01*
G01*
X005187610Y-06096328D01*
G01*
X005291342Y-06040882D01*
G01*
X005382264Y-05966264D01*
G01*
X005422694Y-05917000D01*
G01*
X006718602Y-05917000D01*
G01*
X006531108Y-06104494D01*
G01*
X006452104Y-06080529D01*
G01*
X006335050Y-06069000D01*
G01*
X006217995Y-06080529D01*
G01*
X006105439Y-06114672D01*
G01*
X006001707Y-06170118D01*
G01*
X005910785Y-06244736D01*
G01*
X005836168Y-06335658D01*
G01*
X005780722Y-06439390D01*
G01*
X005746578Y-06551946D01*
G01*
X005735050Y-06669000D01*
G01*
X005746578Y-06786054D01*
G01*
X005780722Y-06898610D01*
G01*
X005836168Y-07002342D01*
G01*
X005910785Y-07093264D01*
G01*
X006001707Y-07167882D01*
G01*
X006105439Y-07223328D01*
G01*
X006217995Y-07257471D01*
G01*
X006335050Y-07269000D01*
G01*
X006452104Y-07257471D01*
G01*
X006564660Y-07223328D01*
G01*
X006668392Y-07167882D01*
G01*
X006759314Y-07093264D01*
G01*
X006833931Y-07002342D01*
G01*
X006861958Y-06949908D01*
G01*
X006892611Y-06933523D01*
G01*
X006957014Y-06880669D01*
G01*
X007912685Y-05924998D01*
G01*
X009750000Y-05924998D01*
G01*
X009820505Y-05918054D01*
G01*
X009843750Y-05918054D01*
G01*
X009914263Y-05911109D01*
G01*
X009937500Y-05911109D01*
G01*
X010008007Y-05904165D01*
G01*
X010031250Y-05904165D01*
G01*
X010057149Y-05901614D01*
G01*
X010075736Y-05924262D01*
G01*
X010098384Y-05942849D01*
G01*
X010095833Y-05968748D01*
G01*
X010095833Y-05991991D01*
G01*
X010088889Y-06062498D01*
G01*
X010088889Y-06085735D01*
G01*
X010081944Y-06156248D01*
G01*
X010081944Y-06179493D01*
G01*
X010075000Y-06249998D01*
G01*
X010075000Y-06523960D01*
G01*
X009429810Y-07169150D01*
G01*
X009363518Y-07235441D01*
G01*
X009345676Y-07257182D01*
G01*
X009299176Y-07303681D01*
G01*
X009281334Y-07325422D01*
G01*
X009234834Y-07371922D01*
G01*
X009216991Y-07393663D01*
G01*
X009209699Y-07400955D01*
G01*
X009200000Y-07400000D01*
G01*
X009082946Y-07411529D01*
G01*
X008970390Y-07445672D01*
G01*
X008866658Y-07501118D01*
G01*
X008775736Y-07575736D01*
G01*
X008701118Y-07666658D01*
G01*
X008645672Y-07770390D01*
G01*
X008611529Y-07882946D01*
G01*
X008600000Y-08000000D01*
G01*
X008611529Y-08117054D01*
G01*
X008645672Y-08229610D01*
G01*
X008701118Y-08333342D01*
G01*
X008775736Y-08424264D01*
G01*
X008866658Y-08498882D01*
G01*
X008970390Y-08554328D01*
G01*
X009082946Y-08588471D01*
G01*
X009200000Y-08600000D01*
G01*
X009317054Y-08588471D01*
G01*
X009429610Y-08554328D01*
G01*
X009533342Y-08498882D01*
G01*
X009624264Y-08424264D01*
G01*
X009698882Y-08333342D01*
G01*
X009754328Y-08229610D01*
G01*
X009788471Y-08117054D01*
G01*
X009800000Y-08000000D01*
G01*
X009799045Y-07990301D01*
G01*
X009806337Y-07983009D01*
G01*
X009828078Y-07965166D01*
G01*
X009874578Y-07918666D01*
G01*
X009896319Y-07900824D01*
G01*
X009942818Y-07854324D01*
G01*
X009964559Y-07836482D01*
G01*
X010030850Y-07770190D01*
G01*
X010800520Y-07000520D01*
G01*
X010853375Y-06936117D01*
G01*
X010892649Y-06862640D01*
G01*
X010916834Y-06782913D01*
G01*
X010925000Y-06700000D01*
G01*
X010925000Y-06249998D01*
G01*
X010918056Y-06179493D01*
G01*
X010918056Y-06156248D01*
G01*
X010911111Y-06085735D01*
G01*
X010911111Y-06062498D01*
G01*
X010904167Y-05991991D01*
G01*
X010904167Y-05968748D01*
G01*
X010901616Y-05942849D01*
G01*
X010924264Y-05924262D01*
G01*
X010998882Y-05833340D01*
G01*
X011054328Y-05729608D01*
G01*
X011088471Y-05617052D01*
G01*
X011100000Y-05499998D01*
G01*
X011088471Y-05382944D01*
G01*
X011054328Y-05270388D01*
G01*
X010998882Y-05166656D01*
G01*
X010924264Y-05075734D01*
G01*
X010833342Y-05001116D01*
G01*
X010729610Y-04945670D01*
G01*
X010617054Y-04911527D01*
G01*
X010500000Y-04899998D01*
G01*
X010382946Y-04911527D01*
G01*
X010270390Y-04945670D01*
G01*
X010166658Y-05001116D01*
G01*
X010075736Y-05075734D01*
G01*
X010057149Y-05098382D01*
G01*
X010031250Y-05095831D01*
G01*
X010008007Y-05095831D01*
G01*
X009937500Y-05088887D01*
G01*
X009914263Y-05088887D01*
G01*
X009843750Y-05081942D01*
G01*
X009820505Y-05081942D01*
G01*
X009750000Y-05074998D01*
G01*
X007771237Y-05074998D01*
G01*
X015906628Y003060393D01*
G01*
X015906628Y-06693042D01*
G01*
X010992423Y-11607247D01*
G01*
X010929000Y-11601000D01*
G01*
X010811946Y-11612529D01*
G01*
X010699390Y-11646672D01*
G01*
X010595658Y-11702118D01*
G01*
X010504736Y-11776736D01*
G01*
X010430118Y-11867658D01*
G01*
X010374672Y-11971390D01*
G01*
X010340529Y-12083946D01*
G01*
X010329000Y-12201000D01*
G01*
X010340529Y-12318054D01*
G01*
X010374672Y-12430610D01*
G01*
X010430118Y-12534342D01*
G01*
X010504736Y-12625264D01*
G01*
X010595658Y-12699882D01*
G01*
X010699390Y-12755328D01*
G01*
X010811946Y-12789471D01*
G01*
X010929000Y-12801000D01*
G01*
X011046054Y-12789471D01*
G01*
X011158610Y-12755328D01*
G01*
X011262342Y-12699882D01*
G01*
X011353264Y-12625264D01*
G01*
X011427882Y-12534342D01*
G01*
X011483328Y-12430610D01*
G01*
X011517471Y-12318054D01*
G01*
X011529000Y-12201000D01*
G01*
X011522753Y-12137577D01*
G01*
X016546793Y-07113537D01*
G01*
X016593429Y-07056711D01*
G01*
X016628083Y-06991878D01*
G01*
X016649422Y-06921531D01*
G01*
X016656628Y-06848372D01*
G01*
X016656628Y002899480D01*
G01*
X016657139Y002899430D01*
G01*
X016774194Y002910959D01*
G01*
X016886750Y002945103D01*
G01*
X016990482Y003000549D01*
G01*
X017081404Y003075166D01*
G01*
X017156021Y003166088D01*
G01*
X017211467Y003269820D01*
G01*
X017245611Y003382376D01*
G01*
X017257139Y003499430D01*
G01*
X017245611Y003616484D01*
G01*
X017211467Y003729040D01*
G01*
X017156021Y003832772D01*
G01*
X017081404Y003923694D01*
G01*
X016990482Y003998312D01*
G01*
X016886750Y004053758D01*
G01*
X016774194Y004087901D01*
G01*
X016657139Y004099430D01*
G01*
X016540085Y004087901D01*
G01*
X016427529Y004053758D01*
G01*
X016323797Y003998312D01*
G01*
X016292139Y003972331D01*
G01*
X016292139Y013120654D01*
G01*
X016306102Y013178659D01*
G01*
X016304964Y013178933D01*
G01*
X016309311Y013193262D01*
G01*
X016316516Y013266421D01*
G01*
X016316516Y013367687D01*
G01*
X016316516Y013468953D01*
G01*
X016316516Y013570219D01*
G01*
X016316516Y013671485D01*
G01*
X016316516Y013772750D01*
G01*
X016316516Y013874016D01*
G01*
X016309311Y013947175D01*
G01*
X016309196Y013947552D01*
G01*
X016309234Y013947560D01*
G01*
X016265883Y014164314D01*
G01*
X016265883Y014532244D01*
G01*
X016265883Y014937307D01*
G01*
X016265883Y015342371D01*
G01*
X016265883Y015747434D01*
G01*
X016265883Y016152497D01*
G01*
X016265883Y016557561D01*
G01*
X016258678Y016630719D01*
G01*
X016237338Y016701067D01*
G01*
X016202684Y016765899D01*
G01*
X016156048Y016822726D01*
G01*
X016099222Y016869362D01*
G01*
X016034389Y016904015D01*
G01*
X015964042Y016925355D01*
G01*
X015890883Y016932561D01*
G01*
X015485820Y016932561D01*
G01*
X015455757Y016932561D01*
G01*
X015455757Y016962624D01*
G01*
X015448551Y017035783D01*
G01*
X015427211Y017106130D01*
G01*
X015392558Y017170963D01*
G01*
X015345922Y017227789D01*
G01*
X015289095Y017274425D01*
G01*
X015224263Y017309079D01*
G01*
X015153915Y017330418D01*
G01*
X015080757Y017337624D01*
G01*
X015074616Y017337624D01*
G01*
X015074616Y018535306D01*
G01*
X015123880Y018575736D01*
G01*
X015198498Y018666658D01*
G01*
X015199615Y018668748D01*
G01*
X015200732Y018666658D01*
G01*
X015275350Y018575736D01*
G01*
X015366272Y018501118D01*
G01*
X015470004Y018445672D01*
G01*
X015582560Y018411529D01*
G01*
X015699614Y018400000D01*
G01*
X015763389Y018406281D01*
G01*
X017853000Y016316670D01*
G01*
X017853000Y011463694D01*
G01*
X017803736Y011423264D01*
G01*
X017729118Y011332342D01*
G01*
X017673672Y011228610D01*
G01*
X017639529Y011116054D01*
G01*
X017628000Y010999000D01*
G01*
X017639529Y010881946D01*
G01*
X017673672Y010769390D01*
G01*
X017729118Y010665658D01*
G01*
X017803736Y010574736D01*
G01*
X017894658Y010500118D01*
G01*
X017998390Y010444672D01*
G01*
X018110946Y010410529D01*
G01*
X018228000Y010399000D01*
G01*
X018345054Y010410529D01*
G01*
X018457610Y010444672D01*
G01*
X018561342Y010500118D01*
G01*
X018652264Y010574736D01*
G01*
X018726882Y010665658D01*
G01*
X018782328Y010769390D01*
G01*
X018816471Y010881946D01*
G01*
X018828000Y010999000D01*
G01*
X018816471Y011116054D01*
G01*
X018782328Y011228610D01*
G01*
X018726882Y011332342D01*
G01*
X018652264Y011423264D01*
G01*
X018603000Y011463694D01*
G01*
X018603000Y016472000D01*
G01*
X018595794Y016545159D01*
G01*
X018574455Y016615506D01*
G01*
X018539801Y016680339D01*
G01*
X018493165Y016737165D01*
G01*
X016293402Y018936928D01*
G01*
X016299614Y019000000D01*
G01*
X016288085Y019117054D01*
G01*
X016253942Y019229610D01*
G01*
X016198496Y019333342D01*
G01*
X016123878Y019424264D01*
G01*
X016032956Y019498882D01*
G01*
X015929224Y019554328D01*
G01*
X015816668Y019588471D01*
G01*
X015699614Y019600000D01*
G01*
X015582560Y019588471D01*
G01*
X015470004Y019554328D01*
G01*
X015366272Y019498882D01*
G01*
X015275350Y019424264D01*
G01*
X015200732Y019333342D01*
G01*
X015199615Y019331252D01*
G01*
X015198498Y019333342D01*
G01*
X015123880Y019424264D01*
G01*
X015032958Y019498882D01*
G01*
X014929226Y019554328D01*
G01*
X014816670Y019588471D01*
G01*
X014699616Y019600000D01*
G01*
X014582562Y019588471D01*
G01*
X014470006Y019554328D01*
G01*
X014366274Y019498882D01*
G01*
X014275352Y019424264D01*
G01*
X014200734Y019333342D01*
G01*
X014145288Y019229610D01*
G01*
X014111145Y019117054D01*
G01*
X014099616Y019000000D01*
G01*
X014111145Y018882946D01*
G01*
X014145288Y018770390D01*
G01*
X014200734Y018666658D01*
G01*
X014275352Y018575736D01*
G01*
X014324616Y018535306D01*
G01*
X014324616Y017354209D01*
G01*
X013132147Y018585805D01*
G01*
X013198502Y018666658D01*
G01*
X013253948Y018770390D01*
G01*
X013288091Y018882946D01*
G01*
X013299620Y019000000D01*
G01*
X013288091Y019117054D01*
G01*
X013253948Y019229610D01*
G01*
X013198502Y019333342D01*
G01*
X013123884Y019424264D01*
G01*
X013032962Y019498882D01*
G01*
X012929230Y019554328D01*
G01*
X012816674Y019588471D01*
G01*
X012699620Y019600000D01*
G01*
X012582566Y019588471D01*
G01*
X012470010Y019554328D01*
G01*
X012366278Y019498882D01*
G01*
X012275356Y019424264D01*
G01*
X012200738Y019333342D01*
G01*
X012199621Y019331252D01*
G01*
X012198504Y019333342D01*
G01*
X012123886Y019424264D01*
G01*
X012032964Y019498882D01*
G01*
X011929232Y019554328D01*
G01*
X011816676Y019588471D01*
G01*
X011699622Y019600000D01*
G01*
X011582568Y019588471D01*
G01*
X011470012Y019554328D01*
G01*
X011366280Y019498882D01*
G01*
X011275358Y019424264D01*
G01*
X011200740Y019333342D01*
G01*
X011199877Y019331727D01*
G01*
X011199014Y019333342D01*
G01*
X011124396Y019424264D01*
G01*
X011033474Y019498882D01*
G01*
X010929742Y019554328D01*
G01*
X010817186Y019588471D01*
G01*
X010700132Y019600000D01*
G01*
X010583078Y019588471D01*
G01*
X010470522Y019554328D01*
G01*
X010366790Y019498882D01*
G01*
X010275868Y019424264D01*
G01*
X010201250Y019333342D01*
G01*
X010145804Y019229610D01*
G01*
X010111661Y019117054D01*
G01*
X010100132Y019000000D01*
G01*
X010111661Y018882946D01*
G01*
X010145804Y018770390D01*
G01*
X010201250Y018666658D01*
G01*
X010275868Y018575736D01*
G01*
X010366790Y018501118D01*
G01*
X010470522Y018445672D01*
G01*
X010583078Y018411529D01*
G01*
X010700132Y018400000D01*
G01*
X010763509Y018406242D01*
G01*
X011182292Y017987395D01*
G01*
X011201038Y006727570D01*
G01*
X001657418Y-04125000D01*
G01*
X000563693Y-04125000D01*
G01*
X000523263Y-04075736D01*
G01*
X000432341Y-04001118D01*
G01*
X000328609Y-03945672D01*
G01*
X000216053Y-03911529D01*
G01*
X000098999Y-03900000D01*
G01*
X-00018055Y-03911529D01*
G01*
X-00130611Y-03945672D01*
G01*
X-00234343Y-04001118D01*
G01*
X-00325265Y-04075736D01*
G01*
X-00399883Y-04166658D01*
G01*
X-00455329Y-04270390D01*
G01*
X-00489472Y-04382946D01*
G01*
X-00501001Y-04500000D01*
G01*
X-00489472Y-04617054D01*
G01*
X-00455329Y-04729610D01*
G01*
X-00399883Y-04833342D01*
G01*
X-00325265Y-04924264D01*
G01*
X-00234343Y-04998882D01*
G01*
X-00130611Y-05054328D01*
G01*
X-00018055Y-05088471D01*
G01*
X000098999Y-05100000D01*
G01*
X000216053Y-05088471D01*
G01*
X000328609Y-05054328D01*
G01*
X000432341Y-04998882D01*
G01*
X000523263Y-04924264D01*
G01*
X000563693Y-04875000D01*
G01*
X001827020Y-04875000D01*
G01*
X001900179Y-04867794D01*
G01*
X001970527Y-04846455D01*
G01*
X002035359Y-04811801D01*
G01*
X002092185Y-04765165D01*
G01*
X002107430Y-04746589D01*
G01*
X002108623Y-04747638D01*
G01*
X011857877Y006338768D01*
G01*
X011856684Y006339817D01*
G01*
X011888075Y006378068D01*
G01*
X011922729Y006442900D01*
G01*
X011944068Y006513248D01*
G01*
X011951274Y006586406D01*
G01*
X011951212Y006587031D01*
G01*
X011951273Y006587031D01*
G01*
X011945693Y009938729D01*
G01*
X012195162Y009689260D01*
G01*
X012112323Y006479689D01*
G01*
X012050933Y006429307D01*
G01*
X011976315Y006338385D01*
G01*
X011920869Y006234653D01*
G01*
X011886726Y006122098D01*
G01*
X011875197Y006005043D01*
G01*
X011886726Y005887989D01*
G01*
X011920869Y005775433D01*
G01*
X011976315Y005671701D01*
G01*
X012050933Y005580779D01*
G01*
X012141855Y005506162D01*
G01*
X012245587Y005450716D01*
G01*
X012358143Y005416572D01*
G01*
X012441138Y005408398D01*
G01*
X-03182609Y-10067344D01*
G01*
X-03182488Y-10067466D01*
G01*
X-03183873Y-10068603D01*
G01*
X-03230510Y-10125429D01*
G01*
X-03265163Y-10190261D01*
G01*
X-03286503Y-10260609D01*
G01*
X-03293582Y-10332489D01*
G01*
X-03293706Y-10332489D01*
G01*
X-03300413Y-12299004D01*
G01*
X-03351264Y-12340736D01*
G01*
X-03425882Y-12431658D01*
G01*
X-03481328Y-12535390D01*
G01*
X-03515471Y-12647946D01*
G01*
X-03527000Y-12765000D01*
G01*
X-03515471Y-12882054D01*
G01*
X-03481328Y-12994610D01*
G01*
X-03425882Y-13098342D01*
G01*
X-03351264Y-13189264D01*
G01*
X-03260342Y-13263882D01*
G01*
X-03156610Y-13319328D01*
G01*
X-03044054Y-13353471D01*
G01*
X-02927000Y-13365000D01*
G37*
D38*
G36*
X-04683000Y-06481000D02*
G01*
X-04565946Y-06469471D01*
G01*
X-04453390Y-06435328D01*
G01*
X-04349658Y-06379882D01*
G01*
X-04258736Y-06305264D01*
G01*
X-04184118Y-06214342D01*
G01*
X-04128672Y-06110610D01*
G01*
X-04094529Y-05998054D01*
G01*
X-04083000Y-05881000D01*
G01*
X-04094529Y-05763946D01*
G01*
X-04128672Y-05651390D01*
G01*
X-04184118Y-05547658D01*
G01*
X-04258736Y-05456736D01*
G01*
X-04349658Y-05382118D01*
G01*
X-04453390Y-05326672D01*
G01*
X-04565946Y-05292529D01*
G01*
X-04683000Y-05281000D01*
G01*
X-04719164Y-05284562D01*
G01*
X-12024711Y002020985D01*
G01*
X-12018887Y005152042D01*
G01*
X-11968757Y005193182D01*
G01*
X-11894140Y005284104D01*
G01*
X-11838694Y005387836D01*
G01*
X-11804550Y005500392D01*
G01*
X-11793022Y005617446D01*
G01*
X-11804550Y005734500D01*
G01*
X-11838694Y005847056D01*
G01*
X-11894140Y005950788D01*
G01*
X-11968757Y006041710D01*
G01*
X-12059679Y006116328D01*
G01*
X-12163412Y006171774D01*
G01*
X-12275967Y006205917D01*
G01*
X-12393022Y006217446D01*
G01*
X-12510076Y006205917D01*
G01*
X-12622632Y006171774D01*
G01*
X-12726364Y006116328D01*
G01*
X-12817286Y006041710D01*
G01*
X-12891903Y005950788D01*
G01*
X-12947349Y005847056D01*
G01*
X-12981493Y005734500D01*
G01*
X-12993022Y005617446D01*
G01*
X-12981493Y005500392D01*
G01*
X-12947349Y005387836D01*
G01*
X-12891903Y005284104D01*
G01*
X-12817286Y005193182D01*
G01*
X-12768885Y005153460D01*
G01*
X-12774999Y001866641D01*
G01*
X-12774931Y001866641D01*
G01*
X-12775000Y001865943D01*
G01*
X-12767794Y001792785D01*
G01*
X-12746455Y001722437D01*
G01*
X-12711801Y001657605D01*
G01*
X-12665165Y001600778D01*
G01*
X-05274069Y-05790318D01*
G01*
X-05283000Y-05881000D01*
G01*
X-05271471Y-05998054D01*
G01*
X-05237328Y-06110610D01*
G01*
X-05181882Y-06214342D01*
G01*
X-05107264Y-06305264D01*
G01*
X-05016342Y-06379882D01*
G01*
X-04912610Y-06435328D01*
G01*
X-04800054Y-06469471D01*
G01*
X-04683000Y-06481000D01*
G37*
D38*
G36*
X-16000000Y-16375000D02*
G01*
X017800000Y-16375000D01*
G01*
X017873159Y-16367794D01*
G01*
X017943506Y-16346455D01*
G01*
X018008339Y-16311801D01*
G01*
X018065165Y-16265165D01*
G01*
X018111801Y-16208339D01*
G01*
X018146455Y-16143506D01*
G01*
X018167794Y-16073159D01*
G01*
X018175000Y-16000000D01*
G01*
X018175000Y002285374D01*
G01*
X018224264Y002325804D01*
G01*
X018298882Y002416726D01*
G01*
X018354328Y002520458D01*
G01*
X018388471Y002633014D01*
G01*
X018400000Y002750068D01*
G01*
X018388471Y002867122D01*
G01*
X018354328Y002979678D01*
G01*
X018298882Y003083410D01*
G01*
X018224264Y003174332D01*
G01*
X018133342Y003248950D01*
G01*
X018029610Y003304396D01*
G01*
X017917054Y003338539D01*
G01*
X017800000Y003350068D01*
G01*
X017682946Y003338539D01*
G01*
X017570390Y003304396D01*
G01*
X017466658Y003248950D01*
G01*
X017375736Y003174332D01*
G01*
X017301118Y003083410D01*
G01*
X017245672Y002979678D01*
G01*
X017211529Y002867122D01*
G01*
X017200000Y002750068D01*
G01*
X017211529Y002633014D01*
G01*
X017245672Y002520458D01*
G01*
X017301118Y002416726D01*
G01*
X017375736Y002325804D01*
G01*
X017425000Y002285374D01*
G01*
X017425000Y-15625000D01*
G01*
X-15625000Y-15625000D01*
G01*
X-15625000Y-03864694D01*
G01*
X-15575736Y-03824264D01*
G01*
X-15501118Y-03733342D01*
G01*
X-15445672Y-03629610D01*
G01*
X-15411529Y-03517054D01*
G01*
X-15400000Y-03400000D01*
G01*
X-15411529Y-03282946D01*
G01*
X-15445672Y-03170390D01*
G01*
X-15501118Y-03066658D01*
G01*
X-15575736Y-02975736D01*
G01*
X-15666658Y-02901118D01*
G01*
X-15770390Y-02845672D01*
G01*
X-15882946Y-02811529D01*
G01*
X-16000000Y-02800000D01*
G01*
X-16117054Y-02811529D01*
G01*
X-16229610Y-02845672D01*
G01*
X-16333342Y-02901118D01*
G01*
X-16424264Y-02975736D01*
G01*
X-16498882Y-03066658D01*
G01*
X-16554328Y-03170390D01*
G01*
X-16588471Y-03282946D01*
G01*
X-16600000Y-03400000D01*
G01*
X-16588471Y-03517054D01*
G01*
X-16554328Y-03629610D01*
G01*
X-16498882Y-03733342D01*
G01*
X-16424264Y-03824264D01*
G01*
X-16375000Y-03864694D01*
G01*
X-16375000Y-16000000D01*
G01*
X-16367794Y-16073159D01*
G01*
X-16346455Y-16143506D01*
G01*
X-16311801Y-16208339D01*
G01*
X-16265165Y-16265165D01*
G01*
X-16208339Y-16311801D01*
G01*
X-16143506Y-16346455D01*
G01*
X-16073159Y-16367794D01*
G01*
X-16000000Y-16375000D01*
G37*
%LPD*%
D38*
G36*
X003076208Y005899121D02*
G01*
X003364674Y005907171D01*
G01*
X003474037Y005910223D01*
G01*
X003553970Y005990210D01*
G01*
X003760552Y006196932D01*
G01*
X003967134Y006403655D01*
G01*
X004173717Y006610378D01*
G01*
X004380299Y006817100D01*
G01*
X004380403Y006817204D01*
G01*
X004380407Y006817209D01*
G01*
X004380412Y006817213D01*
G01*
X004511653Y006948544D01*
G01*
X004413294Y007001118D01*
G01*
X004322372Y007075736D01*
G01*
X004247754Y007166658D01*
G01*
X004192308Y007270390D01*
G01*
X004158165Y007382946D01*
G01*
X004146636Y007500000D01*
G01*
X004158165Y007617054D01*
G01*
X004192308Y007729610D01*
G01*
X004237587Y007814321D01*
G01*
X004237587Y007941722D01*
G01*
X004244793Y008014881D01*
G01*
X004266132Y008085228D01*
G01*
X004300786Y008150061D01*
G01*
X004324056Y008178416D01*
G01*
X004322660Y008179561D01*
G01*
X004699056Y008638389D01*
G01*
X004700452Y008637244D01*
G01*
X004723817Y008665715D01*
G01*
X004727407Y008668661D01*
G01*
X004727109Y008668966D01*
G01*
X005683493Y009602039D01*
G01*
X005582914Y009571529D01*
G01*
X005465859Y009560000D01*
G01*
X005348805Y009571529D01*
G01*
X005236249Y009605672D01*
G01*
X005132517Y009661118D01*
G01*
X005041595Y009735736D01*
G01*
X004966978Y009826658D01*
G01*
X004911532Y009930390D01*
G01*
X004877388Y010042946D01*
G01*
X004872788Y010089647D01*
G01*
X004321995Y010090101D01*
G01*
X004354328Y010029610D01*
G01*
X004388471Y009917054D01*
G01*
X004400000Y009800000D01*
G01*
X004388471Y009682946D01*
G01*
X004354328Y009570390D01*
G01*
X004298882Y009466658D01*
G01*
X004224264Y009375736D01*
G01*
X004175000Y009335306D01*
G01*
X004175000Y007900000D01*
G01*
X004167794Y007826841D01*
G01*
X004146455Y007756494D01*
G01*
X004111801Y007691661D01*
G01*
X004065165Y007634835D01*
G01*
X004008339Y007588199D01*
G01*
X003943506Y007553545D01*
G01*
X003873159Y007532206D01*
G01*
X003800000Y007525000D01*
G01*
X001106513Y007525000D01*
G01*
X001114740Y007509609D01*
G01*
X001130395Y007458001D01*
G01*
X001193484Y007394912D01*
G01*
X001249447Y007326721D01*
G01*
X001291032Y007248922D01*
G01*
X001316639Y007164505D01*
G01*
X001325286Y007076714D01*
G01*
X001324846Y007072249D01*
G01*
X001325264Y007072245D01*
G01*
X001322730Y006817214D01*
G01*
X001321974Y006741132D01*
G01*
X001377819Y006680835D01*
G01*
X001555265Y006489242D01*
G01*
X001732712Y006297649D01*
G01*
X001763989Y006263879D01*
G01*
X001801118Y006333342D01*
G01*
X001875736Y006424264D01*
G01*
X001966658Y006498882D01*
G01*
X002070390Y006554328D01*
G01*
X002182946Y006588471D01*
G01*
X002300000Y006600000D01*
G01*
X002417054Y006588471D01*
G01*
X002529610Y006554328D01*
G01*
X002633342Y006498882D01*
G01*
X002724264Y006424264D01*
G01*
X002798882Y006333342D01*
G01*
X002854328Y006229610D01*
G01*
X002888471Y006117054D01*
G01*
X002900000Y006000000D01*
G01*
X002889551Y005893912D01*
G01*
X003076208Y005899121D01*
G37*
D38*
G36*
X003425000Y009335306D02*
G01*
X003399180Y009356496D01*
G01*
X003389328Y009324017D01*
G01*
X003333882Y009220285D01*
G01*
X003259264Y009129363D01*
G01*
X003168342Y009054745D01*
G01*
X003064610Y008999299D01*
G01*
X002952054Y008965156D01*
G01*
X002835000Y008953627D01*
G01*
X002717946Y008965156D01*
G01*
X002605390Y008999299D01*
G01*
X002501658Y009054745D01*
G01*
X002410736Y009129363D01*
G01*
X002336118Y009220285D01*
G01*
X002280672Y009324017D01*
G01*
X002246529Y009436573D01*
G01*
X002235000Y009553627D01*
G01*
X002246529Y009670681D01*
G01*
X002280672Y009783237D01*
G01*
X002336118Y009886969D01*
G01*
X002410736Y009977891D01*
G01*
X002501658Y010052509D01*
G01*
X002605390Y010107954D01*
G01*
X002717946Y010142098D01*
G01*
X002746774Y010144937D01*
G01*
X002773635Y010190793D01*
G01*
X002774948Y010190024D01*
G01*
X002785407Y010209591D01*
G01*
X002809313Y010238721D01*
G01*
X002807921Y010239869D01*
G01*
X003004356Y010478017D01*
G01*
X003005748Y010476869D01*
G01*
X003028478Y010504566D01*
G01*
X003051313Y010523306D01*
G01*
X003050186Y010524626D01*
G01*
X003050624Y010525000D01*
G01*
X001503148Y010525000D01*
G01*
X001554135Y010429610D01*
G01*
X001588279Y010317054D01*
G01*
X001599807Y010200000D01*
G01*
X001588279Y010082946D01*
G01*
X001554135Y009970390D01*
G01*
X001498689Y009866658D01*
G01*
X001424072Y009775736D01*
G01*
X001333150Y009701118D01*
G01*
X001319894Y009694032D01*
G01*
X001354328Y009629610D01*
G01*
X001388471Y009517054D01*
G01*
X001400000Y009400000D01*
G01*
X001388471Y009282946D01*
G01*
X001354328Y009170390D01*
G01*
X001298882Y009066658D01*
G01*
X001224264Y008975736D01*
G01*
X001133342Y008901118D01*
G01*
X001029610Y008845672D01*
G01*
X000917054Y008811529D01*
G01*
X000800000Y008800000D01*
G01*
X000682946Y008811529D01*
G01*
X000570390Y008845672D01*
G01*
X000466658Y008901118D01*
G01*
X000375736Y008975736D01*
G01*
X000301118Y009066658D01*
G01*
X000245672Y009170390D01*
G01*
X000211529Y009282946D01*
G01*
X000200000Y009400000D01*
G01*
X000211529Y009517054D01*
G01*
X000245672Y009629610D01*
G01*
X000264243Y009664353D01*
G01*
X000229293Y009645672D01*
G01*
X000116737Y009611529D01*
G01*
X-00000318Y009600000D01*
G01*
X-00117372Y009611529D01*
G01*
X-00229928Y009645672D01*
G01*
X-00333660Y009701118D01*
G01*
X-00424582Y009775736D01*
G01*
X-00499199Y009866658D01*
G01*
X-00500062Y009868273D01*
G01*
X-00500926Y009866658D01*
G01*
X-00527629Y009834120D01*
G01*
X-00532717Y009782461D01*
G01*
X-00558325Y009698044D01*
G01*
X-00599909Y009620245D01*
G01*
X-00608314Y009610003D01*
G01*
X-00607414Y009609363D01*
G01*
X-00624807Y009584918D01*
G01*
X-00624808Y008275000D01*
G01*
X003425000Y008275000D01*
G01*
X003425000Y009335306D01*
G37*
D38*
G36*
X-01498689Y010533342D02*
G01*
X-01424072Y010624264D01*
G01*
X-01404886Y010640009D01*
G01*
X-01373969Y010697852D01*
G01*
X-01318006Y010766044D01*
G01*
X-01113226Y010970823D01*
G01*
X-00908447Y011175603D01*
G01*
X-00889217Y011194833D01*
G01*
X-00865746Y011272208D01*
G01*
X-00824161Y011350007D01*
G01*
X-00768198Y011418198D01*
G01*
X-00726402Y011452499D01*
G01*
X-00727670Y011454117D01*
G01*
X-00274930Y011809119D01*
G01*
X-00089329Y011994720D01*
G01*
X000115450Y012199499D01*
G01*
X000320229Y012404279D01*
G01*
X000525009Y012609058D01*
G01*
X000729788Y012813837D01*
G01*
X000934567Y013018617D01*
G01*
X001139347Y013223396D01*
G01*
X001344126Y013428175D01*
G01*
X001548905Y013632955D01*
G01*
X001753685Y013837734D01*
G01*
X001958464Y014042513D01*
G01*
X002163243Y014247293D01*
G01*
X002305873Y014389922D01*
G01*
X002302529Y014400946D01*
G01*
X002291000Y014518000D01*
G01*
X002302529Y014635054D01*
G01*
X002315046Y014676318D01*
G01*
X000759081Y014671773D01*
G01*
X000759081Y014671880D01*
G01*
X000757986Y014671772D01*
G01*
X000684827Y014678977D01*
G01*
X000614479Y014700317D01*
G01*
X000549647Y014734971D01*
G01*
X000493798Y014780805D01*
G01*
X000493712Y014780718D01*
G01*
X000374683Y014898950D01*
G01*
X000374683Y014185683D01*
G01*
X000367477Y014112524D01*
G01*
X000346137Y014042176D01*
G01*
X000311484Y013977344D01*
G01*
X000264848Y013920517D01*
G01*
X-01117990Y012537680D01*
G01*
X-01092296Y012489610D01*
G01*
X-01058152Y012377054D01*
G01*
X-01046623Y012260000D01*
G01*
X-01058152Y012142946D01*
G01*
X-01092296Y012030390D01*
G01*
X-01147742Y011926658D01*
G01*
X-01222359Y011835736D01*
G01*
X-01313281Y011761118D01*
G01*
X-01417013Y011705672D01*
G01*
X-01529569Y011671529D01*
G01*
X-01646623Y011660000D01*
G01*
X-01763677Y011671529D01*
G01*
X-01876233Y011705672D01*
G01*
X-01979965Y011761118D01*
G01*
X-02070887Y011835736D01*
G01*
X-02145505Y011926658D01*
G01*
X-02200951Y012030390D01*
G01*
X-02235094Y012142946D01*
G01*
X-02246623Y012260000D01*
G01*
X-02235094Y012377054D01*
G01*
X-02200951Y012489610D01*
G01*
X-02145505Y012593342D01*
G01*
X-02070887Y012684264D01*
G01*
X-01979965Y012758882D01*
G01*
X-01931592Y012784738D01*
G01*
X-00375317Y014341014D01*
G01*
X-00375317Y015335305D01*
G01*
X-00424582Y015375736D01*
G01*
X-00499199Y015466658D01*
G01*
X-00554645Y015570390D01*
G01*
X-00588789Y015682946D01*
G01*
X-00600317Y015800000D01*
G01*
X-00588789Y015917054D01*
G01*
X-00554645Y016029610D01*
G01*
X-00499199Y016133342D01*
G01*
X-00424582Y016224264D01*
G01*
X-00333660Y016298882D01*
G01*
X-00229928Y016354328D01*
G01*
X-00117372Y016388471D01*
G01*
X-00000317Y016400000D01*
G01*
X000116737Y016388471D01*
G01*
X000229293Y016354328D01*
G01*
X000333025Y016298882D01*
G01*
X000423947Y016224264D01*
G01*
X000498564Y016133342D01*
G01*
X000499745Y016131133D01*
G01*
X000500926Y016133342D01*
G01*
X000575543Y016224264D01*
G01*
X000624808Y016264695D01*
G01*
X000624808Y016425000D01*
G01*
X-01988604Y016425000D01*
G01*
X-01959635Y016396031D01*
G01*
X-01882878Y016388471D01*
G01*
X-01770322Y016354328D01*
G01*
X-01666590Y016298882D01*
G01*
X-01575668Y016224264D01*
G01*
X-01501051Y016133342D01*
G01*
X-01445605Y016029610D01*
G01*
X-01411461Y015917054D01*
G01*
X-01399933Y015800000D01*
G01*
X-01411461Y015682946D01*
G01*
X-01445605Y015570390D01*
G01*
X-01501051Y015466658D01*
G01*
X-01575668Y015375736D01*
G01*
X-01666590Y015301118D01*
G01*
X-01770322Y015245672D01*
G01*
X-01882878Y015211529D01*
G01*
X-01999932Y015200000D01*
G01*
X-02116987Y015211529D01*
G01*
X-02229543Y015245672D01*
G01*
X-02333275Y015301118D01*
G01*
X-02392838Y015350000D01*
G01*
X-02543044Y015350000D01*
G01*
X-02814565Y015350000D01*
G01*
X-03086087Y015350000D01*
G01*
X-03357609Y015350000D01*
G01*
X-03629131Y015350000D01*
G01*
X-03900653Y015350000D01*
G01*
X-03998281Y015350000D01*
G01*
X-04065292Y015289118D01*
G01*
X-04234669Y015135234D01*
G01*
X-04166660Y015098882D01*
G01*
X-04075738Y015024264D01*
G01*
X-04001120Y014933342D01*
G01*
X-03945674Y014829610D01*
G01*
X-03911531Y014717054D01*
G01*
X-03900002Y014600000D01*
G01*
X-03911531Y014482946D01*
G01*
X-03913060Y014477906D01*
G01*
X-01802957Y010764228D01*
G01*
X-01770322Y010754328D01*
G01*
X-01666590Y010698882D01*
G01*
X-01575668Y010624264D01*
G01*
X-01501051Y010533342D01*
G01*
X-01499870Y010531133D01*
G01*
X-01498689Y010533342D01*
G37*
D38*
G36*
X006625000Y018632052D02*
G01*
X006601152Y018629703D01*
G01*
X006601203Y018628357D01*
G01*
X006311482Y018617424D01*
G01*
X006021762Y018606491D01*
G01*
X005732042Y018595559D01*
G01*
X005442322Y018584626D01*
G01*
X005152602Y018573693D01*
G01*
X004862882Y018562760D01*
G01*
X004573161Y018551827D01*
G01*
X004283441Y018540894D01*
G01*
X003993721Y018529961D01*
G01*
X003704001Y018519028D01*
G01*
X003414281Y018508096D01*
G01*
X003124561Y018497163D01*
G01*
X002834840Y018486230D01*
G01*
X002545120Y018475297D01*
G01*
X002255400Y018464364D01*
G01*
X001965680Y018453431D01*
G01*
X001675960Y018442498D01*
G01*
X001675909Y018443844D01*
G01*
X001658991Y018442178D01*
G01*
X001571200Y018450825D01*
G01*
X001486783Y018476432D01*
G01*
X001408984Y018518017D01*
G01*
X001340793Y018573980D01*
G01*
X001284829Y018642172D01*
G01*
X001243245Y018719971D01*
G01*
X001217637Y018804387D01*
G01*
X001210657Y018875260D01*
G01*
X001209311Y018875209D01*
G01*
X001198200Y019169642D01*
G01*
X001187779Y019445793D01*
G01*
X001133342Y019401118D01*
G01*
X001029610Y019345672D01*
G01*
X000917054Y019311529D01*
G01*
X000800000Y019300000D01*
G01*
X000682946Y019311529D01*
G01*
X000570390Y019345672D01*
G01*
X000466658Y019401118D01*
G01*
X000375736Y019475736D01*
G01*
X000301118Y019566658D01*
G01*
X000245672Y019670390D01*
G01*
X000211529Y019782946D01*
G01*
X000200000Y019900000D01*
G01*
X000211529Y020017054D01*
G01*
X000215680Y020030738D01*
G01*
X-00167288Y019999626D01*
G01*
X-00167458Y020001720D01*
G01*
X-00203725Y019998148D01*
G01*
X-00209725Y019998739D01*
G01*
X-00200000Y019900000D01*
G01*
X-00211529Y019782946D01*
G01*
X-00245672Y019670390D01*
G01*
X-00301118Y019566658D01*
G01*
X-00375736Y019475736D01*
G01*
X-00466658Y019401118D01*
G01*
X-00570390Y019345672D01*
G01*
X-00682946Y019311529D01*
G01*
X-00800000Y019300000D01*
G01*
X-00917054Y019311529D01*
G01*
X-01029610Y019345672D01*
G01*
X-01133342Y019401118D01*
G01*
X-01224264Y019475736D01*
G01*
X-01298882Y019566658D01*
G01*
X-01354328Y019670390D01*
G01*
X-01386653Y019776951D01*
G01*
X-01403976Y019759628D01*
G01*
X-01411529Y019682946D01*
G01*
X-01445672Y019570390D01*
G01*
X-01501118Y019466658D01*
G01*
X-01575736Y019375736D01*
G01*
X-01666658Y019301118D01*
G01*
X-01770390Y019245672D01*
G01*
X-01882946Y019211529D01*
G01*
X-02000000Y019200000D01*
G01*
X-02117054Y019211529D01*
G01*
X-02229610Y019245672D01*
G01*
X-02333342Y019301118D01*
G01*
X-02395052Y019351762D01*
G01*
X-02480324Y019352144D01*
G01*
X-02536283Y019352394D01*
G01*
X-02601284Y019289520D01*
G01*
X-02797963Y019099278D01*
G01*
X-02994641Y018909036D01*
G01*
X-03191320Y018718794D01*
G01*
X-03387998Y018528553D01*
G01*
X-03584677Y018338311D01*
G01*
X-03781355Y018148069D01*
G01*
X-03978034Y017957827D01*
G01*
X-03978502Y017958311D01*
G01*
X-03996636Y017943429D01*
G01*
X-03913294Y017898882D01*
G01*
X-03822372Y017824264D01*
G01*
X-03747754Y017733342D01*
G01*
X-03692308Y017629610D01*
G01*
X-03658165Y017517054D01*
G01*
X-03646636Y017400000D01*
G01*
X-03658165Y017282946D01*
G01*
X-03690910Y017175000D01*
G01*
X000590922Y017175000D01*
G01*
X000504922Y017261000D01*
G01*
X000476246Y017245672D01*
G01*
X000363690Y017211529D01*
G01*
X000246636Y017200000D01*
G01*
X000129582Y017211529D01*
G01*
X000017026Y017245672D01*
G01*
X-00086706Y017301118D01*
G01*
X-00177628Y017375736D01*
G01*
X-00252246Y017466658D01*
G01*
X-00307692Y017570390D01*
G01*
X-00341835Y017682946D01*
G01*
X-00353364Y017800000D01*
G01*
X-00341835Y017917054D01*
G01*
X-00307692Y018029610D01*
G01*
X-00252246Y018133342D01*
G01*
X-00177628Y018224264D01*
G01*
X-00086706Y018298882D01*
G01*
X000017026Y018354328D01*
G01*
X000129582Y018388471D01*
G01*
X000246636Y018400000D01*
G01*
X000363690Y018388471D01*
G01*
X000476246Y018354328D01*
G01*
X000579978Y018298882D01*
G01*
X000670900Y018224264D01*
G01*
X000745518Y018133342D01*
G01*
X000800964Y018029610D01*
G01*
X000802702Y018023880D01*
G01*
X002265098Y016561485D01*
G01*
X002311734Y016504659D01*
G01*
X002346387Y016439826D01*
G01*
X002367727Y016369479D01*
G01*
X002374933Y016296320D01*
G01*
X002374933Y016264694D01*
G01*
X002424197Y016224264D01*
G01*
X002498814Y016133342D01*
G01*
X002554260Y016029610D01*
G01*
X002588404Y015917054D01*
G01*
X002599933Y015800000D01*
G01*
X002588404Y015682946D01*
G01*
X002554260Y015570390D01*
G01*
X002498814Y015466658D01*
G01*
X002466073Y015426763D01*
G01*
X003684172Y015430321D01*
G01*
X003684172Y015430214D01*
G01*
X003685268Y015430322D01*
G01*
X003758427Y015423117D01*
G01*
X003828774Y015401777D01*
G01*
X003857010Y015386684D01*
G01*
X003932819Y015394151D01*
G01*
X004049874Y015382622D01*
G01*
X004162430Y015348479D01*
G01*
X004266162Y015293033D01*
G01*
X004357084Y015218415D01*
G01*
X004431701Y015127493D01*
G01*
X004487147Y015023761D01*
G01*
X004521291Y014911205D01*
G01*
X004532819Y014794151D01*
G01*
X004521291Y014677097D01*
G01*
X004487147Y014564541D01*
G01*
X004431701Y014460809D01*
G01*
X004357084Y014369887D01*
G01*
X004266162Y014295269D01*
G01*
X004162430Y014239823D01*
G01*
X004049874Y014205680D01*
G01*
X003932819Y014194151D01*
G01*
X003815765Y014205680D01*
G01*
X003703209Y014239823D01*
G01*
X003599477Y014295269D01*
G01*
X003508555Y014369887D01*
G01*
X003479856Y014404857D01*
G01*
X003479471Y014400946D01*
G01*
X003445328Y014288390D01*
G01*
X003389882Y014184658D01*
G01*
X003315264Y014093736D01*
G01*
X003224342Y014019118D01*
G01*
X003188936Y014000193D01*
G01*
X003004419Y013815676D01*
G01*
X002799639Y013610897D01*
G01*
X002594860Y013406117D01*
G01*
X002390081Y013201338D01*
G01*
X002185301Y012996559D01*
G01*
X001980522Y012791779D01*
G01*
X001775743Y012587000D01*
G01*
X001570963Y012382220D01*
G01*
X001366184Y012177441D01*
G01*
X001161405Y011972662D01*
G01*
X000956625Y011767882D01*
G01*
X000751846Y011563103D01*
G01*
X000547067Y011358324D01*
G01*
X000463743Y011275000D01*
G01*
X006625000Y011275000D01*
G01*
X006625000Y018632052D01*
G37*
%ADD39C,0.999998*%
D39*
X-04319905Y022960177D03*
X-04319905Y022960177D02*
X-04319905Y022160178D01*
X-04319905Y022160178D03*
D39*
X004319905Y022960177D03*
X004319905Y022960177D02*
X004319905Y022160178D01*
X004319905Y022160178D03*
D39*
X004319905Y027160168D03*
X004319905Y027160168D02*
X004319905Y025960171D01*
X004319905Y025960171D03*
D39*
X-04319905Y027160168D03*
X-04319905Y027160168D02*
X-04319905Y025960171D01*
X-04319905Y025960171D03*
D10*
X-04319905Y022560177D02*
X-06000000Y021902701D01*
D10*
X004319905Y022560177D02*
X006000000Y021902701D01*
D10*
X004319905Y026560169D02*
X006000000Y025602719D01*
D10*
X-04319905Y026560169D02*
X-06000000Y025602719D01*
D10*
X003800000Y009800000D02*
X003800000Y007900000D01*
D10*
X003800000Y007900000D02*
X-00999808Y007900000D01*
D10*
X-00999808Y007900000D02*
X-00999808Y010200000D01*
D10*
X014000000Y-03500002D02*
X014000000Y-06500000D01*
D10*
X014000000Y-06500000D02*
X013000000Y-06500000D01*
D10*
X013000000Y-06500000D02*
X013000000Y-08000000D01*
D10*
X011000000Y006949960D02*
X011000000Y008500000D01*
D10*
X011000000Y008500000D02*
X006253364Y008500000D01*
D10*
X006253364Y008500000D02*
X006253364Y007500000D01*
D12*
X-01999933Y010200000D02*
X-04500002Y014600000D01*
D10*
X-00000318Y010200000D02*
X-00000318Y010900000D01*
D10*
X-00000318Y010900000D02*
X007000000Y010900000D01*
D10*
X007000000Y010900000D02*
X007000000Y022000000D01*
D10*
X007000000Y022000000D02*
X007249938Y024000000D01*
D10*
X017800000Y002750068D02*
X017800000Y-16000000D01*
D10*
X017800000Y-16000000D02*
X-16000000Y-16000000D01*
D10*
X-16000000Y-16000000D02*
X-16000000Y-03400000D01*
D10*
X004958000Y-05542000D02*
X006773904Y-05542000D01*
D10*
X006773904Y-05542000D02*
X015917139Y003601235D01*
D10*
X015917139Y003601235D02*
X015917139Y013165155D01*
D10*
X015917139Y013165155D02*
X015941516Y013266421D01*
D10*
X015941516Y013266421D02*
X015941516Y013367687D01*
D10*
X015941516Y013367687D02*
X015941516Y013468953D01*
D10*
X015941516Y013468953D02*
X015941516Y013570219D01*
D10*
X015941516Y013570219D02*
X015941516Y013671485D01*
D10*
X015941516Y013671485D02*
X015941516Y013772750D01*
D10*
X015941516Y013772750D02*
X015941516Y013874016D01*
D10*
X015941516Y013874016D02*
X015890883Y014127181D01*
D10*
X015890883Y014127181D02*
X015890883Y014532244D01*
D10*
X015890883Y014532244D02*
X015890883Y014937307D01*
D10*
X015890883Y014937307D02*
X015890883Y015342371D01*
D10*
X015890883Y015342371D02*
X015890883Y015747434D01*
D10*
X015890883Y015747434D02*
X015890883Y016152497D01*
D10*
X015890883Y016152497D02*
X015890883Y016557561D01*
D10*
X015890883Y016557561D02*
X015485820Y016557561D01*
D10*
X015485820Y016557561D02*
X015080757Y016557561D01*
D10*
X015080757Y016557561D02*
X015080757Y016962624D01*
D10*
X015080757Y016962624D02*
X014699616Y016962624D01*
D10*
X014699616Y016962624D02*
X014699616Y019000000D01*
D10*
X000999808Y015800000D02*
X000999808Y016800000D01*
D10*
X000999808Y016800000D02*
X-04246636Y016800000D01*
D10*
X-04246636Y016800000D02*
X-04246636Y017400000D01*
D10*
X000098999Y-04500000D02*
X001827020Y-04500000D01*
D10*
X001827020Y-04500000D02*
X011576274Y006586406D01*
D10*
X011576274Y006586406D02*
X011557034Y018142966D01*
D10*
X011557034Y018142966D02*
X010700132Y019000000D01*
D10*
X-01950977Y007200000D02*
X-01745000Y006994023D01*
D10*
X-01745000Y006994023D02*
X-01745000Y004905155D01*
D10*
X-01745000Y004905155D02*
X-01845822Y004905155D01*
D10*
X-01845822Y004905155D02*
X-01950977Y004800000D01*
D10*
X012310107Y010437403D02*
X012079004Y010336880D01*
D10*
X012079004Y010336880D02*
X012079004Y010335748D01*
D10*
X012079004Y010335748D02*
X012574192Y009840560D01*
D10*
X012574192Y009840560D02*
X012475197Y006005043D01*
D10*
X-03116985Y003977610D02*
X-01240348Y002100919D01*
D10*
X-01240348Y002100919D02*
X003352501Y002100993D01*
D10*
X003352501Y002100993D02*
X003438232Y002100993D01*
D10*
X003438232Y002100993D02*
X003457527Y001902997D01*
D10*
X002000000Y004800000D02*
X001265439Y004065439D01*
D10*
X001265439Y004065439D02*
X-02173753Y004020451D01*
D10*
X-02173753Y004020451D02*
X-03609881Y005523556D01*
D10*
X-03609881Y005523556D02*
X-03597957Y007455540D01*
D10*
X-06185000Y000365799D02*
X-06197377Y000368623D01*
D10*
X-06197377Y000368623D02*
X-06197377Y000407617D01*
D10*
X-06197377Y000407617D02*
X-06789760Y001000000D01*
D10*
X-06789760Y001000000D02*
X-07900000Y001000000D01*
D10*
X-02927000Y-12765000D02*
X-02918708Y-10333768D01*
D10*
X-02918708Y-10333768D02*
X014480473Y006900590D01*
D10*
X014480473Y006900590D02*
X014396417Y007100955D01*
D10*
X014396417Y007100955D02*
X014453607Y016681884D01*
D10*
X014453607Y016681884D02*
X012699917Y018493117D01*
D10*
X012699917Y018493117D02*
X012700000Y019000000D01*
D10*
X011700000Y019000000D02*
X013994000Y016706000D01*
D10*
X013994000Y016706000D02*
X013854000Y009624868D01*
D10*
X010929000Y-12201000D02*
X016281628Y-06848372D01*
D10*
X016281628Y-06848372D02*
X016281628Y003329284D01*
D10*
X016281628Y003329284D02*
X016281628Y003345628D01*
D10*
X016281628Y003345628D02*
X016657139Y003499430D01*
D10*
X-00000317Y015800000D02*
X-00000317Y014185683D01*
D10*
X-00000317Y014185683D02*
X-01676752Y012509248D01*
D10*
X-01676752Y012509248D02*
X-01646623Y012260000D01*
D10*
X-00000317Y015800000D02*
X000757986Y015046772D01*
D10*
X000757986Y015046772D02*
X003685268Y015055322D01*
D10*
X003685268Y015055322D02*
X003932819Y014794151D01*
D10*
X008134907Y014783000D02*
X008371000Y011700135D01*
D10*
X008371000Y011700135D02*
X004988982Y008400550D01*
D10*
X004988982Y008400550D02*
X004612587Y007941722D01*
D10*
X004612587Y007941722D02*
X004612587Y007634049D01*
D10*
X004612587Y007634049D02*
X004746636Y007500000D01*
D10*
X001999933Y015800000D02*
X001999933Y016296320D01*
D10*
X001999933Y016296320D02*
X000496427Y017799825D01*
D10*
X000496427Y017799825D02*
X000247175Y017799825D01*
D10*
X000247175Y017799825D02*
X000247000Y017800000D01*
D10*
X002835000Y009553627D02*
X003097208Y010001252D01*
D10*
X003097208Y010001252D02*
X003293643Y010239401D01*
D10*
X003293643Y010239401D02*
X003558800Y010465729D01*
D10*
X003558800Y010465729D02*
X005421593Y010464196D01*
D10*
X005421593Y010464196D02*
X005465859Y010160000D01*
D10*
X-06596000Y021051000D02*
X-06596000Y020822520D01*
D10*
X-06596000Y020822520D02*
X-06596000Y020594040D01*
D10*
X-06596000Y020594040D02*
X-06596000Y020365559D01*
D10*
X-06596000Y020365559D02*
X-06442101Y020211661D01*
D10*
X-06442101Y020211661D02*
X-06288203Y020057762D01*
D10*
X-06288203Y020057762D02*
X-06134304Y019903863D01*
D10*
X-06134304Y019903863D02*
X-05980405Y019749965D01*
D10*
X-05980405Y019749965D02*
X-05826507Y019596066D01*
D10*
X-05826507Y019596066D02*
X-05672608Y019442167D01*
D10*
X-05672608Y019442167D02*
X-05656167Y019442167D01*
D10*
X-05656167Y019442167D02*
X-05565000Y019351000D01*
D13*
X009200000Y-08000000D02*
X009266291Y-07933709D01*
D13*
X009266291Y-07933709D02*
X009275000Y-07925000D01*
D14*
X009275000Y-07925000D02*
X009332583Y-07867417D01*
D15*
X009332583Y-07867417D02*
X009398874Y-07801126D01*
D16*
X009398874Y-07801126D02*
X009465165Y-07734835D01*
D17*
X009465165Y-07734835D02*
X009531456Y-07668544D01*
D18*
X009531456Y-07668544D02*
X009597748Y-07602252D01*
D19*
X009597748Y-07602252D02*
X009664039Y-07535961D01*
D20*
X009664039Y-07535961D02*
X009730330Y-07469670D01*
D20*
X009730330Y-07469670D02*
X010500000Y-06700000D01*
D20*
X010500000Y-06700000D02*
X010500000Y-06249998D01*
D21*
X010500000Y-06249998D02*
X010500000Y-06156248D01*
D22*
X010500000Y-06156248D02*
X010500000Y-06062498D01*
D23*
X010500000Y-06062498D02*
X010500000Y-05968748D01*
D24*
X010500000Y-05968748D02*
X010500000Y-05874998D01*
D25*
X010500000Y-05874998D02*
X010500000Y-05781248D01*
D26*
X010500000Y-05781248D02*
X010500000Y-05687498D01*
D27*
X010500000Y-05687498D02*
X010500000Y-05593748D01*
D10*
X010500000Y-05593748D02*
X010500000Y-05574998D01*
D10*
X010500000Y-05574998D02*
X010500000Y-05499998D01*
D20*
X006335050Y-06669000D02*
X006593852Y-06580148D01*
D20*
X006593852Y-06580148D02*
X006656494Y-06580148D01*
D20*
X006656494Y-06580148D02*
X007736644Y-05499998D01*
D20*
X007736644Y-05499998D02*
X009750000Y-05499998D01*
D21*
X009750000Y-05499998D02*
X009843750Y-05499998D01*
D22*
X009843750Y-05499998D02*
X009937500Y-05499998D01*
D23*
X009937500Y-05499998D02*
X010031250Y-05499998D01*
D24*
X010031250Y-05499998D02*
X010125000Y-05499998D01*
D25*
X010125000Y-05499998D02*
X010218750Y-05499998D01*
D26*
X010218750Y-05499998D02*
X010312500Y-05499998D01*
D27*
X010312500Y-05499998D02*
X010406250Y-05499998D01*
D10*
X010406250Y-05499998D02*
X010425000Y-05499998D01*
D10*
X010425000Y-05499998D02*
X010500000Y-05499998D01*
D10*
X-04683000Y-05881000D02*
X-04788101Y-05775899D01*
D10*
X-04788101Y-05775899D02*
X-04788101Y-05745955D01*
D10*
X-04788101Y-05745955D02*
X-12400000Y001865943D01*
D10*
X-12400000Y001865943D02*
X-12393022Y005617446D01*
D10*
X018228000Y010999000D02*
X018228000Y016472000D01*
D10*
X018228000Y016472000D02*
X015700000Y019000000D01*
D12*
X-00999808Y010200000D02*
X-00986939Y010035126D01*
D12*
X-00986939Y010035126D02*
X-00974070Y009870252D01*
D12*
X-00974070Y009870252D02*
X-01127231Y009654998D01*
D12*
X-01127231Y009654998D02*
X-01280391Y009439744D01*
D12*
X-01280391Y009439744D02*
X-01433551Y009224490D01*
D12*
X-01433551Y009224490D02*
X-01586712Y009009236D01*
D12*
X-01586712Y009009236D02*
X-01739872Y008793982D01*
D12*
X-01739872Y008793982D02*
X-01893032Y008578728D01*
D12*
X-01893032Y008578728D02*
X-02183100Y008615762D01*
D12*
X-02183100Y008615762D02*
X-02473168Y008652797D01*
D12*
X-02473168Y008652797D02*
X-02763236Y008689832D01*
D12*
X-02763236Y008689832D02*
X-03053304Y008726866D01*
D12*
X-03053304Y008726866D02*
X-03343372Y008763901D01*
D12*
X-03343372Y008763901D02*
X-03633440Y008800936D01*
D12*
X-03633440Y008800936D02*
X-03923508Y008837970D01*
D12*
X-03923508Y008837970D02*
X-04213576Y008875005D01*
D12*
X-04213576Y008875005D02*
X-04405126Y009069030D01*
D12*
X-04405126Y009069030D02*
X-04596676Y009263056D01*
D12*
X-04596676Y009263056D02*
X-04788226Y009457081D01*
D12*
X-04788226Y009457081D02*
X-04979777Y009651106D01*
D12*
X-04979777Y009651106D02*
X-05171327Y009845132D01*
D12*
X-05171327Y009845132D02*
X-05362877Y010039157D01*
D12*
X-05362877Y010039157D02*
X-05554427Y010233182D01*
D12*
X-05554427Y010233182D02*
X-05745978Y010427208D01*
D12*
X-05745978Y010427208D02*
X-05937528Y010621233D01*
D12*
X-05937528Y010621233D02*
X-06129078Y010815258D01*
D12*
X-06129078Y010815258D02*
X-06340109Y010604228D01*
D12*
X-06340109Y010604228D02*
X-06551139Y010393197D01*
D12*
X-06551139Y010393197D02*
X-06762170Y010182167D01*
D12*
X-06762170Y010182167D02*
X-06973200Y009971136D01*
D12*
X-06973200Y009971136D02*
X-07184231Y009760105D01*
D12*
X-07184231Y009760105D02*
X-07395262Y009549075D01*
D12*
X-07395262Y009549075D02*
X-07606292Y009338044D01*
D12*
X-07606292Y009338044D02*
X-07817323Y009127014D01*
D12*
X-07817323Y009127014D02*
X-07950000Y009150000D01*
D12*
X-07950000Y009150000D02*
X-08450415Y008493922D01*
D12*
X-08450415Y008493922D02*
X-08661445Y008282891D01*
D12*
X-08661445Y008282891D02*
X-08661445Y007990791D01*
D12*
X-08661445Y007990791D02*
X-08661445Y007698690D01*
D12*
X-08661445Y007698690D02*
X-08661445Y007406590D01*
D12*
X-08661445Y007406590D02*
X-08661445Y007114489D01*
D12*
X-08661445Y007114489D02*
X-08661445Y006822389D01*
D12*
X-08661445Y006822389D02*
X-08661445Y006530288D01*
D12*
X-08661445Y006530288D02*
X-08661445Y006238188D01*
D12*
X-08661445Y006238188D02*
X-08661445Y005946087D01*
D12*
X-08661445Y005946087D02*
X-08661445Y005653987D01*
D12*
X-08661445Y005653987D02*
X-08661445Y005361886D01*
D12*
X-08661445Y005361886D02*
X-08661445Y005069786D01*
D12*
X-08661445Y005069786D02*
X-08661445Y004777685D01*
D12*
X-08661445Y004777685D02*
X-08661445Y004485585D01*
D12*
X-08661445Y004485585D02*
X-08700000Y004350000D01*
D12*
X-08700000Y004350000D02*
X-08059551Y003883691D01*
D12*
X-08059551Y003883691D02*
X-07858920Y003683059D01*
D12*
X-07858920Y003683059D02*
X-07658288Y003482428D01*
D12*
X-07658288Y003482428D02*
X-07457657Y003281797D01*
D12*
X-07457657Y003281797D02*
X-07257025Y003081165D01*
D12*
X-07257025Y003081165D02*
X-07056394Y002880534D01*
D12*
X-07056394Y002880534D02*
X-06855763Y002679902D01*
D12*
X-06855763Y002679902D02*
X-06655131Y002479271D01*
D12*
X-06655131Y002479271D02*
X-08050000Y002075000D01*
D12*
X-00999808Y010200000D02*
X-00999808Y010447846D01*
D12*
X-00999808Y010447846D02*
X-00795028Y010652625D01*
D12*
X-00795028Y010652625D02*
X-00590249Y010857404D01*
D12*
X-00590249Y010857404D02*
X-00385469Y011062184D01*
D12*
X-00385469Y011062184D02*
X-00450000Y011100000D01*
D12*
X-00450000Y011100000D02*
X000024089Y011471742D01*
D12*
X000024089Y011471742D02*
X000228869Y011676522D01*
D12*
X000228869Y011676522D02*
X000433648Y011881301D01*
D12*
X000433648Y011881301D02*
X000638427Y012086081D01*
D12*
X000638427Y012086081D02*
X000843207Y012290860D01*
D12*
X000843207Y012290860D02*
X001047986Y012495639D01*
D12*
X001047986Y012495639D02*
X001252765Y012700419D01*
D12*
X001252765Y012700419D02*
X001457545Y012905198D01*
D12*
X001457545Y012905198D02*
X001662324Y013109977D01*
D12*
X001662324Y013109977D02*
X001867103Y013314757D01*
D12*
X001867103Y013314757D02*
X002071883Y013519536D01*
D12*
X002071883Y013519536D02*
X002276662Y013724315D01*
D12*
X002276662Y013724315D02*
X002481441Y013929095D01*
D12*
X002481441Y013929095D02*
X002686221Y014133874D01*
D12*
X002686221Y014133874D02*
X002891000Y014338653D01*
D12*
X002891000Y014338653D02*
X002891000Y014518000D01*
D12*
X002000000Y019800000D02*
X001200000Y020550000D01*
D12*
X001200000Y020550000D02*
X001050000Y020550000D01*
D12*
X001050000Y020550000D02*
X-00203725Y020448148D01*
D12*
X-00203725Y020448148D02*
X-00300000Y020550000D01*
D12*
X-00300000Y020550000D02*
X-01200000Y020550000D01*
D12*
X-01200000Y020550000D02*
X-01513889Y020286111D01*
D12*
X-01513889Y020286111D02*
X-01675926Y020124074D01*
D12*
X-01675926Y020124074D02*
X-01837963Y019962037D01*
D12*
X-01837963Y019962037D02*
X-02000000Y019800000D01*
D12*
X-02000000Y019800000D02*
X-02239156Y019801070D01*
D12*
X-02239156Y019801070D02*
X-02478311Y019802139D01*
D12*
X-02478311Y019802139D02*
X-02717467Y019803209D01*
D12*
X-02717467Y019803209D02*
X-02914146Y019612967D01*
D12*
X-02914146Y019612967D02*
X-03110824Y019422725D01*
D12*
X-03110824Y019422725D02*
X-03307503Y019232483D01*
D12*
X-03307503Y019232483D02*
X-03504181Y019042241D01*
D12*
X-03504181Y019042241D02*
X-03700860Y018851999D01*
D12*
X-03700860Y018851999D02*
X-03897538Y018661757D01*
D12*
X-03897538Y018661757D02*
X-04094217Y018471515D01*
D12*
X-04094217Y018471515D02*
X-04290895Y018281273D01*
D12*
X-04290895Y018281273D02*
X-04950000Y017850000D01*
D12*
X-04950000Y017850000D02*
X-04880931Y017710548D01*
D12*
X-04880931Y017710548D02*
X-04876038Y017450268D01*
D12*
X-04876038Y017450268D02*
X-04871146Y017189988D01*
D12*
X-04871146Y017189988D02*
X-04866253Y016929709D01*
D12*
X-04866253Y016929709D02*
X-04500000Y016350000D01*
D12*
X-04500000Y016350000D02*
X-04297708Y016361922D01*
D12*
X-04297708Y016361922D02*
X-04108193Y016172659D01*
D12*
X-04108193Y016172659D02*
X-03822813Y016176535D01*
D12*
X-03822813Y016176535D02*
X-03537433Y016180411D01*
D12*
X-03537433Y016180411D02*
X-03252053Y016184287D01*
D12*
X-03252053Y016184287D02*
X-02966674Y016188163D01*
D12*
X-02966674Y016188163D02*
X-02681294Y016192039D01*
D12*
X-02681294Y016192039D02*
X-02395914Y016195914D01*
D12*
X-02395914Y016195914D02*
X-02197957Y015997957D01*
D12*
X-02197957Y015997957D02*
X-02000000Y015800000D01*
D12*
X001800000Y020900000D02*
X001592326Y020658778D01*
D12*
X001592326Y020658778D02*
X001603437Y020364345D01*
D12*
X001603437Y020364345D02*
X001614548Y020069911D01*
D12*
X001614548Y020069911D02*
X001625658Y019775478D01*
D12*
X001625658Y019775478D02*
X001636769Y019481045D01*
D12*
X001636769Y019481045D02*
X001647880Y019186611D01*
D12*
X001647880Y019186611D02*
X001658991Y018892178D01*
D12*
X001658991Y018892178D02*
X001948711Y018903111D01*
D12*
X001948711Y018903111D02*
X002238431Y018914044D01*
D12*
X002238431Y018914044D02*
X002528151Y018924977D01*
D12*
X002528151Y018924977D02*
X002817871Y018935910D01*
D12*
X002817871Y018935910D02*
X003107591Y018946843D01*
D12*
X003107591Y018946843D02*
X003397312Y018957775D01*
D12*
X003397312Y018957775D02*
X003687032Y018968708D01*
D12*
X003687032Y018968708D02*
X003976752Y018979641D01*
D12*
X003976752Y018979641D02*
X004266472Y018990574D01*
D12*
X004266472Y018990574D02*
X004556192Y019001507D01*
D12*
X004556192Y019001507D02*
X004845912Y019012440D01*
D12*
X004845912Y019012440D02*
X005135633Y019023373D01*
D12*
X005135633Y019023373D02*
X005425353Y019034306D01*
D12*
X005425353Y019034306D02*
X005715073Y019045239D01*
D12*
X005715073Y019045239D02*
X006004793Y019056171D01*
D12*
X006004793Y019056171D02*
X006294513Y019067104D01*
D12*
X006294513Y019067104D02*
X006584233Y019078037D01*
D12*
X006584233Y019078037D02*
X006573628Y019359087D01*
D12*
X006573628Y019359087D02*
X006350000Y019600000D01*
D12*
X-02000000Y015800000D02*
X-02271522Y015800000D01*
D12*
X-02271522Y015800000D02*
X-02543044Y015800000D01*
D12*
X-02543044Y015800000D02*
X-02814565Y015800000D01*
D12*
X-02814565Y015800000D02*
X-03086087Y015800000D01*
D12*
X-03086087Y015800000D02*
X-03357609Y015800000D01*
D12*
X-03357609Y015800000D02*
X-03629131Y015800000D01*
D12*
X-03629131Y015800000D02*
X-03900653Y015800000D01*
D12*
X-03900653Y015800000D02*
X-04172174Y015800000D01*
D12*
X-04172174Y015800000D02*
X-04367893Y015622183D01*
D12*
X-04367893Y015622183D02*
X-04563612Y015444367D01*
D12*
X-04563612Y015444367D02*
X-04759330Y015266550D01*
D12*
X-04759330Y015266550D02*
X-04950000Y015300000D01*
D12*
X-04950000Y015300000D02*
X-05250000Y014850000D01*
D12*
X-05250000Y014850000D02*
X-05037689Y013961440D01*
D12*
X-05037689Y013961440D02*
X-05032773Y013672245D01*
D12*
X-05032773Y013672245D02*
X-05027858Y013383050D01*
D12*
X-05027858Y013383050D02*
X-05022942Y013093854D01*
D12*
X-05022942Y013093854D02*
X-05018026Y012804659D01*
D12*
X-05018026Y012804659D02*
X-05013110Y012515463D01*
D12*
X-05013110Y012515463D02*
X-05008195Y012226268D01*
D12*
X-05008195Y012226268D02*
X-05003279Y011937072D01*
D12*
X-05003279Y011937072D02*
X-04998363Y011647877D01*
D12*
X-04998363Y011647877D02*
X-04993448Y011358682D01*
D12*
X-04993448Y011358682D02*
X-04988532Y011069486D01*
D12*
X-04988532Y011069486D02*
X-04983616Y010780291D01*
D12*
X-04983616Y010780291D02*
X-04788691Y010585686D01*
D12*
X-04788691Y010585686D02*
X-04593765Y010391082D01*
D12*
X-04593765Y010391082D02*
X-04398839Y010196477D01*
D12*
X-04398839Y010196477D02*
X-04203913Y010001873D01*
D12*
X-04203913Y010001873D02*
X-04008988Y009807268D01*
D12*
X-04008988Y009807268D02*
X-03814062Y009612664D01*
D28*
X-03814062Y009612664D02*
X-03619136Y009418059D01*
D20*
X-03619136Y009418059D02*
X-03424211Y009223455D01*
D20*
X-03424211Y009223455D02*
X-03194544Y009223455D01*
D20*
X-03194544Y009223455D02*
X-02964878Y009223455D01*
D20*
X-02964878Y009223455D02*
X-02735211Y009223455D01*
D20*
X-02735211Y009223455D02*
X-02505545Y009223455D01*
D12*
X-02505545Y009223455D02*
X-02292232Y009298997D01*
D12*
X-02292232Y009298997D02*
X-02078919Y009374538D01*
D12*
X000560412Y007279999D02*
X000704259Y007247741D01*
D12*
X000704259Y007247741D02*
X000875286Y007076714D01*
D12*
X000875286Y007076714D02*
X000872753Y006821683D01*
D12*
X000872753Y006821683D02*
X000870220Y006566652D01*
D12*
X000870220Y006566652D02*
X001047666Y006375059D01*
D12*
X001047666Y006375059D02*
X001225112Y006183466D01*
D12*
X001225112Y006183466D02*
X001402558Y005991874D01*
D12*
X001402558Y005991874D02*
X001580005Y005800281D01*
D29*
X001580005Y005800281D02*
X001600000Y005700000D01*
D28*
X001600000Y005700000D02*
X001750000Y005550000D01*
D28*
X001750000Y005550000D02*
X001900000Y005400000D01*
D30*
X001900000Y005400000D02*
X002050000Y005400000D01*
D30*
X002050000Y005400000D02*
X002200000Y005400000D01*
D28*
X002200000Y005400000D02*
X002500000Y005400000D01*
D28*
X002500000Y005400000D02*
X002650148Y005420623D01*
D28*
X002650148Y005420623D02*
X002800295Y005441246D01*
D12*
X002800295Y005441246D02*
X003088761Y005449296D01*
D12*
X003088761Y005449296D02*
X003377227Y005457347D01*
D12*
X003377227Y005457347D02*
X003665693Y005465397D01*
D12*
X003665693Y005465397D02*
X003872276Y005672120D01*
D12*
X003872276Y005672120D02*
X004078858Y005878842D01*
D12*
X004078858Y005878842D02*
X004285440Y006085565D01*
D12*
X004285440Y006085565D02*
X004492023Y006292288D01*
D12*
X004492023Y006292288D02*
X004698605Y006499011D01*
D12*
X004698605Y006499011D02*
X004905187Y006705733D01*
D28*
X004905187Y006705733D02*
X005118750Y006862500D01*
D28*
X005118750Y006862500D02*
X005250000Y007000000D01*
D28*
X005250000Y007000000D02*
X005387467Y007162951D01*
D12*
X005387467Y007162951D02*
X005524934Y007325901D01*
D12*
X005524934Y007325901D02*
X005524934Y007587891D01*
D12*
X005524934Y007587891D02*
X005524934Y007849880D01*
D12*
X005524934Y007849880D02*
X005524934Y008111870D01*
D12*
X005524934Y008111870D02*
X005524934Y008373859D01*
D12*
X005524934Y008373859D02*
X005718563Y008567487D01*
D12*
X005718563Y008567487D02*
X005912191Y008761115D01*
D12*
X005912191Y008761115D02*
X006105819Y008954744D01*
D12*
X006105819Y008954744D02*
X006299447Y009148372D01*
D12*
X006299447Y009148372D02*
X006493075Y009342000D01*
D12*
X006493075Y009342000D02*
X006769251Y009342000D01*
D12*
X006769251Y009342000D02*
X007045426Y009342000D01*
D12*
X007045426Y009342000D02*
X007321602Y009342000D01*
D10*
X-08000000Y004800000D02*
X-07500000Y005300000D01*
D10*
X-07500000Y005300000D02*
X-07500000Y006000000D01*
D10*
X001999933Y010200000D02*
X001942366Y009641181D01*
D10*
X001942366Y009641181D02*
X003200000Y008500000D01*
D10*
X016898000Y009396000D02*
X016858265Y009356265D01*
D10*
X016858265Y009356265D02*
X017102000Y009600000D01*
D10*
X017102000Y009600000D02*
X019200000Y009600000D01*
D10*
X-07500000Y008500000D02*
X-07500000Y006000000D01*
D10*
X-14999998Y-03000000D02*
X-15740000Y-02259998D01*
D10*
X-15740000Y-02259998D02*
X-16443394Y-02259998D01*
D10*
X-16443394Y-02259998D02*
X-16586002Y-02259998D01*
D10*
X-16586002Y-02259998D02*
X-16740000Y-02241000D01*
D10*
X-06000000Y021903000D02*
X-04197000Y020100000D01*
D10*
X-04197000Y020100000D02*
X-03600000Y020100000D01*
D10*
X006000000Y021903000D02*
X003897000Y019800000D01*
D10*
X003897000Y019800000D02*
X003600000Y019800000D01*
D10*
X006253000Y007500000D02*
X005470724Y006670121D01*
D10*
X005470724Y006670121D02*
X003628000Y004875000D01*
D10*
X003628000Y004875000D02*
X003628000Y004402997D01*
D10*
X006000000Y021902701D02*
X006474701Y021428000D01*
D10*
X006474701Y021428000D02*
X006260000Y021419592D01*
D10*
X007613262Y021114999D02*
X007360743Y020821889D01*
D10*
X007360743Y020821889D02*
X007360743Y020787647D01*
D10*
X007360743Y020787647D02*
X008124062Y021550967D01*
D10*
X008124062Y021550967D02*
X009196317Y021550967D01*
D10*
X-05885838Y001866624D02*
X-05612015Y001414927D01*
D10*
X-05612015Y001414927D02*
X-05647541Y000037294D01*
D10*
X-05647541Y000037294D02*
X-05929937Y-00175791D01*
D10*
X-05929937Y-00175791D02*
X-07624209Y-00175791D01*
D10*
X-07624209Y-00175791D02*
X-07800000Y000000000D01*
D10*
X-06000000Y021902701D02*
X-06000000Y025602719D01*
D10*
X006000000Y021903000D02*
X006000000Y025602719D01*
D10*
X-19900000Y-01025000D02*
X-19890352Y-01034648D01*
D10*
X-19890352Y-01034648D02*
X-19778870Y-01034648D01*
D10*
X-19778870Y-01034648D02*
X-17100000Y001644222D01*
D10*
X-17100000Y001644222D02*
X-17100000Y003835000D01*
D10*
X-13000000Y003000000D02*
X-15200000Y005200000D01*
D10*
X-15200000Y005200000D02*
X-15200000Y006000000D01*
D10*
X-06185000Y-01650000D02*
X-06449230Y-01350770D01*
D10*
X-06449230Y-01350770D02*
X-07800000Y000000000D01*
D10*
X015177139Y010110462D02*
X015437298Y010105874D01*
D10*
X015437298Y010105874D02*
X015437298Y010083535D01*
D10*
X015437298Y010083535D02*
X015400000Y010046237D01*
D10*
X015400000Y010046237D02*
X015177139Y008600000D01*
D10*
X-19437000Y007743000D02*
X-19377342Y007683342D01*
D10*
X-19377342Y007683342D02*
X-18304000Y006610000D01*
D10*
X-18304000Y006610000D02*
X-18304000Y005880000D01*
D37*
X-03600000Y020100000D03*
D37*
X-02000000Y019800000D03*
D37*
X-00800000Y019900000D03*
D37*
X000800000Y019900000D03*
D37*
X002000000Y019800000D03*
D37*
X003600000Y019800000D03*
D37*
X-01999933Y010200000D03*
D37*
X-00999808Y010200000D03*
D37*
X-00000317Y010200000D03*
D37*
X000999808Y010200000D03*
D37*
X001999933Y010200000D03*
D37*
X001999933Y015800000D03*
D37*
X000999808Y015800000D03*
D37*
X-00000317Y015800000D03*
D37*
X-01999933Y015800000D03*
D37*
X-02500000Y013000000D03*
D37*
X006253364Y007500000D03*
D37*
X004746636Y007500000D03*
D37*
X003800000Y009800000D03*
D37*
X005200000Y013200000D03*
D37*
X-07400000Y016000000D03*
D37*
X000246636Y017800000D03*
D37*
X001753364Y018200000D03*
D37*
X009200000Y-08000000D03*
D37*
X013000000Y-08000000D03*
D37*
X010500000Y-05499998D03*
D37*
X014000000Y-03500002D03*
D37*
X015699614Y019000000D03*
D37*
X014699616Y019000000D03*
D37*
X013699618Y019000000D03*
D37*
X012699620Y019000000D03*
D37*
X011699622Y019000000D03*
D37*
X010700132Y019000000D03*
D37*
X-01500000Y003300000D03*
D37*
X-13000000Y003000000D03*
D37*
X-08000000Y004800000D03*
D37*
X-07800000Y000000000D03*
D37*
X-07500000Y006000000D03*
D37*
X-07500000Y008500000D03*
D37*
X-14999998Y-03000000D03*
D37*
X-07900000Y001000000D03*
D37*
X002000000Y004800000D03*
D37*
X002300000Y006000000D03*
D37*
X002000000Y007200000D03*
D37*
X-02000000Y007200000D03*
D37*
X-02300000Y006000000D03*
D37*
X-02000000Y004800000D03*
D37*
X-03000000Y009800000D03*
D37*
X-05253364Y004400000D03*
D37*
X000800000Y009400000D03*
D37*
X003200000Y008500000D03*
D37*
X011000000Y006949960D03*
D37*
X-04500002Y014600000D03*
D37*
X007249938Y024000000D03*
D37*
X017800000Y002750068D03*
D37*
X-16000000Y-03400000D03*
D37*
X004958000Y-05542000D03*
D37*
X-04246636Y017400000D03*
D37*
X000098999Y-04500000D03*
D37*
X012310107Y010437403D03*
D37*
X012475197Y006005043D03*
D37*
X-03116985Y003977610D03*
D37*
X003457527Y001902997D03*
D37*
X-03597957Y007455540D03*
D37*
X-06185000Y000365799D03*
D37*
X-02927000Y-12765000D03*
D37*
X013854000Y009624868D03*
D37*
X010929000Y-12201000D03*
D37*
X016657139Y003499430D03*
D37*
X-01646623Y012260000D03*
D37*
X003932819Y014794151D03*
D37*
X008134907Y014783000D03*
D37*
X002835000Y009553627D03*
D37*
X005465859Y010160000D03*
D37*
X-06596000Y021051000D03*
D37*
X-05565000Y019351000D03*
D37*
X006335050Y-06669000D03*
D37*
X-04683000Y-05881000D03*
D37*
X-12393022Y005617446D03*
D37*
X018228000Y010999000D03*
D37*
X-08050000Y002075000D03*
D37*
X002891000Y014518000D03*
D37*
X001800000Y020900000D03*
D37*
X006350000Y019600000D03*
D37*
X-02078919Y009374538D03*
D37*
X000560412Y007279999D03*
D37*
X007321602Y009342000D03*
D37*
X016898000Y009396000D03*
D37*
X019200000Y009600000D03*
D37*
X-16740000Y-02241000D03*
D37*
X003628000Y004402997D03*
D37*
X006260000Y021419592D03*
D37*
X007613262Y021114999D03*
D37*
X009196317Y021550967D03*
D37*
X-05885838Y001866624D03*
D37*
X-19900000Y-01025000D03*
D37*
X-17100000Y003835000D03*
D37*
X-15200000Y006000000D03*
D37*
X-06185000Y-01650000D03*
D37*
X015177139Y010110462D03*
D37*
X015177139Y008600000D03*
D37*
X-19437000Y007743000D03*
D37*
X-18304000Y005880000D03*
%LPC*%
D35*
X021756164Y003500130D03*
%LPD*%
%LPC*%
D35*
X021756164Y006500124D03*
%LPD*%
%LPC*%
D36*
X-21000000Y025000000D03*
%LPD*%
%LPC*%
D36*
X021000000Y025000000D03*
%LPD*%
%LPC*%
D36*
X-21000000Y-14000000D03*
%LPD*%
%LPC*%
D36*
X021000000Y-14000000D03*
%LPD*%
M02*