%TF.GenerationSoftware,tscircuit,circuit-json-to-gerber,0.0.109*%
%TF.CreationDate,2026-10-05T16:26:20.928Z*%
%TF.SameCoordinates,Original*%
%TF.FileFunction,Legend,Bot*%
%TF.FilePolarity,Positive*%
%FSLAX46Y46*%
%MOMM*%
G04 Gerber Fmt 4.6, Leading zero omitted, Abs format (unit mm)*
G04 Created by tscircuit (builder) date 2026-10-05T16:26:20.928Z*
G01*
%LPD*%
G75*
G04 APERTURE MACROS START*
%AMHORZPILL*
0 Horizontal pill (stadium) shape macro*
0 Parameters:*
0 $1 = Total width*
0 $2 = Total height*
0 $3 = Circle diameter (equal to height)*
0 $4 = Circle center offset
0 21 = Center Line(Exposure, Width, Height, Center X, Center Y, Rotation)*
0 1 = Circle(Exposure, Diameter, Center X, Center Y, Rotation)*
21,1,$1-$3,$2,0.0,0.0,0.0*
1,1,$3,0.0-$4,0.0*
1,1,$3,$4,0.0*%
%AMVERTPILL*
0 Vertical pill (stadium) shape macro*
0 Parameters:*
0 $1 = Total width*
0 $2 = Total height*
0 $3 = Circle diameter (equal to width)*
0 $4 = Circle center offset
0 21 = Center Line(Exposure, Width, Height, Center X, Center Y, Rotation)*
21,1,$1,$2-$3,0.0,0.0,0.0*
1,1,$3,0.0,0.0-$4*
1,1,$3,0.0,$4*%
%AMROUNDRECT*
0 Rectangle with rounded corners*
0 $1 Corner radius*
0 $2 $3 $4 $5 $6 $7 $8 $9 X,Y Position of each corner*
0 Polygon box body*
4,1,4,$2,$3,$4,$5,$6,$7,$8,$9,$2,$3,0*
0 Circles for rounded corners*
1,1,$1+$1,$2,$3*
1,1,$1+$1,$4,$5*
1,1,$1+$1,$6,$7*
1,1,$1+$1,$8,$9*
0 Rectangles between the rounded corners*
20,1,$1+$1,$2,$3,$4,$5,0*
20,1,$1+$1,$4,$5,$6,$7,0*
20,1,$1+$1,$6,$7,$8,$9,0*
20,1,$1+$1,$8,$9,$2,$3,0*%
G04 APERTURE MACROS END*
G04 aperture START LIST*
%ADD10C,0.150000*%
%ADD11C,0.200000*%
%ADD12C,0.300000*%
%ADD13C,0.212132*%
%ADD14C,0.216921*%
%ADD15C,0.222434*%
%ADD16C,0.227947*%
%ADD17C,0.233460*%
%ADD18C,0.238974*%
%ADD19C,0.244487*%
%ADD20C,0.250000*%
%ADD21C,0.236111*%
%ADD22C,0.222222*%
%ADD23C,0.208333*%
%ADD24C,0.194444*%
%ADD25C,0.180556*%
%ADD26C,0.166667*%
%ADD27C,0.152778*%
%ADD28C,0.262500*%
%ADD29C,0.275000*%
%ADD30C,0.287500*%
%ADD31C,0.162000*%
%ADD32VERTPILL,0.999998X1.799996X0.999998X0.399999*%
%ADD33VERTPILL,0.999998X2.199996X0.999998X0.599999*%
%ADD34C,0.100000*%
%ADD35C,0.600000*%
%TD*%
G04 aperture END LIST*
D31*
X013035794Y-15559581D02*
X013035794Y-14733581D01*
X013035794Y-14733581D02*
X012793603Y-14711455D01*
X012793603Y-14711455D02*
X012623615Y-14718852D01*
X012623615Y-14718852D02*
X012521070Y-14741583D01*
X012521070Y-14741583D02*
X012477951Y-14760114D01*
X012477951Y-14760114D02*
X012442463Y-14784234D01*
X012442463Y-14784234D02*
X012416247Y-14814549D01*
X012416247Y-14814549D02*
X012393129Y-14896757D01*
X012393129Y-14896757D02*
X012395299Y-14969660D01*
X012395299Y-14969660D02*
X012418959Y-15022449D01*
X012418959Y-15022449D02*
X012461425Y-15058613D01*
X012461425Y-15058613D02*
X012520009Y-15081647D01*
X012520009Y-15081647D02*
X012632237Y-15099211D01*
X012632237Y-15099211D02*
X013019740Y-15112930D01*
X012697935Y-15147806D02*
X012365186Y-15565702D01*
X011472770Y-14694844D02*
X011568627Y-14712241D01*
X011568627Y-14712241D02*
X011655925Y-14755084D01*
X011655925Y-14755084D02*
X011717547Y-14851478D01*
X011717547Y-14851478D02*
X011693583Y-14937161D01*
X011693583Y-14937161D02*
X011621691Y-15002763D01*
X011621691Y-15002763D02*
X011546374Y-15049621D01*
X011546374Y-15049621D02*
X011358085Y-15119240D01*
X011358085Y-15119240D02*
X011241686Y-15183503D01*
X011241686Y-15183503D02*
X011171506Y-15259816D01*
X011171506Y-15259816D02*
X011156100Y-15368259D01*
X011156100Y-15368259D02*
X011195470Y-15474025D01*
X011195470Y-15474025D02*
X011281056Y-15538287D01*
X011281056Y-15538287D02*
X011406013Y-15581130D01*
X011406013Y-15581130D02*
X011501870Y-15578452D01*
X011501870Y-15578452D02*
X011614844Y-15540965D01*
X011614844Y-15540965D02*
X011705565Y-15480719D01*
X011705565Y-15480719D02*
X011753493Y-15392358D01*
X011753493Y-15392358D02*
X011750070Y-15303995D01*
X011750070Y-15303995D02*
X011705565Y-15215635D01*
X011705565Y-15215635D02*
X011606285Y-15136644D01*
X011606285Y-15136644D02*
X011507005Y-15101836D01*
X011507005Y-15101836D02*
X011382049Y-15061671D01*
X011382049Y-15061671D02*
X011258803Y-14996069D01*
X011258803Y-14996069D02*
X011221146Y-14933146D01*
X011221146Y-14933146D02*
X011219433Y-14827379D01*
X011219433Y-14827379D02*
X011262227Y-14751067D01*
X011262227Y-14751067D02*
X011349526Y-14704209D01*
X011349526Y-14704209D02*
X011472770Y-14694844D01*
X009241804Y-14711455D02*
X009241804Y-15565702D01*
X009241804Y-14711455D02*
X008685015Y-14711455D01*
X009241804Y-15138576D02*
X008852052Y-15138576D01*
X009241804Y-15565702D02*
X008685015Y-15565702D01*
X007488382Y-14829060D02*
X007583416Y-14707021D01*
X007583416Y-14707021D02*
X007808683Y-14694844D01*
X007808683Y-14694844D02*
X007934943Y-14782732D01*
X007934943Y-14782732D02*
X007986491Y-14943979D01*
X007986491Y-14943979D02*
X007965142Y-15023596D01*
X007965142Y-15023596D02*
X007885260Y-15092367D01*
X007885260Y-15092367D02*
X007568716Y-15147821D01*
X007568716Y-15147821D02*
X007462225Y-15213371D01*
X007462225Y-15213371D02*
X007422711Y-15326748D01*
X007422711Y-15326748D02*
X007474762Y-15504069D01*
X007474762Y-15504069D02*
X007633747Y-15581130D01*
X007633747Y-15581130D02*
X007838159Y-15575393D01*
X007838159Y-15575393D02*
X007949953Y-15512868D01*
X007949953Y-15512868D02*
X008012721Y-15365821D01*
X006762413Y-15565702D02*
X006762413Y-14727575D01*
X006762413Y-14727575D02*
X006590444Y-14711455D01*
X006590444Y-14711455D02*
X006436606Y-14721531D01*
X006436606Y-14721531D02*
X006336573Y-14748648D01*
X006336573Y-14748648D02*
X006291847Y-14770564D01*
X006291847Y-14770564D02*
X006220512Y-14834851D01*
X006220512Y-14834851D02*
X006188812Y-14903897D01*
X006188812Y-14903897D02*
X006181630Y-15004838D01*
X006181630Y-15004838D02*
X006210058Y-15068298D01*
X006210058Y-15068298D02*
X006254423Y-15103374D01*
X006254423Y-15103374D02*
X006325168Y-15131500D01*
X006325168Y-15131500D02*
X006427482Y-15151669D01*
X006427482Y-15151669D02*
X006566537Y-15162878D01*
X006566537Y-15162878D02*
X006747531Y-15164125D01*
X005502798Y-14804792D02*
X005455487Y-14767698D01*
X005455487Y-14767698D02*
X005380086Y-14727955D01*
X005380086Y-14727955D02*
X005283987Y-14694844D01*
X005283987Y-14694844D02*
X005165714Y-14701458D01*
X005165714Y-14701458D02*
X005062221Y-14734578D01*
X005062221Y-14734578D02*
X004988297Y-14794194D01*
X004988297Y-14794194D02*
X004943944Y-14867059D01*
X004943944Y-14867059D02*
X004958728Y-14946547D01*
X004958728Y-14946547D02*
X005017866Y-15006164D01*
X005017866Y-15006164D02*
X005121360Y-15052532D01*
X005121360Y-15052532D02*
X005239637Y-15079027D01*
X005239637Y-15079027D02*
X005343125Y-15092276D01*
X005343125Y-15092276D02*
X005239637Y-15105524D01*
X005239637Y-15105524D02*
X005121360Y-15138644D01*
X005121360Y-15138644D02*
X005017866Y-15191636D01*
X005017866Y-15191636D02*
X004951336Y-15264502D01*
X004951336Y-15264502D02*
X004936552Y-15343989D01*
X004936552Y-15343989D02*
X004966121Y-15430102D01*
X004966121Y-15430102D02*
X005032651Y-15502966D01*
X005032651Y-15502966D02*
X005136145Y-15562582D01*
X005136145Y-15562582D02*
X005214502Y-15581130D01*
X005214502Y-15581130D02*
X005341647Y-15578480D01*
X005341647Y-15578480D02*
X005445139Y-15562582D01*
X005445139Y-15562582D02*
X005516103Y-15541385D01*
X004220812Y-14864071D02*
X004201645Y-14801289D01*
X004201645Y-14801289D02*
X004145008Y-14742737D01*
X004145008Y-14742737D02*
X004052189Y-14703031D01*
X004052189Y-14703031D02*
X003992615Y-14694844D01*
X003992615Y-14694844D02*
X003889546Y-14702387D01*
X003889546Y-14702387D02*
X003812227Y-14736288D01*
X003812227Y-14736288D02*
X003769946Y-14788277D01*
X003769946Y-14788277D02*
X003754760Y-14848690D01*
X003754760Y-14848690D02*
X003755768Y-14888876D01*
X003755768Y-14888876D02*
X003773917Y-14956142D01*
X003773917Y-14956142D02*
X003852688Y-15086925D01*
X003852688Y-15086925D02*
X004051059Y-15335712D01*
X004051059Y-15335712D02*
X004259644Y-15564537D01*
X004259644Y-15564537D02*
X003701625Y-15564537D01*
X002895209Y-15234404D02*
X002574672Y-15234404D01*
X001201932Y-14899007D02*
X001240525Y-14804947D01*
X001240525Y-14804947D02*
X001311321Y-14738350D01*
X001311321Y-14738350D02*
X001445395Y-14694844D01*
X001445395Y-14694844D02*
X001544470Y-14708130D01*
X001544470Y-14708130D02*
X001631779Y-14752722D01*
X001631779Y-14752722D02*
X001717034Y-14855644D01*
X001717034Y-14855644D02*
X001776563Y-15125803D01*
X001776563Y-15125803D02*
X001729848Y-15397385D01*
X001729848Y-15397385D02*
X001660160Y-15506751D01*
X001660160Y-15506751D02*
X001587708Y-15557929D01*
X001587708Y-15557929D02*
X001446561Y-15581130D01*
X001446561Y-15581130D02*
X001323553Y-15551476D01*
X001323553Y-15551476D02*
X001232472Y-15464939D01*
X001232472Y-15464939D02*
X001201932Y-15342802D01*
X000520023Y-14804792D02*
X000472713Y-14767698D01*
X000472713Y-14767698D02*
X000397312Y-14727955D01*
X000397312Y-14727955D02*
X000301213Y-14694844D01*
X000301213Y-14694844D02*
X000182939Y-14701458D01*
X000182939Y-14701458D02*
X000079447Y-14734578D01*
X000079447Y-14734578D02*
X000005522Y-14794194D01*
X000005522Y-14794194D02*
X-00038831Y-14867059D01*
X-00038831Y-14867059D02*
X-00024046Y-14946547D01*
X-00024046Y-14946547D02*
X000035092Y-15006164D01*
X000035092Y-15006164D02*
X000138586Y-15052532D01*
X000138586Y-15052532D02*
X000256862Y-15079027D01*
X000256862Y-15079027D02*
X000360351Y-15092276D01*
X000360351Y-15092276D02*
X000256862Y-15105524D01*
X000256862Y-15105524D02*
X000138586Y-15138644D01*
X000138586Y-15138644D02*
X000035092Y-15191636D01*
X000035092Y-15191636D02*
X-00031438Y-15264502D01*
X-00031438Y-15264502D02*
X-00046222Y-15343989D01*
X-00046222Y-15343989D02*
X-00016654Y-15430102D01*
X-00016654Y-15430102D02*
X000049877Y-15502966D01*
X000049877Y-15502966D02*
X000153371Y-15562582D01*
X000153371Y-15562582D02*
X000231728Y-15581130D01*
X000231728Y-15581130D02*
X000358873Y-15578480D01*
X000358873Y-15578480D02*
X000462364Y-15562582D01*
X000462364Y-15562582D02*
X000533329Y-15541385D01*
X-01957442Y-15565702D02*
X-01957442Y-14727575D01*
X-01957442Y-14727575D02*
X-02129411Y-14711455D01*
X-02129411Y-14711455D02*
X-02283249Y-14721531D01*
X-02283249Y-14721531D02*
X-02383282Y-14748648D01*
X-02383282Y-14748648D02*
X-02428008Y-14770564D01*
X-02428008Y-14770564D02*
X-02499343Y-14834851D01*
X-02499343Y-14834851D02*
X-02531043Y-14903897D01*
X-02531043Y-14903897D02*
X-02538225Y-15004838D01*
X-02538225Y-15004838D02*
X-02509797Y-15068298D01*
X-02509797Y-15068298D02*
X-02465433Y-15103374D01*
X-02465433Y-15103374D02*
X-02394687Y-15131500D01*
X-02394687Y-15131500D02*
X-02292373Y-15151669D01*
X-02292373Y-15151669D02*
X-02153318Y-15162878D01*
X-02153318Y-15162878D02*
X-01972324Y-15164125D01*
X-03158223Y-15559581D02*
X-03158223Y-14733581D01*
X-03158223Y-14733581D02*
X-03400414Y-14711455D01*
X-03400414Y-14711455D02*
X-03570402Y-14718852D01*
X-03570402Y-14718852D02*
X-03672947Y-14741583D01*
X-03672947Y-14741583D02*
X-03716065Y-14760114D01*
X-03716065Y-14760114D02*
X-03751553Y-14784234D01*
X-03751553Y-14784234D02*
X-03777770Y-14814549D01*
X-03777770Y-14814549D02*
X-03800887Y-14896757D01*
X-03800887Y-14896757D02*
X-03798718Y-14969660D01*
X-03798718Y-14969660D02*
X-03775057Y-15022449D01*
X-03775057Y-15022449D02*
X-03732592Y-15058613D01*
X-03732592Y-15058613D02*
X-03674008Y-15081647D01*
X-03674008Y-15081647D02*
X-03561780Y-15099211D01*
X-03561780Y-15099211D02*
X-03174277Y-15112930D01*
X-03496082Y-15147806D02*
X-03828830Y-15565702D01*
X-04721917Y-15581130D02*
X-04609949Y-15546294D01*
X-04609949Y-15546294D02*
X-04507600Y-15440308D01*
X-04507600Y-15440308D02*
X-04431910Y-15080571D01*
X-04431910Y-15080571D02*
X-04504006Y-14811321D01*
X-04504006Y-14811321D02*
X-04592461Y-14734634D01*
X-04592461Y-14734634D02*
X-04745615Y-14694844D01*
X-04745615Y-14694844D02*
X-04889808Y-14742607D01*
X-04889808Y-14742607D02*
X-04974232Y-14829904D01*
X-04974232Y-14829904D02*
X-05046531Y-15157870D01*
X-05046531Y-15157870D02*
X-05010549Y-15364926D01*
X-05010549Y-15364926D02*
X-04946427Y-15484591D01*
X-04946427Y-15484591D02*
X-04832533Y-15566102D01*
X-04832533Y-15566102D02*
X-04721917Y-15581130D01*
X-05634537Y-14711455D02*
X-06335291Y-14711455D01*
X-05995319Y-14711455D02*
X-05995319Y-15565702D01*
X-07213304Y-15581130D02*
X-07101337Y-15546294D01*
X-07101337Y-15546294D02*
X-06998987Y-15440308D01*
X-06998987Y-15440308D02*
X-06923297Y-15080571D01*
X-06923297Y-15080571D02*
X-06995393Y-14811321D01*
X-06995393Y-14811321D02*
X-07083848Y-14734634D01*
X-07083848Y-14734634D02*
X-07237002Y-14694844D01*
X-07237002Y-14694844D02*
X-07381195Y-14742607D01*
X-07381195Y-14742607D02*
X-07465619Y-14829904D01*
X-07465619Y-14829904D02*
X-07537918Y-15157870D01*
X-07537918Y-15157870D02*
X-07501936Y-15364926D01*
X-07501936Y-15364926D02*
X-07437815Y-15484591D01*
X-07437815Y-15484591D02*
X-07323921Y-15566102D01*
X-07323921Y-15566102D02*
X-07213304Y-15581130D01*
X-08125924Y-14711455D02*
X-08826678Y-14711455D01*
X-08486706Y-14711455D02*
X-08486706Y-15565702D01*
X-09365466Y-14711455D02*
X-09712048Y-15093410D01*
X-10078524Y-14712668D02*
X-09714344Y-15095836D01*
X-09714344Y-15095836D02*
X-09727351Y-15565702D01*
X-10677297Y-15565702D02*
X-10677297Y-14727575D01*
X-10677297Y-14727575D02*
X-10849266Y-14711455D01*
X-10849266Y-14711455D02*
X-11003104Y-14721531D01*
X-11003104Y-14721531D02*
X-11103137Y-14748648D01*
X-11103137Y-14748648D02*
X-11147863Y-14770564D01*
X-11147863Y-14770564D02*
X-11219198Y-14834851D01*
X-11219198Y-14834851D02*
X-11250899Y-14903897D01*
X-11250899Y-14903897D02*
X-11258081Y-15004838D01*
X-11258081Y-15004838D02*
X-11229652Y-15068298D01*
X-11229652Y-15068298D02*
X-11185288Y-15103374D01*
X-11185288Y-15103374D02*
X-11114543Y-15131500D01*
X-11114543Y-15131500D02*
X-11012228Y-15151669D01*
X-11012228Y-15151669D02*
X-10873173Y-15162878D01*
X-10873173Y-15162878D02*
X-10692179Y-15164125D01*
X-11934987Y-14711455D02*
X-11934987Y-15565702D01*
X-11934987Y-14711455D02*
X-12491776Y-14711455D01*
X-11934987Y-15138576D02*
X-12324740Y-15138576D01*
X-11934987Y-15565702D02*
X-12491776Y-15565702D01*
D31*
X020463197Y001288545D02*
X020461864Y000812418D01*
X020461864Y000812418D02*
X020452676Y000682896D01*
X020452676Y000682896D02*
X020429174Y000586956D01*
X020429174Y000586956D02*
X020384114Y000513981D01*
X020384114Y000513981D02*
X020325165Y000465731D01*
X020325165Y000465731D02*
X020237100Y000430883D01*
X020237100Y000430883D02*
X020125979Y000417705D01*
X020125979Y000417705D02*
X020047988Y000430898D01*
X020047988Y000430898D02*
X019984021Y000465652D01*
X019984021Y000465652D02*
X019945741Y000506369D01*
X019945741Y000506369D02*
X019929306Y000533133D01*
X019929306Y000533133D02*
X019904164Y000601374D01*
X019904164Y000601374D02*
X019892427Y000691771D01*
X019892427Y000691771D02*
X019886105Y001287259D01*
X019285486Y000434298D02*
X018942625Y001288545D01*
X018942625Y001288545D02*
X018572428Y000434298D01*
X019112569Y000767504D02*
X018761980Y000767504D01*
X018018568Y000440419D02*
X018018568Y001266419D01*
X018018568Y001266419D02*
X017776377Y001288545D01*
X017776377Y001288545D02*
X017606389Y001281148D01*
X017606389Y001281148D02*
X017503844Y001258417D01*
X017503844Y001258417D02*
X017460726Y001239886D01*
X017460726Y001239886D02*
X017425238Y001215766D01*
X017425238Y001215766D02*
X017399021Y001185451D01*
X017399021Y001185451D02*
X017375904Y001103243D01*
X017375904Y001103243D02*
X017378074Y001030340D01*
X017378074Y001030340D02*
X017401734Y000977551D01*
X017401734Y000977551D02*
X017444200Y000941387D01*
X017444200Y000941387D02*
X017502783Y000918353D01*
X017502783Y000918353D02*
X017615012Y000900789D01*
X017615012Y000900789D02*
X018002514Y000887070D01*
X017680709Y000852194D02*
X017347961Y000434298D01*
X016787948Y001288545D02*
X016087194Y001288545D01*
X016427166Y001288545D02*
X016427166Y000434298D01*
X014222653Y001195208D02*
X014175342Y001232302D01*
X014175342Y001232302D02*
X014099941Y001272045D01*
X014099941Y001272045D02*
X014003843Y001305156D01*
X014003843Y001305156D02*
X013885569Y001298542D01*
X013885569Y001298542D02*
X013782076Y001265422D01*
X013782076Y001265422D02*
X013708152Y001205806D01*
X013708152Y001205806D02*
X013663799Y001132941D01*
X013663799Y001132941D02*
X013678584Y001053453D01*
X013678584Y001053453D02*
X013737722Y000993836D01*
X013737722Y000993836D02*
X013841216Y000947468D01*
X013841216Y000947468D02*
X013959492Y000920973D01*
X013959492Y000920973D02*
X014062981Y000907724D01*
X014062981Y000907724D02*
X013959492Y000894476D01*
X013959492Y000894476D02*
X013841216Y000861356D01*
X013841216Y000861356D02*
X013737722Y000808364D01*
X013737722Y000808364D02*
X013671191Y000735498D01*
X013671191Y000735498D02*
X013656408Y000656011D01*
X013656408Y000656011D02*
X013685976Y000569898D01*
X013685976Y000569898D02*
X013752507Y000497034D01*
X013752507Y000497034D02*
X013856000Y000437418D01*
X013856000Y000437418D02*
X013934357Y000418870D01*
X013934357Y000418870D02*
X014061503Y000421520D01*
X014061503Y000421520D02*
X014164994Y000437418D01*
X014164994Y000437418D02*
X014235958Y000458615D01*
X013044714Y001288545D02*
X012676478Y000434298D01*
X012676478Y000434298D02*
X012356266Y001288545D01*
X011731266Y001195208D02*
X011683955Y001232302D01*
X011683955Y001232302D02*
X011608554Y001272045D01*
X011608554Y001272045D02*
X011512455Y001305156D01*
X011512455Y001305156D02*
X011394182Y001298542D01*
X011394182Y001298542D02*
X011290689Y001265422D01*
X011290689Y001265422D02*
X011216765Y001205806D01*
X011216765Y001205806D02*
X011172412Y001132941D01*
X011172412Y001132941D02*
X011187196Y001053453D01*
X011187196Y001053453D02*
X011246334Y000993836D01*
X011246334Y000993836D02*
X011349828Y000947468D01*
X011349828Y000947468D02*
X011468105Y000920973D01*
X011468105Y000920973D02*
X011571593Y000907724D01*
X011571593Y000907724D02*
X011468105Y000894476D01*
X011468105Y000894476D02*
X011349828Y000861356D01*
X011349828Y000861356D02*
X011246334Y000808364D01*
X011246334Y000808364D02*
X011179804Y000735498D01*
X011179804Y000735498D02*
X011165020Y000656011D01*
X011165020Y000656011D02*
X011194589Y000569898D01*
X011194589Y000569898D02*
X011261119Y000497034D01*
X011261119Y000497034D02*
X011364613Y000437418D01*
X011364613Y000437418D02*
X011442970Y000418870D01*
X011442970Y000418870D02*
X011570115Y000421520D01*
X011570115Y000421520D02*
X011673607Y000437418D01*
X011673607Y000437418D02*
X011744571Y000458615D01*
X008980713Y000418870D02*
X009092680Y000453706D01*
X009092680Y000453706D02*
X009195030Y000559692D01*
X009195030Y000559692D02*
X009270719Y000919429D01*
X009270719Y000919429D02*
X009198624Y001188679D01*
X009198624Y001188679D02*
X009110169Y001265366D01*
X009110169Y001265366D02*
X008957015Y001305156D01*
X008957015Y001305156D02*
X008812822Y001257393D01*
X008812822Y001257393D02*
X008728398Y001170096D01*
X008728398Y001170096D02*
X008656099Y000842130D01*
X008656099Y000842130D02*
X008692081Y000635074D01*
X008692081Y000635074D02*
X008756202Y000515409D01*
X008756202Y000515409D02*
X008870096Y000433898D01*
X008870096Y000433898D02*
X008980713Y000418870D01*
X008011491Y000434298D02*
X008011491Y001288545D01*
X008011491Y001288545D02*
X007423940Y000434298D01*
X007423940Y000434298D02*
X007435469Y001288545D01*
X006756260Y001288545D02*
X006756260Y000434298D01*
X006756260Y000434298D02*
X006187782Y000434298D01*
X005582857Y001288545D02*
X005236275Y000906590D01*
X004869799Y001287332D02*
X005233979Y000904164D01*
X005233979Y000904164D02*
X005220972Y000434298D01*
X003035483Y000325586D02*
X002434400Y001288545D01*
X000345110Y001115353D02*
X000141998Y001288545D01*
X000141998Y001288545D02*
X000141998Y000434303D01*
X-01903609Y001288545D02*
X-02271845Y000434298D01*
X-02271845Y000434298D02*
X-02592058Y001288545D01*
X-03158223Y000440419D02*
X-03158223Y001266419D01*
X-03158223Y001266419D02*
X-03400414Y001288545D01*
X-03400414Y001288545D02*
X-03570402Y001281148D01*
X-03570402Y001281148D02*
X-03672947Y001258417D01*
X-03672947Y001258417D02*
X-03716065Y001239886D01*
X-03716065Y001239886D02*
X-03751553Y001215766D01*
X-03751553Y001215766D02*
X-03777770Y001185451D01*
X-03777770Y001185451D02*
X-03800887Y001103243D01*
X-03800887Y001103243D02*
X-03798718Y001030340D01*
X-03798718Y001030340D02*
X-03775057Y000977551D01*
X-03775057Y000977551D02*
X-03732592Y000941387D01*
X-03732592Y000941387D02*
X-03674008Y000918353D01*
X-03674008Y000918353D02*
X-03561780Y000900789D01*
X-03561780Y000900789D02*
X-03174277Y000887070D01*
X-03496082Y000852194D02*
X-03828830Y000434298D01*
X-04460826Y001288545D02*
X-04460826Y000434298D01*
X-04460826Y001288545D02*
X-05017615Y001288545D01*
X-04460826Y000861424D02*
X-04850578Y000861424D01*
X-04460826Y000434298D02*
X-05017615Y000434298D01*
X-05714518Y001288545D02*
X-05714518Y000434298D01*
X-05720664Y001282735D02*
X-06255310Y001282735D01*
X-05720664Y000864327D02*
X-06169275Y000864327D01*
X-08236124Y001135929D02*
X-08255291Y001198711D01*
X-08255291Y001198711D02*
X-08311928Y001257263D01*
X-08311928Y001257263D02*
X-08404747Y001296969D01*
X-08404747Y001296969D02*
X-08464321Y001305156D01*
X-08464321Y001305156D02*
X-08567390Y001297613D01*
X-08567390Y001297613D02*
X-08644709Y001263712D01*
X-08644709Y001263712D02*
X-08686990Y001211723D01*
X-08686990Y001211723D02*
X-08702176Y001151310D01*
X-08702176Y001151310D02*
X-08701168Y001111124D01*
X-08701168Y001111124D02*
X-08683019Y001043858D01*
X-08683019Y001043858D02*
X-08604248Y000913075D01*
X-08604248Y000913075D02*
X-08405877Y000664288D01*
X-08405877Y000664288D02*
X-08197292Y000435463D01*
X-08197292Y000435463D02*
X-08755311Y000435463D01*
X-10632385Y000440419D02*
X-10632385Y001266419D01*
X-10632385Y001266419D02*
X-10874576Y001288545D01*
X-10874576Y001288545D02*
X-11044563Y001281148D01*
X-11044563Y001281148D02*
X-11147109Y001258417D01*
X-11147109Y001258417D02*
X-11190227Y001239886D01*
X-11190227Y001239886D02*
X-11225715Y001215766D01*
X-11225715Y001215766D02*
X-11251932Y001185451D01*
X-11251932Y001185451D02*
X-11275049Y001103243D01*
X-11275049Y001103243D02*
X-11272879Y001030340D01*
X-11272879Y001030340D02*
X-11249219Y000977551D01*
X-11249219Y000977551D02*
X-11206753Y000941387D01*
X-11206753Y000941387D02*
X-11148169Y000918353D01*
X-11148169Y000918353D02*
X-11035941Y000900789D01*
X-11035941Y000900789D02*
X-10648438Y000887070D01*
X-10970244Y000852194D02*
X-11302992Y000434298D01*
X-11845472Y001288545D02*
X-12573463Y000434298D01*
X-12581293Y001288545D02*
X-11853299Y000434298D01*
X-14428300Y001195208D02*
X-14475610Y001232302D01*
X-14475610Y001232302D02*
X-14551011Y001272045D01*
X-14551011Y001272045D02*
X-14647110Y001305156D01*
X-14647110Y001305156D02*
X-14765384Y001298542D01*
X-14765384Y001298542D02*
X-14868877Y001265422D01*
X-14868877Y001265422D02*
X-14942801Y001205806D01*
X-14942801Y001205806D02*
X-14987154Y001132941D01*
X-14987154Y001132941D02*
X-14972369Y001053453D01*
X-14972369Y001053453D02*
X-14913231Y000993836D01*
X-14913231Y000993836D02*
X-14809737Y000947468D01*
X-14809737Y000947468D02*
X-14691461Y000920973D01*
X-14691461Y000920973D02*
X-14587972Y000907724D01*
X-14587972Y000907724D02*
X-14691461Y000894476D01*
X-14691461Y000894476D02*
X-14809737Y000861356D01*
X-14809737Y000861356D02*
X-14913231Y000808364D01*
X-14913231Y000808364D02*
X-14979762Y000735498D01*
X-14979762Y000735498D02*
X-14994545Y000656011D01*
X-14994545Y000656011D02*
X-14964977Y000569898D01*
X-14964977Y000569898D02*
X-14898446Y000497034D01*
X-14898446Y000497034D02*
X-14794952Y000437418D01*
X-14794952Y000437418D02*
X-14716596Y000418870D01*
X-14716596Y000418870D02*
X-14589450Y000421520D01*
X-14589450Y000421520D02*
X-14485959Y000437418D01*
X-14485959Y000437418D02*
X-14414994Y000458615D01*
X-17444386Y001270972D02*
X-17288886Y001305156D01*
X-17288886Y001305156D02*
X-17124580Y001291504D01*
X-17124580Y001291504D02*
X-17019191Y001236884D01*
X-17019191Y001236884D02*
X-16936004Y001128374D01*
X-16936004Y001128374D02*
X-16887924Y000894110D01*
X-16887924Y000894110D02*
X-16913571Y000640230D01*
X-16913571Y000640230D02*
X-16969153Y000548672D01*
X-16969153Y000548672D02*
X-17054937Y000474915D01*
X-17054937Y000474915D02*
X-17158334Y000428475D01*
X-17158334Y000428475D02*
X-17266771Y000418870D01*
X-17266771Y000418870D02*
X-17367673Y000455621D01*
X-17367673Y000455621D02*
X-17448454Y000548241D01*
X-17448454Y000548241D02*
X-17504390Y000812750D01*
X-17504390Y000812750D02*
X-17232153Y000813355D01*
X-18148075Y000434298D02*
X-18148075Y001288545D01*
X-18148075Y001288545D02*
X-18735625Y000434298D01*
X-18735625Y000434298D02*
X-18724096Y001288545D01*
X-19389463Y000434298D02*
X-19398767Y001270802D01*
X-19398767Y001270802D02*
X-19523984Y001288545D01*
X-19523984Y001288545D02*
X-19619909Y001286482D01*
X-19619909Y001286482D02*
X-19775723Y001244342D01*
X-19775723Y001244342D02*
X-19890952Y001153337D01*
X-19890952Y001153337D02*
X-19956833Y001030801D01*
X-19956833Y001030801D02*
X-19983095Y000903746D01*
X-19983095Y000903746D02*
X-19985626Y000808086D01*
X-19985626Y000808086D02*
X-19973613Y000726100D01*
X-19973613Y000726100D02*
X-19949039Y000656752D01*
X-19949039Y000656752D02*
X-19870145Y000551824D01*
X-19870145Y000551824D02*
X-19764819Y000485025D01*
X-19764819Y000485025D02*
X-19592007Y000438214D01*
X-19592007Y000438214D02*
X-19389463Y000434298D01*
D31*
X022518029Y-01711455D02*
X022983808Y-02282491D01*
X022983808Y-02282491D02*
X022348269Y-02282491D01*
X022523464Y-02098490D02*
X022523464Y-02565702D01*
X020525029Y-01711455D02*
X019824275Y-01711455D01*
X020164247Y-01711455D02*
X020164247Y-02565702D01*
X019296868Y-01711455D02*
X018568877Y-02565702D01*
X018561047Y-01711455D02*
X019289041Y-02565702D01*
X016722425Y-01711455D02*
X016722425Y-02144523D01*
X016722425Y-02144523D02*
X016479618Y-02087570D01*
X016479618Y-02087570D02*
X016306252Y-02108993D01*
X016306252Y-02108993D02*
X016237261Y-02147658D01*
X016237261Y-02147658D02*
X016189348Y-02202521D01*
X016189348Y-02202521D02*
X016152716Y-02352045D01*
X016152716Y-02352045D02*
X016170040Y-02429722D01*
X016170040Y-02429722D02*
X016215498Y-02490856D01*
X016215498Y-02490856D02*
X016304827Y-02547634D01*
X016304827Y-02547634D02*
X016408063Y-02577505D01*
X016408063Y-02577505D02*
X016505141Y-02582295D01*
X016505141Y-02582295D02*
X016586893Y-02566706D01*
X016586893Y-02566706D02*
X016652978Y-02536140D01*
X016652978Y-02536140D02*
X016722425Y-02473265D01*
X016722425Y-01711455D02*
X016152716Y-01711455D01*
X014224578Y-01711455D02*
X014224578Y-02565702D01*
X014224578Y-01711455D02*
X013667789Y-01711455D01*
X014224578Y-02138576D02*
X013834826Y-02138576D01*
X014224578Y-02565702D02*
X013667789Y-02565702D01*
X012994265Y-02565702D02*
X012994265Y-01711455D01*
X012994265Y-01711455D02*
X012406715Y-02565702D01*
X012406715Y-02565702D02*
X012418244Y-01711455D01*
X010048424Y-01694844D02*
X010158190Y-01729167D01*
X010158190Y-01729167D02*
X010259876Y-01763245D01*
X010259876Y-01763245D02*
X010346239Y-01823829D01*
X010346239Y-01823829D02*
X010413379Y-01887821D01*
X010413379Y-01887821D02*
X010464640Y-02000532D01*
X010464640Y-02000532D02*
X010499882Y-02106176D01*
X010499882Y-02106176D02*
X010503643Y-02215102D01*
X010503643Y-02215102D02*
X010506289Y-02323647D01*
X010506289Y-02323647D02*
X010478570Y-02404426D01*
X010478570Y-02404426D02*
X010452104Y-02454913D01*
X010452104Y-02454913D02*
X010389421Y-02520545D01*
X010389421Y-02520545D02*
X010322560Y-02564722D01*
X010322560Y-02564722D02*
X010219480Y-02581130D01*
X010219480Y-02581130D02*
X010103865Y-02574820D01*
X010103865Y-02574820D02*
X010013320Y-02534430D01*
X010013320Y-02534430D02*
X009949245Y-02480157D01*
X009949245Y-02480157D02*
X009914422Y-02405689D01*
X009914422Y-02405689D02*
X009911636Y-02342580D01*
X009911636Y-02342580D02*
X009931137Y-02275685D01*
X009931137Y-02275685D02*
X009960389Y-02218887D01*
X009960389Y-02218887D02*
X010004963Y-02172188D01*
X010004963Y-02172188D02*
X010066254Y-02143157D01*
X010066254Y-02143157D02*
X010151226Y-02124225D01*
X010151226Y-02124225D02*
X010232017Y-02120440D01*
X010232017Y-02120440D02*
X010316988Y-02133061D01*
X010316988Y-02133061D02*
X010404743Y-02178498D01*
X010404743Y-02178498D02*
X010450710Y-02225199D01*
X010450710Y-02225199D02*
X010506569Y-02282248D01*
X008016413Y-02565702D02*
X008016413Y-01721481D01*
X008016413Y-01721481D02*
X007833220Y-01711455D01*
X007833220Y-01711455D02*
X007665476Y-01740936D01*
X007665476Y-01740936D02*
X007552463Y-01839879D01*
X007552463Y-01839879D02*
X007570046Y-01984540D01*
X007570046Y-01984540D02*
X007703024Y-02061949D01*
X007703024Y-02061949D02*
X007990251Y-02095169D01*
X007990251Y-02095169D02*
X007710973Y-02112687D01*
X007710973Y-02112687D02*
X007506223Y-02185795D01*
X007506223Y-02185795D02*
X007419019Y-02298189D01*
X007419019Y-02298189D02*
X007426184Y-02443545D01*
X007426184Y-02443545D02*
X007465437Y-02507759D01*
X007465437Y-02507759D02*
X007563335Y-02559941D01*
X007563335Y-02559941D02*
X008016413Y-02565702D01*
X006489326Y-02581130D02*
X006601293Y-02546294D01*
X006601293Y-02546294D02*
X006703643Y-02440308D01*
X006703643Y-02440308D02*
X006779332Y-02080571D01*
X006779332Y-02080571D02*
X006707236Y-01811321D01*
X006707236Y-01811321D02*
X006618782Y-01734634D01*
X006618782Y-01734634D02*
X006465628Y-01694844D01*
X006465628Y-01694844D02*
X006321434Y-01742607D01*
X006321434Y-01742607D02*
X006237011Y-01829904D01*
X006237011Y-01829904D02*
X006164712Y-02157870D01*
X006164712Y-02157870D02*
X006200694Y-02364926D01*
X006200694Y-02364926D02*
X006264815Y-02484591D01*
X006264815Y-02484591D02*
X006378709Y-02566102D01*
X006378709Y-02566102D02*
X006489326Y-02581130D01*
X005243632Y-02581130D02*
X005355599Y-02546294D01*
X005355599Y-02546294D02*
X005457949Y-02440308D01*
X005457949Y-02440308D02*
X005533639Y-02080571D01*
X005533639Y-02080571D02*
X005461543Y-01811321D01*
X005461543Y-01811321D02*
X005373088Y-01734634D01*
X005373088Y-01734634D02*
X005219934Y-01694844D01*
X005219934Y-01694844D02*
X005075741Y-01742607D01*
X005075741Y-01742607D02*
X004991317Y-01829904D01*
X004991317Y-01829904D02*
X004919018Y-02157870D01*
X004919018Y-02157870D02*
X004955000Y-02364926D01*
X004955000Y-02364926D02*
X005019121Y-02484591D01*
X005019121Y-02484591D02*
X005133015Y-02566102D01*
X005133015Y-02566102D02*
X005243632Y-02581130D01*
X004331012Y-01711455D02*
X003630258Y-01711455D01*
X003970230Y-01711455D02*
X003970230Y-02565702D01*
X001789789Y-02674414D02*
X001188706Y-01711455D01*
X-00708364Y-02565702D02*
X-00708364Y-01711455D01*
X-00708364Y-01711455D02*
X-01295915Y-02565702D01*
X-01295915Y-02565702D02*
X-01284386Y-01711455D01*
X-02230530Y-02581130D02*
X-02118562Y-02546294D01*
X-02118562Y-02546294D02*
X-02016212Y-02440308D01*
X-02016212Y-02440308D02*
X-01940523Y-02080571D01*
X-01940523Y-02080571D02*
X-02012619Y-01811321D01*
X-02012619Y-01811321D02*
X-02101073Y-01734634D01*
X-02101073Y-01734634D02*
X-02254228Y-01694844D01*
X-02254228Y-01694844D02*
X-02398421Y-01742607D01*
X-02398421Y-01742607D02*
X-02482845Y-01829904D01*
X-02482845Y-01829904D02*
X-02555143Y-02157870D01*
X-02555143Y-02157870D02*
X-02519162Y-02364926D01*
X-02519162Y-02364926D02*
X-02455040Y-02484591D01*
X-02455040Y-02484591D02*
X-02341146Y-02566102D01*
X-02341146Y-02566102D02*
X-02230530Y-02581130D01*
X-04448829Y-02565702D02*
X-04448829Y-01727575D01*
X-04448829Y-01727575D02*
X-04620798Y-01711455D01*
X-04620798Y-01711455D02*
X-04774636Y-01721531D01*
X-04774636Y-01721531D02*
X-04874669Y-01748648D01*
X-04874669Y-01748648D02*
X-04919395Y-01770564D01*
X-04919395Y-01770564D02*
X-04990730Y-01834851D01*
X-04990730Y-01834851D02*
X-05022431Y-01903897D01*
X-05022431Y-01903897D02*
X-05029613Y-02004838D01*
X-05029613Y-02004838D02*
X-05001184Y-02068298D01*
X-05001184Y-02068298D02*
X-04956820Y-02103374D01*
X-04956820Y-02103374D02*
X-04886075Y-02131500D01*
X-04886075Y-02131500D02*
X-04783760Y-02151669D01*
X-04783760Y-02151669D02*
X-04644705Y-02162878D01*
X-04644705Y-02162878D02*
X-04463711Y-02164125D01*
X-05967610Y-02581130D02*
X-05855643Y-02546294D01*
X-05855643Y-02546294D02*
X-05753293Y-02440308D01*
X-05753293Y-02440308D02*
X-05677604Y-02080571D01*
X-05677604Y-02080571D02*
X-05749700Y-01811321D01*
X-05749700Y-01811321D02*
X-05838154Y-01734634D01*
X-05838154Y-01734634D02*
X-05991308Y-01694844D01*
X-05991308Y-01694844D02*
X-06135502Y-01742607D01*
X-06135502Y-01742607D02*
X-06219925Y-01829904D01*
X-06219925Y-01829904D02*
X-06292224Y-02157870D01*
X-06292224Y-02157870D02*
X-06256242Y-02364926D01*
X-06256242Y-02364926D02*
X-06192121Y-02484591D01*
X-06192121Y-02484591D02*
X-06078227Y-02566102D01*
X-06078227Y-02566102D02*
X-05967610Y-02581130D01*
X-06851315Y-01711455D02*
X-06951862Y-02554875D01*
X-06951862Y-02554875D02*
X-07210664Y-01965834D01*
X-07210664Y-01965834D02*
X-07487936Y-02565702D01*
X-07487936Y-02565702D02*
X-07609900Y-01711455D01*
X-08197907Y-01711455D02*
X-08197907Y-02565702D01*
X-08197907Y-01711455D02*
X-08754696Y-01711455D01*
X-08197907Y-02138576D02*
X-08587659Y-02138576D01*
X-08197907Y-02565702D02*
X-08754696Y-02565702D01*
X-09386691Y-02559581D02*
X-09386691Y-01733581D01*
X-09386691Y-01733581D02*
X-09628882Y-01711455D01*
X-09628882Y-01711455D02*
X-09798870Y-01718852D01*
X-09798870Y-01718852D02*
X-09901415Y-01741583D01*
X-09901415Y-01741583D02*
X-09944533Y-01760114D01*
X-09944533Y-01760114D02*
X-09980021Y-01784234D01*
X-09980021Y-01784234D02*
X-10006238Y-01814549D01*
X-10006238Y-01814549D02*
X-10029355Y-01896757D01*
X-10029355Y-01896757D02*
X-10027186Y-01969660D01*
X-10027186Y-01969660D02*
X-10003525Y-02022449D01*
X-10003525Y-02022449D02*
X-09961060Y-02058613D01*
X-09961060Y-02058613D02*
X-09902476Y-02081647D01*
X-09902476Y-02081647D02*
X-09790248Y-02099211D01*
X-09790248Y-02099211D02*
X-09402745Y-02112930D01*
X-09724550Y-02147806D02*
X-10057298Y-02565702D01*
X-12213382Y-01711455D02*
X-12213382Y-02565702D01*
X-13165300Y-02565702D02*
X-13165300Y-01711455D01*
X-13165300Y-01711455D02*
X-13752851Y-02565702D01*
X-13752851Y-02565702D02*
X-13741322Y-01711455D01*
X-14964094Y-01711455D02*
X-14965322Y-02355563D01*
X-14965322Y-02355563D02*
X-14953546Y-02436172D01*
X-14953546Y-02436172D02*
X-14931200Y-02479794D01*
X-14931200Y-02479794D02*
X-14899865Y-02514483D01*
X-14899865Y-02514483D02*
X-14862356Y-02541054D01*
X-14862356Y-02541054D02*
X-14780016Y-02573063D01*
X-14780016Y-02573063D02*
X-14706636Y-02582295D01*
X-14706636Y-02582295D02*
X-14607178Y-02571584D01*
X-14607178Y-02571584D02*
X-14533855Y-02542193D01*
X-14533855Y-02542193D02*
X-14498187Y-02513721D01*
X-14498187Y-02513721D02*
X-14472176Y-02479193D01*
X-14472176Y-02479193D02*
X-14455032Y-02439512D01*
X-14455032Y-02439512D02*
X-14445974Y-02395573D01*
X-14445974Y-02395573D02*
X-14444218Y-02348280D01*
X-15672068Y-01711455D02*
X-15672068Y-02565702D01*
X-15672068Y-01711455D02*
X-16228857Y-01711455D01*
X-15672068Y-02138576D02*
X-16061820Y-02138576D01*
X-15672068Y-02565702D02*
X-16228857Y-02565702D01*
X-17483472Y-01899007D02*
X-17444879Y-01804947D01*
X-17444879Y-01804947D02*
X-17374083Y-01738350D01*
X-17374083Y-01738350D02*
X-17240009Y-01694844D01*
X-17240009Y-01694844D02*
X-17140934Y-01708130D01*
X-17140934Y-01708130D02*
X-17053625Y-01752722D01*
X-17053625Y-01752722D02*
X-16968370Y-01855644D01*
X-16968370Y-01855644D02*
X-16908841Y-02125803D01*
X-16908841Y-02125803D02*
X-16955556Y-02397385D01*
X-16955556Y-02397385D02*
X-17025244Y-02506751D01*
X-17025244Y-02506751D02*
X-17097696Y-02557929D01*
X-17097696Y-02557929D02*
X-17238843Y-02581130D01*
X-17238843Y-02581130D02*
X-17361851Y-02551476D01*
X-17361851Y-02551476D02*
X-17452932Y-02464939D01*
X-17452932Y-02464939D02*
X-17483472Y-02342802D01*
X-18091473Y-01711455D02*
X-18792227Y-01711455D01*
X-18452255Y-01711455D02*
X-18452255Y-02565702D01*
X-19687544Y-01711455D02*
X-19687544Y-02565702D01*
X-20915934Y-02581130D02*
X-20803966Y-02546294D01*
X-20803966Y-02546294D02*
X-20701616Y-02440308D01*
X-20701616Y-02440308D02*
X-20625927Y-02080571D01*
X-20625927Y-02080571D02*
X-20698023Y-01811321D01*
X-20698023Y-01811321D02*
X-20786477Y-01734634D01*
X-20786477Y-01734634D02*
X-20939632Y-01694844D01*
X-20939632Y-01694844D02*
X-21083825Y-01742607D01*
X-21083825Y-01742607D02*
X-21168249Y-01829904D01*
X-21168249Y-01829904D02*
X-21240547Y-02157870D01*
X-21240547Y-02157870D02*
X-21204566Y-02364926D01*
X-21204566Y-02364926D02*
X-21140444Y-02484591D01*
X-21140444Y-02484591D02*
X-21026550Y-02566102D01*
X-21026550Y-02566102D02*
X-20915934Y-02581130D01*
X-21885155Y-02565702D02*
X-21885155Y-01711455D01*
X-21885155Y-01711455D02*
X-22472706Y-02565702D01*
X-22472706Y-02565702D02*
X-22461177Y-01711455D01*
M02*