M48
; DRILL file {tscircuit} date 2026-10-05T16:26:21.005Z
; FORMAT={-:-/ absolute / metric / decimal}
; #@! TF.CreationDate,2026-10-05T16:26:21.005Z
; #@! TF.GenerationSoftware,tscircuit
; #@! TF.FileFunction,Plated,1,2,PTH
FMAT,2
METRIC
; #@! TA.AperFunction,Plated,PTH,ComponentDrill
T10C0.599999
; #@! TA.AperFunction,Plated,PTH,ComponentDrill
T11C0.300000
%
G90
G05
T10
X-4.3199Y22.9602G85X-4.3199Y22.1602
G05
X4.3199Y22.9602G85X4.3199Y22.1602
G05
X4.3199Y27.1602G85X4.3199Y25.9602
G05
X-4.3199Y27.1602G85X-4.3199Y25.9602
G05
T11
X-3.6000Y20.1000
X-2.0000Y19.8000
X-0.8000Y19.9000
X0.8000Y19.9000
X2.0000Y19.8000
X3.6000Y19.8000
X-1.9999Y10.2000
X-0.9998Y10.2000
X-0.0003Y10.2000
X0.9998Y10.2000
X1.9999Y10.2000
X1.9999Y15.8000
X0.9998Y15.8000
X-0.0003Y15.8000
X-1.9999Y15.8000
X-2.5000Y13.0000
X6.2534Y7.5000
X4.7466Y7.5000
X3.8000Y9.8000
X5.2000Y13.2000
X-7.4000Y16.0000
X0.2466Y17.8000
X1.7534Y18.2000
X9.2000Y-8.0000
X13.0000Y-8.0000
X10.5000Y-5.5000
X14.0000Y-3.5000
X15.6996Y19.0000
X14.6996Y19.0000
X13.6996Y19.0000
X12.6996Y19.0000
X11.6996Y19.0000
X10.7001Y19.0000
X-1.5000Y3.3000
X-13.0000Y3.0000
X-8.0000Y4.8000
X-7.8000Y0.0000
X-7.5000Y6.0000
X-7.5000Y8.5000
X-15.0000Y-3.0000
X-7.9000Y1.0000
X2.0000Y4.8000
X2.3000Y6.0000
X2.0000Y7.2000
X-2.0000Y7.2000
X-2.3000Y6.0000
X-2.0000Y4.8000
X-3.0000Y9.8000
X-5.2534Y4.4000
X0.8000Y9.4000
X3.2000Y8.5000
X11.0000Y6.9500
X-4.5000Y14.6000
X7.2499Y24.0000
X17.8000Y2.7501
X-16.0000Y-3.4000
X4.9580Y-5.5420
X-4.2466Y17.4000
X0.0990Y-4.5000
X12.3101Y10.4374
X12.4752Y6.0050
X-3.1170Y3.9776
X3.4575Y1.9030
X-3.5980Y7.4555
X-6.1850Y0.3658
X-2.9270Y-12.7650
X13.8540Y9.6249
X10.9290Y-12.2010
X16.6571Y3.4994
X-1.6466Y12.2600
X3.9328Y14.7942
X8.1349Y14.7830
X2.8350Y9.5536
X5.4659Y10.1600
X-6.5960Y21.0510
X-5.5650Y19.3510
X6.3350Y-6.6690
X-4.6830Y-5.8810
X-12.3930Y5.6174
X18.2280Y10.9990
X-8.0500Y2.0750
X2.8910Y14.5180
X1.8000Y20.9000
X6.3500Y19.6000
X-2.0789Y9.3745
X0.5604Y7.2800
X7.3216Y9.3420
X16.8980Y9.3960
X19.2000Y9.6000
X-16.7400Y-2.2410
X3.6280Y4.4030
X6.2600Y21.4196
X7.6133Y21.1150
X9.1963Y21.5510
X-5.8858Y1.8666
X-19.9000Y-1.0250
X-17.1000Y3.8350
X-15.2000Y6.0000
X-6.1850Y-1.6500
X15.1771Y10.1105
X15.1771Y8.6000
X-19.4370Y7.7430
X-18.3040Y5.8800
M30