%TF.GenerationSoftware,tscircuit,circuit-json-to-gerber,0.0.109*%
%TF.CreationDate,2026-10-05T16:26:20.928Z*%
%TF.SameCoordinates,Original*%
%TF.FileFunction,Other,Fab,Top*%
%TF.FilePolarity,Positive*%
%FSLAX46Y46*%
%MOMM*%
G04 Gerber Fmt 4.6, Leading zero omitted, Abs format (unit mm)*
G04 Created by tscircuit (builder) date 2026-10-05T16:26:20.928Z*
G01*
%LPD*%
G75*
G04 APERTURE MACROS START*
%AMHORZPILL*
0 Horizontal pill (stadium) shape macro*
0 Parameters:*
0 $1 = Total width*
0 $2 = Total height*
0 $3 = Circle diameter (equal to height)*
0 $4 = Circle center offset
0 21 = Center Line(Exposure, Width, Height, Center X, Center Y, Rotation)*
0 1 = Circle(Exposure, Diameter, Center X, Center Y, Rotation)*
21,1,$1-$3,$2,0.0,0.0,0.0*
1,1,$3,0.0-$4,0.0*
1,1,$3,$4,0.0*%
%AMVERTPILL*
0 Vertical pill (stadium) shape macro*
0 Parameters:*
0 $1 = Total width*
0 $2 = Total height*
0 $3 = Circle diameter (equal to width)*
0 $4 = Circle center offset
0 21 = Center Line(Exposure, Width, Height, Center X, Center Y, Rotation)*
21,1,$1,$2-$3,0.0,0.0,0.0*
1,1,$3,0.0,0.0-$4*
1,1,$3,0.0,$4*%
%AMROUNDRECT*
0 Rectangle with rounded corners*
0 $1 Corner radius*
0 $2 $3 $4 $5 $6 $7 $8 $9 X,Y Position of each corner*
0 Polygon box body*
4,1,4,$2,$3,$4,$5,$6,$7,$8,$9,$2,$3,0*
0 Circles for rounded corners*
1,1,$1+$1,$2,$3*
1,1,$1+$1,$4,$5*
1,1,$1+$1,$6,$7*
1,1,$1+$1,$8,$9*
0 Rectangles between the rounded corners*
20,1,$1+$1,$2,$3,$4,$5,0*
20,1,$1+$1,$4,$5,$6,$7,0*
20,1,$1+$1,$6,$7,$8,$9,0*
20,1,$1+$1,$8,$9,$2,$3,0*%
G04 APERTURE MACROS END*
G04 aperture START LIST*
%ADD10C,0.150000*%
%ADD11C,0.200000*%
%ADD12C,0.600000*%
%ADD13C,0.400000*%
%ADD14C,0.300000*%
%ADD15C,0.500000*%
%ADD16C,0.196429*%
%ADD17C,0.250000*%
%ADD18C,0.262500*%
%ADD19C,0.212500*%
%ADD20C,0.254000*%
%ADD21C,0.080000*%
%TD*%
G04 aperture END LIST*
D20*
X-04526991Y028460242D02*
X-04489794Y028550044D01*
X-04399991Y028587242D01*
X004399991Y028587242D01*
X004489794Y028550044D01*
X004526991Y028460242D01*
X004526991Y023560252D01*
X004489794Y023470449D01*
X004399991Y023433252D01*
X004272991Y028333242D01*
X-04399991Y023433252D01*
X-04526991Y028460242D01*
D20*
X006973535Y026143967D02*
X007581789Y026143967D01*
X007581789Y025990221D01*
X006970817Y025990221D01*
X006970817Y025996901D01*
X006973535Y026143967D01*
D20*
X008461823Y026131978D02*
X009070077Y026131978D01*
X009070077Y025978232D01*
X008459105Y025978232D01*
X008459105Y025984912D01*
X008461823Y026131978D01*
D20*
X008691617Y025736373D02*
X008691617Y026344627D01*
X008845363Y026344627D01*
X008845363Y025733656D01*
X008838683Y025733656D01*
X008691617Y025736373D01*
D20*
X007899984Y-18924983D02*
X007899984Y-26824967D01*
X-07899984Y-26824967D01*
X-07899984Y-18924983D01*
X-07799984Y-18924983D01*
X-07799984Y-26724968D01*
X007799984Y-26724968D01*
X007799984Y-18924983D01*
X007899984Y-18924983D01*
D20*
X-20026465Y-04856033D02*
X-19418211Y-04856033D01*
X-19418211Y-05009779D01*
X-20029183Y-05009779D01*
X-20029183Y-05003099D01*
X-20026465Y-04856033D01*
D20*
X-18538177Y-04868022D02*
X-17929923Y-04868022D01*
X-17929923Y-05021768D01*
X-18540895Y-05021768D01*
X-18540895Y-05015088D01*
X-18538177Y-04868022D01*
D20*
X-18308383Y-05263627D02*
X-18308383Y-04655373D01*
X-18154637Y-04655373D01*
X-18154637Y-05266344D01*
X-18161317Y-05266344D01*
X-18308383Y-05263627D01*
D20*
X023156035Y005099974D02*
X024605994Y005099974D01*
X024605994Y006499972D01*
X023005997Y006499972D01*
X023005997Y006299972D01*
X024405994Y006299972D01*
X024405994Y005299974D01*
X023005997Y005299974D01*
X023005997Y005099974D01*
X023156035Y005099974D01*
D20*
X023610999Y004784989D02*
X023981001Y004784989D01*
X023981001Y003565002D01*
X024250978Y003565002D01*
X024250978Y003564976D01*
X023781002Y003095000D01*
X023381002Y003565002D01*
X023620982Y003565002D01*
X023610999Y004784989D01*
D21*
X008750062Y026000000D02*
X008300025Y026000000D01*
D21*
X008300025Y026225019D02*
X007699975Y026000000D01*
X008300025Y025774981D01*
X008300025Y026225019D01*
D21*
X007699975Y026225019D02*
X007699975Y025774981D01*
D21*
X007699975Y026000000D02*
X007249938Y026000000D01*
D21*
X-18249938Y-05000000D02*
X-18699975Y-05000000D01*
D21*
X-18699975Y-04774981D02*
X-19300025Y-05000000D01*
X-18699975Y-05225019D01*
X-18699975Y-04774981D01*
D21*
X-19300025Y-04774981D02*
X-19300025Y-05225019D01*
D21*
X-19300025Y-05000000D02*
X-19750062Y-05000000D01*
M02*