%TF.GenerationSoftware,tscircuit,circuit-json-to-gerber,0.0.109*%
%TF.CreationDate,2026-10-07T13:00:41.064Z*%
%TF.SameCoordinates,Original*%
%TF.FileFunction,Paste,Top*%
%TF.FilePolarity,Positive*%
%FSLAX46Y46*%
%MOMM*%
G04 Gerber Fmt 4.6, Leading zero omitted, Abs format (unit mm)*
G04 Created by tscircuit (builder) date 2026-10-07T13:00:41.064Z*
G01*
%LPD*%
G75*
G04 APERTURE MACROS START*
%AMHORZPILL*
0 Horizontal pill (stadium) shape macro*
0 Parameters:*
0 $1 = Total width*
0 $2 = Total height*
0 $3 = Circle diameter (equal to height)*
0 $4 = Circle center offset
0 21 = Center Line(Exposure, Width, Height, Center X, Center Y, Rotation)*
0 1 = Circle(Exposure, Diameter, Center X, Center Y, Rotation)*
21,1,$1-$3,$2,0.0,0.0,0.0*
1,1,$3,0.0-$4,0.0*
1,1,$3,$4,0.0*%
%AMVERTPILL*
0 Vertical pill (stadium) shape macro*
0 Parameters:*
0 $1 = Total width*
0 $2 = Total height*
0 $3 = Circle diameter (equal to width)*
0 $4 = Circle center offset
0 21 = Center Line(Exposure, Width, Height, Center X, Center Y, Rotation)*
21,1,$1,$2-$3,0.0,0.0,0.0*
1,1,$3,0.0,0.0-$4*
1,1,$3,0.0,$4*%
%AMROUNDRECT*
0 Rectangle with rounded corners*
0 $1 Corner radius*
0 $2 $3 $4 $5 $6 $7 $8 $9 X,Y Position of each corner*
0 Polygon box body*
4,1,4,$2,$3,$4,$5,$6,$7,$8,$9,$2,$3,0*
0 Circles for rounded corners*
1,1,$1+$1,$2,$3*
1,1,$1+$1,$4,$5*
1,1,$1+$1,$6,$7*
1,1,$1+$1,$8,$9*
0 Rectangles between the rounded corners*
20,1,$1+$1,$2,$3,$4,$5,0*
20,1,$1+$1,$4,$5,$6,$7,0*
20,1,$1+$1,$6,$7,$8,$9,0*
20,1,$1+$1,$8,$9,$2,$3,0*%
G04 APERTURE MACROS END*
G04 aperture START LIST*
%ADD10C,0.150000*%
%ADD11C,0.500000*%
%ADD12C,0.300000*%
%ADD13C,0.600000*%
%ADD14C,0.200000*%
%ADD15C,0.400000*%
%ADD16C,0.196429*%
%ADD17C,0.250000*%
%ADD18C,0.237500*%
%ADD19C,0.162000*%
%ADD20VERTPILL,0.999998X1.799996X0.999998X0.399999*%
%ADD21VERTPILL,0.999998X2.199996X0.999998X0.599999*%
%ADD22R,0.599999X1.199998*%
%ADD23R,0.299999X1.199998*%
%ADD24C,0.001000*%
%ADD25R,0.806475X0.864006*%
%ADD26R,0.564533X0.604804*%
%ADD27R,0.200000X0.499999*%
%ADD28R,1.499997X0.899998*%
%ADD29R,1.299997X0.699998*%
%ADD30R,0.799998X0.899998*%
%ADD31R,0.559999X0.629999*%
%ADD32R,0.799998X0.799998*%
%ADD33R,0.559999X0.559999*%
%ADD34R,1.799996X1.199998*%
%ADD35R,1.550010X0.599999*%
%ADD36R,1.410005X1.350010*%
%ADD37R,0.987003X0.945007*%
%ADD38R,1.499997X0.999998*%
%ADD39R,0.999998X1.499997*%
%ADD40R,1.350010X1.410005*%
%ADD41R,0.945007X0.987003*%
%ADD42R,1.199998X0.599999*%
%ADD43R,1.229995X1.859991*%
%ADD44R,0.860996X1.301994*%
%ADD45R,1.199998X1.799996*%
%ADD46R,0.599999X1.550010*%
%ADD47R,0.699999X1.199998*%
%ADD48R,0.489999X0.839998*%
%ADD49R,1.524000X0.599999*%
%ADD50R,1.066800X0.419999*%
%ADD51R,0.999998X0.650011*%
%ADD52R,0.699999X0.455008*%
%ADD53R,0.664997X0.280010*%
%ADD54R,1.199998X1.999996*%
%ADD55R,2.720010X1.299997*%
%ADD56R,0.899998X0.799998*%
%ADD57R,0.629999X0.559999*%
%ADD58R,0.599999X0.299999*%
%ADD59R,0.419999X0.210000*%
%ADD60C,0.450000*%
%TD*%
G04 aperture END LIST*
D24*
G36*
X-01400073Y022560254D02*
X-01400073Y021360231D01*
X-01100074Y021360231D01*
X-01100074Y022560254D01*
X-01400073Y022560254D01*
G37*
D24*
G36*
X-01600200Y021360231D02*
X-01600200Y022560254D01*
X-01900199Y022560254D01*
X-01900199Y021360231D01*
X-01600200Y021360231D01*
G37*
D24*
G36*
X003500018Y021360231D02*
X003500018Y022560254D01*
X002900020Y022560254D01*
X002900020Y021360231D01*
X003500018Y021360231D01*
G37*
D24*
G36*
X-00900201Y022560254D02*
X-00900201Y021360231D01*
X-00600202Y021360231D01*
X-00600202Y022560254D01*
X-00900201Y022560254D01*
G37*
D24*
G36*
X-02100174Y021360231D02*
X-02100174Y022560254D01*
X-02700172Y022560254D01*
X-02700172Y021360231D01*
X-02100174Y021360231D01*
G37*
D24*
G36*
X-00400075Y022560254D02*
X-00400075Y021360231D01*
X-00100076Y021360231D01*
X-00100076Y022560254D01*
X-00400075Y022560254D01*
G37*
D24*
G36*
X000099797Y022560254D02*
X000099797Y021360231D01*
X000399796Y021360231D01*
X000399796Y022560254D01*
X000099797Y022560254D01*
G37*
D24*
G36*
X002699918Y021360231D02*
X002699918Y022560254D01*
X002099920Y022560254D01*
X002099920Y021360231D01*
X002699918Y021360231D01*
G37*
D24*
G36*
X000599923Y022560254D02*
X000599923Y021360231D01*
X000899922Y021360231D01*
X000899922Y022560254D01*
X000599923Y022560254D01*
G37*
D24*
G36*
X001099795Y022560254D02*
X001099795Y021360231D01*
X001399794Y021360231D01*
X001399794Y022560254D01*
X001099795Y022560254D01*
G37*
D24*
G36*
X001599921Y022560254D02*
X001599921Y021360231D01*
X001899920Y021360231D01*
X001899920Y022560254D01*
X001599921Y022560254D01*
G37*
D24*
G36*
X-03500018Y022560254D02*
X-03500018Y021360256D01*
X-02900020Y021360256D01*
X-02900020Y022560254D01*
X-03500018Y022560254D01*
G37*
D24*
G36*
X004282542Y021661576D02*
X004307434Y021660332D01*
X004332376Y021660332D01*
X004357268Y021661576D01*
X004382084Y021664065D01*
X004406722Y021667774D01*
X004431157Y021672727D01*
X004455312Y021678874D01*
X004479138Y021686214D01*
X004502582Y021694749D01*
X004525543Y021704426D01*
X004548022Y021715246D01*
X004569892Y021727159D01*
X004591177Y021740164D01*
X004611776Y021754210D01*
X004631639Y021769272D01*
X004650740Y021785300D01*
X004669028Y021802241D01*
X004686427Y021820098D01*
X004702937Y021838792D01*
X004718482Y021858274D01*
X004733036Y021878518D01*
X004746549Y021899473D01*
X004759020Y021921063D01*
X004770399Y021943237D01*
X004780636Y021965970D01*
X004789754Y021989160D01*
X004797679Y022012807D01*
X004804435Y022036810D01*
X004809998Y022061093D01*
X004814316Y022085655D01*
X004817415Y022110394D01*
X004819294Y022135261D01*
X004819904Y022160178D01*
X004819904Y022960177D01*
X004819294Y022985094D01*
X004817415Y023009961D01*
X004814316Y023034700D01*
X004809998Y023059262D01*
X004804435Y023083544D01*
X004797679Y023107547D01*
X004789754Y023131195D01*
X004780636Y023154385D01*
X004770399Y023177118D01*
X004759020Y023199292D01*
X004746549Y023220882D01*
X004733036Y023241837D01*
X004718482Y023262081D01*
X004702937Y023281563D01*
X004686427Y023300257D01*
X004669028Y023318113D01*
X004650740Y023335055D01*
X004631639Y023351083D01*
X004611776Y023366145D01*
X004591177Y023380191D01*
X004569892Y023393196D01*
X004548022Y023405108D01*
X004525543Y023415929D01*
X004502582Y023425606D01*
X004479138Y023434141D01*
X004455312Y023441481D01*
X004431157Y023447628D01*
X004406722Y023452581D01*
X004382084Y023456289D01*
X004357268Y023458779D01*
X004332376Y023460023D01*
X004307434Y023460023D01*
X004282542Y023458779D01*
X004257726Y023456289D01*
X004233088Y023452581D01*
X004208653Y023447628D01*
X004184498Y023441481D01*
X004160672Y023434141D01*
X004137228Y023425606D01*
X004114267Y023415929D01*
X004091788Y023405108D01*
X004069893Y023393196D01*
X004048633Y023380191D01*
X004028034Y023366145D01*
X004008171Y023351083D01*
X003989070Y023335055D01*
X003970782Y023318113D01*
X003953383Y023300257D01*
X003936873Y023281563D01*
X003921328Y023262081D01*
X003906774Y023241837D01*
X003893261Y023220882D01*
X003880790Y023199292D01*
X003869411Y023177118D01*
X003859174Y023154385D01*
X003850056Y023131195D01*
X003842131Y023107547D01*
X003835375Y023083544D01*
X003829812Y023059262D01*
X003825494Y023034700D01*
X003822395Y023009961D01*
X003820516Y022985094D01*
X003819906Y022960177D01*
X003819906Y022160178D01*
X003820516Y022135261D01*
X003822395Y022110394D01*
X003825494Y022085655D01*
X003829812Y022061093D01*
X003835375Y022036810D01*
X003842131Y022012807D01*
X003850056Y021989160D01*
X003859174Y021965970D01*
X003869411Y021943237D01*
X003880790Y021921063D01*
X003893261Y021899473D01*
X003906774Y021878518D01*
X003921328Y021858274D01*
X003936873Y021838792D01*
X003953383Y021820098D01*
X003970782Y021802241D01*
X003989070Y021785300D01*
X004008171Y021769272D01*
X004028034Y021754210D01*
X004048633Y021740164D01*
X004069893Y021727159D01*
X004091788Y021715246D01*
X004114267Y021704426D01*
X004137228Y021694749D01*
X004160672Y021686214D01*
X004184498Y021678874D01*
X004208653Y021672727D01*
X004233088Y021667774D01*
X004257726Y021664065D01*
X004282542Y021661576D01*
G37*
D24*
G36*
X-04307434Y021660332D02*
X-04282542Y021661576D01*
X-04257726Y021664065D01*
X-04233088Y021667774D01*
X-04208653Y021672727D01*
X-04184498Y021678874D01*
X-04160672Y021686214D01*
X-04137228Y021694749D01*
X-04114267Y021704426D01*
X-04091788Y021715246D01*
X-04069918Y021727159D01*
X-04048633Y021740164D01*
X-04028034Y021754210D01*
X-04008171Y021769272D01*
X-03989070Y021785300D01*
X-03970782Y021802241D01*
X-03953383Y021820098D01*
X-03936873Y021838792D01*
X-03921328Y021858274D01*
X-03906774Y021878518D01*
X-03893261Y021899473D01*
X-03880790Y021921063D01*
X-03869411Y021943237D01*
X-03859174Y021965970D01*
X-03850056Y021989160D01*
X-03842131Y022012807D01*
X-03835375Y022036810D01*
X-03829812Y022061093D01*
X-03825494Y022085655D01*
X-03822395Y022110394D01*
X-03820516Y022135261D01*
X-03819906Y022160178D01*
X-03819906Y022960177D01*
X-03820516Y022985094D01*
X-03822395Y023009961D01*
X-03825494Y023034700D01*
X-03829812Y023059262D01*
X-03835375Y023083544D01*
X-03842131Y023107547D01*
X-03850056Y023131195D01*
X-03859174Y023154385D01*
X-03869411Y023177118D01*
X-03880790Y023199292D01*
X-03893261Y023220882D01*
X-03906774Y023241837D01*
X-03921328Y023262081D01*
X-03936873Y023281563D01*
X-03953383Y023300257D01*
X-03970782Y023318113D01*
X-03989070Y023335055D01*
X-04008171Y023351083D01*
X-04028034Y023366145D01*
X-04048633Y023380191D01*
X-04069918Y023393196D01*
X-04091788Y023405108D01*
X-04114267Y023415929D01*
X-04137228Y023425606D01*
X-04160672Y023434141D01*
X-04184498Y023441481D01*
X-04208653Y023447628D01*
X-04233088Y023452581D01*
X-04257726Y023456289D01*
X-04282542Y023458779D01*
X-04307434Y023460023D01*
X-04332376Y023460023D01*
X-04357268Y023458779D01*
X-04382084Y023456289D01*
X-04406722Y023452581D01*
X-04431157Y023447628D01*
X-04455312Y023441481D01*
X-04479138Y023434141D01*
X-04502582Y023425606D01*
X-04525543Y023415929D01*
X-04548022Y023405108D01*
X-04569917Y023393196D01*
X-04591177Y023380191D01*
X-04611776Y023366145D01*
X-04631639Y023351083D01*
X-04650740Y023335055D01*
X-04669028Y023318113D01*
X-04686427Y023300257D01*
X-04702937Y023281563D01*
X-04718482Y023262081D01*
X-04733036Y023241837D01*
X-04746549Y023220882D01*
X-04759020Y023199292D01*
X-04770399Y023177118D01*
X-04780636Y023154385D01*
X-04789754Y023131195D01*
X-04797679Y023107547D01*
X-04804435Y023083544D01*
X-04809998Y023059262D01*
X-04814316Y023034700D01*
X-04817415Y023009961D01*
X-04819294Y022985094D01*
X-04819904Y022960177D01*
X-04819904Y022160178D01*
X-04819294Y022135261D01*
X-04817415Y022110394D01*
X-04814316Y022085655D01*
X-04809998Y022061093D01*
X-04804435Y022036810D01*
X-04797679Y022012807D01*
X-04789754Y021989160D01*
X-04780636Y021965970D01*
X-04770399Y021943237D01*
X-04759020Y021921063D01*
X-04746549Y021899473D01*
X-04733036Y021878518D01*
X-04718482Y021858274D01*
X-04702937Y021838792D01*
X-04686427Y021820098D01*
X-04669028Y021802241D01*
X-04650740Y021785300D01*
X-04631639Y021769272D01*
X-04611776Y021754210D01*
X-04591177Y021740164D01*
X-04569917Y021727159D01*
X-04548022Y021715246D01*
X-04525543Y021704426D01*
X-04502582Y021694749D01*
X-04479138Y021686214D01*
X-04455312Y021678874D01*
X-04431157Y021672727D01*
X-04406722Y021667774D01*
X-04382084Y021664065D01*
X-04357268Y021661576D01*
X-04332376Y021660332D01*
X-04307434Y021660332D01*
G37*
D24*
G36*
X004282542Y025461569D02*
X004307434Y025460324D01*
X004332376Y025460324D01*
X004357268Y025461569D01*
X004382084Y025464058D01*
X004406722Y025467766D01*
X004431157Y025472719D01*
X004455312Y025478866D01*
X004479138Y025486207D01*
X004502582Y025494741D01*
X004525543Y025504418D01*
X004548022Y025515239D01*
X004569892Y025527151D01*
X004591177Y025540156D01*
X004611776Y025554202D01*
X004631639Y025569265D01*
X004650740Y025585292D01*
X004669028Y025602234D01*
X004686427Y025620090D01*
X004702937Y025638784D01*
X004718482Y025658266D01*
X004733036Y025678510D01*
X004746549Y025699465D01*
X004759020Y025721055D01*
X004770399Y025743229D01*
X004780636Y025765962D01*
X004789754Y025789152D01*
X004797679Y025812800D01*
X004804435Y025836803D01*
X004809998Y025861085D01*
X004814316Y025885647D01*
X004817415Y025910387D01*
X004819294Y025935253D01*
X004819904Y025960171D01*
X004819904Y027160168D01*
X004819294Y027185086D01*
X004817415Y027209952D01*
X004814316Y027234692D01*
X004809998Y027259254D01*
X004804435Y027283536D01*
X004797679Y027307539D01*
X004789754Y027331186D01*
X004780636Y027354377D01*
X004770399Y027377110D01*
X004759020Y027399284D01*
X004746549Y027420874D01*
X004733036Y027441829D01*
X004718482Y027462073D01*
X004702937Y027481554D01*
X004686427Y027500249D01*
X004669028Y027518105D01*
X004650740Y027535047D01*
X004631639Y027551074D01*
X004611776Y027566136D01*
X004591177Y027580183D01*
X004569892Y027593187D01*
X004548022Y027605100D01*
X004525543Y027615920D01*
X004502582Y027625598D01*
X004479138Y027634132D01*
X004455312Y027641473D01*
X004431157Y027647620D01*
X004406722Y027652573D01*
X004382084Y027656281D01*
X004357268Y027658770D01*
X004332376Y027660015D01*
X004307434Y027660015D01*
X004282542Y027658770D01*
X004257726Y027656281D01*
X004233088Y027652573D01*
X004208653Y027647620D01*
X004184498Y027641473D01*
X004160672Y027634132D01*
X004137228Y027625598D01*
X004114267Y027615920D01*
X004091788Y027605100D01*
X004069893Y027593187D01*
X004048633Y027580183D01*
X004028034Y027566136D01*
X004008171Y027551074D01*
X003989070Y027535047D01*
X003970782Y027518105D01*
X003953383Y027500249D01*
X003936873Y027481554D01*
X003921328Y027462073D01*
X003906774Y027441829D01*
X003893261Y027420874D01*
X003880790Y027399284D01*
X003869411Y027377110D01*
X003859174Y027354377D01*
X003850056Y027331186D01*
X003842131Y027307539D01*
X003835375Y027283536D01*
X003829812Y027259254D01*
X003825494Y027234692D01*
X003822395Y027209952D01*
X003820516Y027185086D01*
X003819906Y027160168D01*
X003819906Y025960171D01*
X003820516Y025935253D01*
X003822395Y025910387D01*
X003825494Y025885647D01*
X003829812Y025861085D01*
X003835375Y025836803D01*
X003842131Y025812800D01*
X003850056Y025789152D01*
X003859174Y025765962D01*
X003869411Y025743229D01*
X003880790Y025721055D01*
X003893261Y025699465D01*
X003906774Y025678510D01*
X003921328Y025658266D01*
X003936873Y025638784D01*
X003953383Y025620090D01*
X003970782Y025602234D01*
X003989070Y025585292D01*
X004008171Y025569265D01*
X004028034Y025554202D01*
X004048633Y025540156D01*
X004069893Y025527151D01*
X004091788Y025515239D01*
X004114267Y025504418D01*
X004137228Y025494741D01*
X004160672Y025486207D01*
X004184498Y025478866D01*
X004208653Y025472719D01*
X004233088Y025467766D01*
X004257726Y025464058D01*
X004282542Y025461569D01*
G37*
D24*
G36*
X-04307434Y025460324D02*
X-04282542Y025461569D01*
X-04257726Y025464058D01*
X-04233088Y025467766D01*
X-04208653Y025472719D01*
X-04184498Y025478866D01*
X-04160672Y025486207D01*
X-04137228Y025494741D01*
X-04114267Y025504418D01*
X-04091788Y025515239D01*
X-04069918Y025527151D01*
X-04048633Y025540156D01*
X-04028034Y025554202D01*
X-04008171Y025569265D01*
X-03989070Y025585292D01*
X-03970782Y025602234D01*
X-03953383Y025620090D01*
X-03936873Y025638784D01*
X-03921328Y025658266D01*
X-03906774Y025678510D01*
X-03893261Y025699465D01*
X-03880790Y025721055D01*
X-03869411Y025743229D01*
X-03859174Y025765962D01*
X-03850056Y025789152D01*
X-03842131Y025812800D01*
X-03835375Y025836803D01*
X-03829812Y025861085D01*
X-03825494Y025885647D01*
X-03822395Y025910387D01*
X-03820516Y025935253D01*
X-03819906Y025960171D01*
X-03819906Y027160168D01*
X-03820516Y027185086D01*
X-03822395Y027209952D01*
X-03825494Y027234692D01*
X-03829812Y027259254D01*
X-03835375Y027283536D01*
X-03842131Y027307539D01*
X-03850056Y027331186D01*
X-03859174Y027354377D01*
X-03869411Y027377110D01*
X-03880790Y027399284D01*
X-03893261Y027420874D01*
X-03906774Y027441829D01*
X-03921328Y027462073D01*
X-03936873Y027481554D01*
X-03953383Y027500249D01*
X-03970782Y027518105D01*
X-03989070Y027535047D01*
X-04008171Y027551074D01*
X-04028034Y027566136D01*
X-04048633Y027580183D01*
X-04069918Y027593187D01*
X-04091788Y027605100D01*
X-04114267Y027615920D01*
X-04137228Y027625598D01*
X-04160672Y027634132D01*
X-04184498Y027641473D01*
X-04208653Y027647620D01*
X-04233088Y027652573D01*
X-04257726Y027656281D01*
X-04282542Y027658770D01*
X-04307434Y027660015D01*
X-04332376Y027660015D01*
X-04357268Y027658770D01*
X-04382084Y027656281D01*
X-04406722Y027652573D01*
X-04431157Y027647620D01*
X-04455312Y027641473D01*
X-04479138Y027634132D01*
X-04502582Y027625598D01*
X-04525543Y027615920D01*
X-04548022Y027605100D01*
X-04569917Y027593187D01*
X-04591177Y027580183D01*
X-04611776Y027566136D01*
X-04631639Y027551074D01*
X-04650740Y027535047D01*
X-04669028Y027518105D01*
X-04686427Y027500249D01*
X-04702937Y027481554D01*
X-04718482Y027462073D01*
X-04733036Y027441829D01*
X-04746549Y027420874D01*
X-04759020Y027399284D01*
X-04770399Y027377110D01*
X-04780636Y027354377D01*
X-04789754Y027331186D01*
X-04797679Y027307539D01*
X-04804435Y027283536D01*
X-04809998Y027259254D01*
X-04814316Y027234692D01*
X-04817415Y027209952D01*
X-04819294Y027185086D01*
X-04819904Y027160168D01*
X-04819904Y025960171D01*
X-04819294Y025935253D01*
X-04817415Y025910387D01*
X-04814316Y025885647D01*
X-04809998Y025861085D01*
X-04804435Y025836803D01*
X-04797679Y025812800D01*
X-04789754Y025789152D01*
X-04780636Y025765962D01*
X-04770399Y025743229D01*
X-04759020Y025721055D01*
X-04746549Y025699465D01*
X-04733036Y025678510D01*
X-04718482Y025658266D01*
X-04702937Y025638784D01*
X-04686427Y025620090D01*
X-04669028Y025602234D01*
X-04650740Y025585292D01*
X-04631639Y025569265D01*
X-04611776Y025554202D01*
X-04591177Y025540156D01*
X-04569917Y025527151D01*
X-04548022Y025515239D01*
X-04525543Y025504418D01*
X-04502582Y025494741D01*
X-04479138Y025486207D01*
X-04455312Y025478866D01*
X-04431157Y025472719D01*
X-04406722Y025467766D01*
X-04382084Y025464058D01*
X-04357268Y025461569D01*
X-04332376Y025460324D01*
X-04307434Y025460324D01*
G37*
D26*
X000753364Y019000000D03*
D26*
X-00753364Y019000000D03*
D26*
X-03246636Y019000000D03*
D26*
X-04753364Y019000000D03*
D27*
X-00799973Y011949964D03*
D27*
X-00399923Y011950218D03*
D27*
X-00000127Y011950218D03*
D27*
X000399923Y011950218D03*
D27*
X000799973Y011950218D03*
D27*
X000799973Y014050036D03*
D27*
X000399923Y014050036D03*
D27*
X-00000127Y014050036D03*
D27*
X-00399923Y014050036D03*
D27*
X-00799973Y014050036D03*
D29*
X-00000127Y013000000D03*
D26*
X006253364Y009000000D03*
D26*
X004746636Y009000000D03*
D31*
X005200024Y011500000D03*
D31*
X003799976Y011500000D03*
D31*
X008700024Y020000000D03*
D31*
X007299976Y020000000D03*
D26*
X008753364Y023000000D03*
D26*
X007246636Y023000000D03*
D33*
X007249938Y026000000D03*
D33*
X008750062Y026000000D03*
D34*
X-19875015Y014799971D03*
D34*
X-19875015Y011200029D03*
D35*
X-15999991Y012500001D03*
D35*
X-15999991Y013499999D03*
D26*
X-05753364Y016000000D03*
D26*
X-04246636Y016000000D03*
D26*
X001753364Y017000000D03*
D26*
X000246636Y017000000D03*
D37*
X-06499998Y013400000D03*
D37*
X-04500002Y013400000D03*
D31*
X-05700024Y011000000D03*
D31*
X-04299976Y011000000D03*
D38*
X007750048Y-18375048D03*
D38*
X007750048Y-16375052D03*
D38*
X007750048Y-14375056D03*
D38*
X007750048Y-12375060D03*
D38*
X007750048Y-10375064D03*
D38*
X007750048Y-08375068D03*
D38*
X007750048Y-06375072D03*
D38*
X007750048Y-04375076D03*
D39*
X004999990Y-02874952D03*
D39*
X002999994Y-02874952D03*
D39*
X000999998Y-02874952D03*
D39*
X-00999998Y-02874952D03*
D39*
X-02999994Y-02874952D03*
D39*
X-04999990Y-02874952D03*
D38*
X-07750048Y-04375076D03*
D38*
X-07750048Y-06375072D03*
D38*
X-07750048Y-08375068D03*
D38*
X-07750048Y-10375064D03*
D38*
X-07750048Y-12375060D03*
D38*
X-07750048Y-14375056D03*
D38*
X-07750048Y-16375052D03*
D38*
X-07750048Y-18375048D03*
D31*
X011700024Y-08000000D03*
D31*
X010299976Y-08000000D03*
D41*
X012000000Y-03500002D03*
D41*
X012000000Y-05499998D03*
D24*
G36*
X020949973Y-06900105D02*
X021599959Y-06900105D01*
X021599959Y-06900105D01*
X021599959Y-05850120D01*
X021599959Y-05850120D01*
X020299936Y-05850120D01*
X020299936Y-05850120D01*
X020299936Y-06500080D01*
X020299936Y-06500080D01*
X020949947Y-06500080D01*
X020949947Y-06500080D01*
X020949947Y-06900079D01*
X020949947Y-06900079D01*
X020949973Y-06900105D01*
X020949973Y-06900105D01*
G37*
D24*
G36*
X020299936Y-11149880D02*
X021599959Y-11149880D01*
X021599959Y-11149880D01*
X021599959Y-10099895D01*
X021599959Y-10099895D01*
X020949973Y-10099895D01*
X020949973Y-10099895D01*
X020949947Y-10099921D01*
X020949947Y-10099921D01*
X020949947Y-10499920D01*
X020949947Y-10499920D01*
X020299936Y-10499920D01*
X020299936Y-10499920D01*
X020299936Y-11149880D01*
X020299936Y-11149880D01*
G37*
D42*
X019000040Y-10199971D03*
D42*
X019000040Y-06799927D03*
D44*
X015815092Y-03000000D03*
D44*
X020184908Y-03000000D03*
D26*
X-15753364Y-05000000D03*
D26*
X-14246636Y-05000000D03*
D33*
X-19750062Y-05000000D03*
D33*
X-18249938Y-05000000D03*
D45*
X010900157Y014799990D03*
D45*
X015499843Y014800244D03*
D46*
X014200125Y017325004D03*
D46*
X013200127Y017325004D03*
D46*
X012200129Y017325004D03*
D44*
X-21184908Y-09000000D03*
D44*
X-16815092Y-09000000D03*
D44*
X012315092Y011500000D03*
D44*
X016684908Y011500000D03*
D48*
X018606052Y008599942D03*
D48*
X020906022Y008599942D03*
D48*
X020906022Y001400058D03*
D48*
X018606052Y001400058D03*
D50*
X017505978Y007249932D03*
D50*
X017505978Y005750062D03*
D50*
X017505978Y002750068D03*
D26*
X003246636Y003000000D03*
D26*
X004753364Y003000000D03*
D52*
X-03000002Y000050040D03*
D52*
X-03000002Y001949960D03*
D52*
X-04999998Y001000000D03*
D26*
X-00753364Y001500000D03*
D26*
X000753364Y001500000D03*
D53*
X-11157478Y003999998D03*
D53*
X-11157478Y003499872D03*
D53*
X-11157478Y003000000D03*
D53*
X-11157478Y002499874D03*
D53*
X-11157478Y002000002D03*
D53*
X-08842522Y003999998D03*
D53*
X-08842522Y003499872D03*
D53*
X-08842522Y003000000D03*
D53*
X-08842522Y002499874D03*
D53*
X-08842522Y002000002D03*
D54*
X-10000000Y003000000D03*
D55*
X-14000000Y004350010D03*
D55*
X-14000000Y001649990D03*
D37*
X-14999998Y-01000000D03*
D37*
X-13000002Y-01000000D03*
D37*
X-09000002Y008500000D03*
D37*
X-10999998Y008500000D03*
D57*
X-07000000Y003700024D03*
D57*
X-07000000Y002299976D03*
D37*
X-09000002Y000000000D03*
D37*
X-10999998Y000000000D03*
D37*
X-09000002Y006000000D03*
D37*
X-10999998Y006000000D03*
D52*
X-17000002Y-00949960D03*
D52*
X-17000002Y000949960D03*
D52*
X-18999998Y000000000D03*
D31*
X-17299976Y003000000D03*
D31*
X-18700024Y003000000D03*
D59*
X-00749986Y005999873D03*
D59*
X000749986Y005999873D03*
D59*
X000749986Y006499999D03*
D59*
X000749986Y005500001D03*
D59*
X-00749986Y006499999D03*
D59*
X-00749986Y005500001D03*
D31*
X002200024Y008500000D03*
D31*
X000799976Y008500000D03*
D26*
X-05253364Y006000000D03*
D26*
X-03746636Y006000000D03*
D26*
X005253364Y005500000D03*
D26*
X003746636Y005500000D03*
D26*
X010253364Y010000000D03*
D26*
X008746636Y010000000D03*
D26*
X007246636Y012000000D03*
D26*
X008753364Y012000000D03*
D52*
X008999998Y005050040D03*
D52*
X008999998Y006949960D03*
D52*
X007000002Y006000000D03*
M02*