M48
; DRILL file {tscircuit} date 2026-10-05T20:31:57.938Z
; FORMAT={-:-/ absolute / metric / decimal}
; #@! TF.CreationDate,2026-10-05T20:31:57.938Z
; #@! TF.GenerationSoftware,tscircuit
; #@! TF.FileFunction,Plated,1,2,PTH
FMAT,2
METRIC
; #@! TA.AperFunction,Plated,PTH,ComponentDrill
T10C0.599999
; #@! TA.AperFunction,Plated,PTH,ComponentDrill
T11C0.300000
%
G90
G05
T10
X-4.3199Y22.9602G85X-4.3199Y22.1602
G05
X4.3199Y22.9602G85X4.3199Y22.1602
G05
X4.3199Y27.1602G85X4.3199Y25.9602
G05
X-4.3199Y27.1602G85X-4.3199Y25.9602
G05
T11
X-3.6000Y20.1000
X-2.0000Y19.8000
X-0.8000Y19.9000
X0.8000Y19.9000
X2.0000Y19.8000
X3.6000Y19.8000
X-1.9999Y10.2000
X-0.9998Y10.2000
X-0.0003Y10.2000
X0.9998Y10.2000
X1.9999Y10.2000
X1.9999Y15.8000
X0.9998Y15.8000
X-0.0003Y15.8000
X-1.9999Y15.8000
X-2.5000Y13.0000
X6.2534Y7.5000
X4.7466Y7.5000
X8.1349Y14.7830
X3.9328Y14.7942
X3.8000Y9.8000
X5.2000Y13.2000
X-7.4000Y16.0000
X0.2466Y17.8000
X1.7534Y18.2000
X9.2000Y-8.0000
X13.0000Y-8.0000
X10.5000Y-5.5000
X14.0000Y-3.5000
X15.6996Y19.0000
X14.6996Y19.0000
X13.6996Y19.0000
X12.6996Y19.0000
X11.6996Y19.0000
X10.7001Y19.0000
X-1.5000Y3.3000
X3.0000Y1.5000
X-13.0000Y3.0000
X-8.0000Y4.8000
X-7.8000Y0.0000
X-7.5000Y6.0000
X-7.5000Y8.5000
X-15.0000Y-3.0000
X-7.9000Y1.0000
X2.0000Y4.8000
X2.3000Y6.0000
X-2.0000Y7.2000
X-2.3000Y6.0000
X-2.0000Y4.8000
X0.8000Y9.4000
X3.2000Y8.5000
X-3.0000Y9.8000
X-5.2534Y4.4000
X11.0000Y6.9500
X-4.5000Y14.6000
X7.2499Y24.0000
X17.8000Y2.7501
X-16.0000Y-3.4000
X4.9580Y-5.5420
X-4.2466Y17.4000
X0.0990Y-4.5000
X12.8403Y5.6440
X12.8185Y3.9144
X2.0290Y-0.1440
X0.0900Y4.1530
X-5.9469Y1.6198
X10.3063Y2.2593
X10.9921Y4.2950
X13.8460Y15.8853
X12.9931Y15.1149
X14.0983Y4.4566
X13.9966Y5.7882
X-1.5623Y12.2600
X2.9454Y9.6400
X4.8750Y10.1600
X-0.9940Y24.4200
X4.4750Y-7.7010
X-12.3930Y5.6174
X11.7200Y1.7730
X15.0260Y15.8176
X-3.8230Y7.3990
X6.2600Y15.5956
X-0.0232Y7.1600
X2.9990Y24.0280
X0.0534Y2.5094
X-2.0901Y9.2350
X5.7031Y4.5578
X-16.7400Y-1.8250
X3.7834Y7.1515
X6.1784Y23.1403
X-19.9365Y0.8267
X-17.9236Y3.9982
X-6.2295Y-1.8891
X8.7022Y18.3829
X8.9720Y16.3530
X1.5810Y12.2510
X-18.6360Y7.7420
X-17.3640Y5.8798
M30