%TF.GenerationSoftware,tscircuit,circuit-json-to-gerber,0.0.109*%
%TF.CreationDate,2026-10-05T20:31:57.862Z*%
%TF.SameCoordinates,Original*%
%TF.FileFunction,Copper,L1,Top*%
%TF.FilePolarity,Positive*%
%FSLAX46Y46*%
%MOMM*%
G04 Gerber Fmt 4.6, Leading zero omitted, Abs format (unit mm)*
G04 Created by tscircuit (builder) date 2026-10-05T20:31:57.862Z*
G01*
%LPD*%
G75*
G04 APERTURE MACROS START*
%AMHORZPILL*
0 Horizontal pill (stadium) shape macro*
0 Parameters:*
0 $1 = Total width*
0 $2 = Total height*
0 $3 = Circle diameter (equal to height)*
0 $4 = Circle center offset
0 21 = Center Line(Exposure, Width, Height, Center X, Center Y, Rotation)*
0 1 = Circle(Exposure, Diameter, Center X, Center Y, Rotation)*
21,1,$1-$3,$2,0.0,0.0,0.0*
1,1,$3,0.0-$4,0.0*
1,1,$3,$4,0.0*%
%AMVERTPILL*
0 Vertical pill (stadium) shape macro*
0 Parameters:*
0 $1 = Total width*
0 $2 = Total height*
0 $3 = Circle diameter (equal to width)*
0 $4 = Circle center offset
0 21 = Center Line(Exposure, Width, Height, Center X, Center Y, Rotation)*
21,1,$1,$2-$3,0.0,0.0,0.0*
1,1,$3,0.0,0.0-$4*
1,1,$3,0.0,$4*%
%AMROUNDRECT*
0 Rectangle with rounded corners*
0 $1 Corner radius*
0 $2 $3 $4 $5 $6 $7 $8 $9 X,Y Position of each corner*
0 Polygon box body*
4,1,4,$2,$3,$4,$5,$6,$7,$8,$9,$2,$3,0*
0 Circles for rounded corners*
1,1,$1+$1,$2,$3*
1,1,$1+$1,$4,$5*
1,1,$1+$1,$6,$7*
1,1,$1+$1,$8,$9*
0 Rectangles between the rounded corners*
20,1,$1+$1,$2,$3,$4,$5,0*
20,1,$1+$1,$4,$5,$6,$7,0*
20,1,$1+$1,$6,$7,$8,$9,0*
20,1,$1+$1,$8,$9,$2,$3,0*%
G04 APERTURE MACROS END*
G04 aperture START LIST*
%ADD10C,0.150000*%
%ADD11C,0.300000*%
%ADD12C,0.200000*%
%ADD13C,0.600000*%
%ADD14C,0.400000*%
%ADD15C,0.500000*%
%ADD16C,0.196429*%
%ADD17C,0.250000*%
%ADD18C,0.162000*%
%ADD19VERTPILL,0.999998X1.799996X0.999998X0.399999*%
%ADD20VERTPILL,0.999998X2.199996X0.999998X0.599999*%
%ADD21R,0.599999X1.199998*%
%ADD22R,0.299999X1.199998*%
%ADD23C,0.001000*%
%ADD24R,0.806475X0.864006*%
%ADD25R,0.564533X0.604804*%
%ADD26R,0.200000X0.499999*%
%ADD27R,1.499997X0.899998*%
%ADD28R,1.299997X0.699998*%
%ADD29R,0.799998X0.899998*%
%ADD30R,0.559999X0.629999*%
%ADD31R,0.799998X0.799998*%
%ADD32R,0.559999X0.559999*%
%ADD33R,1.799996X1.199998*%
%ADD34R,1.550010X0.599999*%
%ADD35R,1.410005X1.350010*%
%ADD36R,0.987003X0.945007*%
%ADD37R,1.499997X0.999998*%
%ADD38R,0.999998X1.499997*%
%ADD39R,1.350010X1.410005*%
%ADD40R,0.945007X0.987003*%
%ADD41C,0.700024*%
%ADD42R,1.199998X0.599999*%
%ADD43R,1.229995X1.859991*%
%ADD44R,0.860996X1.301994*%
%ADD45C,0.100000*%
%ADD46R,0.599999X1.550010*%
%ADD47R,0.419999X1.085007*%
%ADD48R,1.199998X1.799996*%
%ADD49R,0.839998X1.259997*%
%ADD50C,0.900024*%
%ADD51R,0.699999X1.199998*%
%ADD52R,0.489999X0.839998*%
%ADD53R,1.524000X0.599999*%
%ADD54R,1.066800X0.419999*%
%ADD55R,0.999998X0.650011*%
%ADD56R,0.699999X0.455008*%
%ADD57R,0.664997X0.280010*%
%ADD58R,1.199998X1.999996*%
%ADD59R,2.720010X1.299997*%
%ADD60R,0.899998X0.799998*%
%ADD61R,0.629999X0.559999*%
%ADD62R,0.599999X0.299999*%
%ADD63R,0.419999X0.210000*%
%ADD64C,2.200000*%
%ADD65C,0.600000*%
%TD*%
G04 aperture END LIST*
D23*
G36*
X006700049Y-17575049D02*
G01*
X008800046Y-17575049D01*
G01*
X008800046Y-18700000D01*
G01*
X022700000Y-18700000D01*
G01*
X022700000Y-15800000D01*
G01*
X019200000Y-15800000D01*
G01*
X019200000Y-12200000D01*
G01*
X022700000Y-12200000D01*
G01*
X022700000Y-09858406D01*
G01*
X022661139Y-09890298D01*
G01*
X022548761Y-09950366D01*
G01*
X022426823Y-09987355D01*
G01*
X022300012Y-09999845D01*
G01*
X022173201Y-09987355D01*
G01*
X022051263Y-09950366D01*
G01*
X021938885Y-09890298D01*
G01*
X021840384Y-09809461D01*
G01*
X021759547Y-09710961D01*
G01*
X021699479Y-09598582D01*
G01*
X021662490Y-09476644D01*
G01*
X021650000Y-09349833D01*
G01*
X021662490Y-09223022D01*
G01*
X021699479Y-09101084D01*
G01*
X021759547Y-08988706D01*
G01*
X021840384Y-08890205D01*
G01*
X021938885Y-08809368D01*
G01*
X022051263Y-08749300D01*
G01*
X022173201Y-08712311D01*
G01*
X022300012Y-08699821D01*
G01*
X022426823Y-08712311D01*
G01*
X022548761Y-08749300D01*
G01*
X022661139Y-08809368D01*
G01*
X022700000Y-08841260D01*
G01*
X022700000Y-08158384D01*
G01*
X022661139Y-08190276D01*
G01*
X022548761Y-08250344D01*
G01*
X022426823Y-08287333D01*
G01*
X022300012Y-08299823D01*
G01*
X022173201Y-08287333D01*
G01*
X022051263Y-08250344D01*
G01*
X021938885Y-08190276D01*
G01*
X021840384Y-08109439D01*
G01*
X021759547Y-08010939D01*
G01*
X021699479Y-07898560D01*
G01*
X021662490Y-07776622D01*
G01*
X021650000Y-07649811D01*
G01*
X021662490Y-07523000D01*
G01*
X021699479Y-07401062D01*
G01*
X021700086Y-07399927D01*
G01*
X020100041Y-07399927D01*
G01*
X020100041Y-07174933D01*
G01*
X009480447Y-07174999D01*
G01*
X009250475Y-07404971D01*
G01*
X009317054Y-07411529D01*
G01*
X009429610Y-07445672D01*
G01*
X009533342Y-07501118D01*
G01*
X009599977Y-07555804D01*
G01*
X009599977Y-07250001D01*
G01*
X010999975Y-07250001D01*
G01*
X010999975Y-08749999D01*
G01*
X009599977Y-08749999D01*
G01*
X009599977Y-08444196D01*
G01*
X009533342Y-08498882D01*
G01*
X009429610Y-08554328D01*
G01*
X009317054Y-08588471D01*
G01*
X009200000Y-08600000D01*
G01*
X009082946Y-08588471D01*
G01*
X008970390Y-08554328D01*
G01*
X008866658Y-08498882D01*
G01*
X008800047Y-08444216D01*
G01*
X008800047Y-09175067D01*
G01*
X007028184Y-09175067D01*
G01*
X007024882Y-09575065D01*
G01*
X008800047Y-09575065D01*
G01*
X008800047Y-11175063D01*
G01*
X007011674Y-11175063D01*
G01*
X007008373Y-11575061D01*
G01*
X008800047Y-11575061D01*
G01*
X008800047Y-13175059D01*
G01*
X007000523Y-13175059D01*
G01*
X007434892Y-13575057D01*
G01*
X008800046Y-13575057D01*
G01*
X008800046Y-15175055D01*
G01*
X006700049Y-15175055D01*
G01*
X006700049Y-13917921D01*
G01*
X006364820Y-13609218D01*
G01*
X006365632Y-13608337D01*
G01*
X006353681Y-13598529D01*
G01*
X006307045Y-13541703D01*
G01*
X006272391Y-13476870D01*
G01*
X006251052Y-13406523D01*
G01*
X006243846Y-13333364D01*
G01*
X006244151Y-13330271D01*
G01*
X006243859Y-13330269D01*
G01*
X006301854Y-06304533D01*
G01*
X005039601Y-07505099D01*
G01*
X005063507Y-07583905D01*
G01*
X005075035Y-07700959D01*
G01*
X005063507Y-07818013D01*
G01*
X005029363Y-07930569D01*
G01*
X004973917Y-08034301D01*
G01*
X004899299Y-08125223D01*
G01*
X004808377Y-08199841D01*
G01*
X004704645Y-08255287D01*
G01*
X004592090Y-08289430D01*
G01*
X004475035Y-08300959D01*
G01*
X004357981Y-08289430D01*
G01*
X004245425Y-08255287D01*
G01*
X004141693Y-08199841D01*
G01*
X004050771Y-08125223D01*
G01*
X003976154Y-08034301D01*
G01*
X003953918Y-07992701D01*
G01*
X-06700049Y-18549696D01*
G01*
X-06700049Y-18700000D01*
G01*
X006700049Y-18700000D01*
G01*
X006700049Y-17575049D01*
G37*
%LPC*%
D23*
G36*
X006700049Y-17175051D02*
G01*
X008800046Y-17175051D01*
G01*
X008800046Y-15575053D01*
G01*
X006700049Y-15575053D01*
G01*
X006700049Y-17175051D01*
G37*
%LPD*%
D23*
G36*
X-03800001Y000675046D02*
G01*
X-03011374Y000675046D01*
G01*
X-02954342Y000732075D01*
G01*
X-02772418Y000913988D01*
G01*
X-02590494Y001095902D01*
G01*
X-02590493Y001095901D01*
G01*
X-02522312Y001151856D01*
G01*
X-02444513Y001193441D01*
G01*
X-02360096Y001219048D01*
G01*
X-02272305Y001227695D01*
G01*
X-02267597Y001227231D01*
G01*
X-02267592Y001227670D01*
G01*
X-01988499Y001224747D01*
G01*
X-01709405Y001221824D01*
G01*
X-01430311Y001218901D01*
G01*
X-01151218Y001215978D01*
G01*
X-00872124Y001213054D01*
G01*
X-00593030Y001210131D01*
G01*
X-00451709Y001208651D01*
G01*
X-00452498Y001351831D01*
G01*
X-00452261Y001351832D01*
G01*
X-00452505Y001354312D01*
G01*
X-00450370Y001375993D01*
G01*
X-00451978Y001376071D01*
G01*
X-00438000Y001664833D01*
G01*
X-00424021Y001953595D01*
G01*
X-00415048Y002138946D01*
G01*
X-00445472Y002176017D01*
G01*
X-00500918Y002279749D01*
G01*
X-00535061Y002392305D01*
G01*
X-00546590Y002509359D01*
G01*
X-00535061Y002626414D01*
G01*
X-00500918Y002738969D01*
G01*
X-00445472Y002842701D01*
G01*
X-00370854Y002933623D01*
G01*
X-00279932Y003008241D01*
G01*
X-00176200Y003063687D01*
G01*
X-00063644Y003097830D01*
G01*
X000053410Y003109359D01*
G01*
X000170464Y003097830D01*
G01*
X000283020Y003063687D01*
G01*
X000386752Y003008241D01*
G01*
X000477674Y002933623D01*
G01*
X000552292Y002842701D01*
G01*
X000607738Y002738969D01*
G01*
X000641881Y002626414D01*
G01*
X000653410Y002509359D01*
G01*
X000641881Y002392305D01*
G01*
X000607738Y002279749D01*
G01*
X000582217Y002232003D01*
G01*
X001456602Y002232003D01*
G01*
X001456602Y001950000D01*
G01*
X002607095Y001950000D01*
G01*
X002666658Y001998882D01*
G01*
X002770390Y002054328D01*
G01*
X002882946Y002088471D01*
G01*
X003000000Y002100000D01*
G01*
X003117054Y002088471D01*
G01*
X003229610Y002054328D01*
G01*
X003333342Y001998882D01*
G01*
X003364756Y001973101D01*
G01*
X003364328Y002267997D01*
G01*
X002543398Y002267997D01*
G01*
X002543398Y003446910D01*
G01*
X002449980Y003448956D01*
G01*
X002162007Y003455262D01*
G01*
X001874034Y003461568D01*
G01*
X001586061Y003467874D01*
G01*
X001586080Y003468734D01*
G01*
X001508122Y003476412D01*
G01*
X001429707Y003500200D01*
G01*
X001429496Y003499669D01*
G01*
X001392738Y003514299D01*
G01*
X001392950Y003514830D01*
G01*
X001386948Y003516651D01*
G01*
X001309149Y003558235D01*
G01*
X001245241Y003610683D01*
G01*
X001244885Y003610319D01*
G01*
X001044061Y003806275D01*
G01*
X000843237Y004002231D01*
G01*
X000689888Y004151863D01*
G01*
X000678471Y004035946D01*
G01*
X000644328Y003923390D01*
G01*
X000588882Y003819658D01*
G01*
X000514264Y003728736D01*
G01*
X000423342Y003654118D01*
G01*
X000319610Y003598672D01*
G01*
X000207054Y003564529D01*
G01*
X000090000Y003553000D01*
G01*
X-00027054Y003564529D01*
G01*
X-00139610Y003598672D01*
G01*
X-00243342Y003654118D01*
G01*
X-00334264Y003728736D01*
G01*
X-00352612Y003751094D01*
G01*
X-02234856Y003711888D01*
G01*
X-02234870Y003712575D01*
G01*
X-02242666Y003711807D01*
G01*
X-02315825Y003719012D01*
G01*
X-02386172Y003740352D01*
G01*
X-02451005Y003775006D01*
G01*
X-02507831Y003821642D01*
G01*
X-02516057Y003831665D01*
G01*
X-02516823Y003830950D01*
G01*
X-03294410Y004664157D01*
G01*
X-03293644Y004664872D01*
G01*
X-03332053Y004711675D01*
G01*
X-03366707Y004776507D01*
G01*
X-03388047Y004846855D01*
G01*
X-03395252Y004920013D01*
G01*
X-03395099Y004921569D01*
G01*
X-03395249Y004921570D01*
G01*
X-03393811Y005267997D01*
G01*
X-04449874Y005267997D01*
G01*
X-04449874Y006732003D01*
G01*
X-03668091Y006732003D01*
G01*
X-03577711Y006853052D01*
G01*
X-03593390Y006844672D01*
G01*
X-03705946Y006810529D01*
G01*
X-03823000Y006799000D01*
G01*
X-03940054Y006810529D01*
G01*
X-04052610Y006844672D01*
G01*
X-04130667Y006886395D01*
G01*
X-04169406Y006886509D01*
G01*
X-04451160Y006887340D01*
G01*
X-04732914Y006888172D01*
G01*
X-04840309Y006888489D01*
G01*
X-04891365Y006842210D01*
G01*
X-05071607Y006678831D01*
G01*
X-05072699Y006680036D01*
G01*
X-05123818Y006638083D01*
G01*
X-05126537Y006636630D01*
G01*
X-05126377Y006636386D01*
G01*
X-05550000Y006357492D01*
G01*
X-05550000Y005746256D01*
G01*
X-05449880Y005264414D01*
G01*
X-05450234Y005264341D01*
G01*
X-05449116Y005260656D01*
G01*
X-05441159Y005179871D01*
G01*
X-05440524Y005179881D01*
G01*
X-05436023Y004891236D01*
G01*
X-05431522Y004602591D01*
G01*
X-05427022Y004313945D01*
G01*
X-05422521Y004025300D01*
G01*
X-05418021Y003736655D01*
G01*
X-05413520Y003448010D01*
G01*
X-05414155Y003448000D01*
G01*
X-05413465Y003440994D01*
G01*
X-05422112Y003353204D01*
G01*
X-05447720Y003268787D01*
G01*
X-05489304Y003190988D01*
G01*
X-05544703Y003123484D01*
G01*
X-05544642Y003123423D01*
G01*
X-05734064Y002933254D01*
G01*
X-05923486Y002743084D01*
G01*
X-06112909Y002552914D01*
G01*
X-06250001Y002415281D01*
G01*
X-06250001Y002134859D01*
G01*
X-06176507Y002174142D01*
G01*
X-06063951Y002208286D01*
G01*
X-05946897Y002219815D01*
G01*
X-05829843Y002208286D01*
G01*
X-05717287Y002174142D01*
G01*
X-05613555Y002118696D01*
G01*
X-05522633Y002044079D01*
G01*
X-05483993Y001996996D01*
G01*
X-05468661Y001988801D01*
G01*
X-05411835Y001942165D01*
G01*
X-05094675Y001625006D01*
G01*
X-04199999Y001625006D01*
G01*
X-04199999Y000513750D01*
G01*
X-03800001Y000113752D01*
G01*
X-03800001Y000675046D01*
G37*
D23*
G36*
X010567789Y004719264D02*
G01*
X010658711Y004793882D01*
G01*
X010762443Y004849328D01*
G01*
X010874999Y004883471D01*
G01*
X010992053Y004895000D01*
G01*
X011109107Y004883471D01*
G01*
X011129419Y004877310D01*
G01*
X011180870Y007164932D01*
G01*
X011128621Y007395020D01*
G01*
X009332867Y009152045D01*
G01*
X009333133Y009152317D01*
G01*
X009329961Y009154920D01*
G01*
X009283325Y009211746D01*
G01*
X009253258Y009267997D01*
G01*
X008654333Y009267997D01*
G01*
X008450418Y009062443D01*
G01*
X008245189Y008855565D01*
G01*
X008171864Y008781650D01*
G01*
X008172658Y008674187D01*
G01*
X008174836Y008379439D01*
G01*
X008177014Y008084691D01*
G01*
X008179192Y007789943D01*
G01*
X008181371Y007495195D01*
G01*
X008183549Y007200447D01*
G01*
X008185727Y006905698D01*
G01*
X008187445Y006673326D01*
G01*
X008332116Y006175601D01*
G01*
X008330065Y006175005D01*
G01*
X008341353Y006137791D01*
G01*
X008350000Y006050000D01*
G01*
X008345137Y006000631D01*
G01*
X008355926Y006001694D01*
G01*
X008355913Y006002344D01*
G01*
X009607777Y006026870D01*
G01*
X009607790Y006026220D01*
G01*
X009615123Y006026942D01*
G01*
X009688282Y006019737D01*
G01*
X009758629Y005998397D01*
G01*
X009823462Y005963743D01*
G01*
X009880288Y005917107D01*
G01*
X009889402Y005906001D01*
G01*
X009890235Y005906773D01*
G01*
X010408163Y005347624D01*
G01*
X010407330Y005346853D01*
G01*
X010444852Y005301132D01*
G01*
X010479506Y005236300D01*
G01*
X010500845Y005165952D01*
G01*
X010508051Y005092793D01*
G01*
X010508014Y005092415D01*
G01*
X010508051Y005092415D01*
G01*
X010507600Y004645924D01*
G01*
X010567789Y004719264D01*
G37*
D23*
G36*
X006071332Y004329545D02*
G01*
X006264226Y004531015D01*
G01*
X006452474Y004727633D01*
G01*
X007036241Y005374994D01*
G01*
X006200003Y005374994D01*
G01*
X006200003Y006070916D01*
G01*
X005181846Y007089073D01*
G01*
X005170900Y007075736D01*
G01*
X005079978Y007001118D01*
G01*
X004976246Y006945672D01*
G01*
X004863690Y006911529D01*
G01*
X004746636Y006900000D01*
G01*
X004629582Y006911529D01*
G01*
X004517026Y006945672D01*
G01*
X004413294Y007001118D01*
G01*
X004322372Y007075736D01*
G01*
X004247754Y007166658D01*
G01*
X004192308Y007270390D01*
G01*
X004158165Y007382946D01*
G01*
X004146636Y007500000D01*
G01*
X004158165Y007617054D01*
G01*
X004192308Y007729610D01*
G01*
X004247754Y007833342D01*
G01*
X004322372Y007924264D01*
G01*
X004371636Y007964694D01*
G01*
X004371636Y008267997D01*
G01*
X004043398Y008267997D01*
G01*
X004043398Y009253042D01*
G01*
X004029610Y009245672D01*
G01*
X003917054Y009211529D01*
G01*
X003800000Y009200000D01*
G01*
X003682946Y009211529D01*
G01*
X003570390Y009245672D01*
G01*
X003466658Y009301118D01*
G01*
X003449057Y009315563D01*
G01*
X003444288Y009306642D01*
G01*
X003369671Y009215720D01*
G01*
X003278749Y009141102D01*
G01*
X003175017Y009085656D01*
G01*
X003062461Y009051512D01*
G01*
X002945407Y009039984D01*
G01*
X002828352Y009051512D01*
G01*
X002715797Y009085656D01*
G01*
X002612065Y009141102D01*
G01*
X002521143Y009215720D01*
G01*
X002493270Y009249683D01*
G01*
X001575125Y009249683D01*
G01*
X001501966Y009256888D01*
G01*
X001431618Y009278228D01*
G01*
X001390187Y009300373D01*
G01*
X001388471Y009282946D01*
G01*
X001378477Y009249999D01*
G01*
X001499975Y009249999D01*
G01*
X001499975Y007750001D01*
G01*
X000616715Y007750001D01*
G01*
X000615973Y007613762D01*
G01*
X000614399Y007324747D01*
G01*
X000612825Y007035731D01*
G01*
X000611251Y006746715D01*
G01*
X000611017Y006746716D01*
G01*
X000602611Y006661375D01*
G01*
X000577004Y006576958D01*
G01*
X000555472Y006536675D01*
G01*
X000557377Y006535648D01*
G01*
X000511142Y006449873D01*
G01*
X001349985Y006449873D01*
G01*
X001349985Y006374879D01*
G01*
X001835258Y006374941D01*
G01*
X001875736Y006424264D01*
G01*
X001966658Y006498882D01*
G01*
X002070390Y006554328D01*
G01*
X002182946Y006588471D01*
G01*
X002300000Y006600000D01*
G01*
X002417054Y006588471D01*
G01*
X002529610Y006554328D01*
G01*
X002633342Y006498882D01*
G01*
X002724264Y006424264D01*
G01*
X002764694Y006375000D01*
G01*
X003246636Y006375000D01*
G01*
X003319795Y006367794D01*
G01*
X003390142Y006346455D01*
G01*
X003454975Y006311801D01*
G01*
X003511801Y006265165D01*
G01*
X003544963Y006232003D01*
G01*
X004449874Y006232003D01*
G01*
X004449874Y004767997D01*
G01*
X003043398Y004767997D01*
G01*
X003043398Y005625000D01*
G01*
X002764694Y005625000D01*
G01*
X002724264Y005575736D01*
G01*
X002633342Y005501118D01*
G01*
X002529610Y005445672D01*
G01*
X002417054Y005411529D01*
G01*
X002300000Y005400000D01*
G01*
X002182946Y005411529D01*
G01*
X002070390Y005445672D01*
G01*
X001966658Y005501118D01*
G01*
X001875736Y005575736D01*
G01*
X001835354Y005624941D01*
G01*
X001705406Y005624924D01*
G01*
X001936577Y005393753D01*
G01*
X002000000Y005400000D01*
G01*
X002117054Y005388471D01*
G01*
X002229610Y005354328D01*
G01*
X002333342Y005298882D01*
G01*
X002424264Y005224264D01*
G01*
X002498882Y005133342D01*
G01*
X002554328Y005029610D01*
G01*
X002588471Y004917054D01*
G01*
X002600000Y004800000D01*
G01*
X002588471Y004682946D01*
G01*
X002554328Y004570390D01*
G01*
X002498882Y004466658D01*
G01*
X002424264Y004375736D01*
G01*
X002393405Y004350410D01*
G01*
X002469683Y004348740D01*
G01*
X002757656Y004342434D01*
G01*
X003045629Y004336128D01*
G01*
X003333602Y004329822D01*
G01*
X003621575Y004323516D01*
G01*
X003909547Y004317210D01*
G01*
X004197520Y004310904D01*
G01*
X004485493Y004304598D01*
G01*
X004773466Y004298292D01*
G01*
X005061439Y004291986D01*
G01*
X005349412Y004285680D01*
G01*
X005637385Y004279374D01*
G01*
X005925357Y004273068D01*
G01*
X006015372Y004271097D01*
G01*
X006071332Y004329545D01*
G37*
D23*
G36*
X-08800046Y-17575049D02*
G01*
X-06781992Y-17575049D01*
G01*
X004784876Y-06113462D01*
G01*
X004728390Y-06096328D01*
G01*
X004624658Y-06040882D01*
G01*
X004533736Y-05966264D01*
G01*
X004506599Y-05933197D01*
G01*
X003222136Y-05933197D01*
G01*
X-06700049Y-15855383D01*
G01*
X-06700049Y-17175051D01*
G01*
X-08800046Y-17175051D01*
G01*
X-08800046Y-15575053D01*
G01*
X-07480379Y-15575053D01*
G01*
X-07080381Y-15175055D01*
G01*
X-08800046Y-15175055D01*
G01*
X-08800046Y-13575057D01*
G01*
X-06700049Y-13575057D01*
G01*
X-06700049Y-14794723D01*
G01*
X002801641Y-05293032D01*
G01*
X002858468Y-05246396D01*
G01*
X002923300Y-05211743D01*
G01*
X002993648Y-05190403D01*
G01*
X003066806Y-05183197D01*
G01*
X004480013Y-05183197D01*
G01*
X004533736Y-05117736D01*
G01*
X004624658Y-05043118D01*
G01*
X004728390Y-04987672D01*
G01*
X004840946Y-04953529D01*
G01*
X004958000Y-04942000D01*
G01*
X005075054Y-04953529D01*
G01*
X005187610Y-04987672D01*
G01*
X005291342Y-05043118D01*
G01*
X005382264Y-05117736D01*
G01*
X005456882Y-05208658D01*
G01*
X005512328Y-05312390D01*
G01*
X005531043Y-05374086D01*
G01*
X006249317Y-04662350D01*
G01*
X006268468Y-01322329D01*
G01*
X006268674Y-01322330D01*
G01*
X006275667Y-01251320D01*
G01*
X006297007Y-01180973D01*
G01*
X006331661Y-01116140D01*
G01*
X006378297Y-01059314D01*
G01*
X009707379Y002269768D01*
G01*
X009717875Y002376331D01*
G01*
X009752019Y002488887D01*
G01*
X009807465Y002592619D01*
G01*
X009882082Y002683541D01*
G01*
X009973004Y002758159D01*
G01*
X010076736Y002813604D01*
G01*
X010189292Y002847748D01*
G01*
X010306346Y002859277D01*
G01*
X010423401Y002847748D01*
G01*
X010535957Y002813604D01*
G01*
X010639689Y002758159D01*
G01*
X010730611Y002683541D01*
G01*
X010805228Y002592619D01*
G01*
X010860674Y002488887D01*
G01*
X010894818Y002376331D01*
G01*
X010906346Y002259277D01*
G01*
X010894818Y002142223D01*
G01*
X010860674Y002029667D01*
G01*
X010805228Y001925935D01*
G01*
X010730611Y001835013D01*
G01*
X010639689Y001760395D01*
G01*
X010535957Y001704949D01*
G01*
X010423401Y001670806D01*
G01*
X010306346Y001659277D01*
G01*
X010189292Y001670806D01*
G01*
X010173782Y001675511D01*
G01*
X007017573Y-01480698D01*
G01*
X007005564Y-03575077D01*
G01*
X007375048Y-03575077D01*
G01*
X007375048Y-02237852D01*
G01*
X007382254Y-02164693D01*
G01*
X007403593Y-02094346D01*
G01*
X007438247Y-02029513D01*
G01*
X007484883Y-01972687D01*
G01*
X011129914Y001672344D01*
G01*
X011120000Y001773000D01*
G01*
X011131529Y001890054D01*
G01*
X011165672Y002002610D01*
G01*
X011221118Y002106342D01*
G01*
X011295736Y002197264D01*
G01*
X011386658Y002271882D01*
G01*
X011490390Y002327328D01*
G01*
X011602946Y002361471D01*
G01*
X011720000Y002373000D01*
G01*
X011837054Y002361471D01*
G01*
X011949610Y002327328D01*
G01*
X012053342Y002271882D01*
G01*
X012144264Y002197264D01*
G01*
X012218882Y002106342D01*
G01*
X012274328Y002002610D01*
G01*
X012308471Y001890054D01*
G01*
X012320000Y001773000D01*
G01*
X012308471Y001655946D01*
G01*
X012274328Y001543390D01*
G01*
X012218882Y001439658D01*
G01*
X012144264Y001348736D01*
G01*
X012053342Y001274118D01*
G01*
X011949610Y001218672D01*
G01*
X011837054Y001184529D01*
G01*
X011720000Y001173000D01*
G01*
X011693810Y001175579D01*
G01*
X008125048Y-02393182D01*
G01*
X008125048Y-03575077D01*
G01*
X008800047Y-03575077D01*
G01*
X008800047Y-04373800D01*
G01*
X013587341Y000458890D01*
G01*
X013587109Y004146288D01*
G01*
X013543957Y004227019D01*
G01*
X013509813Y004339575D01*
G01*
X013498285Y004456629D01*
G01*
X013509813Y004573683D01*
G01*
X013521376Y004611800D01*
G01*
X012933756Y004604243D01*
G01*
X012837509Y004512499D01*
G01*
X012935516Y004502846D01*
G01*
X013048072Y004468702D01*
G01*
X013151804Y004413256D01*
G01*
X013242726Y004338639D01*
G01*
X013317343Y004247717D01*
G01*
X013372789Y004143985D01*
G01*
X013406933Y004031429D01*
G01*
X013418462Y003914375D01*
G01*
X013406933Y003797320D01*
G01*
X013372789Y003684765D01*
G01*
X013317343Y003581033D01*
G01*
X013242726Y003490111D01*
G01*
X013151804Y003415493D01*
G01*
X013048072Y003360047D01*
G01*
X012935516Y003325904D01*
G01*
X012818462Y003314375D01*
G01*
X012780582Y003318106D01*
G01*
X012445203Y002982727D01*
G01*
X012388377Y002936091D01*
G01*
X012323545Y002901437D01*
G01*
X012253197Y002880098D01*
G01*
X012202294Y002875084D01*
G01*
X012202385Y002873558D01*
G01*
X010737014Y002786080D01*
G01*
X010736923Y002787605D01*
G01*
X010714667Y002785413D01*
G01*
X010641508Y002792619D01*
G01*
X010571161Y002813958D01*
G01*
X010506328Y002848612D01*
G01*
X010449502Y002895248D01*
G01*
X010437954Y002909320D01*
G01*
X010436958Y002908416D01*
G01*
X009060761Y004425034D01*
G01*
X008905322Y004425034D01*
G01*
X003650957Y-00829331D01*
G01*
X003594131Y-00875967D01*
G01*
X003529299Y-00910620D01*
G01*
X003458951Y-00931960D01*
G01*
X003385792Y-00939166D01*
G01*
X002575744Y-00939166D01*
G01*
X002449166Y-00939166D01*
G01*
X002376007Y-00931960D01*
G01*
X002305659Y-00910620D01*
G01*
X002240827Y-00875967D01*
G01*
X002184001Y-00829331D01*
G01*
X002092423Y-00737753D01*
G01*
X002029000Y-00744000D01*
G01*
X001911946Y-00732471D01*
G01*
X001799390Y-00698328D01*
G01*
X001695658Y-00642882D01*
G01*
X001604736Y-00568264D01*
G01*
X001530118Y-00477342D01*
G01*
X001509763Y-00439260D01*
G01*
X000511053Y-01443619D01*
G01*
X000510980Y-01443546D01*
G01*
X000510306Y-01444367D01*
G01*
X000453480Y-01491003D01*
G01*
X000388647Y-01525657D01*
G01*
X000318300Y-01546997D01*
G01*
X000245769Y-01554140D01*
G01*
X000245769Y-01554202D01*
G01*
X-03031266Y-01559685D01*
G01*
X-03031266Y-01559623D01*
G01*
X-03031894Y-01559685D01*
G01*
X-03105052Y-01552480D01*
G01*
X-03175400Y-01531140D01*
G01*
X-03240232Y-01496486D01*
G01*
X-03297059Y-01449850D01*
G01*
X-05121903Y000374994D01*
G01*
X-05799997Y000374994D01*
G01*
X-05799997Y001040397D01*
G01*
X-05829843Y001031343D01*
G01*
X-05946897Y001019815D01*
G01*
X-06063951Y001031343D01*
G01*
X-06176507Y001065487D01*
G01*
X-06280239Y001120933D01*
G01*
X-06371161Y001195550D01*
G01*
X-06445779Y001286472D01*
G01*
X-06501225Y001390204D01*
G01*
X-06535368Y001502760D01*
G01*
X-06544943Y001599977D01*
G01*
X-06550000Y001599977D01*
G01*
X-06550000Y-01500000D01*
G01*
X-06558647Y-01587791D01*
G01*
X-06584254Y-01672208D01*
G01*
X-06625839Y-01750007D01*
G01*
X-06681802Y-01818198D01*
G01*
X-06749993Y-01874161D01*
G01*
X-06827792Y-01915746D01*
G01*
X-06912209Y-01941353D01*
G01*
X-07000000Y-01950000D01*
G01*
X-10999998Y-01950000D01*
G01*
X-11087789Y-01941353D01*
G01*
X-11172206Y-01915746D01*
G01*
X-11250005Y-01874161D01*
G01*
X-11318196Y-01818198D01*
G01*
X-11374159Y-01750007D01*
G01*
X-11415744Y-01672208D01*
G01*
X-11441351Y-01587791D01*
G01*
X-11449998Y-01500000D01*
G01*
X-11449998Y-01227815D01*
G01*
X-11611086Y-01388903D01*
G01*
X-11611091Y-01388909D01*
G01*
X-11694436Y-01457308D01*
G01*
X-11789524Y-01508134D01*
G01*
X-11892700Y-01539432D01*
G01*
X-11995000Y-01549508D01*
G01*
X-11995000Y-01975005D01*
G01*
X-14005004Y-01975005D01*
G01*
X-14005004Y-00491517D01*
G01*
X-15232256Y-00271185D01*
G01*
X-15232124Y-00270448D01*
G01*
X-15240528Y-00269620D01*
G01*
X-15324945Y-00244013D01*
G01*
X-15402744Y-00202428D01*
G01*
X-15470935Y-00146465D01*
G01*
X-15526899Y-00078273D01*
G01*
X-15540293Y-00053215D01*
G01*
X-15541929Y-00054165D01*
G01*
X-15625000Y000088954D01*
G01*
X-15625000Y-02935306D01*
G01*
X-15575736Y-02975736D01*
G01*
X-15501118Y-03066658D01*
G01*
X-15445672Y-03170390D01*
G01*
X-15411529Y-03282946D01*
G01*
X-15400000Y-03400000D01*
G01*
X-15411529Y-03517054D01*
G01*
X-15445672Y-03629610D01*
G01*
X-15501118Y-03733342D01*
G01*
X-15575736Y-03824264D01*
G01*
X-15666658Y-03898882D01*
G01*
X-15770390Y-03954328D01*
G01*
X-15882946Y-03988471D01*
G01*
X-16000000Y-04000000D01*
G01*
X-16117054Y-03988471D01*
G01*
X-16229610Y-03954328D01*
G01*
X-16333342Y-03898882D01*
G01*
X-16424264Y-03824264D01*
G01*
X-16498882Y-03733342D01*
G01*
X-16554328Y-03629610D01*
G01*
X-16588471Y-03517054D01*
G01*
X-16600000Y-03400000D01*
G01*
X-16588471Y-03282946D01*
G01*
X-16554328Y-03170390D01*
G01*
X-16498882Y-03066658D01*
G01*
X-16424264Y-02975736D01*
G01*
X-16375000Y-02935306D01*
G01*
X-16375000Y000324954D01*
G01*
X-17800001Y000324954D01*
G01*
X-17800001Y000660861D01*
G01*
X-17977527Y000476580D01*
G01*
X-18176145Y000270404D01*
G01*
X-18199999Y000245642D01*
G01*
X-18199999Y-00625006D01*
G01*
X-19799997Y-00625006D01*
G01*
X-19799997Y000625006D01*
G01*
X-19449998Y000625006D01*
G01*
X-19449998Y002700002D01*
G01*
X-19441351Y002787793D01*
G01*
X-19415744Y002872210D01*
G01*
X-19400023Y002901622D01*
G01*
X-19400023Y003119515D01*
G01*
X-19422389Y003193245D01*
G01*
X-19430426Y003274852D01*
G01*
X-19430993Y003274844D01*
G01*
X-19433328Y003444576D01*
G01*
X-19435664Y003614308D01*
G01*
X-19435097Y003614316D01*
G01*
X-19435706Y003620500D01*
G01*
X-19427059Y003708290D01*
G01*
X-19401452Y003792707D01*
G01*
X-19359867Y003870506D01*
G01*
X-19323851Y003914392D01*
G01*
X-19325351Y003915696D01*
G01*
X-19175540Y004088065D01*
G01*
X-18571025Y005034569D01*
G01*
X-18568354Y005199406D01*
G01*
X-18563617Y005491721D01*
G01*
X-18558880Y005784037D01*
G01*
X-18554143Y006076352D01*
G01*
X-18549406Y006368667D01*
G01*
X-18544670Y006660983D01*
G01*
X-18539933Y006953298D01*
G01*
X-18539275Y006953287D01*
G01*
X-18532906Y007017955D01*
G01*
X-18534170Y007018160D01*
G01*
X-18452657Y007519954D01*
G01*
X-18515111Y008374795D01*
G01*
X-18513092Y008374942D01*
G01*
X-18516307Y008407585D01*
G01*
X-18515590Y008414865D01*
G01*
X-18516248Y008414876D01*
G01*
X-18511511Y008707191D01*
G01*
X-18506775Y008999507D01*
G01*
X-18502038Y009291822D01*
G01*
X-18497301Y009584138D01*
G01*
X-18492564Y009876453D01*
G01*
X-18487827Y010168768D01*
G01*
X-18483090Y010461084D01*
G01*
X-18478353Y010753399D01*
G01*
X-18473617Y011045715D01*
G01*
X-18468880Y011338030D01*
G01*
X-18464143Y011630346D01*
G01*
X-18459773Y011900002D01*
G01*
X-19074996Y011900002D01*
G01*
X-19074996Y013100000D01*
G01*
X-16924986Y013100000D01*
G01*
X-16924986Y011900002D01*
G01*
X-17559655Y011900002D01*
G01*
X-17564261Y011615763D01*
G01*
X-17568998Y011323448D01*
G01*
X-17573735Y011031133D01*
G01*
X-17578472Y010738817D01*
G01*
X-17583208Y010446502D01*
G01*
X-17587945Y010154186D01*
G01*
X-17592682Y009861871D01*
G01*
X-17597419Y009569555D01*
G01*
X-17602156Y009277240D01*
G01*
X-17606893Y008984924D01*
G01*
X-17611630Y008692609D01*
G01*
X-17616041Y008420350D01*
G01*
X-17551196Y007532789D01*
G01*
X-17553215Y007532641D01*
G01*
X-17550000Y007500000D01*
G01*
X-17557086Y007428052D01*
G01*
X-17555822Y007427847D01*
G01*
X-17640580Y006906075D01*
G01*
X-17644788Y006646401D01*
G01*
X-17649525Y006354085D01*
G01*
X-17654261Y006061770D01*
G01*
X-17658998Y005769454D01*
G01*
X-17663735Y005477139D01*
G01*
X-17668472Y005184823D01*
G01*
X-17673209Y004892508D01*
G01*
X-17673867Y004892519D01*
G01*
X-17681796Y004812008D01*
G01*
X-17707404Y004727592D01*
G01*
X-17744590Y004658019D01*
G01*
X-17743901Y004657579D01*
G01*
X-18323557Y003749999D01*
G01*
X-18000025Y003749999D01*
G01*
X-18000025Y002250001D01*
G01*
X-18549998Y002250001D01*
G01*
X-18549998Y001179559D01*
G01*
X-18427074Y001307161D01*
G01*
X-18294434Y001444849D01*
G01*
X-18272688Y001504387D01*
G01*
X-18271305Y001503882D01*
G01*
X-18265746Y001522208D01*
G01*
X-18224161Y001600007D01*
G01*
X-18168198Y001668198D01*
G01*
X-17868198Y001968198D01*
G01*
X-17800007Y002024161D01*
G01*
X-17722208Y002065746D01*
G01*
X-17637791Y002091353D01*
G01*
X-17550000Y002100000D01*
G01*
X-17526779Y002097713D01*
G01*
X-17526692Y002099396D01*
G01*
X-17217766Y002083374D01*
G01*
X-16951679Y002100775D01*
G01*
X-16659267Y002119899D01*
G01*
X-16366854Y002139022D01*
G01*
X-16074442Y002158146D01*
G01*
X-16074316Y002156225D01*
G01*
X-16045075Y002159105D01*
G01*
X-15957285Y002150458D01*
G01*
X-15872868Y002124851D01*
G01*
X-15795069Y002083266D01*
G01*
X-15726877Y002027303D01*
G01*
X-15670914Y001959112D01*
G01*
X-15660005Y001938703D01*
G01*
X-15660005Y002599989D01*
G01*
X-12455096Y002599989D01*
G01*
X-12291261Y002774040D01*
G01*
X-12290529Y002773351D01*
G01*
X-12282843Y002782717D01*
G01*
X-12222228Y002832462D01*
G01*
X-12153073Y002869426D01*
G01*
X-12078036Y002892188D01*
G01*
X-12000000Y002899874D01*
G01*
X-11789977Y002899874D01*
G01*
X-11789977Y002939879D01*
G01*
X-10524979Y002939879D01*
G01*
X-10524979Y002059869D01*
G01*
X-10524979Y001559997D01*
G01*
X-10757478Y001559997D01*
G01*
X-10757478Y001520943D01*
G01*
X-10700162Y000975005D01*
G01*
X-09994996Y000975005D01*
G01*
X-09994996Y-00370774D01*
G01*
X-09921695Y-00444307D01*
G01*
X-09844683Y-00521562D01*
G01*
X-08501450Y-00661947D01*
G01*
X-08338891Y-00565496D01*
G01*
X-08338013Y-00566976D01*
G01*
X-08281478Y-00536758D01*
G01*
X-08197061Y-00511150D01*
G01*
X-08109271Y-00502504D01*
G01*
X-07831953Y-00502504D01*
G01*
X-07554635Y-00502504D01*
G01*
X-07450000Y-00502504D01*
G01*
X-07450000Y000607095D01*
G01*
X-07475736Y000575736D01*
G01*
X-07566658Y000501118D01*
G01*
X-07670390Y000445672D01*
G01*
X-07782946Y000411529D01*
G01*
X-07900000Y000400000D01*
G01*
X-08017054Y000411529D01*
G01*
X-08129610Y000445672D01*
G01*
X-08233342Y000501118D01*
G01*
X-08324264Y000575736D01*
G01*
X-08398882Y000666658D01*
G01*
X-08454328Y000770390D01*
G01*
X-08488471Y000882946D01*
G01*
X-08500000Y001000000D01*
G01*
X-08491988Y001081350D01*
G01*
X-08943122Y001559997D01*
G01*
X-09475021Y001559997D01*
G01*
X-09475021Y002440007D01*
G01*
X-08210023Y002440007D01*
G01*
X-08210023Y001875670D01*
G01*
X-07945934Y001595476D01*
G01*
X-07900000Y001600000D01*
G01*
X-07782946Y001588471D01*
G01*
X-07670390Y001554328D01*
G01*
X-07566658Y001498882D01*
G01*
X-07475736Y001424264D01*
G01*
X-07450000Y001392905D01*
G01*
X-07450000Y001599977D01*
G01*
X-07749999Y001599977D01*
G01*
X-07749999Y002336726D01*
G01*
X-08126092Y002600000D01*
G01*
X-08210023Y002600000D01*
G01*
X-08210023Y002559995D01*
G01*
X-09475021Y002559995D01*
G01*
X-09475021Y003440005D01*
G01*
X-08210023Y003440005D01*
G01*
X-08210023Y003400000D01*
G01*
X-08000000Y003400000D01*
G01*
X-07921964Y003392314D01*
G01*
X-07846927Y003369552D01*
G01*
X-07777772Y003332588D01*
G01*
X-07771045Y003327067D01*
G01*
X-07770610Y003327689D01*
G01*
X-07302463Y002999975D01*
G01*
X-06937898Y002999975D01*
G01*
X-06750557Y003188056D01*
G01*
X-06561134Y003378226D01*
G01*
X-06371712Y003568396D01*
G01*
X-06316373Y003623953D01*
G01*
X-06317911Y003722624D01*
G01*
X-06322412Y004011269D01*
G01*
X-06326912Y004299914D01*
G01*
X-06331413Y004588559D01*
G01*
X-06335914Y004877205D01*
G01*
X-06339748Y005123140D01*
G01*
X-06440589Y005608452D01*
G01*
X-06440236Y005608525D01*
G01*
X-06441353Y005612209D01*
G01*
X-06450000Y005700000D01*
G01*
X-06450000Y006600000D01*
G01*
X-06441353Y006687791D01*
G01*
X-06415746Y006772208D01*
G01*
X-06374161Y006850007D01*
G01*
X-06318198Y006918198D01*
G01*
X-06250007Y006974161D01*
G01*
X-06247287Y006975615D01*
G01*
X-06247448Y006975859D01*
G01*
X-05650300Y007368993D01*
G01*
X-05495800Y007509036D01*
G01*
X-05315558Y007672414D01*
G01*
X-05314466Y007671209D01*
G01*
X-05263347Y007713162D01*
G01*
X-05185548Y007754747D01*
G01*
X-05101131Y007780354D01*
G01*
X-05013340Y007789001D01*
G01*
X-05012012Y007788870D01*
G01*
X-05012012Y007788999D01*
G01*
X-04730259Y007788168D01*
G01*
X-04448505Y007787336D01*
G01*
X-04277164Y007786831D01*
G01*
X-04247264Y007823264D01*
G01*
X-04156342Y007897882D01*
G01*
X-04052610Y007953328D01*
G01*
X-03940054Y007987471D01*
G01*
X-03823000Y007999000D01*
G01*
X-03705946Y007987471D01*
G01*
X-03593390Y007953328D01*
G01*
X-03489658Y007897882D01*
G01*
X-03398736Y007823264D01*
G01*
X-03383285Y007804437D01*
G01*
X-03376925Y009336886D01*
G01*
X-03424264Y009375736D01*
G01*
X-03498882Y009466658D01*
G01*
X-03554328Y009570390D01*
G01*
X-03588471Y009682946D01*
G01*
X-03600000Y009800000D01*
G01*
X-03588471Y009917054D01*
G01*
X-03554328Y010029610D01*
G01*
X-03498882Y010133342D01*
G01*
X-03424264Y010224264D01*
G01*
X-03333342Y010298882D01*
G01*
X-03229610Y010354328D01*
G01*
X-03117054Y010388471D01*
G01*
X-03000000Y010400000D01*
G01*
X-02882946Y010388471D01*
G01*
X-02770390Y010354328D01*
G01*
X-02666658Y010298882D01*
G01*
X-02595912Y010240822D01*
G01*
X-02588404Y010317054D01*
G01*
X-02554260Y010429610D01*
G01*
X-02498814Y010533342D01*
G01*
X-02424197Y010624264D01*
G01*
X-02333275Y010698882D01*
G01*
X-02229543Y010754328D01*
G01*
X-02116987Y010788471D01*
G01*
X-01999932Y010800000D01*
G01*
X-01882878Y010788471D01*
G01*
X-01880437Y010787730D01*
G01*
X-01174973Y011375637D01*
G01*
X-01174973Y011399965D01*
G01*
X-01199973Y011399965D01*
G01*
X-01199973Y011784869D01*
G01*
X-01228914Y011761118D01*
G01*
X-01332646Y011705672D01*
G01*
X-01445202Y011671529D01*
G01*
X-01562256Y011660000D01*
G01*
X-01650796Y011668721D01*
G01*
X-02676660Y010724132D01*
G01*
X-02677473Y010725015D01*
G01*
X-02722333Y010688199D01*
G01*
X-02787166Y010653545D01*
G01*
X-02857513Y010632206D01*
G01*
X-02930672Y010625000D01*
G01*
X-03599977Y010625000D01*
G01*
X-03599977Y010250001D01*
G01*
X-04999975Y010250001D01*
G01*
X-04999975Y011749999D01*
G01*
X-03599977Y011749999D01*
G01*
X-03599977Y011375000D01*
G01*
X-03077022Y011375000D01*
G01*
X-02158399Y012220843D01*
G01*
X-02162256Y012260000D01*
G01*
X-02150727Y012377054D01*
G01*
X-02116584Y012489610D01*
G01*
X-02061138Y012593342D01*
G01*
X-01986520Y012684264D01*
G01*
X-01895598Y012758882D01*
G01*
X-01791866Y012814328D01*
G01*
X-01679310Y012848471D01*
G01*
X-01562256Y012860000D01*
G01*
X-01445202Y012848471D01*
G01*
X-01332646Y012814328D01*
G01*
X-01228914Y012758882D01*
G01*
X-01137992Y012684264D01*
G01*
X-01063374Y012593342D01*
G01*
X-01013462Y012499964D01*
G01*
X-00799923Y012499964D01*
G01*
X-00799923Y012500218D01*
G01*
X-00400127Y012500218D01*
G01*
X-00000077Y012500218D01*
G01*
X000799923Y012500218D01*
G01*
X000799923Y011400219D01*
G01*
X000774923Y011400219D01*
G01*
X000774923Y011303852D01*
G01*
X001082035Y010791901D01*
G01*
X001116862Y010788471D01*
G01*
X001229418Y010754328D01*
G01*
X001333150Y010698882D01*
G01*
X001424072Y010624264D01*
G01*
X001498689Y010533342D01*
G01*
X001554135Y010429610D01*
G01*
X001588279Y010317054D01*
G01*
X001599807Y010200000D01*
G01*
X001593561Y010136577D01*
G01*
X001730455Y009999683D01*
G01*
X002468156Y009999683D01*
G01*
X002521143Y010064248D01*
G01*
X002612065Y010138865D01*
G01*
X002715797Y010194311D01*
G01*
X002828352Y010228455D01*
G01*
X002945407Y010239984D01*
G01*
X003062461Y010228455D01*
G01*
X003175017Y010194311D01*
G01*
X003278749Y010138865D01*
G01*
X003296350Y010124421D01*
G01*
X003301118Y010133342D01*
G01*
X003375736Y010224264D01*
G01*
X003424993Y010264689D01*
G01*
X003424987Y010750001D01*
G01*
X003099977Y010750001D01*
G01*
X003099977Y012249999D01*
G01*
X004499975Y012249999D01*
G01*
X004499975Y010750001D01*
G01*
X004174987Y010750001D01*
G01*
X004174993Y010264699D01*
G01*
X004224264Y010224264D01*
G01*
X004275215Y010162181D01*
G01*
X004286529Y010277054D01*
G01*
X004320672Y010389610D01*
G01*
X004376118Y010493342D01*
G01*
X004450736Y010584264D01*
G01*
X004541658Y010658882D01*
G01*
X004645390Y010714328D01*
G01*
X004757946Y010748471D01*
G01*
X004875000Y010760000D01*
G01*
X004992054Y010748471D01*
G01*
X005104610Y010714328D01*
G01*
X005200396Y010663129D01*
G01*
X005468845Y010752237D01*
G01*
X006543398Y011827005D01*
G01*
X006543398Y012732003D01*
G01*
X007949874Y012732003D01*
G01*
X007949874Y011267997D01*
G01*
X007045071Y011267997D01*
G01*
X005936526Y010159196D01*
G01*
X005936523Y010159199D01*
G01*
X005936495Y010159165D01*
G01*
X005936218Y010158938D01*
G01*
X005797187Y010019879D01*
G01*
X005797187Y007534392D01*
G01*
X006706573Y006625006D01*
G01*
X007287777Y006625006D01*
G01*
X007285752Y006899047D01*
G01*
X007283574Y007193795D01*
G01*
X007281395Y007488543D01*
G01*
X007279217Y007783291D01*
G01*
X007277039Y008078039D01*
G01*
X007274860Y008372788D01*
G01*
X007272682Y008667536D01*
G01*
X007270504Y008962284D01*
G01*
X007270818Y008962286D01*
G01*
X007270491Y008965609D01*
G01*
X007279138Y009053400D01*
G01*
X007304746Y009137817D01*
G01*
X007346330Y009215616D01*
G01*
X007401146Y009282409D01*
G01*
X007401023Y009282531D01*
G01*
X007606251Y009489410D01*
G01*
X007811480Y009696288D01*
G01*
X008016709Y009903166D01*
G01*
X008043398Y009930069D01*
G01*
X008043398Y010732003D01*
G01*
X008296636Y010732003D01*
G01*
X008296636Y011267997D01*
G01*
X008050126Y011267997D01*
G01*
X008050126Y012732003D01*
G01*
X009323067Y012732003D01*
G01*
X012619807Y016138751D01*
G01*
X012620206Y016138365D01*
G01*
X012624122Y016143137D01*
G01*
X012680948Y016189773D01*
G01*
X012745781Y016224427D01*
G01*
X012816128Y016245767D01*
G01*
X012861678Y016250253D01*
G01*
X012299621Y016250253D01*
G01*
X011300131Y016250253D01*
G01*
X011300131Y016249745D01*
G01*
X010100133Y016249745D01*
G01*
X010100133Y018399755D01*
G01*
X010325132Y018399755D01*
G01*
X010325132Y018535306D01*
G01*
X010275868Y018575736D01*
G01*
X010201250Y018666658D01*
G01*
X010145804Y018770390D01*
G01*
X010111661Y018882946D01*
G01*
X010100132Y019000000D01*
G01*
X010111661Y019117054D01*
G01*
X010145804Y019229610D01*
G01*
X010201250Y019333342D01*
G01*
X010275868Y019424264D01*
G01*
X010366790Y019498882D01*
G01*
X010470522Y019554328D01*
G01*
X010583078Y019588471D01*
G01*
X010700132Y019600000D01*
G01*
X010817186Y019588471D01*
G01*
X010929742Y019554328D01*
G01*
X011033474Y019498882D01*
G01*
X011124396Y019424264D01*
G01*
X011199014Y019333342D01*
G01*
X011199877Y019331727D01*
G01*
X011200740Y019333342D01*
G01*
X011275358Y019424264D01*
G01*
X011366280Y019498882D01*
G01*
X011470012Y019554328D01*
G01*
X011582568Y019588471D01*
G01*
X011699622Y019600000D01*
G01*
X011816676Y019588471D01*
G01*
X011929232Y019554328D01*
G01*
X012032964Y019498882D01*
G01*
X012123886Y019424264D01*
G01*
X012198504Y019333342D01*
G01*
X012199621Y019331252D01*
G01*
X012200738Y019333342D01*
G01*
X012275356Y019424264D01*
G01*
X012366278Y019498882D01*
G01*
X012470010Y019554328D01*
G01*
X012582566Y019588471D01*
G01*
X012699620Y019600000D01*
G01*
X012816674Y019588471D01*
G01*
X012929230Y019554328D01*
G01*
X013032962Y019498882D01*
G01*
X013123884Y019424264D01*
G01*
X013198502Y019333342D01*
G01*
X013253948Y019229610D01*
G01*
X013288091Y019117054D01*
G01*
X013299620Y019000000D01*
G01*
X013288091Y018882946D01*
G01*
X013253948Y018770390D01*
G01*
X013198502Y018666658D01*
G01*
X013123884Y018575736D01*
G01*
X013074620Y018535306D01*
G01*
X013074620Y018400263D01*
G01*
X013299619Y018400263D01*
G01*
X013299619Y016250253D01*
G01*
X012916896Y016250253D01*
G01*
X012941317Y016247848D01*
G01*
X012941524Y016249316D01*
G01*
X013334026Y016194102D01*
G01*
X013347118Y016218595D01*
G01*
X013421736Y016309517D01*
G01*
X013512658Y016384135D01*
G01*
X013616390Y016439581D01*
G01*
X013728946Y016473724D01*
G01*
X013846000Y016485253D01*
G01*
X013963054Y016473724D01*
G01*
X014075610Y016439581D01*
G01*
X014099617Y016426749D01*
G01*
X014099617Y018400263D01*
G01*
X014324616Y018400263D01*
G01*
X014324616Y018535306D01*
G01*
X014275352Y018575736D01*
G01*
X014200734Y018666658D01*
G01*
X014145288Y018770390D01*
G01*
X014111145Y018882946D01*
G01*
X014099616Y019000000D01*
G01*
X014111145Y019117054D01*
G01*
X014145288Y019229610D01*
G01*
X014200734Y019333342D01*
G01*
X014275352Y019424264D01*
G01*
X014366274Y019498882D01*
G01*
X014470006Y019554328D01*
G01*
X014582562Y019588471D01*
G01*
X014699616Y019600000D01*
G01*
X014816670Y019588471D01*
G01*
X014929226Y019554328D01*
G01*
X015032958Y019498882D01*
G01*
X015123880Y019424264D01*
G01*
X015198498Y019333342D01*
G01*
X015199615Y019331252D01*
G01*
X015200732Y019333342D01*
G01*
X015275350Y019424264D01*
G01*
X015366272Y019498882D01*
G01*
X015470004Y019554328D01*
G01*
X015582560Y019588471D01*
G01*
X015699614Y019600000D01*
G01*
X015816668Y019588471D01*
G01*
X015929224Y019554328D01*
G01*
X016032956Y019498882D01*
G01*
X016123878Y019424264D01*
G01*
X016198496Y019333342D01*
G01*
X016253942Y019229610D01*
G01*
X016288085Y019117054D01*
G01*
X016299614Y019000000D01*
G01*
X016288085Y018882946D01*
G01*
X016253942Y018770390D01*
G01*
X016198496Y018666658D01*
G01*
X016123878Y018575736D01*
G01*
X016075000Y018535623D01*
G01*
X016075000Y018400263D01*
G01*
X016299613Y018400263D01*
G01*
X016299613Y016250253D01*
G01*
X015974536Y016250253D01*
G01*
X015967349Y016241496D01*
G01*
X015967578Y016241271D01*
G01*
X015619212Y015886476D01*
G01*
X015626000Y015817561D01*
G01*
X015614471Y015700506D01*
G01*
X015580328Y015587950D01*
G01*
X015524882Y015484218D01*
G01*
X015450264Y015393296D01*
G01*
X015359342Y015318679D01*
G01*
X015255610Y015263233D01*
G01*
X015143054Y015229089D01*
G01*
X015026000Y015217561D01*
G01*
X014908946Y015229089D01*
G01*
X014796390Y015263233D01*
G01*
X014692658Y015318679D01*
G01*
X014601736Y015393296D01*
G01*
X014527118Y015484218D01*
G01*
X014471672Y015587950D01*
G01*
X014437529Y015700506D01*
G01*
X014431746Y015759217D01*
G01*
X014400328Y015655643D01*
G01*
X014344882Y015551911D01*
G01*
X014270264Y015460989D01*
G01*
X014179342Y015386371D01*
G01*
X014075610Y015330925D01*
G01*
X013963054Y015296782D01*
G01*
X013846000Y015285253D01*
G01*
X013728946Y015296782D01*
G01*
X013616390Y015330925D01*
G01*
X013529924Y015377142D01*
G01*
X013547392Y015344462D01*
G01*
X013581536Y015231906D01*
G01*
X013593065Y015114851D01*
G01*
X013581536Y014997797D01*
G01*
X013547392Y014885241D01*
G01*
X013491946Y014781509D01*
G01*
X013417329Y014690587D01*
G01*
X013326407Y014615970D01*
G01*
X013222675Y014560524D01*
G01*
X013190092Y014550640D01*
G01*
X013190092Y009229996D01*
G01*
X013730090Y009229996D01*
G01*
X013730090Y007615281D01*
G01*
X014261767Y007083563D01*
G01*
X014261773Y007083558D01*
G01*
X014261778Y007083552D01*
G01*
X014261783Y007083547D01*
G01*
X014261782Y007083546D01*
G01*
X014308409Y007026731D01*
G01*
X014343062Y006961899D01*
G01*
X014364402Y006891551D01*
G01*
X014371608Y006818392D01*
G01*
X014371608Y006252920D01*
G01*
X014420872Y006212490D01*
G01*
X014495489Y006121568D01*
G01*
X014550935Y006017836D01*
G01*
X014585079Y005905280D01*
G01*
X014596608Y005788226D01*
G01*
X014585079Y005671171D01*
G01*
X014550935Y005558615D01*
G01*
X014495489Y005454883D01*
G01*
X014428726Y005373531D01*
G01*
X018443978Y005425170D01*
G01*
X018443978Y006350061D01*
G01*
X020567978Y006350061D01*
G01*
X020567978Y005150063D01*
G01*
X019450866Y005150063D01*
G01*
X019112048Y004795984D01*
G01*
X019111527Y004796483D01*
G01*
X019106273Y004790081D01*
G01*
X019049447Y004743445D01*
G01*
X018984614Y004708791D01*
G01*
X018914267Y004687452D01*
G01*
X018845925Y004680720D01*
G01*
X018845931Y004680277D01*
G01*
X014670709Y004626581D01*
G01*
X014686756Y004573683D01*
G01*
X014698285Y004456629D01*
G01*
X014686756Y004339575D01*
G01*
X014652612Y004227019D01*
G01*
X014597166Y004123287D01*
G01*
X014522549Y004032365D01*
G01*
X014431627Y003957747D01*
G01*
X014337124Y003907234D01*
G01*
X014337351Y000304629D01*
G01*
X014337349Y000304629D01*
G01*
X014337351Y000304605D01*
G01*
X014330145Y000231446D01*
G01*
X014308806Y000161099D01*
G01*
X014274152Y000096266D01*
G01*
X014228643Y000040814D01*
G01*
X014228764Y000040694D01*
G01*
X010150058Y-04076688D01*
G01*
X016243653Y-04063000D01*
G01*
X016900094Y-03395548D01*
G01*
X016900094Y-01770004D01*
G01*
X018730090Y-01770004D01*
G01*
X018730090Y-04229996D01*
G01*
X017131360Y-04229996D01*
G01*
X016668521Y-04700598D01*
G01*
X016668311Y-04700392D01*
G01*
X016666325Y-04702812D01*
G01*
X016609499Y-04749448D01*
G01*
X016544666Y-04784102D01*
G01*
X016474319Y-04805441D01*
G01*
X016402002Y-04812564D01*
G01*
X016402002Y-04812646D01*
G01*
X012975005Y-04820344D01*
G01*
X012975005Y-06424977D01*
G01*
X020100041Y-06424933D01*
G01*
X020100041Y-06199928D01*
G01*
X021900039Y-06199928D01*
G01*
X021900039Y-07141226D01*
G01*
X021938885Y-07109346D01*
G01*
X022051263Y-07049278D01*
G01*
X022173201Y-07012289D01*
G01*
X022300012Y-06999799D01*
G01*
X022426823Y-07012289D01*
G01*
X022548761Y-07049278D01*
G01*
X022661139Y-07109346D01*
G01*
X022700000Y-07141238D01*
G01*
X022700000Y002500130D01*
G01*
X020756164Y002500130D01*
G01*
X020756164Y004500130D01*
G01*
X022700000Y004500130D01*
G01*
X022700000Y005500124D01*
G01*
X020756164Y005500124D01*
G01*
X020756164Y007500124D01*
G01*
X022700000Y007500124D01*
G01*
X022700000Y023200000D01*
G01*
X019200000Y023200000D01*
G01*
X019200000Y026700000D01*
G01*
X-19200000Y026700000D01*
G01*
X-19200000Y023200000D01*
G01*
X-22700000Y023200000D01*
G01*
X-22700000Y-12200000D01*
G01*
X-19200000Y-12200000D01*
G01*
X-19200000Y-15800000D01*
G01*
X-22700000Y-15800000D01*
G01*
X-22700000Y-18700000D01*
G01*
X-08800046Y-18700000D01*
G01*
X-08800046Y-17575049D01*
G37*
%LPC*%
D23*
G36*
X008134907Y014183000D02*
G01*
X008251961Y014194529D01*
G01*
X008364517Y014228672D01*
G01*
X008468249Y014284118D01*
G01*
X008559171Y014358736D01*
G01*
X008633789Y014449658D01*
G01*
X008689235Y014553390D01*
G01*
X008723378Y014665946D01*
G01*
X008734907Y014783000D01*
G01*
X008723378Y014900054D01*
G01*
X008689235Y015012610D01*
G01*
X008633789Y015116342D01*
G01*
X008559171Y015207264D01*
G01*
X008468249Y015281882D01*
G01*
X008364517Y015337328D01*
G01*
X008251961Y015371471D01*
G01*
X008134907Y015383000D01*
G01*
X008017853Y015371471D01*
G01*
X007905297Y015337328D01*
G01*
X007801565Y015281882D01*
G01*
X007771751Y015257415D01*
G01*
X006904164Y015237490D01*
G01*
X007058465Y015391791D01*
G01*
X007253452Y015586779D01*
G01*
X007448440Y015781766D01*
G01*
X007643428Y015976754D01*
G01*
X007838416Y016171742D01*
G01*
X008033403Y016366730D01*
G01*
X008228391Y016561717D01*
G01*
X008423379Y016756705D01*
G01*
X008618366Y016951693D01*
G01*
X008813354Y017146680D01*
G01*
X008928691Y017262017D01*
G01*
X009462797Y017424219D01*
G01*
X009462167Y017426293D01*
G01*
X009504242Y017439056D01*
G01*
X009582041Y017480640D01*
G01*
X009650232Y017536603D01*
G01*
X009706196Y017604795D01*
G01*
X009747780Y017682594D01*
G01*
X009773388Y017767011D01*
G01*
X009781825Y017852681D01*
G01*
X009782029Y017852680D01*
G01*
X009783350Y018132824D01*
G01*
X009784670Y018412967D01*
G01*
X009785991Y018693110D01*
G01*
X009787311Y018973253D01*
G01*
X009787699Y019055564D01*
G01*
X009824161Y019099993D01*
G01*
X009865746Y019177792D01*
G01*
X009891353Y019262209D01*
G01*
X009900000Y019350000D01*
G01*
X009900000Y020400000D01*
G01*
X009891353Y020487791D01*
G01*
X009866348Y020570225D01*
G01*
X009866531Y020570300D01*
G01*
X009795655Y020743652D01*
G01*
X009796554Y020934255D01*
G01*
X009796350Y020934256D01*
G01*
X009796559Y020936376D01*
G01*
X009787912Y021024166D01*
G01*
X009762305Y021108583D01*
G01*
X009720720Y021186382D01*
G01*
X009664757Y021254574D01*
G01*
X009661712Y021257073D01*
G01*
X009661971Y021257336D01*
G01*
X009451978Y021463698D01*
G01*
X009241986Y021670061D01*
G01*
X009031994Y021876423D01*
G01*
X008822002Y022082785D01*
G01*
X008633532Y022267997D01*
G01*
X009456602Y022267997D01*
G01*
X009456602Y023732003D01*
G01*
X009125062Y023732003D01*
G01*
X009125062Y025300001D01*
G01*
X009450061Y025300001D01*
G01*
X009450061Y026699999D01*
G01*
X008050063Y026699999D01*
G01*
X008050063Y025300001D01*
G01*
X008375062Y025300001D01*
G01*
X008375062Y023732003D01*
G01*
X008050126Y023732003D01*
G01*
X008050126Y022841319D01*
G01*
X007982033Y022908235D01*
G01*
X007949874Y022939838D01*
G01*
X007949874Y023732003D01*
G01*
X007783748Y023732003D01*
G01*
X007804266Y023770390D01*
G01*
X007838409Y023882946D01*
G01*
X007849938Y024000000D01*
G01*
X007838409Y024117054D01*
G01*
X007804266Y024229610D01*
G01*
X007748820Y024333342D01*
G01*
X007674202Y024424264D01*
G01*
X007624938Y024464694D01*
G01*
X007624938Y025300001D01*
G01*
X007949937Y025300001D01*
G01*
X007949937Y026699999D01*
G01*
X006549939Y026699999D01*
G01*
X006549939Y025300001D01*
G01*
X006874938Y025300001D01*
G01*
X006874938Y024464694D01*
G01*
X006825674Y024424264D01*
G01*
X006751056Y024333342D01*
G01*
X006695610Y024229610D01*
G01*
X006661467Y024117054D01*
G01*
X006649938Y024000000D01*
G01*
X006661467Y023882946D01*
G01*
X006695610Y023770390D01*
G01*
X006716128Y023732003D01*
G01*
X006543398Y023732003D01*
G01*
X006543398Y022267997D01*
G01*
X007349497Y022267997D01*
G01*
X007351209Y022266315D01*
G01*
X007561201Y022059953D01*
G01*
X007771193Y021853590D01*
G01*
X007981185Y021647228D01*
G01*
X008191178Y021440866D01*
G01*
X008401170Y021234503D01*
G01*
X008611162Y021028141D01*
G01*
X008821155Y020821778D01*
G01*
X008895668Y020748553D01*
G01*
X008895243Y020658354D01*
G01*
X008895447Y020658353D01*
G01*
X008895238Y020656233D01*
G01*
X008903885Y020568442D01*
G01*
X008928891Y020486008D01*
G01*
X008928708Y020485933D01*
G01*
X009000000Y020311561D01*
G01*
X009000000Y019548811D01*
G01*
X008964475Y019505524D01*
G01*
X008922891Y019427725D01*
G01*
X008897283Y019343308D01*
G01*
X008888845Y019257637D01*
G01*
X008888641Y019257638D01*
G01*
X008887321Y018977495D01*
G01*
X008886001Y018697352D01*
G01*
X008884680Y018417209D01*
G01*
X008883604Y018188912D01*
G01*
X008559381Y018090448D01*
G01*
X008560011Y018088375D01*
G01*
X008517936Y018075612D01*
G01*
X008440137Y018034027D01*
G01*
X008371946Y017978064D01*
G01*
X008176958Y017783076D01*
G01*
X007981970Y017588089D01*
G01*
X007786983Y017393101D01*
G01*
X007591995Y017198113D01*
G01*
X007397007Y017003126D01*
G01*
X007202019Y016808138D01*
G01*
X007007032Y016613150D01*
G01*
X006812044Y016418162D01*
G01*
X006617056Y016223175D01*
G01*
X006524928Y016131046D01*
G01*
X006489610Y016149924D01*
G01*
X006377054Y016184067D01*
G01*
X006260000Y016195596D01*
G01*
X006142946Y016184067D01*
G01*
X006030390Y016149924D01*
G01*
X005926658Y016094478D01*
G01*
X005835736Y016019860D01*
G01*
X005761118Y015928938D01*
G01*
X005705672Y015825206D01*
G01*
X005671529Y015712650D01*
G01*
X005660000Y015595596D01*
G01*
X005671529Y015478542D01*
G01*
X005705672Y015365986D01*
G01*
X005761118Y015262254D01*
G01*
X005802211Y015212182D01*
G01*
X004388838Y015179723D01*
G01*
X004357084Y015218415D01*
G01*
X004266162Y015293033D01*
G01*
X004162430Y015348479D01*
G01*
X004049874Y015382622D01*
G01*
X003932819Y015394151D01*
G01*
X003815765Y015382622D01*
G01*
X003703209Y015348479D01*
G01*
X003599477Y015293033D01*
G01*
X003508555Y015218415D01*
G01*
X003433938Y015127493D01*
G01*
X003378492Y015023761D01*
G01*
X003344348Y014911205D01*
G01*
X003332819Y014794151D01*
G01*
X003344348Y014677097D01*
G01*
X003378492Y014564541D01*
G01*
X003433938Y014460809D01*
G01*
X003508555Y014369887D01*
G01*
X003599477Y014295269D01*
G01*
X003703209Y014239823D01*
G01*
X003815765Y014205680D01*
G01*
X003932819Y014194151D01*
G01*
X004049874Y014205680D01*
G01*
X004162430Y014239823D01*
G01*
X004266162Y014295269D01*
G01*
X004357084Y014369887D01*
G01*
X004406357Y014429928D01*
G01*
X007607278Y014503440D01*
G01*
X007636025Y014449658D01*
G01*
X007710643Y014358736D01*
G01*
X007801565Y014284118D01*
G01*
X007905297Y014228672D01*
G01*
X008017853Y014194529D01*
G01*
X008134907Y014183000D01*
G37*
D23*
G36*
X-05456602Y018267997D02*
G01*
X-04050126Y018267997D01*
G01*
X-04050126Y019732003D01*
G01*
X-04709889Y019732003D01*
G01*
X-04745432Y023345089D01*
G01*
X-03985424Y024051297D01*
G01*
X-01459498Y024045979D01*
G01*
X-01418264Y023995736D01*
G01*
X-01327342Y023921118D01*
G01*
X-01223610Y023865672D01*
G01*
X-01111054Y023831529D01*
G01*
X-00994000Y023820000D01*
G01*
X-00876946Y023831529D01*
G01*
X-00764390Y023865672D01*
G01*
X-00660658Y023921118D01*
G01*
X-00569736Y023995736D01*
G01*
X-00495118Y024086658D01*
G01*
X-00439672Y024190390D01*
G01*
X-00405529Y024302946D01*
G01*
X-00394000Y024420000D01*
G01*
X-00405529Y024537054D01*
G01*
X-00439672Y024649610D01*
G01*
X-00495118Y024753342D01*
G01*
X-00569736Y024844264D01*
G01*
X-00660658Y024918882D01*
G01*
X-00764390Y024974328D01*
G01*
X-00876946Y025008471D01*
G01*
X-00994000Y025020000D01*
G01*
X-01111054Y025008471D01*
G01*
X-01223610Y024974328D01*
G01*
X-01327342Y024918882D01*
G01*
X-01418264Y024844264D01*
G01*
X-01457892Y024795977D01*
G01*
X-04131634Y024801606D01*
G01*
X-04131634Y024801529D01*
G01*
X-04132423Y024801607D01*
G01*
X-04205582Y024794401D01*
G01*
X-04275930Y024773062D01*
G01*
X-04340762Y024738408D01*
G01*
X-04386939Y024700512D01*
G01*
X-04387687Y024701317D01*
G01*
X-05377307Y023781751D01*
G01*
X-05376559Y023780946D01*
G01*
X-05387208Y023772206D01*
G01*
X-05433844Y023715380D01*
G01*
X-05468498Y023650547D01*
G01*
X-05489838Y023580200D01*
G01*
X-05497043Y023507041D01*
G01*
X-05496680Y023503355D01*
G01*
X-05497025Y023503352D01*
G01*
X-05456602Y019394181D01*
G01*
X-05456602Y018267997D01*
G37*
D23*
G36*
X006599977Y019250001D02*
G01*
X007999975Y019250001D01*
G01*
X007999975Y020749999D01*
G01*
X007190112Y020749999D01*
G01*
X007020516Y020921074D01*
G01*
X006820838Y021122495D01*
G01*
X006621159Y021323915D01*
G01*
X006421480Y021525335D01*
G01*
X006221802Y021726756D01*
G01*
X006022123Y021928176D01*
G01*
X005822444Y022129596D01*
G01*
X005734788Y022218017D01*
G01*
X005544315Y024091571D01*
G01*
X005543124Y024334435D01*
G01*
X005542912Y024334434D01*
G01*
X005534482Y024420018D01*
G01*
X005508875Y024504435D01*
G01*
X005467290Y024582234D01*
G01*
X005411327Y024650426D01*
G01*
X005343136Y024706389D01*
G01*
X005265337Y024747974D01*
G01*
X005180920Y024773581D01*
G01*
X005093129Y024782228D01*
G01*
X005093116Y024782227D01*
G01*
X005093116Y024782228D01*
G01*
X004795364Y024782219D01*
G01*
X004497612Y024782211D01*
G01*
X004199859Y024782203D01*
G01*
X003902107Y024782194D01*
G01*
X003604355Y024782186D01*
G01*
X003306602Y024782178D01*
G01*
X003306602Y024782177D01*
G01*
X003218824Y024773531D01*
G01*
X003134407Y024747923D01*
G01*
X003056608Y024706339D01*
G01*
X002988417Y024650376D01*
G01*
X002962440Y024624399D01*
G01*
X002881946Y024616471D01*
G01*
X002769390Y024582328D01*
G01*
X002665658Y024526882D01*
G01*
X002574736Y024452264D01*
G01*
X002500118Y024361342D01*
G01*
X002444672Y024257610D01*
G01*
X002410529Y024145054D01*
G01*
X002399000Y024028000D01*
G01*
X002410529Y023910946D01*
G01*
X002444672Y023798390D01*
G01*
X002500118Y023694658D01*
G01*
X002574736Y023603736D01*
G01*
X002665658Y023529118D01*
G01*
X002769390Y023473672D01*
G01*
X002881946Y023439529D01*
G01*
X002999000Y023428000D01*
G01*
X003116054Y023439529D01*
G01*
X003228610Y023473672D01*
G01*
X003332342Y023529118D01*
G01*
X003423264Y023603736D01*
G01*
X003497882Y023694658D01*
G01*
X003553328Y023798390D01*
G01*
X003578747Y023882185D01*
G01*
X003604380Y023882186D01*
G01*
X003902132Y023882194D01*
G01*
X004199885Y023882203D01*
G01*
X004497637Y023882211D01*
G01*
X004660959Y023882215D01*
G01*
X004855496Y021968689D01*
G01*
X004857650Y021968908D01*
G01*
X004861835Y021926412D01*
G01*
X004887443Y021841996D01*
G01*
X004929027Y021764196D01*
G01*
X004983746Y021697522D01*
G01*
X004983612Y021697390D01*
G01*
X005183291Y021495969D01*
G01*
X005382970Y021294549D01*
G01*
X005582648Y021093129D01*
G01*
X005782327Y020891708D01*
G01*
X005982006Y020690288D01*
G01*
X006181684Y020488868D01*
G01*
X006381363Y020287447D01*
G01*
X006581042Y020086027D01*
G01*
X006599977Y020066927D01*
G01*
X006599977Y019250001D01*
G37*
D23*
G36*
X-01199973Y013500037D02*
G01*
X-00399973Y013500037D01*
G01*
X000000077Y013500037D01*
G01*
X000399873Y013500037D01*
G01*
X000799923Y013500037D01*
G01*
X001199973Y013500037D01*
G01*
X001199973Y014600036D01*
G01*
X001174973Y014600036D01*
G01*
X001174973Y014624363D01*
G01*
X001880437Y015212270D01*
G01*
X001882878Y015211529D01*
G01*
X001999933Y015200000D01*
G01*
X002116987Y015211529D01*
G01*
X002229543Y015245672D01*
G01*
X002333275Y015301118D01*
G01*
X002424197Y015375736D01*
G01*
X002498814Y015466658D01*
G01*
X002554260Y015570390D01*
G01*
X002588404Y015682946D01*
G01*
X002599933Y015800000D01*
G01*
X002588404Y015917054D01*
G01*
X002554260Y016029610D01*
G01*
X002498814Y016133342D01*
G01*
X002424197Y016224264D01*
G01*
X002333275Y016298882D01*
G01*
X002229543Y016354328D01*
G01*
X002116987Y016388471D01*
G01*
X001999933Y016400000D01*
G01*
X001882878Y016388471D01*
G01*
X001770322Y016354328D01*
G01*
X001666590Y016298882D01*
G01*
X001575668Y016224264D01*
G01*
X001501051Y016133342D01*
G01*
X001499870Y016131133D01*
G01*
X001498689Y016133342D01*
G01*
X001424072Y016224264D01*
G01*
X001333150Y016298882D01*
G01*
X001229418Y016354328D01*
G01*
X001116862Y016388471D01*
G01*
X000999808Y016400000D01*
G01*
X000949874Y016395082D01*
G01*
X000949874Y017732003D01*
G01*
X000839939Y017732003D01*
G01*
X000846636Y017800000D01*
G01*
X000835107Y017917054D01*
G01*
X000800964Y018029610D01*
G01*
X000745518Y018133342D01*
G01*
X000670900Y018224264D01*
G01*
X000579978Y018298882D01*
G01*
X000476246Y018354328D01*
G01*
X000363690Y018388471D01*
G01*
X000246636Y018400000D01*
G01*
X000129582Y018388471D01*
G01*
X000017026Y018354328D01*
G01*
X-00050126Y018318434D01*
G01*
X-00050126Y019732003D01*
G01*
X-00226982Y019732003D01*
G01*
X-00211529Y019782946D01*
G01*
X-00200000Y019900000D01*
G01*
X-00211529Y020017054D01*
G01*
X-00245672Y020129610D01*
G01*
X-00301118Y020233342D01*
G01*
X-00375736Y020324264D01*
G01*
X-00466658Y020398882D01*
G01*
X-00570390Y020454328D01*
G01*
X-00682946Y020488471D01*
G01*
X-00800000Y020500000D01*
G01*
X-00917054Y020488471D01*
G01*
X-01029610Y020454328D01*
G01*
X-01038807Y020449412D01*
G01*
X-01375187Y020626420D01*
G01*
X-01375187Y021060231D01*
G01*
X-01300187Y021060231D01*
G01*
X-00800061Y021060231D01*
G01*
X-00300189Y021060231D01*
G01*
X000199937Y021060231D01*
G01*
X000699809Y021060231D01*
G01*
X000874807Y021060231D01*
G01*
X000874807Y020543855D01*
G01*
X000832477Y020496801D01*
G01*
X000800000Y020500000D01*
G01*
X000682946Y020488471D01*
G01*
X000570390Y020454328D01*
G01*
X000466658Y020398882D01*
G01*
X000375736Y020324264D01*
G01*
X000301118Y020233342D01*
G01*
X000245672Y020129610D01*
G01*
X000211529Y020017054D01*
G01*
X000200000Y019900000D01*
G01*
X000211529Y019782946D01*
G01*
X000245672Y019670390D01*
G01*
X000301118Y019566658D01*
G01*
X000375736Y019475736D01*
G01*
X000466658Y019401118D01*
G01*
X000570390Y019345672D01*
G01*
X000682946Y019311529D01*
G01*
X000800000Y019300000D01*
G01*
X000917054Y019311529D01*
G01*
X001029610Y019345672D01*
G01*
X001133342Y019401118D01*
G01*
X001224264Y019475736D01*
G01*
X001298882Y019566658D01*
G01*
X001354328Y019670390D01*
G01*
X001388471Y019782946D01*
G01*
X001400000Y019900000D01*
G01*
X001390568Y019995767D01*
G01*
X001481773Y020097150D01*
G01*
X001445672Y020029610D01*
G01*
X001411529Y019917054D01*
G01*
X001400000Y019800000D01*
G01*
X001411529Y019682946D01*
G01*
X001445672Y019570390D01*
G01*
X001501118Y019466658D01*
G01*
X001575736Y019375736D01*
G01*
X001666658Y019301118D01*
G01*
X001770390Y019245672D01*
G01*
X001882946Y019211529D01*
G01*
X002000000Y019200000D01*
G01*
X002117054Y019211529D01*
G01*
X002229610Y019245672D01*
G01*
X002333342Y019301118D01*
G01*
X002424264Y019375736D01*
G01*
X002498882Y019466658D01*
G01*
X002554328Y019570390D01*
G01*
X002588471Y019682946D01*
G01*
X002600000Y019800000D01*
G01*
X002588471Y019917054D01*
G01*
X002569772Y019978697D01*
G01*
X002711718Y020191659D01*
G01*
X002711720Y020191661D01*
G01*
X002711721Y020191663D01*
G01*
X002711957Y020192017D01*
G01*
X002711923Y020192040D01*
G01*
X002746374Y020256494D01*
G01*
X002767713Y020326841D01*
G01*
X002774919Y020400000D01*
G01*
X002774919Y021060231D01*
G01*
X002999918Y021060231D01*
G01*
X002999918Y022860228D01*
G01*
X001799920Y022860228D01*
G01*
X001299933Y022860228D01*
G01*
X000799807Y022860228D01*
G01*
X000299935Y022860228D01*
G01*
X-00200191Y022860228D01*
G01*
X-00700063Y022860228D01*
G01*
X-01200189Y022860228D01*
G01*
X-01700061Y022860228D01*
G01*
X-02200187Y022860228D01*
G01*
X-03000172Y022860228D01*
G01*
X-03000172Y021060231D01*
G01*
X-02775173Y021060231D01*
G01*
X-02775173Y020400000D01*
G01*
X-02767967Y020326841D01*
G01*
X-02746628Y020256494D01*
G01*
X-02712124Y020191942D01*
G01*
X-02712150Y020191925D01*
G01*
X-02711974Y020191662D01*
G01*
X-02711974Y020191661D01*
G01*
X-02569823Y019978528D01*
G01*
X-02588471Y019917054D01*
G01*
X-02600000Y019800000D01*
G01*
X-02588471Y019682946D01*
G01*
X-02554328Y019570390D01*
G01*
X-02498882Y019466658D01*
G01*
X-02424264Y019375736D01*
G01*
X-02333342Y019301118D01*
G01*
X-02229610Y019245672D01*
G01*
X-02117054Y019211529D01*
G01*
X-02000000Y019200000D01*
G01*
X-01882946Y019211529D01*
G01*
X-01770390Y019245672D01*
G01*
X-01666658Y019301118D01*
G01*
X-01575736Y019375736D01*
G01*
X-01501118Y019466658D01*
G01*
X-01456602Y019549941D01*
G01*
X-01456602Y018267997D01*
G01*
X-00124339Y018267997D01*
G01*
X-00177628Y018224264D01*
G01*
X-00252246Y018133342D01*
G01*
X-00307692Y018029610D01*
G01*
X-00341835Y017917054D01*
G01*
X-00353364Y017800000D01*
G01*
X-00346667Y017732003D01*
G01*
X-00456602Y017732003D01*
G01*
X-00456602Y016267997D01*
G01*
X-00371293Y016267997D01*
G01*
X-00424582Y016224264D01*
G01*
X-00499199Y016133342D01*
G01*
X-00554645Y016029610D01*
G01*
X-00588789Y015917054D01*
G01*
X-00600317Y015800000D01*
G01*
X-00588789Y015682946D01*
G01*
X-00554645Y015570390D01*
G01*
X-00499199Y015466658D01*
G01*
X-00424582Y015375736D01*
G01*
X-00375229Y015335233D01*
G01*
X-00375127Y014799929D01*
G01*
X-00375127Y014600036D01*
G01*
X-00400127Y014600036D01*
G01*
X-00424973Y014600036D01*
G01*
X-00424973Y014800000D01*
G01*
X-00432179Y014873159D01*
G01*
X-00453518Y014943506D01*
G01*
X-00488172Y015008339D01*
G01*
X-00534808Y015065165D01*
G01*
X-00561048Y015086700D01*
G01*
X-00559899Y015088079D01*
G01*
X-01401013Y015789031D01*
G01*
X-01399933Y015800000D01*
G01*
X-01411461Y015917054D01*
G01*
X-01445605Y016029610D01*
G01*
X-01501051Y016133342D01*
G01*
X-01575668Y016224264D01*
G01*
X-01666590Y016298882D01*
G01*
X-01770322Y016354328D01*
G01*
X-01882878Y016388471D01*
G01*
X-01999932Y016400000D01*
G01*
X-02116987Y016388471D01*
G01*
X-02229543Y016354328D01*
G01*
X-02333275Y016298882D01*
G01*
X-02424197Y016224264D01*
G01*
X-02498814Y016133342D01*
G01*
X-02554260Y016029610D01*
G01*
X-02588404Y015917054D01*
G01*
X-02599932Y015800000D01*
G01*
X-02588404Y015682946D01*
G01*
X-02554260Y015570390D01*
G01*
X-02498814Y015466658D01*
G01*
X-02424197Y015375736D01*
G01*
X-02333275Y015301118D01*
G01*
X-02229543Y015245672D01*
G01*
X-02116987Y015211529D01*
G01*
X-01999932Y015200000D01*
G01*
X-01882878Y015211529D01*
G01*
X-01880437Y015212270D01*
G01*
X-01174973Y014624363D01*
G01*
X-01174973Y014600036D01*
G01*
X-01199973Y014600036D01*
G01*
X-01199973Y013500037D01*
G37*
D23*
G36*
X-04949874Y015267997D02*
G01*
X-03543398Y015267997D01*
G01*
X-03543398Y016732003D01*
G01*
X-03871636Y016732003D01*
G01*
X-03871636Y016935306D01*
G01*
X-03822372Y016975736D01*
G01*
X-03747754Y017066658D01*
G01*
X-03692308Y017170390D01*
G01*
X-03658165Y017282946D01*
G01*
X-03646636Y017400000D01*
G01*
X-03658165Y017517054D01*
G01*
X-03692308Y017629610D01*
G01*
X-03747754Y017733342D01*
G01*
X-03822372Y017824264D01*
G01*
X-03913294Y017898882D01*
G01*
X-04017026Y017954328D01*
G01*
X-04129582Y017988471D01*
G01*
X-04246636Y018000000D01*
G01*
X-04363690Y017988471D01*
G01*
X-04476246Y017954328D01*
G01*
X-04579978Y017898882D01*
G01*
X-04670900Y017824264D01*
G01*
X-04745518Y017733342D01*
G01*
X-04800964Y017629610D01*
G01*
X-04835107Y017517054D01*
G01*
X-04846636Y017400000D01*
G01*
X-04835107Y017282946D01*
G01*
X-04800964Y017170390D01*
G01*
X-04745518Y017066658D01*
G01*
X-04670900Y016975736D01*
G01*
X-04621636Y016935306D01*
G01*
X-04621636Y016732003D01*
G01*
X-04949874Y016732003D01*
G01*
X-04949874Y015267997D01*
G37*
D23*
G36*
X-05505004Y012424995D02*
G01*
X-03495000Y012424995D01*
G01*
X-03495000Y014375005D01*
G01*
X-03944274Y014375005D01*
G01*
X-03911531Y014482946D01*
G01*
X-03900002Y014600000D01*
G01*
X-03911531Y014717054D01*
G01*
X-03945674Y014829610D01*
G01*
X-04001120Y014933342D01*
G01*
X-04075738Y015024264D01*
G01*
X-04166660Y015098882D01*
G01*
X-04270392Y015154328D01*
G01*
X-04382948Y015188471D01*
G01*
X-04500002Y015200000D01*
G01*
X-04617056Y015188471D01*
G01*
X-04729612Y015154328D01*
G01*
X-04833344Y015098882D01*
G01*
X-04924266Y015024264D01*
G01*
X-04998884Y014933342D01*
G01*
X-05054330Y014829610D01*
G01*
X-05088473Y014717054D01*
G01*
X-05100002Y014600000D01*
G01*
X-05088473Y014482946D01*
G01*
X-05055730Y014375005D01*
G01*
X-05505004Y014375005D01*
G01*
X-05505004Y012424995D01*
G37*
D23*
G36*
X-11789977Y003059867D02*
G01*
X-10524979Y003059867D01*
G01*
X-10524979Y003559993D01*
G01*
X-10524979Y004440003D01*
G01*
X-10757478Y004440003D01*
G01*
X-10757478Y004479057D01*
G01*
X-10742156Y004625000D01*
G01*
X-09226678Y004625000D01*
G01*
X-09217522Y004607557D01*
G01*
X-09217522Y004440003D01*
G01*
X-09475021Y004440003D01*
G01*
X-09475021Y003559993D01*
G01*
X-08210023Y003559993D01*
G01*
X-08210023Y004440003D01*
G01*
X-08467522Y004440003D01*
G01*
X-08467522Y004700000D01*
G01*
X-08474728Y004773159D01*
G01*
X-08496067Y004843506D01*
G01*
X-08512078Y004873460D01*
G01*
X-08510488Y004874294D01*
G01*
X-08667966Y005174294D01*
G01*
X-08669556Y005173460D01*
G01*
X-08688199Y005208339D01*
G01*
X-08734835Y005265165D01*
G01*
X-08791661Y005311801D01*
G01*
X-08856494Y005346455D01*
G01*
X-08926841Y005367794D01*
G01*
X-09000000Y005375000D01*
G01*
X-09994996Y005375000D01*
G01*
X-09994996Y006975005D01*
G01*
X-10399998Y006975005D01*
G01*
X-10399998Y007524995D01*
G01*
X-09994996Y007524995D01*
G01*
X-09994996Y009475005D01*
G01*
X-12005000Y009475005D01*
G01*
X-12005000Y007524995D01*
G01*
X-11599998Y007524995D01*
G01*
X-11599998Y006975005D01*
G01*
X-12005000Y006975005D01*
G01*
X-12005000Y006393022D01*
G01*
X-12012191Y006392314D01*
G01*
X-12087229Y006369552D01*
G01*
X-12156383Y006332588D01*
G01*
X-12216998Y006282843D01*
G01*
X-12292314Y006207527D01*
G01*
X-12393022Y006217446D01*
G01*
X-12510076Y006205917D01*
G01*
X-12622632Y006171774D01*
G01*
X-12726364Y006116328D01*
G01*
X-12817286Y006041710D01*
G01*
X-12891903Y005950788D01*
G01*
X-12947349Y005847056D01*
G01*
X-12981493Y005734500D01*
G01*
X-12993022Y005617446D01*
G01*
X-12981493Y005500392D01*
G01*
X-12947349Y005387836D01*
G01*
X-12900404Y005300009D01*
G01*
X-15660005Y005300009D01*
G01*
X-15660005Y003400011D01*
G01*
X-12455286Y003400011D01*
G01*
X-12291302Y003225750D01*
G01*
X-12290567Y003226441D01*
G01*
X-12282843Y003217029D01*
G01*
X-12222228Y003167284D01*
G01*
X-12153073Y003130320D01*
G01*
X-12078036Y003107558D01*
G01*
X-12000000Y003099872D01*
G01*
X-11789977Y003099872D01*
G01*
X-11789977Y003059867D01*
G37*
D23*
G36*
X017800000Y002150068D02*
G01*
X017917054Y002161597D01*
G01*
X018029610Y002195740D01*
G01*
X018133342Y002251186D01*
G01*
X018224264Y002325804D01*
G01*
X018264694Y002375068D01*
G01*
X018443978Y002375068D01*
G01*
X018443978Y002150069D01*
G01*
X020567978Y002150069D01*
G01*
X020567978Y003350067D01*
G01*
X018443978Y003350067D01*
G01*
X018443978Y003125068D01*
G01*
X018264694Y003125068D01*
G01*
X018224264Y003174332D01*
G01*
X018133342Y003248950D01*
G01*
X018029610Y003304396D01*
G01*
X017917054Y003338539D01*
G01*
X017800000Y003350068D01*
G01*
X017682946Y003338539D01*
G01*
X017570390Y003304396D01*
G01*
X017466658Y003248950D01*
G01*
X017375736Y003174332D01*
G01*
X017301118Y003083410D01*
G01*
X017245672Y002979678D01*
G01*
X017211529Y002867122D01*
G01*
X017200000Y002750068D01*
G01*
X017211529Y002633014D01*
G01*
X017245672Y002520458D01*
G01*
X017301118Y002416726D01*
G01*
X017375736Y002325804D01*
G01*
X017466658Y002251186D01*
G01*
X017570390Y002195740D01*
G01*
X017682946Y002161597D01*
G01*
X017800000Y002150068D01*
G37*
D23*
G36*
X-05799989Y-03924950D02*
G01*
X-04199991Y-03924950D01*
G01*
X-04199991Y-01824953D01*
G01*
X-05799989Y-01824953D01*
G01*
X-05799989Y-03924950D01*
G37*
D23*
G36*
X-14949874Y-05732003D02*
G01*
X-13543398Y-05732003D01*
G01*
X-13543398Y-05505075D01*
G01*
X-03197530Y-05505075D01*
G01*
X-03124371Y-05497869D01*
G01*
X-03054024Y-05476530D01*
G01*
X-02989191Y-05441876D01*
G01*
X-02932365Y-05395240D01*
G01*
X-02929277Y-05391477D01*
G01*
X-02928958Y-05391788D01*
G01*
X-01499580Y-03924950D01*
G01*
X-00199999Y-03924950D01*
G01*
X-00199999Y-01824953D01*
G01*
X-01799997Y-01824953D01*
G01*
X-01799997Y-03158592D01*
G01*
X-02199995Y-03569073D01*
G01*
X-02199995Y-01824953D01*
G01*
X-03799993Y-01824953D01*
G01*
X-03799993Y-03924950D01*
G01*
X-02546784Y-03924950D01*
G01*
X-03355709Y-04755075D01*
G01*
X-13543398Y-04755075D01*
G01*
X-13543398Y-04267997D01*
G01*
X-14949874Y-04267997D01*
G01*
X-14949874Y-05732003D01*
G37*
D23*
G36*
X-08800046Y-11175063D02*
G01*
X-06700049Y-11175063D01*
G01*
X-06700049Y-10740547D01*
G01*
X-06637321Y-10721519D01*
G01*
X-06572488Y-10686865D01*
G01*
X-06549121Y-10667688D01*
G01*
X-06548036Y-10669059D01*
G01*
X000492790Y-05093995D01*
G01*
X000491705Y-05092624D01*
G01*
X000525164Y-05065165D01*
G01*
X000571800Y-05008339D01*
G01*
X000606454Y-04943506D01*
G01*
X000627793Y-04873159D01*
G01*
X000634999Y-04800000D01*
G01*
X000631996Y-04769517D01*
G01*
X000653327Y-04729610D01*
G01*
X000687470Y-04617054D01*
G01*
X000698999Y-04500000D01*
G01*
X000687470Y-04382946D01*
G01*
X000653327Y-04270390D01*
G01*
X000597881Y-04166658D01*
G01*
X000523263Y-04075736D01*
G01*
X000432341Y-04001118D01*
G01*
X000328609Y-03945672D01*
G01*
X000260297Y-03924950D01*
G01*
X001799997Y-03924950D01*
G01*
X001799997Y-01824953D01*
G01*
X000199999Y-01824953D01*
G01*
X000199999Y-03909948D01*
G01*
X000098999Y-03900000D01*
G01*
X-00018055Y-03911529D01*
G01*
X-00130611Y-03945672D01*
G01*
X-00234343Y-04001118D01*
G01*
X-00325265Y-04075736D01*
G01*
X-00399883Y-04166658D01*
G01*
X-00455329Y-04270390D01*
G01*
X-00489472Y-04382946D01*
G01*
X-00501001Y-04500000D01*
G01*
X-00489472Y-04617054D01*
G01*
X-00455329Y-04729610D01*
G01*
X-00399883Y-04833342D01*
G01*
X-00394490Y-04839914D01*
G01*
X-06700049Y-09832778D01*
G01*
X-06700049Y-09575065D01*
G01*
X-08800046Y-09575065D01*
G01*
X-08800046Y-10000064D01*
G01*
X-19654599Y-10000064D01*
G01*
X-20269910Y-09384711D01*
G01*
X-20269910Y-07770004D01*
G01*
X-22099906Y-07770004D01*
G01*
X-22099906Y-10229996D01*
G01*
X-20485307Y-10229996D01*
G01*
X-20075110Y-10640220D01*
G01*
X-20075109Y-10640219D01*
G01*
X-20075101Y-10640229D01*
G01*
X-20018275Y-10686865D01*
G01*
X-19953443Y-10721519D01*
G01*
X-19883095Y-10742858D01*
G01*
X-19809936Y-10750064D01*
G01*
X-08800046Y-10750064D01*
G01*
X-08800046Y-11175063D01*
G37*
D23*
G36*
X002199995Y-03924950D02*
G01*
X003799993Y-03924950D01*
G01*
X003799993Y-01824953D01*
G01*
X002199995Y-01824953D01*
G01*
X002199995Y-03924950D01*
G37*
D23*
G36*
X004199991Y-03924950D02*
G01*
X005799989Y-03924950D01*
G01*
X005799989Y-01824953D01*
G01*
X004199991Y-01824953D01*
G01*
X004199991Y-03924950D01*
G37*
D23*
G36*
X-16456602Y-05732003D02*
G01*
X-15050126Y-05732003D01*
G01*
X-15050126Y-04267997D01*
G01*
X-16456602Y-04267997D01*
G01*
X-16456602Y-04625000D01*
G01*
X-17549939Y-04625000D01*
G01*
X-17549939Y-04300001D01*
G01*
X-18949937Y-04300001D01*
G01*
X-18949937Y-05699999D01*
G01*
X-17549939Y-05699999D01*
G01*
X-17549939Y-05375000D01*
G01*
X-16456602Y-05375000D01*
G01*
X-16456602Y-05732003D01*
G37*
D23*
G36*
X-08800046Y-07175071D02*
G01*
X-06700049Y-07175071D01*
G01*
X-06700049Y-05575073D01*
G01*
X-08800046Y-05575073D01*
G01*
X-08800046Y-07175071D01*
G37*
D23*
G36*
X-08800046Y-09175067D02*
G01*
X-06700049Y-09175067D01*
G01*
X-06700049Y-07575069D01*
G01*
X-08800046Y-07575069D01*
G01*
X-08800046Y-09175067D01*
G37*
D23*
G36*
X-08800046Y-13175059D02*
G01*
X-06700049Y-13175059D01*
G01*
X-06700049Y-11575061D01*
G01*
X-08800046Y-11575061D01*
G01*
X-08800046Y-13175059D01*
G37*
%LPD*%
D23*
G36*
X000770000Y013470000D02*
G01*
X-00770000Y013470000D01*
G01*
X-00770000Y012530000D01*
G01*
X000770000Y012530000D01*
G01*
X000770000Y013470000D01*
G37*
D23*
G36*
X-09400000Y003360000D02*
G01*
X-08510000Y003360000D01*
G01*
X-08510000Y003640000D01*
G01*
X-09400000Y003640000D01*
G01*
X-09400000Y004000000D01*
G01*
X-10600000Y004000000D01*
G01*
X-10600000Y003140000D01*
G01*
X-11490000Y003140000D01*
G01*
X-11490000Y002860000D01*
G01*
X-10600000Y002860000D01*
G01*
X-10600000Y002000000D01*
G01*
X-09400000Y002000000D01*
G01*
X-09400000Y003360000D01*
G37*
%ADD66C,0.999998*%
D66*
X-04319905Y022960177D03*
X-04319905Y022960177D02*
X-04319905Y022160178D01*
X-04319905Y022160178D03*
D66*
X004319905Y022960177D03*
X004319905Y022960177D02*
X004319905Y022160178D01*
X004319905Y022160178D03*
D66*
X004319905Y027160168D03*
X004319905Y027160168D02*
X004319905Y025960171D01*
X004319905Y025960171D03*
D66*
X-04319905Y027160168D03*
X-04319905Y027160168D02*
X-04319905Y025960171D01*
X-04319905Y025960171D03*
D21*
X003200019Y021960229D03*
D21*
X002399919Y021960229D03*
D22*
X001749933Y021960229D03*
D22*
X001249807Y021960229D03*
D22*
X000749935Y021960229D03*
D22*
X000249809Y021960229D03*
D22*
X-00250063Y021960229D03*
D22*
X-00750189Y021960229D03*
D22*
X-01250061Y021960229D03*
D22*
X-01750187Y021960229D03*
D21*
X-02400173Y021960229D03*
D21*
X-03200019Y021960229D03*
D24*
X000753364Y019000000D03*
D24*
X-00753364Y019000000D03*
D24*
X-03246636Y019000000D03*
D24*
X-04753364Y019000000D03*
D26*
X-00799973Y011949964D03*
D26*
X-00399923Y011950218D03*
D26*
X-00000127Y011950218D03*
D26*
X000399923Y011950218D03*
D26*
X000799973Y011950218D03*
D26*
X000799973Y014050036D03*
D26*
X000399923Y014050036D03*
D26*
X-00000127Y014050036D03*
D26*
X-00399923Y014050036D03*
D26*
X-00799973Y014050036D03*
D27*
X-00000127Y013000000D03*
D24*
X006253364Y009000000D03*
D24*
X004746636Y009000000D03*
D29*
X005200024Y011500000D03*
D29*
X003799976Y011500000D03*
D29*
X008700024Y020000000D03*
D29*
X007299976Y020000000D03*
D24*
X008753364Y023000000D03*
D24*
X007246636Y023000000D03*
D31*
X007249938Y026000000D03*
D31*
X008750062Y026000000D03*
D33*
X-21875015Y014799971D03*
D33*
X-21875015Y011200029D03*
D34*
X-17999991Y012500001D03*
D34*
X-17999991Y013499999D03*
D24*
X-05753364Y016000000D03*
D24*
X-04246636Y016000000D03*
D24*
X001753364Y017000000D03*
D24*
X000246636Y017000000D03*
D35*
X-06499998Y013400000D03*
D35*
X-04500002Y013400000D03*
D29*
X-05700024Y011000000D03*
D29*
X-04299976Y011000000D03*
D37*
X007750048Y-18375048D03*
D37*
X007750048Y-16375052D03*
D37*
X007750048Y-14375056D03*
D37*
X007750048Y-12375060D03*
D37*
X007750048Y-10375064D03*
D37*
X007750048Y-08375068D03*
D37*
X007750048Y-06375072D03*
D37*
X007750048Y-04375076D03*
D38*
X004999990Y-02874952D03*
D38*
X002999994Y-02874952D03*
D38*
X000999998Y-02874952D03*
D38*
X-00999998Y-02874952D03*
D38*
X-02999994Y-02874952D03*
D38*
X-04999990Y-02874952D03*
D37*
X-07750048Y-04375076D03*
D37*
X-07750048Y-06375072D03*
D37*
X-07750048Y-08375068D03*
D37*
X-07750048Y-10375064D03*
D37*
X-07750048Y-12375060D03*
D37*
X-07750048Y-14375056D03*
D37*
X-07750048Y-16375052D03*
D37*
X-07750048Y-18375048D03*
D29*
X011700024Y-08000000D03*
D29*
X010299976Y-08000000D03*
D39*
X012000000Y-03500002D03*
D39*
X012000000Y-05499998D03*
D23*
G36*
X022949973Y-06900105D02*
X023599959Y-06900105D01*
X023599959Y-06900105D01*
X023599959Y-05850120D01*
X023599959Y-05850120D01*
X022299936Y-05850120D01*
X022299936Y-05850120D01*
X022299936Y-06500080D01*
X022299936Y-06500080D01*
X022949947Y-06500080D01*
X022949947Y-06500080D01*
X022949947Y-06900079D01*
X022949947Y-06900079D01*
X022949973Y-06900105D01*
X022949973Y-06900105D01*
G37*
D23*
G36*
X022299936Y-11149880D02*
X023599959Y-11149880D01*
X023599959Y-11149880D01*
X023599959Y-10099895D01*
X023599959Y-10099895D01*
X022949973Y-10099895D01*
X022949973Y-10099895D01*
X022949947Y-10099921D01*
X022949947Y-10099921D01*
X022949947Y-10499920D01*
X022949947Y-10499920D01*
X022299936Y-10499920D01*
X022299936Y-10499920D01*
X022299936Y-11149880D01*
X022299936Y-11149880D01*
G37*
D42*
X021000040Y-10199971D03*
D42*
X021000040Y-06799927D03*
D43*
X017815092Y-03000000D03*
D43*
X022184908Y-03000000D03*
D24*
X-15753364Y-05000000D03*
D24*
X-14246636Y-05000000D03*
D31*
X-19750062Y-05000000D03*
D31*
X-18249938Y-05000000D03*
D46*
X010700132Y017324750D03*
D48*
X017000094Y014799736D03*
D48*
X009399906Y014799736D03*
D46*
X011699622Y017325258D03*
D46*
X012699620Y017325258D03*
D46*
X013699618Y017325258D03*
D46*
X014699616Y017325258D03*
D46*
X015699614Y017325258D03*
D43*
X-21184908Y-09000000D03*
D43*
X-16815092Y-09000000D03*
D43*
X012815092Y008000000D03*
D43*
X017184908Y008000000D03*
D51*
X020606052Y008599942D03*
D51*
X022906022Y008599942D03*
D51*
X022906022Y001400058D03*
D51*
X020606052Y001400058D03*
D53*
X019505978Y007249932D03*
D53*
X019505978Y005750062D03*
D53*
X019505978Y002750068D03*
D24*
X003246636Y003000000D03*
D24*
X004753364Y003000000D03*
D55*
X-03000002Y000050040D03*
D55*
X-03000002Y001949960D03*
D55*
X-04999998Y001000000D03*
D24*
X-00753364Y001500000D03*
D24*
X000753364Y001500000D03*
D57*
X-11157478Y003999998D03*
D57*
X-11157478Y003499872D03*
D57*
X-11157478Y003000000D03*
D57*
X-11157478Y002499874D03*
D57*
X-11157478Y002000002D03*
D57*
X-08842522Y003999998D03*
D57*
X-08842522Y003499872D03*
D57*
X-08842522Y003000000D03*
D57*
X-08842522Y002499874D03*
D57*
X-08842522Y002000002D03*
D58*
X-10000000Y003000000D03*
D59*
X-14000000Y004350010D03*
D59*
X-14000000Y001649990D03*
D35*
X-14999998Y-01000000D03*
D35*
X-13000002Y-01000000D03*
D35*
X-09000002Y008500000D03*
D35*
X-10999998Y008500000D03*
D60*
X-07000000Y003700024D03*
D60*
X-07000000Y002299976D03*
D35*
X-09000002Y000000000D03*
D35*
X-10999998Y000000000D03*
D35*
X-09000002Y006000000D03*
D35*
X-10999998Y006000000D03*
D55*
X-17000002Y-00949960D03*
D55*
X-17000002Y000949960D03*
D55*
X-18999998Y000000000D03*
D29*
X-17299976Y003000000D03*
D29*
X-18700024Y003000000D03*
D62*
X-00749986Y005999873D03*
D62*
X000749986Y005999873D03*
D62*
X000749986Y006499999D03*
D62*
X000749986Y005500001D03*
D62*
X-00749986Y006499999D03*
D62*
X-00749986Y005500001D03*
D29*
X002200024Y008500000D03*
D29*
X000799976Y008500000D03*
D24*
X-05253364Y006000000D03*
D24*
X-03746636Y006000000D03*
D24*
X005253364Y005500000D03*
D24*
X003746636Y005500000D03*
D24*
X010253364Y010000000D03*
D24*
X008746636Y010000000D03*
D24*
X007246636Y012000000D03*
D24*
X008753364Y012000000D03*
D55*
X008999998Y005050040D03*
D55*
X008999998Y006949960D03*
D55*
X007000002Y006000000D03*
D10*
X-03200019Y021960229D02*
X-03200019Y020400000D01*
D10*
X-03200019Y020400000D02*
X-03600000Y020100000D01*
D10*
X-02400173Y021960229D02*
X-02400173Y020400000D01*
D10*
X-02400173Y020400000D02*
X-02000000Y019800000D01*
D10*
X-01750187Y021960229D02*
X-01750187Y020400000D01*
D10*
X-01750187Y020400000D02*
X-00800000Y019900000D01*
D10*
X001249807Y021960229D02*
X001249807Y020400000D01*
D10*
X001249807Y020400000D02*
X000800000Y019900000D01*
D10*
X002399919Y021960229D02*
X002399919Y020400000D01*
D10*
X002399919Y020400000D02*
X002000000Y019800000D01*
D10*
X003200019Y021960229D02*
X003200019Y020400000D01*
D10*
X003200019Y020400000D02*
X003600000Y019800000D01*
D10*
X-00753364Y019000000D02*
X-00753364Y019900000D01*
D10*
X-00753364Y019900000D02*
X-00800000Y019900000D01*
D10*
X000753364Y019000000D02*
X001753364Y019000000D01*
D10*
X001753364Y019000000D02*
X001753364Y018200000D01*
D10*
X-03246636Y019000000D02*
X-03246636Y019900000D01*
D10*
X-03246636Y019900000D02*
X-03600000Y020100000D01*
D10*
X-00799973Y011949964D02*
X-00799973Y011200000D01*
D10*
X-00799973Y011200000D02*
X-01999933Y010200000D01*
D10*
X-00399923Y011950218D02*
X-00399923Y011200000D01*
D10*
X-00399923Y011200000D02*
X-00999808Y010200000D01*
D10*
X-00000127Y011950218D02*
X-00000127Y011200000D01*
D10*
X-00000127Y011200000D02*
X-00000317Y010200000D01*
D10*
X000399923Y011950218D02*
X000399923Y011200000D01*
D10*
X000399923Y011200000D02*
X000999808Y010200000D01*
D10*
X000799973Y011950218D02*
X000799973Y011200000D01*
D10*
X000799973Y011200000D02*
X001999933Y010200000D01*
D10*
X000799973Y014050036D02*
X000799973Y014800000D01*
D10*
X000799973Y014800000D02*
X001999933Y015800000D01*
D10*
X000399923Y014050036D02*
X000399923Y014800000D01*
D10*
X000399923Y014800000D02*
X000999808Y015800000D01*
D10*
X-00000127Y014050036D02*
X-00000127Y014800000D01*
D10*
X-00000127Y014800000D02*
X-00000317Y015800000D01*
D10*
X-00799973Y014050036D02*
X-00799973Y014800000D01*
D10*
X-00799973Y014800000D02*
X-01999933Y015800000D01*
D10*
X-00000127Y013000000D02*
X-02500000Y013000000D01*
D10*
X006253364Y009000000D02*
X006253364Y007500000D01*
D10*
X004746636Y009000000D02*
X004746636Y007500000D01*
D10*
X008134907Y014783000D02*
X008324232Y014829768D01*
D10*
X008324232Y014829768D02*
X008306705Y014829768D01*
D10*
X008306705Y014829768D02*
X008243327Y014893146D01*
D10*
X008243327Y014893146D02*
X003932819Y014794151D01*
D10*
X003799976Y011500000D02*
X003800000Y009800000D01*
D10*
X005200024Y011500000D02*
X005200000Y013200000D01*
D10*
X-05753364Y016000000D02*
X-07400000Y016000000D01*
D10*
X000246636Y017000000D02*
X000246636Y017800000D01*
D10*
X001753364Y017000000D02*
X001753364Y018200000D01*
D10*
X010299976Y-08000000D02*
X009200000Y-08000000D01*
D10*
X011700024Y-08000000D02*
X013000000Y-08000000D01*
D10*
X012000000Y-05499998D02*
X010500000Y-05499998D01*
D10*
X012000000Y-03500002D02*
X014000000Y-03500002D01*
D10*
X015699614Y017325258D02*
X015699614Y019000000D01*
D10*
X014699616Y017325258D02*
X014699616Y019000000D01*
D10*
X013699618Y017325258D02*
X013699618Y019000000D01*
D10*
X012699620Y017325258D02*
X012699620Y019000000D01*
D10*
X011699622Y017325258D02*
X011699622Y019000000D01*
D10*
X010700132Y017324750D02*
X010700132Y019000000D01*
D10*
X-03000002Y001949960D02*
X-01500000Y001949960D01*
D10*
X-01500000Y001949960D02*
X-01500000Y003300000D01*
D10*
X-00753364Y001500000D02*
X-00753364Y003300000D01*
D10*
X-00753364Y003300000D02*
X-01500000Y003300000D01*
D11*
X000753364Y001500000D02*
X003000000Y001500000D01*
D10*
X-07000000Y003700024D02*
X-07000000Y005000000D01*
D10*
X-07000000Y005000000D02*
X-07500000Y005000000D01*
D10*
X-07500000Y005000000D02*
X-07500000Y006000000D01*
D12*
X-11157478Y002000002D02*
X-11157478Y001500000D01*
D12*
X-11157478Y001500000D02*
X-10999998Y000000000D01*
D12*
X-11157478Y003999998D02*
X-11157478Y004500000D01*
D12*
X-11157478Y004500000D02*
X-10999998Y006000000D01*
D13*
X-10999998Y006000000D02*
X-10999998Y008500000D01*
D12*
X-11157478Y003499872D02*
X-12000000Y003499872D01*
D12*
X-12000000Y003499872D02*
X-12800000Y004350010D01*
D14*
X-12800000Y004350010D02*
X-14000000Y004350010D01*
D12*
X-11157478Y002499874D02*
X-12000000Y002499874D01*
D12*
X-12000000Y002499874D02*
X-12800000Y001649990D01*
D14*
X-12800000Y001649990D02*
X-14000000Y001649990D01*
D12*
X-08842522Y003000000D02*
X-08000000Y003000000D01*
D12*
X-08000000Y003000000D02*
X-07000000Y002299976D01*
D11*
X-07000000Y002299976D02*
X-07000000Y-01500000D01*
D11*
X-07000000Y-01500000D02*
X-10999998Y-01500000D01*
D11*
X-10999998Y-01500000D02*
X-10999998Y000000000D01*
D15*
X-13000002Y-01000000D02*
X-12000000Y-01000000D01*
D15*
X-12000000Y-01000000D02*
X-10999998Y000000000D01*
D10*
X-08842522Y003999998D02*
X-08842522Y004700000D01*
D10*
X-08842522Y004700000D02*
X-09000000Y005000000D01*
D10*
X-09000000Y005000000D02*
X-10999998Y005000000D01*
D10*
X-10999998Y005000000D02*
X-10999998Y006000000D01*
D12*
X-11157478Y003000000D02*
X-13000000Y003000000D01*
D12*
X-08842522Y003499872D02*
X-08000000Y003499872D01*
D12*
X-08000000Y003499872D02*
X-08000000Y004800000D01*
D10*
X-08842522Y002499874D02*
X-10000000Y002499874D01*
D10*
X-10000000Y002499874D02*
X-10000000Y003000000D01*
D10*
X-10000000Y003000000D02*
X-11157478Y003000000D01*
D10*
X-11157478Y003000000D02*
X-13000000Y003000000D01*
D10*
X-09000002Y000000000D02*
X-07800000Y000000000D01*
D10*
X-09000002Y006000000D02*
X-07500000Y006000000D01*
D10*
X-09000002Y008500000D02*
X-07500000Y008500000D01*
D10*
X-14999998Y-01000000D02*
X-14999998Y-03000000D01*
D10*
X-10000000Y003000000D02*
X-11157478Y003000000D01*
D10*
X-08842522Y002000002D02*
X-07900000Y001000000D01*
D10*
X000749986Y005500001D02*
X001300000Y005500001D01*
D10*
X001300000Y005500001D02*
X002000000Y004800000D01*
D10*
X000749986Y005999873D02*
X001300000Y005999873D01*
D10*
X001300000Y005999873D02*
X002300000Y006000000D01*
D10*
X000749986Y006499999D02*
X001300000Y006499999D01*
D10*
X001300000Y006499999D02*
X002000000Y007200000D01*
D10*
X002000000Y007200000D02*
X003200000Y008400000D01*
D10*
X003200000Y008400000D02*
X003200000Y008500000D01*
D10*
X-00749986Y006499999D02*
X-01300000Y006499999D01*
D10*
X-01300000Y006499999D02*
X-02000000Y007200000D01*
D10*
X-00749986Y005999873D02*
X-01300000Y005999873D01*
D10*
X-01300000Y005999873D02*
X-02300000Y006000000D01*
D10*
X-00749986Y005500001D02*
X-01300000Y005500001D01*
D10*
X-01300000Y005500001D02*
X-02000000Y004800000D01*
D10*
X000799976Y008500000D02*
X000800000Y009400000D01*
D10*
X002200024Y008500000D02*
X003200000Y008500000D01*
D10*
X-03746636Y006000000D02*
X-03000000Y007000000D01*
D10*
X-03000000Y007000000D02*
X-03000000Y009800000D01*
D10*
X-05253364Y006000000D02*
X-05253364Y004400000D01*
D10*
X008999998Y006949960D02*
X011000000Y006949960D01*
D11*
X-04500002Y014600000D02*
X-04500002Y013400000D01*
D10*
X007249938Y024000000D02*
X007249938Y026000000D01*
D10*
X019505978Y002750068D02*
X017800000Y002750068D01*
D10*
X-16000000Y-03400000D02*
X-16000000Y000949960D01*
D10*
X-16000000Y000949960D02*
X-17000002Y000949960D01*
D10*
X-07750048Y-16375052D02*
X003066806Y-05558197D01*
D10*
X003066806Y-05558197D02*
X004769371Y-05558197D01*
D10*
X004769371Y-05558197D02*
X004941803Y-05558197D01*
D10*
X004941803Y-05558197D02*
X004958000Y-05542000D01*
D10*
X-04246636Y017400000D02*
X-04246636Y016000000D01*
D10*
X-07750048Y-10375064D02*
X-19809936Y-10375064D01*
D10*
X-19809936Y-10375064D02*
X-21184908Y-09000000D01*
D10*
X-07750048Y-10375064D02*
X-06780827Y-10375064D01*
D10*
X-06780827Y-10375064D02*
X000259999Y-04800000D01*
D10*
X000259999Y-04800000D02*
X000098999Y-04500000D01*
D10*
X010253364Y010000000D02*
X011825405Y008502266D01*
D10*
X011825405Y008502266D02*
X011936259Y006588849D01*
D10*
X011936259Y006588849D02*
X012840255Y005643969D01*
D10*
X012818462Y003914375D02*
X012710270Y003806183D01*
D10*
X012710270Y003806183D02*
X012710270Y003778124D01*
D10*
X012710270Y003778124D02*
X012180038Y003247892D01*
D10*
X012180038Y003247892D02*
X010714667Y003160413D01*
D10*
X010714667Y003160413D02*
X008999998Y005050040D01*
D10*
X002029000Y-00144000D02*
X002449166Y-00564166D01*
D10*
X002449166Y-00564166D02*
X002575744Y-00564166D01*
D10*
X002575744Y-00564166D02*
X003385792Y-00564166D01*
D10*
X003385792Y-00564166D02*
X008999998Y005050040D01*
D10*
X002300000Y006000000D02*
X003246636Y006000000D01*
D10*
X003246636Y006000000D02*
X003746636Y005500000D01*
D10*
X000090000Y004153000D02*
X000064953Y004127953D01*
D10*
X000064953Y004127953D02*
X000031058Y004127953D01*
D10*
X000031058Y004127953D02*
X000024971Y004134040D01*
D10*
X000024971Y004134040D02*
X-02242666Y004086807D01*
D10*
X-02242666Y004086807D02*
X-03020252Y004920013D01*
D10*
X-03020252Y004920013D02*
X-03000000Y009800000D01*
D10*
X-04999998Y001000000D02*
X-05677000Y001677000D01*
D10*
X-05677000Y001677000D02*
X-05946897Y001619815D01*
D10*
X003246636Y003000000D02*
X003738980Y002508020D01*
D10*
X003738980Y002508020D02*
X003740728Y001303927D01*
D10*
X003740728Y001303927D02*
X003341151Y000900498D01*
D10*
X003341151Y000900498D02*
X002328095Y000915535D01*
D10*
X002328095Y000915535D02*
X000245141Y-01179202D01*
D10*
X000245141Y-01179202D02*
X-03031894Y-01184685D01*
D10*
X-03031894Y-01184685D02*
X-04999998Y000783419D01*
D10*
X-04999998Y000783419D02*
X-04999998Y001000000D01*
D10*
X019505978Y005750062D02*
X018841108Y005055246D01*
D10*
X018841108Y005055246D02*
X012781640Y004977318D01*
D10*
X012781640Y004977318D02*
X011361799Y003623904D01*
D10*
X011361799Y003623904D02*
X010855768Y003556503D01*
D10*
X010855768Y003556503D02*
X010799965Y003665000D01*
D10*
X010799965Y003665000D02*
X010132284Y004332681D01*
D10*
X010132284Y004332681D02*
X010133051Y005092793D01*
D10*
X010133051Y005092793D02*
X009615123Y005651942D01*
D10*
X009615123Y005651942D02*
X008363259Y005627416D01*
D10*
X008363259Y005627416D02*
X007629268Y004763726D01*
D10*
X007629268Y004763726D02*
X006264106Y003327029D01*
D10*
X006264106Y003327029D02*
X005837377Y002951665D01*
D10*
X005837377Y002951665D02*
X004753000Y003000000D01*
D10*
X004753000Y003000000D02*
X004753364Y003000000D01*
D10*
X-15753364Y-05000000D02*
X-15753000Y-05000000D01*
D10*
X-15753000Y-05000000D02*
X-18249938Y-05000000D01*
D10*
X-07750048Y-18375048D02*
X-06973291Y-18292529D01*
D10*
X-06973291Y-18292529D02*
X006623422Y-04819572D01*
D10*
X006623422Y-04819572D02*
X006643462Y-01324479D01*
D10*
X006643462Y-01324479D02*
X010166825Y002198884D01*
D10*
X010166825Y002198884D02*
X010245954Y002198884D01*
D10*
X010245954Y002198884D02*
X010306346Y002259277D01*
D10*
X010992053Y004295000D02*
X011499323Y004646491D01*
D10*
X011499323Y004646491D02*
X011556816Y007202805D01*
D10*
X011556816Y007202805D02*
X011469848Y007585796D01*
D10*
X011469848Y007585796D02*
X009595126Y009420085D01*
D10*
X009595126Y009420085D02*
X009585160Y012463591D01*
D10*
X009585160Y012463591D02*
X012889287Y015877972D01*
D10*
X012889287Y015877972D02*
X013557096Y015784030D01*
D10*
X013557096Y015784030D02*
X013655825Y015882760D01*
D10*
X013655825Y015882760D02*
X013770760Y015882760D01*
D10*
X013770760Y015882760D02*
X013846000Y015885253D01*
D10*
X-00999998Y-02874952D02*
X-03197530Y-05130075D01*
D10*
X-03197530Y-05130075D02*
X-14027335Y-05130075D01*
D10*
X-14027335Y-05130075D02*
X-14174516Y-05130075D01*
D10*
X-14174516Y-05130075D02*
X-14246636Y-05000000D01*
D10*
X007750048Y-06375072D02*
X009713067Y-04452671D01*
D10*
X009713067Y-04452671D02*
X016401160Y-04437647D01*
D10*
X016401160Y-04437647D02*
X017815092Y-03000000D01*
D10*
X007750048Y-08375068D02*
X009325116Y-06800000D01*
D10*
X009325116Y-06800000D02*
X021000040Y-06799927D01*
D10*
X012993065Y015114851D02*
X012862970Y014993362D01*
D10*
X012862970Y014993362D02*
X012862970Y014980139D01*
D10*
X012862970Y014980139D02*
X012815092Y014932261D01*
D10*
X012815092Y014932261D02*
X012815092Y008000000D01*
D10*
X007750048Y-14375056D02*
X006618846Y-13333364D01*
D10*
X006618846Y-13333364D02*
X006680580Y-05854609D01*
D10*
X006680580Y-05854609D02*
X007444537Y-05127987D01*
D10*
X007444537Y-05127987D02*
X008469203Y-05169127D01*
D10*
X008469203Y-05169127D02*
X008592798Y-05115865D01*
D10*
X008592798Y-05115865D02*
X013962351Y000304605D01*
D10*
X013962351Y000304605D02*
X013962089Y004462574D01*
D10*
X013962089Y004462574D02*
X014021039Y004521523D01*
D10*
X014021039Y004521523D02*
X014098285Y004456629D01*
D10*
X013996608Y005788226D02*
X013996608Y006818392D01*
D10*
X013996608Y006818392D02*
X012815092Y008000000D01*
D10*
X008753364Y023000000D02*
X008750062Y023002938D01*
D10*
X008750062Y023002938D02*
X008750062Y026000000D01*
D10*
X-01562256Y012260000D02*
X-02930672Y011000000D01*
D10*
X-02930672Y011000000D02*
X-04299976Y011000000D01*
D10*
X007246636Y012000000D02*
X005422187Y010175187D01*
D10*
X005422187Y010175187D02*
X005422187Y007379062D01*
D10*
X005422187Y007379062D02*
X006801249Y006000000D01*
D10*
X006801249Y006000000D02*
X007000002Y006000000D01*
D10*
X000999808Y010200000D02*
X001575125Y009624683D01*
D10*
X001575125Y009624683D02*
X003127012Y009624683D01*
D10*
X003127012Y009624683D02*
X003127012Y009628011D01*
D10*
X003127012Y009628011D02*
X002945407Y009639984D01*
D10*
X004875000Y010160000D02*
X005671330Y010424330D01*
D10*
X005671330Y010424330D02*
X007246636Y012000000D01*
D10*
X-00994000Y024420000D02*
X-04132423Y024426607D01*
D10*
X-04132423Y024426607D02*
X-05122043Y023507041D01*
D10*
X-05122043Y023507041D02*
X-05080932Y019327932D01*
D10*
X-05080932Y019327932D02*
X-04753364Y019000000D01*
D10*
X-10999998Y006000000D02*
X-10999998Y006093750D01*
D10*
X-10999998Y006093750D02*
X-10999998Y006187500D01*
D10*
X-10999998Y006187500D02*
X-10999998Y006281250D01*
D10*
X-10999998Y006281250D02*
X-10999998Y006375000D01*
D10*
X-10999998Y006375000D02*
X-10999998Y006468750D01*
D10*
X-10999998Y006468750D02*
X-10999998Y006562500D01*
D10*
X-10999998Y006562500D02*
X-10999998Y006575000D01*
D10*
X-10999998Y006575000D02*
X-10999998Y006656250D01*
D16*
X-10999998Y006656250D02*
X-10999998Y006750000D01*
D17*
X-10999998Y006750000D02*
X-10999998Y008499998D01*
D17*
X-10999998Y008499998D02*
X-11000000Y008500000D01*
D12*
X007750048Y-04375076D02*
X004394046Y-07567069D01*
D12*
X004394046Y-07567069D02*
X004475035Y-07700959D01*
D12*
X007750048Y-04375076D02*
X004394039Y-07567076D01*
D12*
X004394039Y-07567076D02*
X004475035Y-07700959D01*
D12*
X-12393022Y005617446D02*
X-12334155Y005600000D01*
D12*
X-12334155Y005600000D02*
X-11934155Y006000000D01*
D12*
X-11934155Y006000000D02*
X-10999998Y006000000D01*
D10*
X007750048Y-04375076D02*
X007750048Y-02237852D01*
D10*
X007750048Y-02237852D02*
X011718761Y001730860D01*
D10*
X011718761Y001730860D02*
X011718761Y001771761D01*
D10*
X011718761Y001771761D02*
X011720000Y001773000D01*
D10*
X015026000Y015817561D02*
X015700000Y016504000D01*
D10*
X015700000Y016504000D02*
X015700000Y019000000D01*
D11*
X-18999998Y000000000D02*
X-18999998Y002700002D01*
D11*
X-18999998Y002700002D02*
X-18700024Y003000000D01*
D11*
X-10999998Y000000000D02*
X-10810097Y-00190501D01*
D11*
X-10810097Y-00190501D02*
X-10620196Y-00381001D01*
D11*
X-10620196Y-00381001D02*
X-10430296Y-00571502D01*
D11*
X-10430296Y-00571502D02*
X-10240395Y-00762003D01*
D11*
X-10240395Y-00762003D02*
X-10050494Y-00952504D01*
D11*
X-10050494Y-00952504D02*
X-08400000Y-01125000D01*
D11*
X-08400000Y-01125000D02*
X-08109271Y-00952504D01*
D11*
X-08109271Y-00952504D02*
X-07831953Y-00952504D01*
D11*
X-07831953Y-00952504D02*
X-07554635Y-00952504D01*
D11*
X-07554635Y-00952504D02*
X-07277318Y-00952504D01*
D11*
X-07277318Y-00952504D02*
X-07000000Y-00952504D01*
D11*
X-07000000Y-00952504D02*
X-07000000Y-00656821D01*
D11*
X-07000000Y-00656821D02*
X-07000000Y-00361139D01*
D11*
X-07000000Y-00361139D02*
X-07000000Y-00065457D01*
D11*
X-07000000Y-00065457D02*
X-07000000Y000230225D01*
D11*
X-07000000Y000230225D02*
X-07000000Y000525907D01*
D11*
X-07000000Y000525907D02*
X-07000000Y000821589D01*
D11*
X-07000000Y000821589D02*
X-07000000Y001117271D01*
D11*
X-07000000Y001117271D02*
X-07000000Y001412954D01*
D11*
X-07000000Y001412954D02*
X-07000000Y001708636D01*
D11*
X-07000000Y001708636D02*
X-07000000Y002004318D01*
D11*
X-07000000Y002004318D02*
X-07000000Y002300000D01*
D11*
X-07000000Y002300000D02*
X-07000000Y002299976D01*
D11*
X-10999998Y000000000D02*
X-11285999Y-00006035D01*
D11*
X-11285999Y-00006035D02*
X-11572000Y-00012071D01*
D11*
X-11572000Y-00012071D02*
X-11858001Y-00018106D01*
D11*
X-11858001Y-00018106D02*
X-12144003Y-00024142D01*
D11*
X-12144003Y-00024142D02*
X-12430004Y-00030177D01*
D11*
X-12430004Y-00030177D02*
X-12716005Y-00036212D01*
D11*
X-12716005Y-00036212D02*
X-13002006Y-00042248D01*
D11*
X-13002006Y-00042248D02*
X-13288007Y-00048283D01*
D11*
X-13288007Y-00048283D02*
X-13574008Y-00054318D01*
D11*
X-13574008Y-00054318D02*
X-13860010Y-00060354D01*
D11*
X-13860010Y-00060354D02*
X-15152737Y000171733D01*
D11*
X-15152737Y000171733D02*
X-15301460Y000427962D01*
D11*
X-15301460Y000427962D02*
X-15450183Y000684190D01*
D17*
X-15450183Y000684190D02*
X-15637500Y000900000D01*
D17*
X-15637500Y000900000D02*
X-15637500Y001125000D01*
D17*
X-15637500Y001125000D02*
X-15766926Y001288938D01*
D17*
X-15766926Y001288938D02*
X-15896352Y001452876D01*
D11*
X-15896352Y001452876D02*
X-16045075Y001709105D01*
D11*
X-16045075Y001709105D02*
X-16337488Y001689982D01*
D11*
X-16337488Y001689982D02*
X-16629900Y001670858D01*
D11*
X-16629900Y001670858D02*
X-16922312Y001651734D01*
D11*
X-16922312Y001651734D02*
X-17214724Y001632611D01*
D11*
X-17214724Y001632611D02*
X-17550000Y001650000D01*
D11*
X-17550000Y001650000D02*
X-17850000Y001350000D01*
D11*
X-17850000Y001350000D02*
X-17904373Y001201135D01*
D11*
X-17904373Y001201135D02*
X-18102991Y000994959D01*
D11*
X-18102991Y000994959D02*
X-18301609Y000788783D01*
D11*
X-18301609Y000788783D02*
X-18500228Y000582607D01*
D11*
X-18500228Y000582607D02*
X-18698846Y000376430D01*
D11*
X-18698846Y000376430D02*
X-18694553Y000305447D01*
D11*
X-18694553Y000305447D02*
X-18847275Y000152724D01*
D11*
X-18847275Y000152724D02*
X-18999998Y000000000D01*
D11*
X-17999991Y012500001D02*
X-18004728Y012207686D01*
D11*
X-18004728Y012207686D02*
X-18009465Y011915370D01*
D11*
X-18009465Y011915370D02*
X-18014202Y011623055D01*
D11*
X-18014202Y011623055D02*
X-18018939Y011330739D01*
D11*
X-18018939Y011330739D02*
X-18023676Y011038424D01*
D11*
X-18023676Y011038424D02*
X-18028412Y010746108D01*
D11*
X-18028412Y010746108D02*
X-18033149Y010453793D01*
D11*
X-18033149Y010453793D02*
X-18037886Y010161477D01*
D11*
X-18037886Y010161477D02*
X-18042623Y009869162D01*
D11*
X-18042623Y009869162D02*
X-18047360Y009576846D01*
D11*
X-18047360Y009576846D02*
X-18052097Y009284531D01*
D11*
X-18052097Y009284531D02*
X-18056834Y008992215D01*
D11*
X-18056834Y008992215D02*
X-18061571Y008699900D01*
D11*
X-18061571Y008699900D02*
X-18066307Y008407585D01*
D11*
X-18066307Y008407585D02*
X-18000000Y007500000D01*
D11*
X-18000000Y007500000D02*
X-18089992Y006946007D01*
D11*
X-18089992Y006946007D02*
X-18094729Y006653692D01*
D11*
X-18094729Y006653692D02*
X-18099465Y006361376D01*
D11*
X-18099465Y006361376D02*
X-18104202Y006069061D01*
D11*
X-18104202Y006069061D02*
X-18108939Y005776745D01*
D11*
X-18108939Y005776745D02*
X-18113676Y005484430D01*
D11*
X-18113676Y005484430D02*
X-18118413Y005192115D01*
D11*
X-18118413Y005192115D02*
X-18123150Y004899799D01*
D11*
X-18123150Y004899799D02*
X-18814142Y003817896D01*
D11*
X-18814142Y003817896D02*
X-18985706Y003620500D01*
D11*
X-18985706Y003620500D02*
X-18983371Y003450767D01*
D11*
X-18983371Y003450767D02*
X-18981035Y003281035D01*
D11*
X-18981035Y003281035D02*
X-18840530Y003140518D01*
D11*
X-18840530Y003140518D02*
X-18700024Y003000000D01*
D11*
X-03823000Y007399000D02*
X-03886324Y007335676D01*
D11*
X-03886324Y007335676D02*
X-04168078Y007336507D01*
D11*
X-04168078Y007336507D02*
X-04449832Y007337338D01*
D11*
X-04449832Y007337338D02*
X-04731586Y007338170D01*
D11*
X-04731586Y007338170D02*
X-05013340Y007339001D01*
D11*
X-05013340Y007339001D02*
X-05193582Y007175623D01*
D11*
X-05193582Y007175623D02*
X-05373825Y007012245D01*
D11*
X-05373825Y007012245D02*
X-06000000Y006600000D01*
D11*
X-06000000Y006600000D02*
X-06000000Y005700000D01*
D11*
X-06000000Y005700000D02*
X-05890469Y005172865D01*
D11*
X-05890469Y005172865D02*
X-05885968Y004884220D01*
D11*
X-05885968Y004884220D02*
X-05881468Y004595575D01*
D11*
X-05881468Y004595575D02*
X-05876967Y004306930D01*
D11*
X-05876967Y004306930D02*
X-05872467Y004018285D01*
D11*
X-05872467Y004018285D02*
X-05867966Y003729639D01*
D11*
X-05867966Y003729639D02*
X-05863465Y003440994D01*
D11*
X-05863465Y003440994D02*
X-06052888Y003250825D01*
D11*
X-06052888Y003250825D02*
X-06242310Y003060655D01*
D11*
X-06242310Y003060655D02*
X-06431733Y002870485D01*
D11*
X-06431733Y002870485D02*
X-06621155Y002680315D01*
D11*
X-06621155Y002680315D02*
X-06810578Y002490146D01*
D11*
X-06810578Y002490146D02*
X-07000000Y002299976D01*
D11*
X006260000Y015595596D02*
X006521001Y015515001D01*
D11*
X006521001Y015515001D02*
X006545279Y015515001D01*
D11*
X006545279Y015515001D02*
X006740267Y015709989D01*
D11*
X006740267Y015709989D02*
X006935254Y015904977D01*
D11*
X006935254Y015904977D02*
X007130242Y016099964D01*
D11*
X007130242Y016099964D02*
X007325230Y016294952D01*
D11*
X007325230Y016294952D02*
X007520217Y016489940D01*
D11*
X007520217Y016489940D02*
X007715205Y016684928D01*
D11*
X007715205Y016684928D02*
X007910193Y016879915D01*
D11*
X007910193Y016879915D02*
X008105181Y017074903D01*
D11*
X008105181Y017074903D02*
X008300168Y017269891D01*
D11*
X008300168Y017269891D02*
X008495156Y017464878D01*
D11*
X008495156Y017464878D02*
X008690144Y017659866D01*
D11*
X008690144Y017659866D02*
X009332034Y017854801D01*
D11*
X009332034Y017854801D02*
X009333355Y018134945D01*
D11*
X009333355Y018134945D02*
X009334675Y018415088D01*
D11*
X009334675Y018415088D02*
X009335996Y018695231D01*
D11*
X009335996Y018695231D02*
X009337316Y018975374D01*
D11*
X009337316Y018975374D02*
X009338636Y019255517D01*
D11*
X009338636Y019255517D02*
X009450000Y019350000D01*
D11*
X009450000Y019350000D02*
X009450000Y020400000D01*
D11*
X009450000Y020400000D02*
X009345238Y020656233D01*
D11*
X009345238Y020656233D02*
X009346559Y020936376D01*
D11*
X009346559Y020936376D02*
X009136567Y021142738D01*
D11*
X009136567Y021142738D02*
X008926574Y021349101D01*
D11*
X008926574Y021349101D02*
X008716582Y021555463D01*
D11*
X008716582Y021555463D02*
X008506590Y021761825D01*
D11*
X008506590Y021761825D02*
X008296597Y021968188D01*
D11*
X008296597Y021968188D02*
X008086605Y022174550D01*
D11*
X008086605Y022174550D02*
X007876613Y022380913D01*
D11*
X007876613Y022380913D02*
X007666621Y022587275D01*
D11*
X007666621Y022587275D02*
X007456628Y022793638D01*
D11*
X007456628Y022793638D02*
X007246636Y023000000D01*
D11*
X008746636Y010000000D02*
X008746636Y011993636D01*
D11*
X008746636Y011993636D02*
X008753364Y012000000D01*
D11*
X-00023228Y007160000D02*
X-00452000Y008148000D01*
D11*
X-00452000Y008148000D02*
X000269670Y008869670D01*
D11*
X000269670Y008869670D02*
X000335961Y008935961D01*
D11*
X000335961Y008935961D02*
X000402252Y009002252D01*
D11*
X000402252Y009002252D02*
X000468544Y009068544D01*
D11*
X000468544Y009068544D02*
X000534835Y009134835D01*
D11*
X000534835Y009134835D02*
X000601126Y009201126D01*
D11*
X000601126Y009201126D02*
X000667417Y009267417D01*
D11*
X000667417Y009267417D02*
X000725000Y009325000D01*
D11*
X000725000Y009325000D02*
X000733709Y009333709D01*
D11*
X000733709Y009333709D02*
X000800000Y009400000D01*
D11*
X002999000Y024028000D02*
X003065483Y024094483D01*
D11*
X003065483Y024094483D02*
X003068920Y024094483D01*
D11*
X003068920Y024094483D02*
X003187768Y024213330D01*
D11*
X003187768Y024213330D02*
X003306615Y024332178D01*
D11*
X003306615Y024332178D02*
X003604367Y024332186D01*
D11*
X003604367Y024332186D02*
X003902120Y024332194D01*
D11*
X003902120Y024332194D02*
X004199872Y024332203D01*
D11*
X004199872Y024332203D02*
X004497624Y024332211D01*
D11*
X004497624Y024332211D02*
X004795377Y024332219D01*
D11*
X004795377Y024332219D02*
X005093129Y024332228D01*
D11*
X005093129Y024332228D02*
X005094427Y024067652D01*
D11*
X005094427Y024067652D02*
X005303189Y022014203D01*
D11*
X005303189Y022014203D02*
X005502867Y021812783D01*
D11*
X005502867Y021812783D02*
X005702546Y021611362D01*
D11*
X005702546Y021611362D02*
X005902225Y021409942D01*
D11*
X005902225Y021409942D02*
X006101904Y021208522D01*
D11*
X006101904Y021208522D02*
X006301582Y021007102D01*
D11*
X006301582Y021007102D02*
X006501261Y020805681D01*
D11*
X006501261Y020805681D02*
X006700940Y020604261D01*
D11*
X006700940Y020604261D02*
X006900619Y020402841D01*
D11*
X006900619Y020402841D02*
X007100297Y020201420D01*
D11*
X007100297Y020201420D02*
X007299976Y020000000D01*
D11*
X-03000002Y000050040D02*
X-02818078Y000231954D01*
D11*
X-02818078Y000231954D02*
X-02636154Y000413867D01*
D11*
X-02636154Y000413867D02*
X-02454229Y000595781D01*
D11*
X-02454229Y000595781D02*
X-02272305Y000777695D01*
D11*
X-02272305Y000777695D02*
X-01993211Y000774772D01*
D11*
X-01993211Y000774772D02*
X-01714118Y000771849D01*
D11*
X-01714118Y000771849D02*
X-01435024Y000768925D01*
D11*
X-01435024Y000768925D02*
X-01155931Y000766002D01*
D11*
X-01155931Y000766002D02*
X-00876837Y000763079D01*
D11*
X-00876837Y000763079D02*
X-00597743Y000760156D01*
D11*
X-00597743Y000760156D02*
X-00318650Y000757233D01*
D11*
X-00318650Y000757233D02*
X-00300000Y000750000D01*
D11*
X-00300000Y000750000D02*
X000000000Y000900000D01*
D11*
X000000000Y000900000D02*
X-00002505Y001354312D01*
D11*
X-00002505Y001354312D02*
X000011474Y001643074D01*
D11*
X000011474Y001643074D02*
X000025453Y001931836D01*
D11*
X000025453Y001931836D02*
X000039431Y002220598D01*
D11*
X000039431Y002220598D02*
X000053410Y002509359D01*
D11*
X-03000002Y000050040D02*
X-02995742Y000054258D01*
D11*
X-02995742Y000054258D02*
X-02722146Y000049598D01*
D11*
X-02722146Y000049598D02*
X-02448551Y000044939D01*
D11*
X-02448551Y000044939D02*
X-02174955Y000040279D01*
D11*
X-02174955Y000040279D02*
X-01901359Y000035619D01*
D11*
X-01901359Y000035619D02*
X-01627764Y000030959D01*
D11*
X-01627764Y000030959D02*
X-01354168Y000026299D01*
D11*
X-01354168Y000026299D02*
X-01080573Y000021640D01*
D11*
X-01080573Y000021640D02*
X-00871317Y000225426D01*
D11*
X-00871317Y000225426D02*
X-00662062Y000429212D01*
D11*
X-00662062Y000429212D02*
X-00452807Y000632998D01*
D11*
X-00452807Y000632998D02*
X-00150000Y000750000D01*
D11*
X-00150000Y000750000D02*
X000174959Y001244356D01*
D11*
X000174959Y001244356D02*
X000384214Y001448142D01*
D11*
X000384214Y001448142D02*
X000674857Y001453904D01*
D11*
X000674857Y001453904D02*
X000965500Y001459666D01*
D11*
X000965500Y001459666D02*
X001256143Y001465428D01*
D11*
X001256143Y001465428D02*
X001546786Y001471190D01*
D11*
X001546786Y001471190D02*
X001837429Y001476952D01*
D11*
X001837429Y001476952D02*
X002128071Y001482714D01*
D11*
X002128071Y001482714D02*
X002418714Y001488476D01*
D11*
X002418714Y001488476D02*
X002709357Y001494238D01*
D11*
X002709357Y001494238D02*
X003000000Y001500000D01*
D11*
X-02090083Y009235000D02*
X-02255000Y009400000D01*
D11*
X-02255000Y009400000D02*
X-02200000Y009400000D01*
D11*
X-02200000Y009400000D02*
X-01900000Y009400000D01*
D11*
X-01900000Y009400000D02*
X-01600000Y009400000D01*
D11*
X-01600000Y009400000D02*
X-01300000Y009400000D01*
D11*
X-01300000Y009400000D02*
X-01000000Y009400000D01*
D11*
X-01000000Y009400000D02*
X-00700000Y009400000D01*
D11*
X-00700000Y009400000D02*
X-00400000Y009400000D01*
D11*
X-00400000Y009400000D02*
X-00100000Y009400000D01*
D11*
X-00100000Y009400000D02*
X000200000Y009400000D01*
D11*
X000200000Y009400000D02*
X000500000Y009400000D01*
D11*
X000500000Y009400000D02*
X000800000Y009400000D01*
D11*
X000800000Y009400000D02*
X000590758Y009190758D01*
D11*
X000590758Y009190758D02*
X000381517Y008981517D01*
D11*
X000381517Y008981517D02*
X000172275Y008772275D01*
D11*
X000172275Y008772275D02*
X000170701Y008483260D01*
D11*
X000170701Y008483260D02*
X000169127Y008194244D01*
D11*
X000169127Y008194244D02*
X000167554Y007905228D01*
D11*
X000167554Y007905228D02*
X000165980Y007616213D01*
D11*
X000165980Y007616213D02*
X000164406Y007327197D01*
D11*
X000164406Y007327197D02*
X000162832Y007038182D01*
D11*
X000162832Y007038182D02*
X000161258Y006749166D01*
D11*
X000161258Y006749166D02*
X000000000Y006450000D01*
D11*
X000000000Y006450000D02*
X000153388Y005304088D01*
D11*
X000153388Y005304088D02*
X000131250Y005184375D01*
D11*
X000131250Y005184375D02*
X000755860Y004716220D01*
D11*
X000755860Y004716220D02*
X000956684Y004520264D01*
D11*
X000956684Y004520264D02*
X001157507Y004324308D01*
D11*
X001157507Y004324308D02*
X001358331Y004128353D01*
D11*
X001358331Y004128353D02*
X001559155Y003932397D01*
D11*
X001559155Y003932397D02*
X001595913Y003917766D01*
D11*
X001595913Y003917766D02*
X001883886Y003911460D01*
D11*
X001883886Y003911460D02*
X002171859Y003905154D01*
D11*
X002171859Y003905154D02*
X002459832Y003898848D01*
D11*
X002459832Y003898848D02*
X002747804Y003892542D01*
D11*
X002747804Y003892542D02*
X003035777Y003886236D01*
D11*
X003035777Y003886236D02*
X003323750Y003879930D01*
D11*
X003323750Y003879930D02*
X003611723Y003873624D01*
D11*
X003611723Y003873624D02*
X003899696Y003867318D01*
D11*
X003899696Y003867318D02*
X004187669Y003861012D01*
D11*
X004187669Y003861012D02*
X004475641Y003854706D01*
D11*
X004475641Y003854706D02*
X004763614Y003848400D01*
D11*
X004763614Y003848400D02*
X005051587Y003842094D01*
D11*
X005051587Y003842094D02*
X005339560Y003835788D01*
D11*
X005339560Y003835788D02*
X005627533Y003829482D01*
D11*
X005627533Y003829482D02*
X005915506Y003823176D01*
D11*
X005915506Y003823176D02*
X006203479Y003816870D01*
D11*
X006203479Y003816870D02*
X006396373Y004018340D01*
D11*
X006396373Y004018340D02*
X006589267Y004219811D01*
D11*
X006589267Y004219811D02*
X006782161Y004421281D01*
D11*
X006782161Y004421281D02*
X007800000Y005550000D01*
D11*
X007800000Y005550000D02*
X007900000Y006050000D01*
D11*
X007900000Y006050000D02*
X007737918Y006607625D01*
D11*
X007737918Y006607625D02*
X007735740Y006902373D01*
D11*
X007735740Y006902373D02*
X007733561Y007197121D01*
D11*
X007733561Y007197121D02*
X007731383Y007491869D01*
D11*
X007731383Y007491869D02*
X007729205Y007786617D01*
D11*
X007729205Y007786617D02*
X007727026Y008081365D01*
D11*
X007727026Y008081365D02*
X007724848Y008376113D01*
D11*
X007724848Y008376113D02*
X007722670Y008670861D01*
D11*
X007722670Y008670861D02*
X007720491Y008965609D01*
D11*
X007720491Y008965609D02*
X007925720Y009172487D01*
D11*
X007925720Y009172487D02*
X008130949Y009379366D01*
D11*
X008130949Y009379366D02*
X008336178Y009586244D01*
D11*
X008336178Y009586244D02*
X008541407Y009793122D01*
D11*
X008541407Y009793122D02*
X008746636Y010000000D01*
D10*
X-11157000Y003000000D02*
X-13000000Y003000000D01*
D10*
X021000040Y-10199971D02*
X022525031Y-10199971D01*
D10*
X022525031Y-10199971D02*
X022949947Y-10624888D01*
D10*
X005703055Y004557838D02*
X005702865Y005050499D01*
D10*
X005702865Y005050499D02*
X005253364Y005500000D01*
D10*
X017184908Y008000000D02*
X017935068Y007249932D01*
D10*
X017935068Y007249932D02*
X019505978Y007249932D01*
D10*
X003600000Y019800000D02*
X003353364Y019800000D01*
D10*
X003353364Y019800000D02*
X001753364Y018200000D01*
D10*
X-07400000Y016000000D02*
X-06499998Y015099998D01*
D10*
X-06499998Y015099998D02*
X-06499998Y013400000D01*
D10*
X-16740000Y-01825000D02*
X-16700000Y-01250000D01*
D10*
X-16700000Y-01250000D02*
X-17000002Y-00949960D01*
D10*
X003783404Y007151542D02*
X004005177Y007227823D01*
D10*
X004005177Y007227823D02*
X004005177Y007360976D01*
D10*
X004005177Y007360976D02*
X003200000Y008166153D01*
D10*
X003200000Y008166153D02*
X003200000Y008500000D01*
D10*
X006178398Y023140317D02*
X006429944Y023103666D01*
D10*
X006429944Y023103666D02*
X006429944Y023058026D01*
D10*
X006429944Y023058026D02*
X006429944Y022270080D01*
D10*
X006429944Y022270080D02*
X008700024Y020000000D01*
D10*
X022949947Y-06375112D02*
X022184908Y-05610073D01*
D10*
X022184908Y-05610073D02*
X022184908Y-03000000D01*
D10*
X-21875015Y011200029D02*
X-21875015Y014799971D01*
D10*
X-08000000Y004800000D02*
X-07932869Y004049457D01*
D10*
X-07932869Y004049457D02*
X-08676551Y003392776D01*
D10*
X-08676551Y003392776D02*
X-10496968Y003346418D01*
D10*
X-10496968Y003346418D02*
X-10878245Y002970067D01*
D10*
X-10878245Y002970067D02*
X-11157478Y003000000D01*
D10*
X019505978Y007249932D02*
X020855942Y008599942D01*
D10*
X020855942Y008599942D02*
X022906022Y008599942D01*
D10*
X-17000002Y-00949960D02*
X-19188442Y-00953990D01*
D10*
X-19188442Y-00953990D02*
X-19778509Y-00390986D01*
D10*
X-19778509Y-00390986D02*
X-19761066Y000546000D01*
D10*
X-19761066Y000546000D02*
X-19718533Y000588533D01*
D10*
X-19718533Y000588533D02*
X-19936470Y000826719D01*
D10*
X-17923562Y003998178D02*
X-18000000Y003700024D01*
D10*
X-18000000Y003700024D02*
X-17299976Y003000000D01*
D10*
X-17999991Y013499999D02*
X-20574999Y013499999D01*
D10*
X-20574999Y013499999D02*
X-21875015Y014799971D01*
D10*
X022949947Y-10624888D02*
X023199947Y-06625112D01*
D10*
X023199947Y-06625112D02*
X022949947Y-06375112D01*
D10*
X-13000000Y003000000D02*
X-17300000Y003000000D01*
D10*
X-17300000Y003000000D02*
X-17299976Y003000000D01*
D10*
X-07750048Y-04375076D02*
X-06471009Y-03096009D01*
D10*
X-06471009Y-03096009D02*
X-06229454Y-01889055D01*
D10*
X002000000Y010200000D02*
X002172813Y010372813D01*
D10*
X002172813Y010372813D02*
X002172813Y011127918D01*
D10*
X002172813Y011127918D02*
X004244895Y013200000D01*
D10*
X004244895Y013200000D02*
X005200000Y013200000D01*
D10*
X005200000Y013200000D02*
X007800000Y013200000D01*
D10*
X007800000Y013200000D02*
X009399906Y014799736D01*
D10*
X-11157000Y003000000D02*
X-10827488Y002972867D01*
D10*
X-10827488Y002972867D02*
X-07800000Y000000000D01*
D10*
X-19750062Y-05000000D02*
X-17000002Y-02250002D01*
D10*
X-17000002Y-02250002D02*
X-17000002Y-00949960D01*
D10*
X-19750062Y-05000000D02*
X-16815092Y-07934970D01*
D10*
X-16815092Y-07934970D02*
X-16815092Y-09000000D01*
D10*
X-06499998Y013400000D02*
X-07500000Y012400000D01*
D10*
X-07500000Y012400000D02*
X-07500000Y008500000D01*
D10*
X008700024Y020000000D02*
X008702176Y019997848D01*
D10*
X008702176Y019997848D02*
X008702176Y018382938D01*
D10*
X008700024Y020000000D02*
X008702176Y019997848D01*
D10*
X008702176Y019997848D02*
X008702176Y018382938D01*
D10*
X008972000Y016353000D02*
X008983409Y016341591D01*
D10*
X008983409Y016341591D02*
X009399906Y015925094D01*
D10*
X009399906Y015925094D02*
X009399906Y014799736D01*
D10*
X-07400000Y016000000D02*
X-05700024Y014300024D01*
D10*
X-05700024Y014300024D02*
X-05700024Y011000000D01*
D10*
X001999933Y010200000D02*
X001999933Y011780528D01*
D10*
X001999933Y011780528D02*
X001555230Y012225230D01*
D10*
X001555230Y012225230D02*
X001581000Y012251000D01*
D10*
X013700000Y019000000D02*
X015000409Y020300409D01*
D10*
X015000409Y020300409D02*
X015000409Y020725474D01*
D10*
X015000409Y020725474D02*
X017000094Y018725789D01*
D10*
X017000094Y018725789D02*
X017000094Y014799736D01*
D10*
X-03600000Y020100000D02*
X-01822165Y018322165D01*
D10*
X-01822165Y018322165D02*
X-01445259Y018296284D01*
D10*
X-01445259Y018296284D02*
X001630252Y018390791D01*
D10*
X001630252Y018390791D02*
X001753364Y018200000D01*
D10*
X017000094Y014799736D02*
X017184908Y014615092D01*
D10*
X017184908Y014615092D02*
X017184908Y008000000D01*
D10*
X013000000Y-08000000D02*
X018800000Y-08000000D01*
D10*
X018800000Y-08000000D02*
X021000040Y-10199971D01*
D10*
X-21875015Y011200029D02*
X-18636000Y007961000D01*
D10*
X-18636000Y007961000D02*
X-18636000Y007742000D01*
D10*
X-17364000Y005879814D02*
X-17485642Y005861642D01*
D10*
X-17485642Y005861642D02*
X-17299976Y005675976D01*
D10*
X-17299976Y005675976D02*
X-17299976Y003000000D01*
D10*
X022184908Y-03000000D02*
X020536969Y-01351969D01*
D10*
X020536969Y-01351969D02*
X020521723Y-01182953D01*
D10*
X020521723Y-01182953D02*
X020510553Y006218933D01*
D10*
X020510553Y006218933D02*
X019505978Y007249932D01*
D13*
X-03600000Y020100000D03*
D13*
X-02000000Y019800000D03*
D13*
X-00800000Y019900000D03*
D13*
X000800000Y019900000D03*
D13*
X002000000Y019800000D03*
D13*
X003600000Y019800000D03*
D13*
X-01999933Y010200000D03*
D13*
X-00999808Y010200000D03*
D13*
X-00000317Y010200000D03*
D13*
X000999808Y010200000D03*
D13*
X001999933Y010200000D03*
D13*
X001999933Y015800000D03*
D13*
X000999808Y015800000D03*
D13*
X-00000317Y015800000D03*
D13*
X-01999933Y015800000D03*
D13*
X-02500000Y013000000D03*
D13*
X006253364Y007500000D03*
D13*
X004746636Y007500000D03*
D13*
X008134907Y014783000D03*
D13*
X003932819Y014794151D03*
D13*
X003800000Y009800000D03*
D13*
X005200000Y013200000D03*
D13*
X-07400000Y016000000D03*
D13*
X000246636Y017800000D03*
D13*
X001753364Y018200000D03*
D13*
X009200000Y-08000000D03*
D13*
X013000000Y-08000000D03*
D13*
X010500000Y-05499998D03*
D13*
X014000000Y-03500002D03*
D13*
X015699614Y019000000D03*
D13*
X014699616Y019000000D03*
D13*
X013699618Y019000000D03*
D13*
X012699620Y019000000D03*
D13*
X011699622Y019000000D03*
D13*
X010700132Y019000000D03*
D13*
X-01500000Y003300000D03*
D13*
X003000000Y001500000D03*
D13*
X-13000000Y003000000D03*
D13*
X-08000000Y004800000D03*
D13*
X-07800000Y000000000D03*
D13*
X-07500000Y006000000D03*
D13*
X-07500000Y008500000D03*
D13*
X-14999998Y-03000000D03*
D13*
X-07900000Y001000000D03*
D13*
X002000000Y004800000D03*
D13*
X002300000Y006000000D03*
D13*
X-02000000Y007200000D03*
D13*
X-02300000Y006000000D03*
D13*
X-02000000Y004800000D03*
D13*
X000800000Y009400000D03*
D13*
X003200000Y008500000D03*
D13*
X-03000000Y009800000D03*
D13*
X-05253364Y004400000D03*
D13*
X011000000Y006949960D03*
D13*
X-04500002Y014600000D03*
D13*
X007249938Y024000000D03*
D13*
X017800000Y002750068D03*
D13*
X-16000000Y-03400000D03*
D13*
X004958000Y-05542000D03*
D13*
X-04246636Y017400000D03*
D13*
X000098999Y-04500000D03*
D13*
X012840255Y005643969D03*
D13*
X012818462Y003914375D03*
D13*
X002029000Y-00144000D03*
D13*
X000090000Y004153000D03*
D13*
X-05946897Y001619815D03*
D13*
X010306346Y002259277D03*
D13*
X010992053Y004295000D03*
D13*
X013846000Y015885253D03*
D13*
X012993065Y015114851D03*
D13*
X014098285Y004456629D03*
D13*
X013996608Y005788226D03*
D13*
X-01562256Y012260000D03*
D13*
X002945407Y009639984D03*
D13*
X004875000Y010160000D03*
D13*
X-00994000Y024420000D03*
D13*
X004475035Y-07700959D03*
D13*
X-12393022Y005617446D03*
D13*
X011720000Y001773000D03*
D13*
X015026000Y015817561D03*
D13*
X-03823000Y007399000D03*
D13*
X006260000Y015595596D03*
D13*
X-00023228Y007160000D03*
D13*
X002999000Y024028000D03*
D13*
X000053410Y002509359D03*
D13*
X-02090083Y009235000D03*
D13*
X005703055Y004557838D03*
D13*
X-16740000Y-01825000D03*
D13*
X003783404Y007151542D03*
D13*
X006178398Y023140317D03*
D13*
X-19936470Y000826719D03*
D13*
X-17923562Y003998178D03*
D13*
X-06229454Y-01889055D03*
D13*
X008702176Y018382938D03*
D13*
X008972000Y016353000D03*
D13*
X001581000Y012251000D03*
D13*
X-18636000Y007742000D03*
D13*
X-17364000Y005879814D03*
%LPC*%
D41*
X022300012Y-09349833D03*
%LPD*%
%LPC*%
D41*
X022300012Y-07649811D03*
%LPD*%
%LPC*%
D50*
X021756164Y003500130D03*
%LPD*%
%LPC*%
D50*
X021756164Y006500124D03*
%LPD*%
%LPC*%
D64*
X-21000000Y025000000D03*
%LPD*%
%LPC*%
D64*
X021000000Y025000000D03*
%LPD*%
%LPC*%
D64*
X-21000000Y-14000000D03*
%LPD*%
%LPC*%
D64*
X021000000Y-14000000D03*
%LPD*%
M02*