%TF.GenerationSoftware,tscircuit,circuit-json-to-gerber,0.0.109*%
%TF.CreationDate,2026-10-05T20:31:57.862Z*%
%TF.SameCoordinates,Original*%
%TF.FileFunction,Legend,Top*%
%TF.FilePolarity,Positive*%
%FSLAX46Y46*%
%MOMM*%
G04 Gerber Fmt 4.6, Leading zero omitted, Abs format (unit mm)*
G04 Created by tscircuit (builder) date 2026-10-05T20:31:57.862Z*
G01*
%LPD*%
G75*
G04 APERTURE MACROS START*
%AMHORZPILL*
0 Horizontal pill (stadium) shape macro*
0 Parameters:*
0 $1 = Total width*
0 $2 = Total height*
0 $3 = Circle diameter (equal to height)*
0 $4 = Circle center offset
0 21 = Center Line(Exposure, Width, Height, Center X, Center Y, Rotation)*
0 1 = Circle(Exposure, Diameter, Center X, Center Y, Rotation)*
21,1,$1-$3,$2,0.0,0.0,0.0*
1,1,$3,0.0-$4,0.0*
1,1,$3,$4,0.0*%
%AMVERTPILL*
0 Vertical pill (stadium) shape macro*
0 Parameters:*
0 $1 = Total width*
0 $2 = Total height*
0 $3 = Circle diameter (equal to width)*
0 $4 = Circle center offset
0 21 = Center Line(Exposure, Width, Height, Center X, Center Y, Rotation)*
21,1,$1,$2-$3,0.0,0.0,0.0*
1,1,$3,0.0,0.0-$4*
1,1,$3,0.0,$4*%
%AMROUNDRECT*
0 Rectangle with rounded corners*
0 $1 Corner radius*
0 $2 $3 $4 $5 $6 $7 $8 $9 X,Y Position of each corner*
0 Polygon box body*
4,1,4,$2,$3,$4,$5,$6,$7,$8,$9,$2,$3,0*
0 Circles for rounded corners*
1,1,$1+$1,$2,$3*
1,1,$1+$1,$4,$5*
1,1,$1+$1,$6,$7*
1,1,$1+$1,$8,$9*
0 Rectangles between the rounded corners*
20,1,$1+$1,$2,$3,$4,$5,0*
20,1,$1+$1,$4,$5,$6,$7,0*
20,1,$1+$1,$6,$7,$8,$9,0*
20,1,$1+$1,$8,$9,$2,$3,0*%
G04 APERTURE MACROS END*
G04 aperture START LIST*
%ADD10C,0.150000*%
%ADD11C,0.300000*%
%ADD12C,0.200000*%
%ADD13C,0.600000*%
%ADD14C,0.400000*%
%ADD15C,0.500000*%
%ADD16C,0.196429*%
%ADD17C,0.250000*%
%ADD18C,0.162000*%
%ADD19VERTPILL,0.999998X1.799996X0.999998X0.399999*%
%ADD20VERTPILL,0.999998X2.199996X0.999998X0.599999*%
%ADD21R,0.599999X1.199998*%
%ADD22R,0.299999X1.199998*%
%ADD23C,0.001000*%
%ADD24R,0.806475X0.864006*%
%ADD25R,0.564533X0.604804*%
%ADD26R,0.200000X0.499999*%
%ADD27R,1.499997X0.899998*%
%ADD28R,1.299997X0.699998*%
%ADD29R,0.799998X0.899998*%
%ADD30R,0.559999X0.629999*%
%ADD31R,0.799998X0.799998*%
%ADD32R,0.559999X0.559999*%
%ADD33R,1.799996X1.199998*%
%ADD34R,1.550010X0.599999*%
%ADD35R,1.410005X1.350010*%
%ADD36R,0.987003X0.945007*%
%ADD37R,1.499997X0.999998*%
%ADD38R,0.999998X1.499997*%
%ADD39R,1.350010X1.410005*%
%ADD40R,0.945007X0.987003*%
%ADD41R,1.199998X0.599999*%
%ADD42R,1.229995X1.859991*%
%ADD43R,0.860996X1.301994*%
%ADD44C,0.100000*%
%ADD45R,0.599999X1.550010*%
%ADD46R,0.419999X1.085007*%
%ADD47R,1.199998X1.799996*%
%ADD48R,0.839998X1.259997*%
%ADD49R,0.699999X1.199998*%
%ADD50R,0.489999X0.839998*%
%ADD51R,1.524000X0.599999*%
%ADD52R,1.066800X0.419999*%
%ADD53R,0.999998X0.650011*%
%ADD54R,0.699999X0.455008*%
%ADD55R,0.664997X0.280010*%
%ADD56R,1.199998X1.999996*%
%ADD57R,2.720010X1.299997*%
%ADD58R,0.899998X0.799998*%
%ADD59R,0.629999X0.559999*%
%ADD60R,0.599999X0.299999*%
%ADD61R,0.419999X0.210000*%
%ADD62C,0.600000*%
%TD*%
G04 aperture END LIST*
D18*
X013248699Y-11329060D02*
X013153665Y-11207021D01*
X013153665Y-11207021D02*
X012928398Y-11194844D01*
X012928398Y-11194844D02*
X012802137Y-11282732D01*
X012802137Y-11282732D02*
X012750590Y-11443979D01*
X012750590Y-11443979D02*
X012771939Y-11523596D01*
X012771939Y-11523596D02*
X012851820Y-11592367D01*
X012851820Y-11592367D02*
X013168365Y-11647821D01*
X013168365Y-11647821D02*
X013274855Y-11713371D01*
X013274855Y-11713371D02*
X013314370Y-11826748D01*
X013314370Y-11826748D02*
X013262318Y-12004069D01*
X013262318Y-12004069D02*
X013103334Y-12081130D01*
X013103334Y-12081130D02*
X012898922Y-12075393D01*
X012898922Y-12075393D02*
X012787128Y-12012868D01*
X012787128Y-12012868D02*
X012724360Y-11865821D01*
X013970054Y-11211455D02*
X013970054Y-12065702D01*
X013970054Y-11620529D02*
X014553577Y-11620529D01*
X014560064Y-11211455D02*
X014560064Y-12065702D01*
X015222207Y-11211455D02*
X015223540Y-11687583D01*
X015223540Y-11687583D02*
X015232728Y-11817104D01*
X015232728Y-11817104D02*
X015256230Y-11913044D01*
X015256230Y-11913044D02*
X015301290Y-11986019D01*
X015301290Y-11986019D02*
X015360239Y-12034269D01*
X015360239Y-12034269D02*
X015448304Y-12069117D01*
X015448304Y-12069117D02*
X015559425Y-12082295D01*
X015559425Y-12082295D02*
X015637416Y-12069102D01*
X015637416Y-12069102D02*
X015701383Y-12034348D01*
X015701383Y-12034348D02*
X015739663Y-11993631D01*
X015739663Y-11993631D02*
X015756098Y-11966867D01*
X015756098Y-11966867D02*
X015781240Y-11898626D01*
X015781240Y-11898626D02*
X015792977Y-11808229D01*
X015792977Y-11808229D02*
X015799299Y-11212741D01*
X016406069Y-11211455D02*
X017106823Y-11211455D01*
X016766851Y-11211455D02*
X016766851Y-12065702D01*
X017651763Y-11211455D02*
X018352517Y-11211455D01*
X018012545Y-11211455D02*
X018012545Y-12065702D01*
X018969439Y-11211455D02*
X018969439Y-12065702D01*
X018969439Y-11211455D02*
X019526228Y-11211455D01*
X018969439Y-11638576D02*
X019359191Y-11638576D01*
X018969439Y-12065702D02*
X019526228Y-12065702D01*
X020158223Y-12059581D02*
X020158223Y-11233581D01*
X020158223Y-11233581D02*
X020400414Y-11211455D01*
X020400414Y-11211455D02*
X020570402Y-11218852D01*
X020570402Y-11218852D02*
X020672947Y-11241583D01*
X020672947Y-11241583D02*
X020716065Y-11260114D01*
X020716065Y-11260114D02*
X020751553Y-11284234D01*
X020751553Y-11284234D02*
X020777770Y-11314549D01*
X020777770Y-11314549D02*
X020800887Y-11396757D01*
X020800887Y-11396757D02*
X020798718Y-11469660D01*
X020798718Y-11469660D02*
X020775057Y-11522449D01*
X020775057Y-11522449D02*
X020732592Y-11558613D01*
X020732592Y-11558613D02*
X020674008Y-11581647D01*
X020674008Y-11581647D02*
X020561780Y-11599211D01*
X020561780Y-11599211D02*
X020174277Y-11612930D01*
X020496082Y-11647806D02*
X020828830Y-12065702D01*
D18*
X014597515Y-06065702D02*
X014597515Y-05227575D01*
X014597515Y-05227575D02*
X014769483Y-05211455D01*
X014769483Y-05211455D02*
X014923322Y-05221531D01*
X014923322Y-05221531D02*
X015023354Y-05248648D01*
X015023354Y-05248648D02*
X015068081Y-05270564D01*
X015068081Y-05270564D02*
X015139415Y-05334851D01*
X015139415Y-05334851D02*
X015171116Y-05403897D01*
X015171116Y-05403897D02*
X015178298Y-05504838D01*
X015178298Y-05504838D02*
X015149870Y-05568298D01*
X015149870Y-05568298D02*
X015105505Y-05603374D01*
X015105505Y-05603374D02*
X015034760Y-05631500D01*
X015034760Y-05631500D02*
X014932445Y-05651669D01*
X014932445Y-05651669D02*
X014793390Y-05662878D01*
X014793390Y-05662878D02*
X014612396Y-05664125D01*
X015777071Y-06065702D02*
X016119932Y-05211455D01*
X016119932Y-05211455D02*
X016490129Y-06065702D01*
X015949988Y-05732496D02*
X016300577Y-05732496D01*
X017379293Y-05211455D02*
X017379293Y-06065702D01*
X018289683Y-06059581D02*
X018289683Y-05233581D01*
X018289683Y-05233581D02*
X018531874Y-05211455D01*
X018531874Y-05211455D02*
X018701861Y-05218852D01*
X018701861Y-05218852D02*
X018804407Y-05241583D01*
X018804407Y-05241583D02*
X018847525Y-05260114D01*
X018847525Y-05260114D02*
X018883013Y-05284234D01*
X018883013Y-05284234D02*
X018909230Y-05314549D01*
X018909230Y-05314549D02*
X018932347Y-05396757D01*
X018932347Y-05396757D02*
X018930177Y-05469660D01*
X018930177Y-05469660D02*
X018906517Y-05522449D01*
X018906517Y-05522449D02*
X018864051Y-05558613D01*
X018864051Y-05558613D02*
X018805468Y-05581647D01*
X018805468Y-05581647D02*
X018693239Y-05599211D01*
X018693239Y-05599211D02*
X018305736Y-05612930D01*
X018627542Y-05647806D02*
X018960290Y-06065702D01*
D18*
X-21410791Y-12065702D02*
X-21410791Y-11221481D01*
X-21410791Y-11221481D02*
X-21227599Y-11211455D01*
X-21227599Y-11211455D02*
X-21059855Y-11240936D01*
X-21059855Y-11240936D02*
X-20946842Y-11339879D01*
X-20946842Y-11339879D02*
X-20964425Y-11484540D01*
X-20964425Y-11484540D02*
X-21097403Y-11561949D01*
X-21097403Y-11561949D02*
X-21384630Y-11595169D01*
X-21384630Y-11595169D02*
X-21105352Y-11612687D01*
X-21105352Y-11612687D02*
X-20900602Y-11685795D01*
X-20900602Y-11685795D02*
X-20813398Y-11798189D01*
X-20813398Y-11798189D02*
X-20820563Y-11943545D01*
X-20820563Y-11943545D02*
X-20859816Y-12007759D01*
X-20859816Y-12007759D02*
X-20957714Y-12059941D01*
X-20957714Y-12059941D02*
X-21410791Y-12065702D01*
X-19883704Y-12081130D02*
X-19995672Y-12046294D01*
X-19995672Y-12046294D02*
X-20098022Y-11940308D01*
X-20098022Y-11940308D02*
X-20173711Y-11580571D01*
X-20173711Y-11580571D02*
X-20101615Y-11311321D01*
X-20101615Y-11311321D02*
X-20013161Y-11234634D01*
X-20013161Y-11234634D02*
X-19860006Y-11194844D01*
X-19860006Y-11194844D02*
X-19715813Y-11242607D01*
X-19715813Y-11242607D02*
X-19631389Y-11329904D01*
X-19631389Y-11329904D02*
X-19559091Y-11657870D01*
X-19559091Y-11657870D02*
X-19595072Y-11864926D01*
X-19595072Y-11864926D02*
X-19659194Y-11984591D01*
X-19659194Y-11984591D02*
X-19773088Y-12066102D01*
X-19773088Y-12066102D02*
X-19883704Y-12081130D01*
X-18638011Y-12081130D02*
X-18749978Y-12046294D01*
X-18749978Y-12046294D02*
X-18852328Y-11940308D01*
X-18852328Y-11940308D02*
X-18928017Y-11580571D01*
X-18928017Y-11580571D02*
X-18855922Y-11311321D01*
X-18855922Y-11311321D02*
X-18767467Y-11234634D01*
X-18767467Y-11234634D02*
X-18614313Y-11194844D01*
X-18614313Y-11194844D02*
X-18470120Y-11242607D01*
X-18470120Y-11242607D02*
X-18385696Y-11329904D01*
X-18385696Y-11329904D02*
X-18313397Y-11657870D01*
X-18313397Y-11657870D02*
X-18349379Y-11864926D01*
X-18349379Y-11864926D02*
X-18413500Y-11984591D01*
X-18413500Y-11984591D02*
X-18527394Y-12066102D01*
X-18527394Y-12066102D02*
X-18638011Y-12081130D01*
X-17725391Y-11211455D02*
X-17024637Y-11211455D01*
X-17364609Y-11211455D02*
X-17364609Y-12065702D01*
D18*
X011929755Y009440419D02*
X011929755Y010266419D01*
X011929755Y010266419D02*
X012171946Y010288545D01*
X012171946Y010288545D02*
X012341934Y010281148D01*
X012341934Y010281148D02*
X012444479Y010258417D01*
X012444479Y010258417D02*
X012487597Y010239886D01*
X012487597Y010239886D02*
X012523085Y010215766D01*
X012523085Y010215766D02*
X012549302Y010185451D01*
X012549302Y010185451D02*
X012572419Y010103243D01*
X012572419Y010103243D02*
X012570250Y010030340D01*
X012570250Y010030340D02*
X012546589Y009977551D01*
X012546589Y009977551D02*
X012504124Y009941387D01*
X012504124Y009941387D02*
X012445540Y009918353D01*
X012445540Y009918353D02*
X012333312Y009900789D01*
X012333312Y009900789D02*
X011945809Y009887070D01*
X012267614Y009852194D02*
X012600362Y009434298D01*
X013232358Y010288545D02*
X013232358Y009434298D01*
X013232358Y010288545D02*
X013789147Y010288545D01*
X013232358Y009861424D02*
X013622110Y009861424D01*
X013232358Y009434298D02*
X013789147Y009434298D01*
X014985780Y010170940D02*
X014890746Y010292979D01*
X014890746Y010292979D02*
X014665479Y010305156D01*
X014665479Y010305156D02*
X014539218Y010217268D01*
X014539218Y010217268D02*
X014487670Y010056021D01*
X014487670Y010056021D02*
X014509020Y009976404D01*
X014509020Y009976404D02*
X014588901Y009907633D01*
X014588901Y009907633D02*
X014905446Y009852179D01*
X014905446Y009852179D02*
X015011936Y009786629D01*
X015011936Y009786629D02*
X015051451Y009673252D01*
X015051451Y009673252D02*
X014999399Y009495931D01*
X014999399Y009495931D02*
X014840415Y009418870D01*
X014840415Y009418870D02*
X014636003Y009424607D01*
X014636003Y009424607D02*
X014524209Y009487132D01*
X014524209Y009487132D02*
X014461441Y009634179D01*
X015723745Y010288545D02*
X015723745Y009434298D01*
X015723745Y010288545D02*
X016280534Y010288545D01*
X015723745Y009861424D02*
X016113497Y009861424D01*
X015723745Y009434298D02*
X016280534Y009434298D01*
X016897456Y010288545D02*
X017598210Y010288545D01*
X017258238Y010288545D02*
X017258238Y009434298D01*
D18*
X016974668Y-00565702D02*
X016974668Y000272425D01*
X016974668Y000272425D02*
X017146636Y000288545D01*
X017146636Y000288545D02*
X017300475Y000278469D01*
X017300475Y000278469D02*
X017400508Y000251352D01*
X017400508Y000251352D02*
X017445234Y000229436D01*
X017445234Y000229436D02*
X017516569Y000165149D01*
X017516569Y000165149D02*
X017548269Y000096103D01*
X017548269Y000096103D02*
X017555451Y-00004838D01*
X017555451Y-00004838D02*
X017527023Y-00068298D01*
X017527023Y-00068298D02*
X017482658Y-00103374D01*
X017482658Y-00103374D02*
X017411913Y-00131500D01*
X017411913Y-00131500D02*
X017309599Y-00151669D01*
X017309599Y-00151669D02*
X017170544Y-00162878D01*
X017170544Y-00162878D02*
X016989550Y-00164125D01*
X018493449Y-00581130D02*
X018381481Y-00546294D01*
X018381481Y-00546294D02*
X018279132Y-00440308D01*
X018279132Y-00440308D02*
X018203442Y-00080571D01*
X018203442Y-00080571D02*
X018275538Y000188679D01*
X018275538Y000188679D02*
X018363993Y000265366D01*
X018363993Y000265366D02*
X018517147Y000305156D01*
X018517147Y000305156D02*
X018661340Y000257393D01*
X018661340Y000257393D02*
X018745764Y000170096D01*
X018745764Y000170096D02*
X018818063Y-00157870D01*
X018818063Y-00157870D02*
X018782081Y-00364926D01*
X018782081Y-00364926D02*
X018717959Y-00484591D01*
X018717959Y-00484591D02*
X018604065Y-00566102D01*
X018604065Y-00566102D02*
X018493449Y-00581130D01*
X019377153Y000288545D02*
X019477700Y-00554875D01*
X019477700Y-00554875D02*
X019736503Y000034166D01*
X019736503Y000034166D02*
X020013775Y-00565702D01*
X020013775Y-00565702D02*
X020135739Y000288545D01*
X020723745Y000288545D02*
X020723745Y-00565702D01*
X020723745Y000288545D02*
X021280534Y000288545D01*
X020723745Y-00138576D02*
X021113497Y-00138576D01*
X020723745Y-00565702D02*
X021280534Y-00565702D01*
X021912530Y-00559581D02*
X021912530Y000266419D01*
X021912530Y000266419D02*
X022154720Y000288545D01*
X022154720Y000288545D02*
X022324708Y000281148D01*
X022324708Y000281148D02*
X022427253Y000258417D01*
X022427253Y000258417D02*
X022470372Y000239886D01*
X022470372Y000239886D02*
X022505860Y000215766D01*
X022505860Y000215766D02*
X022532077Y000185451D01*
X022532077Y000185451D02*
X022555194Y000103243D01*
X022555194Y000103243D02*
X022553024Y000030340D01*
X022553024Y000030340D02*
X022529364Y-00022449D01*
X022529364Y-00022449D02*
X022486898Y-00058613D01*
X022486898Y-00058613D02*
X022428314Y-00081647D01*
X022428314Y-00081647D02*
X022316086Y-00099211D01*
X022316086Y-00099211D02*
X021928583Y-00112930D01*
X022250388Y-00147806D02*
X022583137Y-00565702D01*
D18*
X-22770719Y016434298D02*
X-22770719Y017278519D01*
X-22770719Y017278519D02*
X-22587526Y017288545D01*
X-22587526Y017288545D02*
X-22419782Y017259064D01*
X-22419782Y017259064D02*
X-22306769Y017160121D01*
X-22306769Y017160121D02*
X-22324353Y017015460D01*
X-22324353Y017015460D02*
X-22457330Y016938051D01*
X-22457330Y016938051D02*
X-22744558Y016904831D01*
X-22744558Y016904831D02*
X-22465280Y016887313D01*
X-22465280Y016887313D02*
X-22260530Y016814205D01*
X-22260530Y016814205D02*
X-22173325Y016701811D01*
X-22173325Y016701811D02*
X-22180491Y016556455D01*
X-22180491Y016556455D02*
X-22219744Y016492241D01*
X-22219744Y016492241D02*
X-22317642Y016440059D01*
X-22317642Y016440059D02*
X-22770719Y016434298D01*
X-21582857Y016434298D02*
X-21239996Y017288545D01*
X-21239996Y017288545D02*
X-20869799Y016434298D01*
X-21409939Y016767504D02*
X-21059351Y016767504D01*
X-20331012Y017288545D02*
X-19630258Y017288545D01*
X-19970230Y017288545D02*
X-19970230Y016434298D01*
X-17590804Y017115353D02*
X-17387692Y017288545D01*
X-17387692Y017288545D02*
X-17387692Y016434303D01*
X-15158129Y016765596D02*
X-14837591Y016765596D01*
X-12746651Y017135929D02*
X-12727484Y017198711D01*
X-12727484Y017198711D02*
X-12670847Y017257263D01*
X-12670847Y017257263D02*
X-12578027Y017296969D01*
X-12578027Y017296969D02*
X-12518453Y017305156D01*
X-12518453Y017305156D02*
X-12415384Y017297613D01*
X-12415384Y017297613D02*
X-12338065Y017263712D01*
X-12338065Y017263712D02*
X-12295785Y017211723D01*
X-12295785Y017211723D02*
X-12280598Y017151310D01*
X-12280598Y017151310D02*
X-12281606Y017111124D01*
X-12281606Y017111124D02*
X-12299755Y017043858D01*
X-12299755Y017043858D02*
X-12378527Y016913075D01*
X-12378527Y016913075D02*
X-12576897Y016664288D01*
X-12576897Y016664288D02*
X-12785483Y016435463D01*
X-12785483Y016435463D02*
X-12227464Y016435463D01*
X-10340238Y016787753D02*
X-09689934Y016787753D01*
X-10015090Y017090439D02*
X-10015090Y016485087D01*
D18*
X016654890Y019615353D02*
X016858002Y019788545D01*
X016858002Y019788545D02*
X016858002Y018934303D01*
D44*
X020899922Y-03000000D02*
X020892223Y-02882537D01*
X020869258Y-02767083D01*
X020831420Y-02655615D01*
X020779355Y-02550039D01*
X020713956Y-02452162D01*
X020636341Y-02363659D01*
X020547838Y-02286044D01*
X020449961Y-02220645D01*
X020344385Y-02168580D01*
X020232917Y-02130742D01*
X020117463Y-02107777D01*
X020000000Y-02100078D01*
X019882537Y-02107777D01*
X019767083Y-02130742D01*
X019655615Y-02168580D01*
X019550039Y-02220645D01*
X019452162Y-02286044D01*
X019363659Y-02363659D01*
X019286044Y-02452162D01*
X019220645Y-02550039D01*
X019168580Y-02655615D01*
X019130742Y-02767083D01*
X019107777Y-02882537D01*
X019100078Y-03000000D01*
X019107777Y-03117463D01*
X019130742Y-03232917D01*
X019168580Y-03344385D01*
X019220645Y-03449961D01*
X019286044Y-03547838D01*
X019363659Y-03636341D01*
X019452162Y-03713956D01*
X019550039Y-03779355D01*
X019655615Y-03831420D01*
X019767083Y-03869258D01*
X019882537Y-03892223D01*
X020000000Y-03899922D01*
X020117463Y-03892223D01*
X020232917Y-03869258D01*
X020344385Y-03831420D01*
X020449961Y-03779355D01*
X020547838Y-03713956D01*
X020636341Y-03636341D01*
X020713956Y-03547838D01*
X020779355Y-03449961D01*
X020831420Y-03344385D01*
X020869258Y-03232917D01*
X020892223Y-03117463D01*
X020899922Y-03000000D01*
D44*
X016629000Y017459370D02*
X016627913Y017475947D01*
X016624673Y017492240D01*
X016619333Y017507970D01*
X016611985Y017522870D01*
X016602756Y017536682D01*
X016591803Y017549172D01*
X016579313Y017560126D01*
X016565500Y017569355D01*
X016550601Y017576702D01*
X016534870Y017582042D01*
X016518577Y017585283D01*
X016502000Y017586370D01*
X016485423Y017585283D01*
X016469130Y017582042D01*
X016453399Y017576702D01*
X016438500Y017569355D01*
X016424687Y017560126D01*
X016412197Y017549172D01*
X016401244Y017536682D01*
X016392015Y017522870D01*
X016384667Y017507970D01*
X016379327Y017492240D01*
X016376087Y017475947D01*
X016375000Y017459370D01*
X016376087Y017442793D01*
X016379327Y017426500D01*
X016384667Y017410769D01*
X016392015Y017395870D01*
X016401244Y017382057D01*
X016412197Y017369567D01*
X016424687Y017358614D01*
X016438500Y017349384D01*
X016453399Y017342037D01*
X016469130Y017336697D01*
X016485423Y017333456D01*
X016502000Y017332370D01*
X016518577Y017333456D01*
X016534870Y017336697D01*
X016550601Y017342037D01*
X016565500Y017349384D01*
X016579313Y017358614D01*
X016591803Y017369567D01*
X016602756Y017382057D01*
X016611985Y017395870D01*
X016619333Y017410769D01*
X016624673Y017426500D01*
X016627913Y017442793D01*
X016629000Y017459370D01*
D44*
X-18100078Y-09000000D02*
X-18107777Y-08882537D01*
X-18130742Y-08767083D01*
X-18168580Y-08655615D01*
X-18220645Y-08550039D01*
X-18286044Y-08452162D01*
X-18363659Y-08363659D01*
X-18452162Y-08286044D01*
X-18550039Y-08220645D01*
X-18655615Y-08168580D01*
X-18767083Y-08130742D01*
X-18882537Y-08107777D01*
X-19000000Y-08100078D01*
X-19117463Y-08107777D01*
X-19232917Y-08130742D01*
X-19344385Y-08168580D01*
X-19449961Y-08220645D01*
X-19547838Y-08286044D01*
X-19636341Y-08363659D01*
X-19713956Y-08452162D01*
X-19779355Y-08550039D01*
X-19831420Y-08655615D01*
X-19869258Y-08767083D01*
X-19892223Y-08882537D01*
X-19899922Y-09000000D01*
X-19892223Y-09117463D01*
X-19869258Y-09232917D01*
X-19831420Y-09344385D01*
X-19779355Y-09449961D01*
X-19713956Y-09547838D01*
X-19636341Y-09636341D01*
X-19547838Y-09713956D01*
X-19449961Y-09779355D01*
X-19344385Y-09831420D01*
X-19232917Y-09869258D01*
X-19117463Y-09892223D01*
X-19000000Y-09899922D01*
X-18882537Y-09892223D01*
X-18767083Y-09869258D01*
X-18655615Y-09831420D01*
X-18550039Y-09779355D01*
X-18452162Y-09713956D01*
X-18363659Y-09636341D01*
X-18286044Y-09547838D01*
X-18220645Y-09449961D01*
X-18168580Y-09344385D01*
X-18130742Y-09232917D01*
X-18107777Y-09117463D01*
X-18100078Y-09000000D01*
D44*
X015899922Y008000000D02*
X015892223Y008117463D01*
X015869258Y008232917D01*
X015831420Y008344385D01*
X015779355Y008449961D01*
X015713956Y008547838D01*
X015636341Y008636341D01*
X015547838Y008713956D01*
X015449961Y008779355D01*
X015344385Y008831420D01*
X015232917Y008869258D01*
X015117463Y008892223D01*
X015000000Y008899922D01*
X014882537Y008892223D01*
X014767083Y008869258D01*
X014655615Y008831420D01*
X014550039Y008779355D01*
X014452162Y008713956D01*
X014363659Y008636341D01*
X014286044Y008547838D01*
X014220645Y008449961D01*
X014168580Y008344385D01*
X014130742Y008232917D01*
X014107777Y008117463D01*
X014100078Y008000000D01*
X014107777Y007882537D01*
X014130742Y007767083D01*
X014168580Y007655615D01*
X014220645Y007550039D01*
X014286044Y007452162D01*
X014363659Y007363659D01*
X014452162Y007286044D01*
X014550039Y007220645D01*
X014655615Y007168580D01*
X014767083Y007130742D01*
X014882537Y007107777D01*
X015000000Y007100078D01*
X015117463Y007107777D01*
X015232917Y007130742D01*
X015344385Y007168580D01*
X015449961Y007220645D01*
X015547838Y007286044D01*
X015636341Y007363659D01*
X015713956Y007452162D01*
X015779355Y007550039D01*
X015831420Y007655615D01*
X015869258Y007767083D01*
X015892223Y007882537D01*
X015899922Y008000000D01*
D44*
X-11689862Y003999998D02*
X-11690718Y004013061D01*
X-11693272Y004025900D01*
X-11697480Y004038295D01*
X-11703270Y004050036D01*
X-11710542Y004060920D01*
X-11719174Y004070762D01*
X-11729016Y004079394D01*
X-11739900Y004086666D01*
X-11751641Y004092456D01*
X-11764036Y004096664D01*
X-11776875Y004099218D01*
X-11789938Y004100074D01*
X-11803001Y004099218D01*
X-11815840Y004096664D01*
X-11828235Y004092456D01*
X-11839976Y004086666D01*
X-11850860Y004079394D01*
X-11860702Y004070762D01*
X-11869334Y004060920D01*
X-11876606Y004050036D01*
X-11882396Y004038295D01*
X-11886604Y004025900D01*
X-11889158Y004013061D01*
X-11890014Y003999998D01*
X-11889158Y003986935D01*
X-11886604Y003974096D01*
X-11882396Y003961701D01*
X-11876606Y003949960D01*
X-11869334Y003939076D01*
X-11860702Y003929234D01*
X-11850860Y003920602D01*
X-11839976Y003913330D01*
X-11828235Y003907540D01*
X-11815840Y003903332D01*
X-11803001Y003900778D01*
X-11789938Y003899922D01*
X-11776875Y003900778D01*
X-11764036Y003903332D01*
X-11751641Y003907540D01*
X-11739900Y003913330D01*
X-11729016Y003920602D01*
X-11719174Y003929234D01*
X-11710542Y003939076D01*
X-11703270Y003949960D01*
X-11697480Y003961701D01*
X-11693272Y003974096D01*
X-11690718Y003986935D01*
X-11689862Y003999998D01*
D44*
X000900049Y005069979D02*
X000899536Y005077803D01*
X000898006Y005085494D01*
X000895486Y005092919D01*
X000892018Y005099951D01*
X000887662Y005106471D01*
X000882492Y005112366D01*
X000876597Y005117536D01*
X000870077Y005121892D01*
X000863045Y005125360D01*
X000855620Y005127880D01*
X000847929Y005129410D01*
X000840105Y005129923D01*
X000832281Y005129410D01*
X000824590Y005127880D01*
X000817165Y005125360D01*
X000810133Y005121892D01*
X000803613Y005117536D01*
X000797718Y005112366D01*
X000792548Y005106471D01*
X000788192Y005099951D01*
X000784724Y005092919D01*
X000782204Y005085494D01*
X000780674Y005077803D01*
X000780161Y005069979D01*
X000780674Y005062155D01*
X000782204Y005054464D01*
X000784724Y005047039D01*
X000788192Y005040007D01*
X000792548Y005033487D01*
X000797718Y005027592D01*
X000803613Y005022422D01*
X000810133Y005018066D01*
X000817165Y005014598D01*
X000824590Y005012078D01*
X000832281Y005010548D01*
X000840105Y005010035D01*
X000847929Y005010548D01*
X000855620Y005012078D01*
X000863045Y005014598D01*
X000870077Y005018066D01*
X000876597Y005022422D01*
X000882492Y005027592D01*
X000887662Y005033487D01*
X000892018Y005040007D01*
X000895486Y005047039D01*
X000898006Y005054464D01*
X000899536Y005062155D01*
X000900049Y005069979D01*
M02*