v 2.375 0.686528 -0.028671
v 2.375 1.476528 -0.028671
v 2.375 0.686528 0.171329
newmtl 1
Ka 0.7764705882352941 0.7568627450980392 0.7372549019607844
Kd 0.7764705882352941 0.7568627450980392 0.7372549019607844
Ks 0.38823529411764707 0.3764705882352941 0.3686274509803922
d 0.0
endmtl
v 2.375 1.476528 0.171329
v 1.825 0.686528 -0.028671
v 1.825 0.686528 0.171329
v 1.825 1.476528 -0.028671
v 1.825 1.476528 0.171329
v 1.5 -2.213472 2.546329
v 1.5 -2.213472 1.246329
v 1.5 -1.083472 2.546329
newmtl 2
Ka 0.10980392156862745 0.10980392156862745 0.10980392156862745
Kd 0.10980392156862745 0.10980392156862745 0.10980392156862745
Ks 0.0784313725490196 0.0784313725490196 0.0784313725490196
d 0.0
endmtl
v 1.5 -1.083472 1.246329
v -1.4 -2.213472 2.646329
v 1.4 -2.213472 2.646329
v -1.4 -1.083472 2.646329
v 1.4 -1.083472 2.646329
v -1.5 -2.213472 1.246329
v -1.5 -2.213472 2.546329
v -1.5 -1.083472 1.246329
v -1.5 -1.083472 2.546329
v -1.4 -1.083472 1.146329
v 1.4 -1.083472 1.146329
v -1.4 -2.213472 1.146329
v 1.4 -2.213472 1.146329
v -1.4 -2.313472 1.246329
v 1.4 -2.313472 1.246329
v -1.4 -2.313472 2.546329
v 1.4 -2.313472 2.546329
v -1.425882 -1.083472 2.642922
v 1.496593 -1.083472 1.220447
v 1.425882 -1.083472 1.149736
v -1.496593 -1.083472 1.220447
v -1.496593 -1.083472 2.572211
v -1.486603 -1.083472 2.596329
v -1.425882 -1.083472 1.149736
v -1.45 -1.083472 1.159726
v -1.470711 -1.083472 2.61704
v -1.45 -1.083472 2.632931
v 1.425882 -1.083472 2.642922
v 1.45 -1.083472 2.632931
v 1.496593 -1.083472 2.572211
v 1.470711 -1.083472 2.61704
v 1.486603 -1.083472 2.596329
v 1.486603 -1.083472 1.196329
v 1.470711 -1.083472 1.175618
v 1.45 -1.083472 1.159726
v -1.470711 -1.083472 1.175618
v -1.486603 -1.083472 1.196329
v 1.496593 -2.213472 2.572211
v 1.486603 -2.213472 2.596329
v 1.470711 -2.213472 2.61704
v 1.45 -2.213472 2.632931
v 1.425882 -2.213472 2.642922
v 1.4 -2.256593 2.635781
v 1.4 -2.263472 2.632931
v 1.422414 -2.263472 2.629981
v 1.4 -2.275311 2.623847
v 1.4 -2.284183 2.61704
v 1.418301 -2.284183 2.61463
v 1.412941 -2.300074 2.594625
v 1.406699 -2.310064 2.571329
v 1.412941 -2.310064 2.568743
v 1.425882 -2.310064 2.546329
v 1.425 -2.310064 2.553028
v 1.4 -2.310549 2.568527
v 1.4 -2.29099 2.608168
v 1.4 -2.300074 2.596329
v 1.4 -2.302924 2.58945
v 1.4 -2.310064 2.572211
v 1.435355 -2.300074 2.581684
v 1.422414 -2.310064 2.55927
v 1.443301 -2.300074 2.571329
v 1.448296 -2.300074 2.55927
v 1.45 -2.300074 2.546329
v 1.425 -2.300074 2.58963
v 1.418301 -2.310064 2.56463
v 1.435355 -2.284183 2.607566
v 1.45 -2.284183 2.596329
v 1.461237 -2.284183 2.581684
v 1.468301 -2.284183 2.56463
v 1.470711 -2.284183 2.546329
v 1.443301 -2.263472 2.621329
v 1.461237 -2.263472 2.607566
v 1.475 -2.263472 2.58963
v 1.483652 -2.263472 2.568743
v 1.486603 -2.263472 2.546329
v 1.4 -2.235669 2.643407
v 1.4 -2.239354 2.642922
v 1.425 -2.239354 2.63963
v 1.448296 -2.239354 2.629981
v 1.468301 -2.239354 2.61463
v 1.483652 -2.239354 2.594625
v 1.493301 -2.239354 2.571329
v 1.496593 -2.239354 2.546329
v -1.425882 -2.213472 2.642922
v -1.45 -2.213472 2.632931
v -1.470711 -2.213472 2.61704
v -1.486603 -2.213472 2.596329
v -1.496593 -2.213472 2.572211
v -1.4 -2.310549 2.568527
v -1.4 -2.310064 2.572211
v -1.4 -2.302924 2.58945
v -1.4 -2.300074 2.596329
v -1.4 -2.29099 2.608168
v -1.4 -2.284183 2.61704
v -1.4 -2.275311 2.623847
v -1.4 -2.263472 2.632931
v -1.4 -2.256593 2.635781
v -1.4 -2.239354 2.642922
v -1.4 -2.235669 2.643407
v 1.425882 -2.310064 1.246329
v 1.45 -2.300074 1.246329
v 1.470711 -2.284183 1.246329
v 1.486603 -2.263472 1.246329
v 1.496593 -2.239354 1.246329
v 1.425882 -2.213472 1.149736
v 1.45 -2.213472 1.159726
v 1.470711 -2.213472 1.175618
v 1.486603 -2.213472 1.196329
v 1.496593 -2.213472 1.220447
v -1.496593 -2.239354 2.546329
v -1.493301 -2.239354 2.571329
v -1.486603 -2.263472 2.546329
v -1.483652 -2.263472 2.568743
v -1.448296 -2.300074 2.55927
v -1.425 -2.310064 2.553028
v -1.422414 -2.310064 2.55927
v -1.425882 -2.310064 2.546329
v -1.406699 -2.310064 2.571329
v -1.412941 -2.310064 2.568743
v -1.45 -2.300074 2.546329
v -1.470711 -2.284183 2.546329
v -1.443301 -2.300074 2.571329
v -1.418301 -2.310064 2.56463
v -1.435355 -2.300074 2.581684
v -1.425 -2.300074 2.58963
v -1.412941 -2.300074 2.594625
v -1.468301 -2.284183 2.56463
v -1.461237 -2.284183 2.581684
v -1.45 -2.284183 2.596329
v -1.435355 -2.284183 2.607566
v -1.418301 -2.284183 2.61463
v -1.475 -2.263472 2.58963
v -1.461237 -2.263472 2.607566
v -1.443301 -2.263472 2.621329
v -1.422414 -2.263472 2.629981
v -1.483652 -2.239354 2.594625
v -1.468301 -2.239354 2.61463
v -1.448296 -2.239354 2.629981
v -1.425 -2.239354 2.63963
v 1.493301 -2.239354 1.221329
v 1.443301 -2.300074 1.221329
v 1.422414 -2.310064 1.233388
v 1.418301 -2.310064 1.228028
v 1.4 -2.310064 1.220447
v 1.406699 -2.310064 1.221329
v 1.425 -2.310064 1.23963
v 1.448296 -2.300074 1.233388
v 1.468301 -2.284183 1.228028
v 1.435355 -2.300074 1.210974
v 1.412941 -2.310064 1.223915
v 1.425 -2.300074 1.203028
v 1.412941 -2.300074 1.198033
v 1.4 -2.300074 1.196329
v 1.461237 -2.284183 1.210974
v 1.45 -2.284183 1.196329
v 1.435355 -2.284183 1.185092
v 1.418301 -2.284183 1.178028
v 1.4 -2.284183 1.175618
v 1.483652 -2.263472 1.223915
v 1.475 -2.263472 1.203028
v 1.461237 -2.263472 1.185092
v 1.443301 -2.263472 1.171329
v 1.422414 -2.263472 1.162677
v 1.4 -2.263472 1.159726
v 1.483652 -2.239354 1.198033
v 1.468301 -2.239354 1.178028
v 1.448296 -2.239354 1.162677
v 1.425 -2.239354 1.153028
v 1.4 -2.239354 1.149736
v -1.425882 -2.310064 1.246329
v -1.45 -2.300074 1.246329
v -1.470711 -2.284183 1.246329
v -1.486603 -2.263472 1.246329
v -1.496593 -2.239354 1.246329
v -1.4 -2.310064 1.220447
v -1.4 -2.300074 1.196329
v -1.4 -2.284183 1.175618
v -1.4 -2.263472 1.159726
v -1.4 -2.239354 1.149736
v -1.425 -2.239354 1.153028
v -1.425 -2.300074 1.203028
v -1.412941 -2.310064 1.223915
v -1.418301 -2.310064 1.228028
v -1.425 -2.310064 1.23963
v -1.406699 -2.310064 1.221329
v -1.412941 -2.300074 1.198033
v -1.418301 -2.284183 1.178028
v -1.435355 -2.300074 1.210974
v -1.422414 -2.310064 1.233388
v -1.443301 -2.300074 1.221329
v -1.448296 -2.300074 1.233388
v -1.435355 -2.284183 1.185092
v -1.45 -2.284183 1.196329
v -1.461237 -2.284183 1.210974
v -1.468301 -2.284183 1.228028
v -1.422414 -2.263472 1.162677
v -1.443301 -2.263472 1.171329
v -1.461237 -2.263472 1.185092
v -1.475 -2.263472 1.203028
v -1.483652 -2.263472 1.223915
v -1.448296 -2.239354 1.162677
v -1.468301 -2.239354 1.178028
v -1.483652 -2.239354 1.198033
v -1.493301 -2.239354 1.221329
v -1.425882 -2.213472 1.149736
v -1.45 -2.213472 1.159726
v -1.470711 -2.213472 1.175618
v -1.486603 -2.213472 1.196329
v -1.496593 -2.213472 1.220447
v -2.8 -1.283472 -0.028671
v -3.55 -1.283472 -0.028671
v -2.8 -1.083472 -0.028671
v -3.55 -1.083472 -0.028671
v -3.5 -1.283472 3.321329
v -3.5 -1.083472 3.321329
v -3.5 -1.283472 2.796076
v -3.5 -1.083472 2.796076
v -3.3 -1.083472 3.521329
v -3.3 -1.283472 3.521329
v 3.3 -1.083472 3.521329
v 3.3 -1.283472 3.521329
v -3.493185 -1.283472 3.373093
v -3.493185 -1.083472 3.373093
v -3.473205 -1.283472 3.421329
v -3.473205 -1.083472 3.421329
v -3.441421 -1.283472 3.46275
v -3.441421 -1.083472 3.46275
v -3.4 -1.283472 3.494534
v -3.4 -1.083472 3.494534
v -3.351764 -1.283472 3.514514
v -3.351764 -1.083472 3.514514
v 2.8 -1.083472 -0.028671
v 3.55 -1.083472 -0.028671
v 2.8 -1.283472 -0.028671
v 3.55 -1.283472 -0.028671
v 3.5 -1.083472 3.321329
v 3.5 -1.283472 3.321329
v 3.5 -1.083472 2.796076
v 3.5 -1.283472 2.796076
v 3.351764 -1.283472 3.514514
v 3.351764 -1.083472 3.514514
v 3.4 -1.283472 3.494534
v 3.4 -1.083472 3.494534
v 3.441421 -1.283472 3.46275
v 3.441421 -1.083472 3.46275
v 3.473205 -1.283472 3.421329
v 3.473205 -1.083472 3.421329
v 3.493185 -1.283472 3.373093
v 3.493185 -1.083472 3.373093
v -2.743301 -1.283472 0.146329
v -2.735355 -1.283472 0.156684
v -3.45 -1.283472 0.496329
v -1.6 -1.283472 2.696329
v 1.6 -1.283472 2.696329
v 2.75 -1.283472 0.121329
v -1.6 -1.283472 1.096329
v -2.456307 -1.283472 0.08463
v -2.446221 -1.283472 0.077396
v -3.45 -1.283472 2.746076
v -3.475 -1.283472 0.471329
v -3.55 -1.283472 0.471329
v -2.748296 -1.283472 0.13427
v -2.434664 -1.283472 0.07287
v -2.422348 -1.283472 0.071329
v 1.6 -1.283472 1.096329
v 2.422348 -1.283472 0.071329
v 2.434664 -1.283472 0.07287
v 2.446221 -1.283472 0.077396
v 3.45 -1.283472 2.746076
v 3.45 -1.283472 0.496329
v 2.725 -1.283472 0.16463
v 2.735355 -1.283472 0.156684
v 2.743301 -1.283472 0.146329
v 3.450627 -1.283472 0.490766
v -2.75 -1.283472 0.121329
v -2.569585 -1.283472 0.171329
v -2.557269 -1.283472 0.169788
v -2.545711 -1.283472 0.165262
v -2.535626 -1.283472 0.158028
v -2.725 -1.283472 0.16463
v -2.712941 -1.283472 0.169625
v -2.7 -1.283472 0.171329
v 3.459413 -1.283472 0.476783
v 3.455454 -1.283472 0.480742
v 2.748296 -1.283472 0.13427
v -3.459413 -1.283472 0.476783
v -3.464153 -1.283472 0.473805
v -3.469437 -1.283472 0.471956
v 2.569585 -1.283472 0.171329
v 2.7 -1.283472 0.171329
v 2.712941 -1.283472 0.169625
v -3.450627 -1.283472 0.490766
v -3.452476 -1.283472 0.485482
v -3.455454 -1.283472 0.480742
v 2.456307 -1.283472 0.08463
v 2.535626 -1.283472 0.158028
v 2.545711 -1.283472 0.165262
v 2.557269 -1.283472 0.169788
v 3.452476 -1.283472 0.485482
v -2.787059 -1.283472 -0.026967
v -2.751704 -1.283472 0.008388
v -2.75 -1.283472 0.021329
v -2.775 -1.283472 -0.021972
v -2.764645 -1.283472 -0.014026
v -2.756699 -1.283472 -0.003671
v 3.475 -1.283472 0.471329
v 3.469437 -1.283472 0.471956
v 3.464153 -1.283472 0.473805
v 3.55 -1.283472 0.471329
v 2.775 -1.283472 -0.021972
v 2.751704 -1.283472 0.008388
v 2.764645 -1.283472 -0.014026
v 2.756699 -1.283472 -0.003671
v 2.75 -1.283472 0.021329
v 2.787059 -1.283472 -0.026967
v 2.743301 -1.083472 0.146329
v 2.735355 -1.083472 0.156684
v 3.45 -1.083472 0.496329
v 3.45 -1.083472 2.746076
v 1.6 -1.083472 2.696329
v 2.75 -1.083472 0.121329
v 2.748296 -1.083472 0.13427
v 3.55 -1.083472 0.471329
v -3.45 -1.083472 2.746076
v -1.6 -1.083472 2.696329
v 3.459413 -1.083472 0.476783
v 3.464153 -1.083472 0.473805
v 2.569585 -1.083472 0.171329
v 2.557269 -1.083472 0.169788
v 2.545711 -1.083472 0.165262
v 1.6 -1.083472 1.096329
v -2.569585 -1.083472 0.171329
v -2.7 -1.083472 0.171329
v -2.712941 -1.083472 0.169625
v -3.45 -1.083472 0.496329
v -2.725 -1.083472 0.16463
v -2.735355 -1.083472 0.156684
v -2.743301 -1.083472 0.146329
v -3.450627 -1.083472 0.490766
v 2.535626 -1.083472 0.158028
v 2.456307 -1.083472 0.08463
v 2.446221 -1.083472 0.077396
v 2.434664 -1.083472 0.07287
v 2.422348 -1.083472 0.071329
v -1.6 -1.083472 1.096329
v -2.422348 -1.083472 0.071329
v -2.434664 -1.083472 0.07287
v 2.75 -1.083472 0.021329
v 2.751704 -1.083472 0.008388
v 2.725 -1.083472 0.16463
v 2.712941 -1.083472 0.169625
v 2.7 -1.083472 0.171329
v -2.535626 -1.083472 0.158028
v -2.545711 -1.083472 0.165262
v -2.557269 -1.083472 0.169788
v -2.446221 -1.083472 0.077396
v -2.456307 -1.083472 0.08463
v 3.450627 -1.083472 0.490766
v 3.452476 -1.083472 0.485482
v 3.455454 -1.083472 0.480742
v 3.469437 -1.083472 0.471956
v 3.475 -1.083472 0.471329
v -2.787059 -1.083472 -0.026967
v -2.751704 -1.083472 0.008388
v -3.55 -1.083472 0.471329
v -3.475 -1.083472 0.471329
v -2.748296 -1.083472 0.13427
v -3.469437 -1.083472 0.471956
v -3.464153 -1.083472 0.473805
v -2.75 -1.083472 0.121329
v -2.75 -1.083472 0.021329
v 2.787059 -1.083472 -0.026967
v 2.775 -1.083472 -0.021972
v 2.756699 -1.083472 -0.003671
v 2.764645 -1.083472 -0.014026
v -3.459413 -1.083472 0.476783
v -3.455454 -1.083472 0.480742
v -3.452476 -1.083472 0.485482
v -2.756699 -1.083472 -0.003671
v -2.764645 -1.083472 -0.014026
v -2.775 -1.083472 -0.021972
v -3.575882 -1.080064 -0.028671
v -3.627646 -1.27325 -0.028671
v -3.6 -1.070074 -0.028671
v -3.7 -1.243279 -0.028671
v -3.620711 -1.054183 -0.028671
v -3.762132 -1.195604 -0.028671
v -3.636603 -1.033472 -0.028671
v -3.809808 -1.133472 -0.028671
v -3.646593 -1.009354 -0.028671
v -3.839778 -1.061118 -0.028671
v -3.65 -0.983472 -0.028671
v -3.85 -0.983472 -0.028671
v -3.65 -0.983472 0.471329
v -3.85 -0.983472 0.471329
v -3.646593 -1.009354 0.471329
v -3.839778 -1.061118 0.471329
v -3.636603 -1.033472 0.471329
v -3.809808 -1.133472 0.471329
v -3.620711 -1.054183 0.471329
v -3.762132 -1.195604 0.471329
v -3.6 -1.070074 0.471329
v -3.7 -1.243279 0.471329
v -3.575882 -1.080064 0.471329
v -3.627646 -1.27325 0.471329
v -3.65 -0.783472 0.471329
v -3.85 -0.783472 0.471329
v -3.85 -0.783472 -0.028671
v -3.65 -0.783472 -0.028671
v 3.575882 -1.080064 0.471329
v 3.627646 -1.27325 0.471329
v 3.6 -1.070074 0.471329
v 3.7 -1.243279 0.471329
v 3.620711 -1.054183 0.471329
v 3.762132 -1.195604 0.471329
v 3.636603 -1.033472 0.471329
v 3.809808 -1.133472 0.471329
v 3.646593 -1.009354 0.471329
v 3.839778 -1.061118 0.471329
v 3.65 -0.983472 0.471329
v 3.85 -0.983472 0.471329
v 3.65 -0.983472 -0.028671
v 3.85 -0.983472 -0.028671
v 3.646593 -1.009354 -0.028671
v 3.839778 -1.061118 -0.028671
v 3.636603 -1.033472 -0.028671
v 3.809808 -1.133472 -0.028671
v 3.620711 -1.054183 -0.028671
v 3.762132 -1.195604 -0.028671
v 3.6 -1.070074 -0.028671
v 3.7 -1.243279 -0.028671
v 3.575882 -1.080064 -0.028671
v 3.627646 -1.27325 -0.028671
v 3.65 -0.783472 -0.028671
v 3.85 -0.783472 -0.028671
v 3.85 -0.783472 0.471329
v 3.65 -0.783472 0.471329
v -0.890192 -0.033472 -0.028671
v -0.908026 -0.010231 -0.028671
v -0.523169 -0.010231 -0.028671
newmtl 3
Ka 1.0 1.0 1.0
Kd 1.0 1.0 1.0
Ks 0.30196078431372547 0.30196078431372547 0.30196078431372547
d 0.0
endmtl
v 1.409808 -0.033472 -0.028671
v 1.391974 -0.010231 -0.028671
v 2.55 -0.010231 -0.028671
v 0.937868 0.02866 -0.028671
v 0.908026 -0.010231 -0.028671
v 0.52927 -0.010231 -0.028671
v 0.85 -0.183472 -0.028671
v 0.860222 -0.261118 -0.028671
v 0.52927 -0.11145 -0.028671
v 0.890192 -0.333472 -0.028671
v 0.937868 -0.395604 -0.028671
v 0.52927 -1.083472 -0.028671
v 1.0 -0.443279 -0.028671
v 2.55 -1.083472 -0.028671
v 1.3 -0.443279 -0.028671
v 1.362132 -0.395604 -0.028671
v 1.409808 -0.333472 -0.028671
v 1.439778 -0.261118 -0.028671
v 2.55 -0.11145 -0.028671
v 1.072354 -0.47325 -0.028671
v 1.15 -0.483472 -0.028671
v 1.227646 -0.47325 -0.028671
v 0.890192 -0.033472 -0.028671
v 0.860222 -0.105826 -0.028671
v 0.859482 -0.11145 -0.028671
v 1.227646 0.106306 -0.028671
v 1.15 0.116528 -0.028671
v 0.52927 0.651528 -0.028671
v 1.3 0.076336 -0.028671
v 2.55 0.651528 -0.028671
v 1.362132 0.02866 -0.028671
v 1.072354 0.106306 -0.028671
v 1.0 0.076336 -0.028671
v 1.45 -0.183472 -0.028671
v 1.440518 -0.11145 -0.028671
v 1.439778 -0.105826 -0.028671
v -1.440518 -0.11145 -0.028671
v -1.45 -0.183472 -0.028671
v -2.0 -0.11145 -0.028671
v -1.439778 -0.261118 -0.028671
v -2.0 -1.083472 -0.028671
v -1.409808 -0.333472 -0.028671
v -1.362132 -0.395604 -0.028671
v -1.3 -0.443279 -0.028671
v -1.227646 -0.47325 -0.028671
v -0.523169 -1.083472 -0.028671
v -1.15 -0.483472 -0.028671
v -1.072354 -0.47325 -0.028671
v -1.0 -0.443279 -0.028671
v -0.937868 -0.395604 -0.028671
v -0.890192 -0.333472 -0.028671
v -1.439778 -0.105826 -0.028671
v -2.0 -0.010231 -0.028671
v -1.409808 -0.033472 -0.028671
v -1.0 0.076336 -0.028671
v -1.072354 0.106306 -0.028671
v -0.523169 0.651528 -0.028671
v -0.937868 0.02866 -0.028671
v -1.15 0.116528 -0.028671
v -1.227646 0.106306 -0.028671
v -2.0 0.651528 -0.028671
v -1.3 0.076336 -0.028671
v -1.362132 0.02866 -0.028671
v -1.391974 -0.010231 -0.028671
v -0.860222 -0.261118 -0.028671
v -0.85 -0.183472 -0.028671
v -0.523169 -0.11145 -0.028671
v -0.859482 -0.11145 -0.028671
v -0.860222 -0.105826 -0.028671
v 1.6 1.186528 -0.028671
v 1.6 0.686528 -0.028671
v 2.55 0.686528 -0.028671
v -1.6 0.686528 -0.028671
v -2.0 0.686528 -0.028671
v 0.064637 -0.11145 -0.028671
v 0.064637 -0.010231 -0.028671
v 0.074393 -0.094682 -0.028671
v 0.074393 -0.105658 -0.028671
v 0.085052 -0.110034 -0.028671
v 0.095157 -0.11145 -0.028671
v 0.089089 -0.010231 -0.028671
v 0.085954 -0.010447 -0.028671
v 0.097811 -0.020597 -0.028671
v 0.076185 -0.095675 -0.028671
v 0.085657 -0.022176 -0.028671
v 0.074393 -0.026999 -0.028671
v 0.074393 -0.013584 -0.028671
v 0.107657 -0.0217 -0.028671
v 0.115103 -0.024391 -0.028671
v 0.122188 -0.029141 -0.028671
v 0.128199 -0.03584 -0.028671
v 0.13228 -0.043575 -0.028671
v 0.134926 -0.054402 -0.028671
v 0.135368 -0.061908 -0.028671
v 0.134357 -0.072725 -0.028671
v 0.131643 -0.081327 -0.028671
v 0.10006 -0.101084 -0.028671
v 0.122835 -0.093178 -0.028671
v 0.10934 -0.100049 -0.028671
v 0.116695 -0.097346 -0.028671
v 0.127485 -0.088273 -0.028671
v 0.086786 -0.099611 -0.028671
v 0.143498 -0.037137 -0.028671
v 0.13753 -0.027668 -0.028671
v 0.153051 -0.010231 -0.028671
v 0.128803 -0.019276 -0.028671
v 0.123923 -0.107455 -0.028671
v 0.153051 -0.11145 -0.028671
v 0.114212 -0.110784 -0.028671
v 0.107789 -0.11145 -0.028671
v 0.132042 -0.102247 -0.028671
v 0.139361 -0.094536 -0.028671
v 0.144701 -0.085125 -0.028671
v 0.119456 -0.013827 -0.028671
v 0.108485 -0.010533 -0.028671
v 0.104988 -0.010231 -0.028671
v 0.1478 -0.074395 -0.028671
v 0.148783 -0.062727 -0.028671
v 0.147346 -0.048529 -0.028671
v 0.101908 -0.11206 -0.028671
v 0.153051 -1.083472 -0.028671
v 0.099174 -0.112013 -0.028671
v 0.064637 -1.083472 -0.028671
v -2.55 0.686528 -0.028671
v -2.55 0.651528 -0.028671
v -2.55 -0.010231 -0.028671
v -2.55 -0.11145 -0.028671
v -2.55 -1.083472 -0.028671
v -0.120729 -0.11084 -0.028671
v -0.106095 -0.11084 -0.028671
v -0.102437 -0.11145 -0.028671
v -0.181705 -0.11084 -0.028671
v -0.171587 -0.082792 -0.028671
v -0.130276 -0.082792 -0.028671
v -0.102437 -0.010231 -0.028671
v -0.1439 -0.01084 -0.028671
v -0.157315 -0.01084 -0.028671
v -0.196339 -0.11084 -0.028671
v -0.072664 -0.016493 -0.028671
v -0.08257 -0.022939 -0.028671
v -0.008534 -0.010231 -0.028671
v -0.04651 -0.01084 -0.028671
v -0.060957 -0.012385 -0.028671
v -0.093799 -0.083385 -0.028671
v -0.088189 -0.092206 -0.028671
v -0.080016 -0.100108 -0.028671
v -0.069663 -0.106204 -0.028671
v -0.058152 -0.109705 -0.028671
v -0.045481 -0.11084 -0.028671
v -0.008534 -0.11145 -0.028671
v -0.01829 -0.11084 -0.028671
v -0.01829 -0.01084 -0.028671
v -0.086453 -0.026539 -0.028671
v -0.092449 -0.03437 -0.028671
v -0.09666 -0.044076 -0.028671
v -0.098587 -0.054641 -0.028671
v -0.098778 -0.059583 -0.028671
v -0.097377 -0.072964 -0.028671
v -0.008534 -1.083472 -0.028671
v -0.102437 -1.083472 -0.028671
v 0.041466 -0.021816 -0.028671
v 0.041466 -0.054743 -0.028671
v 0.003661 -0.021816 -0.028671
v 0.0061 -0.054743 -0.028671
v 0.003661 -0.01084 -0.028671
v 0.0061 -0.065719 -0.028671
v 0.041466 -0.065719 -0.028671
v 0.041466 -0.099865 -0.028671
v 0.001222 -0.099865 -0.028671
v 0.001222 -0.11084 -0.028671
v 0.054881 -0.11084 -0.028671
v 0.054881 -0.01084 -0.028671
v 0.064637 0.651528 -0.028671
v -0.008534 0.651528 -0.028671
v -0.102437 0.651528 -0.028671
v 0.15732 -0.11084 -0.028671
v 0.208539 -0.11084 -0.028671
v 0.15732 -0.099865 -0.028671
v 0.195124 -0.099865 -0.028671
v 0.208539 -0.01084 -0.028671
v 0.195124 -0.01084 -0.028671
v 0.153051 0.651528 -0.028671
v 0.097926 -0.009621 -0.028671
v 0.52927 1.186528 -0.028671
v 0.153051 1.186528 -0.028671
v 0.064637 1.186528 -0.028671
v -0.008534 1.186528 -0.028671
v -0.102437 1.186528 -0.028671
v -0.523169 1.186528 -0.028671
v -1.6 1.186528 -0.028671
v -3.15 -1.083472 2.921329
v -3.5 -1.083472 2.921329
v -3.15 0.686528 2.921329
v -3.5 0.686528 2.921329
v -3.5 0.686528 3.321329
v -3.493185 0.686528 3.373093
v -3.473205 0.686528 3.421329
v -3.441421 0.686528 3.46275
v -3.4 0.686528 3.494534
v -3.351764 0.686528 3.514514
v -3.3 0.686528 3.521329
v -2.55 0.686528 0.721329
v -2.55 -1.083472 0.721329
v -3.15 -1.083472 0.721329
v -3.15 1.186528 0.721329
v -1.6 0.686528 0.721329
v -1.6 1.186528 0.721329
v -3.15 1.186528 2.921329
v 3.3 0.686528 3.521329
v 1.803784 0.686528 3.521329
v -1.803784 0.686528 3.521329
v -1.803784 1.186528 3.521329
v 1.803784 1.186528 3.521329
v 3.351764 0.686528 3.514514
v 3.4 0.686528 3.494534
v 3.441421 0.686528 3.46275
v 3.473205 0.686528 3.421329
v 3.493185 0.686528 3.373093
v 3.5 0.686528 3.321329
v 3.5 0.686528 2.921329
v 3.5 -1.083472 2.921329
v 3.15 0.686528 2.921329
v 3.15 -1.083472 2.921329
v 3.15 -1.083472 0.721329
v 3.15 1.186528 0.721329
v 3.15 1.186528 2.921329
v 1.6 0.686528 0.721329
v 1.6 1.186528 0.721329
v 2.55 0.686528 0.721329
v 2.55 -1.083472 0.721329
v -1.803784 1.186528 2.921329
v 1.803784 1.186528 2.921329
v -1.439778 -0.105826 -0.528671
v -1.409808 -0.033472 -0.528671
v -1.362132 0.02866 -0.528671
v -1.3 0.076336 -0.528671
v -1.227646 0.106306 -0.528671
v -1.15 0.116528 -0.528671
v -1.072354 0.106306 -0.528671
v -1.0 0.076336 -0.528671
v -0.937868 0.02866 -0.528671
v -0.890192 -0.033472 -0.528671
v -0.860222 -0.105826 -0.528671
v -0.85 -0.183472 -0.528671
v -0.860222 -0.261118 -0.528671
v -0.890192 -0.333472 -0.528671
v -0.937868 -0.395604 -0.528671
v -1.0 -0.443279 -0.528671
v -1.072354 -0.47325 -0.528671
v -1.15 -0.483472 -0.528671
v -1.227646 -0.47325 -0.528671
v -1.3 -0.443279 -0.528671
v -1.362132 -0.395604 -0.528671
v -1.409808 -0.333472 -0.528671
v -1.439778 -0.261118 -0.528671
v -1.45 -0.183472 -0.528671
v 0.860222 -0.105826 -0.528671
v 0.890192 -0.033472 -0.528671
v 0.937868 0.02866 -0.528671
v 1.0 0.076336 -0.528671
v 1.072354 0.106306 -0.528671
v 1.15 0.116528 -0.528671
v 1.227646 0.106306 -0.528671
v 1.3 0.076336 -0.528671
v 1.362132 0.02866 -0.528671
v 1.409808 -0.033472 -0.528671
v 1.439778 -0.105826 -0.528671
v 1.45 -0.183472 -0.528671
v 1.439778 -0.261118 -0.528671
v 1.409808 -0.333472 -0.528671
v 1.362132 -0.395604 -0.528671
v 1.3 -0.443279 -0.528671
v 1.227646 -0.47325 -0.528671
v 1.15 -0.483472 -0.528671
v 1.072354 -0.47325 -0.528671
v 1.0 -0.443279 -0.528671
v 0.937868 -0.395604 -0.528671
v 0.890192 -0.333472 -0.528671
v 0.860222 -0.261118 -0.528671
v 0.85 -0.183472 -0.528671
v 1.15 -0.183472 -0.828671
v 1.225 -0.203568 -0.818449
v 1.217243 -0.222295 -0.818449
v 1.227646 -0.183472 -0.818449
v 1.188823 -0.250715 -0.818449
v 1.170096 -0.258472 -0.818449
v 1.204904 -0.238376 -0.818449
v 1.129904 -0.258472 -0.818449
v 1.111177 -0.250715 -0.818449
v 1.15 -0.261118 -0.818449
v 1.082757 -0.222295 -0.818449
v 1.075 -0.203568 -0.818449
v 1.095096 -0.238376 -0.818449
v 1.075 -0.163376 -0.818449
v 1.082757 -0.144649 -0.818449
v 1.072354 -0.183472 -0.818449
v 1.111177 -0.116229 -0.818449
v 1.129904 -0.108472 -0.818449
v 1.095096 -0.128568 -0.818449
v 1.170096 -0.108472 -0.818449
v 1.188823 -0.116229 -0.818449
v 1.15 -0.105826 -0.818449
v 1.217243 -0.144649 -0.818449
v 1.225 -0.163376 -0.818449
v 1.204904 -0.128568 -0.818449
v 1.294889 -0.222295 -0.788479
v 1.279904 -0.258472 -0.788479
v 1.256066 -0.289538 -0.788479
v 1.225 -0.313376 -0.788479
v 1.188823 -0.328361 -0.788479
v 1.15 -0.333472 -0.788479
v 1.111177 -0.328361 -0.788479
v 1.075 -0.313376 -0.788479
v 1.043934 -0.289538 -0.788479
v 1.020096 -0.258472 -0.788479
v 1.005111 -0.222295 -0.788479
v 1.0 -0.183472 -0.788479
v 1.005111 -0.144649 -0.788479
v 1.020096 -0.108472 -0.788479
v 1.043934 -0.077406 -0.788479
v 1.075 -0.053568 -0.788479
v 1.111177 -0.038583 -0.788479
v 1.15 -0.033472 -0.788479
v 1.188823 -0.038583 -0.788479
v 1.225 -0.053568 -0.788479
v 1.256066 -0.077406 -0.788479
v 1.279904 -0.108472 -0.788479
v 1.294889 -0.144649 -0.788479
v 1.3 -0.183472 -0.788479
v 1.354904 -0.238376 -0.740803
v 1.333712 -0.289538 -0.740803
v 1.3 -0.333472 -0.740803
v 1.256066 -0.367184 -0.740803
v 1.204904 -0.388376 -0.740803
v 1.15 -0.395604 -0.740803
v 1.095096 -0.388376 -0.740803
v 1.043934 -0.367184 -0.740803
v 1.0 -0.333472 -0.740803
v 0.966288 -0.289538 -0.740803
v 0.945096 -0.238376 -0.740803
v 0.937868 -0.183472 -0.740803
v 0.945096 -0.128568 -0.740803
v 0.966288 -0.077406 -0.740803
v 1.0 -0.033472 -0.740803
v 1.043934 2.4E-4 -0.740803
v 1.095096 0.021432 -0.740803
v 1.15 0.02866 -0.740803
v 1.204904 0.021432 -0.740803
v 1.256066 2.4E-4 -0.740803
v 1.3 -0.033472 -0.740803
v 1.333712 -0.077406 -0.740803
v 1.354904 -0.128568 -0.740803
v 1.362132 -0.183472 -0.740803
v 1.400955 -0.250715 -0.678671
v 1.375 -0.313376 -0.678671
v 1.333712 -0.367184 -0.678671
v 1.279904 -0.408472 -0.678671
v 1.217243 -0.434427 -0.678671
v 1.15 -0.443279 -0.678671
v 1.082757 -0.434427 -0.678671
v 1.020096 -0.408472 -0.678671
v 0.966288 -0.367184 -0.678671
v 0.925 -0.313376 -0.678671
v 0.899045 -0.250715 -0.678671
v 0.890192 -0.183472 -0.678671
v 0.899045 -0.116229 -0.678671
v 0.925 -0.053568 -0.678671
v 0.966288 2.4E-4 -0.678671
v 1.020096 0.041528 -0.678671
v 1.082757 0.067483 -0.678671
v 1.15 0.076336 -0.678671
v 1.217243 0.067483 -0.678671
v 1.279904 0.041528 -0.678671
v 1.333712 2.4E-4 -0.678671
v 1.375 -0.053568 -0.678671
v 1.400955 -0.116229 -0.678671
v 1.409808 -0.183472 -0.678671
v 1.429904 -0.258472 -0.606317
v 1.400955 -0.328361 -0.606317
v 1.354904 -0.388376 -0.606317
v 1.294889 -0.434427 -0.606317
v 1.225 -0.463376 -0.606317
v 1.15 -0.47325 -0.606317
v 1.075 -0.463376 -0.606317
v 1.005111 -0.434427 -0.606317
v 0.945096 -0.388376 -0.606317
v 0.899045 -0.328361 -0.606317
v 0.870096 -0.258472 -0.606317
v 0.860222 -0.183472 -0.606317
v 0.870096 -0.108472 -0.606317
v 0.899045 -0.038583 -0.606317
v 0.945096 0.021432 -0.606317
v 1.005111 0.067483 -0.606317
v 1.075 0.096432 -0.606317
v 1.15 0.106306 -0.606317
v 1.225 0.096432 -0.606317
v 1.294889 0.067483 -0.606317
v 1.354904 0.021432 -0.606317
v 1.400955 -0.038583 -0.606317
v 1.429904 -0.108472 -0.606317
v 1.439778 -0.183472 -0.606317
v -1.15 -0.183472 -0.828671
v -1.075 -0.203568 -0.818449
v -1.082757 -0.222295 -0.818449
v -1.072354 -0.183472 -0.818449
v -1.111177 -0.250715 -0.818449
v -1.129904 -0.258472 -0.818449
v -1.095096 -0.238376 -0.818449
v -1.170096 -0.258472 -0.818449
v -1.188823 -0.250715 -0.818449
v -1.15 -0.261118 -0.818449
v -1.217243 -0.222295 -0.818449
v -1.225 -0.203568 -0.818449
v -1.204904 -0.238376 -0.818449
v -1.225 -0.163376 -0.818449
v -1.217243 -0.144649 -0.818449
v -1.227646 -0.183472 -0.818449
v -1.188823 -0.116229 -0.818449
v -1.170096 -0.108472 -0.818449
v -1.204904 -0.128568 -0.818449
v -1.129904 -0.108472 -0.818449
v -1.111177 -0.116229 -0.818449
v -1.15 -0.105826 -0.818449
v -1.082757 -0.144649 -0.818449
v -1.075 -0.163376 -0.818449
v -1.095096 -0.128568 -0.818449
v -1.005111 -0.222295 -0.788479
v -1.020096 -0.258472 -0.788479
v -1.043934 -0.289538 -0.788479
v -1.075 -0.313376 -0.788479
v -1.111177 -0.328361 -0.788479
v -1.15 -0.333472 -0.788479
v -1.188823 -0.328361 -0.788479
v -1.225 -0.313376 -0.788479
v -1.256066 -0.289538 -0.788479
v -1.279904 -0.258472 -0.788479
v -1.294889 -0.222295 -0.788479
v -1.3 -0.183472 -0.788479
v -1.294889 -0.144649 -0.788479
v -1.279904 -0.108472 -0.788479
v -1.256066 -0.077406 -0.788479
v -1.225 -0.053568 -0.788479
v -1.188823 -0.038583 -0.788479
v -1.15 -0.033472 -0.788479
v -1.111177 -0.038583 -0.788479
v -1.075 -0.053568 -0.788479
v -1.043934 -0.077406 -0.788479
v -1.020096 -0.108472 -0.788479
v -1.005111 -0.144649 -0.788479
v -1.0 -0.183472 -0.788479
v -0.945096 -0.238376 -0.740803
v -0.966288 -0.289538 -0.740803
v -1.0 -0.333472 -0.740803
v -1.043934 -0.367184 -0.740803
v -1.095096 -0.388376 -0.740803
v -1.15 -0.395604 -0.740803
v -1.204904 -0.388376 -0.740803
v -1.256066 -0.367184 -0.740803
v -1.3 -0.333472 -0.740803
v -1.333712 -0.289538 -0.740803
v -1.354904 -0.238376 -0.740803
v -1.362132 -0.183472 -0.740803
v -1.354904 -0.128568 -0.740803
v -1.333712 -0.077406 -0.740803
v -1.3 -0.033472 -0.740803
v -1.256066 2.4E-4 -0.740803
v -1.204904 0.021432 -0.740803
v -1.15 0.02866 -0.740803
v -1.095096 0.021432 -0.740803
v -1.043934 2.4E-4 -0.740803
v -1.0 -0.033472 -0.740803
v -0.966288 -0.077406 -0.740803
v -0.945096 -0.128568 -0.740803
v -0.937868 -0.183472 -0.740803
v -0.899045 -0.250715 -0.678671
v -0.925 -0.313376 -0.678671
v -0.966288 -0.367184 -0.678671
v -1.020096 -0.408472 -0.678671
v -1.082757 -0.434427 -0.678671
v -1.15 -0.443279 -0.678671
v -1.217243 -0.434427 -0.678671
v -1.279904 -0.408472 -0.678671
v -1.333712 -0.367184 -0.678671
v -1.375 -0.313376 -0.678671
v -1.400955 -0.250715 -0.678671
v -1.409808 -0.183472 -0.678671
v -1.400955 -0.116229 -0.678671
v -1.375 -0.053568 -0.678671
v -1.333712 2.4E-4 -0.678671
v -1.279904 0.041528 -0.678671
v -1.217243 0.067483 -0.678671
v -1.15 0.076336 -0.678671
v -1.082757 0.067483 -0.678671
v -1.020096 0.041528 -0.678671
v -0.966288 2.4E-4 -0.678671
v -0.925 -0.053568 -0.678671
v -0.899045 -0.116229 -0.678671
v -0.890192 -0.183472 -0.678671
v -0.870096 -0.258472 -0.606317
v -0.899045 -0.328361 -0.606317
v -0.945096 -0.388376 -0.606317
v -1.005111 -0.434427 -0.606317
v -1.075 -0.463376 -0.606317
v -1.15 -0.47325 -0.606317
v -1.225 -0.463376 -0.606317
v -1.294889 -0.434427 -0.606317
v -1.354904 -0.388376 -0.606317
v -1.400955 -0.328361 -0.606317
v -1.429904 -0.258472 -0.606317
v -1.439778 -0.183472 -0.606317
v -1.429904 -0.108472 -0.606317
v -1.400955 -0.038583 -0.606317
v -1.354904 0.021432 -0.606317
v -1.294889 0.067483 -0.606317
v -1.225 0.096432 -0.606317
v -1.15 0.106306 -0.606317
v -1.075 0.096432 -0.606317
v -1.005111 0.067483 -0.606317
v -0.945096 0.021432 -0.606317
v -0.899045 -0.038583 -0.606317
v -0.870096 -0.108472 -0.606317
v -0.860222 -0.183472 -0.606317
v -1.803784 0.686528 2.921329
v 1.803784 0.686528 2.921329
v -0.133648 -0.071816 -0.018671
v -0.148568 -0.030048 -0.018671
v -0.1439 -0.01084 -0.018671
newmtl 4
Ka 1.0 1.0 1.0
Kd 1.0 1.0 1.0
Ks 0.8784313725490196 0.8784313725490196 0.8784313725490196
d 0.0
endmtl
v -0.106095 -0.11084 -0.018671
v -0.120729 -0.11084 -0.018671
v -0.130276 -0.082792 -0.018671
v -0.149514 -0.026576 -0.018671
v -0.150169 -0.023036 -0.018671
v -0.157315 -0.01084 -0.018671
v -0.150493 -0.023036 -0.018671
v -0.151145 -0.026569 -0.018671
v -0.152036 -0.030048 -0.018671
v -0.16709 -0.071816 -0.018671
v -0.196339 -0.11084 -0.018671
v -0.181705 -0.11084 -0.018671
v -0.171587 -0.082792 -0.018671
v -0.152036 -0.030048 -0.028671
v -0.151145 -0.026569 -0.028671
v -0.150493 -0.023036 -0.028671
v -0.150169 -0.023036 -0.028671
v -0.149514 -0.026576 -0.028671
v -0.148568 -0.030048 -0.028671
v -0.133648 -0.071816 -0.028671
v -0.16709 -0.071816 -0.028671
v -0.04651 -0.01084 -0.018671
v -0.01829 -0.01084 -0.018671
v -0.060957 -0.012385 -0.018671
v -0.072664 -0.016493 -0.018671
v -0.08257 -0.022939 -0.018671
v -0.086453 -0.026539 -0.018671
v -0.092449 -0.03437 -0.018671
v -0.09666 -0.044076 -0.018671
v -0.098587 -0.054641 -0.018671
v -0.098778 -0.059583 -0.018671
v -0.097377 -0.072964 -0.018671
v -0.093799 -0.083385 -0.018671
v -0.088189 -0.092206 -0.018671
v -0.080016 -0.100108 -0.018671
v -0.069663 -0.106204 -0.018671
v -0.058152 -0.109705 -0.018671
v -0.045481 -0.11084 -0.018671
v -0.01829 -0.11084 -0.018671
v -0.085363 -0.059869 -0.018671
v -0.084514 -0.049915 -0.018671
v -0.082176 -0.042014 -0.018671
v -0.078752 -0.035875 -0.018671
v -0.0739 -0.030708 -0.018671
v -0.066615 -0.025998 -0.018671
v -0.058358 -0.02309 -0.018671
v -0.046453 -0.021816 -0.018671
v -0.031705 -0.021816 -0.018671
v -0.031705 -0.099865 -0.018671
v -0.045901 -0.099865 -0.018671
v -0.056465 -0.09888 -0.018671
v -0.064879 -0.096258 -0.018671
v -0.071639 -0.092242 -0.018671
v -0.07729 -0.086678 -0.018671
v -0.081477 -0.07985 -0.018671
v -0.084129 -0.071897 -0.018671
v -0.045901 -0.099865 -0.028671
v -0.031705 -0.099865 -0.028671
v -0.056465 -0.09888 -0.028671
v -0.064879 -0.096258 -0.028671
v -0.071639 -0.092242 -0.028671
v -0.07729 -0.086678 -0.028671
v -0.081477 -0.07985 -0.028671
v -0.084129 -0.071897 -0.028671
v -0.085363 -0.059869 -0.028671
v -0.084514 -0.049915 -0.028671
v -0.082176 -0.042014 -0.028671
v -0.078752 -0.035875 -0.028671
v -0.0739 -0.030708 -0.028671
v -0.066615 -0.025998 -0.028671
v -0.058358 -0.02309 -0.028671
v -0.046453 -0.021816 -0.028671
v -0.031705 -0.021816 -0.028671
v 0.054881 -0.01084 -0.018671
v 0.054881 -0.11084 -0.018671
v 0.003661 -0.01084 -0.018671
v 0.003661 -0.021816 -0.018671
v 0.041466 -0.021816 -0.018671
v 0.041466 -0.054743 -0.018671
v 0.0061 -0.054743 -0.018671
v 0.0061 -0.065719 -0.018671
v 0.041466 -0.065719 -0.018671
v 0.041466 -0.099865 -0.018671
v 0.001222 -0.099865 -0.018671
v 0.001222 -0.11084 -0.018671
v 0.101908 -0.11206 -0.018671
v 0.114212 -0.110784 -0.018671
v 0.123923 -0.107455 -0.018671
v 0.132042 -0.102247 -0.018671
v 0.139361 -0.094536 -0.018671
v 0.144701 -0.085125 -0.018671
v 0.1478 -0.074395 -0.018671
v 0.148783 -0.062727 -0.018671
v 0.147346 -0.048529 -0.018671
v 0.143498 -0.037137 -0.018671
v 0.13753 -0.027668 -0.018671
v 0.128803 -0.019276 -0.018671
v 0.119456 -0.013827 -0.018671
v 0.108485 -0.010533 -0.018671
v 0.097926 -0.009621 -0.018671
v 0.085954 -0.010447 -0.018671
v 0.074393 -0.013584 -0.018671
v 0.074393 -0.026999 -0.018671
v 0.085657 -0.022176 -0.018671
v 0.097811 -0.020597 -0.018671
v 0.107657 -0.0217 -0.018671
v 0.115103 -0.024391 -0.018671
v 0.122188 -0.029141 -0.018671
v 0.128199 -0.03584 -0.018671
v 0.13228 -0.043575 -0.018671
v 0.134926 -0.054402 -0.018671
v 0.135368 -0.061908 -0.018671
v 0.134357 -0.072725 -0.018671
v 0.131643 -0.081327 -0.018671
v 0.127485 -0.088273 -0.018671
v 0.122835 -0.093178 -0.018671
v 0.116695 -0.097346 -0.018671
v 0.10934 -0.100049 -0.018671
v 0.10006 -0.101084 -0.018671
v 0.086786 -0.099611 -0.018671
v 0.076185 -0.095675 -0.018671
v 0.074393 -0.094682 -0.018671
v 0.074393 -0.105658 -0.018671
v 0.085052 -0.110034 -0.018671
v 0.099174 -0.112013 -0.018671
v 0.208539 -0.01084 -0.018671
v 0.208539 -0.11084 -0.018671
v 0.195124 -0.01084 -0.018671
v 0.195124 -0.099865 -0.018671
v 0.15732 -0.099865 -0.018671
v 0.15732 -0.11084 -0.018671
v 2.098519 -1.283472 1.127034
v 2.098519 -1.283472 2.731321
v 2.998179 -1.283472 1.127034
v 2.998179 -1.283472 2.731321
v 2.998179 -1.333472 2.731321
v 2.098519 -1.333472 2.731321
v 2.098519 -1.333472 1.127034
v 2.998179 -1.333472 1.127034
v 2.948179 -1.383472 1.177034
v 2.948179 -1.383472 2.681321
v 2.148519 -1.383472 1.177034
v 2.148519 -1.383472 2.681321
v 2.983535 -1.368827 2.716676
v 2.987847 -1.36391 2.720989
v 2.108851 -1.36391 2.720989
v 2.991481 -1.358472 2.724622
v 2.105217 -1.358472 2.724622
v 2.994373 -1.352606 2.727515
v 2.102324 -1.352606 2.727515
v 2.996476 -1.346413 2.729618
v 2.100222 -1.346413 2.729618
v 2.997751 -1.339998 2.730893
v 2.098946 -1.339998 2.730893
v 2.113163 -1.368827 2.716676
v 2.123519 -1.376773 2.706321
v 2.973179 -1.376773 2.706321
v 2.135578 -1.381768 2.694262
v 2.96112 -1.381768 2.694262
v 2.997751 -1.339998 1.127462
v 2.996476 -1.346413 1.128738
v 2.994373 -1.352606 1.13084
v 2.991481 -1.358472 1.133733
v 2.987847 -1.36391 1.137366
v 2.983535 -1.368827 1.141679
v 2.973179 -1.376773 1.152034
v 2.96112 -1.381768 1.164093
v 2.108851 -1.36391 1.137366
v 2.113163 -1.368827 1.141679
v 2.123519 -1.376773 1.152034
v 2.135578 -1.381768 1.164093
v 2.105217 -1.358472 1.133733
v 2.102324 -1.352606 1.13084
v 2.100222 -1.346413 1.128738
v 2.098946 -1.339998 1.127462
v -2.375 1.476528 -0.028671
v -2.375 0.686528 -0.028671
v -2.375 1.476528 0.171329
v -2.375 0.686528 0.171329
v -1.825 1.476528 -0.028671
v -1.825 1.476528 0.171329
v -1.825 0.686528 -0.028671
v -1.825 0.686528 0.171329
v -2.998179 -1.333472 1.127034
v -2.998179 -1.283472 1.127034
v -2.098519 -1.333472 1.127034
v -2.098519 -1.283472 1.127034
v -2.098519 -1.333472 2.731321
v -2.098519 -1.283472 2.731321
v -2.998179 -1.333472 2.731321
v -2.998179 -1.283472 2.731321
v -2.948179 -1.383472 1.177034
v -2.148519 -1.383472 1.177034
v -2.948179 -1.383472 2.681321
v -2.148519 -1.383472 2.681321
v -2.113163 -1.368827 1.141679
v -2.123519 -1.376773 2.706321
v -2.123519 -1.376773 1.152034
v -2.135578 -1.381768 2.694262
v -2.135578 -1.381768 1.164093
v -2.098946 -1.339998 1.127462
v -2.098946 -1.339998 2.730893
v -2.100222 -1.346413 1.128738
v -2.100222 -1.346413 2.729618
v -2.102324 -1.352606 1.13084
v -2.102324 -1.352606 2.727515
v -2.105217 -1.358472 1.133733
v -2.105217 -1.358472 2.724622
v -2.108851 -1.36391 1.137366
v -2.108851 -1.36391 2.720989
v -2.113163 -1.368827 2.716676
v -2.973179 -1.376773 2.706321
v -2.96112 -1.381768 2.694262
v -2.997751 -1.339998 2.730893
v -2.996476 -1.346413 2.729618
v -2.994373 -1.352606 2.727515
v -2.991481 -1.358472 2.724622
v -2.987847 -1.36391 2.720989
v -2.983535 -1.368827 2.716676
v -2.983535 -1.368827 1.141679
v -2.987847 -1.36391 1.137366
v -2.991481 -1.358472 1.133733
v -2.994373 -1.352606 1.13084
v -2.996476 -1.346413 1.128738
v -2.997751 -1.339998 1.127462
v -2.973179 -1.376773 1.152034
v -2.96112 -1.381768 1.164093
usemtl 1
f 1// 2// 3//
f 3// 2// 4//
f 5// 1// 6//
f 6// 1// 3//
f 7// 5// 8//
f 8// 5// 6//
f 2// 7// 4//
f 4// 7// 8//
f 5// 7// 1//
f 1// 7// 2//
f 8// 6// 4//
f 4// 6// 3//
usemtl 2
f 9// 10// 11//
f 11// 10// 12//
f 13// 14// 15//
f 15// 14// 16//
f 17// 18// 19//
f 19// 18// 20//
f 21// 22// 23//
f 23// 22// 24//
f 25// 26// 27//
f 27// 26// 28//
f 29// 15// 20//
f 20// 15// 19//
f 11// 12// 22//
f 22// 12// 30//
f 22// 30// 31//
f 32// 19// 21//
f 21// 19// 15//
f 21// 15// 22//
f 22// 15// 16//
f 22// 16// 11//
f 20// 33// 34//
f 21// 35// 36//
f 34// 37// 20//
f 20// 37// 38//
f 20// 38// 29//
f 16// 39// 11//
f 11// 39// 40//
f 11// 40// 41//
f 41// 40// 42//
f 41// 42// 43//
f 44// 45// 30//
f 30// 45// 46//
f 30// 46// 31//
f 36// 47// 21//
f 21// 47// 48//
f 21// 48// 32//
f 9// 11// 41//
f 9// 41// 49//
f 49// 41// 43//
f 49// 43// 50//
f 50// 43// 42//
f 50// 42// 51//
f 51// 42// 40//
f 51// 40// 52//
f 52// 40// 39//
f 52// 39// 53//
f 53// 39// 16//
f 53// 16// 14//
f 54// 55// 56//
f 57// 58// 59//
f 60// 61// 62//
f 28// 63// 64//
f 62// 61// 28//
f 65// 28// 61//
f 66// 67// 60//
f 60// 67// 68//
f 60// 68// 61//
f 61// 68// 69//
f 61// 69// 65//
f 70// 71// 72//
f 72// 71// 64//
f 72// 64// 73//
f 73// 64// 63//
f 73// 63// 74//
f 58// 66// 59//
f 59// 66// 60//
f 59// 60// 75//
f 75// 60// 62//
f 75// 62// 76//
f 76// 62// 28//
f 77// 70// 78//
f 78// 70// 72//
f 78// 72// 79//
f 79// 72// 73//
f 79// 73// 80//
f 80// 73// 74//
f 80// 74// 81//
f 56// 77// 82//
f 82// 77// 78//
f 82// 78// 83//
f 83// 78// 79//
f 83// 79// 84//
f 84// 79// 80//
f 84// 80// 85//
f 85// 80// 81//
f 85// 81// 86//
f 87// 88// 89//
f 89// 88// 54//
f 54// 56// 89//
f 89// 56// 82//
f 89// 82// 90//
f 90// 82// 83//
f 90// 83// 91//
f 91// 83// 84//
f 91// 84// 92//
f 92// 84// 85//
f 92// 85// 93//
f 93// 85// 86//
f 93// 86// 94//
f 53// 14// 87//
f 87// 89// 53//
f 53// 89// 90//
f 53// 90// 52//
f 52// 90// 91//
f 52// 91// 51//
f 51// 91// 92//
f 51// 92// 50//
f 50// 92// 93//
f 50// 93// 49//
f 49// 93// 94//
f 49// 94// 9//
f 71// 28// 64//
f 55// 57// 56//
f 56// 57// 59//
f 56// 59// 77//
f 77// 59// 75//
f 77// 75// 70//
f 70// 75// 76//
f 70// 76// 71//
f 71// 76// 28//
f 13// 15// 29//
f 13// 29// 95//
f 95// 29// 38//
f 95// 38// 96//
f 96// 38// 37//
f 96// 37// 97//
f 97// 37// 34//
f 97// 34// 98//
f 98// 34// 33//
f 98// 33// 99//
f 99// 33// 20//
f 99// 20// 18//
f 28// 65// 27//
f 27// 65// 100//
f 100// 65// 101//
f 101// 65// 69//
f 101// 69// 102//
f 102// 69// 68//
f 102// 68// 103//
f 103// 68// 67//
f 103// 67// 104//
f 104// 67// 66//
f 104// 66// 105//
f 105// 66// 58//
f 105// 58// 106//
f 106// 58// 57//
f 106// 57// 107//
f 107// 57// 55//
f 107// 55// 108//
f 108// 55// 54//
f 108// 54// 109//
f 109// 54// 88//
f 109// 88// 110//
f 88// 87// 110//
f 110// 87// 14//
f 110// 14// 13//
f 28// 26// 111//
f 28// 111// 63//
f 63// 111// 112//
f 63// 112// 74//
f 74// 112// 113//
f 74// 113// 81//
f 81// 113// 114//
f 81// 114// 86//
f 86// 114// 115//
f 86// 115// 94//
f 94// 115// 10//
f 94// 10// 9//
f 24// 22// 31//
f 24// 31// 116//
f 116// 31// 46//
f 116// 46// 117//
f 117// 46// 45//
f 117// 45// 118//
f 118// 45// 44//
f 118// 44// 119//
f 119// 44// 30//
f 119// 30// 120//
f 120// 30// 12//
f 120// 12// 10//
f 18// 121// 122//
f 121// 123// 124//
f 125// 126// 127//
f 127// 126// 27//
f 128// 27// 126//
f 129// 27// 100//
f 130// 27// 129//
f 128// 126// 131//
f 131// 126// 125//
f 131// 125// 132//
f 133// 134// 135//
f 135// 134// 130//
f 135// 130// 136//
f 136// 130// 129//
f 136// 129// 137//
f 100// 101// 129//
f 129// 101// 102//
f 129// 102// 137//
f 137// 102// 103//
f 137// 103// 104//
f 138// 133// 139//
f 139// 133// 135//
f 139// 135// 140//
f 140// 135// 136//
f 140// 136// 141//
f 141// 136// 137//
f 141// 137// 142//
f 142// 137// 104//
f 142// 104// 105//
f 123// 138// 124//
f 124// 138// 139//
f 124// 139// 143//
f 143// 139// 140//
f 143// 140// 144//
f 144// 140// 141//
f 144// 141// 145//
f 145// 141// 142//
f 145// 142// 146//
f 146// 142// 105//
f 146// 105// 106//
f 121// 124// 122//
f 122// 124// 143//
f 122// 143// 147//
f 147// 143// 144//
f 147// 144// 148//
f 148// 144// 145//
f 148// 145// 149//
f 149// 145// 146//
f 149// 146// 150//
f 134// 27// 130//
f 123// 132// 138//
f 138// 132// 125//
f 138// 125// 133//
f 133// 125// 127//
f 133// 127// 134//
f 134// 127// 27//
f 106// 107// 146//
f 146// 107// 108//
f 146// 108// 150//
f 150// 108// 109//
f 150// 109// 110//
f 18// 122// 99//
f 99// 122// 147//
f 99// 147// 98//
f 98// 147// 148//
f 98// 148// 97//
f 97// 148// 149//
f 97// 149// 96//
f 96// 149// 150//
f 96// 150// 95//
f 95// 150// 110//
f 95// 110// 13//
f 10// 115// 151//
f 152// 153// 154//
f 26// 155// 156//
f 154// 153// 26//
f 157// 26// 153//
f 157// 153// 158//
f 158// 153// 152//
f 158// 152// 159//
f 111// 26// 157//
f 160// 161// 162//
f 162// 161// 156//
f 162// 156// 163//
f 163// 156// 155//
f 163// 155// 164//
f 111// 157// 112//
f 112// 157// 158//
f 112// 158// 113//
f 113// 158// 159//
f 113// 159// 114//
f 165// 160// 166//
f 166// 160// 162//
f 166// 162// 167//
f 167// 162// 163//
f 167// 163// 168//
f 168// 163// 164//
f 168// 164// 169//
f 170// 165// 171//
f 171// 165// 166//
f 171// 166// 172//
f 172// 166// 167//
f 172// 167// 173//
f 173// 167// 168//
f 173// 168// 174//
f 174// 168// 169//
f 174// 169// 175//
f 115// 170// 151//
f 151// 170// 171//
f 151// 171// 176//
f 176// 171// 172//
f 176// 172// 177//
f 177// 172// 173//
f 177// 173// 178//
f 178// 173// 174//
f 178// 174// 179//
f 179// 174// 175//
f 179// 175// 180//
f 10// 151// 120//
f 120// 151// 176//
f 120// 176// 119//
f 119// 176// 177//
f 119// 177// 118//
f 118// 177// 178//
f 118// 178// 117//
f 117// 178// 179//
f 117// 179// 116//
f 116// 179// 180//
f 116// 180// 24//
f 161// 26// 156//
f 115// 114// 170//
f 170// 114// 159//
f 170// 159// 165//
f 165// 159// 152//
f 165// 152// 160//
f 160// 152// 154//
f 160// 154// 161//
f 161// 154// 26//
f 25// 27// 128//
f 25// 128// 181//
f 181// 128// 131//
f 181// 131// 182//
f 182// 131// 132//
f 182// 132// 183//
f 183// 132// 123//
f 183// 123// 184//
f 184// 123// 121//
f 184// 121// 185//
f 185// 121// 18//
f 185// 18// 17//
f 26// 25// 186//
f 26// 186// 155//
f 155// 186// 187//
f 155// 187// 164//
f 164// 187// 188//
f 164// 188// 169//
f 169// 188// 189//
f 169// 189// 175//
f 175// 189// 190//
f 175// 190// 180//
f 180// 190// 23//
f 180// 23// 24//
f 23// 190// 191//
f 192// 193// 194//
f 25// 181// 195//
f 194// 193// 25//
f 196// 25// 193//
f 196// 193// 197//
f 197// 193// 192//
f 197// 192// 198//
f 186// 25// 196//
f 199// 200// 201//
f 201// 200// 195//
f 201// 195// 202//
f 202// 195// 181//
f 202// 181// 182//
f 186// 196// 187//
f 187// 196// 197//
f 187// 197// 188//
f 188// 197// 198//
f 188// 198// 189//
f 203// 199// 204//
f 204// 199// 201//
f 204// 201// 205//
f 205// 201// 202//
f 205// 202// 206//
f 206// 202// 182//
f 206// 182// 183//
f 207// 203// 208//
f 208// 203// 204//
f 208// 204// 209//
f 209// 204// 205//
f 209// 205// 210//
f 210// 205// 206//
f 210// 206// 211//
f 211// 206// 183//
f 211// 183// 184//
f 190// 207// 191//
f 191// 207// 208//
f 191// 208// 212//
f 212// 208// 209//
f 212// 209// 213//
f 213// 209// 210//
f 213// 210// 214//
f 214// 210// 211//
f 214// 211// 215//
f 215// 211// 184//
f 215// 184// 185//
f 23// 191// 216//
f 216// 191// 212//
f 216// 212// 217//
f 217// 212// 213//
f 217// 213// 218//
f 218// 213// 214//
f 218// 214// 219//
f 219// 214// 215//
f 219// 215// 220//
f 220// 215// 185//
f 220// 185// 17//
f 200// 25// 195//
f 190// 189// 207//
f 207// 189// 198//
f 207// 198// 203//
f 203// 198// 192//
f 203// 192// 199//
f 199// 192// 194//
f 199// 194// 200//
f 200// 194// 25//
f 17// 19// 32//
f 17// 32// 220//
f 220// 32// 48//
f 220// 48// 219//
f 219// 48// 47//
f 219// 47// 218//
f 218// 47// 36//
f 218// 36// 217//
f 217// 36// 35//
f 217// 35// 216//
f 216// 35// 21//
f 216// 21// 23//
usemtl 1
f 221// 222// 223//
f 223// 222// 224//
f 225// 226// 227//
f 227// 226// 228//
f 229// 230// 231//
f 231// 230// 232//
f 226// 225// 233//
f 226// 233// 234//
f 234// 233// 235//
f 234// 235// 236//
f 236// 235// 237//
f 236// 237// 238//
f 238// 237// 239//
f 238// 239// 240//
f 240// 239// 241//
f 240// 241// 242//
f 242// 241// 230//
f 242// 230// 229//
f 243// 244// 245//
f 245// 244// 246//
f 247// 248// 249//
f 249// 248// 250//
f 231// 232// 251//
f 231// 251// 252//
f 252// 251// 253//
f 252// 253// 254//
f 254// 253// 255//
f 254// 255// 256//
f 256// 255// 257//
f 256// 257// 258//
f 258// 257// 259//
f 258// 259// 260//
f 260// 259// 248//
f 260// 248// 247//
f 261// 262// 263//
f 264// 265// 232//
f 245// 246// 266//
f 267// 268// 269//
f 227// 270// 225//
f 225// 270// 264//
f 225// 264// 233//
f 271// 272// 273//
f 269// 274// 267//
f 267// 274// 275//
f 267// 275// 276//
f 275// 277// 276//
f 276// 277// 278//
f 276// 278// 279//
f 263// 262// 270//
f 280// 250// 265//
f 265// 250// 248//
f 232// 230// 264//
f 264// 230// 241//
f 264// 241// 239//
f 281// 280// 282//
f 282// 283// 281//
f 281// 283// 284//
f 281// 284// 285//
f 273// 272// 286//
f 286// 272// 222//
f 286// 222// 221//
f 287// 288// 264//
f 264// 288// 289//
f 264// 289// 267//
f 267// 289// 290//
f 267// 290// 268//
f 248// 259// 265//
f 265// 259// 257//
f 265// 257// 255//
f 239// 237// 264//
f 264// 237// 235//
f 264// 235// 233//
f 262// 291// 270//
f 270// 291// 292//
f 270// 292// 264//
f 264// 292// 293//
f 264// 293// 287//
f 294// 295// 296//
f 255// 253// 265//
f 265// 253// 251//
f 265// 251// 232//
f 297// 298// 273//
f 273// 298// 299//
f 273// 299// 271//
f 300// 301// 280//
f 280// 301// 302//
f 280// 302// 282//
f 263// 303// 261//
f 261// 303// 304//
f 261// 304// 273//
f 273// 304// 305//
f 273// 305// 297//
f 279// 306// 276//
f 276// 306// 307//
f 276// 307// 265//
f 265// 307// 308//
f 265// 308// 280//
f 280// 308// 309//
f 280// 309// 300//
f 296// 295// 284//
f 284// 295// 310//
f 284// 310// 285//
f 311// 312// 221//
f 221// 312// 313//
f 221// 313// 286//
f 311// 314// 312//
f 312// 314// 315//
f 312// 315// 316//
f 317// 318// 296//
f 296// 318// 319//
f 296// 319// 294//
f 266// 246// 296//
f 296// 246// 320//
f 296// 320// 317//
f 321// 322// 323//
f 323// 322// 324//
f 266// 325// 245//
f 245// 325// 322//
f 245// 322// 326//
f 326// 322// 321//
f 327// 328// 329//
f 249// 330// 247//
f 247// 330// 331//
f 247// 331// 260//
f 260// 331// 258//
f 332// 333// 334//
f 329// 328// 330//
f 335// 228// 336//
f 336// 228// 226//
f 336// 226// 234//
f 252// 254// 331//
f 331// 254// 256//
f 331// 256// 258//
f 337// 338// 333//
f 339// 340// 331//
f 331// 340// 341//
f 331// 341// 342//
f 343// 344// 335//
f 335// 344// 345//
f 335// 345// 346//
f 346// 345// 347//
f 347// 348// 346//
f 346// 348// 349//
f 346// 349// 350//
f 341// 351// 342//
f 342// 351// 352//
f 342// 352// 353//
f 353// 354// 342//
f 342// 354// 355//
f 342// 355// 356//
f 356// 355// 357//
f 356// 357// 358//
f 334// 244// 332//
f 332// 244// 243//
f 332// 243// 359//
f 359// 243// 360//
f 328// 361// 330//
f 330// 361// 362//
f 330// 362// 331//
f 331// 362// 363//
f 331// 363// 339//
f 356// 364// 336//
f 336// 364// 365//
f 336// 365// 335//
f 335// 365// 366//
f 335// 366// 343//
f 234// 236// 336//
f 336// 236// 238//
f 336// 238// 240//
f 240// 242// 336//
f 336// 242// 229//
f 336// 229// 331//
f 331// 229// 231//
f 331// 231// 252//
f 358// 367// 356//
f 356// 367// 368//
f 356// 368// 364//
f 329// 369// 327//
f 327// 369// 370//
f 327// 370// 333//
f 333// 370// 371//
f 333// 371// 337//
f 338// 372// 333//
f 333// 372// 373//
f 333// 373// 334//
f 374// 223// 375//
f 376// 377// 378//
f 378// 377// 379//
f 378// 379// 380//
f 376// 378// 224//
f 224// 378// 381//
f 224// 381// 223//
f 223// 381// 382//
f 223// 382// 375//
f 243// 383// 360//
f 360// 383// 384//
f 360// 384// 385//
f 385// 384// 386//
f 380// 387// 378//
f 378// 387// 388//
f 378// 388// 349//
f 349// 388// 389//
f 349// 389// 350//
f 390// 391// 375//
f 375// 391// 392//
f 375// 392// 374//
f 272// 271// 376//
f 376// 271// 377//
f 334// 373// 320//
f 320// 373// 317//
f 224// 222// 393//
f 393// 222// 394//
f 393// 394// 395//
f 395// 394// 396//
f 395// 396// 397//
f 397// 396// 398//
f 397// 398// 399//
f 399// 398// 400//
f 399// 400// 401//
f 401// 400// 402//
f 401// 402// 403//
f 403// 402// 404//
f 405// 406// 407//
f 407// 406// 408//
f 407// 408// 409//
f 409// 408// 410//
f 409// 410// 411//
f 411// 410// 412//
f 411// 412// 413//
f 413// 412// 414//
f 413// 414// 415//
f 415// 414// 416//
f 415// 416// 376//
f 376// 416// 272//
f 222// 272// 416//
f 222// 416// 394//
f 394// 416// 414//
f 394// 414// 396//
f 396// 414// 412//
f 396// 412// 398//
f 398// 412// 410//
f 398// 410// 400//
f 400// 410// 408//
f 400// 408// 402//
f 402// 408// 406//
f 402// 406// 404//
f 403// 405// 401//
f 401// 405// 407//
f 401// 407// 399//
f 399// 407// 409//
f 399// 409// 397//
f 397// 409// 411//
f 397// 411// 395//
f 395// 411// 413//
f 395// 413// 393//
f 393// 413// 415//
f 393// 415// 224//
f 224// 415// 376//
f 417// 418// 405//
f 405// 418// 406//
f 419// 420// 404//
f 404// 420// 403//
f 418// 419// 406//
f 406// 419// 404//
f 403// 420// 405//
f 405// 420// 417//
f 419// 418// 420//
f 420// 418// 417//
f 334// 320// 421//
f 421// 320// 422//
f 421// 422// 423//
f 423// 422// 424//
f 423// 424// 425//
f 425// 424// 426//
f 425// 426// 427//
f 427// 426// 428//
f 427// 428// 429//
f 429// 428// 430//
f 429// 430// 431//
f 431// 430// 432//
f 433// 434// 435//
f 435// 434// 436//
f 435// 436// 437//
f 437// 436// 438//
f 437// 438// 439//
f 439// 438// 440//
f 439// 440// 441//
f 441// 440// 442//
f 441// 442// 443//
f 443// 442// 444//
f 443// 444// 244//
f 244// 444// 246//
f 320// 246// 444//
f 320// 444// 422//
f 422// 444// 442//
f 422// 442// 424//
f 424// 442// 440//
f 424// 440// 426//
f 426// 440// 438//
f 426// 438// 428//
f 428// 438// 436//
f 428// 436// 430//
f 430// 436// 434//
f 430// 434// 432//
f 431// 433// 429//
f 429// 433// 435//
f 429// 435// 427//
f 427// 435// 437//
f 427// 437// 425//
f 425// 437// 439//
f 425// 439// 423//
f 423// 439// 441//
f 423// 441// 421//
f 421// 441// 443//
f 421// 443// 334//
f 334// 443// 244//
f 445// 446// 433//
f 433// 446// 434//
f 447// 448// 432//
f 432// 448// 431//
f 446// 447// 434//
f 434// 447// 432//
f 431// 448// 433//
f 433// 448// 445//
f 447// 446// 448//
f 448// 446// 445//
f 329// 281// 369//
f 369// 281// 285//
f 369// 285// 370//
f 370// 285// 310//
f 370// 310// 371//
f 371// 310// 295//
f 371// 295// 337//
f 337// 295// 294//
f 337// 294// 338//
f 338// 294// 319//
f 338// 319// 372//
f 372// 319// 318//
f 372// 318// 373//
f 373// 318// 317//
f 329// 330// 281//
f 281// 330// 280//
f 330// 249// 280//
f 280// 249// 250//
f 228// 335// 227//
f 227// 335// 270//
f 335// 346// 270//
f 270// 346// 263//
f 377// 271// 379//
f 379// 271// 299//
f 379// 299// 380//
f 380// 299// 298//
f 380// 298// 387//
f 387// 298// 297//
f 387// 297// 388//
f 388// 297// 305//
f 388// 305// 389//
f 389// 305// 304//
f 389// 304// 350//
f 350// 304// 303//
f 350// 303// 346//
f 346// 303// 263//
f 331// 342// 265//
f 265// 342// 276//
f 342// 356// 276//
f 276// 356// 267//
f 356// 336// 267//
f 267// 336// 264//
f 336// 331// 264//
f 264// 331// 265//
f 382// 381// 313//
f 313// 381// 286//
f 287// 293// 343//
f 343// 293// 344//
f 364// 368// 290//
f 290// 368// 268//
f 277// 275// 355//
f 355// 275// 357//
f 307// 306// 351//
f 351// 306// 352//
f 301// 300// 363//
f 363// 300// 339//
f 332// 359// 266//
f 266// 359// 325//
f 301// 363// 302//
f 302// 363// 362//
f 302// 362// 282//
f 282// 362// 361//
f 282// 361// 283//
f 283// 361// 328//
f 283// 328// 284//
f 284// 328// 327//
f 284// 327// 296//
f 296// 327// 333//
f 296// 333// 266//
f 266// 333// 332//
f 325// 359// 360//
f 325// 360// 322//
f 322// 360// 385//
f 322// 385// 324//
f 324// 385// 386//
f 324// 386// 323//
f 323// 386// 384//
f 323// 384// 321//
f 321// 384// 383//
f 321// 383// 326//
f 326// 383// 243//
f 326// 243// 245//
f 307// 351// 308//
f 308// 351// 341//
f 308// 341// 309//
f 309// 341// 340//
f 309// 340// 300//
f 300// 340// 339//
f 352// 306// 279//
f 352// 279// 353//
f 353// 279// 278//
f 353// 278// 354//
f 354// 278// 277//
f 354// 277// 355//
f 287// 343// 288//
f 288// 343// 366//
f 288// 366// 289//
f 289// 366// 365//
f 289// 365// 290//
f 290// 365// 364//
f 357// 275// 274//
f 357// 274// 358//
f 358// 274// 269//
f 358// 269// 367//
f 367// 269// 268//
f 367// 268// 368//
f 221// 223// 374//
f 221// 374// 311//
f 311// 374// 392//
f 311// 392// 314//
f 314// 392// 391//
f 314// 391// 315//
f 315// 391// 390//
f 315// 390// 316//
f 316// 390// 375//
f 316// 375// 312//
f 312// 375// 382//
f 312// 382// 313//
f 286// 381// 273//
f 273// 381// 378//
f 273// 378// 261//
f 261// 378// 349//
f 261// 349// 262//
f 262// 349// 348//
f 262// 348// 291//
f 291// 348// 347//
f 291// 347// 292//
f 292// 347// 345//
f 292// 345// 293//
f 293// 345// 344//
usemtl 3
f 449// 450// 451//
f 452// 453// 454//
f 455// 456// 457//
f 458// 459// 460//
f 461// 462// 463//
f 463// 462// 464//
f 465// 466// 467//
f 467// 468// 465//
f 465// 468// 469//
f 465// 469// 470//
f 464// 471// 463//
f 463// 471// 472//
f 463// 472// 465//
f 465// 472// 473//
f 465// 473// 466//
f 456// 474// 457//
f 457// 474// 475//
f 457// 475// 460//
f 460// 475// 476//
f 460// 476// 458//
f 477// 478// 479//
f 480// 477// 481//
f 454// 453// 481//
f 481// 453// 482//
f 481// 482// 480//
f 478// 483// 479//
f 479// 483// 484//
f 479// 484// 455//
f 469// 485// 470//
f 470// 485// 486//
f 470// 486// 454//
f 454// 486// 487//
f 454// 487// 452//
f 488// 489// 490//
f 490// 489// 491//
f 490// 491// 492//
f 492// 491// 493//
f 492// 493// 494//
f 494// 495// 492//
f 492// 495// 496//
f 492// 496// 497//
f 497// 496// 498//
f 497// 498// 499//
f 499// 500// 497//
f 497// 500// 501//
f 497// 501// 502//
f 488// 490// 503//
f 503// 490// 504//
f 503// 504// 505//
f 506// 507// 508//
f 506// 508// 509//
f 510// 511// 512//
f 511// 513// 512//
f 512// 513// 514//
f 512// 514// 504//
f 504// 514// 515//
f 504// 515// 505//
f 516// 517// 518//
f 518// 517// 519//
f 518// 519// 451//
f 451// 519// 520//
f 451// 520// 449//
f 521// 522// 479//
f 477// 479// 481//
f 481// 479// 522//
f 481// 522// 523//
f 507// 510// 508//
f 508// 510// 512//
f 508// 512// 524//
f 524// 512// 525//
f 526// 527// 528//
f 528// 529// 526//
f 526// 529// 530//
f 526// 530// 531//
f 527// 532// 533//
f 534// 535// 536//
f 536// 535// 528//
f 536// 528// 537//
f 537// 528// 527//
f 537// 527// 538//
f 538// 527// 533//
f 534// 539// 535//
f 535// 539// 540//
f 535// 540// 541//
f 541// 542// 535//
f 535// 542// 543//
f 535// 543// 544//
f 544// 545// 535//
f 535// 545// 546//
f 535// 546// 547//
f 548// 549// 550//
f 550// 549// 551//
f 547// 552// 535//
f 535// 552// 549//
f 535// 549// 553//
f 553// 549// 548//
f 554// 555// 556//
f 556// 555// 557//
f 558// 559// 560//
f 560// 559// 561//
f 558// 562// 559//
f 559// 562// 563//
f 559// 563// 564//
f 557// 565// 556//
f 556// 565// 566//
f 556// 566// 567//
f 564// 568// 559//
f 559// 568// 569//
f 559// 569// 556//
f 556// 569// 570//
f 556// 570// 554//
f 571// 572// 573//
f 573// 572// 574//
f 573// 574// 531//
f 575// 525// 576//
f 576// 525// 512//
f 576// 512// 577//
f 577// 512// 504//
f 577// 504// 578//
f 578// 504// 490//
f 578// 490// 579//
f 579// 490// 492//
f 580// 581// 582//
f 583// 584// 585//
f 582// 581// 586//
f 586// 581// 587//
f 586// 587// 588//
f 585// 580// 583//
f 583// 580// 582//
f 583// 582// 589//
f 589// 582// 518//
f 589// 518// 588//
f 588// 518// 451//
f 588// 451// 586//
f 586// 590// 591//
f 592// 593// 586//
f 586// 593// 594//
f 586// 594// 590//
f 595// 596// 582//
f 582// 596// 597//
f 582// 597// 598//
f 598// 599// 582//
f 582// 599// 600//
f 582// 600// 601//
f 601// 600// 602//
f 601// 602// 592//
f 592// 602// 603//
f 592// 603// 593//
f 591// 604// 586//
f 586// 604// 605//
f 586// 605// 606//
f 606// 607// 586//
f 586// 607// 608//
f 586// 608// 582//
f 582// 608// 609//
f 582// 609// 595//
f 531// 574// 526//
f 526// 574// 610//
f 526// 610// 601//
f 601// 610// 611//
f 601// 611// 582//
f 582// 611// 497//
f 582// 497// 518//
f 518// 497// 502//
f 518// 502// 516//
f 612// 613// 614//
f 614// 613// 615//
f 527// 616// 592//
f 592// 616// 614//
f 592// 614// 601//
f 601// 614// 615//
f 601// 615// 617//
f 618// 619// 617//
f 617// 619// 620//
f 617// 620// 601//
f 601// 620// 621//
f 601// 621// 526//
f 526// 621// 622//
f 526// 622// 527//
f 527// 622// 623//
f 527// 623// 616//
f 532// 527// 624//
f 624// 527// 592//
f 624// 592// 625//
f 625// 592// 586//
f 625// 586// 626//
f 626// 586// 451//
f 626// 451// 508//
f 508// 451// 450//
f 508// 450// 509//
f 572// 460// 463//
f 463// 460// 459//
f 463// 459// 461//
f 559// 627// 628//
f 627// 559// 629//
f 629// 559// 556//
f 629// 556// 630//
f 571// 561// 572//
f 572// 561// 559//
f 572// 559// 460//
f 460// 559// 628//
f 460// 628// 457//
f 457// 628// 631//
f 457// 631// 556//
f 556// 631// 632//
f 556// 632// 630//
f 455// 457// 479//
f 479// 457// 556//
f 479// 556// 633//
f 633// 556// 567//
f 633// 567// 624//
f 624// 567// 634//
f 624// 634// 532//
f 521// 479// 635//
f 635// 479// 633//
f 635// 633// 636//
f 636// 633// 624//
f 636// 624// 637//
f 637// 624// 625//
f 637// 625// 638//
f 638// 625// 626//
f 638// 626// 639//
f 639// 626// 508//
f 639// 508// 640//
f 640// 508// 524//
f 640// 524// 641//
f 642// 643// 644//
f 644// 643// 645//
f 643// 226// 645//
f 645// 226// 646//
f 646// 226// 234//
f 646// 234// 647//
f 647// 234// 236//
f 647// 236// 648//
f 648// 236// 238//
f 648// 238// 649//
f 649// 238// 240//
f 649// 240// 650//
f 650// 240// 242//
f 650// 242// 651//
f 651// 242// 229//
f 651// 229// 652//
f 653// 575// 576//
f 579// 654// 578//
f 578// 654// 653//
f 578// 653// 577//
f 577// 653// 576//
f 654// 655// 653//
f 653// 655// 656//
f 653// 656// 657//
f 657// 656// 658//
f 659// 656// 644//
f 644// 656// 655//
f 644// 655// 642//
f 231// 660// 229//
f 229// 660// 661//
f 652// 229// 662//
f 662// 229// 661//
f 662// 661// 663//
f 663// 661// 664//
f 660// 231// 252//
f 660// 252// 665//
f 665// 252// 254//
f 665// 254// 666//
f 666// 254// 256//
f 666// 256// 667//
f 667// 256// 258//
f 667// 258// 668//
f 668// 258// 260//
f 668// 260// 669//
f 669// 260// 247//
f 669// 247// 670//
f 670// 247// 671//
f 671// 247// 672//
f 671// 672// 673//
f 673// 672// 674//
f 674// 675// 673//
f 673// 675// 676//
f 673// 676// 677//
f 678// 679// 680//
f 680// 679// 676//
f 680// 676// 681//
f 681// 676// 675//
f 681// 465// 680//
f 680// 465// 470//
f 470// 454// 680//
f 680// 454// 481//
f 680// 481// 523//
f 656// 659// 658//
f 658// 659// 682//
f 677// 676// 683//
f 683// 676// 679//
f 635// 658// 521//
f 521// 658// 682//
f 521// 682// 679//
f 679// 682// 683//
f 683// 682// 663//
f 683// 663// 664//
f 635// 636// 658//
f 658// 636// 637//
f 658// 637// 638//
f 638// 639// 658//
f 658// 639// 640//
f 658// 640// 641//
f 681// 675// 229//
f 229// 675// 674//
f 642// 655// 654//
f 579// 492// 654//
f 654// 492// 497//
f 654// 497// 611//
f 236// 234// 642//
f 642// 234// 226//
f 642// 226// 643//
f 672// 247// 674//
f 674// 247// 260//
f 610// 574// 681//
f 260// 258// 674//
f 674// 258// 256//
f 674// 256// 254//
f 254// 252// 674//
f 674// 252// 231//
f 674// 231// 229//
f 242// 240// 642//
f 642// 240// 238//
f 642// 238// 236//
f 611// 610// 654//
f 654// 610// 681//
f 654// 681// 642//
f 642// 681// 229//
f 642// 229// 242//
f 574// 572// 681//
f 681// 572// 463//
f 681// 463// 465//
f 678// 680// 522//
f 522// 680// 523//
f 521// 679// 522//
f 522// 679// 678//
f 575// 653// 525//
f 525// 653// 657//
f 525// 657// 524//
f 524// 657// 641//
f 641// 657// 658//
f 684// 505// 685//
f 685// 505// 515//
f 685// 515// 686//
f 515// 514// 686//
f 686// 514// 513//
f 686// 513// 687//
f 687// 513// 511//
f 687// 511// 688//
f 688// 511// 510//
f 688// 510// 689//
f 689// 510// 507//
f 689// 507// 690//
f 690// 507// 506//
f 690// 506// 691//
f 691// 506// 509//
f 691// 509// 692//
f 692// 509// 450//
f 692// 450// 693//
f 450// 449// 693//
f 693// 449// 520//
f 693// 520// 694//
f 694// 520// 519//
f 694// 519// 695//
f 519// 517// 695//
f 695// 517// 516//
f 695// 516// 696//
f 696// 516// 502//
f 696// 502// 697//
f 697// 502// 501//
f 697// 501// 698//
f 698// 501// 500//
f 698// 500// 699//
f 699// 500// 499//
f 699// 499// 700//
f 700// 499// 498//
f 700// 498// 701//
f 701// 498// 496//
f 701// 496// 702//
f 702// 496// 495//
f 702// 495// 703//
f 703// 495// 494//
f 703// 494// 704//
f 704// 494// 493//
f 704// 493// 705//
f 705// 493// 491//
f 705// 491// 706//
f 706// 491// 489//
f 706// 489// 707//
f 707// 489// 488//
f 707// 488// 684//
f 684// 488// 503//
f 684// 503// 505//
f 708// 474// 709//
f 709// 474// 456//
f 709// 456// 710//
f 456// 455// 710//
f 710// 455// 484//
f 710// 484// 711//
f 711// 484// 483//
f 711// 483// 712//
f 712// 483// 478//
f 712// 478// 713//
f 713// 478// 477//
f 713// 477// 714//
f 714// 477// 480//
f 714// 480// 715//
f 715// 480// 482//
f 715// 482// 716//
f 716// 482// 453//
f 716// 453// 717//
f 453// 452// 717//
f 717// 452// 487//
f 717// 487// 718//
f 718// 487// 486//
f 718// 486// 719//
f 486// 485// 719//
f 719// 485// 469//
f 719// 469// 720//
f 720// 469// 468//
f 720// 468// 721//
f 721// 468// 467//
f 721// 467// 722//
f 722// 467// 466//
f 722// 466// 723//
f 723// 466// 473//
f 723// 473// 724//
f 724// 473// 472//
f 724// 472// 725//
f 725// 472// 471//
f 725// 471// 726//
f 726// 471// 464//
f 726// 464// 727//
f 727// 464// 462//
f 727// 462// 728//
f 728// 462// 461//
f 728// 461// 729//
f 729// 461// 459//
f 729// 459// 730//
f 730// 459// 458//
f 730// 458// 731//
f 731// 458// 476//
f 731// 476// 708//
f 708// 476// 475//
f 708// 475// 474//
f 732// 733// 734//
f 735// 733// 732//
f 732// 736// 737//
f 738// 736// 732//
f 734// 738// 732//
f 732// 739// 740//
f 741// 739// 732//
f 737// 741// 732//
f 732// 742// 743//
f 744// 742// 732//
f 740// 744// 732//
f 732// 745// 746//
f 747// 745// 732//
f 743// 747// 732//
f 732// 748// 749//
f 750// 748// 732//
f 746// 750// 732//
f 732// 751// 752//
f 753// 751// 732//
f 749// 753// 732//
f 732// 754// 755//
f 756// 754// 732//
f 752// 756// 732//
f 755// 735// 732//
f 735// 757// 733//
f 733// 757// 758//
f 733// 758// 734//
f 734// 758// 759//
f 734// 759// 738//
f 738// 759// 760//
f 738// 760// 736//
f 736// 760// 761//
f 736// 761// 737//
f 737// 761// 762//
f 737// 762// 741//
f 741// 762// 763//
f 741// 763// 739//
f 739// 763// 764//
f 739// 764// 740//
f 740// 764// 765//
f 740// 765// 744//
f 744// 765// 766//
f 744// 766// 742//
f 742// 766// 767//
f 742// 767// 743//
f 743// 767// 768//
f 743// 768// 747//
f 747// 768// 769//
f 747// 769// 745//
f 745// 769// 770//
f 745// 770// 746//
f 746// 770// 771//
f 746// 771// 750//
f 750// 771// 772//
f 750// 772// 748//
f 748// 772// 773//
f 748// 773// 749//
f 749// 773// 774//
f 749// 774// 753//
f 753// 774// 775//
f 753// 775// 751//
f 751// 775// 776//
f 751// 776// 752//
f 752// 776// 777//
f 752// 777// 756//
f 756// 777// 778//
f 756// 778// 754//
f 754// 778// 779//
f 754// 779// 755//
f 755// 779// 780//
f 755// 780// 735//
f 735// 780// 757//
f 780// 781// 757//
f 757// 781// 782//
f 757// 782// 758//
f 758// 782// 783//
f 758// 783// 759//
f 759// 783// 784//
f 759// 784// 760//
f 760// 784// 785//
f 760// 785// 761//
f 761// 785// 786//
f 761// 786// 762//
f 762// 786// 787//
f 762// 787// 763//
f 763// 787// 788//
f 763// 788// 764//
f 764// 788// 789//
f 764// 789// 765//
f 765// 789// 790//
f 765// 790// 766//
f 766// 790// 791//
f 766// 791// 767//
f 767// 791// 792//
f 767// 792// 768//
f 768// 792// 793//
f 768// 793// 769//
f 769// 793// 794//
f 769// 794// 770//
f 770// 794// 795//
f 770// 795// 771//
f 771// 795// 796//
f 771// 796// 772//
f 772// 796// 797//
f 772// 797// 773//
f 773// 797// 798//
f 773// 798// 774//
f 774// 798// 799//
f 774// 799// 775//
f 775// 799// 800//
f 775// 800// 776//
f 776// 800// 801//
f 776// 801// 777//
f 777// 801// 802//
f 777// 802// 778//
f 778// 802// 803//
f 778// 803// 779//
f 779// 803// 804//
f 779// 804// 780//
f 780// 804// 781//
f 804// 805// 781//
f 781// 805// 806//
f 781// 806// 782//
f 782// 806// 807//
f 782// 807// 783//
f 783// 807// 808//
f 783// 808// 784//
f 784// 808// 809//
f 784// 809// 785//
f 785// 809// 810//
f 785// 810// 786//
f 786// 810// 811//
f 786// 811// 787//
f 787// 811// 812//
f 787// 812// 788//
f 788// 812// 813//
f 788// 813// 789//
f 789// 813// 814//
f 789// 814// 790//
f 790// 814// 815//
f 790// 815// 791//
f 791// 815// 816//
f 791// 816// 792//
f 792// 816// 817//
f 792// 817// 793//
f 793// 817// 818//
f 793// 818// 794//
f 794// 818// 819//
f 794// 819// 795//
f 795// 819// 820//
f 795// 820// 796//
f 796// 820// 821//
f 796// 821// 797//
f 797// 821// 822//
f 797// 822// 798//
f 798// 822// 823//
f 798// 823// 799//
f 799// 823// 824//
f 799// 824// 800//
f 800// 824// 825//
f 800// 825// 801//
f 801// 825// 826//
f 801// 826// 802//
f 802// 826// 827//
f 802// 827// 803//
f 803// 827// 828//
f 803// 828// 804//
f 804// 828// 805//
f 828// 829// 805//
f 805// 829// 830//
f 805// 830// 806//
f 806// 830// 831//
f 806// 831// 807//
f 807// 831// 832//
f 807// 832// 808//
f 808// 832// 833//
f 808// 833// 809//
f 809// 833// 834//
f 809// 834// 810//
f 810// 834// 835//
f 810// 835// 811//
f 811// 835// 836//
f 811// 836// 812//
f 812// 836// 837//
f 812// 837// 813//
f 813// 837// 838//
f 813// 838// 814//
f 814// 838// 839//
f 814// 839// 815//
f 815// 839// 840//
f 815// 840// 816//
f 816// 840// 841//
f 816// 841// 817//
f 817// 841// 842//
f 817// 842// 818//
f 818// 842// 843//
f 818// 843// 819//
f 819// 843// 844//
f 819// 844// 820//
f 820// 844// 845//
f 820// 845// 821//
f 821// 845// 846//
f 821// 846// 822//
f 822// 846// 847//
f 822// 847// 823//
f 823// 847// 848//
f 823// 848// 824//
f 824// 848// 849//
f 824// 849// 825//
f 825// 849// 850//
f 825// 850// 826//
f 826// 850// 851//
f 826// 851// 827//
f 827// 851// 852//
f 827// 852// 828//
f 828// 852// 829//
f 852// 720// 829//
f 829// 720// 721//
f 829// 721// 830//
f 830// 721// 722//
f 830// 722// 831//
f 831// 722// 723//
f 831// 723// 832//
f 832// 723// 724//
f 832// 724// 833//
f 833// 724// 725//
f 833// 725// 834//
f 834// 725// 726//
f 834// 726// 835//
f 835// 726// 727//
f 835// 727// 836//
f 836// 727// 728//
f 836// 728// 837//
f 837// 728// 729//
f 837// 729// 838//
f 838// 729// 730//
f 838// 730// 839//
f 839// 730// 731//
f 839// 731// 840//
f 840// 731// 708//
f 840// 708// 841//
f 841// 708// 709//
f 841// 709// 842//
f 842// 709// 710//
f 842// 710// 843//
f 843// 710// 711//
f 843// 711// 844//
f 844// 711// 712//
f 844// 712// 845//
f 845// 712// 713//
f 845// 713// 846//
f 846// 713// 714//
f 846// 714// 847//
f 847// 714// 715//
f 847// 715// 848//
f 848// 715// 716//
f 848// 716// 849//
f 849// 716// 717//
f 849// 717// 850//
f 850// 717// 718//
f 850// 718// 851//
f 851// 718// 719//
f 851// 719// 852//
f 852// 719// 720//
f 853// 854// 855//
f 856// 854// 853//
f 853// 857// 858//
f 859// 857// 853//
f 855// 859// 853//
f 853// 860// 861//
f 862// 860// 853//
f 858// 862// 853//
f 853// 863// 864//
f 865// 863// 853//
f 861// 865// 853//
f 853// 866// 867//
f 868// 866// 853//
f 864// 868// 853//
f 853// 869// 870//
f 871// 869// 853//
f 867// 871// 853//
f 853// 872// 873//
f 874// 872// 853//
f 870// 874// 853//
f 853// 875// 876//
f 877// 875// 853//
f 873// 877// 853//
f 876// 856// 853//
f 856// 878// 854//
f 854// 878// 879//
f 854// 879// 855//
f 855// 879// 880//
f 855// 880// 859//
f 859// 880// 881//
f 859// 881// 857//
f 857// 881// 882//
f 857// 882// 858//
f 858// 882// 883//
f 858// 883// 862//
f 862// 883// 884//
f 862// 884// 860//
f 860// 884// 885//
f 860// 885// 861//
f 861// 885// 886//
f 861// 886// 865//
f 865// 886// 887//
f 865// 887// 863//
f 863// 887// 888//
f 863// 888// 864//
f 864// 888// 889//
f 864// 889// 868//
f 868// 889// 890//
f 868// 890// 866//
f 866// 890// 891//
f 866// 891// 867//
f 867// 891// 892//
f 867// 892// 871//
f 871// 892// 893//
f 871// 893// 869//
f 869// 893// 894//
f 869// 894// 870//
f 870// 894// 895//
f 870// 895// 874//
f 874// 895// 896//
f 874// 896// 872//
f 872// 896// 897//
f 872// 897// 873//
f 873// 897// 898//
f 873// 898// 877//
f 877// 898// 899//
f 877// 899// 875//
f 875// 899// 900//
f 875// 900// 876//
f 876// 900// 901//
f 876// 901// 856//
f 856// 901// 878//
f 901// 902// 878//
f 878// 902// 903//
f 878// 903// 879//
f 879// 903// 904//
f 879// 904// 880//
f 880// 904// 905//
f 880// 905// 881//
f 881// 905// 906//
f 881// 906// 882//
f 882// 906// 907//
f 882// 907// 883//
f 883// 907// 908//
f 883// 908// 884//
f 884// 908// 909//
f 884// 909// 885//
f 885// 909// 910//
f 885// 910// 886//
f 886// 910// 911//
f 886// 911// 887//
f 887// 911// 912//
f 887// 912// 888//
f 888// 912// 913//
f 888// 913// 889//
f 889// 913// 914//
f 889// 914// 890//
f 890// 914// 915//
f 890// 915// 891//
f 891// 915// 916//
f 891// 916// 892//
f 892// 916// 917//
f 892// 917// 893//
f 893// 917// 918//
f 893// 918// 894//
f 894// 918// 919//
f 894// 919// 895//
f 895// 919// 920//
f 895// 920// 896//
f 896// 920// 921//
f 896// 921// 897//
f 897// 921// 922//
f 897// 922// 898//
f 898// 922// 923//
f 898// 923// 899//
f 899// 923// 924//
f 899// 924// 900//
f 900// 924// 925//
f 900// 925// 901//
f 901// 925// 902//
f 925// 926// 902//
f 902// 926// 927//
f 902// 927// 903//
f 903// 927// 928//
f 903// 928// 904//
f 904// 928// 929//
f 904// 929// 905//
f 905// 929// 930//
f 905// 930// 906//
f 906// 930// 931//
f 906// 931// 907//
f 907// 931// 932//
f 907// 932// 908//
f 908// 932// 933//
f 908// 933// 909//
f 909// 933// 934//
f 909// 934// 910//
f 910// 934// 935//
f 910// 935// 911//
f 911// 935// 936//
f 911// 936// 912//
f 912// 936// 937//
f 912// 937// 913//
f 913// 937// 938//
f 913// 938// 914//
f 914// 938// 939//
f 914// 939// 915//
f 915// 939// 940//
f 915// 940// 916//
f 916// 940// 941//
f 916// 941// 917//
f 917// 941// 942//
f 917// 942// 918//
f 918// 942// 943//
f 918// 943// 919//
f 919// 943// 944//
f 919// 944// 920//
f 920// 944// 945//
f 920// 945// 921//
f 921// 945// 946//
f 921// 946// 922//
f 922// 946// 947//
f 922// 947// 923//
f 923// 947// 948//
f 923// 948// 924//
f 924// 948// 949//
f 924// 949// 925//
f 925// 949// 926//
f 949// 950// 926//
f 926// 950// 951//
f 926// 951// 927//
f 927// 951// 952//
f 927// 952// 928//
f 928// 952// 953//
f 928// 953// 929//
f 929// 953// 954//
f 929// 954// 930//
f 930// 954// 955//
f 930// 955// 931//
f 931// 955// 956//
f 931// 956// 932//
f 932// 956// 957//
f 932// 957// 933//
f 933// 957// 958//
f 933// 958// 934//
f 934// 958// 959//
f 934// 959// 935//
f 935// 959// 960//
f 935// 960// 936//
f 936// 960// 961//
f 936// 961// 937//
f 937// 961// 962//
f 937// 962// 938//
f 938// 962// 963//
f 938// 963// 939//
f 939// 963// 964//
f 939// 964// 940//
f 940// 964// 965//
f 940// 965// 941//
f 941// 965// 966//
f 941// 966// 942//
f 942// 966// 967//
f 942// 967// 943//
f 943// 967// 968//
f 943// 968// 944//
f 944// 968// 969//
f 944// 969// 945//
f 945// 969// 970//
f 945// 970// 946//
f 946// 970// 971//
f 946// 971// 947//
f 947// 971// 972//
f 947// 972// 948//
f 948// 972// 973//
f 948// 973// 949//
f 949// 973// 950//
f 973// 696// 950//
f 950// 696// 697//
f 950// 697// 951//
f 951// 697// 698//
f 951// 698// 952//
f 952// 698// 699//
f 952// 699// 953//
f 953// 699// 700//
f 953// 700// 954//
f 954// 700// 701//
f 954// 701// 955//
f 955// 701// 702//
f 955// 702// 956//
f 956// 702// 703//
f 956// 703// 957//
f 957// 703// 704//
f 957// 704// 958//
f 958// 704// 705//
f 958// 705// 959//
f 959// 705// 706//
f 959// 706// 960//
f 960// 706// 707//
f 960// 707// 961//
f 961// 707// 684//
f 961// 684// 962//
f 962// 684// 685//
f 962// 685// 963//
f 963// 685// 686//
f 963// 686// 964//
f 964// 686// 687//
f 964// 687// 965//
f 965// 687// 688//
f 965// 688// 966//
f 966// 688// 689//
f 966// 689// 967//
f 967// 689// 690//
f 967// 690// 968//
f 968// 690// 691//
f 968// 691// 969//
f 969// 691// 692//
f 969// 692// 970//
f 970// 692// 693//
f 970// 693// 971//
f 971// 693// 694//
f 971// 694// 972//
f 972// 694// 695//
f 972// 695// 973//
f 973// 695// 696//
f 645// 646// 644//
f 644// 646// 647//
f 647// 648// 644//
f 644// 648// 649//
f 644// 649// 650//
f 662// 974// 652//
f 652// 974// 644//
f 652// 644// 651//
f 651// 644// 650//
f 682// 659// 974//
f 974// 659// 644//
f 974// 662// 682//
f 682// 662// 663//
f 673// 975// 661//
f 670// 671// 673//
f 670// 673// 669//
f 661// 660// 673//
f 673// 660// 665//
f 673// 665// 666//
f 666// 667// 673//
f 673// 667// 668//
f 673// 668// 669//
f 683// 664// 975//
f 975// 664// 661//
f 975// 673// 683//
f 683// 673// 677//
usemtl 4
f 976// 977// 978//
f 979// 980// 981//
f 977// 982// 978//
f 978// 982// 983//
f 978// 983// 984//
f 984// 983// 985//
f 984// 985// 986//
f 986// 987// 984//
f 984// 987// 988//
f 984// 988// 989//
f 990// 989// 991//
f 991// 989// 988//
f 991// 988// 981//
f 981// 988// 976//
f 981// 976// 979//
f 979// 976// 978//
f 991// 584// 990//
f 990// 584// 583//
f 981// 585// 991//
f 991// 585// 584//
f 980// 580// 981//
f 981// 580// 585//
f 979// 581// 980//
f 980// 581// 580//
f 978// 587// 979//
f 979// 587// 581//
f 984// 588// 978//
f 978// 588// 587//
f 989// 589// 984//
f 984// 589// 588//
f 989// 990// 589//
f 589// 990// 583//
f 992// 987// 986//
f 992// 986// 993//
f 993// 986// 985//
f 993// 985// 994//
f 983// 995// 985//
f 985// 995// 994//
f 995// 983// 982//
f 995// 982// 996//
f 996// 982// 977//
f 996// 977// 997//
f 976// 998// 977//
f 977// 998// 997//
f 988// 999// 976//
f 976// 999// 998//
f 992// 999// 987//
f 987// 999// 988//
f 1000// 593// 1001//
f 1001// 593// 603//
f 593// 1000// 1002//
f 593// 1002// 594//
f 594// 1002// 1003//
f 594// 1003// 590//
f 590// 1003// 1004//
f 590// 1004// 591//
f 591// 1004// 1005//
f 591// 1005// 604//
f 604// 1005// 1006//
f 604// 1006// 605//
f 605// 1006// 1007//
f 605// 1007// 606//
f 606// 1007// 1008//
f 606// 1008// 607//
f 607// 1008// 1009//
f 607// 1009// 608//
f 608// 1009// 1010//
f 608// 1010// 609//
f 609// 1010// 1011//
f 609// 1011// 595//
f 595// 1011// 1012//
f 595// 1012// 596//
f 596// 1012// 1013//
f 596// 1013// 597//
f 597// 1013// 1014//
f 597// 1014// 598//
f 598// 1014// 1015//
f 598// 1015// 599//
f 599// 1015// 1016//
f 599// 1016// 600//
f 1017// 602// 1016//
f 1016// 602// 600//
f 1017// 1001// 602//
f 602// 1001// 603//
f 1010// 1009// 1018//
f 1018// 1009// 1008//
f 1018// 1008// 1019//
f 1019// 1008// 1007//
f 1019// 1007// 1020//
f 1020// 1007// 1006//
f 1020// 1006// 1021//
f 1021// 1006// 1005//
f 1021// 1005// 1022//
f 1022// 1005// 1004//
f 1022// 1004// 1023//
f 1023// 1004// 1003//
f 1023// 1003// 1024//
f 1024// 1003// 1002//
f 1024// 1002// 1025//
f 1025// 1002// 1000//
f 1025// 1000// 1026//
f 1026// 1000// 1001//
f 1026// 1001// 1027//
f 1027// 1001// 1017//
f 1027// 1017// 1028//
f 1028// 1017// 1016//
f 1028// 1016// 1029//
f 1029// 1016// 1015//
f 1029// 1015// 1030//
f 1030// 1015// 1014//
f 1030// 1014// 1031//
f 1031// 1014// 1013//
f 1031// 1013// 1032//
f 1032// 1013// 1012//
f 1032// 1012// 1033//
f 1033// 1012// 1011//
f 1033// 1011// 1034//
f 1034// 1011// 1010//
f 1034// 1010// 1018//
f 1028// 1035// 1027//
f 1027// 1035// 1036//
f 1035// 1028// 1029//
f 1035// 1029// 1037//
f 1037// 1029// 1030//
f 1037// 1030// 1038//
f 1038// 1030// 1031//
f 1038// 1031// 1039//
f 1039// 1031// 1032//
f 1039// 1032// 1040//
f 1040// 1032// 1033//
f 1040// 1033// 1041//
f 1041// 1033// 1034//
f 1041// 1034// 1042//
f 1042// 1034// 1018//
f 1042// 1018// 1043//
f 1043// 1018// 1019//
f 1043// 1019// 1044//
f 1044// 1019// 1020//
f 1044// 1020// 1045//
f 1045// 1020// 1021//
f 1045// 1021// 1046//
f 1046// 1021// 1022//
f 1046// 1022// 1047//
f 1047// 1022// 1023//
f 1047// 1023// 1048//
f 1048// 1023// 1024//
f 1048// 1024// 1049//
f 1049// 1024// 1025//
f 1049// 1025// 1050//
f 1026// 1051// 1025//
f 1025// 1051// 1050//
f 1036// 1051// 1027//
f 1027// 1051// 1026//
f 1052// 623// 1053//
f 1053// 623// 622//
f 1054// 616// 1052//
f 1052// 616// 623//
f 1055// 614// 1054//
f 1054// 614// 616//
f 1056// 612// 1055//
f 1055// 612// 614//
f 1057// 613// 1056//
f 1056// 613// 612//
f 1058// 615// 1057//
f 1057// 615// 613//
f 1059// 617// 1058//
f 1058// 617// 615//
f 1060// 618// 1059//
f 1059// 618// 617//
f 1061// 619// 1060//
f 1060// 619// 618//
f 1062// 620// 1061//
f 1061// 620// 619//
f 1063// 621// 1062//
f 1062// 621// 620//
f 1063// 1053// 621//
f 621// 1053// 622//
f 1053// 1063// 1062//
f 1062// 1061// 1053//
f 1053// 1061// 1060//
f 1053// 1060// 1052//
f 1055// 1054// 1056//
f 1056// 1054// 1052//
f 1056// 1052// 1057//
f 1057// 1052// 1060//
f 1057// 1060// 1058//
f 1058// 1060// 1059//
f 561// 571// 1064//
f 561// 1064// 560//
f 1064// 1065// 560//
f 560// 1065// 1066//
f 560// 1066// 558//
f 558// 1066// 1067//
f 558// 1067// 562//
f 562// 1067// 1068//
f 562// 1068// 563//
f 563// 1068// 1069//
f 563// 1069// 564//
f 564// 1069// 1070//
f 564// 1070// 568//
f 568// 1070// 1071//
f 568// 1071// 569//
f 569// 1071// 1072//
f 569// 1072// 570//
f 570// 1072// 1073//
f 570// 1073// 554//
f 554// 1073// 1074//
f 554// 1074// 555//
f 555// 1074// 1075//
f 555// 1075// 557//
f 557// 1075// 1076//
f 557// 1076// 565//
f 565// 1076// 1077//
f 565// 1077// 566//
f 566// 1077// 567//
f 567// 1077// 1078//
f 567// 1078// 634//
f 634// 1078// 532//
f 532// 1078// 1079//
f 532// 1079// 533//
f 533// 1079// 1080//
f 533// 1080// 538//
f 1081// 537// 1080//
f 1080// 537// 538//
f 537// 1081// 1082//
f 537// 1082// 536//
f 536// 1082// 1083//
f 536// 1083// 534//
f 534// 1083// 1084//
f 534// 1084// 539//
f 539// 1084// 1085//
f 539// 1085// 540//
f 540// 1085// 1086//
f 540// 1086// 541//
f 541// 1086// 1087//
f 541// 1087// 542//
f 542// 1087// 1088//
f 542// 1088// 543//
f 543// 1088// 1089//
f 543// 1089// 544//
f 544// 1089// 1090//
f 544// 1090// 545//
f 545// 1090// 1091//
f 545// 1091// 546//
f 546// 1091// 1092//
f 546// 1092// 547//
f 547// 1092// 1093//
f 547// 1093// 552//
f 552// 1093// 1094//
f 552// 1094// 549//
f 549// 1094// 1095//
f 549// 1095// 551//
f 551// 1095// 1096//
f 551// 1096// 550//
f 550// 1096// 1097//
f 550// 1097// 548//
f 548// 1097// 1098//
f 548// 1098// 553//
f 553// 1098// 1099//
f 553// 1099// 535//
f 535// 1099// 1100//
f 535// 1100// 528//
f 1101// 529// 1100//
f 1100// 529// 528//
f 530// 529// 1102//
f 1102// 529// 1101//
f 530// 1102// 531//
f 531// 1102// 1103//
f 531// 1103// 573//
f 573// 1103// 1064//
f 573// 1064// 571//
f 1096// 1064// 1097//
f 1097// 1064// 1103//
f 1097// 1103// 1098//
f 1098// 1103// 1102//
f 1098// 1102// 1099//
f 1099// 1102// 1101//
f 1099// 1101// 1100//
f 1081// 1080// 1082//
f 1082// 1080// 1079//
f 1082// 1079// 1083//
f 1083// 1079// 1078//
f 1083// 1078// 1084//
f 1084// 1078// 1077//
f 1084// 1077// 1085//
f 1085// 1077// 1076//
f 1085// 1076// 1086//
f 1086// 1076// 1075//
f 1086// 1075// 1087//
f 1087// 1075// 1074//
f 1087// 1074// 1088//
f 1088// 1074// 1073//
f 1088// 1073// 1089//
f 1089// 1073// 1072//
f 1089// 1072// 1090//
f 1090// 1072// 1071//
f 1090// 1071// 1091//
f 1091// 1071// 1070//
f 1091// 1070// 1092//
f 1092// 1070// 1069//
f 1092// 1069// 1093//
f 1093// 1069// 1068//
f 1093// 1068// 1094//
f 1094// 1068// 1067//
f 1094// 1067// 1095//
f 1095// 1067// 1066//
f 1095// 1066// 1096//
f 1096// 1066// 1065//
f 1096// 1065// 1064//
f 1104// 631// 1105//
f 1105// 631// 628//
f 1106// 632// 1104//
f 1104// 632// 631//
f 1107// 630// 1106//
f 1106// 630// 632//
f 1108// 629// 1107//
f 1107// 629// 630//
f 1109// 627// 1108//
f 1108// 627// 629//
f 1109// 1105// 627//
f 627// 1105// 628//
f 1106// 1104// 1107//
f 1107// 1104// 1105//
f 1107// 1105// 1108//
f 1108// 1105// 1109//
usemtl 3
f 998// 999// 997//
f 997// 999// 992//
f 997// 992// 996//
f 996// 992// 993//
f 996// 993// 995//
f 995// 993// 994//
f 1051// 1036// 1050//
f 1050// 1036// 1035//
f 1042// 1043// 1050//
f 1043// 1044// 1050//
f 1050// 1044// 1045//
f 1050// 1045// 1049//
f 1035// 1037// 1050//
f 1050// 1037// 1038//
f 1050// 1038// 1039//
f 1046// 1047// 1045//
f 1045// 1047// 1048//
f 1045// 1048// 1049//
f 1039// 1040// 1050//
f 1050// 1040// 1041//
f 1050// 1041// 1042//
f 1110// 1111// 1112//
f 1112// 1111// 1113//
f 1114// 1113// 1115//
f 1115// 1113// 1111//
f 1115// 1111// 1116//
f 1116// 1111// 1110//
f 1116// 1110// 1117//
f 1117// 1110// 1112//
f 1117// 1112// 1114//
f 1114// 1112// 1113//
f 1118// 1119// 1120//
f 1120// 1119// 1121//
f 1122// 1123// 1124//
f 1124// 1123// 1125//
f 1124// 1125// 1126//
f 1126// 1125// 1127//
f 1126// 1127// 1128//
f 1128// 1127// 1129//
f 1128// 1129// 1130//
f 1130// 1129// 1131//
f 1130// 1131// 1132//
f 1132// 1131// 1114//
f 1132// 1114// 1115//
f 1124// 1133// 1122//
f 1122// 1133// 1134//
f 1122// 1134// 1135//
f 1135// 1134// 1136//
f 1135// 1136// 1137//
f 1137// 1136// 1121//
f 1137// 1121// 1119//
f 1117// 1114// 1138//
f 1138// 1114// 1131//
f 1138// 1131// 1139//
f 1139// 1131// 1129//
f 1139// 1129// 1140//
f 1140// 1129// 1127//
f 1140// 1127// 1141//
f 1141// 1127// 1125//
f 1141// 1125// 1142//
f 1142// 1125// 1123//
f 1142// 1123// 1143//
f 1123// 1122// 1143//
f 1143// 1122// 1135//
f 1143// 1135// 1144//
f 1144// 1135// 1137//
f 1144// 1137// 1145//
f 1145// 1137// 1119//
f 1145// 1119// 1118//
f 1146// 1147// 1133//
f 1133// 1147// 1148//
f 1133// 1148// 1134//
f 1134// 1148// 1149//
f 1134// 1149// 1136//
f 1136// 1149// 1120//
f 1136// 1120// 1121//
f 1133// 1124// 1146//
f 1146// 1124// 1126//
f 1146// 1126// 1150//
f 1150// 1126// 1128//
f 1150// 1128// 1151//
f 1151// 1128// 1130//
f 1151// 1130// 1152//
f 1152// 1130// 1132//
f 1152// 1132// 1153//
f 1153// 1132// 1115//
f 1153// 1115// 1116//
f 1147// 1146// 1142//
f 1142// 1146// 1150//
f 1142// 1150// 1141//
f 1141// 1150// 1151//
f 1141// 1151// 1140//
f 1140// 1151// 1152//
f 1140// 1152// 1139//
f 1139// 1152// 1153//
f 1139// 1153// 1138//
f 1138// 1153// 1116//
f 1138// 1116// 1117//
f 1142// 1143// 1147//
f 1147// 1143// 1144//
f 1147// 1144// 1148//
f 1148// 1144// 1145//
f 1148// 1145// 1149//
f 1149// 1145// 1118//
f 1149// 1118// 1120//
usemtl 1
f 1154// 1155// 1156//
f 1156// 1155// 1157//
f 1158// 1154// 1159//
f 1159// 1154// 1156//
f 1160// 1158// 1161//
f 1161// 1158// 1159//
f 1155// 1160// 1157//
f 1157// 1160// 1161//
f 1158// 1160// 1154//
f 1154// 1160// 1155//
f 1161// 1159// 1157//
f 1157// 1159// 1156//
usemtl 3
f 1162// 1163// 1164//
f 1164// 1163// 1165//
f 1164// 1165// 1166//
f 1166// 1165// 1167//
f 1166// 1167// 1168//
f 1168// 1167// 1169//
f 1168// 1169// 1162//
f 1162// 1169// 1163//
f 1170// 1171// 1172//
f 1172// 1171// 1173//
f 1169// 1167// 1163//
f 1163// 1167// 1165//
f 1174// 1175// 1176//
f 1176// 1175// 1177//
f 1176// 1177// 1178//
f 1178// 1177// 1173//
f 1178// 1173// 1171//
f 1164// 1166// 1179//
f 1179// 1166// 1180//
f 1179// 1180// 1181//
f 1181// 1180// 1182//
f 1181// 1182// 1183//
f 1183// 1182// 1184//
f 1183// 1184// 1185//
f 1185// 1184// 1186//
f 1185// 1186// 1187//
f 1187// 1186// 1188//
f 1187// 1188// 1174//
f 1174// 1188// 1189//
f 1174// 1189// 1175//
f 1189// 1190// 1175//
f 1175// 1190// 1191//
f 1175// 1191// 1177//
f 1177// 1191// 1172//
f 1177// 1172// 1173//
f 1166// 1168// 1180//
f 1180// 1168// 1192//
f 1180// 1192// 1182//
f 1182// 1192// 1193//
f 1182// 1193// 1184//
f 1184// 1193// 1194//
f 1184// 1194// 1186//
f 1186// 1194// 1195//
f 1186// 1195// 1188//
f 1188// 1195// 1196//
f 1188// 1196// 1189//
f 1189// 1196// 1197//
f 1189// 1197// 1190//
f 1198// 1199// 1187//
f 1187// 1199// 1200//
f 1187// 1200// 1185//
f 1185// 1200// 1201//
f 1185// 1201// 1183//
f 1183// 1201// 1202//
f 1183// 1202// 1181//
f 1181// 1202// 1203//
f 1181// 1203// 1179//
f 1179// 1203// 1162//
f 1179// 1162// 1164//
f 1187// 1174// 1198//
f 1198// 1174// 1176//
f 1198// 1176// 1204//
f 1204// 1176// 1178//
f 1204// 1178// 1205//
f 1205// 1178// 1171//
f 1205// 1171// 1170//
f 1199// 1198// 1197//
f 1197// 1198// 1204//
f 1197// 1204// 1190//
f 1190// 1204// 1205//
f 1190// 1205// 1191//
f 1191// 1205// 1170//
f 1191// 1170// 1172//
f 1197// 1196// 1199//
f 1199// 1196// 1195//
f 1199// 1195// 1200//
f 1200// 1195// 1194//
f 1200// 1194// 1201//
f 1201// 1194// 1193//
f 1201// 1193// 1202//
f 1202// 1193// 1192//
f 1202// 1192// 1203//
f 1203// 1192// 1168//
f 1203// 1168// 1162//
