%TF.GenerationSoftware,tscircuit,circuit-json-to-gerber,0.0.109*%
%TF.CreationDate,2026-10-05T21:35:41.365Z*%
%TF.SameCoordinates,Original*%
%TF.FileFunction,Legend,Bot*%
%TF.FilePolarity,Positive*%
%FSLAX46Y46*%
%MOMM*%
G04 Gerber Fmt 4.6, Leading zero omitted, Abs format (unit mm)*
G04 Created by tscircuit (builder) date 2026-10-05T21:35:41.365Z*
G01*
%LPD*%
G75*
G04 APERTURE MACROS START*
%AMHORZPILL*
0 Horizontal pill (stadium) shape macro*
0 Parameters:*
0 $1 = Total width*
0 $2 = Total height*
0 $3 = Circle diameter (equal to height)*
0 $4 = Circle center offset
0 21 = Center Line(Exposure, Width, Height, Center X, Center Y, Rotation)*
0 1 = Circle(Exposure, Diameter, Center X, Center Y, Rotation)*
21,1,$1-$3,$2,0.0,0.0,0.0*
1,1,$3,0.0-$4,0.0*
1,1,$3,$4,0.0*%
%AMVERTPILL*
0 Vertical pill (stadium) shape macro*
0 Parameters:*
0 $1 = Total width*
0 $2 = Total height*
0 $3 = Circle diameter (equal to width)*
0 $4 = Circle center offset
0 21 = Center Line(Exposure, Width, Height, Center X, Center Y, Rotation)*
21,1,$1,$2-$3,0.0,0.0,0.0*
1,1,$3,0.0,0.0-$4*
1,1,$3,0.0,$4*%
%AMROUNDRECT*
0 Rectangle with rounded corners*
0 $1 Corner radius*
0 $2 $3 $4 $5 $6 $7 $8 $9 X,Y Position of each corner*
0 Polygon box body*
4,1,4,$2,$3,$4,$5,$6,$7,$8,$9,$2,$3,0*
0 Circles for rounded corners*
1,1,$1+$1,$2,$3*
1,1,$1+$1,$4,$5*
1,1,$1+$1,$6,$7*
1,1,$1+$1,$8,$9*
0 Rectangles between the rounded corners*
20,1,$1+$1,$2,$3,$4,$5,0*
20,1,$1+$1,$4,$5,$6,$7,0*
20,1,$1+$1,$6,$7,$8,$9,0*
20,1,$1+$1,$8,$9,$2,$3,0*%
G04 APERTURE MACROS END*
G04 aperture START LIST*
%ADD10C,0.150000*%
%ADD11C,0.300000*%
%ADD12C,0.200000*%
%ADD13C,0.212132*%
%ADD14C,0.216921*%
%ADD15C,0.222434*%
%ADD16C,0.227947*%
%ADD17C,0.233460*%
%ADD18C,0.238974*%
%ADD19C,0.244487*%
%ADD20C,0.250000*%
%ADD21C,0.236111*%
%ADD22C,0.222222*%
%ADD23C,0.208333*%
%ADD24C,0.194444*%
%ADD25C,0.180556*%
%ADD26C,0.166667*%
%ADD27C,0.152778*%
%ADD28C,0.162000*%
%ADD29VERTPILL,0.999998X1.799996X0.999998X0.399999*%
%ADD30VERTPILL,0.999998X2.199996X0.999998X0.599999*%
%ADD31C,0.100000*%
%ADD32C,0.600000*%
%TD*%
G04 aperture END LIST*
D28*
X013035794Y-15559581D02*
X013035794Y-14733581D01*
X013035794Y-14733581D02*
X012793603Y-14711455D01*
X012793603Y-14711455D02*
X012623615Y-14718852D01*
X012623615Y-14718852D02*
X012521070Y-14741583D01*
X012521070Y-14741583D02*
X012477951Y-14760114D01*
X012477951Y-14760114D02*
X012442463Y-14784234D01*
X012442463Y-14784234D02*
X012416247Y-14814549D01*
X012416247Y-14814549D02*
X012393129Y-14896757D01*
X012393129Y-14896757D02*
X012395299Y-14969660D01*
X012395299Y-14969660D02*
X012418959Y-15022449D01*
X012418959Y-15022449D02*
X012461425Y-15058613D01*
X012461425Y-15058613D02*
X012520009Y-15081647D01*
X012520009Y-15081647D02*
X012632237Y-15099211D01*
X012632237Y-15099211D02*
X013019740Y-15112930D01*
X012697935Y-15147806D02*
X012365186Y-15565702D01*
X011472770Y-14694844D02*
X011568627Y-14712241D01*
X011568627Y-14712241D02*
X011655925Y-14755084D01*
X011655925Y-14755084D02*
X011717547Y-14851478D01*
X011717547Y-14851478D02*
X011693583Y-14937161D01*
X011693583Y-14937161D02*
X011621691Y-15002763D01*
X011621691Y-15002763D02*
X011546374Y-15049621D01*
X011546374Y-15049621D02*
X011358085Y-15119240D01*
X011358085Y-15119240D02*
X011241686Y-15183503D01*
X011241686Y-15183503D02*
X011171506Y-15259816D01*
X011171506Y-15259816D02*
X011156100Y-15368259D01*
X011156100Y-15368259D02*
X011195470Y-15474025D01*
X011195470Y-15474025D02*
X011281056Y-15538287D01*
X011281056Y-15538287D02*
X011406013Y-15581130D01*
X011406013Y-15581130D02*
X011501870Y-15578452D01*
X011501870Y-15578452D02*
X011614844Y-15540965D01*
X011614844Y-15540965D02*
X011705565Y-15480719D01*
X011705565Y-15480719D02*
X011753493Y-15392358D01*
X011753493Y-15392358D02*
X011750070Y-15303995D01*
X011750070Y-15303995D02*
X011705565Y-15215635D01*
X011705565Y-15215635D02*
X011606285Y-15136644D01*
X011606285Y-15136644D02*
X011507005Y-15101836D01*
X011507005Y-15101836D02*
X011382049Y-15061671D01*
X011382049Y-15061671D02*
X011258803Y-14996069D01*
X011258803Y-14996069D02*
X011221146Y-14933146D01*
X011221146Y-14933146D02*
X011219433Y-14827379D01*
X011219433Y-14827379D02*
X011262227Y-14751067D01*
X011262227Y-14751067D02*
X011349526Y-14704209D01*
X011349526Y-14704209D02*
X011472770Y-14694844D01*
X009241804Y-14711455D02*
X009241804Y-15565702D01*
X009241804Y-14711455D02*
X008685015Y-14711455D01*
X009241804Y-15138576D02*
X008852052Y-15138576D01*
X009241804Y-15565702D02*
X008685015Y-15565702D01*
X007488382Y-14829060D02*
X007583416Y-14707021D01*
X007583416Y-14707021D02*
X007808683Y-14694844D01*
X007808683Y-14694844D02*
X007934943Y-14782732D01*
X007934943Y-14782732D02*
X007986491Y-14943979D01*
X007986491Y-14943979D02*
X007965142Y-15023596D01*
X007965142Y-15023596D02*
X007885260Y-15092367D01*
X007885260Y-15092367D02*
X007568716Y-15147821D01*
X007568716Y-15147821D02*
X007462225Y-15213371D01*
X007462225Y-15213371D02*
X007422711Y-15326748D01*
X007422711Y-15326748D02*
X007474762Y-15504069D01*
X007474762Y-15504069D02*
X007633747Y-15581130D01*
X007633747Y-15581130D02*
X007838159Y-15575393D01*
X007838159Y-15575393D02*
X007949953Y-15512868D01*
X007949953Y-15512868D02*
X008012721Y-15365821D01*
X006762413Y-15565702D02*
X006762413Y-14727575D01*
X006762413Y-14727575D02*
X006590444Y-14711455D01*
X006590444Y-14711455D02*
X006436606Y-14721531D01*
X006436606Y-14721531D02*
X006336573Y-14748648D01*
X006336573Y-14748648D02*
X006291847Y-14770564D01*
X006291847Y-14770564D02*
X006220512Y-14834851D01*
X006220512Y-14834851D02*
X006188812Y-14903897D01*
X006188812Y-14903897D02*
X006181630Y-15004838D01*
X006181630Y-15004838D02*
X006210058Y-15068298D01*
X006210058Y-15068298D02*
X006254423Y-15103374D01*
X006254423Y-15103374D02*
X006325168Y-15131500D01*
X006325168Y-15131500D02*
X006427482Y-15151669D01*
X006427482Y-15151669D02*
X006566537Y-15162878D01*
X006566537Y-15162878D02*
X006747531Y-15164125D01*
X005502798Y-14804792D02*
X005455487Y-14767698D01*
X005455487Y-14767698D02*
X005380086Y-14727955D01*
X005380086Y-14727955D02*
X005283987Y-14694844D01*
X005283987Y-14694844D02*
X005165714Y-14701458D01*
X005165714Y-14701458D02*
X005062221Y-14734578D01*
X005062221Y-14734578D02*
X004988297Y-14794194D01*
X004988297Y-14794194D02*
X004943944Y-14867059D01*
X004943944Y-14867059D02*
X004958728Y-14946547D01*
X004958728Y-14946547D02*
X005017866Y-15006164D01*
X005017866Y-15006164D02*
X005121360Y-15052532D01*
X005121360Y-15052532D02*
X005239637Y-15079027D01*
X005239637Y-15079027D02*
X005343125Y-15092276D01*
X005343125Y-15092276D02*
X005239637Y-15105524D01*
X005239637Y-15105524D02*
X005121360Y-15138644D01*
X005121360Y-15138644D02*
X005017866Y-15191636D01*
X005017866Y-15191636D02*
X004951336Y-15264502D01*
X004951336Y-15264502D02*
X004936552Y-15343989D01*
X004936552Y-15343989D02*
X004966121Y-15430102D01*
X004966121Y-15430102D02*
X005032651Y-15502966D01*
X005032651Y-15502966D02*
X005136145Y-15562582D01*
X005136145Y-15562582D02*
X005214502Y-15581130D01*
X005214502Y-15581130D02*
X005341647Y-15578480D01*
X005341647Y-15578480D02*
X005445139Y-15562582D01*
X005445139Y-15562582D02*
X005516103Y-15541385D01*
X004220812Y-14864071D02*
X004201645Y-14801289D01*
X004201645Y-14801289D02*
X004145008Y-14742737D01*
X004145008Y-14742737D02*
X004052189Y-14703031D01*
X004052189Y-14703031D02*
X003992615Y-14694844D01*
X003992615Y-14694844D02*
X003889546Y-14702387D01*
X003889546Y-14702387D02*
X003812227Y-14736288D01*
X003812227Y-14736288D02*
X003769946Y-14788277D01*
X003769946Y-14788277D02*
X003754760Y-14848690D01*
X003754760Y-14848690D02*
X003755768Y-14888876D01*
X003755768Y-14888876D02*
X003773917Y-14956142D01*
X003773917Y-14956142D02*
X003852688Y-15086925D01*
X003852688Y-15086925D02*
X004051059Y-15335712D01*
X004051059Y-15335712D02*
X004259644Y-15564537D01*
X004259644Y-15564537D02*
X003701625Y-15564537D01*
X002895209Y-15234404D02*
X002574672Y-15234404D01*
X001201932Y-14899007D02*
X001240525Y-14804947D01*
X001240525Y-14804947D02*
X001311321Y-14738350D01*
X001311321Y-14738350D02*
X001445395Y-14694844D01*
X001445395Y-14694844D02*
X001544470Y-14708130D01*
X001544470Y-14708130D02*
X001631779Y-14752722D01*
X001631779Y-14752722D02*
X001717034Y-14855644D01*
X001717034Y-14855644D02*
X001776563Y-15125803D01*
X001776563Y-15125803D02*
X001729848Y-15397385D01*
X001729848Y-15397385D02*
X001660160Y-15506751D01*
X001660160Y-15506751D02*
X001587708Y-15557929D01*
X001587708Y-15557929D02*
X001446561Y-15581130D01*
X001446561Y-15581130D02*
X001323553Y-15551476D01*
X001323553Y-15551476D02*
X001232472Y-15464939D01*
X001232472Y-15464939D02*
X001201932Y-15342802D01*
X000520023Y-14804792D02*
X000472713Y-14767698D01*
X000472713Y-14767698D02*
X000397312Y-14727955D01*
X000397312Y-14727955D02*
X000301213Y-14694844D01*
X000301213Y-14694844D02*
X000182939Y-14701458D01*
X000182939Y-14701458D02*
X000079447Y-14734578D01*
X000079447Y-14734578D02*
X000005522Y-14794194D01*
X000005522Y-14794194D02*
X-00038831Y-14867059D01*
X-00038831Y-14867059D02*
X-00024046Y-14946547D01*
X-00024046Y-14946547D02*
X000035092Y-15006164D01*
X000035092Y-15006164D02*
X000138586Y-15052532D01*
X000138586Y-15052532D02*
X000256862Y-15079027D01*
X000256862Y-15079027D02*
X000360351Y-15092276D01*
X000360351Y-15092276D02*
X000256862Y-15105524D01*
X000256862Y-15105524D02*
X000138586Y-15138644D01*
X000138586Y-15138644D02*
X000035092Y-15191636D01*
X000035092Y-15191636D02*
X-00031438Y-15264502D01*
X-00031438Y-15264502D02*
X-00046222Y-15343989D01*
X-00046222Y-15343989D02*
X-00016654Y-15430102D01*
X-00016654Y-15430102D02*
X000049877Y-15502966D01*
X000049877Y-15502966D02*
X000153371Y-15562582D01*
X000153371Y-15562582D02*
X000231728Y-15581130D01*
X000231728Y-15581130D02*
X000358873Y-15578480D01*
X000358873Y-15578480D02*
X000462364Y-15562582D01*
X000462364Y-15562582D02*
X000533329Y-15541385D01*
X-01957442Y-15565702D02*
X-01957442Y-14727575D01*
X-01957442Y-14727575D02*
X-02129411Y-14711455D01*
X-02129411Y-14711455D02*
X-02283249Y-14721531D01*
X-02283249Y-14721531D02*
X-02383282Y-14748648D01*
X-02383282Y-14748648D02*
X-02428008Y-14770564D01*
X-02428008Y-14770564D02*
X-02499343Y-14834851D01*
X-02499343Y-14834851D02*
X-02531043Y-14903897D01*
X-02531043Y-14903897D02*
X-02538225Y-15004838D01*
X-02538225Y-15004838D02*
X-02509797Y-15068298D01*
X-02509797Y-15068298D02*
X-02465433Y-15103374D01*
X-02465433Y-15103374D02*
X-02394687Y-15131500D01*
X-02394687Y-15131500D02*
X-02292373Y-15151669D01*
X-02292373Y-15151669D02*
X-02153318Y-15162878D01*
X-02153318Y-15162878D02*
X-01972324Y-15164125D01*
X-03158223Y-15559581D02*
X-03158223Y-14733581D01*
X-03158223Y-14733581D02*
X-03400414Y-14711455D01*
X-03400414Y-14711455D02*
X-03570402Y-14718852D01*
X-03570402Y-14718852D02*
X-03672947Y-14741583D01*
X-03672947Y-14741583D02*
X-03716065Y-14760114D01*
X-03716065Y-14760114D02*
X-03751553Y-14784234D01*
X-03751553Y-14784234D02*
X-03777770Y-14814549D01*
X-03777770Y-14814549D02*
X-03800887Y-14896757D01*
X-03800887Y-14896757D02*
X-03798718Y-14969660D01*
X-03798718Y-14969660D02*
X-03775057Y-15022449D01*
X-03775057Y-15022449D02*
X-03732592Y-15058613D01*
X-03732592Y-15058613D02*
X-03674008Y-15081647D01*
X-03674008Y-15081647D02*
X-03561780Y-15099211D01*
X-03561780Y-15099211D02*
X-03174277Y-15112930D01*
X-03496082Y-15147806D02*
X-03828830Y-15565702D01*
X-04721917Y-15581130D02*
X-04609949Y-15546294D01*
X-04609949Y-15546294D02*
X-04507600Y-15440308D01*
X-04507600Y-15440308D02*
X-04431910Y-15080571D01*
X-04431910Y-15080571D02*
X-04504006Y-14811321D01*
X-04504006Y-14811321D02*
X-04592461Y-14734634D01*
X-04592461Y-14734634D02*
X-04745615Y-14694844D01*
X-04745615Y-14694844D02*
X-04889808Y-14742607D01*
X-04889808Y-14742607D02*
X-04974232Y-14829904D01*
X-04974232Y-14829904D02*
X-05046531Y-15157870D01*
X-05046531Y-15157870D02*
X-05010549Y-15364926D01*
X-05010549Y-15364926D02*
X-04946427Y-15484591D01*
X-04946427Y-15484591D02*
X-04832533Y-15566102D01*
X-04832533Y-15566102D02*
X-04721917Y-15581130D01*
X-05634537Y-14711455D02*
X-06335291Y-14711455D01*
X-05995319Y-14711455D02*
X-05995319Y-15565702D01*
X-07213304Y-15581130D02*
X-07101337Y-15546294D01*
X-07101337Y-15546294D02*
X-06998987Y-15440308D01*
X-06998987Y-15440308D02*
X-06923297Y-15080571D01*
X-06923297Y-15080571D02*
X-06995393Y-14811321D01*
X-06995393Y-14811321D02*
X-07083848Y-14734634D01*
X-07083848Y-14734634D02*
X-07237002Y-14694844D01*
X-07237002Y-14694844D02*
X-07381195Y-14742607D01*
X-07381195Y-14742607D02*
X-07465619Y-14829904D01*
X-07465619Y-14829904D02*
X-07537918Y-15157870D01*
X-07537918Y-15157870D02*
X-07501936Y-15364926D01*
X-07501936Y-15364926D02*
X-07437815Y-15484591D01*
X-07437815Y-15484591D02*
X-07323921Y-15566102D01*
X-07323921Y-15566102D02*
X-07213304Y-15581130D01*
X-08125924Y-14711455D02*
X-08826678Y-14711455D01*
X-08486706Y-14711455D02*
X-08486706Y-15565702D01*
X-09365466Y-14711455D02*
X-09712048Y-15093410D01*
X-10078524Y-14712668D02*
X-09714344Y-15095836D01*
X-09714344Y-15095836D02*
X-09727351Y-15565702D01*
X-10677297Y-15565702D02*
X-10677297Y-14727575D01*
X-10677297Y-14727575D02*
X-10849266Y-14711455D01*
X-10849266Y-14711455D02*
X-11003104Y-14721531D01*
X-11003104Y-14721531D02*
X-11103137Y-14748648D01*
X-11103137Y-14748648D02*
X-11147863Y-14770564D01*
X-11147863Y-14770564D02*
X-11219198Y-14834851D01*
X-11219198Y-14834851D02*
X-11250899Y-14903897D01*
X-11250899Y-14903897D02*
X-11258081Y-15004838D01*
X-11258081Y-15004838D02*
X-11229652Y-15068298D01*
X-11229652Y-15068298D02*
X-11185288Y-15103374D01*
X-11185288Y-15103374D02*
X-11114543Y-15131500D01*
X-11114543Y-15131500D02*
X-11012228Y-15151669D01*
X-11012228Y-15151669D02*
X-10873173Y-15162878D01*
X-10873173Y-15162878D02*
X-10692179Y-15164125D01*
X-11934987Y-14711455D02*
X-11934987Y-15565702D01*
X-11934987Y-14711455D02*
X-12491776Y-14711455D01*
X-11934987Y-15138576D02*
X-12324740Y-15138576D01*
X-11934987Y-15565702D02*
X-12491776Y-15565702D01*
D28*
X016103269Y001288545D02*
X016101936Y000812418D01*
X016101936Y000812418D02*
X016092748Y000682896D01*
X016092748Y000682896D02*
X016069247Y000586956D01*
X016069247Y000586956D02*
X016024186Y000513981D01*
X016024186Y000513981D02*
X015965237Y000465731D01*
X015965237Y000465731D02*
X015877172Y000430883D01*
X015877172Y000430883D02*
X015766051Y000417705D01*
X015766051Y000417705D02*
X015688060Y000430898D01*
X015688060Y000430898D02*
X015624094Y000465652D01*
X015624094Y000465652D02*
X015585814Y000506369D01*
X015585814Y000506369D02*
X015569378Y000533133D01*
X015569378Y000533133D02*
X015544236Y000601374D01*
X015544236Y000601374D02*
X015532499Y000691771D01*
X015532499Y000691771D02*
X015526178Y001287259D01*
X014925559Y000434298D02*
X014582698Y001288545D01*
X014582698Y001288545D02*
X014212501Y000434298D01*
X014752641Y000767504D02*
X014402053Y000767504D01*
X013658640Y000440419D02*
X013658640Y001266419D01*
X013658640Y001266419D02*
X013416450Y001288545D01*
X013416450Y001288545D02*
X013246462Y001281148D01*
X013246462Y001281148D02*
X013143917Y001258417D01*
X013143917Y001258417D02*
X013100798Y001239886D01*
X013100798Y001239886D02*
X013065310Y001215766D01*
X013065310Y001215766D02*
X013039093Y001185451D01*
X013039093Y001185451D02*
X013015976Y001103243D01*
X013015976Y001103243D02*
X013018146Y001030340D01*
X013018146Y001030340D02*
X013041806Y000977551D01*
X013041806Y000977551D02*
X013084272Y000941387D01*
X013084272Y000941387D02*
X013142856Y000918353D01*
X013142856Y000918353D02*
X013255084Y000900789D01*
X013255084Y000900789D02*
X013642587Y000887070D01*
X013320782Y000852194D02*
X012988033Y000434298D01*
X012428020Y001288545D02*
X011727266Y001288545D01*
X012067238Y001288545D02*
X012067238Y000434298D01*
X009862725Y001195208D02*
X009815415Y001232302D01*
X009815415Y001232302D02*
X009740014Y001272045D01*
X009740014Y001272045D02*
X009643915Y001305156D01*
X009643915Y001305156D02*
X009525641Y001298542D01*
X009525641Y001298542D02*
X009422149Y001265422D01*
X009422149Y001265422D02*
X009348224Y001205806D01*
X009348224Y001205806D02*
X009303871Y001132941D01*
X009303871Y001132941D02*
X009318656Y001053453D01*
X009318656Y001053453D02*
X009377794Y000993836D01*
X009377794Y000993836D02*
X009481288Y000947468D01*
X009481288Y000947468D02*
X009599564Y000920973D01*
X009599564Y000920973D02*
X009703053Y000907724D01*
X009703053Y000907724D02*
X009599564Y000894476D01*
X009599564Y000894476D02*
X009481288Y000861356D01*
X009481288Y000861356D02*
X009377794Y000808364D01*
X009377794Y000808364D02*
X009311264Y000735498D01*
X009311264Y000735498D02*
X009296480Y000656011D01*
X009296480Y000656011D02*
X009326048Y000569898D01*
X009326048Y000569898D02*
X009392579Y000497034D01*
X009392579Y000497034D02*
X009496073Y000437418D01*
X009496073Y000437418D02*
X009574430Y000418870D01*
X009574430Y000418870D02*
X009701575Y000421520D01*
X009701575Y000421520D02*
X009805066Y000437418D01*
X009805066Y000437418D02*
X009876031Y000458615D01*
X008684787Y001288545D02*
X008316551Y000434298D01*
X008316551Y000434298D02*
X007996338Y001288545D01*
X007371338Y001195208D02*
X007324028Y001232302D01*
X007324028Y001232302D02*
X007248627Y001272045D01*
X007248627Y001272045D02*
X007152528Y001305156D01*
X007152528Y001305156D02*
X007034254Y001298542D01*
X007034254Y001298542D02*
X006930761Y001265422D01*
X006930761Y001265422D02*
X006856837Y001205806D01*
X006856837Y001205806D02*
X006812484Y001132941D01*
X006812484Y001132941D02*
X006827269Y001053453D01*
X006827269Y001053453D02*
X006886407Y000993836D01*
X006886407Y000993836D02*
X006989901Y000947468D01*
X006989901Y000947468D02*
X007108177Y000920973D01*
X007108177Y000920973D02*
X007211666Y000907724D01*
X007211666Y000907724D02*
X007108177Y000894476D01*
X007108177Y000894476D02*
X006989901Y000861356D01*
X006989901Y000861356D02*
X006886407Y000808364D01*
X006886407Y000808364D02*
X006819876Y000735498D01*
X006819876Y000735498D02*
X006805093Y000656011D01*
X006805093Y000656011D02*
X006834661Y000569898D01*
X006834661Y000569898D02*
X006901192Y000497034D01*
X006901192Y000497034D02*
X007004686Y000437418D01*
X007004686Y000437418D02*
X007083042Y000418870D01*
X007083042Y000418870D02*
X007210188Y000421520D01*
X007210188Y000421520D02*
X007313679Y000437418D01*
X007313679Y000437418D02*
X007384644Y000458615D01*
X004904023Y000325586D02*
X004302940Y001288545D01*
X002213650Y001115353D02*
X002010538Y001288545D01*
X002010538Y001288545D02*
X002010538Y000434303D01*
X-00043989Y000440419D02*
X-00043989Y001266419D01*
X-00043989Y001266419D02*
X-00286180Y001288545D01*
X-00286180Y001288545D02*
X-00456168Y001281148D01*
X-00456168Y001281148D02*
X-00558713Y001258417D01*
X-00558713Y001258417D02*
X-00601831Y001239886D01*
X-00601831Y001239886D02*
X-00637319Y001215766D01*
X-00637319Y001215766D02*
X-00663536Y001185451D01*
X-00663536Y001185451D02*
X-00686653Y001103243D01*
X-00686653Y001103243D02*
X-00684484Y001030340D01*
X-00684484Y001030340D02*
X-00660823Y000977551D01*
X-00660823Y000977551D02*
X-00618358Y000941387D01*
X-00618358Y000941387D02*
X-00559774Y000918353D01*
X-00559774Y000918353D02*
X-00447546Y000900789D01*
X-00447546Y000900789D02*
X-00060043Y000887070D01*
X-00381848Y000852194D02*
X-00714596Y000434298D01*
X-01257076Y001288545D02*
X-01985068Y000434298D01*
X-01992898Y001288545D02*
X-01264904Y000434298D01*
X-03876196Y001135929D02*
X-03895363Y001198711D01*
X-03895363Y001198711D02*
X-03952000Y001257263D01*
X-03952000Y001257263D02*
X-04044819Y001296969D01*
X-04044819Y001296969D02*
X-04104393Y001305156D01*
X-04104393Y001305156D02*
X-04207463Y001297613D01*
X-04207463Y001297613D02*
X-04284781Y001263712D01*
X-04284781Y001263712D02*
X-04327062Y001211723D01*
X-04327062Y001211723D02*
X-04342249Y001151310D01*
X-04342249Y001151310D02*
X-04341241Y001111124D01*
X-04341241Y001111124D02*
X-04323092Y001043858D01*
X-04323092Y001043858D02*
X-04244320Y000913075D01*
X-04244320Y000913075D02*
X-04045950Y000664288D01*
X-04045950Y000664288D02*
X-03837364Y000435463D01*
X-03837364Y000435463D02*
X-04395383Y000435463D01*
X-06855991Y001270972D02*
X-06700490Y001305156D01*
X-06700490Y001305156D02*
X-06536184Y001291504D01*
X-06536184Y001291504D02*
X-06430795Y001236884D01*
X-06430795Y001236884D02*
X-06347609Y001128374D01*
X-06347609Y001128374D02*
X-06299528Y000894110D01*
X-06299528Y000894110D02*
X-06325176Y000640230D01*
X-06325176Y000640230D02*
X-06380758Y000548672D01*
X-06380758Y000548672D02*
X-06466541Y000474915D01*
X-06466541Y000474915D02*
X-06569938Y000428475D01*
X-06569938Y000428475D02*
X-06678375Y000418870D01*
X-06678375Y000418870D02*
X-06779277Y000455621D01*
X-06779277Y000455621D02*
X-06860058Y000548241D01*
X-06860058Y000548241D02*
X-06915995Y000812750D01*
X-06915995Y000812750D02*
X-06643758Y000813355D01*
X-07559679Y000434298D02*
X-07559679Y001288545D01*
X-07559679Y001288545D02*
X-08147230Y000434298D01*
X-08147230Y000434298D02*
X-08135701Y001288545D01*
X-08801067Y000434298D02*
X-08810371Y001270802D01*
X-08810371Y001270802D02*
X-08935589Y001288545D01*
X-08935589Y001288545D02*
X-09031514Y001286482D01*
X-09031514Y001286482D02*
X-09187328Y001244342D01*
X-09187328Y001244342D02*
X-09302556Y001153337D01*
X-09302556Y001153337D02*
X-09368438Y001030801D01*
X-09368438Y001030801D02*
X-09394700Y000903746D01*
X-09394700Y000903746D02*
X-09397230Y000808086D01*
X-09397230Y000808086D02*
X-09385217Y000726100D01*
X-09385217Y000726100D02*
X-09360643Y000656752D01*
X-09360643Y000656752D02*
X-09281750Y000551824D01*
X-09281750Y000551824D02*
X-09176424Y000485025D01*
X-09176424Y000485025D02*
X-09003611Y000438214D01*
X-09003611Y000438214D02*
X-08801067Y000434298D01*
X-11314066Y001195208D02*
X-11361376Y001232302D01*
X-11361376Y001232302D02*
X-11436777Y001272045D01*
X-11436777Y001272045D02*
X-11532876Y001305156D01*
X-11532876Y001305156D02*
X-11651150Y001298542D01*
X-11651150Y001298542D02*
X-11754643Y001265422D01*
X-11754643Y001265422D02*
X-11828567Y001205806D01*
X-11828567Y001205806D02*
X-11872920Y001132941D01*
X-11872920Y001132941D02*
X-11858135Y001053453D01*
X-11858135Y001053453D02*
X-11798997Y000993836D01*
X-11798997Y000993836D02*
X-11695503Y000947468D01*
X-11695503Y000947468D02*
X-11577227Y000920973D01*
X-11577227Y000920973D02*
X-11473738Y000907724D01*
X-11473738Y000907724D02*
X-11577227Y000894476D01*
X-11577227Y000894476D02*
X-11695503Y000861356D01*
X-11695503Y000861356D02*
X-11798997Y000808364D01*
X-11798997Y000808364D02*
X-11865528Y000735498D01*
X-11865528Y000735498D02*
X-11880311Y000656011D01*
X-11880311Y000656011D02*
X-11850743Y000569898D01*
X-11850743Y000569898D02*
X-11784212Y000497034D01*
X-11784212Y000497034D02*
X-11680718Y000437418D01*
X-11680718Y000437418D02*
X-11602362Y000418870D01*
X-11602362Y000418870D02*
X-11475216Y000421520D01*
X-11475216Y000421520D02*
X-11371725Y000437418D01*
X-11371725Y000437418D02*
X-11300760Y000458615D01*
X-13731545Y001288545D02*
X-14432299Y001288545D01*
X-14092327Y001288545D02*
X-14092327Y000434298D01*
X-14959706Y001288545D02*
X-15687698Y000434298D01*
X-15695527Y001288545D02*
X-14967533Y000434298D01*
D28*
X021719042Y-02565702D02*
X021719042Y-01721481D01*
X021719042Y-01721481D02*
X021535849Y-01711455D01*
X021535849Y-01711455D02*
X021368106Y-01740936D01*
X021368106Y-01740936D02*
X021255092Y-01839879D01*
X021255092Y-01839879D02*
X021272676Y-01984540D01*
X021272676Y-01984540D02*
X021405654Y-02061949D01*
X021405654Y-02061949D02*
X021692881Y-02095169D01*
X021692881Y-02095169D02*
X021413603Y-02112687D01*
X021413603Y-02112687D02*
X021208853Y-02185795D01*
X021208853Y-02185795D02*
X021121648Y-02298189D01*
X021121648Y-02298189D02*
X021128814Y-02443545D01*
X021128814Y-02443545D02*
X021168067Y-02507759D01*
X021168067Y-02507759D02*
X021265965Y-02559941D01*
X021265965Y-02559941D02*
X021719042Y-02565702D01*
X020531180Y-02565702D02*
X020188319Y-01711455D01*
X020188319Y-01711455D02*
X019818122Y-02565702D01*
X020358263Y-02232496D02*
X020007674Y-02232496D01*
X019279335Y-01711455D02*
X018578581Y-01711455D01*
X018918553Y-01711455D02*
X018918553Y-02565702D01*
X018033641Y-01711455D02*
X017332887Y-01711455D01*
X017672859Y-01711455D02*
X017672859Y-02565702D01*
X016715965Y-01711455D02*
X016715965Y-02565702D01*
X016715965Y-01711455D02*
X016159176Y-01711455D01*
X016715965Y-02138576D02*
X016326213Y-02138576D01*
X016715965Y-02565702D02*
X016159176Y-02565702D01*
X015527181Y-02559581D02*
X015527181Y-01733581D01*
X015527181Y-01733581D02*
X015284990Y-01711455D01*
X015284990Y-01711455D02*
X015115002Y-01718852D01*
X015115002Y-01718852D02*
X015012457Y-01741583D01*
X015012457Y-01741583D02*
X014969339Y-01760114D01*
X014969339Y-01760114D02*
X014933851Y-01784234D01*
X014933851Y-01784234D02*
X014907634Y-01814549D01*
X014907634Y-01814549D02*
X014884517Y-01896757D01*
X014884517Y-01896757D02*
X014886686Y-01969660D01*
X014886686Y-01969660D02*
X014910347Y-02022449D01*
X014910347Y-02022449D02*
X014952812Y-02058613D01*
X014952812Y-02058613D02*
X015011396Y-02081647D01*
X015011396Y-02081647D02*
X015123624Y-02099211D01*
X015123624Y-02099211D02*
X015511127Y-02112930D01*
X015189322Y-02147806D02*
X014856574Y-02565702D01*
X014302712Y-01711455D02*
X013956130Y-02093410D01*
X013589654Y-01712668D02*
X013953834Y-02095836D01*
X013953834Y-02095836D02*
X013940827Y-02565702D01*
X011745187Y-02565702D02*
X011745187Y-01727575D01*
X011745187Y-01727575D02*
X011573219Y-01711455D01*
X011573219Y-01711455D02*
X011419380Y-01721531D01*
X011419380Y-01721531D02*
X011319348Y-01748648D01*
X011319348Y-01748648D02*
X011274621Y-01770564D01*
X011274621Y-01770564D02*
X011203287Y-01834851D01*
X011203287Y-01834851D02*
X011171586Y-01903897D01*
X011171586Y-01903897D02*
X011164404Y-02004838D01*
X011164404Y-02004838D02*
X011192832Y-02068298D01*
X011192832Y-02068298D02*
X011237197Y-02103374D01*
X011237197Y-02103374D02*
X011307942Y-02131500D01*
X011307942Y-02131500D02*
X011410257Y-02151669D01*
X011410257Y-02151669D02*
X011549312Y-02162878D01*
X011549312Y-02162878D02*
X011730306Y-02164125D01*
X010226406Y-02581130D02*
X010338374Y-02546294D01*
X010338374Y-02546294D02*
X010440724Y-02440308D01*
X010440724Y-02440308D02*
X010516413Y-02080571D01*
X010516413Y-02080571D02*
X010444317Y-01811321D01*
X010444317Y-01811321D02*
X010355863Y-01734634D01*
X010355863Y-01734634D02*
X010202708Y-01694844D01*
X010202708Y-01694844D02*
X010058515Y-01742607D01*
X010058515Y-01742607D02*
X009974091Y-01829904D01*
X009974091Y-01829904D02*
X009901793Y-02157870D01*
X009901793Y-02157870D02*
X009937774Y-02364926D01*
X009937774Y-02364926D02*
X010001896Y-02484591D01*
X010001896Y-02484591D02*
X010115790Y-02566102D01*
X010115790Y-02566102D02*
X010226406Y-02581130D01*
X009342702Y-01711455D02*
X009242155Y-02554875D01*
X009242155Y-02554875D02*
X008983353Y-01965834D01*
X008983353Y-01965834D02*
X008706081Y-02565702D01*
X008706081Y-02565702D02*
X008584116Y-01711455D01*
X007996110Y-01711455D02*
X007996110Y-02565702D01*
X007996110Y-01711455D02*
X007439321Y-01711455D01*
X007996110Y-02138576D02*
X007606358Y-02138576D01*
X007996110Y-02565702D02*
X007439321Y-02565702D01*
X006807326Y-02559581D02*
X006807326Y-01733581D01*
X006807326Y-01733581D02*
X006565135Y-01711455D01*
X006565135Y-01711455D02*
X006395147Y-01718852D01*
X006395147Y-01718852D02*
X006292602Y-01741583D01*
X006292602Y-01741583D02*
X006249483Y-01760114D01*
X006249483Y-01760114D02*
X006213995Y-01784234D01*
X006213995Y-01784234D02*
X006187779Y-01814549D01*
X006187779Y-01814549D02*
X006164661Y-01896757D01*
X006164661Y-01896757D02*
X006166831Y-01969660D01*
X006166831Y-01969660D02*
X006190491Y-02022449D01*
X006190491Y-02022449D02*
X006232957Y-02058613D01*
X006232957Y-02058613D02*
X006291541Y-02081647D01*
X006291541Y-02081647D02*
X006403769Y-02099211D01*
X006403769Y-02099211D02*
X006791272Y-02112930D01*
X006469467Y-02147806D02*
X006136718Y-02565702D01*
X004281176Y-02674414D02*
X003680093Y-01711455D01*
X001815014Y-02565702D02*
X001815014Y-01711455D01*
X001815014Y-01711455D02*
X001489246Y-02267740D01*
X001489246Y-02267740D02*
X001163481Y-01711455D01*
X001163481Y-01711455D02*
X001163481Y-02565702D01*
X000600082Y-02565702D02*
X000257221Y-01711455D01*
X000257221Y-01711455D02*
X-00112976Y-02565702D01*
X000427165Y-02232496D02*
X000076576Y-02232496D01*
X-00708364Y-02565702D02*
X-00708364Y-01711455D01*
X-00708364Y-01711455D02*
X-01295915Y-02565702D01*
X-01295915Y-02565702D02*
X-01284386Y-01711455D01*
X-01959288Y-01711455D02*
X-01960621Y-02187583D01*
X-01960621Y-02187583D02*
X-01969809Y-02317104D01*
X-01969809Y-02317104D02*
X-01993311Y-02413044D01*
X-01993311Y-02413044D02*
X-02038371Y-02486019D01*
X-02038371Y-02486019D02*
X-02097320Y-02534269D01*
X-02097320Y-02534269D02*
X-02185385Y-02569117D01*
X-02185385Y-02569117D02*
X-02296506Y-02582295D01*
X-02296506Y-02582295D02*
X-02374497Y-02569102D01*
X-02374497Y-02569102D02*
X-02438464Y-02534348D01*
X-02438464Y-02534348D02*
X-02476744Y-02493631D01*
X-02476744Y-02493631D02*
X-02493179Y-02466867D01*
X-02493179Y-02466867D02*
X-02518321Y-02398626D01*
X-02518321Y-02398626D02*
X-02530058Y-02308229D01*
X-02530058Y-02308229D02*
X-02536379Y-01712741D01*
X-03136998Y-02565702D02*
X-03479860Y-01711455D01*
X-03479860Y-01711455D02*
X-03850056Y-02565702D01*
X-03309916Y-02232496D02*
X-03660504Y-02232496D01*
X-04454982Y-01711455D02*
X-04454982Y-02565702D01*
X-04454982Y-02565702D02*
X-05023460Y-02565702D01*
X-06931911Y-02565702D02*
X-06931911Y-01721481D01*
X-06931911Y-01721481D02*
X-07115103Y-01711455D01*
X-07115103Y-01711455D02*
X-07282847Y-01740936D01*
X-07282847Y-01740936D02*
X-07395860Y-01839879D01*
X-07395860Y-01839879D02*
X-07378277Y-01984540D01*
X-07378277Y-01984540D02*
X-07245299Y-02061949D01*
X-07245299Y-02061949D02*
X-06958072Y-02095169D01*
X-06958072Y-02095169D02*
X-07237350Y-02112687D01*
X-07237350Y-02112687D02*
X-07442100Y-02185795D01*
X-07442100Y-02185795D02*
X-07529304Y-02298189D01*
X-07529304Y-02298189D02*
X-07522139Y-02443545D01*
X-07522139Y-02443545D02*
X-07482886Y-02507759D01*
X-07482886Y-02507759D02*
X-07384988Y-02559941D01*
X-07384988Y-02559941D02*
X-06931911Y-02565702D01*
X-08458998Y-02581130D02*
X-08347030Y-02546294D01*
X-08347030Y-02546294D02*
X-08244680Y-02440308D01*
X-08244680Y-02440308D02*
X-08168991Y-02080571D01*
X-08168991Y-02080571D02*
X-08241087Y-01811321D01*
X-08241087Y-01811321D02*
X-08329541Y-01734634D01*
X-08329541Y-01734634D02*
X-08482696Y-01694844D01*
X-08482696Y-01694844D02*
X-08626889Y-01742607D01*
X-08626889Y-01742607D02*
X-08711313Y-01829904D01*
X-08711313Y-01829904D02*
X-08783611Y-02157870D01*
X-08783611Y-02157870D02*
X-08747630Y-02364926D01*
X-08747630Y-02364926D02*
X-08683508Y-02484591D01*
X-08683508Y-02484591D02*
X-08569614Y-02566102D01*
X-08569614Y-02566102D02*
X-08458998Y-02581130D01*
X-09704691Y-02581130D02*
X-09592724Y-02546294D01*
X-09592724Y-02546294D02*
X-09490374Y-02440308D01*
X-09490374Y-02440308D02*
X-09414685Y-02080571D01*
X-09414685Y-02080571D02*
X-09486780Y-01811321D01*
X-09486780Y-01811321D02*
X-09575235Y-01734634D01*
X-09575235Y-01734634D02*
X-09728389Y-01694844D01*
X-09728389Y-01694844D02*
X-09872582Y-01742607D01*
X-09872582Y-01742607D02*
X-09957006Y-01829904D01*
X-09957006Y-01829904D02*
X-10029305Y-02157870D01*
X-10029305Y-02157870D02*
X-09993323Y-02364926D01*
X-09993323Y-02364926D02*
X-09929202Y-02484591D01*
X-09929202Y-02484591D02*
X-09815308Y-02566102D01*
X-09815308Y-02566102D02*
X-09704691Y-02581130D01*
X-10617311Y-01711455D02*
X-11318065Y-01711455D01*
X-10978093Y-01711455D02*
X-10978093Y-02565702D01*
X-13133924Y-02212247D02*
X-13784227Y-02212247D01*
X-13459072Y-01909561D02*
X-13459072Y-02514913D01*
X-15615159Y-02559581D02*
X-15615159Y-01733581D01*
X-15615159Y-01733581D02*
X-15857350Y-01711455D01*
X-15857350Y-01711455D02*
X-16027338Y-01718852D01*
X-16027338Y-01718852D02*
X-16129883Y-01741583D01*
X-16129883Y-01741583D02*
X-16173001Y-01760114D01*
X-16173001Y-01760114D02*
X-16208489Y-01784234D01*
X-16208489Y-01784234D02*
X-16234706Y-01814549D01*
X-16234706Y-01814549D02*
X-16257823Y-01896757D01*
X-16257823Y-01896757D02*
X-16255654Y-01969660D01*
X-16255654Y-01969660D02*
X-16231993Y-02022449D01*
X-16231993Y-02022449D02*
X-16189528Y-02058613D01*
X-16189528Y-02058613D02*
X-16130944Y-02081647D01*
X-16130944Y-02081647D02*
X-16018716Y-02099211D01*
X-16018716Y-02099211D02*
X-15631213Y-02112930D01*
X-15953018Y-02147806D02*
X-16285766Y-02565702D01*
X-16917762Y-01711455D02*
X-16917762Y-02565702D01*
X-16917762Y-01711455D02*
X-17474551Y-01711455D01*
X-16917762Y-02138576D02*
X-17307514Y-02138576D01*
X-16917762Y-02565702D02*
X-17474551Y-02565702D01*
X-18671184Y-01829060D02*
X-18576150Y-01707021D01*
X-18576150Y-01707021D02*
X-18350883Y-01694844D01*
X-18350883Y-01694844D02*
X-18224622Y-01782732D01*
X-18224622Y-01782732D02*
X-18173074Y-01943979D01*
X-18173074Y-01943979D02*
X-18194424Y-02023596D01*
X-18194424Y-02023596D02*
X-18274305Y-02092367D01*
X-18274305Y-02092367D02*
X-18590850Y-02147821D01*
X-18590850Y-02147821D02*
X-18697340Y-02213371D01*
X-18697340Y-02213371D02*
X-18736855Y-02326748D01*
X-18736855Y-02326748D02*
X-18684803Y-02504069D01*
X-18684803Y-02504069D02*
X-18525819Y-02581130D01*
X-18525819Y-02581130D02*
X-18321407Y-02575393D01*
X-18321407Y-02575393D02*
X-18209613Y-02512868D01*
X-18209613Y-02512868D02*
X-18146845Y-02365821D01*
X-19409149Y-01711455D02*
X-19409149Y-02565702D01*
X-19409149Y-01711455D02*
X-19965938Y-01711455D01*
X-19409149Y-02138576D02*
X-19798901Y-02138576D01*
X-19409149Y-02565702D02*
X-19965938Y-02565702D01*
X-20582860Y-01711455D02*
X-21283614Y-01711455D01*
X-20943642Y-01711455D02*
X-20943642Y-02565702D01*
M02*