M48
; DRILL file {tscircuit} date 2026-10-05T21:35:41.448Z
; FORMAT={-:-/ absolute / metric / decimal}
; #@! TF.CreationDate,2026-10-05T21:35:41.448Z
; #@! TF.GenerationSoftware,tscircuit
; #@! TF.FileFunction,Plated,1,2,PTH
FMAT,2
METRIC
; #@! TA.AperFunction,Plated,PTH,ComponentDrill
T10C0.599999
; #@! TA.AperFunction,Plated,PTH,ComponentDrill
T11C0.300000
%
G90
G05
T10
X-4.3199Y22.9602G85X-4.3199Y22.1602
G05
X4.3199Y22.9602G85X4.3199Y22.1602
G05
X4.3199Y27.1602G85X4.3199Y25.9602
G05
X-4.3199Y27.1602G85X-4.3199Y25.9602
G05
T11
X-3.6000Y20.1000
X-2.0000Y19.8000
X-0.8000Y19.9000
X0.8000Y19.9000
X2.0000Y19.8000
X3.6000Y19.8000
X-1.9999Y10.2000
X-0.9998Y10.2000
X-0.0003Y10.2000
X0.9998Y10.2000
X1.9999Y10.2000
X1.9999Y15.8000
X0.9998Y15.8000
X-0.0003Y15.8000
X-1.9999Y15.8000
X-2.5000Y13.0000
X6.2534Y7.5000
X4.7466Y7.5000
X8.1349Y14.7830
X3.9328Y14.7942
X3.8000Y9.8000
X5.2000Y13.2000
X-7.4000Y16.0000
X0.2466Y17.8000
X1.7534Y18.2000
X9.2000Y-8.0000
X13.0000Y-8.0000
X10.5000Y-5.5000
X14.0000Y-3.5000
X14.2001Y19.0000
X13.2001Y19.0000
X12.2001Y19.0000
X-1.5000Y3.3000
X3.0000Y1.5000
X-13.0000Y3.0000
X-8.0000Y4.8000
X-7.8000Y0.0000
X-7.5000Y6.0000
X-7.5000Y8.5000
X-15.0000Y-3.0000
X-7.9000Y1.0000
X-20.1000Y0.0000
X2.0000Y4.8000
X2.3000Y6.0000
X-2.0000Y7.2000
X-2.3000Y6.0000
X-2.0000Y4.8000
X0.8000Y9.4000
X3.2000Y8.5000
X-5.2534Y4.4000
X11.0000Y6.9500
X-4.5000Y14.6000
X7.2499Y24.0000
X17.8000Y2.7501
X-16.0000Y-3.4000
X4.9580Y-5.5420
X-4.2466Y17.4000
X-3.2000Y7.2000
X0.6571Y3.9214
X7.9893Y3.7417
X-6.1750Y0.2750
X-2.8030Y-12.7650
X8.9571Y-13.3581
X16.6571Y3.6371
X-5.3257Y14.8096
X2.8350Y9.5536
X4.8750Y10.1600
X-1.1830Y25.0140
X6.3350Y-6.6690
X-0.8000Y-5.2000
X-12.5050Y5.8500
X-12.3206Y0.4167
X-19.5000Y2.7750
X-1.5930Y8.7220
X6.2600Y15.6540
X0.0000Y5.7750
X4.5760Y19.2550
X-1.6000Y0.0000
X-2.5678Y9.2913
X6.8351Y4.8303
X-16.7400Y-1.6750
X3.7834Y7.1515
X6.1784Y22.9036
X-9.4110Y-3.8230
X9.6000Y18.9300
X15.9500Y-9.3490
X-18.6360Y7.7420
X-17.3640Y5.8800
M30