%TF.GenerationSoftware,tscircuit,circuit-json-to-gerber,0.0.109*%
%TF.CreationDate,2026-10-05T21:35:41.365Z*%
%TF.SameCoordinates,Original*%
%TF.FileFunction,Profile,NP*%
%FSLAX46Y46*%
%MOMM*%
G04 Gerber Fmt 4.6, Leading zero omitted, Abs format (unit mm)*
G04 Created by tscircuit (builder) date 2026-10-05T21:35:41.365Z*
G01*
%LPD*%
G75*
%ADD10C,0.050000*%
D10*
X-22000000Y-28000000D02*
X022000000Y-28000000D01*
X022098135Y-27997591D01*
X022196034Y-27990369D01*
X022293461Y-27978353D01*
X022390181Y-27961571D01*
X022485960Y-27940063D01*
X022580569Y-27913881D01*
X022673780Y-27883088D01*
X022765367Y-27847759D01*
X022855110Y-27807979D01*
X022942793Y-27763843D01*
X023028205Y-27715457D01*
X023111140Y-27662939D01*
X023191399Y-27606415D01*
X023268787Y-27546021D01*
X023343118Y-27481902D01*
X023414214Y-27414214D01*
X023481902Y-27343118D01*
X023546021Y-27268787D01*
X023606415Y-27191399D01*
X023662939Y-27111140D01*
X023715457Y-27028205D01*
X023763843Y-26942793D01*
X023807979Y-26855110D01*
X023847759Y-26765367D01*
X023883088Y-26673780D01*
X023913881Y-26580569D01*
X023940063Y-26485960D01*
X023961571Y-26390181D01*
X023978353Y-26293461D01*
X023990369Y-26196034D01*
X023997591Y-26098135D01*
X024000000Y-26000000D01*
X024000000Y026000000D01*
X023997591Y026098135D01*
X023990369Y026196034D01*
X023978353Y026293461D01*
X023961571Y026390181D01*
X023940063Y026485960D01*
X023913881Y026580569D01*
X023883088Y026673780D01*
X023847759Y026765367D01*
X023807979Y026855110D01*
X023763843Y026942793D01*
X023715457Y027028205D01*
X023662939Y027111140D01*
X023606415Y027191399D01*
X023546021Y027268787D01*
X023481902Y027343118D01*
X023414214Y027414214D01*
X023343118Y027481902D01*
X023268787Y027546021D01*
X023191399Y027606415D01*
X023111140Y027662939D01*
X023028205Y027715457D01*
X022942793Y027763843D01*
X022855110Y027807979D01*
X022765367Y027847759D01*
X022673780Y027883088D01*
X022580569Y027913881D01*
X022485960Y027940063D01*
X022390181Y027961571D01*
X022293461Y027978353D01*
X022196034Y027990369D01*
X022098135Y027997591D01*
X022000000Y028000000D01*
X-22000000Y028000000D01*
X-22098135Y027997591D01*
X-22196034Y027990369D01*
X-22293461Y027978353D01*
X-22390181Y027961571D01*
X-22485960Y027940063D01*
X-22580569Y027913881D01*
X-22673780Y027883088D01*
X-22765367Y027847759D01*
X-22855110Y027807979D01*
X-22942793Y027763843D01*
X-23028205Y027715457D01*
X-23111140Y027662939D01*
X-23191399Y027606415D01*
X-23268787Y027546021D01*
X-23343118Y027481902D01*
X-23414214Y027414214D01*
X-23481902Y027343118D01*
X-23546021Y027268787D01*
X-23606415Y027191399D01*
X-23662939Y027111140D01*
X-23715457Y027028205D01*
X-23763843Y026942793D01*
X-23807979Y026855110D01*
X-23847759Y026765367D01*
X-23883088Y026673780D01*
X-23913881Y026580569D01*
X-23940063Y026485960D01*
X-23961571Y026390181D01*
X-23978353Y026293461D01*
X-23990369Y026196034D01*
X-23997591Y026098135D01*
X-24000000Y026000000D01*
X-24000000Y-26000000D01*
X-23997591Y-26098135D01*
X-23990369Y-26196034D01*
X-23978353Y-26293461D01*
X-23961571Y-26390181D01*
X-23940063Y-26485960D01*
X-23913881Y-26580569D01*
X-23883088Y-26673780D01*
X-23847759Y-26765367D01*
X-23807979Y-26855110D01*
X-23763843Y-26942793D01*
X-23715457Y-27028205D01*
X-23662939Y-27111140D01*
X-23606415Y-27191399D01*
X-23546021Y-27268787D01*
X-23481902Y-27343118D01*
X-23414214Y-27414214D01*
X-23343118Y-27481902D01*
X-23268787Y-27546021D01*
X-23191399Y-27606415D01*
X-23111140Y-27662939D01*
X-23028205Y-27715457D01*
X-22942793Y-27763843D01*
X-22855110Y-27807979D01*
X-22765367Y-27847759D01*
X-22673780Y-27883088D01*
X-22580569Y-27913881D01*
X-22485960Y-27940063D01*
X-22390181Y-27961571D01*
X-22293461Y-27978353D01*
X-22196034Y-27990369D01*
X-22098135Y-27997591D01*
X-22000000Y-28000000D01*
M02*