%TF.GenerationSoftware,tscircuit,circuit-json-to-gerber,0.0.109*%
%TF.CreationDate,2026-10-05T21:35:41.365Z*%
%TF.SameCoordinates,Original*%
%TF.FileFunction,Copper,L1,Top*%
%TF.FilePolarity,Positive*%
%FSLAX46Y46*%
%MOMM*%
G04 Gerber Fmt 4.6, Leading zero omitted, Abs format (unit mm)*
G04 Created by tscircuit (builder) date 2026-10-05T21:35:41.365Z*
G01*
%LPD*%
G75*
G04 APERTURE MACROS START*
%AMHORZPILL*
0 Horizontal pill (stadium) shape macro*
0 Parameters:*
0 $1 = Total width*
0 $2 = Total height*
0 $3 = Circle diameter (equal to height)*
0 $4 = Circle center offset
0 21 = Center Line(Exposure, Width, Height, Center X, Center Y, Rotation)*
0 1 = Circle(Exposure, Diameter, Center X, Center Y, Rotation)*
21,1,$1-$3,$2,0.0,0.0,0.0*
1,1,$3,0.0-$4,0.0*
1,1,$3,$4,0.0*%
%AMVERTPILL*
0 Vertical pill (stadium) shape macro*
0 Parameters:*
0 $1 = Total width*
0 $2 = Total height*
0 $3 = Circle diameter (equal to width)*
0 $4 = Circle center offset
0 21 = Center Line(Exposure, Width, Height, Center X, Center Y, Rotation)*
21,1,$1,$2-$3,0.0,0.0,0.0*
1,1,$3,0.0,0.0-$4*
1,1,$3,0.0,$4*%
%AMROUNDRECT*
0 Rectangle with rounded corners*
0 $1 Corner radius*
0 $2 $3 $4 $5 $6 $7 $8 $9 X,Y Position of each corner*
0 Polygon box body*
4,1,4,$2,$3,$4,$5,$6,$7,$8,$9,$2,$3,0*
0 Circles for rounded corners*
1,1,$1+$1,$2,$3*
1,1,$1+$1,$4,$5*
1,1,$1+$1,$6,$7*
1,1,$1+$1,$8,$9*
0 Rectangles between the rounded corners*
20,1,$1+$1,$2,$3,$4,$5,0*
20,1,$1+$1,$4,$5,$6,$7,0*
20,1,$1+$1,$6,$7,$8,$9,0*
20,1,$1+$1,$8,$9,$2,$3,0*%
G04 APERTURE MACROS END*
G04 aperture START LIST*
%ADD10C,0.150000*%
%ADD11C,0.300000*%
%ADD12C,0.200000*%
%ADD13C,0.600000*%
%ADD14C,0.400000*%
%ADD15C,0.500000*%
%ADD16C,0.196429*%
%ADD17C,0.250000*%
%ADD18C,0.162000*%
%ADD19VERTPILL,0.999998X1.799996X0.999998X0.399999*%
%ADD20VERTPILL,0.999998X2.199996X0.999998X0.599999*%
%ADD21R,0.599999X1.199998*%
%ADD22R,0.299999X1.199998*%
%ADD23C,0.001000*%
%ADD24R,0.806475X0.864006*%
%ADD25R,0.564533X0.604804*%
%ADD26R,0.200000X0.499999*%
%ADD27R,1.499997X0.899998*%
%ADD28R,1.299997X0.699998*%
%ADD29R,0.799998X0.899998*%
%ADD30R,0.559999X0.629999*%
%ADD31R,0.799998X0.799998*%
%ADD32R,0.559999X0.559999*%
%ADD33R,1.799996X1.199998*%
%ADD34R,1.550010X0.599999*%
%ADD35R,1.410005X1.350010*%
%ADD36R,0.987003X0.945007*%
%ADD37R,1.499997X0.999998*%
%ADD38R,0.999998X1.499997*%
%ADD39R,1.350010X1.410005*%
%ADD40R,0.945007X0.987003*%
%ADD41C,0.700024*%
%ADD42R,1.199998X0.599999*%
%ADD43R,1.229995X1.859991*%
%ADD44R,0.860996X1.301994*%
%ADD45C,0.100000*%
%ADD46R,1.199998X1.799996*%
%ADD47R,0.599999X1.550010*%
%ADD48C,0.900024*%
%ADD49R,0.699999X1.199998*%
%ADD50R,0.489999X0.839998*%
%ADD51R,1.524000X0.599999*%
%ADD52R,1.066800X0.419999*%
%ADD53R,0.999998X0.650011*%
%ADD54R,0.699999X0.455008*%
%ADD55R,0.664997X0.280010*%
%ADD56R,1.199998X1.999996*%
%ADD57R,2.720010X1.299997*%
%ADD58R,0.899998X0.799998*%
%ADD59R,0.629999X0.559999*%
%ADD60R,0.599999X0.299999*%
%ADD61R,0.419999X0.210000*%
%ADD62C,2.200000*%
%ADD63C,0.600000*%
%TD*%
G04 aperture END LIST*
D23*
G36*
X-08800046Y-17575049D02*
G01*
X-07480379Y-17575049D01*
G01*
X-07080381Y-17175051D01*
G01*
X-08800046Y-17175051D01*
G01*
X-08800046Y-15575053D01*
G01*
X-07480379Y-15575053D01*
G01*
X-07080381Y-15175055D01*
G01*
X-08800046Y-15175055D01*
G01*
X-08800046Y-13575057D01*
G01*
X-06700049Y-13575057D01*
G01*
X-06700049Y-14794723D01*
G01*
X002801641Y-05293032D01*
G01*
X002858468Y-05246396D01*
G01*
X002923300Y-05211743D01*
G01*
X002993648Y-05190403D01*
G01*
X003066806Y-05183197D01*
G01*
X004480013Y-05183197D01*
G01*
X004533736Y-05117736D01*
G01*
X004624658Y-05043118D01*
G01*
X004728390Y-04987672D01*
G01*
X004840946Y-04953529D01*
G01*
X004958000Y-04942000D01*
G01*
X005075054Y-04953529D01*
G01*
X005187610Y-04987672D01*
G01*
X005291342Y-05043118D01*
G01*
X005382264Y-05117736D01*
G01*
X005456882Y-05208658D01*
G01*
X005512328Y-05312390D01*
G01*
X005546471Y-05424946D01*
G01*
X005558000Y-05542000D01*
G01*
X005546471Y-05659054D01*
G01*
X005512328Y-05771610D01*
G01*
X005456882Y-05875342D01*
G01*
X005382264Y-05966264D01*
G01*
X005291342Y-06040882D01*
G01*
X005187610Y-06096328D01*
G01*
X005075054Y-06130471D01*
G01*
X004958000Y-06142000D01*
G01*
X004840946Y-06130471D01*
G01*
X004728390Y-06096328D01*
G01*
X004624658Y-06040882D01*
G01*
X004533736Y-05966264D01*
G01*
X004506599Y-05933197D01*
G01*
X003222136Y-05933197D01*
G01*
X-03081437Y-12236771D01*
G01*
X-03032610Y-12210672D01*
G01*
X-02920054Y-12176529D01*
G01*
X-02803000Y-12165000D01*
G01*
X-02685946Y-12176529D01*
G01*
X-02573390Y-12210672D01*
G01*
X-02469658Y-12266118D01*
G01*
X-02378736Y-12340736D01*
G01*
X-02304118Y-12431658D01*
G01*
X-02248672Y-12535390D01*
G01*
X-02214529Y-12647946D01*
G01*
X-02203000Y-12765000D01*
G01*
X-02214529Y-12882054D01*
G01*
X-02248672Y-12994610D01*
G01*
X-02304118Y-13098342D01*
G01*
X-02378736Y-13189264D01*
G01*
X-02469150Y-13263465D01*
G01*
X-02469150Y-13469150D01*
G01*
X-02476356Y-13542309D01*
G01*
X-02497696Y-13612656D01*
G01*
X-02532349Y-13677489D01*
G01*
X-02578985Y-13734315D01*
G01*
X-06700049Y-17855379D01*
G01*
X-06700049Y-18700000D01*
G01*
X006700049Y-18700000D01*
G01*
X006700049Y-17575049D01*
G01*
X008800046Y-17575049D01*
G01*
X008800046Y-18700000D01*
G01*
X022700000Y-18700000D01*
G01*
X022700000Y-15800000D01*
G01*
X019200000Y-15800000D01*
G01*
X019200000Y-12200000D01*
G01*
X022700000Y-12200000D01*
G01*
X022700000Y-09858406D01*
G01*
X022661139Y-09890298D01*
G01*
X022548761Y-09950366D01*
G01*
X022426823Y-09987355D01*
G01*
X022300012Y-09999845D01*
G01*
X022173201Y-09987355D01*
G01*
X022051263Y-09950366D01*
G01*
X021938885Y-09890298D01*
G01*
X021840384Y-09809461D01*
G01*
X021759547Y-09710961D01*
G01*
X021699479Y-09598582D01*
G01*
X021662490Y-09476644D01*
G01*
X021650000Y-09349833D01*
G01*
X021662490Y-09223022D01*
G01*
X021699479Y-09101084D01*
G01*
X021759547Y-08988706D01*
G01*
X021840384Y-08890205D01*
G01*
X021938885Y-08809368D01*
G01*
X022051263Y-08749300D01*
G01*
X022173201Y-08712311D01*
G01*
X022300012Y-08699821D01*
G01*
X022426823Y-08712311D01*
G01*
X022548761Y-08749300D01*
G01*
X022661139Y-08809368D01*
G01*
X022700000Y-08841260D01*
G01*
X022700000Y-08158384D01*
G01*
X022661139Y-08190276D01*
G01*
X022548761Y-08250344D01*
G01*
X022426823Y-08287333D01*
G01*
X022300012Y-08299823D01*
G01*
X022173201Y-08287333D01*
G01*
X022051263Y-08250344D01*
G01*
X021938885Y-08190276D01*
G01*
X021840384Y-08109439D01*
G01*
X021759547Y-08010939D01*
G01*
X021699479Y-07898560D01*
G01*
X021662490Y-07776622D01*
G01*
X021650000Y-07649811D01*
G01*
X021662490Y-07523000D01*
G01*
X021699479Y-07401062D01*
G01*
X021700086Y-07399927D01*
G01*
X020943345Y-07399927D01*
G01*
X019438531Y-08964916D01*
G01*
X019438062Y-08964465D01*
G01*
X019433385Y-08970164D01*
G01*
X019376559Y-09016800D01*
G01*
X019311726Y-09051454D01*
G01*
X019241379Y-09072794D01*
G01*
X019168220Y-09079999D01*
G01*
X019143416Y-09079999D01*
G01*
X008800047Y-09079999D01*
G01*
X008800047Y-09175067D01*
G01*
X006700050Y-09175067D01*
G01*
X006700050Y-07575069D01*
G01*
X008776549Y-07575069D01*
G01*
X008866658Y-07501118D01*
G01*
X008970390Y-07445672D01*
G01*
X009082946Y-07411529D01*
G01*
X009200000Y-07400000D01*
G01*
X009317054Y-07411529D01*
G01*
X009429610Y-07445672D01*
G01*
X009533342Y-07501118D01*
G01*
X009599977Y-07555804D01*
G01*
X009599977Y-07250001D01*
G01*
X010999975Y-07250001D01*
G01*
X010999975Y-08329999D01*
G01*
X019008567Y-08329999D01*
G01*
X020100041Y-07194878D01*
G01*
X020100041Y-06199928D01*
G01*
X021900039Y-06199928D01*
G01*
X021900039Y-07141226D01*
G01*
X021938885Y-07109346D01*
G01*
X022051263Y-07049278D01*
G01*
X022173201Y-07012289D01*
G01*
X022300012Y-06999799D01*
G01*
X022426823Y-07012289D01*
G01*
X022548761Y-07049278D01*
G01*
X022661139Y-07109346D01*
G01*
X022700000Y-07141238D01*
G01*
X022700000Y002500130D01*
G01*
X020756164Y002500130D01*
G01*
X020756164Y004500130D01*
G01*
X022700000Y004500130D01*
G01*
X022700000Y005500124D01*
G01*
X020756164Y005500124D01*
G01*
X020756164Y007500124D01*
G01*
X022700000Y007500124D01*
G01*
X022700000Y023200000D01*
G01*
X019200000Y023200000D01*
G01*
X019200000Y026700000D01*
G01*
X-19200000Y026700000D01*
G01*
X-19200000Y023200000D01*
G01*
X-22700000Y023200000D01*
G01*
X-22700000Y-12200000D01*
G01*
X-19200000Y-12200000D01*
G01*
X-19200000Y-15800000D01*
G01*
X-22700000Y-15800000D01*
G01*
X-22700000Y-18700000D01*
G01*
X-08800046Y-18700000D01*
G01*
X-08800046Y-17575049D01*
G37*
%LPC*%
D23*
G36*
X008134907Y014183000D02*
G01*
X008251961Y014194529D01*
G01*
X008364517Y014228672D01*
G01*
X008468249Y014284118D01*
G01*
X008559171Y014358736D01*
G01*
X008633789Y014449658D01*
G01*
X008689235Y014553390D01*
G01*
X008723378Y014665946D01*
G01*
X008734907Y014783000D01*
G01*
X008723378Y014900054D01*
G01*
X008689235Y015012610D01*
G01*
X008633789Y015116342D01*
G01*
X008559171Y015207264D01*
G01*
X008468249Y015281882D01*
G01*
X008364517Y015337328D01*
G01*
X008251961Y015371471D01*
G01*
X008134907Y015383000D01*
G01*
X008017853Y015371471D01*
G01*
X007905297Y015337328D01*
G01*
X007801565Y015281882D01*
G01*
X007771751Y015257415D01*
G01*
X006686525Y015232491D01*
G01*
X006758882Y015320658D01*
G01*
X006814328Y015424390D01*
G01*
X006816725Y015432291D01*
G01*
X006819961Y015434947D01*
G01*
X007007876Y015622862D01*
G01*
X007195790Y015810777D01*
G01*
X007383705Y015998691D01*
G01*
X007571620Y016186606D01*
G01*
X007759534Y016374521D01*
G01*
X007947449Y016562435D01*
G01*
X008135364Y016750350D01*
G01*
X008191477Y016806463D01*
G01*
X008271165Y016806463D01*
G01*
X008537251Y016806463D01*
G01*
X008803336Y016806462D01*
G01*
X009069421Y016806462D01*
G01*
X009335506Y016806462D01*
G01*
X009601592Y016806462D01*
G01*
X009867677Y016806462D01*
G01*
X010133762Y016806462D01*
G01*
X010221553Y016815109D01*
G01*
X010305970Y016840716D01*
G01*
X010383769Y016882301D01*
G01*
X010451960Y016938264D01*
G01*
X010507924Y017006455D01*
G01*
X010549508Y017084254D01*
G01*
X010575116Y017168671D01*
G01*
X010583729Y017256129D01*
G01*
X010583762Y017256129D01*
G01*
X010583974Y017542288D01*
G01*
X010584185Y017828448D01*
G01*
X010584185Y017828772D01*
G01*
X010584186Y017828780D01*
G01*
X010584185Y017828788D01*
G01*
X010584299Y017982515D01*
G01*
X010728424Y018206494D01*
G01*
X010727838Y018206871D01*
G01*
X010765746Y018277792D01*
G01*
X010791353Y018362209D01*
G01*
X010800000Y018450000D01*
G01*
X010791486Y018536443D01*
G01*
X010791614Y018536468D01*
G01*
X010585487Y019589214D01*
G01*
X010585667Y019831563D01*
G01*
X010585879Y020117722D01*
G01*
X010585846Y020117722D01*
G01*
X010585879Y020118055D01*
G01*
X010577232Y020205845D01*
G01*
X010551625Y020290262D01*
G01*
X010510040Y020368061D01*
G01*
X010454077Y020436253D01*
G01*
X010453635Y020436616D01*
G01*
X010453674Y020436655D01*
G01*
X010247300Y020642508D01*
G01*
X010040925Y020848361D01*
G01*
X009834551Y021054215D01*
G01*
X009628176Y021260068D01*
G01*
X009421802Y021465921D01*
G01*
X009215427Y021671774D01*
G01*
X009009053Y021877628D01*
G01*
X008802678Y022083481D01*
G01*
X008617695Y022267997D01*
G01*
X009456602Y022267997D01*
G01*
X009456602Y023732003D01*
G01*
X009125062Y023732003D01*
G01*
X009125062Y025300001D01*
G01*
X009450061Y025300001D01*
G01*
X009450061Y026699999D01*
G01*
X008050063Y026699999D01*
G01*
X008050063Y025300001D01*
G01*
X008375062Y025300001D01*
G01*
X008375062Y023732003D01*
G01*
X008050126Y023732003D01*
G01*
X008050126Y022834132D01*
G01*
X007977180Y022906894D01*
G01*
X007949874Y022934131D01*
G01*
X007949874Y023732003D01*
G01*
X007783748Y023732003D01*
G01*
X007804266Y023770390D01*
G01*
X007838409Y023882946D01*
G01*
X007849938Y024000000D01*
G01*
X007838409Y024117054D01*
G01*
X007804266Y024229610D01*
G01*
X007748820Y024333342D01*
G01*
X007674202Y024424264D01*
G01*
X007624938Y024464694D01*
G01*
X007624938Y025300001D01*
G01*
X007949937Y025300001D01*
G01*
X007949937Y026699999D01*
G01*
X006549939Y026699999D01*
G01*
X006549939Y025300001D01*
G01*
X006874938Y025300001D01*
G01*
X006874938Y024464694D01*
G01*
X006825674Y024424264D01*
G01*
X006751056Y024333342D01*
G01*
X006695610Y024229610D01*
G01*
X006661467Y024117054D01*
G01*
X006649938Y024000000D01*
G01*
X006661467Y023882946D01*
G01*
X006695610Y023770390D01*
G01*
X006716128Y023732003D01*
G01*
X006543398Y023732003D01*
G01*
X006543398Y022267997D01*
G01*
X007343290Y022267997D01*
G01*
X007547964Y022063840D01*
G01*
X007754339Y021857987D01*
G01*
X007960713Y021652134D01*
G01*
X008167088Y021446280D01*
G01*
X008373462Y021240427D01*
G01*
X008579837Y021034574D01*
G01*
X008786211Y020828721D01*
G01*
X008992586Y020622868D01*
G01*
X009198960Y020417014D01*
G01*
X009405335Y020211161D01*
G01*
X009611709Y020005308D01*
G01*
X009685741Y019931463D01*
G01*
X009685667Y019832228D01*
G01*
X009685456Y019546069D01*
G01*
X009685489Y019546069D01*
G01*
X009685456Y019545736D01*
G01*
X009693969Y019459293D01*
G01*
X009693841Y019459268D01*
G01*
X009873592Y018541233D01*
G01*
X009755973Y018358446D01*
G01*
X009756560Y018358068D01*
G01*
X009718651Y018287147D01*
G01*
X009693044Y018202730D01*
G01*
X009684430Y018115273D01*
G01*
X009684397Y018115273D01*
G01*
X009684186Y017829113D01*
G01*
X009684095Y017706462D01*
G01*
X009601592Y017706462D01*
G01*
X009335507Y017706462D01*
G01*
X009069421Y017706462D01*
G01*
X008803336Y017706462D01*
G01*
X008537251Y017706463D01*
G01*
X008271166Y017706463D01*
G01*
X008005081Y017706463D01*
G01*
X008005080Y017706463D01*
G01*
X007917290Y017697816D01*
G01*
X007832873Y017672209D01*
G01*
X007755074Y017630624D01*
G01*
X007686882Y017574661D01*
G01*
X007498968Y017386746D01*
G01*
X007311053Y017198832D01*
G01*
X007123138Y017010917D01*
G01*
X006935224Y016823002D01*
G01*
X006747309Y016635088D01*
G01*
X006559394Y016447173D01*
G01*
X006371480Y016259258D01*
G01*
X006356698Y016244476D01*
G01*
X006260000Y016254000D01*
G01*
X006142946Y016242471D01*
G01*
X006030390Y016208328D01*
G01*
X005926658Y016152882D01*
G01*
X005835736Y016078264D01*
G01*
X005761118Y015987342D01*
G01*
X005705672Y015883610D01*
G01*
X005671529Y015771054D01*
G01*
X005660000Y015654000D01*
G01*
X005671529Y015536946D01*
G01*
X005705672Y015424390D01*
G01*
X005761118Y015320658D01*
G01*
X005835736Y015229736D01*
G01*
X005855630Y015213409D01*
G01*
X004388838Y015179723D01*
G01*
X004357084Y015218415D01*
G01*
X004266162Y015293033D01*
G01*
X004162430Y015348479D01*
G01*
X004049874Y015382622D01*
G01*
X003932819Y015394151D01*
G01*
X003815765Y015382622D01*
G01*
X003703209Y015348479D01*
G01*
X003599477Y015293033D01*
G01*
X003508555Y015218415D01*
G01*
X003433938Y015127493D01*
G01*
X003378492Y015023761D01*
G01*
X003344348Y014911205D01*
G01*
X003332819Y014794151D01*
G01*
X003344348Y014677097D01*
G01*
X003378492Y014564541D01*
G01*
X003433938Y014460809D01*
G01*
X003508555Y014369887D01*
G01*
X003599477Y014295269D01*
G01*
X003703209Y014239823D01*
G01*
X003815765Y014205680D01*
G01*
X003932819Y014194151D01*
G01*
X004049874Y014205680D01*
G01*
X004162430Y014239823D01*
G01*
X004266162Y014295269D01*
G01*
X004357084Y014369887D01*
G01*
X004406357Y014429928D01*
G01*
X007607278Y014503440D01*
G01*
X007636025Y014449658D01*
G01*
X007710643Y014358736D01*
G01*
X007801565Y014284118D01*
G01*
X007905297Y014228672D01*
G01*
X008017853Y014194529D01*
G01*
X008134907Y014183000D01*
G37*
D23*
G36*
X-05456602Y018267997D02*
G01*
X-04050126Y018267997D01*
G01*
X-04050126Y019732003D01*
G01*
X-04687604Y019732003D01*
G01*
X-04709393Y023379277D01*
G01*
X-03407788Y024640594D01*
G01*
X-01647967Y024639333D01*
G01*
X-01607264Y024589736D01*
G01*
X-01516342Y024515118D01*
G01*
X-01412610Y024459672D01*
G01*
X-01300054Y024425529D01*
G01*
X-01183000Y024414000D01*
G01*
X-01065946Y024425529D01*
G01*
X-00953390Y024459672D01*
G01*
X-00849658Y024515118D01*
G01*
X-00758736Y024589736D01*
G01*
X-00684118Y024680658D01*
G01*
X-00628672Y024784390D01*
G01*
X-00594529Y024896946D01*
G01*
X-00583000Y025014000D01*
G01*
X-00594529Y025131054D01*
G01*
X-00628672Y025243610D01*
G01*
X-00684118Y025347342D01*
G01*
X-00758736Y025438264D01*
G01*
X-00849658Y025512882D01*
G01*
X-00953390Y025568328D01*
G01*
X-01065946Y025602471D01*
G01*
X-01183000Y025614000D01*
G01*
X-01300054Y025602471D01*
G01*
X-01412610Y025568328D01*
G01*
X-01516342Y025512882D01*
G01*
X-01607264Y025438264D01*
G01*
X-01647421Y025389333D01*
G01*
X-03559295Y025390703D01*
G01*
X-03559295Y025390677D01*
G01*
X-03559563Y025390703D01*
G01*
X-03632722Y025383497D01*
G01*
X-03703070Y025362158D01*
G01*
X-03767902Y025327504D01*
G01*
X-03820157Y025284620D01*
G01*
X-03820528Y025285003D01*
G01*
X-05346306Y023806452D01*
G01*
X-05345935Y023806069D01*
G01*
X-05350507Y023802317D01*
G01*
X-05397143Y023745491D01*
G01*
X-05431797Y023680659D01*
G01*
X-05453136Y023610311D01*
G01*
X-05460342Y023537152D01*
G01*
X-05460121Y023534913D01*
G01*
X-05460335Y023534912D01*
G01*
X-05437617Y019732003D01*
G01*
X-05456602Y019732003D01*
G01*
X-05456602Y018267997D01*
G37*
D23*
G36*
X-01199973Y013500037D02*
G01*
X-00399973Y013500037D01*
G01*
X000000077Y013500037D01*
G01*
X000399873Y013500037D01*
G01*
X000799923Y013500037D01*
G01*
X001199973Y013500037D01*
G01*
X001199973Y014600036D01*
G01*
X001174973Y014600036D01*
G01*
X001174973Y014624363D01*
G01*
X001880437Y015212270D01*
G01*
X001882878Y015211529D01*
G01*
X001999933Y015200000D01*
G01*
X002116987Y015211529D01*
G01*
X002229543Y015245672D01*
G01*
X002333275Y015301118D01*
G01*
X002424197Y015375736D01*
G01*
X002498814Y015466658D01*
G01*
X002554260Y015570390D01*
G01*
X002588404Y015682946D01*
G01*
X002599933Y015800000D01*
G01*
X002588404Y015917054D01*
G01*
X002554260Y016029610D01*
G01*
X002498814Y016133342D01*
G01*
X002424197Y016224264D01*
G01*
X002333275Y016298882D01*
G01*
X002229543Y016354328D01*
G01*
X002116987Y016388471D01*
G01*
X001999933Y016400000D01*
G01*
X001882878Y016388471D01*
G01*
X001770322Y016354328D01*
G01*
X001666590Y016298882D01*
G01*
X001575668Y016224264D01*
G01*
X001501051Y016133342D01*
G01*
X001499870Y016131133D01*
G01*
X001498689Y016133342D01*
G01*
X001424072Y016224264D01*
G01*
X001333150Y016298882D01*
G01*
X001229418Y016354328D01*
G01*
X001116862Y016388471D01*
G01*
X000999808Y016400000D01*
G01*
X000949874Y016395082D01*
G01*
X000949874Y017732003D01*
G01*
X000839939Y017732003D01*
G01*
X000846636Y017800000D01*
G01*
X000835107Y017917054D01*
G01*
X000800964Y018029610D01*
G01*
X000745518Y018133342D01*
G01*
X000670900Y018224264D01*
G01*
X000579978Y018298882D01*
G01*
X000476246Y018354328D01*
G01*
X000363690Y018388471D01*
G01*
X000246636Y018400000D01*
G01*
X000129582Y018388471D01*
G01*
X000017026Y018354328D01*
G01*
X-00050126Y018318434D01*
G01*
X-00050126Y019732003D01*
G01*
X-00226982Y019732003D01*
G01*
X-00211529Y019782946D01*
G01*
X-00200000Y019900000D01*
G01*
X-00211529Y020017054D01*
G01*
X-00245672Y020129610D01*
G01*
X-00301118Y020233342D01*
G01*
X-00375736Y020324264D01*
G01*
X-00466658Y020398882D01*
G01*
X-00570390Y020454328D01*
G01*
X-00682946Y020488471D01*
G01*
X-00800000Y020500000D01*
G01*
X-00917054Y020488471D01*
G01*
X-01029610Y020454328D01*
G01*
X-01038807Y020449412D01*
G01*
X-01375187Y020626420D01*
G01*
X-01375187Y021060231D01*
G01*
X-01300187Y021060231D01*
G01*
X-00800061Y021060231D01*
G01*
X-00300189Y021060231D01*
G01*
X000199937Y021060231D01*
G01*
X000699809Y021060231D01*
G01*
X000874807Y021060231D01*
G01*
X000874807Y020543855D01*
G01*
X000832477Y020496801D01*
G01*
X000800000Y020500000D01*
G01*
X000682946Y020488471D01*
G01*
X000570390Y020454328D01*
G01*
X000466658Y020398882D01*
G01*
X000375736Y020324264D01*
G01*
X000301118Y020233342D01*
G01*
X000245672Y020129610D01*
G01*
X000211529Y020017054D01*
G01*
X000200000Y019900000D01*
G01*
X000211529Y019782946D01*
G01*
X000245672Y019670390D01*
G01*
X000301118Y019566658D01*
G01*
X000375736Y019475736D01*
G01*
X000466658Y019401118D01*
G01*
X000570390Y019345672D01*
G01*
X000682946Y019311529D01*
G01*
X000800000Y019300000D01*
G01*
X000917054Y019311529D01*
G01*
X001029610Y019345672D01*
G01*
X001133342Y019401118D01*
G01*
X001224264Y019475736D01*
G01*
X001298882Y019566658D01*
G01*
X001354328Y019670390D01*
G01*
X001388471Y019782946D01*
G01*
X001400000Y019900000D01*
G01*
X001390568Y019995767D01*
G01*
X001481773Y020097150D01*
G01*
X001445672Y020029610D01*
G01*
X001411529Y019917054D01*
G01*
X001400000Y019800000D01*
G01*
X001411529Y019682946D01*
G01*
X001445672Y019570390D01*
G01*
X001501118Y019466658D01*
G01*
X001575736Y019375736D01*
G01*
X001666658Y019301118D01*
G01*
X001770390Y019245672D01*
G01*
X001882946Y019211529D01*
G01*
X002000000Y019200000D01*
G01*
X002117054Y019211529D01*
G01*
X002229610Y019245672D01*
G01*
X002333342Y019301118D01*
G01*
X002424264Y019375736D01*
G01*
X002498882Y019466658D01*
G01*
X002554328Y019570390D01*
G01*
X002588471Y019682946D01*
G01*
X002600000Y019800000D01*
G01*
X002588471Y019917054D01*
G01*
X002569772Y019978697D01*
G01*
X002711718Y020191659D01*
G01*
X002711720Y020191661D01*
G01*
X002711721Y020191663D01*
G01*
X002711957Y020192017D01*
G01*
X002711923Y020192040D01*
G01*
X002746374Y020256494D01*
G01*
X002767713Y020326841D01*
G01*
X002774919Y020400000D01*
G01*
X002774919Y021060231D01*
G01*
X002999918Y021060231D01*
G01*
X002999918Y022860228D01*
G01*
X001799920Y022860228D01*
G01*
X001299933Y022860228D01*
G01*
X000799807Y022860228D01*
G01*
X000299935Y022860228D01*
G01*
X-00200191Y022860228D01*
G01*
X-00700063Y022860228D01*
G01*
X-01200189Y022860228D01*
G01*
X-01700061Y022860228D01*
G01*
X-02200187Y022860228D01*
G01*
X-03000172Y022860228D01*
G01*
X-03000172Y021060231D01*
G01*
X-02775173Y021060231D01*
G01*
X-02775173Y020400000D01*
G01*
X-02767967Y020326841D01*
G01*
X-02746628Y020256494D01*
G01*
X-02712124Y020191942D01*
G01*
X-02712150Y020191925D01*
G01*
X-02711974Y020191662D01*
G01*
X-02711974Y020191661D01*
G01*
X-02569823Y019978528D01*
G01*
X-02588471Y019917054D01*
G01*
X-02600000Y019800000D01*
G01*
X-02588471Y019682946D01*
G01*
X-02554328Y019570390D01*
G01*
X-02498882Y019466658D01*
G01*
X-02424264Y019375736D01*
G01*
X-02333342Y019301118D01*
G01*
X-02229610Y019245672D01*
G01*
X-02117054Y019211529D01*
G01*
X-02000000Y019200000D01*
G01*
X-01882946Y019211529D01*
G01*
X-01770390Y019245672D01*
G01*
X-01666658Y019301118D01*
G01*
X-01575736Y019375736D01*
G01*
X-01501118Y019466658D01*
G01*
X-01456602Y019549941D01*
G01*
X-01456602Y018267997D01*
G01*
X-00124339Y018267997D01*
G01*
X-00177628Y018224264D01*
G01*
X-00252246Y018133342D01*
G01*
X-00307692Y018029610D01*
G01*
X-00341835Y017917054D01*
G01*
X-00353364Y017800000D01*
G01*
X-00346667Y017732003D01*
G01*
X-00456602Y017732003D01*
G01*
X-00456602Y016267997D01*
G01*
X-00371293Y016267997D01*
G01*
X-00424582Y016224264D01*
G01*
X-00499199Y016133342D01*
G01*
X-00554645Y016029610D01*
G01*
X-00588789Y015917054D01*
G01*
X-00600317Y015800000D01*
G01*
X-00588789Y015682946D01*
G01*
X-00554645Y015570390D01*
G01*
X-00499199Y015466658D01*
G01*
X-00424582Y015375736D01*
G01*
X-00375229Y015335233D01*
G01*
X-00375127Y014799929D01*
G01*
X-00375127Y014600036D01*
G01*
X-00400127Y014600036D01*
G01*
X-00424973Y014600036D01*
G01*
X-00424973Y014800000D01*
G01*
X-00432179Y014873159D01*
G01*
X-00453518Y014943506D01*
G01*
X-00488172Y015008339D01*
G01*
X-00534808Y015065165D01*
G01*
X-00561048Y015086700D01*
G01*
X-00559899Y015088079D01*
G01*
X-01401013Y015789031D01*
G01*
X-01399933Y015800000D01*
G01*
X-01411461Y015917054D01*
G01*
X-01445605Y016029610D01*
G01*
X-01501051Y016133342D01*
G01*
X-01575668Y016224264D01*
G01*
X-01666590Y016298882D01*
G01*
X-01770322Y016354328D01*
G01*
X-01882878Y016388471D01*
G01*
X-01999932Y016400000D01*
G01*
X-02116987Y016388471D01*
G01*
X-02229543Y016354328D01*
G01*
X-02333275Y016298882D01*
G01*
X-02424197Y016224264D01*
G01*
X-02498814Y016133342D01*
G01*
X-02554260Y016029610D01*
G01*
X-02588404Y015917054D01*
G01*
X-02599932Y015800000D01*
G01*
X-02588404Y015682946D01*
G01*
X-02554260Y015570390D01*
G01*
X-02498814Y015466658D01*
G01*
X-02424197Y015375736D01*
G01*
X-02333275Y015301118D01*
G01*
X-02229543Y015245672D01*
G01*
X-02116987Y015211529D01*
G01*
X-01999932Y015200000D01*
G01*
X-01882878Y015211529D01*
G01*
X-01880437Y015212270D01*
G01*
X-01174973Y014624363D01*
G01*
X-01174973Y014600036D01*
G01*
X-01199973Y014600036D01*
G01*
X-01199973Y013500037D01*
G37*
D23*
G36*
X004576000Y018655000D02*
G01*
X004693054Y018666529D01*
G01*
X004805610Y018700672D01*
G01*
X004909342Y018756118D01*
G01*
X005000264Y018830736D01*
G01*
X005074882Y018921658D01*
G01*
X005130328Y019025390D01*
G01*
X005164471Y019137946D01*
G01*
X005172024Y019214627D01*
G01*
X005278391Y019320994D01*
G01*
X005458794Y019501398D01*
G01*
X005507396Y019550000D01*
G01*
X005603711Y019550000D01*
G01*
X005886422Y019550000D01*
G01*
X006169133Y019550000D01*
G01*
X006451843Y019550000D01*
G01*
X006599977Y019550000D01*
G01*
X006599977Y019250001D01*
G01*
X007999975Y019250001D01*
G01*
X007999975Y020749999D01*
G01*
X006599977Y020749999D01*
G01*
X006599977Y020450000D01*
G01*
X006451843Y020450000D01*
G01*
X006169133Y020450000D01*
G01*
X005886422Y020450000D01*
G01*
X005603711Y020450000D01*
G01*
X005321000Y020450000D01*
G01*
X005233209Y020441353D01*
G01*
X005148792Y020415746D01*
G01*
X005070993Y020374161D01*
G01*
X005002802Y020318198D01*
G01*
X004822398Y020137794D01*
G01*
X004641994Y019957391D01*
G01*
X004535627Y019851024D01*
G01*
X004458946Y019843471D01*
G01*
X004346390Y019809328D01*
G01*
X004242658Y019753882D01*
G01*
X004151736Y019679264D01*
G01*
X004077118Y019588342D01*
G01*
X004021672Y019484610D01*
G01*
X003987529Y019372054D01*
G01*
X003976000Y019255000D01*
G01*
X003987529Y019137946D01*
G01*
X004021672Y019025390D01*
G01*
X004077118Y018921658D01*
G01*
X004151736Y018830736D01*
G01*
X004242658Y018756118D01*
G01*
X004346390Y018700672D01*
G01*
X004458946Y018666529D01*
G01*
X004576000Y018655000D01*
G37*
D23*
G36*
X011600130Y016249999D02*
G01*
X012800128Y016249999D01*
G01*
X012800128Y018400009D01*
G01*
X012575129Y018400009D01*
G01*
X012575129Y018535306D01*
G01*
X012624393Y018575736D01*
G01*
X012699011Y018666658D01*
G01*
X012754457Y018770390D01*
G01*
X012788600Y018882946D01*
G01*
X012800129Y019000000D01*
G01*
X012788600Y019117054D01*
G01*
X012754457Y019229610D01*
G01*
X012699011Y019333342D01*
G01*
X012624393Y019424264D01*
G01*
X012533471Y019498882D01*
G01*
X012429739Y019554328D01*
G01*
X012317183Y019588471D01*
G01*
X012200129Y019600000D01*
G01*
X012083075Y019588471D01*
G01*
X011970519Y019554328D01*
G01*
X011866787Y019498882D01*
G01*
X011775865Y019424264D01*
G01*
X011701247Y019333342D01*
G01*
X011645801Y019229610D01*
G01*
X011611658Y019117054D01*
G01*
X011600129Y019000000D01*
G01*
X011611658Y018882946D01*
G01*
X011645801Y018770390D01*
G01*
X011701247Y018666658D01*
G01*
X011775865Y018575736D01*
G01*
X011825129Y018535306D01*
G01*
X011825129Y018400009D01*
G01*
X011600130Y018400009D01*
G01*
X011600130Y016249999D01*
G37*
D23*
G36*
X013600126Y016249999D02*
G01*
X014800124Y016249999D01*
G01*
X014800124Y018400009D01*
G01*
X014575125Y018400009D01*
G01*
X014575125Y018535306D01*
G01*
X014624389Y018575736D01*
G01*
X014699007Y018666658D01*
G01*
X014754453Y018770390D01*
G01*
X014788596Y018882946D01*
G01*
X014800125Y019000000D01*
G01*
X014788596Y019117054D01*
G01*
X014754453Y019229610D01*
G01*
X014699007Y019333342D01*
G01*
X014624389Y019424264D01*
G01*
X014533467Y019498882D01*
G01*
X014429735Y019554328D01*
G01*
X014317179Y019588471D01*
G01*
X014200125Y019600000D01*
G01*
X014083071Y019588471D01*
G01*
X013970515Y019554328D01*
G01*
X013866783Y019498882D01*
G01*
X013775861Y019424264D01*
G01*
X013701243Y019333342D01*
G01*
X013645797Y019229610D01*
G01*
X013611654Y019117054D01*
G01*
X013600125Y019000000D01*
G01*
X013611654Y018882946D01*
G01*
X013645797Y018770390D01*
G01*
X013701243Y018666658D01*
G01*
X013775861Y018575736D01*
G01*
X013825125Y018535306D01*
G01*
X013825125Y018400009D01*
G01*
X013600126Y018400009D01*
G01*
X013600126Y016249999D01*
G37*
D23*
G36*
X-04999975Y010250001D02*
G01*
X-03599977Y010250001D01*
G01*
X-03599977Y011749999D01*
G01*
X-04519743Y011749999D01*
G01*
X-05070003Y012300148D01*
G01*
X-05070003Y012424995D01*
G01*
X-03495000Y012424995D01*
G01*
X-03495000Y014375005D01*
G01*
X-03944274Y014375005D01*
G01*
X-03911531Y014482946D01*
G01*
X-03900002Y014600000D01*
G01*
X-03911531Y014717054D01*
G01*
X-03945674Y014829610D01*
G01*
X-04001120Y014933342D01*
G01*
X-04075738Y015024264D01*
G01*
X-04166660Y015098882D01*
G01*
X-04270392Y015154328D01*
G01*
X-04382948Y015188471D01*
G01*
X-04500002Y015200000D01*
G01*
X-04617056Y015188471D01*
G01*
X-04729612Y015154328D01*
G01*
X-04809956Y015111383D01*
G01*
X-04826846Y015142982D01*
G01*
X-04901464Y015233904D01*
G01*
X-04943006Y015267997D01*
G01*
X-03543398Y015267997D01*
G01*
X-03543398Y016732003D01*
G01*
X-03871636Y016732003D01*
G01*
X-03871636Y016935306D01*
G01*
X-03822372Y016975736D01*
G01*
X-03747754Y017066658D01*
G01*
X-03692308Y017170390D01*
G01*
X-03658165Y017282946D01*
G01*
X-03646636Y017400000D01*
G01*
X-03658165Y017517054D01*
G01*
X-03692308Y017629610D01*
G01*
X-03747754Y017733342D01*
G01*
X-03822372Y017824264D01*
G01*
X-03913294Y017898882D01*
G01*
X-04017026Y017954328D01*
G01*
X-04129582Y017988471D01*
G01*
X-04246636Y018000000D01*
G01*
X-04363690Y017988471D01*
G01*
X-04476246Y017954328D01*
G01*
X-04579978Y017898882D01*
G01*
X-04670900Y017824264D01*
G01*
X-04745518Y017733342D01*
G01*
X-04800964Y017629610D01*
G01*
X-04835107Y017517054D01*
G01*
X-04846636Y017400000D01*
G01*
X-04835107Y017282946D01*
G01*
X-04800964Y017170390D01*
G01*
X-04745518Y017066658D01*
G01*
X-04670900Y016975736D01*
G01*
X-04621636Y016935306D01*
G01*
X-04621636Y016732003D01*
G01*
X-04949874Y016732003D01*
G01*
X-04949874Y015273633D01*
G01*
X-04992386Y015308522D01*
G01*
X-05096118Y015363968D01*
G01*
X-05208674Y015398111D01*
G01*
X-05325728Y015409640D01*
G01*
X-05442782Y015398111D01*
G01*
X-05555338Y015363968D01*
G01*
X-05659070Y015308522D01*
G01*
X-05749992Y015233904D01*
G01*
X-05824610Y015142982D01*
G01*
X-05880056Y015039250D01*
G01*
X-05914199Y014926694D01*
G01*
X-05925728Y014809640D01*
G01*
X-05914199Y014692586D01*
G01*
X-05880056Y014580030D01*
G01*
X-05824610Y014476298D01*
G01*
X-05820003Y014470684D01*
G01*
X-05820003Y012144795D01*
G01*
X-05812797Y012071637D01*
G01*
X-05791457Y012001289D01*
G01*
X-05756804Y011936457D01*
G01*
X-05710168Y011879630D01*
G01*
X-05710139Y011879606D01*
G01*
X-05710141Y011879604D01*
G01*
X-04999975Y011169581D01*
G01*
X-04999975Y010250001D01*
G37*
D23*
G36*
X-19799997Y-00625006D02*
G01*
X-18199999Y-00625006D01*
G01*
X-18199999Y000625006D01*
G01*
X-18838598Y000625006D01*
G01*
X-18381826Y001081778D01*
G01*
X-18325863Y001149969D01*
G01*
X-18284278Y001227768D01*
G01*
X-18258671Y001312185D01*
G01*
X-18250024Y001399976D01*
G01*
X-18250024Y002250001D01*
G01*
X-18000025Y002250001D01*
G01*
X-18000025Y003128914D01*
G01*
X-17911045Y003233648D01*
G01*
X-17762366Y003408650D01*
G01*
X-17763968Y003410011D01*
G01*
X-17731148Y003450002D01*
G01*
X-17689564Y003527801D01*
G01*
X-17663956Y003612218D01*
G01*
X-17655840Y003694629D01*
G01*
X-17655342Y003694623D01*
G01*
X-17651831Y003987957D01*
G01*
X-17648321Y004281290D01*
G01*
X-17644810Y004574623D01*
G01*
X-17641299Y004867956D01*
G01*
X-17637789Y005161289D01*
G01*
X-17634278Y005454622D01*
G01*
X-17630768Y005747955D01*
G01*
X-17627257Y006041288D01*
G01*
X-17623746Y006334621D01*
G01*
X-17620236Y006627954D01*
G01*
X-17616725Y006921287D01*
G01*
X-17613214Y007214620D01*
G01*
X-17612492Y007274963D01*
G01*
X-17584254Y007327792D01*
G01*
X-17558647Y007412209D01*
G01*
X-17550000Y007500000D01*
G01*
X-17552425Y007524620D01*
G01*
X-17550679Y007524716D01*
G01*
X-17598992Y008403015D01*
G01*
X-17595661Y008681286D01*
G01*
X-17592151Y008974619D01*
G01*
X-17588640Y009267952D01*
G01*
X-17585130Y009561285D01*
G01*
X-17581619Y009854618D01*
G01*
X-17578108Y010147951D01*
G01*
X-17574598Y010441284D01*
G01*
X-17571087Y010734617D01*
G01*
X-17567577Y011027950D01*
G01*
X-17564066Y011321283D01*
G01*
X-17560555Y011614617D01*
G01*
X-17557140Y011900002D01*
G01*
X-16924986Y011900002D01*
G01*
X-16924986Y013100000D01*
G01*
X-19074996Y013100000D01*
G01*
X-19074996Y011900002D01*
G01*
X-18457204Y011900002D01*
G01*
X-18460491Y011625387D01*
G01*
X-18464002Y011332054D01*
G01*
X-18467512Y011038721D01*
G01*
X-18471023Y010745388D01*
G01*
X-18474533Y010452055D01*
G01*
X-18478044Y010158722D01*
G01*
X-18481555Y009865389D01*
G01*
X-18485065Y009572055D01*
G01*
X-18488576Y009278722D01*
G01*
X-18492086Y008985389D01*
G01*
X-18495597Y008692056D01*
G01*
X-18499108Y008398723D01*
G01*
X-18498610Y008398717D01*
G01*
X-18499140Y008393338D01*
G01*
X-18496715Y008368718D01*
G01*
X-18498461Y008368622D01*
G01*
X-18462243Y007710194D01*
G01*
X-18475417Y007685546D01*
G01*
X-18501025Y007601129D01*
G01*
X-18509142Y007518718D01*
G01*
X-18509639Y007518724D01*
G01*
X-18513150Y007225391D01*
G01*
X-18516661Y006932058D01*
G01*
X-18520171Y006638725D01*
G01*
X-18523682Y006345392D01*
G01*
X-18527192Y006052059D01*
G01*
X-18530703Y005758725D01*
G01*
X-18534214Y005465392D01*
G01*
X-18537724Y005172059D01*
G01*
X-18541235Y004878726D01*
G01*
X-18544746Y004585393D01*
G01*
X-18548256Y004292060D01*
G01*
X-18551767Y003998727D01*
G01*
X-18553335Y003867681D01*
G01*
X-18596932Y003816365D01*
G01*
X-18653315Y003749999D01*
G01*
X-19400023Y003749999D01*
G01*
X-19400023Y003365153D01*
G01*
X-19500000Y003375000D01*
G01*
X-19617054Y003363471D01*
G01*
X-19729610Y003329328D01*
G01*
X-19833342Y003273882D01*
G01*
X-19924264Y003199264D01*
G01*
X-19998882Y003108342D01*
G01*
X-20054328Y003004610D01*
G01*
X-20088471Y002892054D01*
G01*
X-20100000Y002775000D01*
G01*
X-20088471Y002657946D01*
G01*
X-20054328Y002545390D01*
G01*
X-19998882Y002441658D01*
G01*
X-19924264Y002350736D01*
G01*
X-19833342Y002276118D01*
G01*
X-19729610Y002220672D01*
G01*
X-19617054Y002186529D01*
G01*
X-19500000Y002175000D01*
G01*
X-19382946Y002186529D01*
G01*
X-19270390Y002220672D01*
G01*
X-19215519Y002250001D01*
G01*
X-19150024Y002250001D01*
G01*
X-19150024Y001586372D01*
G01*
X-20140372Y000596024D01*
G01*
X-20217054Y000588471D01*
G01*
X-20329610Y000554328D01*
G01*
X-20433342Y000498882D01*
G01*
X-20524264Y000424264D01*
G01*
X-20598882Y000333342D01*
G01*
X-20654328Y000229610D01*
G01*
X-20688471Y000117054D01*
G01*
X-20700000Y000000000D01*
G01*
X-20688471Y-00117054D01*
G01*
X-20654328Y-00229610D01*
G01*
X-20598882Y-00333342D01*
G01*
X-20524264Y-00424264D01*
G01*
X-20433342Y-00498882D01*
G01*
X-20329610Y-00554328D01*
G01*
X-20217054Y-00588471D01*
G01*
X-20100000Y-00600000D01*
G01*
X-19982946Y-00588471D01*
G01*
X-19870390Y-00554328D01*
G01*
X-19799997Y-00516702D01*
G01*
X-19799997Y-00625006D01*
G37*
D23*
G36*
X-16000000Y-04000000D02*
G01*
X-15882946Y-03988471D01*
G01*
X-15770390Y-03954328D01*
G01*
X-15666658Y-03898882D01*
G01*
X-15575736Y-03824264D01*
G01*
X-15501118Y-03733342D01*
G01*
X-15445672Y-03629610D01*
G01*
X-15411529Y-03517054D01*
G01*
X-15400000Y-03400000D01*
G01*
X-15411529Y-03282946D01*
G01*
X-15445672Y-03170390D01*
G01*
X-15501118Y-03066658D01*
G01*
X-15575736Y-02975736D01*
G01*
X-15625000Y-02935306D01*
G01*
X-15625000Y000699991D01*
G01*
X-12846270Y000699991D01*
G01*
X-12874967Y000646303D01*
G01*
X-12909111Y000533747D01*
G01*
X-12920639Y000416693D01*
G01*
X-12909111Y000299639D01*
G01*
X-12874967Y000187083D01*
G01*
X-12819521Y000083351D01*
G01*
X-12744904Y-00007571D01*
G01*
X-12723673Y-00024995D01*
G01*
X-14005004Y-00024995D01*
G01*
X-14005004Y-01975005D01*
G01*
X-11995000Y-01975005D01*
G01*
X-11995000Y-01549508D01*
G01*
X-11892700Y-01539432D01*
G01*
X-11789524Y-01508134D01*
G01*
X-11694436Y-01457308D01*
G01*
X-11611091Y-01388909D01*
G01*
X-11611086Y-01388903D01*
G01*
X-11449998Y-01227815D01*
G01*
X-11449998Y-01500000D01*
G01*
X-11441351Y-01587791D01*
G01*
X-11415744Y-01672208D01*
G01*
X-11374159Y-01750007D01*
G01*
X-11318196Y-01818198D01*
G01*
X-11250005Y-01874161D01*
G01*
X-11172206Y-01915746D01*
G01*
X-11087789Y-01941353D01*
G01*
X-10999998Y-01950000D01*
G01*
X-07000000Y-01950000D01*
G01*
X-06912209Y-01941353D01*
G01*
X-06827792Y-01915746D01*
G01*
X-06749993Y-01874161D01*
G01*
X-06681802Y-01818198D01*
G01*
X-06625839Y-01750007D01*
G01*
X-06584254Y-01672208D01*
G01*
X-06558647Y-01587791D01*
G01*
X-06550000Y-01500000D01*
G01*
X-06550000Y-00311637D01*
G01*
X-06531466Y-00276962D01*
G01*
X-06513964Y-00219268D01*
G01*
X-06508342Y-00223882D01*
G01*
X-06404610Y-00279328D01*
G01*
X-06292054Y-00313471D01*
G01*
X-06175000Y-00325000D01*
G01*
X-06057946Y-00313471D01*
G01*
X-05945390Y-00279328D01*
G01*
X-05841658Y-00223882D01*
G01*
X-05750736Y-00149264D01*
G01*
X-05676118Y-00058342D01*
G01*
X-05620672Y000045390D01*
G01*
X-05586529Y000157946D01*
G01*
X-05575000Y000275000D01*
G01*
X-05584849Y000374994D01*
G01*
X-04199999Y000374994D01*
G01*
X-04199999Y000437997D01*
G01*
X-03800001Y000437997D01*
G01*
X-03800001Y-00574966D01*
G01*
X-02200003Y-00574966D01*
G01*
X-02200003Y-00450000D01*
G01*
X-02140000Y-00450000D01*
G01*
X-01992905Y-00450000D01*
G01*
X-01933342Y-00498882D01*
G01*
X-01829610Y-00554328D01*
G01*
X-01717054Y-00588471D01*
G01*
X-01600000Y-00600000D01*
G01*
X-01482946Y-00588471D01*
G01*
X-01370390Y-00554328D01*
G01*
X-01266658Y-00498882D01*
G01*
X-01175736Y-00424264D01*
G01*
X-01155803Y-00399976D01*
G01*
X001549996Y-00400000D01*
G01*
X001550000Y-00400000D01*
G01*
X001637791Y-00391353D01*
G01*
X001722208Y-00365746D01*
G01*
X001800007Y-00324161D01*
G01*
X001868198Y-00268198D01*
G01*
X003040372Y000903976D01*
G01*
X003117054Y000911529D01*
G01*
X003229610Y000945672D01*
G01*
X003333342Y001001118D01*
G01*
X003424264Y001075736D01*
G01*
X003498882Y001166658D01*
G01*
X003554328Y001270390D01*
G01*
X003588471Y001382946D01*
G01*
X003600000Y001500000D01*
G01*
X003588471Y001617054D01*
G01*
X003554328Y001729610D01*
G01*
X003498882Y001833342D01*
G01*
X003424264Y001924264D01*
G01*
X003333342Y001998882D01*
G01*
X003229610Y002054328D01*
G01*
X003117054Y002088471D01*
G01*
X003000000Y002100000D01*
G01*
X002882946Y002088471D01*
G01*
X002858246Y002080979D01*
G01*
X003045179Y002267997D01*
G01*
X003949874Y002267997D01*
G01*
X003949874Y003719460D01*
G01*
X003988708Y003719157D01*
G01*
X004050126Y003718678D01*
G01*
X004050126Y002267997D01*
G01*
X005456602Y002267997D01*
G01*
X005456602Y002624329D01*
G01*
X016767035Y002613546D01*
G01*
X016767035Y002613581D01*
G01*
X016767392Y002613546D01*
G01*
X016840551Y002620751D01*
G01*
X016910899Y002642091D01*
G01*
X016975731Y002676745D01*
G01*
X017032558Y002723381D01*
G01*
X017033554Y002724595D01*
G01*
X017033661Y002724489D01*
G01*
X017227578Y002920030D01*
G01*
X017211529Y002867122D01*
G01*
X017200000Y002750068D01*
G01*
X017211529Y002633014D01*
G01*
X017245672Y002520458D01*
G01*
X017301118Y002416726D01*
G01*
X017375736Y002325804D01*
G01*
X017466658Y002251186D01*
G01*
X017570390Y002195740D01*
G01*
X017682946Y002161597D01*
G01*
X017800000Y002150068D01*
G01*
X017917054Y002161597D01*
G01*
X018029610Y002195740D01*
G01*
X018133342Y002251186D01*
G01*
X018224264Y002325804D01*
G01*
X018264694Y002375068D01*
G01*
X018443978Y002375068D01*
G01*
X018443978Y002150069D01*
G01*
X020567978Y002150069D01*
G01*
X020567978Y003350067D01*
G01*
X018443978Y003350067D01*
G01*
X018443978Y003125068D01*
G01*
X018264694Y003125068D01*
G01*
X018224264Y003174332D01*
G01*
X018133342Y003248950D01*
G01*
X018029610Y003304396D01*
G01*
X017917054Y003338539D01*
G01*
X017800000Y003350068D01*
G01*
X017682946Y003338539D01*
G01*
X017625259Y003321040D01*
G01*
X019439094Y005150063D01*
G01*
X020567978Y005150063D01*
G01*
X020567978Y006350061D01*
G01*
X018443978Y006350061D01*
G01*
X018443978Y005211724D01*
G01*
X017175994Y003933123D01*
G01*
X017156021Y003970490D01*
G01*
X017081404Y004061412D01*
G01*
X016990482Y004136030D01*
G01*
X016886750Y004191476D01*
G01*
X016863952Y004198392D01*
G01*
X016748500Y004541510D01*
G01*
X016746949Y004540988D01*
G01*
X016739536Y004565425D01*
G01*
X016704882Y004630258D01*
G01*
X016658249Y004687081D01*
G01*
X013730090Y007615315D01*
G01*
X013730090Y009229996D01*
G01*
X011900095Y009229996D01*
G01*
X011900095Y008880133D01*
G01*
X011884228Y008899467D01*
G01*
X010956602Y009827092D01*
G01*
X010956602Y010732003D01*
G01*
X009550126Y010732003D01*
G01*
X009550126Y009267997D01*
G01*
X010455037Y009267997D01*
G01*
X011244063Y008478970D01*
G01*
X011244063Y006727400D01*
G01*
X009941703Y005425040D01*
G01*
X009799997Y005425040D01*
G01*
X009799997Y005675046D01*
G01*
X008367943Y005675046D01*
G01*
X008192381Y007021356D01*
G01*
X008192381Y007278369D01*
G01*
X008192381Y007564598D01*
G01*
X008192381Y007850828D01*
G01*
X008192381Y008137057D01*
G01*
X008192381Y008423287D01*
G01*
X008192381Y008709516D01*
G01*
X008192381Y008809349D01*
G01*
X008261430Y008878398D01*
G01*
X008462281Y009079249D01*
G01*
X008651029Y009267997D01*
G01*
X009449874Y009267997D01*
G01*
X009449874Y010732003D01*
G01*
X009196636Y010732003D01*
G01*
X009196636Y011267997D01*
G01*
X009456602Y011267997D01*
G01*
X009456602Y012732003D01*
G01*
X008050126Y012732003D01*
G01*
X008050126Y011267997D01*
G01*
X008296636Y011267997D01*
G01*
X008296636Y010732003D01*
G01*
X008043398Y010732003D01*
G01*
X008043398Y009933158D01*
G01*
X008026736Y009916496D01*
G01*
X007825885Y009715645D01*
G01*
X007625034Y009514794D01*
G01*
X007424183Y009313943D01*
G01*
X007368220Y009245752D01*
G01*
X007326635Y009167953D01*
G01*
X007301028Y009083536D01*
G01*
X007292381Y008995745D01*
G01*
X007292381Y008709516D01*
G01*
X007292381Y008423287D01*
G01*
X007292381Y008137057D01*
G01*
X007292381Y007850828D01*
G01*
X007292381Y007564598D01*
G01*
X007292381Y007278369D01*
G01*
X007292381Y006992140D01*
G01*
X007298088Y006934202D01*
G01*
X007296159Y006933951D01*
G01*
X007336446Y006625006D01*
G01*
X006709188Y006625006D01*
G01*
X005798258Y007535935D01*
G01*
X005798258Y010020950D01*
G01*
X005936220Y010158939D01*
G01*
X005936495Y010159165D01*
G01*
X005936523Y010159199D01*
G01*
X005936526Y010159196D01*
G01*
X007045071Y011267997D01*
G01*
X007949874Y011267997D01*
G01*
X007949874Y012732003D01*
G01*
X006543398Y012732003D01*
G01*
X006543398Y011827005D01*
G01*
X005468845Y010752237D01*
G01*
X005200396Y010663129D01*
G01*
X005104610Y010714328D01*
G01*
X004992054Y010748471D01*
G01*
X004875000Y010760000D01*
G01*
X004757946Y010748471D01*
G01*
X004645390Y010714328D01*
G01*
X004541658Y010658882D01*
G01*
X004450736Y010584264D01*
G01*
X004376118Y010493342D01*
G01*
X004320672Y010389610D01*
G01*
X004286529Y010277054D01*
G01*
X004275215Y010162181D01*
G01*
X004224264Y010224264D01*
G01*
X004174993Y010264699D01*
G01*
X004174987Y010750001D01*
G01*
X004499975Y010750001D01*
G01*
X004499975Y012249999D01*
G01*
X003099977Y012249999D01*
G01*
X003099977Y010750001D01*
G01*
X003424987Y010750001D01*
G01*
X003424993Y010264689D01*
G01*
X003375736Y010224264D01*
G01*
X003301118Y010133342D01*
G01*
X003245672Y010029610D01*
G01*
X003235820Y009997131D01*
G01*
X003168342Y010052509D01*
G01*
X003064610Y010107954D01*
G01*
X002952054Y010142098D01*
G01*
X002835000Y010153627D01*
G01*
X002717946Y010142098D01*
G01*
X002605390Y010107954D01*
G01*
X002501658Y010052509D01*
G01*
X002410736Y009977891D01*
G01*
X002392070Y009955146D01*
G01*
X001774991Y009955146D01*
G01*
X001593561Y010136577D01*
G01*
X001599807Y010200000D01*
G01*
X001588279Y010317054D01*
G01*
X001554135Y010429610D01*
G01*
X001498689Y010533342D01*
G01*
X001424072Y010624264D01*
G01*
X001333150Y010698882D01*
G01*
X001229418Y010754328D01*
G01*
X001116862Y010788471D01*
G01*
X001082035Y010791901D01*
G01*
X000774923Y011303852D01*
G01*
X000774923Y011400219D01*
G01*
X000799923Y011400219D01*
G01*
X000799923Y012500218D01*
G01*
X-00000077Y012500218D01*
G01*
X-00400127Y012500218D01*
G01*
X-00799923Y012500218D01*
G01*
X-00799923Y012499964D01*
G01*
X-01199973Y012499964D01*
G01*
X-01199973Y011399965D01*
G01*
X-01174973Y011399965D01*
G01*
X-01174973Y011375637D01*
G01*
X-01880437Y010787730D01*
G01*
X-01882878Y010788471D01*
G01*
X-01999932Y010800000D01*
G01*
X-02116987Y010788471D01*
G01*
X-02229543Y010754328D01*
G01*
X-02333275Y010698882D01*
G01*
X-02424197Y010624264D01*
G01*
X-02498814Y010533342D01*
G01*
X-02554260Y010429610D01*
G01*
X-02588404Y010317054D01*
G01*
X-02599932Y010200000D01*
G01*
X-02588404Y010082946D01*
G01*
X-02554260Y009970390D01*
G01*
X-02537682Y009939375D01*
G01*
X-02566619Y009936525D01*
G01*
X-02651036Y009910917D01*
G01*
X-02728835Y009869333D01*
G01*
X-02734442Y009864731D01*
G01*
X-02797365Y009845644D01*
G01*
X-02901097Y009790198D01*
G01*
X-02992019Y009715580D01*
G01*
X-03066636Y009624658D01*
G01*
X-03122082Y009520926D01*
G01*
X-03156226Y009408370D01*
G01*
X-03167755Y009291316D01*
G01*
X-03156226Y009174262D01*
G01*
X-03150518Y009155447D01*
G01*
X-03387832Y009155447D01*
G01*
X-03684211Y009155447D01*
G01*
X-03980591Y009155447D01*
G01*
X-04068382Y009146801D01*
G01*
X-04152799Y009121193D01*
G01*
X-04230598Y009079609D01*
G01*
X-04298789Y009023645D01*
G01*
X-04499357Y008823077D01*
G01*
X-04699925Y008622509D01*
G01*
X-04900493Y008421941D01*
G01*
X-05101061Y008221373D01*
G01*
X-05301629Y008020805D01*
G01*
X-05502197Y007820237D01*
G01*
X-05702765Y007619669D01*
G01*
X-05903333Y007419101D01*
G01*
X-06103901Y007218533D01*
G01*
X-06304469Y007017965D01*
G01*
X-06360433Y006949774D01*
G01*
X-06402017Y006871975D01*
G01*
X-06427625Y006787558D01*
G01*
X-06436271Y006699767D01*
G01*
X-06436271Y006417595D01*
G01*
X-06436271Y006135424D01*
G01*
X-06436271Y005853252D01*
G01*
X-06436271Y005571080D01*
G01*
X-06436271Y005288908D01*
G01*
X-06436271Y005006736D01*
G01*
X-06436271Y004724564D01*
G01*
X-06436271Y004442392D01*
G01*
X-06436271Y004160220D01*
G01*
X-06436271Y003878048D01*
G01*
X-06436271Y003595877D01*
G01*
X-06436271Y003500101D01*
G01*
X-06507215Y003429157D01*
G01*
X-06709961Y003226411D01*
G01*
X-06912707Y003023666D01*
G01*
X-06936398Y002999975D01*
G01*
X-07302463Y002999975D01*
G01*
X-07770610Y003327689D01*
G01*
X-07771045Y003327067D01*
G01*
X-07777772Y003332588D01*
G01*
X-07846927Y003369552D01*
G01*
X-07921964Y003392314D01*
G01*
X-08000000Y003400000D01*
G01*
X-08210023Y003400000D01*
G01*
X-08210023Y003440005D01*
G01*
X-09475021Y003440005D01*
G01*
X-09475021Y002559995D01*
G01*
X-08210023Y002559995D01*
G01*
X-08210023Y002600000D01*
G01*
X-08126092Y002600000D01*
G01*
X-07749999Y002336726D01*
G01*
X-07749999Y001599977D01*
G01*
X-07450000Y001599977D01*
G01*
X-07450000Y001392905D01*
G01*
X-07475736Y001424264D01*
G01*
X-07566658Y001498882D01*
G01*
X-07670390Y001554328D01*
G01*
X-07782946Y001588471D01*
G01*
X-07900000Y001600000D01*
G01*
X-07945934Y001595476D01*
G01*
X-08210023Y001875670D01*
G01*
X-08210023Y002440007D01*
G01*
X-09475021Y002440007D01*
G01*
X-09475021Y001559997D01*
G01*
X-08943122Y001559997D01*
G01*
X-08491988Y001081350D01*
G01*
X-08500000Y001000000D01*
G01*
X-08488471Y000882946D01*
G01*
X-08454328Y000770390D01*
G01*
X-08398882Y000666658D01*
G01*
X-08324264Y000575736D01*
G01*
X-08233342Y000501118D01*
G01*
X-08129610Y000445672D01*
G01*
X-08017054Y000411529D01*
G01*
X-07900000Y000400000D01*
G01*
X-07782946Y000411529D01*
G01*
X-07670390Y000445672D01*
G01*
X-07566658Y000501118D01*
G01*
X-07475736Y000575736D01*
G01*
X-07450000Y000607095D01*
G01*
X-07450000Y-00009768D01*
G01*
X-07628073Y-00228717D01*
G01*
X-07733369Y-00272946D01*
G01*
X-07733286Y-00273144D01*
G01*
X-07809104Y-00313670D01*
G01*
X-07868889Y-00362733D01*
G01*
X-07869534Y-00362056D01*
G01*
X-08073496Y-00556415D01*
G01*
X-08277458Y-00750774D01*
G01*
X-08481420Y-00945133D01*
G01*
X-08551835Y-01012232D01*
G01*
X-08662288Y-01010377D01*
G01*
X-08957188Y-01005423D01*
G01*
X-09252088Y-01000468D01*
G01*
X-09365031Y-00998571D01*
G01*
X-09442842Y-00920760D01*
G01*
X-09649335Y-00714267D01*
G01*
X-09855828Y-00507774D01*
G01*
X-09994996Y-00368606D01*
G01*
X-09994996Y000975005D01*
G01*
X-10700162Y000975005D01*
G01*
X-10757478Y001520943D01*
G01*
X-10757478Y001559997D01*
G01*
X-10524979Y001559997D01*
G01*
X-10524979Y002059869D01*
G01*
X-10524979Y002939879D01*
G01*
X-11789977Y002939879D01*
G01*
X-11789977Y002899874D01*
G01*
X-12000000Y002899874D01*
G01*
X-12078036Y002892188D01*
G01*
X-12153073Y002869426D01*
G01*
X-12222228Y002832462D01*
G01*
X-12282843Y002782717D01*
G01*
X-12290529Y002773351D01*
G01*
X-12291261Y002774040D01*
G01*
X-12455096Y002599989D01*
G01*
X-15660005Y002599989D01*
G01*
X-15660005Y001105552D01*
G01*
X-15688199Y001158299D01*
G01*
X-15734835Y001215125D01*
G01*
X-15791661Y001261761D01*
G01*
X-15856494Y001296415D01*
G01*
X-15926841Y001317754D01*
G01*
X-16000000Y001324960D01*
G01*
X-16200003Y001324960D01*
G01*
X-16200003Y001574966D01*
G01*
X-17800001Y001574966D01*
G01*
X-17800001Y000324954D01*
G01*
X-16375000Y000324954D01*
G01*
X-16375000Y-02935306D01*
G01*
X-16424264Y-02975736D01*
G01*
X-16498882Y-03066658D01*
G01*
X-16554328Y-03170390D01*
G01*
X-16588471Y-03282946D01*
G01*
X-16600000Y-03400000D01*
G01*
X-16588471Y-03517054D01*
G01*
X-16554328Y-03629610D01*
G01*
X-16498882Y-03733342D01*
G01*
X-16424264Y-03824264D01*
G01*
X-16333342Y-03898882D01*
G01*
X-16229610Y-03954328D01*
G01*
X-16117054Y-03988471D01*
G01*
X-16000000Y-04000000D01*
G37*
D23*
G36*
X-11789977Y003059867D02*
G01*
X-10524979Y003059867D01*
G01*
X-10524979Y003559993D01*
G01*
X-10524979Y004440003D01*
G01*
X-10757478Y004440003D01*
G01*
X-10757478Y004479057D01*
G01*
X-10742156Y004625000D01*
G01*
X-09226678Y004625000D01*
G01*
X-09217522Y004607557D01*
G01*
X-09217522Y004440003D01*
G01*
X-09475021Y004440003D01*
G01*
X-09475021Y003559993D01*
G01*
X-08210023Y003559993D01*
G01*
X-08210023Y004440003D01*
G01*
X-08467522Y004440003D01*
G01*
X-08467522Y004700000D01*
G01*
X-08474728Y004773159D01*
G01*
X-08496067Y004843506D01*
G01*
X-08512078Y004873460D01*
G01*
X-08510488Y004874294D01*
G01*
X-08667966Y005174294D01*
G01*
X-08669556Y005173460D01*
G01*
X-08688199Y005208339D01*
G01*
X-08734835Y005265165D01*
G01*
X-08791661Y005311801D01*
G01*
X-08856494Y005346455D01*
G01*
X-08926841Y005367794D01*
G01*
X-09000000Y005375000D01*
G01*
X-09994996Y005375000D01*
G01*
X-09994996Y006975005D01*
G01*
X-10399998Y006975005D01*
G01*
X-10399998Y007524995D01*
G01*
X-09994996Y007524995D01*
G01*
X-09994996Y009475005D01*
G01*
X-12005000Y009475005D01*
G01*
X-12005000Y007524995D01*
G01*
X-11599998Y007524995D01*
G01*
X-11599998Y006975005D01*
G01*
X-12005000Y006975005D01*
G01*
X-12005000Y006400000D01*
G01*
X-12267293Y006400000D01*
G01*
X-12275390Y006404328D01*
G01*
X-12387946Y006438471D01*
G01*
X-12505000Y006450000D01*
G01*
X-12622054Y006438471D01*
G01*
X-12734610Y006404328D01*
G01*
X-12838342Y006348882D01*
G01*
X-12929264Y006274264D01*
G01*
X-13003882Y006183342D01*
G01*
X-13059328Y006079610D01*
G01*
X-13093471Y005967054D01*
G01*
X-13105000Y005850000D01*
G01*
X-13093471Y005732946D01*
G01*
X-13059328Y005620390D01*
G01*
X-13003882Y005516658D01*
G01*
X-12929264Y005425736D01*
G01*
X-12838342Y005351118D01*
G01*
X-12742724Y005300009D01*
G01*
X-15660005Y005300009D01*
G01*
X-15660005Y003400011D01*
G01*
X-12455286Y003400011D01*
G01*
X-12291302Y003225750D01*
G01*
X-12290567Y003226441D01*
G01*
X-12282843Y003217029D01*
G01*
X-12222228Y003167284D01*
G01*
X-12153073Y003130320D01*
G01*
X-12078036Y003107558D01*
G01*
X-12000000Y003099872D01*
G01*
X-11789977Y003099872D01*
G01*
X-11789977Y003059867D01*
G37*
D23*
G36*
X006335050Y-07269000D02*
G01*
X006452104Y-07257471D01*
G01*
X006564660Y-07223328D01*
G01*
X006668392Y-07167882D01*
G01*
X006700050Y-07141901D01*
G01*
X006700050Y-07175071D01*
G01*
X008800047Y-07175071D01*
G01*
X008800047Y-05872070D01*
G01*
X009868513Y-04826253D01*
G01*
X011024995Y-04823678D01*
G01*
X011024995Y-05124998D01*
G01*
X010964694Y-05124998D01*
G01*
X010924264Y-05075734D01*
G01*
X010833342Y-05001116D01*
G01*
X010729610Y-04945670D01*
G01*
X010617054Y-04911527D01*
G01*
X010500000Y-04899998D01*
G01*
X010382946Y-04911527D01*
G01*
X010270390Y-04945670D01*
G01*
X010166658Y-05001116D01*
G01*
X010075736Y-05075734D01*
G01*
X010001118Y-05166656D01*
G01*
X009945672Y-05270388D01*
G01*
X009911529Y-05382944D01*
G01*
X009900000Y-05499998D01*
G01*
X009911529Y-05617052D01*
G01*
X009945672Y-05729608D01*
G01*
X010001118Y-05833340D01*
G01*
X010075736Y-05924262D01*
G01*
X010166658Y-05998880D01*
G01*
X010270390Y-06054326D01*
G01*
X010382946Y-06088469D01*
G01*
X010500000Y-06099998D01*
G01*
X010617054Y-06088469D01*
G01*
X010729610Y-06054326D01*
G01*
X010833342Y-05998880D01*
G01*
X010924264Y-05924262D01*
G01*
X010964694Y-05874998D01*
G01*
X011024995Y-05874998D01*
G01*
X011024995Y-06505000D01*
G01*
X012975005Y-06505000D01*
G01*
X012975005Y-04819336D01*
G01*
X016400192Y-04811709D01*
G01*
X016400192Y-04811628D01*
G01*
X016472516Y-04804505D01*
G01*
X016542863Y-04783165D01*
G01*
X016607696Y-04748511D01*
G01*
X016664522Y-04701875D01*
G01*
X016711158Y-04645049D01*
G01*
X016723643Y-04621690D01*
G01*
X017115363Y-04229996D01*
G01*
X018730090Y-04229996D01*
G01*
X018730090Y-01770004D01*
G01*
X016900094Y-01770004D01*
G01*
X016900094Y-03384626D01*
G01*
X016222573Y-04062103D01*
G01*
X009714349Y-04076595D01*
G01*
X009714349Y-04076676D01*
G01*
X009642025Y-04083799D01*
G01*
X009571677Y-04105139D01*
G01*
X009506845Y-04139793D01*
G01*
X009453135Y-04183871D01*
G01*
X009452874Y-04183604D01*
G01*
X008800047Y-04822592D01*
G01*
X008800047Y-03575077D01*
G01*
X006700050Y-03575077D01*
G01*
X006700050Y-03975076D01*
G01*
X000024924Y-03975076D01*
G01*
X-00053112Y-03982762D01*
G01*
X-00128149Y-04005524D01*
G01*
X-00197304Y-04042488D01*
G01*
X-00257918Y-04092233D01*
G01*
X-00768762Y-04603077D01*
G01*
X-00800000Y-04600000D01*
G01*
X-00917054Y-04611529D01*
G01*
X-01029610Y-04645672D01*
G01*
X-01133342Y-04701118D01*
G01*
X-01224264Y-04775736D01*
G01*
X-01298882Y-04866658D01*
G01*
X-01354328Y-04970390D01*
G01*
X-01388471Y-05082946D01*
G01*
X-01400000Y-05200000D01*
G01*
X-01388471Y-05317054D01*
G01*
X-01354328Y-05429610D01*
G01*
X-01298882Y-05533342D01*
G01*
X-01224264Y-05624264D01*
G01*
X-01133342Y-05698882D01*
G01*
X-01029610Y-05754328D01*
G01*
X-00917054Y-05788471D01*
G01*
X-00800000Y-05800000D01*
G01*
X-00682946Y-05788471D01*
G01*
X-00570390Y-05754328D01*
G01*
X-00466658Y-05698882D01*
G01*
X-00375736Y-05624264D01*
G01*
X-00301118Y-05533342D01*
G01*
X-00245672Y-05429610D01*
G01*
X-00211529Y-05317054D01*
G01*
X-00200000Y-05200000D01*
G01*
X-00203077Y-05168762D01*
G01*
X000190609Y-04775076D01*
G01*
X006700050Y-04775076D01*
G01*
X006700050Y-04824033D01*
G01*
X006264480Y-05259603D01*
G01*
X006211625Y-05324006D01*
G01*
X006172351Y-05397483D01*
G01*
X006149172Y-05473892D01*
G01*
X006148854Y-05473826D01*
G01*
X006004805Y-06168462D01*
G01*
X006001707Y-06170118D01*
G01*
X005910785Y-06244736D01*
G01*
X005836168Y-06335658D01*
G01*
X005780722Y-06439390D01*
G01*
X005746578Y-06551946D01*
G01*
X005735050Y-06669000D01*
G01*
X005746578Y-06786054D01*
G01*
X005780722Y-06898610D01*
G01*
X005836168Y-07002342D01*
G01*
X005910785Y-07093264D01*
G01*
X006001707Y-07167882D01*
G01*
X006105439Y-07223328D01*
G01*
X006217995Y-07257471D01*
G01*
X006335050Y-07269000D01*
G37*
D23*
G36*
X-14949874Y-05732003D02*
G01*
X-13543398Y-05732003D01*
G01*
X-13543398Y-04826999D01*
G01*
X-12371737Y-03655090D01*
G01*
X-06825649Y-03655090D01*
G01*
X-06329066Y-04151674D01*
G01*
X-06272240Y-04198310D01*
G01*
X-06207407Y-04232964D01*
G01*
X-06137060Y-04254303D01*
G01*
X-06063901Y-04261509D01*
G01*
X-02011555Y-04261509D01*
G01*
X-01938396Y-04254303D01*
G01*
X-01868049Y-04232964D01*
G01*
X-01803216Y-04198310D01*
G01*
X-01746390Y-04151674D01*
G01*
X-01519666Y-03924950D01*
G01*
X-00199999Y-03924950D01*
G01*
X-00199999Y-01824953D01*
G01*
X-01799997Y-01824953D01*
G01*
X-01799997Y-03144621D01*
G01*
X-02166885Y-03511509D01*
G01*
X-02199995Y-03511509D01*
G01*
X-02199995Y-01824953D01*
G01*
X-03799993Y-01824953D01*
G01*
X-03799993Y-03511509D01*
G01*
X-04199991Y-03511509D01*
G01*
X-04199991Y-01824953D01*
G01*
X-05799989Y-01824953D01*
G01*
X-05799989Y-03511509D01*
G01*
X-05908571Y-03511509D01*
G01*
X-06405154Y-03014925D01*
G01*
X-06461980Y-02968289D01*
G01*
X-06526813Y-02933635D01*
G01*
X-06597160Y-02912296D01*
G01*
X-06670319Y-02905090D01*
G01*
X-12527090Y-02905090D01*
G01*
X-12600249Y-02912296D01*
G01*
X-12670597Y-02933635D01*
G01*
X-12735429Y-02968289D01*
G01*
X-12792255Y-03014925D01*
G01*
X-12792280Y-03014956D01*
G01*
X-12792283Y-03014953D01*
G01*
X-14045062Y-04267997D01*
G01*
X-14949874Y-04267997D01*
G01*
X-14949874Y-05732003D01*
G37*
D23*
G36*
X000199999Y-03924950D02*
G01*
X001799997Y-03924950D01*
G01*
X001799997Y-01824953D01*
G01*
X000199999Y-01824953D01*
G01*
X000199999Y-03924950D01*
G37*
D23*
G36*
X002199995Y-03924950D02*
G01*
X003799993Y-03924950D01*
G01*
X003799993Y-01824953D01*
G01*
X002199995Y-01824953D01*
G01*
X002199995Y-03924950D01*
G37*
D23*
G36*
X004199991Y-03924950D02*
G01*
X005799989Y-03924950D01*
G01*
X005799989Y-01824953D01*
G01*
X004199991Y-01824953D01*
G01*
X004199991Y-03924950D01*
G37*
D23*
G36*
X-16456602Y-05732003D02*
G01*
X-15050126Y-05732003D01*
G01*
X-15050126Y-04267997D01*
G01*
X-16456602Y-04267997D01*
G01*
X-16456602Y-04625000D01*
G01*
X-17549939Y-04625000D01*
G01*
X-17549939Y-04300001D01*
G01*
X-18949937Y-04300001D01*
G01*
X-18949937Y-05699999D01*
G01*
X-17549939Y-05699999D01*
G01*
X-17549939Y-05375000D01*
G01*
X-16456602Y-05375000D01*
G01*
X-16456602Y-05732003D01*
G37*
D23*
G36*
X-08800046Y-07175071D02*
G01*
X-06700049Y-07175071D01*
G01*
X-06700049Y-05575073D01*
G01*
X-08800046Y-05575073D01*
G01*
X-08800046Y-07175071D01*
G37*
D23*
G36*
X-08800046Y-09175067D02*
G01*
X-06700049Y-09175067D01*
G01*
X-06700049Y-07575069D01*
G01*
X-08800046Y-07575069D01*
G01*
X-08800046Y-09175067D01*
G37*
D23*
G36*
X-08800046Y-11175063D02*
G01*
X-06700049Y-11175063D01*
G01*
X-06700049Y-09575065D01*
G01*
X-08800046Y-09575065D01*
G01*
X-08800046Y-10000064D01*
G01*
X-19654599Y-10000064D01*
G01*
X-20269910Y-09384711D01*
G01*
X-20269910Y-07770004D01*
G01*
X-22099906Y-07770004D01*
G01*
X-22099906Y-10229996D01*
G01*
X-20485307Y-10229996D01*
G01*
X-20075110Y-10640220D01*
G01*
X-20075109Y-10640219D01*
G01*
X-20075101Y-10640229D01*
G01*
X-20018275Y-10686865D01*
G01*
X-19953443Y-10721519D01*
G01*
X-19883095Y-10742858D01*
G01*
X-19809936Y-10750064D01*
G01*
X-08800046Y-10750064D01*
G01*
X-08800046Y-11175063D01*
G37*
D23*
G36*
X006700050Y-11175063D02*
G01*
X008800047Y-11175063D01*
G01*
X008800047Y-09575065D01*
G01*
X006700050Y-09575065D01*
G01*
X006700050Y-11175063D01*
G37*
D23*
G36*
X-08800046Y-13175059D02*
G01*
X-06700049Y-13175059D01*
G01*
X-06700049Y-11575061D01*
G01*
X-08800046Y-11575061D01*
G01*
X-08800046Y-13175059D01*
G37*
D23*
G36*
X006700049Y-15175055D02*
G01*
X008800046Y-15175055D01*
G01*
X008800046Y-13934417D01*
G01*
X008840061Y-13946555D01*
G01*
X008957115Y-13958084D01*
G01*
X009074169Y-13946555D01*
G01*
X009186725Y-13912412D01*
G01*
X009290457Y-13856966D01*
G01*
X009381379Y-13782348D01*
G01*
X009455996Y-13691426D01*
G01*
X009511442Y-13587694D01*
G01*
X009545586Y-13475138D01*
G01*
X009557115Y-13358084D01*
G01*
X009545586Y-13241030D01*
G01*
X009511442Y-13128474D01*
G01*
X009455996Y-13024742D01*
G01*
X009381379Y-12933820D01*
G01*
X009290457Y-12859203D01*
G01*
X009186725Y-12803757D01*
G01*
X009074169Y-12769613D01*
G01*
X008957115Y-12758084D01*
G01*
X008840061Y-12769613D01*
G01*
X008800047Y-12781751D01*
G01*
X008800047Y-11575061D01*
G01*
X006700050Y-11575061D01*
G01*
X006700050Y-13175059D01*
G01*
X008388656Y-13175059D01*
G01*
X008386498Y-13182172D01*
G01*
X007993613Y-13575057D01*
G01*
X006700049Y-13575057D01*
G01*
X006700049Y-15175055D01*
G37*
D23*
G36*
X006700049Y-17175051D02*
G01*
X008800046Y-17175051D01*
G01*
X008800046Y-15575053D01*
G01*
X006700049Y-15575053D01*
G01*
X006700049Y-17175051D01*
G37*
%LPD*%
D23*
G36*
X-06508342Y000773882D02*
G01*
X-06404610Y000829328D01*
G01*
X-06292054Y000863471D01*
G01*
X-06221918Y000870379D01*
G01*
X-05827132Y001265165D01*
G01*
X-05799997Y001287434D01*
G01*
X-05799997Y001625006D01*
G01*
X-04199999Y001625006D01*
G01*
X-04199999Y001187997D01*
G01*
X-00474479Y001187997D01*
G01*
X-00474479Y001838829D01*
G01*
X-00467273Y001911988D01*
G01*
X-00445934Y001982335D01*
G01*
X-00411280Y002047168D01*
G01*
X-00364644Y002103994D01*
G01*
X000008045Y002476683D01*
G01*
X000064871Y002523319D01*
G01*
X000129704Y002557973D01*
G01*
X000200051Y002579312D01*
G01*
X000273210Y002586518D01*
G01*
X002303137Y002586518D01*
G01*
X002543398Y002826890D01*
G01*
X002543398Y003730429D01*
G01*
X002513750Y003730660D01*
G01*
X002218758Y003732960D01*
G01*
X001923767Y003735261D01*
G01*
X001628775Y003737561D01*
G01*
X001333784Y003739862D01*
G01*
X001333787Y003740193D01*
G01*
X001249502Y003748494D01*
G01*
X001230441Y003754276D01*
G01*
X001211473Y003691747D01*
G01*
X001156027Y003588014D01*
G01*
X001081409Y003497093D01*
G01*
X000990487Y003422475D01*
G01*
X000886755Y003367029D01*
G01*
X000774199Y003332885D01*
G01*
X000657145Y003321357D01*
G01*
X000540091Y003332885D01*
G01*
X000484191Y003349842D01*
G01*
X000448094Y003330548D01*
G01*
X000377747Y003309208D01*
G01*
X000306334Y003302175D01*
G01*
X000306335Y003302007D01*
G01*
X-00775397Y003296968D01*
G01*
X-00775398Y003297136D01*
G01*
X-00777144Y003296964D01*
G01*
X-00850303Y003304170D01*
G01*
X-00920650Y003325509D01*
G01*
X-00985483Y003360163D01*
G01*
X-01036989Y003402433D01*
G01*
X-01037414Y003401993D01*
G01*
X-01878518Y004212872D01*
G01*
X-01882946Y004211529D01*
G01*
X-02000000Y004200000D01*
G01*
X-02117054Y004211529D01*
G01*
X-02229610Y004245672D01*
G01*
X-02333342Y004301118D01*
G01*
X-02424264Y004375736D01*
G01*
X-02498882Y004466658D01*
G01*
X-02554328Y004570390D01*
G01*
X-02588471Y004682946D01*
G01*
X-02600000Y004800000D01*
G01*
X-02588471Y004917054D01*
G01*
X-02554328Y005029610D01*
G01*
X-02498882Y005133342D01*
G01*
X-02424264Y005224264D01*
G01*
X-02333342Y005298882D01*
G01*
X-02229610Y005354328D01*
G01*
X-02117054Y005388471D01*
G01*
X-02000000Y005400000D01*
G01*
X-01936577Y005393753D01*
G01*
X-01705406Y005624924D01*
G01*
X-01835354Y005624941D01*
G01*
X-01875736Y005575736D01*
G01*
X-01966658Y005501118D01*
G01*
X-02070390Y005445672D01*
G01*
X-02182946Y005411529D01*
G01*
X-02300000Y005400000D01*
G01*
X-02417054Y005411529D01*
G01*
X-02529610Y005445672D01*
G01*
X-02633342Y005501118D01*
G01*
X-02724264Y005575736D01*
G01*
X-02798882Y005666658D01*
G01*
X-02854328Y005770390D01*
G01*
X-02888471Y005882946D01*
G01*
X-02900000Y006000000D01*
G01*
X-02888471Y006117054D01*
G01*
X-02854328Y006229610D01*
G01*
X-02798882Y006333342D01*
G01*
X-02724264Y006424264D01*
G01*
X-02633342Y006498882D01*
G01*
X-02529610Y006554328D01*
G01*
X-02417054Y006588471D01*
G01*
X-02300000Y006600000D01*
G01*
X-02182946Y006588471D01*
G01*
X-02070390Y006554328D01*
G01*
X-01966658Y006498882D01*
G01*
X-01875736Y006424264D01*
G01*
X-01835258Y006374941D01*
G01*
X-01705255Y006374924D01*
G01*
X-01936577Y006606247D01*
G01*
X-02000000Y006600000D01*
G01*
X-02117054Y006611529D01*
G01*
X-02229610Y006645672D01*
G01*
X-02333342Y006701118D01*
G01*
X-02424264Y006775736D01*
G01*
X-02498882Y006866658D01*
G01*
X-02554328Y006970390D01*
G01*
X-02588471Y007082946D01*
G01*
X-02600000Y007200000D01*
G01*
X-02588471Y007317054D01*
G01*
X-02554328Y007429610D01*
G01*
X-02498882Y007533342D01*
G01*
X-02424264Y007624264D01*
G01*
X-02333342Y007698882D01*
G01*
X-02229610Y007754328D01*
G01*
X-02117054Y007788471D01*
G01*
X-02000000Y007800000D01*
G01*
X-01882946Y007788471D01*
G01*
X-01770390Y007754328D01*
G01*
X-01666658Y007698882D01*
G01*
X-01575736Y007624264D01*
G01*
X-01501118Y007533342D01*
G01*
X-01445672Y007429610D01*
G01*
X-01411529Y007317054D01*
G01*
X-01400000Y007200000D01*
G01*
X-01406247Y007136576D01*
G01*
X-01219670Y006949999D01*
G01*
X-00450000Y006949999D01*
G01*
X-00450000Y008600000D01*
G01*
X-00441353Y008687791D01*
G01*
X-00415746Y008772208D01*
G01*
X-00374161Y008850007D01*
G01*
X-00318198Y008918198D01*
G01*
X-00286396Y008950000D01*
G01*
X-00332791Y008950000D01*
G01*
X-00615989Y008950000D01*
G01*
X-00899186Y008950000D01*
G01*
X-01038184Y008950000D01*
G01*
X-01004529Y008839054D01*
G01*
X-00993000Y008722000D01*
G01*
X-01004529Y008604946D01*
G01*
X-01038672Y008492390D01*
G01*
X-01094118Y008388658D01*
G01*
X-01168736Y008297736D01*
G01*
X-01259658Y008223118D01*
G01*
X-01363390Y008167672D01*
G01*
X-01475946Y008133529D01*
G01*
X-01593000Y008122000D01*
G01*
X-01710054Y008133529D01*
G01*
X-01822610Y008167672D01*
G01*
X-01926342Y008223118D01*
G01*
X-01965735Y008255447D01*
G01*
X-02046579Y008255447D01*
G01*
X-02121846Y008196262D01*
G01*
X-02123125Y008197889D01*
G01*
X-02149993Y008175839D01*
G01*
X-02227792Y008134254D01*
G01*
X-02312209Y008108647D01*
G01*
X-02400000Y008100000D01*
G01*
X-02487791Y008108647D01*
G01*
X-02498492Y008111893D01*
G01*
X-02498702Y008110958D01*
G01*
X-03141411Y008255447D01*
G01*
X-03387832Y008255447D01*
G01*
X-03684211Y008255447D01*
G01*
X-03794195Y008255447D01*
G01*
X-03862961Y008186681D01*
G01*
X-04063529Y007986113D01*
G01*
X-04264097Y007785545D01*
G01*
X-04464665Y007584977D01*
G01*
X-04665233Y007384409D01*
G01*
X-04865801Y007183841D01*
G01*
X-05066369Y006983273D01*
G01*
X-05266937Y006782705D01*
G01*
X-05467505Y006582137D01*
G01*
X-05536271Y006513371D01*
G01*
X-05536271Y006417595D01*
G01*
X-05536271Y006135424D01*
G01*
X-05536271Y005853252D01*
G01*
X-05536271Y005571080D01*
G01*
X-05536271Y005288908D01*
G01*
X-05536271Y005006736D01*
G01*
X-05536271Y004724564D01*
G01*
X-05536271Y004442392D01*
G01*
X-05536271Y004160220D01*
G01*
X-05536271Y003878048D01*
G01*
X-05536271Y003595877D01*
G01*
X-05536271Y003313705D01*
G01*
X-05544918Y003225914D01*
G01*
X-05570525Y003141497D01*
G01*
X-05612110Y003063698D01*
G01*
X-05668073Y002995507D01*
G01*
X-05870819Y002792761D01*
G01*
X-06073565Y002590015D01*
G01*
X-06250001Y002413578D01*
G01*
X-06250001Y001599977D01*
G01*
X-06534525Y001599977D01*
G01*
X-06532512Y001508275D01*
G01*
X-06526647Y001241083D01*
G01*
X-06520781Y000973891D01*
G01*
X-06516248Y000767393D01*
G01*
X-06508342Y000773882D01*
G37*
%LPC*%
D23*
G36*
X-04449874Y005267997D02*
G01*
X-03043398Y005267997D01*
G01*
X-03043398Y006172908D01*
G01*
X-02934835Y006281471D01*
G01*
X-02888199Y006338297D01*
G01*
X-02853545Y006403130D01*
G01*
X-02832206Y006473477D01*
G01*
X-02825000Y006546636D01*
G01*
X-02825000Y006735306D01*
G01*
X-02775736Y006775736D01*
G01*
X-02701118Y006866658D01*
G01*
X-02645672Y006970390D01*
G01*
X-02611529Y007082946D01*
G01*
X-02600000Y007200000D01*
G01*
X-02611529Y007317054D01*
G01*
X-02645672Y007429610D01*
G01*
X-02701118Y007533342D01*
G01*
X-02775736Y007624264D01*
G01*
X-02866658Y007698882D01*
G01*
X-02970390Y007754328D01*
G01*
X-03082946Y007788471D01*
G01*
X-03200000Y007800000D01*
G01*
X-03317054Y007788471D01*
G01*
X-03429610Y007754328D01*
G01*
X-03533342Y007698882D01*
G01*
X-03624264Y007624264D01*
G01*
X-03698882Y007533342D01*
G01*
X-03754328Y007429610D01*
G01*
X-03788471Y007317054D01*
G01*
X-03800000Y007200000D01*
G01*
X-03788471Y007082946D01*
G01*
X-03754328Y006970390D01*
G01*
X-03698882Y006866658D01*
G01*
X-03624264Y006775736D01*
G01*
X-03575000Y006735306D01*
G01*
X-03575000Y006732003D01*
G01*
X-04449874Y006732003D01*
G01*
X-04449874Y005267997D01*
G37*
%LPD*%
D23*
G36*
X007292381Y004702305D02*
G01*
X007292381Y004988534D01*
G01*
X007301028Y005076325D01*
G01*
X007326635Y005160742D01*
G01*
X007342451Y005190332D01*
G01*
X007340628Y005191252D01*
G01*
X007433341Y005374994D01*
G01*
X006200003Y005374994D01*
G01*
X006200003Y006073531D01*
G01*
X005183024Y007090509D01*
G01*
X005170900Y007075736D01*
G01*
X005079978Y007001118D01*
G01*
X004976246Y006945672D01*
G01*
X004863690Y006911529D01*
G01*
X004746636Y006900000D01*
G01*
X004629582Y006911529D01*
G01*
X004517026Y006945672D01*
G01*
X004413294Y007001118D01*
G01*
X004322372Y007075736D01*
G01*
X004247754Y007166658D01*
G01*
X004192308Y007270390D01*
G01*
X004158165Y007382946D01*
G01*
X004146636Y007500000D01*
G01*
X004158165Y007617054D01*
G01*
X004192308Y007729610D01*
G01*
X004247754Y007833342D01*
G01*
X004322372Y007924264D01*
G01*
X004371636Y007964694D01*
G01*
X004371636Y008267997D01*
G01*
X004043398Y008267997D01*
G01*
X004043398Y009253042D01*
G01*
X004029610Y009245672D01*
G01*
X003917054Y009211529D01*
G01*
X003800000Y009200000D01*
G01*
X003682946Y009211529D01*
G01*
X003570390Y009245672D01*
G01*
X003466658Y009301118D01*
G01*
X003399180Y009356496D01*
G01*
X003389328Y009324017D01*
G01*
X003333882Y009220285D01*
G01*
X003259264Y009129363D01*
G01*
X003168342Y009054745D01*
G01*
X003064610Y008999299D01*
G01*
X002952054Y008965156D01*
G01*
X002835000Y008953627D01*
G01*
X002717946Y008965156D01*
G01*
X002605390Y008999299D01*
G01*
X002501658Y009054745D01*
G01*
X002410736Y009129363D01*
G01*
X002348542Y009205146D01*
G01*
X001619661Y009205146D01*
G01*
X001546503Y009212352D01*
G01*
X001499975Y009226466D01*
G01*
X001499975Y007750001D01*
G01*
X000675972Y007750001D01*
G01*
X000671966Y007473915D01*
G01*
X000667932Y007195929D01*
G01*
X000663898Y006917942D01*
G01*
X000663303Y006917951D01*
G01*
X000655299Y006836681D01*
G01*
X000629691Y006752264D01*
G01*
X000601340Y006699223D01*
G01*
X000602965Y006698278D01*
G01*
X000562500Y006628684D01*
G01*
X000562500Y006502500D01*
G01*
X000562500Y006449873D01*
G01*
X001349985Y006449873D01*
G01*
X001349985Y006374879D01*
G01*
X001835258Y006374941D01*
G01*
X001875736Y006424264D01*
G01*
X001966658Y006498882D01*
G01*
X002070390Y006554328D01*
G01*
X002182946Y006588471D01*
G01*
X002300000Y006600000D01*
G01*
X002417054Y006588471D01*
G01*
X002529610Y006554328D01*
G01*
X002633342Y006498882D01*
G01*
X002724264Y006424264D01*
G01*
X002764694Y006375000D01*
G01*
X003247000Y006375000D01*
G01*
X003320159Y006367794D01*
G01*
X003390506Y006346455D01*
G01*
X003455339Y006311801D01*
G01*
X003512165Y006265165D01*
G01*
X003512252Y006265058D01*
G01*
X003512262Y006265068D01*
G01*
X003545303Y006232003D01*
G01*
X004449874Y006232003D01*
G01*
X004449874Y004767997D01*
G01*
X003043398Y004767997D01*
G01*
X003043398Y005625000D01*
G01*
X002764694Y005625000D01*
G01*
X002724264Y005575736D01*
G01*
X002633342Y005501118D01*
G01*
X002529610Y005445672D01*
G01*
X002417054Y005411529D01*
G01*
X002300000Y005400000D01*
G01*
X002182946Y005411529D01*
G01*
X002070390Y005445672D01*
G01*
X001966658Y005501118D01*
G01*
X001875736Y005575736D01*
G01*
X001835354Y005624941D01*
G01*
X001705406Y005624924D01*
G01*
X001936577Y005393753D01*
G01*
X002000000Y005400000D01*
G01*
X002117054Y005388471D01*
G01*
X002229610Y005354328D01*
G01*
X002333342Y005298882D01*
G01*
X002424264Y005224264D01*
G01*
X002498882Y005133342D01*
G01*
X002554328Y005029610D01*
G01*
X002588471Y004917054D01*
G01*
X002600000Y004800000D01*
G01*
X002588471Y004682946D01*
G01*
X002572480Y004630229D01*
G01*
X002815760Y004628332D01*
G01*
X003110752Y004626031D01*
G01*
X003405743Y004623731D01*
G01*
X003700735Y004621430D01*
G01*
X003995726Y004619130D01*
G01*
X004290718Y004616829D01*
G01*
X004585710Y004614529D01*
G01*
X004880701Y004612228D01*
G01*
X005175693Y004609928D01*
G01*
X005470684Y004607628D01*
G01*
X005765676Y004605327D01*
G01*
X006060668Y004603027D01*
G01*
X006355659Y004600726D01*
G01*
X006650651Y004598426D01*
G01*
X006945642Y004596125D01*
G01*
X007240634Y004593825D01*
G01*
X007292381Y004593421D01*
G01*
X007292381Y004702305D01*
G37*
D23*
G36*
X000770000Y013470000D02*
G01*
X-00770000Y013470000D01*
G01*
X-00770000Y012530000D01*
G01*
X000770000Y012530000D01*
G01*
X000770000Y013470000D01*
G37*
D23*
G36*
X-09400000Y003360000D02*
G01*
X-08510000Y003360000D01*
G01*
X-08510000Y003640000D01*
G01*
X-09400000Y003640000D01*
G01*
X-09400000Y004000000D01*
G01*
X-10600000Y004000000D01*
G01*
X-10600000Y003140000D01*
G01*
X-11490000Y003140000D01*
G01*
X-11490000Y002860000D01*
G01*
X-10600000Y002860000D01*
G01*
X-10600000Y002000000D01*
G01*
X-09400000Y002000000D01*
G01*
X-09400000Y003360000D01*
G37*
%ADD64C,0.999998*%
D64*
X-04319905Y022960177D03*
X-04319905Y022960177D02*
X-04319905Y022160178D01*
X-04319905Y022160178D03*
D64*
X004319905Y022960177D03*
X004319905Y022960177D02*
X004319905Y022160178D01*
X004319905Y022160178D03*
D64*
X004319905Y027160168D03*
X004319905Y027160168D02*
X004319905Y025960171D01*
X004319905Y025960171D03*
D64*
X-04319905Y027160168D03*
X-04319905Y027160168D02*
X-04319905Y025960171D01*
X-04319905Y025960171D03*
D21*
X003200019Y021960229D03*
D21*
X002399919Y021960229D03*
D22*
X001749933Y021960229D03*
D22*
X001249807Y021960229D03*
D22*
X000749935Y021960229D03*
D22*
X000249809Y021960229D03*
D22*
X-00250063Y021960229D03*
D22*
X-00750189Y021960229D03*
D22*
X-01250061Y021960229D03*
D22*
X-01750187Y021960229D03*
D21*
X-02400173Y021960229D03*
D21*
X-03200019Y021960229D03*
D24*
X000753364Y019000000D03*
D24*
X-00753364Y019000000D03*
D24*
X-03246636Y019000000D03*
D24*
X-04753364Y019000000D03*
D26*
X-00799973Y011949964D03*
D26*
X-00399923Y011950218D03*
D26*
X-00000127Y011950218D03*
D26*
X000399923Y011950218D03*
D26*
X000799973Y011950218D03*
D26*
X000799973Y014050036D03*
D26*
X000399923Y014050036D03*
D26*
X-00000127Y014050036D03*
D26*
X-00399923Y014050036D03*
D26*
X-00799973Y014050036D03*
D27*
X-00000127Y013000000D03*
D24*
X006253364Y009000000D03*
D24*
X004746636Y009000000D03*
D29*
X005200024Y011500000D03*
D29*
X003799976Y011500000D03*
D29*
X008700024Y020000000D03*
D29*
X007299976Y020000000D03*
D24*
X008753364Y023000000D03*
D24*
X007246636Y023000000D03*
D31*
X007249938Y026000000D03*
D31*
X008750062Y026000000D03*
D33*
X-21875015Y014799971D03*
D33*
X-21875015Y011200029D03*
D34*
X-17999991Y012500001D03*
D34*
X-17999991Y013499999D03*
D24*
X-05753364Y016000000D03*
D24*
X-04246636Y016000000D03*
D24*
X001753364Y017000000D03*
D24*
X000246636Y017000000D03*
D35*
X-06499998Y013400000D03*
D35*
X-04500002Y013400000D03*
D29*
X-05700024Y011000000D03*
D29*
X-04299976Y011000000D03*
D37*
X007750048Y-18375048D03*
D37*
X007750048Y-16375052D03*
D37*
X007750048Y-14375056D03*
D37*
X007750048Y-12375060D03*
D37*
X007750048Y-10375064D03*
D37*
X007750048Y-08375068D03*
D37*
X007750048Y-06375072D03*
D37*
X007750048Y-04375076D03*
D38*
X004999990Y-02874952D03*
D38*
X002999994Y-02874952D03*
D38*
X000999998Y-02874952D03*
D38*
X-00999998Y-02874952D03*
D38*
X-02999994Y-02874952D03*
D38*
X-04999990Y-02874952D03*
D37*
X-07750048Y-04375076D03*
D37*
X-07750048Y-06375072D03*
D37*
X-07750048Y-08375068D03*
D37*
X-07750048Y-10375064D03*
D37*
X-07750048Y-12375060D03*
D37*
X-07750048Y-14375056D03*
D37*
X-07750048Y-16375052D03*
D37*
X-07750048Y-18375048D03*
D29*
X011700024Y-08000000D03*
D29*
X010299976Y-08000000D03*
D39*
X012000000Y-03500002D03*
D39*
X012000000Y-05499998D03*
D23*
G36*
X022949973Y-06900105D02*
X023599959Y-06900105D01*
X023599959Y-06900105D01*
X023599959Y-05850120D01*
X023599959Y-05850120D01*
X022299936Y-05850120D01*
X022299936Y-05850120D01*
X022299936Y-06500080D01*
X022299936Y-06500080D01*
X022949947Y-06500080D01*
X022949947Y-06500080D01*
X022949947Y-06900079D01*
X022949947Y-06900079D01*
X022949973Y-06900105D01*
X022949973Y-06900105D01*
G37*
D23*
G36*
X022299936Y-11149880D02*
X023599959Y-11149880D01*
X023599959Y-11149880D01*
X023599959Y-10099895D01*
X023599959Y-10099895D01*
X022949973Y-10099895D01*
X022949973Y-10099895D01*
X022949947Y-10099921D01*
X022949947Y-10099921D01*
X022949947Y-10499920D01*
X022949947Y-10499920D01*
X022299936Y-10499920D01*
X022299936Y-10499920D01*
X022299936Y-11149880D01*
X022299936Y-11149880D01*
G37*
D42*
X021000040Y-10199971D03*
D42*
X021000040Y-06799927D03*
D43*
X017815092Y-03000000D03*
D43*
X022184908Y-03000000D03*
D24*
X-15753364Y-05000000D03*
D24*
X-14246636Y-05000000D03*
D31*
X-19750062Y-05000000D03*
D31*
X-18249938Y-05000000D03*
D46*
X010900157Y014799990D03*
D46*
X015499843Y014800244D03*
D47*
X014200125Y017325004D03*
D47*
X013200127Y017325004D03*
D47*
X012200129Y017325004D03*
D43*
X-21184908Y-09000000D03*
D43*
X-16815092Y-09000000D03*
D43*
X012815092Y008000000D03*
D43*
X017184908Y008000000D03*
D49*
X020606052Y008599942D03*
D49*
X022906022Y008599942D03*
D49*
X022906022Y001400058D03*
D49*
X020606052Y001400058D03*
D51*
X019505978Y007249932D03*
D51*
X019505978Y005750062D03*
D51*
X019505978Y002750068D03*
D24*
X003246636Y003000000D03*
D24*
X004753364Y003000000D03*
D53*
X-03000002Y000050040D03*
D53*
X-03000002Y001949960D03*
D53*
X-04999998Y001000000D03*
D24*
X-00753364Y001500000D03*
D24*
X000753364Y001500000D03*
D55*
X-11157478Y003999998D03*
D55*
X-11157478Y003499872D03*
D55*
X-11157478Y003000000D03*
D55*
X-11157478Y002499874D03*
D55*
X-11157478Y002000002D03*
D55*
X-08842522Y003999998D03*
D55*
X-08842522Y003499872D03*
D55*
X-08842522Y003000000D03*
D55*
X-08842522Y002499874D03*
D55*
X-08842522Y002000002D03*
D56*
X-10000000Y003000000D03*
D57*
X-14000000Y004350010D03*
D57*
X-14000000Y001649990D03*
D35*
X-14999998Y-01000000D03*
D35*
X-13000002Y-01000000D03*
D35*
X-09000002Y008500000D03*
D35*
X-10999998Y008500000D03*
D58*
X-07000000Y003700024D03*
D58*
X-07000000Y002299976D03*
D35*
X-09000002Y000000000D03*
D35*
X-10999998Y000000000D03*
D35*
X-09000002Y006000000D03*
D35*
X-10999998Y006000000D03*
D53*
X-17000002Y-00949960D03*
D53*
X-17000002Y000949960D03*
D53*
X-18999998Y000000000D03*
D29*
X-17299976Y003000000D03*
D29*
X-18700024Y003000000D03*
D60*
X-00749986Y005999873D03*
D60*
X000749986Y005999873D03*
D60*
X000749986Y006499999D03*
D60*
X000749986Y005500001D03*
D60*
X-00749986Y006499999D03*
D60*
X-00749986Y005500001D03*
D29*
X002200024Y008500000D03*
D29*
X000799976Y008500000D03*
D24*
X-05253364Y006000000D03*
D24*
X-03746636Y006000000D03*
D24*
X005253364Y005500000D03*
D24*
X003746636Y005500000D03*
D24*
X010253364Y010000000D03*
D24*
X008746636Y010000000D03*
D24*
X007246636Y012000000D03*
D24*
X008753364Y012000000D03*
D53*
X008999998Y005050040D03*
D53*
X008999998Y006949960D03*
D53*
X007000002Y006000000D03*
D10*
X-03200019Y021960229D02*
X-03200019Y020400000D01*
D10*
X-03200019Y020400000D02*
X-03600000Y020100000D01*
D10*
X-02400173Y021960229D02*
X-02400173Y020400000D01*
D10*
X-02400173Y020400000D02*
X-02000000Y019800000D01*
D10*
X-01750187Y021960229D02*
X-01750187Y020400000D01*
D10*
X-01750187Y020400000D02*
X-00800000Y019900000D01*
D10*
X001249807Y021960229D02*
X001249807Y020400000D01*
D10*
X001249807Y020400000D02*
X000800000Y019900000D01*
D10*
X002399919Y021960229D02*
X002399919Y020400000D01*
D10*
X002399919Y020400000D02*
X002000000Y019800000D01*
D10*
X003200019Y021960229D02*
X003200019Y020400000D01*
D10*
X003200019Y020400000D02*
X003600000Y019800000D01*
D10*
X-00753364Y019000000D02*
X-00753364Y019900000D01*
D10*
X-00753364Y019900000D02*
X-00800000Y019900000D01*
D10*
X000753364Y019000000D02*
X001753364Y019000000D01*
D10*
X001753364Y019000000D02*
X001753364Y018200000D01*
D10*
X-03246636Y019000000D02*
X-03246636Y019900000D01*
D10*
X-03246636Y019900000D02*
X-03600000Y020100000D01*
D10*
X-00799973Y011949964D02*
X-00799973Y011200000D01*
D10*
X-00799973Y011200000D02*
X-01999933Y010200000D01*
D10*
X-00399923Y011950218D02*
X-00399923Y011200000D01*
D10*
X-00399923Y011200000D02*
X-00999808Y010200000D01*
D10*
X-00000127Y011950218D02*
X-00000127Y011200000D01*
D10*
X-00000127Y011200000D02*
X-00000317Y010200000D01*
D10*
X000399923Y011950218D02*
X000399923Y011200000D01*
D10*
X000399923Y011200000D02*
X000999808Y010200000D01*
D10*
X000799973Y011950218D02*
X000799973Y011200000D01*
D10*
X000799973Y011200000D02*
X001999933Y010200000D01*
D10*
X000799973Y014050036D02*
X000799973Y014800000D01*
D10*
X000799973Y014800000D02*
X001999933Y015800000D01*
D10*
X000399923Y014050036D02*
X000399923Y014800000D01*
D10*
X000399923Y014800000D02*
X000999808Y015800000D01*
D10*
X-00000127Y014050036D02*
X-00000127Y014800000D01*
D10*
X-00000127Y014800000D02*
X-00000317Y015800000D01*
D10*
X-00799973Y014050036D02*
X-00799973Y014800000D01*
D10*
X-00799973Y014800000D02*
X-01999933Y015800000D01*
D10*
X-00000127Y013000000D02*
X-02500000Y013000000D01*
D10*
X006253364Y009000000D02*
X006253364Y007500000D01*
D10*
X004746636Y009000000D02*
X004746636Y007500000D01*
D10*
X008134907Y014783000D02*
X008324232Y014829768D01*
D10*
X008324232Y014829768D02*
X008306705Y014829768D01*
D10*
X008306705Y014829768D02*
X008243327Y014893146D01*
D10*
X008243327Y014893146D02*
X003932819Y014794151D01*
D10*
X003799976Y011500000D02*
X003800000Y009800000D01*
D10*
X005200024Y011500000D02*
X005200000Y013200000D01*
D10*
X-05753364Y016000000D02*
X-07400000Y016000000D01*
D10*
X000246636Y017000000D02*
X000246636Y017800000D01*
D10*
X001753364Y017000000D02*
X001753364Y018200000D01*
D10*
X010299976Y-08000000D02*
X009200000Y-08000000D01*
D10*
X011700024Y-08000000D02*
X013000000Y-08000000D01*
D10*
X012000000Y-05499998D02*
X010500000Y-05499998D01*
D10*
X012000000Y-03500002D02*
X014000000Y-03500002D01*
D10*
X014200125Y017325004D02*
X014200125Y019000000D01*
D10*
X013200127Y017325004D02*
X013200127Y019000000D01*
D10*
X012200129Y017325004D02*
X012200129Y019000000D01*
D10*
X-03000002Y001949960D02*
X-01500000Y001949960D01*
D10*
X-01500000Y001949960D02*
X-01500000Y003300000D01*
D10*
X-00753364Y001500000D02*
X-00753364Y003300000D01*
D10*
X-00753364Y003300000D02*
X-01500000Y003300000D01*
D11*
X000753364Y001500000D02*
X003000000Y001500000D01*
D10*
X-07000000Y003700024D02*
X-07000000Y005000000D01*
D10*
X-07000000Y005000000D02*
X-07500000Y005000000D01*
D10*
X-07500000Y005000000D02*
X-07500000Y006000000D01*
D12*
X-11157478Y002000002D02*
X-11157478Y001500000D01*
D12*
X-11157478Y001500000D02*
X-10999998Y000000000D01*
D12*
X-11157478Y003999998D02*
X-11157478Y004500000D01*
D12*
X-11157478Y004500000D02*
X-10999998Y006000000D01*
D13*
X-10999998Y006000000D02*
X-10999998Y008500000D01*
D12*
X-11157478Y003499872D02*
X-12000000Y003499872D01*
D12*
X-12000000Y003499872D02*
X-12800000Y004350010D01*
D14*
X-12800000Y004350010D02*
X-14000000Y004350010D01*
D12*
X-11157478Y002499874D02*
X-12000000Y002499874D01*
D12*
X-12000000Y002499874D02*
X-12800000Y001649990D01*
D14*
X-12800000Y001649990D02*
X-14000000Y001649990D01*
D12*
X-08842522Y003000000D02*
X-08000000Y003000000D01*
D12*
X-08000000Y003000000D02*
X-07000000Y002299976D01*
D11*
X-07000000Y002299976D02*
X-07000000Y-01500000D01*
D11*
X-07000000Y-01500000D02*
X-10999998Y-01500000D01*
D11*
X-10999998Y-01500000D02*
X-10999998Y000000000D01*
D15*
X-13000002Y-01000000D02*
X-12000000Y-01000000D01*
D15*
X-12000000Y-01000000D02*
X-10999998Y000000000D01*
D10*
X-08842522Y003999998D02*
X-08842522Y004700000D01*
D10*
X-08842522Y004700000D02*
X-09000000Y005000000D01*
D10*
X-09000000Y005000000D02*
X-10999998Y005000000D01*
D10*
X-10999998Y005000000D02*
X-10999998Y006000000D01*
D12*
X-11157478Y003000000D02*
X-13000000Y003000000D01*
D12*
X-08842522Y003499872D02*
X-08000000Y003499872D01*
D12*
X-08000000Y003499872D02*
X-08000000Y004800000D01*
D10*
X-08842522Y002499874D02*
X-10000000Y002499874D01*
D10*
X-10000000Y002499874D02*
X-10000000Y003000000D01*
D10*
X-10000000Y003000000D02*
X-11157478Y003000000D01*
D10*
X-11157478Y003000000D02*
X-13000000Y003000000D01*
D10*
X-09000002Y000000000D02*
X-07800000Y000000000D01*
D10*
X-09000002Y006000000D02*
X-07500000Y006000000D01*
D10*
X-09000002Y008500000D02*
X-07500000Y008500000D01*
D10*
X-14999998Y-01000000D02*
X-14999998Y-03000000D01*
D10*
X-10000000Y003000000D02*
X-11157478Y003000000D01*
D10*
X-08842522Y002000002D02*
X-07900000Y001000000D01*
D11*
X-18999998Y000000000D02*
X-20100000Y000000000D01*
D10*
X000749986Y005500001D02*
X001300000Y005500001D01*
D10*
X001300000Y005500001D02*
X002000000Y004800000D01*
D10*
X000749986Y005999873D02*
X001300000Y005999873D01*
D10*
X001300000Y005999873D02*
X002300000Y006000000D01*
D10*
X000749986Y006499999D02*
X001300000Y006499999D01*
D10*
X001300000Y006499999D02*
X002000000Y007200000D01*
D10*
X002000000Y007200000D02*
X003200000Y008400000D01*
D10*
X003200000Y008400000D02*
X003200000Y008500000D01*
D10*
X-00749986Y006499999D02*
X-01300000Y006499999D01*
D10*
X-01300000Y006499999D02*
X-02000000Y007200000D01*
D10*
X-00749986Y005999873D02*
X-01300000Y005999873D01*
D10*
X-01300000Y005999873D02*
X-02300000Y006000000D01*
D10*
X-00749986Y005500001D02*
X-01300000Y005500001D01*
D10*
X-01300000Y005500001D02*
X-02000000Y004800000D01*
D10*
X000799976Y008500000D02*
X000800000Y009400000D01*
D10*
X002200024Y008500000D02*
X003200000Y008500000D01*
D10*
X-05253364Y006000000D02*
X-05253364Y004400000D01*
D10*
X008999998Y006949960D02*
X011000000Y006949960D01*
D11*
X-04500002Y014600000D02*
X-04500002Y013400000D01*
D10*
X007249938Y024000000D02*
X007249938Y026000000D01*
D10*
X019505978Y002750068D02*
X017800000Y002750068D01*
D10*
X-16000000Y-03400000D02*
X-16000000Y000949960D01*
D10*
X-16000000Y000949960D02*
X-17000002Y000949960D01*
D10*
X-07750048Y-16375052D02*
X003066806Y-05558197D01*
D10*
X003066806Y-05558197D02*
X004769371Y-05558197D01*
D10*
X004769371Y-05558197D02*
X004941803Y-05558197D01*
D10*
X004941803Y-05558197D02*
X004958000Y-05542000D01*
D10*
X-04246636Y017400000D02*
X-04246636Y016000000D01*
D10*
X-07750048Y-10375064D02*
X-19809936Y-10375064D01*
D10*
X-19809936Y-10375064D02*
X-21184908Y-09000000D01*
D10*
X-03200000Y007200000D02*
X-03200000Y006546636D01*
D10*
X-03200000Y006546636D02*
X-03746636Y006000000D01*
D10*
X010253364Y010000000D02*
X011619063Y008634301D01*
D10*
X011619063Y008634301D02*
X011619063Y006572069D01*
D10*
X011619063Y006572069D02*
X010097033Y005050040D01*
D10*
X010097033Y005050040D02*
X008999998Y005050040D01*
D10*
X-02000000Y004850878D02*
X-00777144Y003671964D01*
D10*
X-00777144Y003671964D02*
X000304588Y003677003D01*
D10*
X000304588Y003677003D02*
X000657145Y003921357D01*
D10*
X007989334Y003741750D02*
X007990497Y004040497D01*
D10*
X007990497Y004040497D02*
X008999998Y005050040D01*
D10*
X002300000Y006000000D02*
X003247000Y006000000D01*
D10*
X003247000Y006000000D02*
X003746636Y005500000D01*
D10*
X-04999998Y001000000D02*
X-05561967Y001000000D01*
D10*
X-05561967Y001000000D02*
X-06175000Y000386967D01*
D10*
X-06175000Y000386967D02*
X-06175000Y000275000D01*
D10*
X003246636Y003000000D02*
X002458518Y002211518D01*
D10*
X002458518Y002211518D02*
X000273210Y002211518D01*
D10*
X000273210Y002211518D02*
X-00099479Y001838829D01*
D10*
X-00099479Y001838829D02*
X-00099479Y000812997D01*
D10*
X-00099479Y000812997D02*
X-04866338Y000812997D01*
D10*
X-04866338Y000812997D02*
X-04999998Y001000000D01*
D10*
X019505978Y005750062D02*
X016767392Y002988546D01*
D10*
X016767392Y002988546D02*
X004753364Y003000000D01*
D10*
X-15753364Y-05000000D02*
X-15753000Y-05000000D01*
D10*
X-15753000Y-05000000D02*
X-18249938Y-05000000D01*
D10*
X-07750048Y-18375048D02*
X-02844150Y-13469150D01*
D10*
X-02844150Y-13469150D02*
X-02844150Y-12907223D01*
D10*
X-02844150Y-12907223D02*
X-02844150Y-12806150D01*
D10*
X-02844150Y-12806150D02*
X-02803000Y-12765000D01*
D10*
X-00999998Y-02874952D02*
X-02011555Y-03886509D01*
D10*
X-02011555Y-03886509D02*
X-06063901Y-03886509D01*
D10*
X-06063901Y-03886509D02*
X-06670319Y-03280090D01*
D10*
X-06670319Y-03280090D02*
X-12527090Y-03280090D01*
D10*
X-12527090Y-03280090D02*
X-14246636Y-05000000D01*
D10*
X007750048Y-06375072D02*
X009715184Y-04451594D01*
D10*
X009715184Y-04451594D02*
X016399357Y-04436710D01*
D10*
X016399357Y-04436710D02*
X016405029Y-04409971D01*
D10*
X016405029Y-04409971D02*
X017815092Y-03000000D01*
D10*
X007750048Y-08375068D02*
X008006760Y-08704999D01*
D10*
X008006760Y-08704999D02*
X019143416Y-08704999D01*
D10*
X019143416Y-08704999D02*
X019168220Y-08704999D01*
D10*
X019168220Y-08704999D02*
X021000040Y-06799927D01*
D10*
X007750048Y-14375056D02*
X007750048Y-14348952D01*
D10*
X007750048Y-14348952D02*
X008765575Y-13333425D01*
D10*
X008765575Y-13333425D02*
X008957115Y-13358084D01*
D10*
X016657139Y003637148D02*
X016393081Y004421919D01*
D10*
X016393081Y004421919D02*
X012815092Y008000000D01*
D10*
X008753364Y023000000D02*
X008750062Y023002938D01*
D10*
X008750062Y023002938D02*
X008750062Y026000000D01*
D10*
X-05325728Y014809640D02*
X-05444771Y014658229D01*
D10*
X-05444771Y014658229D02*
X-05445003Y014525511D01*
D10*
X-05445003Y014525511D02*
X-05445003Y012144795D01*
D10*
X-05445003Y012144795D02*
X-04299976Y011000000D01*
D10*
X007246636Y012000000D02*
X005423258Y010176258D01*
D10*
X005423258Y010176258D02*
X005423258Y007380605D01*
D10*
X005423258Y007380605D02*
X006803864Y006000000D01*
D10*
X006803864Y006000000D02*
X007000002Y006000000D01*
D10*
X000999808Y010200000D02*
X001619661Y009580146D01*
D10*
X001619661Y009580146D02*
X003098661Y009580146D01*
D10*
X003098661Y009580146D02*
X002835000Y009553627D01*
D10*
X004875000Y010160000D02*
X005671330Y010424330D01*
D10*
X005671330Y010424330D02*
X007246636Y012000000D01*
D10*
X-01183000Y025014000D02*
X-03559563Y025015703D01*
D10*
X-03559563Y025015703D02*
X-05085342Y023537152D01*
D10*
X-05085342Y023537152D02*
X-05060070Y019306706D01*
D10*
X-05060070Y019306706D02*
X-04753364Y019000000D01*
D10*
X-10999998Y006000000D02*
X-10999998Y006093750D01*
D10*
X-10999998Y006093750D02*
X-10999998Y006187500D01*
D10*
X-10999998Y006187500D02*
X-10999998Y006281250D01*
D10*
X-10999998Y006281250D02*
X-10999998Y006375000D01*
D10*
X-10999998Y006375000D02*
X-10999998Y006468750D01*
D10*
X-10999998Y006468750D02*
X-10999998Y006562500D01*
D10*
X-10999998Y006562500D02*
X-10999998Y006575000D01*
D10*
X-10999998Y006575000D02*
X-10999998Y006656250D01*
D16*
X-10999998Y006656250D02*
X-10999998Y006750000D01*
D17*
X-10999998Y006750000D02*
X-10999998Y008499998D01*
D17*
X-10999998Y008499998D02*
X-11000000Y008500000D01*
D17*
X007750048Y-04375076D02*
X006565000Y-05560124D01*
D17*
X006565000Y-05560124D02*
X006335050Y-06669000D01*
D12*
X007750048Y-04375076D02*
X000024924Y-04375076D01*
D12*
X000024924Y-04375076D02*
X-00800000Y-05200000D01*
D12*
X-12505000Y005850000D02*
X-12437731Y005850000D01*
D12*
X-12437731Y005850000D02*
X-12287731Y006000000D01*
D12*
X-12287731Y006000000D02*
X-10999998Y006000000D01*
D11*
X-20100000Y000000000D02*
X-18700024Y001399976D01*
D11*
X-18700024Y001399976D02*
X-18700024Y003000000D01*
D11*
X-10999998Y000000000D02*
X-10793505Y-00206493D01*
D11*
X-10793505Y-00206493D02*
X-10587012Y-00412986D01*
D11*
X-10587012Y-00412986D02*
X-10380519Y-00619479D01*
D11*
X-10380519Y-00619479D02*
X-10174026Y-00825972D01*
D11*
X-10174026Y-00825972D02*
X-09967533Y-01032465D01*
D11*
X-09967533Y-01032465D02*
X-09761040Y-01238958D01*
D11*
X-09761040Y-01238958D02*
X-09554547Y-01445451D01*
D11*
X-09554547Y-01445451D02*
X-09259647Y-01450405D01*
D11*
X-09259647Y-01450405D02*
X-08964746Y-01455359D01*
D11*
X-08964746Y-01455359D02*
X-08669846Y-01460313D01*
D11*
X-08669846Y-01460313D02*
X-08374946Y-01465267D01*
D11*
X-08374946Y-01465267D02*
X-08170984Y-01270908D01*
D11*
X-08170984Y-01270908D02*
X-07967022Y-01076549D01*
D11*
X-07967022Y-01076549D02*
X-07763060Y-00882190D01*
D11*
X-07763060Y-00882190D02*
X-07559098Y-00687831D01*
D11*
X-07559098Y-00687831D02*
X-07350000Y-00600000D01*
D11*
X-07350000Y-00600000D02*
X-06947211Y-00104754D01*
D11*
X-06947211Y-00104754D02*
X-06953077Y000162438D01*
D11*
X-06953077Y000162438D02*
X-06958942Y000429630D01*
D11*
X-06958942Y000429630D02*
X-06964808Y000696823D01*
D11*
X-06964808Y000696823D02*
X-06970673Y000964015D01*
D11*
X-06970673Y000964015D02*
X-06976538Y001231207D01*
D11*
X-06976538Y001231207D02*
X-06982404Y001498399D01*
D11*
X-06982404Y001498399D02*
X-06988269Y001765592D01*
D11*
X-06988269Y001765592D02*
X-06994135Y002032784D01*
D11*
X-06994135Y002032784D02*
X-07000000Y002299976D01*
D11*
X-10999998Y000000000D02*
X-11770931Y000000000D01*
D11*
X-11770931Y000000000D02*
X-12286396Y000515465D01*
D11*
X-12286396Y000515465D02*
X-12336465Y000515465D01*
D11*
X-12336465Y000515465D02*
X-12320639Y000416693D01*
D11*
X-19500000Y002775000D02*
X-18925000Y002775000D01*
D11*
X-18925000Y002775000D02*
X-18700024Y003000000D01*
D11*
X-17999991Y012500001D02*
X-18003502Y012206668D01*
D11*
X-18003502Y012206668D02*
X-18007013Y011913335D01*
D11*
X-18007013Y011913335D02*
X-18010523Y011620002D01*
D11*
X-18010523Y011620002D02*
X-18014034Y011326669D01*
D11*
X-18014034Y011326669D02*
X-18017544Y011033336D01*
D11*
X-18017544Y011033336D02*
X-18021055Y010740003D01*
D11*
X-18021055Y010740003D02*
X-18024566Y010446669D01*
D11*
X-18024566Y010446669D02*
X-18028076Y010153336D01*
D11*
X-18028076Y010153336D02*
X-18031587Y009860003D01*
D11*
X-18031587Y009860003D02*
X-18035097Y009566670D01*
D11*
X-18035097Y009566670D02*
X-18038608Y009273337D01*
D11*
X-18038608Y009273337D02*
X-18042119Y008980004D01*
D11*
X-18042119Y008980004D02*
X-18045629Y008686671D01*
D11*
X-18045629Y008686671D02*
X-18049140Y008393338D01*
D11*
X-18049140Y008393338D02*
X-18000000Y007500000D01*
D11*
X-18000000Y007500000D02*
X-18059672Y007513339D01*
D11*
X-18059672Y007513339D02*
X-18063182Y007220006D01*
D11*
X-18063182Y007220006D02*
X-18066693Y006926673D01*
D11*
X-18066693Y006926673D02*
X-18070203Y006633339D01*
D11*
X-18070203Y006633339D02*
X-18073714Y006340006D01*
D11*
X-18073714Y006340006D02*
X-18077225Y006046673D01*
D11*
X-18077225Y006046673D02*
X-18080735Y005753340D01*
D11*
X-18080735Y005753340D02*
X-18084246Y005460007D01*
D11*
X-18084246Y005460007D02*
X-18087757Y005166674D01*
D11*
X-18087757Y005166674D02*
X-18091267Y004873341D01*
D11*
X-18091267Y004873341D02*
X-18094778Y004580008D01*
D11*
X-18094778Y004580008D02*
X-18098288Y004286675D01*
D11*
X-18098288Y004286675D02*
X-18101799Y003993342D01*
D11*
X-18101799Y003993342D02*
X-18105310Y003700009D01*
D11*
X-18105310Y003700009D02*
X-18253988Y003525007D01*
D11*
X-18253988Y003525007D02*
X-18402667Y003350004D01*
D11*
X-18402667Y003350004D02*
X-18551345Y003175002D01*
D11*
X-18551345Y003175002D02*
X-18700024Y003000000D01*
D11*
X-01593000Y008722000D02*
X-01609553Y008705447D01*
D11*
X-01609553Y008705447D02*
X-01905932Y008705447D01*
D11*
X-01905932Y008705447D02*
X-02202312Y008705447D01*
D11*
X-02202312Y008705447D02*
X-02400000Y008550000D01*
D11*
X-02400000Y008550000D02*
X-03091452Y008705447D01*
D11*
X-03091452Y008705447D02*
X-03387832Y008705447D01*
D11*
X-03387832Y008705447D02*
X-03684211Y008705447D01*
D11*
X-03684211Y008705447D02*
X-03980591Y008705447D01*
D11*
X-03980591Y008705447D02*
X-04181159Y008504879D01*
D11*
X-04181159Y008504879D02*
X-04381727Y008304311D01*
D11*
X-04381727Y008304311D02*
X-04582295Y008103743D01*
D11*
X-04582295Y008103743D02*
X-04782863Y007903175D01*
D11*
X-04782863Y007903175D02*
X-04983431Y007702607D01*
D11*
X-04983431Y007702607D02*
X-05183999Y007502039D01*
D11*
X-05183999Y007502039D02*
X-05384567Y007301471D01*
D11*
X-05384567Y007301471D02*
X-05585135Y007100903D01*
D11*
X-05585135Y007100903D02*
X-05785703Y006900335D01*
D11*
X-05785703Y006900335D02*
X-05986271Y006699767D01*
D11*
X-05986271Y006699767D02*
X-05986271Y006417595D01*
D11*
X-05986271Y006417595D02*
X-05986271Y006135424D01*
D11*
X-05986271Y006135424D02*
X-05986271Y005853252D01*
D11*
X-05986271Y005853252D02*
X-05986271Y005571080D01*
D11*
X-05986271Y005571080D02*
X-05986271Y005288908D01*
D11*
X-05986271Y005288908D02*
X-05986271Y005006736D01*
D11*
X-05986271Y005006736D02*
X-05986271Y004724564D01*
D11*
X-05986271Y004724564D02*
X-05986271Y004442392D01*
D11*
X-05986271Y004442392D02*
X-05986271Y004160220D01*
D11*
X-05986271Y004160220D02*
X-05986271Y003878048D01*
D11*
X-05986271Y003878048D02*
X-05986271Y003595877D01*
D11*
X-05986271Y003595877D02*
X-05986271Y003313705D01*
D11*
X-05986271Y003313705D02*
X-06189017Y003110959D01*
D11*
X-06189017Y003110959D02*
X-06391763Y002908213D01*
D11*
X-06391763Y002908213D02*
X-06594509Y002705467D01*
D11*
X-06594509Y002705467D02*
X-06797254Y002502722D01*
D11*
X-06797254Y002502722D02*
X-07000000Y002299976D01*
D11*
X006260000Y015654000D02*
X006464145Y015753145D01*
D11*
X006464145Y015753145D02*
X006501763Y015753145D01*
D11*
X006501763Y015753145D02*
X006689678Y015941060D01*
D11*
X006689678Y015941060D02*
X006877592Y016128975D01*
D11*
X006877592Y016128975D02*
X007065507Y016316889D01*
D11*
X007065507Y016316889D02*
X007253422Y016504804D01*
D11*
X007253422Y016504804D02*
X007441336Y016692719D01*
D11*
X007441336Y016692719D02*
X007629251Y016880633D01*
D11*
X007629251Y016880633D02*
X007817166Y017068548D01*
D11*
X007817166Y017068548D02*
X008005080Y017256463D01*
D11*
X008005080Y017256463D02*
X008271166Y017256463D01*
D11*
X008271166Y017256463D02*
X008537251Y017256463D01*
D11*
X008537251Y017256463D02*
X008803336Y017256462D01*
D11*
X008803336Y017256462D02*
X009069421Y017256462D01*
D11*
X009069421Y017256462D02*
X009335507Y017256462D01*
D11*
X009335507Y017256462D02*
X009601592Y017256462D01*
D11*
X009601592Y017256462D02*
X009867677Y017256462D01*
D11*
X009867677Y017256462D02*
X010133762Y017256462D01*
D11*
X010133762Y017256462D02*
X010133974Y017542621D01*
D11*
X010133974Y017542621D02*
X010134186Y017828780D01*
D11*
X010134186Y017828780D02*
X010134397Y018114940D01*
D11*
X010134397Y018114940D02*
X010350000Y018450000D01*
D11*
X010350000Y018450000D02*
X010135456Y019545736D01*
D11*
X010135456Y019545736D02*
X010135667Y019831895D01*
D11*
X010135667Y019831895D02*
X010135879Y020118055D01*
D11*
X010135879Y020118055D02*
X009929504Y020323908D01*
D11*
X009929504Y020323908D02*
X009723130Y020529761D01*
D11*
X009723130Y020529761D02*
X009516755Y020735614D01*
D11*
X009516755Y020735614D02*
X009310381Y020941468D01*
D11*
X009310381Y020941468D02*
X009104006Y021147321D01*
D11*
X009104006Y021147321D02*
X008897632Y021353174D01*
D11*
X008897632Y021353174D02*
X008691257Y021559027D01*
D11*
X008691257Y021559027D02*
X008484883Y021764881D01*
D11*
X008484883Y021764881D02*
X008278508Y021970734D01*
D11*
X008278508Y021970734D02*
X008072134Y022176587D01*
D11*
X008072134Y022176587D02*
X007865759Y022382440D01*
D11*
X007865759Y022382440D02*
X007659385Y022588294D01*
D11*
X007659385Y022588294D02*
X007453010Y022794147D01*
D11*
X007453010Y022794147D02*
X007246636Y023000000D01*
D11*
X008746636Y010000000D02*
X008746636Y011993636D01*
D11*
X008746636Y011993636D02*
X008753364Y012000000D01*
D11*
X000000000Y005775000D02*
X000000000Y008600000D01*
D11*
X000000000Y008600000D02*
X000269670Y008869670D01*
D11*
X000269670Y008869670D02*
X000335961Y008935961D01*
D11*
X000335961Y008935961D02*
X000402252Y009002252D01*
D11*
X000402252Y009002252D02*
X000468544Y009068544D01*
D11*
X000468544Y009068544D02*
X000534835Y009134835D01*
D11*
X000534835Y009134835D02*
X000601126Y009201126D01*
D11*
X000601126Y009201126D02*
X000667417Y009267417D01*
D11*
X000667417Y009267417D02*
X000725000Y009325000D01*
D11*
X000725000Y009325000D02*
X000733709Y009333709D01*
D11*
X000733709Y009333709D02*
X000800000Y009400000D01*
D11*
X004576000Y019255000D02*
X004599385Y019278385D01*
D11*
X004599385Y019278385D02*
X004779789Y019458789D01*
D11*
X004779789Y019458789D02*
X004960192Y019639192D01*
D11*
X004960192Y019639192D02*
X005140596Y019819596D01*
D11*
X005140596Y019819596D02*
X005321000Y020000000D01*
D11*
X005321000Y020000000D02*
X005603711Y020000000D01*
D11*
X005603711Y020000000D02*
X005886422Y020000000D01*
D11*
X005886422Y020000000D02*
X006169133Y020000000D01*
D11*
X006169133Y020000000D02*
X006451843Y020000000D01*
D11*
X006451843Y020000000D02*
X006734554Y020000000D01*
D11*
X006734554Y020000000D02*
X007017265Y020000000D01*
D11*
X007017265Y020000000D02*
X007299976Y020000000D01*
D11*
X-03000002Y000050040D02*
X-02950000Y000000000D01*
D11*
X-02950000Y000000000D02*
X-02680000Y000000000D01*
D11*
X-02680000Y000000000D02*
X-02410000Y000000000D01*
D11*
X-02410000Y000000000D02*
X-02140000Y000000000D01*
D11*
X-02140000Y000000000D02*
X-01870000Y000000000D01*
D11*
X-01870000Y000000000D02*
X-01600000Y000000000D01*
D11*
X-03000002Y000050040D02*
X001550000Y000050000D01*
D11*
X001550000Y000050000D02*
X003000000Y001500000D01*
D11*
X-02567755Y009291316D02*
X-02478828Y009495172D01*
D11*
X-02478828Y009495172D02*
X-02410347Y009495172D01*
D11*
X-02410347Y009495172D02*
X-02315175Y009400000D01*
D11*
X-02315175Y009400000D02*
X-02031977Y009400000D01*
D11*
X-02031977Y009400000D02*
X-01748779Y009400000D01*
D11*
X-01748779Y009400000D02*
X-01465582Y009400000D01*
D11*
X-01465582Y009400000D02*
X-01182384Y009400000D01*
D11*
X-01182384Y009400000D02*
X-00899186Y009400000D01*
D11*
X-00899186Y009400000D02*
X-00615989Y009400000D01*
D11*
X-00615989Y009400000D02*
X-00332791Y009400000D01*
D11*
X-00332791Y009400000D02*
X-00049593Y009400000D01*
D11*
X-00049593Y009400000D02*
X000233605Y009400000D01*
D11*
X000233605Y009400000D02*
X000516802Y009400000D01*
D11*
X000516802Y009400000D02*
X000800000Y009400000D01*
D11*
X000800000Y009400000D02*
X000614061Y009223459D01*
D11*
X000614061Y009223459D02*
X000428122Y009046918D01*
D11*
X000428122Y009046918D02*
X000242182Y008870377D01*
D11*
X000242182Y008870377D02*
X000238149Y008592391D01*
D11*
X000238149Y008592391D02*
X000234115Y008314404D01*
D11*
X000234115Y008314404D02*
X000230081Y008036418D01*
D11*
X000230081Y008036418D02*
X000226047Y007758431D01*
D11*
X000226047Y007758431D02*
X000222013Y007480445D01*
D11*
X000222013Y007480445D02*
X000217979Y007202458D01*
D11*
X000217979Y007202458D02*
X000213945Y006924471D01*
D11*
X000213945Y006924471D02*
X000112500Y006750000D01*
D11*
X000112500Y006750000D02*
X000112500Y006502500D01*
D11*
X000112500Y006502500D02*
X000112500Y006255000D01*
D11*
X000112500Y006255000D02*
X000112500Y006007500D01*
D11*
X000112500Y006007500D02*
X000112500Y005760000D01*
D11*
X000112500Y005760000D02*
X000150000Y005100000D01*
D11*
X000150000Y005100000D02*
X000763518Y004723200D01*
D11*
X000763518Y004723200D02*
X000954776Y004545416D01*
D11*
X000954776Y004545416D02*
X001146034Y004367632D01*
D11*
X001146034Y004367632D02*
X001337293Y004189848D01*
D11*
X001337293Y004189848D02*
X001632284Y004187547D01*
D11*
X001632284Y004187547D02*
X001927276Y004185247D01*
D11*
X001927276Y004185247D02*
X002222268Y004182946D01*
D11*
X002222268Y004182946D02*
X002517259Y004180646D01*
D11*
X002517259Y004180646D02*
X002812251Y004178345D01*
D11*
X002812251Y004178345D02*
X003107242Y004176045D01*
D11*
X003107242Y004176045D02*
X003402234Y004173745D01*
D11*
X003402234Y004173745D02*
X003697226Y004171444D01*
D11*
X003697226Y004171444D02*
X003992217Y004169144D01*
D11*
X003992217Y004169144D02*
X004287209Y004166843D01*
D11*
X004287209Y004166843D02*
X004582200Y004164543D01*
D11*
X004582200Y004164543D02*
X004877192Y004162242D01*
D11*
X004877192Y004162242D02*
X005172184Y004159942D01*
D11*
X005172184Y004159942D02*
X005467175Y004157641D01*
D11*
X005467175Y004157641D02*
X005762167Y004155341D01*
D11*
X005762167Y004155341D02*
X006057158Y004153040D01*
D11*
X006057158Y004153040D02*
X006352150Y004150740D01*
D11*
X006352150Y004150740D02*
X006647142Y004148439D01*
D11*
X006647142Y004148439D02*
X006942133Y004146139D01*
D11*
X006942133Y004146139D02*
X007237125Y004143838D01*
D11*
X007237125Y004143838D02*
X007532116Y004141538D01*
D11*
X007532116Y004141538D02*
X007637249Y004278807D01*
D11*
X007637249Y004278807D02*
X007742381Y004416076D01*
D11*
X007742381Y004416076D02*
X007742381Y004702305D01*
D11*
X007742381Y004702305D02*
X007742381Y004988534D01*
D11*
X007742381Y004988534D02*
X007950000Y005400000D01*
D11*
X007950000Y005400000D02*
X007742381Y006992140D01*
D11*
X007742381Y006992140D02*
X007742381Y007278369D01*
D11*
X007742381Y007278369D02*
X007742381Y007564598D01*
D11*
X007742381Y007564598D02*
X007742381Y007850828D01*
D11*
X007742381Y007850828D02*
X007742381Y008137057D01*
D11*
X007742381Y008137057D02*
X007742381Y008423287D01*
D11*
X007742381Y008423287D02*
X007742381Y008709516D01*
D11*
X007742381Y008709516D02*
X007742381Y008995745D01*
D11*
X007742381Y008995745D02*
X007943232Y009196596D01*
D11*
X007943232Y009196596D02*
X008144083Y009397447D01*
D11*
X008144083Y009397447D02*
X008344934Y009598298D01*
D11*
X008344934Y009598298D02*
X008545785Y009799149D01*
D11*
X008545785Y009799149D02*
X008746636Y010000000D01*
D10*
X-11157000Y003000000D02*
X-13000000Y003000000D01*
D10*
X021000040Y-10199971D02*
X022525031Y-10199971D01*
D10*
X022525031Y-10199971D02*
X022949947Y-10624888D01*
D10*
X006835078Y004830341D02*
X006742987Y004774013D01*
D10*
X006742987Y004774013D02*
X006702559Y004774013D01*
D10*
X006702559Y004774013D02*
X005976572Y005500000D01*
D10*
X005976572Y005500000D02*
X005253364Y005500000D01*
D10*
X017184908Y008000000D02*
X017935068Y007249932D01*
D10*
X017935068Y007249932D02*
X019505978Y007249932D01*
D10*
X003600000Y019800000D02*
X003353364Y019800000D01*
D10*
X003353364Y019800000D02*
X001753364Y018200000D01*
D10*
X-07400000Y016000000D02*
X-07400000Y014300000D01*
D10*
X-07400000Y014300000D02*
X-06499998Y013400000D01*
D10*
X-16740000Y-01675000D02*
X-16700000Y-01250000D01*
D10*
X-16700000Y-01250000D02*
X-17000002Y-00949960D01*
D10*
X003783404Y007151542D02*
X004005177Y007227823D01*
D10*
X004005177Y007227823D02*
X004005177Y007360976D01*
D10*
X004005177Y007360976D02*
X003200000Y008166153D01*
D10*
X003200000Y008166153D02*
X003200000Y008500000D01*
D10*
X006178398Y022903623D02*
X006503867Y022841825D01*
D10*
X006503867Y022841825D02*
X006507725Y022841825D01*
D10*
X006507725Y022841825D02*
X006507725Y022192299D01*
D10*
X006507725Y022192299D02*
X008700024Y020000000D01*
D10*
X022949947Y-06375112D02*
X022184908Y-05610073D01*
D10*
X022184908Y-05610073D02*
X022184908Y-03000000D01*
D10*
X-21875015Y011200029D02*
X-21875015Y014799971D01*
D10*
X-08000000Y004800000D02*
X-07998399Y004117501D01*
D10*
X-07998399Y004117501D02*
X-08356597Y003667362D01*
D10*
X-08356597Y003667362D02*
X-08738552Y003388128D01*
D10*
X-08738552Y003388128D02*
X-10485636Y003355776D01*
D10*
X-10485636Y003355776D02*
X-10871970Y002978557D01*
D10*
X-10871970Y002978557D02*
X-11157000Y003000000D01*
D10*
X019505978Y007249932D02*
X020855942Y008599942D01*
D10*
X020855942Y008599942D02*
X022906022Y008599942D01*
D10*
X-17000002Y-00949960D02*
X-17618000Y-00332000D01*
D10*
X-17618000Y-00332000D02*
X-17625587Y000346609D01*
D10*
X-17625587Y000346609D02*
X-17744924Y000575624D01*
D10*
X-17744924Y000575624D02*
X-17740001Y000849782D01*
D10*
X-17740001Y000849782D02*
X-17748380Y001101228D01*
D10*
X-17748380Y001101228D02*
X-17734150Y001405753D01*
D10*
X-17734150Y001405753D02*
X-17608065Y001627712D01*
D10*
X-17608065Y001627712D02*
X-17299976Y001935800D01*
D10*
X-17299976Y001935800D02*
X-17299976Y003000000D01*
D10*
X-17999991Y013499999D02*
X-20574999Y013499999D01*
D10*
X-20574999Y013499999D02*
X-21875015Y014799971D01*
D10*
X022949947Y-10624888D02*
X023199947Y-06625112D01*
D10*
X023199947Y-06625112D02*
X022949947Y-06375112D01*
D10*
X-13000000Y003000000D02*
X-17300000Y003000000D01*
D10*
X-17300000Y003000000D02*
X-17299976Y003000000D01*
D10*
X-07750048Y-04375076D02*
X-08302000Y-03823000D01*
D10*
X-08302000Y-03823000D02*
X-09411000Y-03823000D01*
D10*
X002000000Y010200000D02*
X002831512Y011031512D01*
D10*
X002831512Y011031512D02*
X002804264Y011703044D01*
D10*
X002804264Y011703044D02*
X004345461Y013210494D01*
D10*
X004345461Y013210494D02*
X005200000Y013200000D01*
D10*
X-11157000Y003000000D02*
X-10827269Y002972652D01*
D10*
X-10827269Y002972652D02*
X-07800000Y000000000D01*
D10*
X015499843Y014800244D02*
X015499990Y014799990D01*
D10*
X015499990Y014799990D02*
X010900157Y014799990D01*
D10*
X008700024Y020000000D02*
X009600000Y019100024D01*
D10*
X009600000Y019100024D02*
X009600000Y018930000D01*
D10*
X013200127Y019000000D02*
X013175518Y016926830D01*
D10*
X013175518Y016926830D02*
X014915142Y015213408D01*
D10*
X014915142Y015213408D02*
X015075000Y015225000D01*
D10*
X015075000Y015225000D02*
X015499843Y014800244D01*
D10*
X-19750062Y-05000000D02*
X-17000002Y-02250002D01*
D10*
X-17000002Y-02250002D02*
X-17000002Y-00949960D01*
D10*
X-19750062Y-05000000D02*
X-16815092Y-07934970D01*
D10*
X-16815092Y-07934970D02*
X-16815092Y-09000000D01*
D10*
X-06499998Y013400000D02*
X-06499998Y009500002D01*
D10*
X-06499998Y009500002D02*
X-07500000Y008500000D01*
D10*
X-07400000Y016000000D02*
X-07400000Y012700000D01*
D10*
X-07400000Y012700000D02*
X-05700024Y011000000D01*
D10*
X002000000Y010200000D02*
X001201000Y010999000D01*
D10*
X001201000Y010999000D02*
X001201000Y011868102D01*
D10*
X001201000Y011868102D02*
X000069102Y013000000D01*
D10*
X000069102Y013000000D02*
X-02500000Y013000000D01*
D10*
X-03600000Y020100000D02*
X-01822165Y018322165D01*
D10*
X-01822165Y018322165D02*
X-01445686Y018318000D01*
D10*
X-01445686Y018318000D02*
X001630974Y018360054D01*
D10*
X001630974Y018360054D02*
X001753364Y018200000D01*
D10*
X-02500000Y013000000D02*
X-03120135Y012379865D01*
D10*
X-03120135Y012379865D02*
X-03116757Y011004580D01*
D10*
X-03116757Y011004580D02*
X-03926874Y010180227D01*
D10*
X-03926874Y010180227D02*
X-04645891Y010150512D01*
D10*
X-04645891Y010150512D02*
X-07403585Y012981705D01*
D10*
X-07403585Y012981705D02*
X-07400000Y016000000D01*
D10*
X015499843Y014800244D02*
X017184908Y013115092D01*
D10*
X017184908Y013115092D02*
X017184908Y008000000D01*
D10*
X015950000Y-09349000D02*
X020149000Y-09349000D01*
D10*
X020149000Y-09349000D02*
X021000040Y-10199971D01*
D10*
X-21875015Y011200029D02*
X-18636000Y007961000D01*
D10*
X-18636000Y007961000D02*
X-18636000Y007742000D01*
D10*
X-17364000Y005880000D02*
X-17358320Y005734320D01*
D10*
X-17358320Y005734320D02*
X-17337777Y005734320D01*
D10*
X-17337777Y005734320D02*
X-17299976Y005696519D01*
D10*
X-17299976Y005696519D02*
X-17299976Y003000000D01*
D10*
X022184908Y-03000000D02*
X020494341Y-01309341D01*
D10*
X020494341Y-01309341D02*
X020502367Y-01200608D01*
D10*
X020502367Y-01200608D02*
X020513834Y006261559D01*
D10*
X020513834Y006261559D02*
X019505978Y007249932D01*
D13*
X-03600000Y020100000D03*
D13*
X-02000000Y019800000D03*
D13*
X-00800000Y019900000D03*
D13*
X000800000Y019900000D03*
D13*
X002000000Y019800000D03*
D13*
X003600000Y019800000D03*
D13*
X-01999933Y010200000D03*
D13*
X-00999808Y010200000D03*
D13*
X-00000317Y010200000D03*
D13*
X000999808Y010200000D03*
D13*
X001999933Y010200000D03*
D13*
X001999933Y015800000D03*
D13*
X000999808Y015800000D03*
D13*
X-00000317Y015800000D03*
D13*
X-01999933Y015800000D03*
D13*
X-02500000Y013000000D03*
D13*
X006253364Y007500000D03*
D13*
X004746636Y007500000D03*
D13*
X008134907Y014783000D03*
D13*
X003932819Y014794151D03*
D13*
X003800000Y009800000D03*
D13*
X005200000Y013200000D03*
D13*
X-07400000Y016000000D03*
D13*
X000246636Y017800000D03*
D13*
X001753364Y018200000D03*
D13*
X009200000Y-08000000D03*
D13*
X013000000Y-08000000D03*
D13*
X010500000Y-05499998D03*
D13*
X014000000Y-03500002D03*
D13*
X014200125Y019000000D03*
D13*
X013200127Y019000000D03*
D13*
X012200129Y019000000D03*
D13*
X-01500000Y003300000D03*
D13*
X003000000Y001500000D03*
D13*
X-13000000Y003000000D03*
D13*
X-08000000Y004800000D03*
D13*
X-07800000Y000000000D03*
D13*
X-07500000Y006000000D03*
D13*
X-07500000Y008500000D03*
D13*
X-14999998Y-03000000D03*
D13*
X-07900000Y001000000D03*
D13*
X-20100000Y000000000D03*
D13*
X002000000Y004800000D03*
D13*
X002300000Y006000000D03*
D13*
X-02000000Y007200000D03*
D13*
X-02300000Y006000000D03*
D13*
X-02000000Y004800000D03*
D13*
X000800000Y009400000D03*
D13*
X003200000Y008500000D03*
D13*
X-05253364Y004400000D03*
D13*
X011000000Y006949960D03*
D13*
X-04500002Y014600000D03*
D13*
X007249938Y024000000D03*
D13*
X017800000Y002750068D03*
D13*
X-16000000Y-03400000D03*
D13*
X004958000Y-05542000D03*
D13*
X-04246636Y017400000D03*
D13*
X-03200000Y007200000D03*
D13*
X000657145Y003921357D03*
D13*
X007989334Y003741750D03*
D13*
X-06175000Y000275000D03*
D13*
X-02803000Y-12765000D03*
D13*
X008957115Y-13358084D03*
D13*
X016657139Y003637148D03*
D13*
X-05325728Y014809640D03*
D13*
X002835000Y009553627D03*
D13*
X004875000Y010160000D03*
D13*
X-01183000Y025014000D03*
D13*
X006335050Y-06669000D03*
D13*
X-00800000Y-05200000D03*
D13*
X-12505000Y005850000D03*
D13*
X-12320639Y000416693D03*
D13*
X-19500000Y002775000D03*
D13*
X-01593000Y008722000D03*
D13*
X006260000Y015654000D03*
D13*
X000000000Y005775000D03*
D13*
X004576000Y019255000D03*
D13*
X-01600000Y000000000D03*
D13*
X-02567755Y009291316D03*
D13*
X006835078Y004830341D03*
D13*
X-16740000Y-01675000D03*
D13*
X003783404Y007151542D03*
D13*
X006178398Y022903623D03*
D13*
X-09411000Y-03823000D03*
D13*
X009600000Y018930000D03*
D13*
X015950000Y-09349000D03*
D13*
X-18636000Y007742000D03*
D13*
X-17364000Y005880000D03*
%LPC*%
D41*
X022300012Y-09349833D03*
%LPD*%
%LPC*%
D41*
X022300012Y-07649811D03*
%LPD*%
%LPC*%
D48*
X021756164Y003500130D03*
%LPD*%
%LPC*%
D48*
X021756164Y006500124D03*
%LPD*%
%LPC*%
D62*
X-21000000Y025000000D03*
%LPD*%
%LPC*%
D62*
X021000000Y025000000D03*
%LPD*%
%LPC*%
D62*
X-21000000Y-14000000D03*
%LPD*%
%LPC*%
D62*
X021000000Y-14000000D03*
%LPD*%
M02*